<svg xmlns="http://www.w3.org/2000/svg" xmlns:xlink="http://www.w3.org/1999/xlink" viewBox="0 0 41.1 26.98"><defs><style>.cls-1,.cls-2{fill:none;}.cls-2{stroke:#fff;stroke-miterlimit:10;stroke-width:3px;}.cls-3{clip-path:url(#clip-path);}.cls-4{clip-path:url(#clip-path-3);}.cls-5{fill:#fff;}.cls-6{fill:#80a7d8;}.cls-7{fill:#f1bd51;}.cls-8{fill:#7a361d;}</style><clipPath id="clip-path"><circle class="cls-1" cx="20.55" cy="13.49" r="11.99"/></clipPath><clipPath id="clip-path-3"><rect class="cls-1" y="1.5" width="41.1" height="23.98"/></clipPath></defs><title>argentina</title><g id="Layer_2" data-name="Layer 2"><g id="OBJECTS"><circle class="cls-2" cx="20.55" cy="13.49" r="11.99"/><g class="cls-3"><g class="cls-3"><g class="cls-4"><rect class="cls-5" y="9.49" width="41.1" height="7.99"/><rect class="cls-6" y="1.5" width="41.1" height="7.99"/><rect class="cls-6" y="17.48" width="41.1" height="7.99"/><g class="cls-4"><path class="cls-7" d="M20.39,13.48l.12,3.28s0,.06,0,.06,0-.06,0-.06l.12-3.28Z"/><path class="cls-8" d="M20.55,16.83s-.05,0-.05-.07l-.12-3.27h0l.12,3.28s0,0,0,0,0,0,0,0l.13-3.28-.11,3.28s0,.07-.05.07Z"/><polygon class="cls-8" points="20.47 13.48 20.55 15.73 20.63 13.48 20.47 13.48"/><path class="cls-7" d="M20.24,14.54c-.18.41,0,.75-.21,1.11a1.39,1.39,0,0,0-.08.82c0,.16-.15.21-.12.25s.18,0,.23-.26-.07-.34.15-.78.05-.64.28-1Z"/><path class="cls-8" d="M19.87,16.74h-.05s0-.05,0-.08a.25.25,0,0,0,.08-.18.85.85,0,0,0,0-.16,1,1,0,0,1,.09-.66,1.11,1.11,0,0,0,.1-.53,1.4,1.4,0,0,1,.12-.58h0a1.32,1.32,0,0,0-.1.57,1.26,1.26,0,0,1-.11.53,1,1,0,0,0-.09.66c0,.06,0,.11,0,.16a.29.29,0,0,1-.1.19s0,0,0,.05.17-.09.21-.25a.71.71,0,0,0,0-.2,1,1,0,0,1,.13-.59,1.1,1.1,0,0,0,.14-.53,1,1,0,0,1,.14-.5,1.16,1.16,0,0,0-.12.5,1.27,1.27,0,0,1-.14.54,1.13,1.13,0,0,0-.14.57.55.55,0,0,1,0,.22.4.4,0,0,1-.19.27Z"/><path class="cls-8" d="M20.3,14.65c-.15.41,0,.68-.19,1,.22-.25.07-.57.26-1Z"/><path class="cls-7" d="M20.71,13.48l-.12-3.26s0-.06,0-.06,0,.06,0,.06l-.12,3.26Z"/><path class="cls-8" d="M20.71,13.49l-.13-3.27s0-.05,0-.05,0,.05,0,.05l-.12,3.27.1-3.27s0-.08.05-.08.05,0,.05.08l.13,3.26Z"/><polygon class="cls-8" points="20.63 13.48 20.55 11.24 20.47 13.48 20.63 13.48"/><path class="cls-7" d="M20.86,12.43c.19-.41,0-.75.21-1.11a1.33,1.33,0,0,0,.09-.82c0-.16.15-.21.11-.25s-.17,0-.23.26.08.35-.15.79,0,.64-.27,1Z"/><path class="cls-8" d="M20.87,12.43h0a1.55,1.55,0,0,0,.11-.57,1,1,0,0,1,.11-.54,1.06,1.06,0,0,0,.09-.65c0-.07,0-.12,0-.17a.34.34,0,0,1,.09-.19s0,0,0-.05a.3.3,0,0,0-.22.25.76.76,0,0,0,0,.21,1,1,0,0,1-.14.58,1.23,1.23,0,0,0-.13.53,1,1,0,0,1-.14.5,1.33,1.33,0,0,0,.12-.5,1.27,1.27,0,0,1,.13-.54.93.93,0,0,0,.14-.57.76.76,0,0,1,0-.21c0-.18.14-.26.2-.27h.05s0,.05,0,.07a.28.28,0,0,0-.09.18.51.51,0,0,0,0,.17,1.12,1.12,0,0,1-.1.66,1.25,1.25,0,0,0-.1.53,1.51,1.51,0,0,1-.11.57Z"/><path class="cls-8" d="M20.81,12.33c.15-.41,0-.69.19-1-.22.25-.08.57-.27,1Z"/><path class="cls-7" d="M20.55,13.32l-3.27.12s-.06,0-.06,0,.06,0,.06,0l3.27.12Z"/><path class="cls-8" d="M20.55,13.64l-3.27-.1s-.07,0-.07-.06.05,0,.07,0l3.27-.13v0l-3.27.13s-.05,0-.05,0,.05,0,.05,0l3.27.12Z"/><polygon class="cls-8" points="20.55 13.4 18.31 13.48 20.55 13.57 20.55 13.4"/><path class="cls-7" d="M19.5,13.18c-.41-.19-.75,0-1.11-.22a1.48,1.48,0,0,0-.82-.08c-.17,0-.21-.15-.25-.11s0,.17.26.23.34-.08.78.15.64,0,1,.27Z"/><path class="cls-8" d="M19.4,13.41a1.34,1.34,0,0,0-.51-.12,1.23,1.23,0,0,1-.53-.13,1,1,0,0,0-.58-.14h-.2a.36.36,0,0,1-.28-.2h0v0s.05,0,.08,0a.26.26,0,0,0,.18.09h.16a1.13,1.13,0,0,1,.67.09,1.1,1.1,0,0,0,.53.11,1.23,1.23,0,0,1,.57.11v0a1.43,1.43,0,0,0-.57-.11,1.14,1.14,0,0,1-.54-.11,1.09,1.09,0,0,0-.66-.09h-.16a.3.3,0,0,1-.19-.09s0,0-.05,0,.08.16.25.21h.2a1,1,0,0,1,.59.14,1.16,1.16,0,0,0,.52.13,1.09,1.09,0,0,1,.51.14Z"/><path class="cls-8" d="M19.39,13.23c-.41-.15-.68,0-1-.19.25.22.58.08,1,.27Z"/><path class="cls-7" d="M20.55,13.65l3.27-.12s.06,0,.06,0-.06,0-.06,0l-3.27-.12Z"/><path class="cls-8" d="M20.55,13.66v0l3.27-.12s.05,0,.05,0-.05,0-.05,0l-3.27-.13,3.27.11s.07,0,.07,0-.05.06-.07.06l-3.27.12Z"/><polygon class="cls-8" points="20.55 13.57 22.8 13.48 20.55 13.4 20.55 13.57"/><path class="cls-7" d="M21.61,13.8c.41.18.75,0,1.11.21a1.39,1.39,0,0,0,.82.08c.16,0,.2.15.24.12s0-.18-.25-.23-.35.07-.79-.15-.64-.05-1-.28Z"/><path class="cls-8" d="M23.77,14.22a.05.05,0,0,1-.05,0,.34.34,0,0,0-.18-.09h-.17a1,1,0,0,1-.66-.09,1.26,1.26,0,0,0-.53-.11,1.27,1.27,0,0,1-.58-.11h0a1.35,1.35,0,0,0,.57.1,1.31,1.31,0,0,1,.54.11,1,1,0,0,0,.65.09h.17a.37.37,0,0,1,.19.09l0,0c0-.08-.08-.17-.24-.21a.78.78,0,0,0-.21,0,.93.93,0,0,1-.58-.13,1.27,1.27,0,0,0-.53-.14,1,1,0,0,1-.5-.14,1.13,1.13,0,0,0,.5.12,1.34,1.34,0,0,1,.54.14.89.89,0,0,0,.57.13.78.78,0,0,1,.21,0,.36.36,0,0,1,.27.19h0v0Z"/><path class="cls-8" d="M21.71,13.74c.41.15.68,0,1,.19-.25-.22-.57-.07-1-.26Z"/><path class="cls-7" d="M20.44,13.37l-2.23,2.4s0,0,0,.07.07,0,.07,0l2.4-2.23Z"/><path class="cls-8" d="M18.22,15.86a.06.06,0,0,1,0-.1l2.23-2.4v0l-2.22,2.4s0,0,0,.05.07,0,.07,0l2.39-2.22-2.38,2.23a.1.1,0,0,1-.06,0Z"/><polygon class="cls-8" points="20.49 13.43 18.97 15.07 20.61 13.54 20.49 13.43"/><path class="cls-7" d="M19.59,14c-.43.15-.55.51-.93.63a1.37,1.37,0,0,0-.64.52c-.13.1-.26,0-.26.09s.15.1.35,0,.18-.3.65-.45.49-.41.93-.53Z"/><path class="cls-8" d="M17.87,15.33l-.09,0,0-.05s0,0,.07,0a.37.37,0,0,0,.19-.07l.1-.12a1.16,1.16,0,0,1,.54-.41,1.17,1.17,0,0,0,.45-.29,1.32,1.32,0,0,1,.48-.33v0a1.39,1.39,0,0,0-.48.32,1.08,1.08,0,0,1-.45.3,1.06,1.06,0,0,0-.53.4.65.65,0,0,1-.11.12.32.32,0,0,1-.2.08h-.05a.3.3,0,0,0,.33,0,1,1,0,0,0,.15-.14,1,1,0,0,1,.51-.32,1.35,1.35,0,0,0,.47-.27,1,1,0,0,1,.46-.26,1.34,1.34,0,0,0-.45.27,1.08,1.08,0,0,1-.47.28,1,1,0,0,0-.5.31,1.07,1.07,0,0,1-.16.14.43.43,0,0,1-.24.08Z"/><path class="cls-8" d="M19.55,14.13c-.39.18-.48.48-.86.59.33,0,.45-.35.89-.51Z"/><path class="cls-7" d="M20.67,13.6l2.22-2.39s0-.05,0-.08-.08,0-.08,0l-2.39,2.23Z"/><path class="cls-8" d="M20.67,13.61h0l2.23-2.4s0,0,0-.06-.06,0-.06,0l-2.4,2.23,2.39-2.24s.06,0,.08,0,0,.07,0,.09l-2.23,2.4Z"/><polygon class="cls-8" points="20.61 13.54 22.14 11.9 20.49 13.43 20.61 13.54"/><path class="cls-7" d="M21.52,13c.42-.16.54-.51.93-.63a1.44,1.44,0,0,0,.64-.52c.12-.11.25-.05.25-.1s-.14-.1-.34,0-.19.3-.66.45-.48.42-.92.54Z"/><path class="cls-8" d="M21.52,13v0a1.46,1.46,0,0,0,.48-.33,1.15,1.15,0,0,1,.46-.3,1.1,1.1,0,0,0,.53-.4.65.65,0,0,1,.11-.12.26.26,0,0,1,.2-.07l0,0a.28.28,0,0,0-.32,0,.67.67,0,0,0-.15.13,1.1,1.1,0,0,1-.52.32,1.35,1.35,0,0,0-.47.28,1.07,1.07,0,0,1-.45.26,1.28,1.28,0,0,0,.44-.28,1.32,1.32,0,0,1,.48-.28,1,1,0,0,0,.5-.31.73.73,0,0,1,.16-.14.39.39,0,0,1,.33-.05l0,0s0,0-.07,0a.26.26,0,0,0-.19.06.65.65,0,0,0-.11.12,1,1,0,0,1-.53.41,1.23,1.23,0,0,0-.46.3,1.46,1.46,0,0,1-.48.33Z"/><path class="cls-8" d="M21.55,12.85c.4-.19.48-.49.87-.6-.33,0-.46.35-.89.52Z"/><path class="cls-7" d="M20.67,13.37l-2.4-2.23s-.05,0-.07,0,0,.08,0,.08l2.23,2.39Z"/><path class="cls-8" d="M20.44,13.6,18.2,11.21s0-.06,0-.08a.06.06,0,0,1,.09,0l2.39,2.22v0l-2.39-2.23s-.05,0-.07,0,0,.06,0,.06l2.22,2.4Z"/><polygon class="cls-8" points="20.61 13.43 18.97 11.9 20.49 13.54 20.61 13.43"/><path class="cls-7" d="M20,12.52c-.15-.42-.5-.55-.63-.93s-.41-.51-.52-.64,0-.25-.09-.26-.1.15,0,.35.3.19.46.66.41.48.53.92Z"/><path class="cls-8" d="M19.79,12.62a1.34,1.34,0,0,0-.27-.45,1,1,0,0,1-.28-.47,1.11,1.11,0,0,0-.31-.5.57.57,0,0,1-.15-.16.39.39,0,0,1-.05-.33l.05,0s0,0,0,.07a.34.34,0,0,0,.07.19l.12.11a1.06,1.06,0,0,1,.4.53,1.11,1.11,0,0,0,.3.45,1.69,1.69,0,0,1,.34.49h0a1.35,1.35,0,0,0-.32-.47,1.14,1.14,0,0,1-.31-.46,1.09,1.09,0,0,0-.39-.53l-.13-.1a.43.43,0,0,1-.07-.21s0-.05,0-.05-.06.18,0,.33a.51.51,0,0,0,.14.15,1.13,1.13,0,0,1,.32.51,1.08,1.08,0,0,0,.27.47,1.05,1.05,0,0,1,.26.46Z"/><path class="cls-8" d="M19.92,12.48c-.2-.39-.5-.47-.6-.86,0,.33.35.46.51.89Z"/><path class="cls-7" d="M20.44,13.6l2.39,2.23s.05,0,.08,0,0-.07,0-.07l-2.22-2.4Z"/><path class="cls-8" d="M22.88,15.85a.08.08,0,0,1-.05,0l-2.4-2.22h0l2.4,2.22s0,0,.06,0,0-.05,0-.05l-2.23-2.4,2.24,2.38a.06.06,0,0,1,0,.09Z"/><polygon class="cls-8" points="20.49 13.54 22.14 15.07 20.61 13.43 20.49 13.54"/><path class="cls-7" d="M21.08,14.45c.16.43.51.55.63.94a1.39,1.39,0,0,0,.52.63c.11.13,0,.26.1.26s.1-.15,0-.34-.3-.19-.45-.66-.42-.49-.54-.93Z"/><path class="cls-8" d="M22.33,16.29s0,0,0-.07a.28.28,0,0,0-.07-.19.42.42,0,0,0-.12-.1,1.09,1.09,0,0,1-.4-.54,1.19,1.19,0,0,0-.3-.45,1.57,1.57,0,0,1-.33-.48h0a1.28,1.28,0,0,0,.33.47,1.31,1.31,0,0,1,.3.46,1.06,1.06,0,0,0,.4.53.65.65,0,0,1,.12.11.3.3,0,0,1,.07.2s0,.05,0,.05.06-.18,0-.33a.64.64,0,0,0-.13-.15.94.94,0,0,1-.32-.51,1.22,1.22,0,0,0-.28-.47,1,1,0,0,1-.25-.45,1.1,1.1,0,0,0,.27.44,1.26,1.26,0,0,1,.28.47,1,1,0,0,0,.31.5.73.73,0,0,1,.14.16c.08.15.09.27.05.33l0,0Z"/><path class="cls-8" d="M21.19,14.49c.19.39.49.47.6.86,0-.33-.35-.46-.52-.89Z"/><path class="cls-7" d="M20.4,13.42l-1.14,3.07s0,.06,0,.07.06,0,.06,0l1.36-3Z"/><path class="cls-8" d="M19.3,16.57a.05.05,0,0,1,0-.08l1.13-3.07h0l-1.14,3.06s0,.05,0,.06l0,0,1.36-3-1.34,3a.11.11,0,0,1-.05,0Z"/><polygon class="cls-8" points="20.48 13.46 19.69 15.56 20.63 13.52 20.48 13.46"/><path class="cls-7" d="M19.86,14.35c-.33.3-.31.67-.62.93a1.49,1.49,0,0,0-.39.73c-.07.15-.22.14-.2.19s.18,0,.31-.15.06-.35.44-.67.29-.57.65-.85Z"/><path class="cls-8" d="M18.7,16.23h0l-.05,0s0,0,.05-.06a.29.29,0,0,0,.15-.13.75.75,0,0,0,.05-.16,1.09,1.09,0,0,1,.35-.57,1.32,1.32,0,0,0,.3-.45,1.31,1.31,0,0,1,.31-.49h0a1.55,1.55,0,0,0-.32.48,1.15,1.15,0,0,1-.3.46,1.06,1.06,0,0,0-.34.57,1.31,1.31,0,0,1-.05.15.32.32,0,0,1-.16.15s0,0,0,0,.19,0,.29-.15a.51.51,0,0,0,.09-.18,1.06,1.06,0,0,1,.35-.49,1.2,1.2,0,0,0,.33-.44,1.12,1.12,0,0,1,.32-.41,1.27,1.27,0,0,0-.3.42,1.23,1.23,0,0,1-.34.45,1.07,1.07,0,0,0-.34.47.66.66,0,0,1-.09.19.37.37,0,0,1-.27.18Z"/><path class="cls-8" d="M19.87,14.46c-.29.32-.25.63-.57.88.3-.15.29-.5.63-.82Z"/><path class="cls-7" d="M20.7,13.55l1.14-3.07s0-.05,0-.07-.05,0-.05,0l-1.37,3Z"/><path class="cls-8" d="M20.71,13.55h0l1.14-3.07s0-.05,0-.06l0,0-1.37,3,1.34-3a.11.11,0,0,1,.05,0l.06,0s0,.06,0,.07l-1.14,3.06Z"/><polygon class="cls-8" points="20.63 13.52 21.41 11.41 20.48 13.46 20.63 13.52"/><path class="cls-7" d="M21.24,12.63c.33-.31.31-.68.63-.94a1.38,1.38,0,0,0,.38-.73c.08-.14.22-.13.21-.18s-.18,0-.31.14-.07.35-.44.67-.29.58-.65.85Z"/><path class="cls-8" d="M21.25,12.64l0,0a1.26,1.26,0,0,0,.32-.48,1.08,1.08,0,0,1,.31-.46,1,1,0,0,0,.33-.57.52.52,0,0,1,.06-.15.35.35,0,0,1,.15-.15l.05,0a.29.29,0,0,0-.29.15.54.54,0,0,0-.1.18.91.91,0,0,1-.35.49,1.32,1.32,0,0,0-.33.44.93.93,0,0,1-.31.41,1.32,1.32,0,0,0,.3-.42,1.2,1.2,0,0,1,.33-.44,1,1,0,0,0,.34-.48.69.69,0,0,1,.1-.19c.09-.13.21-.19.28-.17l0,0s0,0,0,.05a.23.23,0,0,0-.15.14.52.52,0,0,0-.06.15,1,1,0,0,1-.34.58,1.11,1.11,0,0,0-.3.45,1.52,1.52,0,0,1-.32.49Z"/><path class="cls-8" d="M21.23,12.51c.3-.32.26-.63.57-.87-.3.14-.29.49-.62.81Z"/><path class="cls-7" d="M20.61,13.34,17.55,12.2s-.06,0-.08,0,.05.06.05.06l3,1.37Z"/><path class="cls-8" d="M20.49,13.63l-3-1.35s-.06,0-.05-.07.07,0,.09,0l3.07,1.13v0l-3.06-1.13s-.05,0-.07,0,0,0,0,0l3,1.36Z"/><polygon class="cls-8" points="20.58 13.41 18.48 12.63 20.52 13.56 20.58 13.41"/><path class="cls-7" d="M19.69,12.8c-.3-.33-.68-.31-.94-.63a1.32,1.32,0,0,0-.72-.38c-.15-.08-.14-.22-.19-.21s0,.18.15.32.35.06.67.43.57.29.85.65Z"/><path class="cls-8" d="M19.52,13a1.47,1.47,0,0,0-.43-.3,1.2,1.2,0,0,1-.44-.33,1,1,0,0,0-.48-.34,1.18,1.18,0,0,1-.19-.1.35.35,0,0,1-.17-.28l0,0s0,0,.06.05a.34.34,0,0,0,.13.15l.15.05a1,1,0,0,1,.58.34,1.32,1.32,0,0,0,.45.3,1.22,1.22,0,0,1,.49.32h0a1.45,1.45,0,0,0-.48-.31,1.21,1.21,0,0,1-.47-.31,1,1,0,0,0-.57-.33l-.15,0a.39.39,0,0,1-.14-.16s0-.05,0-.05a.31.31,0,0,0,.16.3l.18.09a1,1,0,0,1,.49.35,1.13,1.13,0,0,0,.43.32,1.1,1.1,0,0,1,.42.32Z"/><path class="cls-8" d="M19.58,12.8c-.32-.28-.64-.25-.88-.56.14.29.5.28.82.62Z"/><path class="cls-7" d="M20.49,13.64l3.07,1.13s.05,0,.07,0,0-.06,0-.06l-3-1.36Z"/><path class="cls-8" d="M23.59,14.79h0l-3.06-1.13v0l3.07,1.14s0,0,.06,0,0,0,0,0l-3-1.37,3,1.35s.06,0,.05.07,0,0-.05,0Z"/><polygon class="cls-8" points="20.52 13.56 22.62 14.35 20.58 13.41 20.52 13.56"/><path class="cls-7" d="M21.41,14.18c.31.33.68.31.94.62a1.51,1.51,0,0,0,.72.39c.15.07.14.21.2.2s0-.18-.16-.31-.34-.06-.66-.44-.58-.29-.85-.65Z"/><path class="cls-8" d="M23.26,15.4s0,0-.05-.05a.33.33,0,0,0-.14-.15l-.15-.06a1,1,0,0,1-.58-.34,1.23,1.23,0,0,0-.45-.3,1.29,1.29,0,0,1-.49-.32h0a1.55,1.55,0,0,0,.48.32,1.11,1.11,0,0,1,.46.3,1,1,0,0,0,.57.34l.15,0a.26.26,0,0,1,.14.16s0,0,0,0,0-.19-.15-.3a.77.77,0,0,0-.19-.08,1.06,1.06,0,0,1-.49-.35,1.1,1.1,0,0,0-.43-.33,1,1,0,0,1-.41-.32,1.18,1.18,0,0,0,.42.3,1.2,1.2,0,0,1,.44.33,1,1,0,0,0,.48.35.55.55,0,0,1,.19.09.33.33,0,0,1,.17.29l0,0Z"/><path class="cls-8" d="M21.53,14.17c.32.29.63.25.87.57-.14-.3-.49-.29-.81-.63Z"/><path class="cls-7" d="M20.49,13.34l-3,1.36s-.06,0-.05.06.08,0,.08,0l3.06-1.13Z"/><path class="cls-8" d="M17.51,14.79a0,0,0,0,1-.05,0s0-.06.05-.07l3-1.36h0l-3,1.37s-.05,0,0,0,.06,0,.07,0l3.06-1.14-3.06,1.15Z"/><polygon class="cls-8" points="20.52 13.41 18.48 14.35 20.58 13.56 20.52 13.41"/><path class="cls-7" d="M19.46,13.61c-.45,0-.7.26-1.11.22a1.45,1.45,0,0,0-.78.24c-.16,0-.26-.06-.28,0s.1.15.32.11.3-.2.79-.16.61-.2,1.06-.14Z"/><path class="cls-8" d="M17.53,14.19a.3.3,0,0,1-.24-.09v0s0,0,.08,0a.31.31,0,0,0,.2,0l.15-.07a1.11,1.11,0,0,1,.64-.17,1,1,0,0,0,.53-.11,1.46,1.46,0,0,1,.58-.11v0a1.45,1.45,0,0,0-.57.11,1.07,1.07,0,0,1-.54.11,1,1,0,0,0-.64.17l-.14.07a.38.38,0,0,1-.22,0s-.05,0-.05,0a.28.28,0,0,0,.31.1,1,1,0,0,0,.2-.06.93.93,0,0,1,.59-.1,1.21,1.21,0,0,0,.54-.08,1,1,0,0,1,.52-.06,1.12,1.12,0,0,0-.52.08,1.16,1.16,0,0,1-.54.08,1,1,0,0,0-.58.09.68.68,0,0,1-.2.07Z"/><path class="cls-8" d="M19.38,13.69c-.43,0-.62.27-1,.22.31.11.55-.15,1-.13Z"/><path class="cls-7" d="M20.61,13.64l3-1.37s.06,0,0-.06-.07,0-.07,0l-3.07,1.14Z"/><path class="cls-8" d="M20.62,13.65v0l3-1.36s.05,0,0,0-.06,0-.06,0l-3.07,1.13,3.06-1.15s.07,0,.09,0,0,.06-.05.07l-3,1.37Z"/><polygon class="cls-8" points="20.58 13.56 22.62 12.63 20.52 13.41 20.58 13.56"/><path class="cls-7" d="M21.65,13.37c.45,0,.7-.27,1.1-.23a1.42,1.42,0,0,0,.79-.23c.16-.05.25.05.27,0s-.1-.14-.32-.11-.29.2-.78.16-.61.2-1.06.14Z"/><path class="cls-8" d="M21.69,13.38h0v0a1.59,1.59,0,0,0,.56-.12,1.22,1.22,0,0,1,.54-.11,1,1,0,0,0,.64-.16.66.66,0,0,1,.15-.07.25.25,0,0,1,.21,0h.05c0-.07-.14-.12-.31-.1a.54.54,0,0,0-.19.07,1,1,0,0,1-.59.09,1.16,1.16,0,0,0-.54.08,1,1,0,0,1-.52.07,1.26,1.26,0,0,0,.51-.09,1.36,1.36,0,0,1,.55-.08,1,1,0,0,0,.58-.09.59.59,0,0,1,.2-.07.32.32,0,0,1,.32.08v.05s0,0-.08,0a.3.3,0,0,0-.2,0L23.4,13a1,1,0,0,1-.65.17,1.17,1.17,0,0,0-.53.11,1.42,1.42,0,0,1-.53.12Z"/><path class="cls-8" d="M21.72,13.28c.44,0,.63-.27,1-.22-.31-.11-.55.15-1,.14Z"/><path class="cls-7" d="M20.7,13.42l-1.36-3s0-.06-.06,0,0,.07,0,.07l1.14,3.07Z"/><path class="cls-8" d="M20.41,13.55l-1.15-3.06s0,0,0-.06l.05,0a.11.11,0,0,1,.05,0l1.36,3h0l-1.39-3h0v.06l1.14,3.07Z"/><polygon class="cls-8" points="20.63 13.46 19.69 11.41 20.48 13.52 20.63 13.46"/><path class="cls-7" d="M20.44,12.39c0-.45-.27-.7-.23-1.1A1.49,1.49,0,0,0,20,10.5c0-.16.06-.25,0-.27s-.15.1-.11.32.2.29.16.78.2.61.14,1.06Z"/><path class="cls-8" d="M20.44,12.39h0a1.4,1.4,0,0,0-.11-.56,1.12,1.12,0,0,1-.11-.54,1.09,1.09,0,0,0-.17-.64A.93.93,0,0,1,20,10.5a.35.35,0,0,1,0-.21s0,0,0,0-.13.14-.1.31a1.06,1.06,0,0,0,.06.19,1,1,0,0,1,.1.59,1.16,1.16,0,0,0,.08.54,1.16,1.16,0,0,1,.06.52,1.27,1.27,0,0,0-.08-.51,1.23,1.23,0,0,1-.08-.55,1,1,0,0,0-.09-.58.59.59,0,0,1-.07-.2.35.35,0,0,1,.07-.32H20s0,0,0,.08a.26.26,0,0,0,0,.2.61.61,0,0,0,.07.14,1.12,1.12,0,0,1,.17.65,1.05,1.05,0,0,0,.11.53,1.45,1.45,0,0,1,.11.57Z"/><path class="cls-8" d="M20.35,12.32c0-.44-.27-.63-.23-1-.1.32.15.56.14,1Z"/><path class="cls-7" d="M20.4,13.55l1.37,3s0,.06.05,0,0-.07,0-.07L20.7,13.42Z"/><path class="cls-8" d="M21.83,16.57a.12.12,0,0,1-.08,0l-1.36-3h0l1.37,3s0,.05,0,0,0-.05,0-.06l-1.14-3.06,1.16,3.06s0,.07,0,.08Z"/><polygon class="cls-8" points="20.48 13.52 21.41 15.56 20.63 13.46 20.48 13.52"/><path class="cls-7" d="M20.67,14.58c0,.45.26.7.23,1.11a1.45,1.45,0,0,0,.23.79c.06.15-.06.25,0,.27s.15-.11.12-.33-.2-.29-.17-.78-.19-.61-.14-1.06Z"/><path class="cls-8" d="M21.12,16.76s0-.05,0-.08a.22.22,0,0,0,0-.2.66.66,0,0,0-.07-.15,1.12,1.12,0,0,1-.17-.65,1.17,1.17,0,0,0-.1-.53,1.41,1.41,0,0,1-.12-.57h0a1.45,1.45,0,0,0,.12.57,1.19,1.19,0,0,1,.11.54,1,1,0,0,0,.16.63.93.93,0,0,1,.07.15.31.31,0,0,1,0,.22s0,0,0,0,.12-.15.1-.32a.62.62,0,0,0-.07-.19,1,1,0,0,1-.09-.59A1.37,1.37,0,0,0,21,15.1a1,1,0,0,1-.07-.52,1.2,1.2,0,0,0,.09.51,1.25,1.25,0,0,1,.07.55,1,1,0,0,0,.1.58,1.18,1.18,0,0,1,.07.2.39.39,0,0,1-.08.33Z"/><path class="cls-8" d="M20.76,14.66c0,.43.27.62.22,1,.1-.31-.15-.56-.14-1Z"/><path class="cls-7" d="M20.55,12.16a1.33,1.33,0,1,1-1.33,1.32,1.32,1.32,0,0,1,1.33-1.32Z"/><path class="cls-8" d="M20.55,14.83a1.35,1.35,0,1,1,1.35-1.35,1.34,1.34,0,0,1-1.35,1.35Zm0-2.67a1.33,1.33,0,1,0,1.32,1.32,1.33,1.33,0,0,0-1.32-1.32Z"/><path class="cls-8" d="M21.39,13.2a.53.53,0,0,0-.7-.08.44.44,0,0,0,0,.54l-.05,0a.7.7,0,0,1-.05-.58.49.49,0,0,1,.76.1Z"/><path class="cls-8" d="M21,13.14a.27.27,0,0,0-.23.08.22.22,0,0,1-.11,0s0,0,0,0a.41.41,0,0,0,.13-.08.26.26,0,0,1,.19-.05c.18,0,.28.15.3.14s-.1-.17-.3-.17Z"/><path class="cls-8" d="M21.26,13.31a.31.31,0,0,0-.48,0h0a.24.24,0,0,1,.37,0v0Z"/><path class="cls-8" d="M21,13.21a.09.09,0,1,1,0,.18.09.09,0,1,1,0-.18Z"/><path class="cls-8" d="M20.78,13.32a.4.4,0,0,0,.48,0h-.07a.28.28,0,0,1-.37,0v0Z"/><path class="cls-8" d="M21.27,13.36a.42.42,0,0,1-.45.07c-.11-.07-.11-.09-.08-.09s0,0,.12.06a.52.52,0,0,0,.41,0Z"/><path class="cls-8" d="M20.77,13.67a.06.06,0,0,1,0,.08.06.06,0,0,1-.07,0s0,0-.05-.06a.15.15,0,0,1-.13.08h0l0,0a.17.17,0,0,0,.12,0,.09.09,0,0,0,.13,0,.09.09,0,0,0,0-.13.1.1,0,0,0-.05,0Z"/><path class="cls-8" d="M20.89,14.1c-.09-.06-.13-.15-.24-.15l-.1,0h0l0,0s.1,0,.18,0a1.84,1.84,0,0,0,.16.1Z"/><path class="cls-8" d="M20.86,14.1a.56.56,0,0,0-.31,0h0l0,0c.08,0,.12-.06.31,0Z"/><path class="cls-8" d="M20.89,14.1c-.22,0-.15.11-.34.11h0l0,0c.23,0,.12-.12.34-.14Z"/><path class="cls-8" d="M20.74,14.43a.2.2,0,0,0-.19-.19.19.19,0,0,0-.18.19.18.18,0,0,1,.23-.14.2.2,0,0,1,.14.14Z"/><path class="cls-8" d="M19.71,13.2a.53.53,0,0,1,.7-.08.44.44,0,0,1,0,.54l0,0a.7.7,0,0,0,0-.58.49.49,0,0,0-.76.1Z"/><path class="cls-8" d="M20.08,13.14a.3.3,0,0,1,.23.08.21.21,0,0,0,.1,0s0,0,0,0l-.13-.08a.25.25,0,0,0-.18-.05c-.18,0-.28.15-.31.14s.11-.17.31-.17Z"/><path class="cls-8" d="M19.84,13.31a.32.32,0,0,1,.49,0h0a.23.23,0,0,0-.36,0v0Z"/><path class="cls-8" d="M20.1,13.21a.09.09,0,1,0,.09.09.09.09,0,0,0-.09-.09Z"/><path class="cls-8" d="M20.33,13.32a.42.42,0,0,1-.49,0h.08a.26.26,0,0,0,.36,0v0Z"/><path class="cls-8" d="M19.83,13.36a.42.42,0,0,0,.45.07c.11-.07.11-.09.09-.09l-.13.06a.52.52,0,0,1-.41,0Z"/><path class="cls-8" d="M20.34,13.67a.06.06,0,1,0,.08.06.15.15,0,0,0,.13.08h0l0,0a.17.17,0,0,1-.12,0,.09.09,0,0,1-.13,0,.11.11,0,0,1,0-.13l.07,0Z"/><path class="cls-8" d="M20.21,14.1c.1-.06.14-.15.24-.15l.1,0h0l0,0s-.1,0-.17,0l-.17.1Z"/><path class="cls-8" d="M20.24,14.1a.56.56,0,0,1,.31,0h0l0,0c-.08,0-.12-.06-.31,0Z"/><path class="cls-8" d="M20.21,14.1c.23,0,.16.11.34.11h0l0,0c-.22,0-.12-.12-.34-.14Z"/><path class="cls-8" d="M20.37,14.43a.19.19,0,0,1,.18-.19.2.2,0,0,1,.19.19.19.19,0,0,0-.23-.14.18.18,0,0,0-.14.14Z"/></g></g></g><circle class="cls-1" cx="20.55" cy="13.49" r="11.99"/></g></g></g></svg>