<svg xmlns="http://www.w3.org/2000/svg" xmlns:xlink="http://www.w3.org/1999/xlink" viewBox="0 0 41.1 26.98"><defs><style>.cls-1,.cls-2{fill:none;}.cls-2{stroke:#fff;stroke-miterlimit:10;stroke-width:3px;}.cls-3{clip-path:url(#clip-path);}.cls-4{clip-path:url(#clip-path-2);}.cls-5{fill:#180087;}.cls-6{fill:#fff;}.cls-7{fill:#ea0020;}</style><clipPath id="clip-path"><circle class="cls-1" cx="15.85" cy="13.49" r="11.99"/></clipPath><clipPath id="clip-path-2"><rect class="cls-1" y="1.5" width="41.1" height="23.98"/></clipPath></defs><title>australia</title><g id="Layer_2" data-name="Layer 2"><g id="OBJECTS"><circle class="cls-2" cx="15.85" cy="13.49" r="11.99"/><g class="cls-3"><g class="cls-4"><rect class="cls-5" y="1.5" width="41.1" height="23.98"/><polygon class="cls-6" points="10.81 16.19 11.44 18.14 13.35 17.41 12.22 19.11 13.97 20.16 11.94 20.33 12.22 22.36 10.81 20.88 9.41 22.36 9.69 20.33 7.65 20.16 9.41 19.11 8.28 17.41 10.19 18.14 10.81 16.19"/><polygon class="cls-6" points="32.43 19.69 32.73 20.62 33.64 20.27 33.11 21.08 33.94 21.58 32.97 21.66 33.11 22.63 32.43 21.92 31.77 22.63 31.9 21.66 30.93 21.58 31.77 21.08 31.23 20.27 32.14 20.62 32.43 19.69"/><polygon class="cls-6" points="27.03 11.13 27.33 12.06 28.24 11.71 27.7 12.52 28.54 13.02 27.57 13.1 27.7 14.07 27.03 13.36 26.36 14.07 26.49 13.1 25.52 13.02 26.36 12.52 25.82 11.71 26.73 12.06 27.03 11.13"/><polygon class="cls-6" points="32.43 5.27 32.73 6.2 33.64 5.86 33.11 6.67 33.94 7.16 32.97 7.25 33.11 8.21 32.43 7.51 31.77 8.21 31.9 7.25 30.93 7.16 31.77 6.67 31.23 5.86 32.14 6.2 32.43 5.27"/><polygon class="cls-6" points="37.24 9.69 37.54 10.62 38.45 10.27 37.91 11.08 38.75 11.58 37.78 11.66 37.91 12.63 37.24 11.92 36.57 12.63 36.71 11.66 35.74 11.58 36.57 11.08 36.04 10.27 36.95 10.62 37.24 9.69"/><polygon class="cls-6" points="34.6 14.03 34.84 14.6 35.45 14.65 34.98 15.05 35.13 15.66 34.6 15.33 34.07 15.66 34.22 15.05 33.74 14.65 34.36 14.6 34.6 14.03"/><polygon class="cls-6" points="9.01 1.5 9.01 5.11 0 5.11 0 8.71 9.01 8.71 9.01 12.31 12.61 12.31 12.61 8.71 21.63 8.71 21.63 5.11 12.61 5.11 12.61 1.5 9.01 1.5"/><polygon class="cls-6" points="0 1.5 0 2.71 19.21 12.31 21.62 12.31 21.62 11.11 2.42 1.5 0 1.5"/><polygon class="cls-6" points="19.21 1.5 0 11.11 0 12.31 2.42 12.31 21.62 2.71 21.62 1.5 19.21 1.5"/><polygon class="cls-7" points="9.73 1.5 9.73 5.83 0 5.83 0 7.99 9.73 7.99 9.73 12.31 11.89 12.31 11.89 7.99 21.62 7.99 21.62 5.83 11.89 5.83 11.89 1.5 9.73 1.5"/><path class="cls-7" d="M0,1.5v.81l5.59,2.8H7.21Zm20,0L12.8,5.11h1.62l7.2-3.61Z"/><path class="cls-7" d="M7.21,8.71,0,12.31H1.61l7.21-3.6Zm7.21,0,7.21,3.6v-.8L16,8.71Z"/></g></g></g></g></svg>