<svg xmlns="http://www.w3.org/2000/svg" xmlns:xlink="http://www.w3.org/1999/xlink" viewBox="0 0 41.1 26.98"><defs><style>.cls-1,.cls-2{fill:none;}.cls-2{stroke:#fff;stroke-miterlimit:10;stroke-width:3px;}.cls-3{clip-path:url(#clip-path);}.cls-4{clip-path:url(#clip-path-2);}.cls-5,.cls-9{fill:#3c9242;}.cls-6{fill:#edc226;}.cls-7{fill:#2d146e;}.cls-8{fill:#fff;}.cls-9{fill-rule:evenodd;}</style><clipPath id="clip-path"><circle class="cls-1" cx="20.55" cy="13.49" r="11.99"/></clipPath><clipPath id="clip-path-2"><rect class="cls-1" y="1.5" width="41.1" height="23.98"/></clipPath></defs><title>brazil</title><g id="Layer_2" data-name="Layer 2"><g id="OBJECTS"><circle class="cls-2" cx="20.55" cy="13.49" r="11.99"/><g class="cls-3"><g class="cls-4"><rect class="cls-5" y="1.5" width="41.1" height="23.98"/><polygon class="cls-6" points="6.34 13.49 20.55 22.56 34.77 13.49 20.55 4.41 6.34 13.49"/><g class="cls-4"><path class="cls-7" d="M26.54,13.49a6,6,0,1,1-6-6,6,6,0,0,1,6,6"/><path class="cls-8" d="M17.13,10.92a15.49,15.49,0,0,0-2.06.14,5.89,5.89,0,0,0-.32.92,14.33,14.33,0,0,1,2.38-.21,13.62,13.62,0,0,1,9.14,3.51,6.23,6.23,0,0,0,.22-.95,14.51,14.51,0,0,0-9.36-3.41"/><path class="cls-9" d="M15.44,11.73a.26.26,0,0,0,.22-.31.26.26,0,1,0-.22.31m0-.1a.17.17,0,0,0,.12-.2.16.16,0,0,0-.17-.16.18.18,0,0,0,0,.36"/><path class="cls-9" d="M15.91,11.68H16l0-.22h.24a.19.19,0,0,0,.16-.19.18.18,0,0,0-.19-.17l-.33,0Zm.08-.32h.22a.08.08,0,0,0,.06-.09.06.06,0,0,0-.07-.06H16Z"/><path class="cls-5" d="M16.39,11.65c0-.08,0-.26-.14-.25h-.16c.18,0,.19.17.2.25"/><path class="cls-9" d="M16.63,11.64h.27a.24.24,0,0,0,.24-.25V11.3a.26.26,0,0,0-.25-.24h-.27Zm.1-.11h.16a.16.16,0,0,0,.15-.16v0a.16.16,0,0,0-.16-.15h-.15Z"/><polygon class="cls-5" points="17.35 11.63 17.86 11.65 17.87 11.54 17.46 11.53 17.46 11.38 17.79 11.39 17.79 11.29 17.47 11.28 17.47 11.17 17.86 11.18 17.86 11.08 17.37 11.06 17.35 11.63"/><polygon class="cls-5" points="18.08 11.66 18.18 11.67 18.21 11.28 18.29 11.68 18.38 11.69 18.52 11.31 18.49 11.7 18.59 11.71 18.64 11.14 18.5 11.13 18.35 11.51 18.27 11.11 18.13 11.09 18.08 11.66"/><polygon class="cls-5" points="19.26 11.79 19.68 11.87 19.7 11.77 19.37 11.72 19.4 11.59 19.66 11.63 19.68 11.54 19.41 11.49 19.43 11.4 19.74 11.46 19.75 11.36 19.35 11.29 19.26 11.79"/><path class="cls-9" d="M20.34,12l.1,0,.06-.21.22.06a.19.19,0,0,0,.22-.13.18.18,0,0,0-.13-.22l-.31-.08Zm.19-.28.21,0a.07.07,0,0,0,.09,0,.08.08,0,0,0,0-.09l-.22-.06Z"/><path class="cls-9" d="M21,12.19l.11,0,.06-.21.21.07a.18.18,0,0,0,.12-.34l-.32-.1Zm.2-.27.21.07a.07.07,0,0,0,.09-.05.06.06,0,0,0,0-.09l-.21-.07Z"/><path class="cls-5" d="M21.51,12.34c0-.08.07-.25,0-.28L21.32,12c.17.05.12.22.09.3"/><path class="cls-9" d="M22,12.51a.29.29,0,0,0,.21-.54.29.29,0,0,0-.21.54m0-.1a.18.18,0,0,0,.13-.34.18.18,0,0,0-.13.34"/><path class="cls-9" d="M22.65,12.78a.27.27,0,0,0,.35-.16.26.26,0,0,0-.13-.36.25.25,0,0,0-.34.16.26.26,0,0,0,.12.36m0-.1a.16.16,0,0,0,.21-.1.17.17,0,0,0-.07-.23.18.18,0,0,0-.21.11.16.16,0,0,0,.07.22"/><polygon class="cls-5" points="22.8 12.53 23 12.62 22.96 12.7 22.77 12.61 22.8 12.53"/><rect class="cls-5" x="22.76" y="12.69" width="0.29" height="0.08" transform="translate(1.89 28.39) rotate(-65.75)"/><path class="cls-9" d="M23.08,13l.09,0,.09-.19.21.1a.17.17,0,0,0,.24-.08.18.18,0,0,0-.08-.24l-.29-.15Zm.23-.24.2.1a.07.07,0,0,0,.1,0,.08.08,0,0,0,0-.1l-.2-.1Z"/><path class="cls-5" d="M23.51,13.19c0-.08.11-.24,0-.29l-.14-.07c.17.08.09.24.05.31"/><polygon class="cls-5" points="23.72 13.3 24.17 13.55 24.22 13.46 23.86 13.26 23.93 13.13 24.21 13.29 24.26 13.2 23.98 13.04 24.04 12.94 24.37 13.13 24.43 13.04 24 12.8 23.72 13.3"/><path class="cls-5" d="M24.56,13.58c0,.05,0,.1.06.15s.12,0,.14,0-.3-.25-.19-.42.26,0,.32,0a.2.2,0,0,1,.09.26l-.11-.07s0-.1-.06-.13-.09-.05-.13,0,.31.23.19.4-.21.07-.3,0-.2-.17-.13-.29Z"/><path class="cls-5" d="M25.17,14s0,.1,0,.15.12,0,.14,0-.29-.26-.16-.42.26,0,.32,0a.2.2,0,0,1,.07.27l-.1-.08s0-.1-.06-.13-.09-.06-.12,0,.28.25.17.41-.23.06-.31,0-.19-.17-.11-.29Z"/><path class="cls-9" d="M25.74,14.64a.27.27,0,0,0,.38-.06.26.26,0,1,0-.38.06m.07-.08a.17.17,0,0,0,.23-.05.15.15,0,0,0,0-.23.15.15,0,0,0-.22,0,.16.16,0,0,0,0,.24"/><polygon class="cls-8" points="15.66 12.15 15.58 12.4 15.7 12.44 15.66 12.15"/><polygon class="cls-8" points="15.66 12.15 15.74 12.4 15.62 12.44 15.66 12.15"/><polygon class="cls-8" points="15.9 12.33 15.64 12.33 15.64 12.46 15.9 12.33"/><polygon class="cls-8" points="15.9 12.33 15.7 12.48 15.62 12.38 15.9 12.33"/><polygon class="cls-8" points="15.41 12.33 15.62 12.48 15.7 12.38 15.41 12.33"/><polygon class="cls-8" points="15.41 12.33 15.67 12.33 15.67 12.46 15.41 12.33"/><polygon class="cls-8" points="15.81 12.62 15.73 12.37 15.61 12.41 15.81 12.62"/><polygon class="cls-8" points="15.81 12.62 15.6 12.47 15.68 12.36 15.81 12.62"/><polygon class="cls-8" points="15.51 12.62 15.71 12.47 15.64 12.36 15.51 12.62"/><polygon class="cls-8" points="15.51 12.62 15.59 12.37 15.71 12.41 15.51 12.62"/><polygon class="cls-8" points="16.19 14.67 16.11 14.92 16.23 14.96 16.19 14.67"/><polygon class="cls-8" points="16.19 14.67 16.27 14.92 16.15 14.96 16.19 14.67"/><polygon class="cls-8" points="16.43 14.85 16.18 14.85 16.18 14.98 16.43 14.85"/><polygon class="cls-8" points="16.43 14.85 16.23 15 16.15 14.9 16.43 14.85"/><polygon class="cls-8" points="15.95 14.85 16.15 15 16.23 14.9 15.95 14.85"/><polygon class="cls-8" points="15.95 14.85 16.2 14.85 16.2 14.98 15.95 14.85"/><polygon class="cls-8" points="16.34 15.14 16.26 14.89 16.14 14.93 16.34 15.14"/><polygon class="cls-8" points="16.34 15.14 16.13 14.99 16.21 14.88 16.34 15.14"/><polygon class="cls-8" points="16.04 15.14 16.25 14.99 16.17 14.88 16.04 15.14"/><polygon class="cls-8" points="16.04 15.14 16.11 14.89 16.24 14.93 16.04 15.14"/><polygon class="cls-8" points="15.45 15.29 15.41 15.46 15.48 15.49 15.45 15.29"/><polygon class="cls-8" points="15.45 15.29 15.51 15.46 15.43 15.49 15.45 15.29"/><polygon class="cls-8" points="15.62 15.41 15.44 15.41 15.44 15.5 15.62 15.41"/><polygon class="cls-8" points="15.62 15.41 15.48 15.52 15.43 15.45 15.62 15.41"/><polygon class="cls-8" points="15.29 15.41 15.43 15.52 15.48 15.45 15.29 15.41"/><polygon class="cls-8" points="15.29 15.41 15.46 15.41 15.46 15.5 15.29 15.41"/><polygon class="cls-8" points="15.55 15.61 15.5 15.44 15.42 15.47 15.55 15.61"/><polygon class="cls-8" points="15.55 15.61 15.42 15.51 15.47 15.44 15.55 15.61"/><polygon class="cls-8" points="15.36 15.61 15.49 15.51 15.44 15.44 15.36 15.61"/><polygon class="cls-8" points="15.36 15.61 15.41 15.44 15.48 15.47 15.36 15.61"/><polygon class="cls-8" points="16.78 14.44 16.74 14.55 16.79 14.58 16.78 14.44"/><polygon class="cls-8" points="16.78 14.44 16.81 14.55 16.75 14.58 16.78 14.44"/><polygon class="cls-8" points="16.89 14.53 16.77 14.53 16.77 14.59 16.89 14.53"/><polygon class="cls-8" points="16.89 14.53 16.79 14.6 16.76 14.55 16.89 14.53"/><polygon class="cls-8" points="16.66 14.53 16.76 14.6 16.79 14.55 16.66 14.53"/><polygon class="cls-8" points="16.66 14.53 16.78 14.53 16.78 14.59 16.66 14.53"/><polygon class="cls-8" points="16.85 14.66 16.81 14.54 16.75 14.56 16.85 14.66"/><polygon class="cls-8" points="16.85 14.66 16.75 14.59 16.79 14.54 16.85 14.66"/><polygon class="cls-8" points="16.7 14.66 16.8 14.59 16.77 14.54 16.7 14.66"/><polygon class="cls-8" points="16.7 14.66 16.74 14.54 16.8 14.56 16.7 14.66"/><polygon class="cls-8" points="17.44 15.31 17.37 15.52 17.47 15.55 17.44 15.31"/><polygon class="cls-8" points="17.44 15.31 17.5 15.52 17.4 15.55 17.44 15.31"/><polygon class="cls-8" points="17.64 15.46 17.43 15.46 17.43 15.57 17.64 15.46"/><polygon class="cls-8" points="17.64 15.46 17.47 15.59 17.4 15.5 17.64 15.46"/><polygon class="cls-8" points="17.23 15.46 17.41 15.59 17.47 15.5 17.23 15.46"/><polygon class="cls-8" points="17.23 15.46 17.45 15.46 17.45 15.57 17.23 15.46"/><polygon class="cls-8" points="17.56 15.7 17.5 15.49 17.39 15.53 17.56 15.7"/><polygon class="cls-8" points="17.56 15.7 17.39 15.57 17.45 15.49 17.56 15.7"/><polygon class="cls-8" points="17.32 15.7 17.48 15.57 17.42 15.49 17.32 15.7"/><polygon class="cls-8" points="17.32 15.7 17.38 15.49 17.48 15.53 17.32 15.7"/><polygon class="cls-8" points="17.26 15.91 17.19 16.11 17.29 16.14 17.26 15.91"/><polygon class="cls-8" points="17.26 15.91 17.32 16.11 17.22 16.14 17.26 15.91"/><polygon class="cls-8" points="17.46 16.06 17.25 16.06 17.25 16.16 17.46 16.06"/><polygon class="cls-8" points="17.46 16.06 17.29 16.18 17.22 16.09 17.46 16.06"/><polygon class="cls-8" points="17.06 16.06 17.23 16.18 17.29 16.09 17.06 16.06"/><polygon class="cls-8" points="17.06 16.06 17.27 16.06 17.27 16.16 17.06 16.06"/><polygon class="cls-8" points="17.38 16.29 17.32 16.09 17.22 16.12 17.38 16.29"/><polygon class="cls-8" points="17.38 16.29 17.21 16.17 17.27 16.08 17.38 16.29"/><polygon class="cls-8" points="17.13 16.29 17.3 16.17 17.24 16.08 17.13 16.29"/><polygon class="cls-8" points="17.13 16.29 17.2 16.09 17.3 16.12 17.13 16.29"/><polygon class="cls-8" points="22.41 11.37 22.33 11.62 22.45 11.65 22.41 11.37"/><polygon class="cls-8" points="22.41 11.37 22.49 11.62 22.37 11.65 22.41 11.37"/><polygon class="cls-8" points="22.65 11.55 22.4 11.55 22.4 11.68 22.65 11.55"/><polygon class="cls-8" points="22.65 11.55 22.45 11.7 22.37 11.59 22.65 11.55"/><polygon class="cls-8" points="22.17 11.55 22.38 11.7 22.45 11.59 22.17 11.55"/><polygon class="cls-8" points="22.17 11.55 22.42 11.55 22.42 11.68 22.17 11.55"/><polygon class="cls-8" points="22.56 11.84 22.48 11.59 22.36 11.63 22.56 11.84"/><polygon class="cls-8" points="22.56 11.84 22.35 11.69 22.43 11.58 22.56 11.84"/><polygon class="cls-8" points="22.26 11.84 22.47 11.69 22.39 11.58 22.26 11.84"/><polygon class="cls-8" points="22.26 11.84 22.34 11.59 22.46 11.63 22.26 11.84"/><polygon class="cls-8" points="24.75 15.34 24.67 15.58 24.79 15.62 24.75 15.34"/><polygon class="cls-8" points="24.75 15.34 24.83 15.58 24.71 15.62 24.75 15.34"/><polygon class="cls-8" points="25 15.51 24.74 15.51 24.74 15.64 25 15.51"/><polygon class="cls-8" points="25 15.51 24.79 15.66 24.71 15.56 25 15.51"/><polygon class="cls-8" points="24.5 15.51 24.72 15.66 24.79 15.56 24.5 15.51"/><polygon class="cls-8" points="24.5 15.51 24.76 15.51 24.76 15.64 24.5 15.51"/><polygon class="cls-8" points="24.91 15.8 24.82 15.55 24.7 15.59 24.91 15.8"/><polygon class="cls-8" points="24.91 15.8 24.7 15.65 24.77 15.54 24.91 15.8"/><polygon class="cls-8" points="24.6 15.8 24.81 15.65 24.73 15.54 24.6 15.8"/><polygon class="cls-8" points="24.6 15.8 24.68 15.55 24.8 15.59 24.6 15.8"/><polygon class="cls-8" points="25.59 15.48 25.53 15.64 25.61 15.66 25.59 15.48"/><polygon class="cls-8" points="25.59 15.48 25.64 15.64 25.55 15.66 25.59 15.48"/><polygon class="cls-8" points="25.74 15.6 25.58 15.6 25.58 15.68 25.74 15.6"/><polygon class="cls-8" points="25.74 15.6 25.61 15.7 25.56 15.63 25.74 15.6"/><polygon class="cls-8" points="25.42 15.6 25.56 15.7 25.61 15.63 25.42 15.6"/><polygon class="cls-8" points="25.42 15.6 25.59 15.6 25.59 15.68 25.42 15.6"/><polygon class="cls-8" points="25.68 15.79 25.63 15.62 25.55 15.65 25.68 15.79"/><polygon class="cls-8" points="25.68 15.79 25.55 15.69 25.6 15.62 25.68 15.79"/><polygon class="cls-8" points="25.48 15.79 25.62 15.69 25.57 15.62 25.48 15.79"/><polygon class="cls-8" points="25.48 15.79 25.54 15.62 25.61 15.65 25.48 15.79"/><polygon class="cls-8" points="25 15.91 24.93 16.11 25.03 16.14 25 15.91"/><polygon class="cls-8" points="25 15.91 25.06 16.11 24.96 16.14 25 15.91"/><polygon class="cls-8" points="25.2 16.06 24.99 16.06 24.99 16.16 25.2 16.06"/><polygon class="cls-8" points="25.2 16.06 25.03 16.18 24.96 16.09 25.2 16.06"/><polygon class="cls-8" points="24.79 16.06 24.97 16.18 25.03 16.09 24.79 16.06"/><polygon class="cls-8" points="24.79 16.06 25.01 16.06 25.01 16.16 24.79 16.06"/><polygon class="cls-8" points="25.12 16.29 25.06 16.09 24.95 16.12 25.12 16.29"/><polygon class="cls-8" points="25.12 16.29 24.95 16.17 25.01 16.08 25.12 16.29"/><polygon class="cls-8" points="24.87 16.29 25.04 16.17 24.98 16.08 24.87 16.29"/><polygon class="cls-8" points="24.87 16.29 24.94 16.09 25.04 16.12 24.87 16.29"/><polygon class="cls-8" points="23.55 17.16 23.49 17.36 23.59 17.4 23.55 17.16"/><polygon class="cls-8" points="23.55 17.16 23.62 17.36 23.52 17.4 23.55 17.16"/><polygon class="cls-8" points="23.76 17.31 23.54 17.31 23.54 17.42 23.76 17.31"/><polygon class="cls-8" points="23.76 17.31 23.58 17.44 23.52 17.35 23.76 17.31"/><polygon class="cls-8" points="23.35 17.31 23.52 17.44 23.58 17.35 23.35 17.31"/><polygon class="cls-8" points="23.35 17.31 23.57 17.31 23.57 17.42 23.35 17.31"/><polygon class="cls-8" points="23.68 17.55 23.61 17.35 23.51 17.38 23.68 17.55"/><polygon class="cls-8" points="23.68 17.55 23.5 17.42 23.57 17.34 23.68 17.55"/><polygon class="cls-8" points="23.43 17.55 23.6 17.42 23.54 17.34 23.43 17.55"/><polygon class="cls-8" points="23.43 17.55 23.49 17.35 23.6 17.38 23.43 17.55"/><polygon class="cls-8" points="23.54 17.81 23.49 17.97 23.57 18 23.54 17.81"/><polygon class="cls-8" points="23.54 17.81 23.6 17.97 23.52 18 23.54 17.81"/><polygon class="cls-8" points="23.71 17.93 23.54 17.93 23.54 18.01 23.71 17.93"/><polygon class="cls-8" points="23.71 17.93 23.57 18.03 23.52 17.96 23.71 17.93"/><polygon class="cls-8" points="23.38 17.93 23.52 18.03 23.57 17.96 23.38 17.93"/><polygon class="cls-8" points="23.38 17.93 23.55 17.93 23.55 18.01 23.38 17.93"/><polygon class="cls-8" points="23.64 18.12 23.59 17.96 23.51 17.98 23.64 18.12"/><polygon class="cls-8" points="23.64 18.12 23.5 18.02 23.55 17.95 23.64 18.12"/><polygon class="cls-8" points="23.45 18.12 23.58 18.02 23.53 17.95 23.45 18.12"/><polygon class="cls-8" points="23.45 18.12 23.5 17.96 23.58 17.98 23.45 18.12"/><polygon class="cls-8" points="24.15 16.73 24.09 16.9 24.17 16.92 24.15 16.73"/><polygon class="cls-8" points="24.15 16.73 24.2 16.9 24.12 16.92 24.15 16.73"/><polygon class="cls-8" points="24.31 16.85 24.14 16.85 24.14 16.94 24.31 16.85"/><polygon class="cls-8" points="24.31 16.85 24.17 16.95 24.12 16.89 24.31 16.85"/><polygon class="cls-8" points="23.99 16.85 24.13 16.95 24.17 16.89 23.99 16.85"/><polygon class="cls-8" points="23.99 16.85 24.16 16.85 24.16 16.94 23.99 16.85"/><polygon class="cls-8" points="24.25 17.04 24.19 16.88 24.11 16.91 24.25 17.04"/><polygon class="cls-8" points="24.25 17.04 24.11 16.94 24.16 16.87 24.25 17.04"/><polygon class="cls-8" points="24.05 17.04 24.19 16.94 24.14 16.87 24.05 17.04"/><polygon class="cls-8" points="24.05 17.04 24.1 16.88 24.18 16.91 24.05 17.04"/><polygon class="cls-8" points="24.63 16.39 24.57 16.59 24.66 16.62 24.63 16.39"/><polygon class="cls-8" points="24.63 16.39 24.7 16.59 24.59 16.62 24.63 16.39"/><polygon class="cls-8" points="24.83 16.54 24.62 16.54 24.62 16.64 24.83 16.54"/><polygon class="cls-8" points="24.83 16.54 24.66 16.66 24.6 16.57 24.83 16.54"/><polygon class="cls-8" points="24.43 16.54 24.6 16.66 24.66 16.57 24.43 16.54"/><polygon class="cls-8" points="24.43 16.54 24.64 16.54 24.64 16.64 24.43 16.54"/><polygon class="cls-8" points="24.75 16.77 24.69 16.57 24.59 16.61 24.75 16.77"/><polygon class="cls-8" points="24.75 16.77 24.58 16.65 24.64 16.56 24.75 16.77"/><polygon class="cls-8" points="24.5 16.77 24.68 16.65 24.61 16.56 24.5 16.77"/><polygon class="cls-8" points="24.5 16.77 24.57 16.57 24.67 16.61 24.5 16.77"/><polygon class="cls-8" points="23.52 16.62 23.48 16.78 23.55 16.81 23.52 16.62"/><polygon class="cls-8" points="23.52 16.62 23.58 16.78 23.5 16.81 23.52 16.62"/><polygon class="cls-8" points="23.69 16.74 23.52 16.74 23.52 16.82 23.69 16.74"/><polygon class="cls-8" points="23.69 16.74 23.55 16.84 23.5 16.77 23.69 16.74"/><polygon class="cls-8" points="23.37 16.74 23.5 16.84 23.55 16.77 23.37 16.74"/><polygon class="cls-8" points="23.37 16.74 23.54 16.74 23.54 16.82 23.37 16.74"/><polygon class="cls-8" points="23.63 16.93 23.58 16.77 23.49 16.79 23.63 16.93"/><polygon class="cls-8" points="23.63 16.93 23.49 16.83 23.54 16.76 23.63 16.93"/><polygon class="cls-8" points="23.43 16.93 23.57 16.83 23.52 16.76 23.43 16.93"/><polygon class="cls-8" points="23.43 16.93 23.48 16.77 23.57 16.79 23.43 16.93"/><polygon class="cls-8" points="18.27 13.52 18.2 13.72 18.3 13.75 18.27 13.52"/><polygon class="cls-8" points="18.27 13.52 18.33 13.72 18.23 13.75 18.27 13.52"/><polygon class="cls-8" points="18.47 13.66 18.26 13.66 18.26 13.77 18.47 13.66"/><polygon class="cls-8" points="18.47 13.66 18.3 13.79 18.24 13.71 18.47 13.66"/><polygon class="cls-8" points="18.06 13.66 18.24 13.79 18.3 13.71 18.06 13.66"/><polygon class="cls-8" points="18.06 13.66 18.28 13.66 18.28 13.77 18.06 13.66"/><polygon class="cls-8" points="18.39 13.9 18.33 13.7 18.23 13.73 18.39 13.9"/><polygon class="cls-8" points="18.39 13.9 18.22 13.78 18.28 13.69 18.39 13.9"/><polygon class="cls-8" points="18.14 13.9 18.32 13.78 18.25 13.69 18.14 13.9"/><polygon class="cls-8" points="18.14 13.9 18.21 13.7 18.31 13.73 18.14 13.9"/><polygon class="cls-8" points="22.18 13.01 22.13 13.18 22.21 13.2 22.18 13.01"/><polygon class="cls-8" points="22.18 13.01 22.24 13.18 22.15 13.2 22.18 13.01"/><polygon class="cls-8" points="22.35 13.13 22.18 13.13 22.18 13.22 22.35 13.13"/><polygon class="cls-8" points="22.35 13.13 22.21 13.23 22.16 13.16 22.35 13.13"/><polygon class="cls-8" points="22.02 13.13 22.16 13.23 22.21 13.16 22.02 13.13"/><polygon class="cls-8" points="22.02 13.13 22.19 13.13 22.19 13.22 22.02 13.13"/><polygon class="cls-8" points="22.29 13.32 22.23 13.16 22.15 13.19 22.29 13.32"/><polygon class="cls-8" points="22.29 13.32 22.14 13.22 22.19 13.15 22.29 13.32"/><polygon class="cls-8" points="22.08 13.32 22.22 13.22 22.17 13.15 22.08 13.32"/><polygon class="cls-8" points="22.08 13.32 22.14 13.16 22.22 13.19 22.08 13.32"/><polygon class="cls-8" points="20.55 15.92 20.47 16.16 20.59 16.21 20.55 15.92"/><polygon class="cls-8" points="20.55 15.92 20.63 16.16 20.51 16.21 20.55 15.92"/><polygon class="cls-8" points="20.8 16.1 20.54 16.1 20.54 16.23 20.8 16.1"/><polygon class="cls-8" points="20.8 16.1 20.59 16.25 20.52 16.14 20.8 16.1"/><polygon class="cls-8" points="20.31 16.1 20.52 16.25 20.59 16.14 20.31 16.1"/><polygon class="cls-8" points="20.31 16.1 20.56 16.1 20.56 16.23 20.31 16.1"/><polygon class="cls-8" points="20.7 16.39 20.63 16.14 20.5 16.18 20.7 16.39"/><polygon class="cls-8" points="20.7 16.39 20.5 16.23 20.57 16.13 20.7 16.39"/><polygon class="cls-8" points="20.4 16.39 20.61 16.23 20.53 16.13 20.4 16.39"/><polygon class="cls-8" points="20.4 16.39 20.48 16.14 20.6 16.18 20.4 16.39"/><polygon class="cls-8" points="21.25 14.77 21.18 14.98 21.28 15.01 21.25 14.77"/><polygon class="cls-8" points="21.25 14.77 21.31 14.98 21.21 15.01 21.25 14.77"/><polygon class="cls-8" points="21.45 14.92 21.23 14.92 21.23 15.03 21.45 14.92"/><polygon class="cls-8" points="21.45 14.92 21.27 15.05 21.21 14.96 21.45 14.92"/><polygon class="cls-8" points="21.04 14.92 21.22 15.05 21.28 14.96 21.04 14.92"/><polygon class="cls-8" points="21.04 14.92 21.26 14.92 21.26 15.03 21.04 14.92"/><polygon class="cls-8" points="21.37 15.16 21.3 14.96 21.2 14.99 21.37 15.16"/><polygon class="cls-8" points="21.37 15.16 21.2 15.03 21.26 14.95 21.37 15.16"/><polygon class="cls-8" points="21.12 15.16 21.29 15.03 21.23 14.95 21.12 15.16"/><polygon class="cls-8" points="21.12 15.16 21.18 14.96 21.29 14.99 21.12 15.16"/><polygon class="cls-8" points="20.55 14.24 20.48 14.44 20.59 14.47 20.55 14.24"/><polygon class="cls-8" points="20.55 14.24 20.62 14.44 20.52 14.47 20.55 14.24"/><polygon class="cls-8" points="20.75 14.38 20.54 14.38 20.54 14.49 20.75 14.38"/><polygon class="cls-8" points="20.75 14.38 20.58 14.51 20.52 14.42 20.75 14.38"/><polygon class="cls-8" points="20.35 14.38 20.52 14.51 20.58 14.42 20.35 14.38"/><polygon class="cls-8" points="20.35 14.38 20.56 14.38 20.56 14.49 20.35 14.38"/><polygon class="cls-8" points="20.68 14.62 20.61 14.42 20.51 14.45 20.68 14.62"/><polygon class="cls-8" points="20.68 14.62 20.51 14.5 20.57 14.41 20.68 14.62"/><polygon class="cls-8" points="20.43 14.62 20.6 14.5 20.54 14.41 20.43 14.62"/><polygon class="cls-8" points="20.43 14.62 20.49 14.42 20.59 14.45 20.43 14.62"/><polygon class="cls-8" points="19.95 14.82 19.89 14.98 19.98 15.01 19.95 14.82"/><polygon class="cls-8" points="19.95 14.82 20 14.98 19.92 15.01 19.95 14.82"/><polygon class="cls-8" points="20.11 14.93 19.94 14.93 19.94 15.02 20.11 14.93"/><polygon class="cls-8" points="20.11 14.93 19.97 15.04 19.92 14.96 20.11 14.93"/><polygon class="cls-8" points="19.79 14.93 19.92 15.04 19.97 14.96 19.79 14.93"/><polygon class="cls-8" points="19.79 14.93 19.96 14.93 19.96 15.02 19.79 14.93"/><polygon class="cls-8" points="20.05 15.13 20 14.96 19.91 14.99 20.05 15.13"/><polygon class="cls-8" points="20.05 15.13 19.91 15.03 19.96 14.96 20.05 15.13"/><polygon class="cls-8" points="19.85 15.13 19.99 15.03 19.94 14.96 19.85 15.13"/><polygon class="cls-8" points="19.85 15.13 19.9 14.96 19.98 14.99 19.85 15.13"/><polygon class="cls-8" points="20.25 15.28 20.21 15.4 20.27 15.41 20.25 15.28"/><polygon class="cls-8" points="20.25 15.28 20.29 15.4 20.23 15.41 20.25 15.28"/><polygon class="cls-8" points="20.37 15.37 20.25 15.37 20.25 15.43 20.37 15.37"/><polygon class="cls-8" points="20.37 15.37 20.27 15.44 20.23 15.39 20.37 15.37"/><polygon class="cls-8" points="20.13 15.37 20.23 15.44 20.27 15.39 20.13 15.37"/><polygon class="cls-8" points="20.13 15.37 20.26 15.37 20.26 15.43 20.13 15.37"/><polygon class="cls-8" points="20.32 15.5 20.28 15.39 20.23 15.4 20.32 15.5"/><polygon class="cls-8" points="20.32 15.5 20.22 15.43 20.26 15.38 20.32 15.5"/><polygon class="cls-8" points="20.18 15.5 20.28 15.43 20.24 15.38 20.18 15.5"/><polygon class="cls-8" points="20.18 15.5 20.22 15.39 20.28 15.4 20.18 15.5"/><polygon class="cls-8" points="22.35 17.31 22.28 17.51 22.38 17.55 22.35 17.31"/><polygon class="cls-8" points="22.35 17.31 22.41 17.51 22.31 17.55 22.35 17.31"/><polygon class="cls-8" points="22.55 17.45 22.34 17.45 22.34 17.57 22.55 17.45"/><polygon class="cls-8" points="22.55 17.45 22.38 17.58 22.31 17.5 22.55 17.45"/><polygon class="cls-8" points="22.14 17.45 22.31 17.58 22.38 17.5 22.14 17.45"/><polygon class="cls-8" points="22.14 17.45 22.36 17.45 22.36 17.57 22.14 17.45"/><polygon class="cls-8" points="22.47 17.7 22.41 17.49 22.3 17.53 22.47 17.7"/><polygon class="cls-8" points="22.47 17.7 22.3 17.57 22.36 17.48 22.47 17.7"/><polygon class="cls-8" points="22.22 17.7 22.39 17.57 22.33 17.48 22.22 17.7"/><polygon class="cls-8" points="22.22 17.7 22.29 17.49 22.39 17.53 22.22 17.7"/><polygon class="cls-8" points="22.86 16.82 22.81 16.98 22.89 17.01 22.86 16.82"/><polygon class="cls-8" points="22.86 16.82 22.91 16.98 22.83 17.01 22.86 16.82"/><polygon class="cls-8" points="23.02 16.94 22.85 16.94 22.85 17.02 23.02 16.94"/><polygon class="cls-8" points="23.02 16.94 22.89 17.04 22.83 16.97 23.02 16.94"/><polygon class="cls-8" points="22.69 16.94 22.83 17.04 22.89 16.97 22.69 16.94"/><polygon class="cls-8" points="22.69 16.94 22.87 16.94 22.87 17.02 22.69 16.94"/><polygon class="cls-8" points="22.96 17.13 22.91 16.97 22.83 17 22.96 17.13"/><polygon class="cls-8" points="22.96 17.13 22.82 17.03 22.87 16.96 22.96 17.13"/><polygon class="cls-8" points="22.76 17.13 22.9 17.03 22.84 16.96 22.76 17.13"/><polygon class="cls-8" points="22.76 17.13 22.81 16.97 22.89 17 22.76 17.13"/><polygon class="cls-8" points="21.87 16.68 21.82 16.84 21.9 16.87 21.87 16.68"/><polygon class="cls-8" points="21.87 16.68 21.93 16.84 21.85 16.87 21.87 16.68"/><polygon class="cls-8" points="22.03 16.79 21.86 16.79 21.86 16.88 22.03 16.79"/><polygon class="cls-8" points="22.03 16.79 21.89 16.9 21.85 16.82 22.03 16.79"/><polygon class="cls-8" points="21.71 16.79 21.85 16.9 21.89 16.82 21.71 16.79"/><polygon class="cls-8" points="21.71 16.79 21.88 16.79 21.88 16.88 21.71 16.79"/><polygon class="cls-8" points="21.97 16.98 21.92 16.82 21.84 16.85 21.97 16.98"/><polygon class="cls-8" points="21.97 16.98 21.83 16.89 21.89 16.82 21.97 16.98"/><polygon class="cls-8" points="21.77 16.98 21.91 16.89 21.86 16.82 21.77 16.98"/><polygon class="cls-8" points="21.77 16.98 21.82 16.82 21.91 16.85 21.77 16.98"/><polygon class="cls-8" points="18.14 16.41 18.07 16.65 18.19 16.69 18.14 16.41"/><polygon class="cls-8" points="18.14 16.41 18.22 16.65 18.1 16.69 18.14 16.41"/><polygon class="cls-8" points="18.39 16.59 18.14 16.59 18.14 16.72 18.39 16.59"/><polygon class="cls-8" points="18.39 16.59 18.18 16.74 18.11 16.64 18.39 16.59"/><polygon class="cls-8" points="17.9 16.59 18.11 16.74 18.18 16.64 17.9 16.59"/><polygon class="cls-8" points="17.9 16.59 18.16 16.59 18.16 16.72 17.9 16.59"/><polygon class="cls-8" points="18.3 16.88 18.22 16.63 18.1 16.67 18.3 16.88"/><polygon class="cls-8" points="18.3 16.88 18.09 16.73 18.16 16.62 18.3 16.88"/><polygon class="cls-8" points="17.99 16.88 18.2 16.73 18.13 16.62 17.99 16.88"/><polygon class="cls-8" points="17.99 16.88 18.08 16.63 18.2 16.67 17.99 16.88"/><polygon class="cls-8" points="20.55 18.09 20.52 18.17 20.56 18.18 20.55 18.09"/><polygon class="cls-8" points="20.55 18.09 20.58 18.17 20.54 18.18 20.55 18.09"/><polygon class="cls-8" points="20.64 18.15 20.55 18.15 20.55 18.19 20.64 18.15"/><polygon class="cls-8" points="20.64 18.15 20.56 18.2 20.54 18.16 20.64 18.15"/><polygon class="cls-8" points="20.47 18.15 20.54 18.2 20.56 18.16 20.47 18.15"/><polygon class="cls-8" points="20.47 18.15 20.55 18.15 20.55 18.19 20.47 18.15"/><polygon class="cls-8" points="20.6 18.25 20.58 18.16 20.54 18.18 20.6 18.25"/><polygon class="cls-8" points="20.6 18.25 20.53 18.2 20.55 18.16 20.6 18.25"/><polygon class="cls-8" points="20.5 18.25 20.57 18.2 20.55 18.16 20.5 18.25"/><polygon class="cls-8" points="20.5 18.25 20.53 18.16 20.57 18.18 20.5 18.25"/></g></g></g></g></g></svg>