<svg xmlns="http://www.w3.org/2000/svg" xmlns:xlink="http://www.w3.org/1999/xlink" viewBox="0 0 41.1 26.98"><defs><style>.cls-1,.cls-2{fill:none;}.cls-2{stroke:#fff;stroke-miterlimit:10;stroke-width:3px;}.cls-3{clip-path:url(#clip-path);}.cls-4{clip-path:url(#clip-path-3);}.cls-5{fill:#fff;}.cls-6{fill:#1e2788;}.cls-7{fill:#cb0028;}.cls-8{fill:#3a7aa1;}.cls-9{fill:#4c73d5;}.cls-10{fill:#fbfc2b;}.cls-11{fill:#c2a21f;}.cls-12{fill:#613f21;}.cls-13{fill:#160080;}.cls-14{fill:#d30028;}.cls-15{fill:#ba0019;}.cls-16{fill:#82373b;}.cls-17{fill:#83353b;}.cls-18{fill:#e8d629;}.cls-19{fill:#624e0f;}.cls-20{fill:#f4c627;}.cls-21{fill:#f4c427;}</style><clipPath id="clip-path"><circle class="cls-1" cx="20.55" cy="13.49" r="11.99"/></clipPath><clipPath id="clip-path-3"><rect class="cls-1" y="1.5" width="41.1" height="23.98"/></clipPath></defs><title>croatia</title><g id="Layer_2" data-name="Layer 2"><g id="OBJECTS"><circle class="cls-2" cx="20.55" cy="13.49" r="11.99"/><g class="cls-3"><g class="cls-3"><g class="cls-4"><rect class="cls-5" y="9.49" width="41.1" height="7.99"/><rect class="cls-6" y="17.48" width="41.1" height="7.99"/><rect class="cls-7" y="1.5" width="41.1" height="7.99"/><g class="cls-4"><path class="cls-5" d="M15.79,9.37a14.28,14.28,0,0,1,4.7-.8,13.88,13.88,0,0,1,4.82.82L26.51,7l-.84-1.46-1.52.62S23.09,5,23.09,5l-1.34.82-1.26-1-1.18.95L17.92,5l-1,1.2L15.4,5.52,14.59,7Z"/><path class="cls-7" d="M25.33,9.43h0a14.25,14.25,0,0,0-4.78-.82,14,14,0,0,0-4.72.81L14.56,7l.81-1.48,1.56.63L17.9,5l1.43.79,1.14-.94,1.3,1,1.31-.82c.45.45,1.06,1.13,1.09,1.16s1.08-.46,1.48-.62L26.54,7,25.33,9.43ZM15.39,5.55,14.62,7l1.19,2.37a13.33,13.33,0,0,1,4.68-.83,14.29,14.29,0,0,1,4.81.81L26.48,7l-.84-1.43-1.49.63A13.08,13.08,0,0,1,23.07,5l-1.3.82-1.3-1-1.14,1L17.9,5l-1,1.19-1.55-.64Z"/><path class="cls-8" d="M23.45,8.71l.69-2.43,1.47-.59L26.38,7,25.27,9.26a9,9,0,0,0-1.82-.55Z"/><path class="cls-9" d="M25.27,9.27h0a10.09,10.09,0,0,0-1.81-.55l.68-2.43,1.47-.6L26.39,7,25.27,9.27Zm.33-3.58-1.46.6-.68,2.42a9.54,9.54,0,0,1,1.8.53L26.37,7,25.6,5.69Z"/><path class="cls-8" d="M19.59,8.44l-.23-2.5L20.53,5l1.21.92-.21,2.51c-.67,0-1.15,0-1.94,0Z"/><path class="cls-9" d="M21.54,8.45h0c-.67,0-1.15,0-1.94,0l-.24-2.51L20.52,5l1.23.93-.21,2.52ZM20.52,5l-1.15.93.23,2.5a13.65,13.65,0,0,1,1.92,0l.22-2.51L20.52,5Z"/><path class="cls-8" d="M15.85,9.25,14.76,7l.72-1.27L17,6.34l.63,2.37a9.14,9.14,0,0,0-1.77.54Z"/><path class="cls-9" d="M15.84,9.27,14.75,7l.72-1.28L17,6.34l.64,2.37a11,11,0,0,0-1.78.55ZM15.48,5.7,14.77,7l1.08,2.28a10,10,0,0,1,1.77-.54L17,6.35l-1.5-.65Z"/><path class="cls-5" d="M15.61,8.1A1.88,1.88,0,0,0,16.47,8,1.36,1.36,0,0,0,17,7.53a.61.61,0,0,1-.34.78.84.84,0,0,1-1.07-.21Z"/><path class="cls-5" d="M16.25,8.42a.76.76,0,0,1-.65-.32h.28a1.65,1.65,0,0,0,.58-.1A1.13,1.13,0,0,0,17,7.55h0a1,1,0,0,1-.52.48,2,2,0,0,1-.86.08.92.92,0,0,0,1.07.2.61.61,0,0,0,.36-.6.58.58,0,0,1-.36.61.85.85,0,0,1-.43.1Z"/><path class="cls-10" d="M20.84,6.32l-.06,0v.12l-.08,0-.06.1,0,0s0,.08,0,.08l0,0,0,.06h.06v.08h.09l.08,0V7H21l.06,0,.22,0,0,0V6.86h.12v-.1h.06V6.65h0v0l0-.05V6.49l-.09-.08,0-.12,0,0V6.19l.06-.1v0h-.06l-.05,0h-.06v0l0,0h-.07V6.1l-.1,0L21,6.12v.07h0l-.05-.07-.08,0h0v.05l.08.11Z"/><path class="cls-11" d="M21.08,7l-.16,0v0l-.08,0h-.07l0-.09h0l-.05-.16,0,0h0l.05-.13.1,0,0-.1.08,0v0l-.08-.09V6.08h.06l.09,0,.05.07V6.12s0,0,.1-.08l.13,0v.09l0,0,0,0s0-.06.08-.07l0,0h.09v0l-.08.11v.06h.05l0,.13.09.08,0,.17-.07,0,0,.09-.08,0v.08l-.14,0,0,0,0,.06-.24,0ZM21,7l.06,0,.21,0V6.86l.14,0V6.76l.08,0,0-.09h.08l-.07-.06V6.5l-.08-.08,0-.12c-.06,0-.06,0-.06,0V6.19l.07-.1h-.05l0,0h-.07l0,.06-.09,0,0-.1-.09,0L21,6.13v.06h0l-.06,0-.06-.08-.07,0,0,0,.08.1v.08l-.08,0,0,.1-.1,0,0,.1s0,0,0,.08,0,0,0,0l0,.07h0l0,.09h.07l.09.06V7L21,7Z"/><path class="cls-1" d="M21.46,6.76l0-.06Z"/><path class="cls-1" d="M21.51,6.65l0,0Z"/><path class="cls-11" d="M20.68,6.6h.1v.08l0,0v.15l0,0V6.81h.07V7H21l0,0h.05V7l0,0,.05,0,0,.06h.07l0,0,0-.08.09,0,0,.06h0l0-.07V6.64l.07-.09h.09v0l-.09-.08,0-.12-.05,0v0h-.06l.06.09v0l0,0V6.6h-.07V6.7l0,0,0,.07,0,.06H21.1l-.05,0V6.77h0s0-.07,0-.07l-.06,0v0l0,0v0l0,0V6.46h0l0,0V6.36l0,0h-.07l-.05,0v.12h-.07l-.06.1Z"/><path class="cls-11" d="M20.93,7V6.81l-.05,0V6.9l-.06,0V6.71l0-.11-.09,0,0,0,.05-.12.08,0s0-.08,0-.09l.07,0h.09l0,.1,0,0,0,0h0s0,0-.05,0,0,0,0,.11l-.08,0,0,.09h.1l0,.1,0,.18V6.81l.09,0,0,.14,0,0h.09V7Zm.3,0-.06-.08,0,0h0v0l.06,0,0,.07,0,0h-.05l0-.09h0l0,0H21.1c-.06,0-.06-.06-.06-.07V6.77s0,0-.05-.07l-.05,0v0h-.05v0s0,0,0-.12v0h.07l0,0h-.06v.08l.08.06v0l0,0s0,.06,0,.07,0,.07,0,.07l0,0h.06s0,0,0,0,0-.07,0-.07l.05-.05V6.61s0,0,.09,0l0-.2-.06-.08.07,0,.08,0,0,.13.09.08v0l-.11,0-.06.08v.13h0l0,.06,0,0,0-.07-.07.06.06.08-.07,0Zm.06-.35s0,.07,0,.07l-.05,0c0,.06,0,.08,0,.08l.09-.06,0,0h0V6.64l0,0-.06,0Zm0-.34-.06,0,.07.05,0,.23,0,0,.11,0-.11-.09,0-.13Z"/><path class="cls-12" d="M21.05,6.76l.05,0V6.68h-.05v0h.13l0,0,0,0v.06h.12s0,0,0,0l-.11,0-.07,0Z"/><path class="cls-11" d="M21,6.81l0-.06.05,0v0h0l0,0h0l0,0v0h.1s0,0-.12,0L21,6.81Z"/><path class="cls-11" d="M21.33,6.43l-.06.05-.05.07h0l-.06-.08h-.08l0,.1h0l-.08-.08s0,0,0,0h.18V6.37l0,0h.1l0,0v.08h.16Z"/><path class="cls-11" d="M21,6.6h0l-.1-.1v0h.2l0-.06h0s0,0,.08,0h.06l-.09.06v.06l.19,0-.09.15h0l-.07-.08h-.05s0,.07,0,.08l0,0Zm.08-.15-.2,0,.1.09,0-.09h.06v0Z"/><path class="cls-12" d="M21,6.48h0l0,0h0a0,0,0,0,1,0,0h0Z"/><path class="cls-12" d="M21.2,6.47h0s0,0,0,0h0l0,0h0s0,0,0,0h0s0,0,0,0Z"/><path class="cls-11" d="M20.91,6.35h0v0a.87.87,0,0,1,.19,0,.77.77,0,0,1,.22,0,.76.76,0,0,1-.21,0,.78.78,0,0,0-.18,0Z"/><polygon class="cls-11" points="20.92 6.19 20.87 6.19 20.79 6.11 20.83 6.12 20.88 6.14 20.92 6.19"/><polygon class="cls-11" points="20.96 6.22 20.87 6.22 20.73 6.09 20.89 6.12 20.96 6.22 20.96 6.22"/><polygon class="cls-11" points="21.26 6.16 21.38 6.07 21.34 6.06 21.29 6.1 21.24 6.11 21.26 6.16"/><polygon class="cls-1" points="21.26 6.16 21.38 6.07 21.34 6.06 21.29 6.1 21.24 6.11 21.26 6.16"/><polygon class="cls-11" points="21.18 6.18 20.99 6.19 20.99 6.17 21.06 6.16 21.07 6.13 21.09 6.13 21.11 6.16 21.18 6.17 21.18 6.18"/><polygon class="cls-11" points="20.96 6.21 20.97 6.16 21.06 6.14 21.02 6.17 21.08 6.16 21.07 6.14 21.18 6.15 21.2 6.18 21.19 6.2 20.96 6.21 20.96 6.21"/><polygon class="cls-11" points="21.17 6.11 21.11 6.11 21.1 6.07 21.17 6.11"/><polygon class="cls-1" points="21.17 6.11 21.11 6.11 21.1 6.07 21.17 6.11"/><polygon class="cls-11" points="21.06 6.07 21.05 6.11 20.99 6.12 21.06 6.07"/><polygon class="cls-1" points="21.06 6.07 21.05 6.11 20.99 6.12 21.06 6.07"/><polygon class="cls-11" points="20.68 6.74 20.71 6.66 20.69 6.6 20.66 6.68 20.68 6.74"/><polygon class="cls-1" points="20.68 6.74 20.71 6.66 20.69 6.6 20.66 6.68 20.68 6.74"/><polygon class="cls-11" points="20.75 6.79 20.79 6.69 20.71 6.77 20.75 6.79"/><polygon class="cls-11" points="20.76 6.82 20.71 6.79 20.78 6.68 20.73 6.78 20.75 6.79 20.73 6.78 20.78 6.68 20.76 6.82 20.76 6.82"/><path class="cls-10" d="M19.76,6.36h-.07v.12l-.08,0-.06.11,0,0,0,.08,0,0,0,.07h.06V6.9l.09,0,.07,0V7h.09L20,7l.22,0,0,0V6.9h.11l0-.09h.06V6.69h.06l0-.05,0,0V6.53l-.09-.09,0-.11-.06,0V6.22l.06-.09v0h-.06l-.05,0h-.06v0l0,.06H20.1V6.14l-.09,0-.1.06v.07h0l0-.06-.08,0h-.05v.05l.09.11Z"/><path class="cls-11" d="M20,7.05l-.17,0V7l-.07,0h-.08l0-.09h0l-.05-.14s0,0,0,0l0,0,.06-.11.09,0v-.1l.08,0v0l-.08-.1V6.12h.06l.08,0,.06.07V6.15s0,0,.1-.08l.12,0v.1l0,0,0,0s0,0,.08-.06l0,0h.09v.06l-.07.1V6.3h0l0,.13.09.08.05.17-.07,0,0,.09h-.08V6.9l-.14,0,0,0,0,.06-.24,0ZM19.94,7,20,7l.21,0,0,0v0l.13,0V6.8l.08,0,0-.09.08,0-.07-.06V6.53l-.09-.07,0-.13-.06,0V6.22l.07-.1h0l0,0h-.06l0,.07-.09,0,0-.1-.09,0-.07,0v.08l-.06,0-.07-.08-.06,0,0,0,.07.09v.08l-.08,0,0,.09-.1,0,0,.1s0,0,0,.08,0,0,0,0l0,.07h0l0,.09h.07l.1.06V7Z"/><path class="cls-1" d="M20.38,6.79l0-.06Z"/><path class="cls-1" d="M20.43,6.69l0-.05Z"/><path class="cls-11" d="M19.6,6.64h.09l0,.09,0,0V6.9h0V6.85h.07V7h0V7H20l0,0H20l0,0,0,0s0,0,0,0l0,.06h.06l0,0,0-.08.09,0,0,.06h0s0-.07,0-.07V6.68l.06-.09.1,0v0l-.1-.08,0-.12,0,0h-.08l.06.08v.06h0v.15l-.06,0v.08l0,0,0,.08s0,.05,0,.05H20l0,0V6.8h0V6.73l-.05,0v0l-.06,0v0h0v-.1h0l0,0V6.4l0,0h-.06l-.07,0V6.5l-.07,0-.06.09Z"/><path class="cls-11" d="M19.85,7V6.85l-.05,0v.07l-.05,0,0-.18,0-.1-.08,0,0,0,.05-.12.08,0a.31.31,0,0,1,0-.1l.07,0h.08l0,.1,0,0,0-.06h0l-.05,0v.1l-.09,0,0,.08h.1l0,.1,0,.19V6.85l.09,0,0,.15H20V7Zm.29,0-.06-.08,0,0h0v0l.05,0,.06.07,0,0h-.05l0-.09.1-.07,0,0h0V6.68l0,0h-.06v.08l0,0c0,.08,0,.08,0,.08l0,0H20L20,6.86V6.81s0,0,0-.07l0,0v0h0v0s0,0,0-.12v0h.06l0,0h-.07s0,.07,0,.08l.07.06v0h0a.25.25,0,0,1,0,.07.14.14,0,0,1,0,.08l0,0h0s0,0,0,0,0-.06,0-.06l.05,0V6.65s0,0,.08,0l0-.21,0-.07.07,0h.08l0,.13.09.09v0l-.11,0-.06.08v.12h0s0,.05,0,.06h0l-.05,0-.05-.07-.06.06.06.08-.08,0Zm.11-.7-.06,0,.07.05,0,.22,0,0,.11,0-.11-.08,0-.13,0,0Z"/><path class="cls-12" d="M20,6.79l.05,0V6.71h.08l0,0,0,0v0h.1v0l-.11,0-.08,0Z"/><path class="cls-11" d="M19.94,6.84v0l.06,0v0h0l.05,0h0l0,0v0h.1s0,0-.13,0l-.08,0Z"/><path class="cls-11" d="M20.24,6.47l-.06,0,0,.07h0l-.06-.08H20l0,.1h0l-.08-.08,0,0H20V6.4l0,0h.11l0,0v.07h.21Z"/><path class="cls-11" d="M20,6.63h0l-.09-.1v0H20l0-.06h0s0,0,.08,0h.06L20,6.42v.06l.19,0-.1.15h0L20,6.52H20s0,.08,0,.09ZM20,6.49h-.2l.11.09a.22.22,0,0,0,0-.09H20Z"/><path class="cls-12" d="M19.91,6.51h0s0,0,0,0h0s0,0,0,0Z"/><path class="cls-12" d="M20.11,6.5h0s0,0,0,0h0v0Z"/><path class="cls-11" d="M19.83,6.38h0v0a.38.38,0,0,1,.19,0,.72.72,0,0,1,.21,0,.71.71,0,0,1-.21,0,.47.47,0,0,0-.17,0Z"/><polygon class="cls-11" points="19.84 6.23 19.79 6.23 19.71 6.15 19.75 6.16 19.81 6.18 19.84 6.23"/><polygon class="cls-11" points="19.88 6.25 19.79 6.25 19.65 6.12 19.81 6.16 19.88 6.25 19.88 6.25"/><polygon class="cls-11" points="20.18 6.2 20.3 6.1 20.26 6.1 20.21 6.14 20.16 6.15 20.18 6.2"/><polygon class="cls-1" points="20.18 6.2 20.3 6.1 20.26 6.1 20.21 6.14 20.16 6.15 20.18 6.2"/><polygon class="cls-11" points="20.1 6.22 19.9 6.22 19.91 6.2 19.98 6.19 19.99 6.17 20 6.17 20.02 6.19 20.09 6.21 20.1 6.22"/><polygon class="cls-11" points="19.88 6.24 19.89 6.2 19.98 6.18 19.94 6.2 20 6.2 19.99 6.18 20.1 6.19 20.11 6.22 20.1 6.23 19.88 6.24 19.88 6.24"/><polygon class="cls-11" points="20.09 6.14 20.02 6.14 20.02 6.11 20.09 6.14"/><polygon class="cls-1" points="20.09 6.14 20.02 6.14 20.02 6.11 20.09 6.14"/><polygon class="cls-11" points="19.97 6.11 19.97 6.14 19.9 6.16 19.97 6.11"/><polygon class="cls-1" points="19.97 6.11 19.97 6.14 19.9 6.16 19.97 6.11"/><polygon class="cls-11" points="19.6 6.78 19.64 6.7 19.6 6.64 19.57 6.72 19.6 6.78"/><polygon class="cls-1" points="19.6 6.78 19.64 6.7 19.6 6.64 19.57 6.72 19.6 6.78"/><polygon class="cls-11" points="19.67 6.82 19.71 6.73 19.63 6.8 19.67 6.82"/><polygon class="cls-11" points="19.68 6.85 19.62 6.82 19.69 6.72 19.64 6.82 19.67 6.82 19.65 6.82 19.7 6.71 19.68 6.85 19.68 6.85"/><path class="cls-6" d="M21.55,8.44l.21-2.51,1.33-.77,1,1.11L23.44,8.7a13.08,13.08,0,0,0-1.89-.26Z"/><path class="cls-13" d="M23.45,8.71h0a11.82,11.82,0,0,0-1.89-.26l.2-2.52,1.34-.78,1,1.12-.68,2.44Zm-.36-3.54-1.32.77-.22,2.5a11.61,11.61,0,0,1,1.88.25l.69-2.42-1-1.1Z"/><path class="cls-10" d="M20.32,7.3h-.06v.12l-.08,0-.06.11,0,0,0,.08,0,0,0,.07h.06v.08h.08l.09.06V8h.09l.06,0,.22,0,0,0V7.84h.12V7.74H21V7.63H21v0l0,0V7.47l-.09-.09,0-.12-.06,0V7.16l.06-.09V7h-.06l-.05,0h-.06v0l0,.06h-.07V7.08l-.1,0-.09.06v.07h-.05l0-.06-.08,0h0v0l.08.11Z"/><path class="cls-11" d="M20.56,8l-.17,0V7.91l-.07,0h-.08l0-.09h0l-.06-.16V7.55l.05-.11.1,0,0-.1.08,0v0l-.08-.09V7.05h.06l.09,0,.05.08,0-.08.1-.08.12,0v.1l0,0,0,0c0-.05,0-.05.08-.06l0,0h.09v.05l-.08.1v.07h.05l0,.13.08.08.06.17-.07,0,0,.08-.08,0v.08l-.13,0,0,0,0,.06-.23,0Zm-.06-.06.07,0,.21,0V7.84l.14,0V7.73H21l0-.09.07,0L21,7.55V7.47l-.08-.07,0-.13-.06,0V7.16l.07-.1h-.05l0,0h-.07l0,.07-.09,0,0-.1-.08,0-.07,0s0,.07,0,.07h-.06l-.06-.07-.08,0v0l.08.09V7.3l-.08,0,0,.1-.1,0,0,.1s0,0,0,.07,0,0,0,.05l0,.06h0l0,.09h.07l.09.07v0Z"/><path class="cls-1" d="M20.94,7.73l0-.06Z"/><path class="cls-1" d="M21,7.63l0,0Z"/><path class="cls-11" d="M20.16,7.58h.09l0,.08,0,0v.15h0V7.79h.07l0,.13h0v0h.09l0,0h0l0,0V7.89h.05l0,.06h.06l0,0,0-.08.09,0,0,.06h0l0-.07V7.61l.07-.09H21v0l-.09-.09,0-.12-.05,0,0,0h-.06l.06.09v.06h0v.16h-.07v.09l-.05,0s0,.08,0,.08l0,0h-.07l0,0V7.74h0V7.67l-.05,0v0l0,0v0h0s0-.1,0-.1h.05l0,0v0l0,0h-.07l-.06,0s0,.12,0,.12l-.07,0-.06.09Z"/><path class="cls-11" d="M20.41,8V7.79l0,0v.07l-.06,0,0-.17,0-.11-.09,0,0,0,.06-.12.08,0a.28.28,0,0,1,0-.09l.07,0h.08l0,.1,0,0,0-.05a0,0,0,0,1,0,0s0,0,0,0v.1l-.08,0-.06.08h.11l0,.1,0,.19v0l.09,0,0,.15h.08V8l-.12,0Zm.29,0-.06-.08,0,.07-.06,0h0l0,0v0l0,0h0l0,0,.06,0,0,.07,0,0h-.05l0-.1.1-.06,0,0h0V7.61l0,0h-.06s0,.07,0,.07l0,.06c0,.08,0,.08-.05.08s0,0,0,0h-.09l-.07-.06V7.74s0,0-.05-.07l-.05,0V7.6h0v0s0,0,0-.12v0h.06l0,0h-.06v.08s0,0,0,0h.05v0h0a.24.24,0,0,1,0,.08s0,.07,0,.07l0,0h.06c0-.05,0-.05,0-.05s0-.07,0-.07l0,0V7.58l.08,0,0-.21-.05-.07.07,0h.08l0,.14.09.08v0l-.11,0-.06.08v.12h0l0,.06-.05,0,0-.08-.06.06.06.08L20.7,8Zm.11-.7-.06,0,.07,0,0,.22,0,0,.11,0-.11-.08,0-.14Z"/><path class="cls-12" d="M20.53,7.73l0,0V7.65h0l0,0h.14s0,0,0,0h0v.06h.11s0,0,0,0l-.11,0-.07,0Z"/><path class="cls-11" d="M20.5,7.78l0,0,.05,0V7.64h.07l0,0v0h.11s0,0-.13,0l-.09,0Z"/><path class="cls-11" d="M20.81,7.41l-.07,0,0,.07h0l-.06-.08h-.07l0,.1h0l-.08-.08v0h.18V7.34l0,0h.1l0,0v.07h.22Z"/><path class="cls-11" d="M20.51,7.57h0l-.1-.1,0-.06h.21l0-.06,0,0h0s0,0,.08,0h.06l-.09.06v.06l.19,0-.09.15h0l-.07-.09h-.05s0,.08,0,.09Zm.08-.14-.2,0,.1.08a.56.56,0,0,0,0-.08h.06Z"/><path class="cls-12" d="M20.48,7.45h0v0h0v0Z"/><path class="cls-12" d="M20.67,7.44h0l0,0h0s0,0,0,0h0v0Z"/><path class="cls-11" d="M20.39,7.32h0v0a.38.38,0,0,1,.19,0,.79.79,0,0,1,.22,0,.52.52,0,0,1-.21,0,.78.78,0,0,0-.18.05Z"/><polygon class="cls-11" points="20.4 7.17 20.35 7.17 20.27 7.08 20.31 7.09 20.36 7.12 20.4 7.17"/><polygon class="cls-11" points="20.44 7.19 20.35 7.19 20.21 7.06 20.37 7.09 20.44 7.19 20.44 7.19"/><polygon class="cls-11" points="20.73 7.14 20.86 7.04 20.82 7.04 20.77 7.08 20.71 7.08 20.73 7.14"/><polygon class="cls-1" points="20.73 7.14 20.86 7.04 20.82 7.04 20.77 7.08 20.71 7.08 20.73 7.14"/><path class="cls-11" d="M20.66,7.15h-.19v0h.07v0s0,0,0,0l0,0h.07Z"/><polygon class="cls-11" points="20.45 7.18 20.45 7.14 20.54 7.12 20.5 7.14 20.56 7.14 20.55 7.12 20.66 7.13 20.68 7.15 20.66 7.17 20.45 7.18 20.45 7.18"/><polygon class="cls-11" points="20.65 7.08 20.58 7.08 20.58 7.05 20.65 7.08"/><polygon class="cls-1" points="20.65 7.08 20.58 7.08 20.58 7.05 20.65 7.08"/><polygon class="cls-11" points="20.54 7.05 20.53 7.08 20.47 7.09 20.54 7.05"/><polygon class="cls-1" points="20.54 7.05 20.53 7.08 20.47 7.09 20.54 7.05"/><polygon class="cls-11" points="20.16 7.72 20.2 7.63 20.16 7.58 20.14 7.66 20.16 7.72"/><polygon class="cls-1" points="20.16 7.72 20.2 7.63 20.16 7.58 20.14 7.66 20.16 7.72"/><polygon class="cls-11" points="20.23 7.76 20.27 7.66 20.19 7.75 20.23 7.76"/><polygon class="cls-11" points="20.24 7.79 20.18 7.76 20.25 7.66 20.21 7.76 20.23 7.76 20.21 7.76 20.26 7.65 20.24 7.79 20.24 7.79"/><path class="cls-7" d="M21.88,8l-.07.08v.06H22a.1.1,0,0,0,.07,0s0,0,0-.07Z"/><path class="cls-14" d="M21.81,8.14V8.07L21.87,8,22,8v.07h0s0,0-.08.05Z"/><path class="cls-7" d="M22.21,8.18l-.06,0v.06h.13s0,0,.05,0,0,0,0,0Z"/><path class="cls-14" d="M22.27,8.3h-.13V8.22l.06-.05.14,0,0,.06h0s0,0-.06,0Z"/><path class="cls-7" d="M22.75,8l-.06.06v.05h.13s0,0,.05,0,0,0,0-.06Z"/><path class="cls-14" d="M22.82,8.15h-.13V8.08L22.75,8l.14,0,0,.07h0s0,0-.06,0Z"/><path class="cls-7" d="M23.14,8.14l-.08.06v.06l.14,0,.06,0s0,0,0-.06Z"/><path class="cls-14" d="M23.2,8.28h-.14V8.2l.08-.07.14,0v.07s0,0-.07,0Z"/><path class="cls-7" d="M22.2,6.49l.26.17c.05,0,.15,0,.2,0s.12.06.18.07a1.14,1.14,0,0,0,.36,0,.81.81,0,0,0,.27-.11v0h0a.71.71,0,0,1-.29,0c-.09,0-.11,0-.25-.09v0a.64.64,0,0,0,.27,0,.43.43,0,0,0,.13-.09v0h-.06a.24.24,0,0,1-.19,0c-.09,0-.17-.06-.23-.06s-.06,0-.12,0a1,1,0,0,0-.29,0,.35.35,0,0,0-.18.11Z"/><path class="cls-15" d="M23.14,6.78a1.08,1.08,0,0,1-.3,0,.21.21,0,0,1-.1,0l-.09,0q-.13,0-.18,0L22.2,6.5a.29.29,0,0,1,.18-.13l.29,0,.06,0h.06l.1,0a.31.31,0,0,0,.13,0,.24.24,0,0,0,.19,0h.05l0,0-.1.06a.39.39,0,0,1-.16,0h0a.33.33,0,0,0,.15,0l.1-.06,0,0a.54.54,0,0,1-.24,0,.5.5,0,0,1-.13,0l-.1,0-.06,0h-.06a1,1,0,0,0-.29,0,.3.3,0,0,0-.15.1l.24.17s.09,0,.19,0l.09,0,.09,0a1.23,1.23,0,0,0,.36,0,.78.78,0,0,0,.23-.08v0a.59.59,0,0,1-.29,0,.34.34,0,0,1-.12,0,.32.32,0,0,0-.13,0h0l.11,0,.11,0a.55.55,0,0,0,.28,0h.06l0,.06a.63.63,0,0,1-.24.09Z"/><path class="cls-16" d="M22.26,6.45l.07,0,0,0s0,0,0,0l-.06,0Z"/><path class="cls-1" d="M22.26,6.45l.07,0,0,0s0,0,0,0l-.06,0Z"/><path class="cls-16" d="M22.47,6.64a.14.14,0,0,0,0-.06s0,0,0-.06a.09.09,0,0,1,0,0,.08.08,0,0,1,0,.07Z"/><path class="cls-1" d="M22.47,6.64a.14.14,0,0,0,0-.06s0,0,0-.06a.09.09,0,0,1,0,0,.08.08,0,0,1,0,.07Z"/><path class="cls-16" d="M22.52,6.36l0,.06a.26.26,0,0,1,0,.07V6.42a.14.14,0,0,0,0-.06Z"/><path class="cls-1" d="M22.52,6.36l0,.06a.26.26,0,0,1,0,.07V6.42a.14.14,0,0,0,0-.06Z"/><polygon class="cls-16" points="22.73 6.38 22.74 6.5 22.76 6.38 22.73 6.38"/><polygon class="cls-1" points="22.73 6.38 22.74 6.5 22.76 6.38 22.73 6.38"/><path class="cls-16" d="M22.69,6.64V6.58l0-.07a.16.16,0,0,1,0,.07.14.14,0,0,1,0,.06Z"/><path class="cls-1" d="M22.69,6.64V6.58l0-.07a.16.16,0,0,1,0,.07A.14.14,0,0,1,22.69,6.64Z"/><path class="cls-16" d="M22.9,6.58a.15.15,0,0,1,0,.07s0,0,0,0a.09.09,0,0,0,.06,0,.1.1,0,0,0,0-.08Z"/><path class="cls-1" d="M22.9,6.58a.15.15,0,0,1,0,.07s0,0,0,0a.09.09,0,0,0,.06,0A.1.1,0,0,0,22.9,6.58Z"/><path class="cls-16" d="M22.94,6.54s0-.06,0-.09,0,0,0,0,0,0,0,.07Z"/><path class="cls-1" d="M22.94,6.54s0-.06,0-.09,0,0,0,0S22.94,6.51,22.94,6.54Z"/><path class="cls-16" d="M23.09,6.52v0h0v0l0,0Z"/><path class="cls-1" d="M23.09,6.52v0h0v0Z"/><path class="cls-16" d="M23.08,6.65l0,.06s0,0,0,0h0s0,0,0,0,0,0,0,0Z"/><path class="cls-17" d="M23.12,6.77h0V6.71l0,0h0l0,0a.05.05,0,0,1,0,0h0s0,0,0,0l0,0s0,0,0,0a.15.15,0,0,1,0,.06Z"/><polygon class="cls-16" points="23.26 6.67 23.27 6.74 23.29 6.73 23.28 6.67 23.26 6.67"/><polygon class="cls-1" points="23.26 6.67 23.27 6.74 23.29 6.73 23.28 6.67 23.26 6.67"/><path class="cls-10" d="M22.18,6.5a.21.21,0,0,0-.1.08l-.17-.09a.1.1,0,0,0,0,.1.36.36,0,0,0,.11.1.83.83,0,0,1,0,.12c0,.05-.06.11-.06.12s0,.07,0,.08a1,1,0,0,0,.17,0,.19.19,0,0,0,0,.07h0s0,0,0,0a0,0,0,0,0,.06,0l0,.06a.29.29,0,0,0-.08.08s0,.08,0,.08,0,0,0,.06,0,0,.05,0a.38.38,0,0,0,0,.15.53.53,0,0,0,0,.13s0,0-.07.09-.07.06-.09.16L22,8s0,0,0,0a.17.17,0,0,0,0-.07,1.86,1.86,0,0,0,.11-.19.32.32,0,0,1,.09,0l.06,0a.54.54,0,0,0,0,.15V8s-.06,0-.08.16l.14,0s.06,0,.07-.07V8c0-.08.13-.14.13-.22h.07l0,0a0,0,0,0,0,0,0l.07,0s0,0,0,0h.09l-.11.18s0,0,0,0,0,0,0,0l.13,0,0,0,.07,0s0-.05,0-.07l.16-.15a.15.15,0,0,1,.09.07.38.38,0,0,1,0,.18l-.08.13v0l.13,0,.08-.06V8a.81.81,0,0,1,.16-.16v-.1s0,0,0,0a.17.17,0,0,1,0-.1s0,0,0,0,0-.09,0-.14.08-.12.09-.15V7.25l0,0,0,0,0,0V7a.1.1,0,0,0,0,0l0,0L23.47,7h-.22a.19.19,0,0,1-.13,0h-.06l-.06,0h-.06c-.15,0-.11,0-.16,0a.44.44,0,0,0-.15,0l-.05,0a.43.43,0,0,1-.16-.19c.13,0,.19-.08.23-.17h-.19Z"/><path class="cls-18" d="M22.35,8.2l-.14,0A.21.21,0,0,1,22.26,8l0-.18a.31.31,0,0,1,0-.11l0,0a.16.16,0,0,0-.09,0,1.62,1.62,0,0,1-.1.18.23.23,0,0,1,0,.07L22,8l-.15,0c0-.08,0-.11.06-.13l0-.08L22,7.71a.24.24,0,0,1,0,.07L22,7.86a.19.19,0,0,0-.06.12L22,8V8a.17.17,0,0,0,0-.07,1.86,1.86,0,0,0,.11-.19c.06,0,.1,0,.14,0s0,0,0,.06a.29.29,0,0,0,0,.1V8a.46.46,0,0,0-.07.16l.13,0a.11.11,0,0,1,0,0l0-.17a.6.6,0,0,1,.06-.11.15.15,0,0,0,.07-.11h0a.22.22,0,0,1-.06.13.24.24,0,0,0-.06.09v.16l-.07.07Zm.93,0-.14,0L23.23,8a.44.44,0,0,0,0-.18.13.13,0,0,0-.09-.06,1.1,1.1,0,0,1-.16.15L23,8s0,0-.05,0l0,.06-.14,0,0,0V8l.11,0V8l.07,0,0-.07c.05,0,.11-.11.16-.16a.13.13,0,0,1,.11.08.48.48,0,0,1,0,.18l-.09.13.12.06.08-.06V8a.38.38,0,0,1,.13-.15.38.38,0,0,0,0-.11.21.21,0,0,1,0-.12s0-.11,0-.17,0-.08.07-.11l0,0v0a.09.09,0,0,1,0-.09l0-.17h-.07l-.07,0a.21.21,0,0,1-.14,0h-.09a.19.19,0,0,1-.13,0h-.06l-.06,0h-.06l-.12,0h-.19l-.05,0a.46.46,0,0,1-.17-.19.35.35,0,0,0,.24-.19l-.19,0-.28-.18-.08.06h0a.18.18,0,0,1,.09-.08l.28.19h.19c0,.11-.09.15-.23.19a1,1,0,0,0,.16.18h.05a.27.27,0,0,1,.14,0l.17,0H23l.05,0h.07a.17.17,0,0,0,.12,0h.1a.28.28,0,0,0,.13,0l.07,0s0,0,.05,0a.08.08,0,0,1,0,.06v.15l-.05.07,0,.1,0,.05a.18.18,0,0,0-.06.1s0,.12,0,.14a.26.26,0,0,0,0,.13s0,0,0,.11a.83.83,0,0,0-.16.18V8.1l-.09.07ZM22.79,8h0V7.9l.12-.18a.12.12,0,0,1-.08,0l-.06,0s-.08.06-.11,0h.05l.06,0,.05,0h.09L22.79,8ZM22,7.7c0-.06,0-.08,0-.11a.19.19,0,0,1,0-.15s-.05,0-.06,0,0,0,0,0a.43.43,0,0,1,0,0h0l0,0a.17.17,0,0,0,0,.12.41.41,0,0,0,0,.1l0,0Zm0-.37s0,0,0,0l.06-.07.08-.07a.08.08,0,0,1-.07,0l0,0h0l0,0,0,.05-.1.1s0,0,0,0Zm.09-.24-.05,0a.13.13,0,0,1,0-.06h-.12a.07.07,0,0,1-.06-.09l0-.06,0-.06a.42.42,0,0,0,0-.12.24.24,0,0,1-.1-.1.09.09,0,0,1,0-.1l.12,0-.12,0a.11.11,0,0,0,0,.08s.07.08.1.11a.35.35,0,0,1,0,.12.16.16,0,0,1,0,.07l0,0s0,.06,0,.07h.16l0,.1Z"/><path class="cls-19" d="M22.12,6.74l.05,0s0,0,0,0h0l.05,0-.06,0-.09,0Z"/><path class="cls-19" d="M22.2,6.79l-.09,0h0s.05,0,.08,0l.05,0h-.05l-.07,0,.06,0h0l.06,0h0l-.08,0Z"/><path class="cls-11" d="M22.22,7.39s0,0,0,0a.75.75,0,0,0,0-.16.6.6,0,0,1,0,.16Z"/><path class="cls-1" d="M22.22,7.39s0,0,0,0a.75.75,0,0,0,0-.16A.6.6,0,0,1,22.22,7.39Z"/><path class="cls-11" d="M22.54,7.4s0,0,0,0,0,0,0,0l0-.1h0a.43.43,0,0,1,0,.14Z"/><path class="cls-1" d="M22.54,7.4s0,0,0,0,0,0,0,0l0-.1h0A.43.43,0,0,1,22.54,7.4Z"/><path class="cls-11" d="M22.72,7.37h0a.8.8,0,0,1,0-.15l0,.07a.51.51,0,0,0,0,.09Z"/><path class="cls-1" d="M22.72,7.37h0a.8.8,0,0,1,0-.15l0,.07A.51.51,0,0,0,22.72,7.37Z"/><path class="cls-11" d="M22.69,7.64h0s.05-.07.06-.09,0-.12,0-.12l-.06.11-.06.11Z"/><path class="cls-11" d="M22.7,7.65h0s0,0,0-.12l0-.06h0l0,.08c-.05.08-.06.1-.06.11h0l.05-.07a.37.37,0,0,0,0-.11s0,.08,0,.08l-.09.11Z"/><path class="cls-11" d="M22.87,7.58s0-.09,0-.1a1.05,1.05,0,0,1,0-.13.35.35,0,0,1,0,.23Z"/><path class="cls-11" d="M22.87,7.6h0s0,0,0-.08l0-.16a.26.26,0,0,1,0,.23v0Z"/><path class="cls-11" d="M23,7.3s-.09-.12-.08-.12l.07.09a0,0,0,0,1,0,0Z"/><path class="cls-1" d="M23,7.3s-.09-.12-.08-.12l.07.09A0,0,0,0,1,23,7.3Z"/><path class="cls-11" d="M23.15,7.4a.39.39,0,0,0,0-.09s0-.09,0-.1h0a1.62,1.62,0,0,0,0,.18,0,0,0,0,1,0,0Z"/><path class="cls-1" d="M23.15,7.4a.39.39,0,0,0,0-.09s0-.09,0-.1h0a1.62,1.62,0,0,0,0,.18A0,0,0,0,1,23.15,7.4Z"/><path class="cls-11" d="M23.28,7.28s0,0,0,.1l0,.16s0,0,0,0h.08l-.11-.11a.38.38,0,0,1-.06-.13Z"/><path class="cls-11" d="M23.34,7.55h0v0a.43.43,0,0,0,0-.11.31.31,0,0,1,0-.08h0v0l0,0,.05.08a.6.6,0,0,0,.08.08l-.09.06Z"/><path class="cls-5" d="M23.91,7.09A8.35,8.35,0,0,1,25,7.38a9.72,9.72,0,0,1,1,.39l-.56,1.14c-.32-.12-.63-.22-.94-.32l-.93-.28Z"/><path class="cls-5" d="M25.44,8.92h0l-.79-.27-.15,0-.63-.19-.29-.1.33-1.22A10.82,10.82,0,0,1,25,7.37c.37.12.72.27,1,.39l-.56,1.16ZM23.91,7.1l-.33,1.21.29.08.63.19.14.05.79.27L26,7.76c-.29-.11-.63-.25-1-.37a8.35,8.35,0,0,0-1.07-.29Z"/><path class="cls-7" d="M23.84,7.36s.53.12,1,.28,1,.38,1,.38l-.32.65c-.31-.12-.63-.24-.95-.34s-.63-.2-1-.28Z"/><path class="cls-14" d="M25.56,8.68h0c-.3-.12-.61-.23-.95-.34s-.62-.2-1-.28l.19-.7a8.6,8.6,0,0,1,1,.28,9.22,9.22,0,0,1,1,.37c-.05,0-.51-.2-1-.36s-1-.28-1-.28l-.18.68a9,9,0,0,1,1,.27c.33.11.64.22.94.34.28-.58.31-.64.32-.65h0s-.23.48-.32.65Z"/><path d="M23.88,7.69A1.25,1.25,0,0,0,24,7.6h.18v.07l.12.06.16.07.4,0a.49.49,0,0,1,.17.06.23.23,0,0,1,.11.11l.24.05c.09,0,.2,0,.28,0s0,0,0,.05a.22.22,0,0,1-.17.06c-.13,0-.26-.07-.32-.06a.22.22,0,0,0,.14.15v.18l0,0,0,0a.15.15,0,0,0,0-.13s0-.05-.08-.06A.34.34,0,0,1,25,8.19h0s0,.05-.07.06h-.08l-.18,0v0h.06a.43.43,0,0,0,.13,0V8.13H25c0-.08,0-.14-.15-.16h-.35V8a.92.92,0,0,0-.33,0l-.15,0h0s0,0,0,0,.17,0,.22,0l0,0h-.2l-.1,0s0,0,0,0l.06,0a.43.43,0,0,0,.2,0V7.81s0,0,0,0h-.14c-.06,0-.05,0-.05-.06Z"/><path d="M25.29,8.5l0,0a.22.22,0,0,0,0-.14s0-.05-.07-.05A.47.47,0,0,1,25,8.21l.17,0c.05,0,.06,0,.08.05s0,.12,0,.16l0,0h0l0,0V8.28c-.07,0-.14-.1-.14-.15a.19.19,0,0,1,.13,0,1.42,1.42,0,0,0,.2,0,.23.23,0,0,0,.16-.06,1,1,0,0,0-.29-.07L25.13,8A.22.22,0,0,0,25,7.9a.58.58,0,0,0-.17-.06l-.4,0a.19.19,0,0,1-.08,0l-.08,0-.06,0-.06,0V7.6H24a.24.24,0,0,1-.08.06s0,.06,0,.07a.39.39,0,0,1,.15,0,.08.08,0,0,1,0,0v.05a.36.36,0,0,1-.21,0l0,0h0c.14,0,.2,0,.23,0v0s-.13,0-.16,0-.06,0-.06-.07h0l0,0A.25.25,0,0,0,24,7.59h.19v.08l.06,0,.06,0,.07,0,.08,0,.4,0a.45.45,0,0,1,.18.07.24.24,0,0,1,.1.1,1,1,0,0,0,.24,0c.09,0,.2,0,.28,0h0l0,0a.18.18,0,0,1-.19.1.65.65,0,0,1-.2,0l-.11,0a.26.26,0,0,0,.13.13v.19l0,0Zm-.39-.23h-.08l-.19,0s0-.05.07-.05a.43.43,0,0,0,.13,0V8.13h0V8.2h-.19a.76.76,0,0,0,.18.06h.08A.09.09,0,0,0,25,8.19h0a.31.31,0,0,1-.09.07Zm0-.17c0-.07,0-.11-.14-.13h-.35V8h-.15l-.18,0-.09,0H24l-.06,0h0l0,0h.15a.68.68,0,0,1,.19,0h.14l0,0h.37c.12,0,.13.07.15.14ZM24,8a.62.62,0,0,0,.14,0l-.09,0h-.12a.28.28,0,0,1-.11,0l0,0a.15.15,0,0,0,.09,0h.2s0,0,0,.06A.3.3,0,0,1,24,8Z"/><path class="cls-5" d="M24.65,8.1a.66.66,0,0,0,.18,0H25c0-.08,0-.14-.15-.16h-.35V8l.2.08Z"/><path d="M24.83,8.13h0a.47.47,0,0,1-.18,0L24.45,8l0-.06h.37c.12,0,.13.07.15.14h0c0-.07,0-.11-.14-.13h-.35V8l.17.06a.65.65,0,0,0,.2,0h.09l-.09,0Z"/><path class="cls-6" d="M17.64,8.7,17,6.33l1-1.18,1.36.78.23,2.52a18.61,18.61,0,0,0-1.93.25Z"/><path class="cls-13" d="M17.63,8.71h0L17,6.33l1-1.19,1.38.78.23,2.52c-.71.07-1.17.14-1.94.27ZM18,5.15,17,6.33l.64,2.36a17.46,17.46,0,0,1,1.92-.25l-.23-2.51L18,5.15Z"/><path class="cls-10" d="M15.36,6.72l.23.18,0,.32.3-.12.24.18,0-.29.25-.1-.2-.19,0-.3-.3.11-.21-.18,0,.28Z"/><path class="cls-20" d="M16.1,7.3l-.25-.19-.3.12,0-.33-.23-.16.29-.14,0-.27a2,2,0,0,1,.23.17l.28-.11,0,.31.21.18L16.13,7l0,.3Zm-.25-.22.23.18,0-.28.25-.1-.2-.18,0-.3-.29.12-.22-.18a2.23,2.23,0,0,1,0,.27l-.3.13.24.16,0,.32.29-.14Z"/><path class="cls-21" d="M15.36,6.73l1,.16-.24.1-.24-.17.21.45-.24-.18,0-.27-.31.4,0-.32Z"/><polygon class="cls-20" points="15.64 6.61 15.88 6.81 15.7 6.33 15.64 6.61"/><path class="cls-20" d="M15.91,6.52a2.85,2.85,0,0,0,0,.29s.33-.4.32-.4l-.29.11Z"/><path class="cls-10" d="M24.89,6.32l.06.29-.24.21.31.1.06.29L25.3,7l.25.08,0-.27.22-.2-.29-.11-.05-.27-.22.18Z"/><path class="cls-20" d="M25.08,7.22,25,6.92l-.31-.09L25,6.6l-.07-.28.32.08.21-.18a1.47,1.47,0,0,1,.05.29l.29.1-.22.2,0,.27L25.3,7l-.22.21Zm-.19-.89.07.28-.25.22.32.08.06.28L25.3,7l.26.08,0-.27.24-.2-.3-.1a2.16,2.16,0,0,0-.05-.27l-.2.18-.31-.09Z"/><path class="cls-20" d="M24.9,6.33l.65.75L25.3,7l-.07-.28-.14.48L25,6.92l.2-.2-.52.1L25,6.61Z"/><polygon class="cls-20" points="25.19 6.41 25.24 6.71 25.41 6.23 25.19 6.41"/><path class="cls-20" d="M25.45,6.5l-.21.2.51-.09-.3-.11Z"/><path class="cls-7" d="M17,6.34A3.8,3.8,0,0,1,18.15,6a9.55,9.55,0,0,1,1.2-.05l0,.62a7.45,7.45,0,0,0-1.12.07,4.36,4.36,0,0,0-1.12.27Z"/><path class="cls-14" d="M17.15,6.9,17,6.34A3.73,3.73,0,0,1,18.15,6a7.89,7.89,0,0,1,1.12-.06h.08s.06.62.06.63h-.1a6.5,6.5,0,0,0-1,.07,4.36,4.36,0,0,0-1.12.27Zm2.19-1h-.07a8,8,0,0,0-1.12,0A3.86,3.86,0,0,0,17,6.35l.15.53a4.47,4.47,0,0,1,1.12-.27,6.43,6.43,0,0,1,1-.07h.09s-.06-.61-.06-.61Z"/><path class="cls-7" d="M17.3,7.43l.18.66c.33-.08.67-.15,1-.2s.7-.07,1-.09l-.06-.64a6.76,6.76,0,0,0-1.1,0,6,6,0,0,0-1.06.25Z"/><path class="cls-14" d="M17.47,8.1h0a3.17,3.17,0,0,1-.17-.66,5.45,5.45,0,0,1,1.06-.26,7.93,7.93,0,0,1,1.1,0l.06.65c-.32,0-.68,0-1,.1a10,10,0,0,0-1,.2ZM19,7.15a6.32,6.32,0,0,0-.66,0,6,6,0,0,0-1.06.25s.11.39.18.64a7.39,7.39,0,0,1,1-.19c.34,0,.71-.08,1-.1l-.07-.63Z"/><path class="cls-5" d="M15.71,9.46h9.67v6.2a4.88,4.88,0,0,1-4.69,4.2,4.93,4.93,0,0,1-5-4.22Z"/><path class="cls-7" d="M20.52,19.9a5,5,0,0,1-4.86-4.26l0-6.18,9.7,0,0,6.23a5,5,0,0,1-4.7,4.24ZM25.35,9.46l-9.64,0,0,6.15a4.86,4.86,0,0,0,9.62,0V9.46Z"/><path class="cls-7" d="M15.92,9.68h9.26v5.94a4.67,4.67,0,0,1-4.49,4,4.73,4.73,0,0,1-4.8-4Z"/><path class="cls-7" d="M20.52,19.68a4.76,4.76,0,0,1-4.66-4.08l0-5.92,9.3,0,0,6a4.74,4.74,0,0,1-4.5,4.06Zm4.62-10-9.22,0V15.6a4.65,4.65,0,0,0,9.21,0V9.68Z"/><rect class="cls-5" x="17.78" y="9.7" width="1.84" height="1.98"/><path class="cls-5" d="M23.32,15.66v2h1a4.63,4.63,0,0,0,.77-2Z"/><path class="cls-5" d="M24.37,17.63H23.32v-2h1.82a4.5,4.5,0,0,1-.76,2Zm-1.05-2v2h1a4.43,4.43,0,0,0,.76-1.95h-1.8Z"/><path class="cls-5" d="M21.48,17.64v1.88a4.76,4.76,0,0,0,1.82-.83V17.64Z"/><path class="cls-5" d="M21.47,19.53V17.64H23.3v1.06a4.8,4.8,0,0,1-1.83.84Zm1.82-1.89H21.48v1.86a4.9,4.9,0,0,0,1.82-.83v-1Z"/><path class="cls-5" d="M17.79,17.64v1.05a5.21,5.21,0,0,0,1.82.81V17.64Z"/><path class="cls-5" d="M19.63,19.51h0a5.24,5.24,0,0,1-1.83-.82V17.64h1.82l0,1.88Zm0-1.87H17.79l0,1a5.33,5.33,0,0,0,1.8.8V17.64Z"/><path class="cls-5" d="M16,15.66a4,4,0,0,0,.75,1.93l1.07,0v-2Z"/><path class="cls-5" d="M17.78,17.63h0l-1.07,0a3.84,3.84,0,0,1-.76-1.94h1.83v2Zm0-2H16a3.89,3.89,0,0,0,.76,1.92l1.05,0V15.66Z"/><rect class="cls-5" x="15.94" y="11.69" width="1.84" height="1.98"/><rect class="cls-5" x="19.62" y="11.69" width="1.84" height="1.98"/><rect class="cls-5" x="21.47" y="9.7" width="1.84" height="1.98"/><rect class="cls-5" x="23.31" y="11.69" width="1.84" height="1.98"/><rect class="cls-5" x="17.78" y="13.67" width="1.84" height="1.98"/><rect class="cls-5" x="21.47" y="13.67" width="1.84" height="1.98"/><rect class="cls-5" x="19.62" y="15.65" width="1.84" height="1.98"/><path class="cls-11" d="M22.37,7.36s0-.08,0-.1,0-.07,0-.12a.37.37,0,0,1,.06.22Z"/><path class="cls-11" d="M22.37,7.37s0,0,0-.07l0-.16a.29.29,0,0,1,.08.23Z"/></g></g></g><circle class="cls-1" cx="20.55" cy="13.49" r="11.99"/></g></g></g></svg>