<svg xmlns="http://www.w3.org/2000/svg" xmlns:xlink="http://www.w3.org/1999/xlink" viewBox="0 0 35.96 26.98"><defs><style>.cls-1,.cls-11,.cls-12,.cls-15,.cls-2,.cls-20,.cls-22{fill:none;}.cls-2{stroke:#fff;stroke-miterlimit:10;stroke-width:3px;}.cls-3{clip-path:url(#clip-path);}.cls-4{fill:#ce1126;}.cls-10,.cls-13,.cls-14,.cls-16,.cls-17,.cls-19,.cls-5,.cls-6,.cls-7{fill:#fff;}.cls-10,.cls-11,.cls-12,.cls-13,.cls-14,.cls-15,.cls-16,.cls-17,.cls-19,.cls-20,.cls-21,.cls-22,.cls-6,.cls-7,.cls-9{stroke:#c09300;}.cls-10,.cls-11,.cls-12,.cls-13,.cls-14,.cls-15,.cls-16,.cls-6,.cls-7{stroke-linecap:round;stroke-linejoin:round;}.cls-6{stroke-width:0.1px;}.cls-19,.cls-20,.cls-21,.cls-7{stroke-width:0.05px;}.cls-21,.cls-8,.cls-9{fill:#c09300;}.cls-9{stroke-linecap:square;stroke-width:0.04px;}.cls-10{stroke-width:0.05px;}.cls-11,.cls-13{stroke-width:0.05px;}.cls-12{stroke-width:0.05px;}.cls-14{stroke-width:0.05px;}.cls-15,.cls-16{stroke-width:0.04px;}.cls-17{stroke-width:0.05px;}.cls-18{clip-path:url(#clip-path-2);}.cls-22{stroke-width:0.04px;}</style><clipPath id="clip-path"><circle class="cls-1" cx="17.98" cy="13.49" r="11.99"/></clipPath><clipPath id="clip-path-2"><path class="cls-1" d="M19.07,12.21h0A2.14,2.14,0,0,1,18,11.89a2.36,2.36,0,0,1-1.06.32h0s0,.11,0,.16A2.7,2.7,0,0,0,17,13a2.8,2.8,0,0,0,1,1.49A2.8,2.8,0,0,0,19,13a2.27,2.27,0,0,0,.1-.58.86.86,0,0,0,0-.16Z"/></clipPath></defs><title>egypt</title><g id="Layer_2" data-name="Layer 2"><g id="OBJECTS"><circle class="cls-2" cx="17.98" cy="13.49" r="11.99"/><g class="cls-3"><rect id="_57" data-name="57" y="13.49" width="35.96" height="11.99"/><rect id="_56" data-name="56" class="cls-4" y="1.5" width="35.96" height="11.99"/><rect id="_55" data-name="55" class="cls-5" y="9.49" width="35.96" height="7.99"/><path id="_54" data-name="54" class="cls-6" d="M18,17.24a8.8,8.8,0,0,0,2-.19c.19,0,.19-.13.19-.26.19-.06.09-.29.22-.29-.13,0-.16-.22-.32-.19,0-.22-.22-.25-.41-.19a6.2,6.2,0,0,1-1.69.16,7.64,7.64,0,0,1-1.68-.16c-.19-.06-.42,0-.42.19-.16,0-.19.23-.32.19.13,0,0,.23.23.29,0,.13,0,.22.19.26a8.65,8.65,0,0,0,2,.19Z"/><path id="_53" data-name="53" class="cls-7" d="M18,13.58l2.74,2.54-.19-4.61c0-.7-.64-.54-1.08-.29a1.64,1.64,0,0,1-1.5.1,1.62,1.62,0,0,1-1.49-.1c-.45-.25-1-.41-1.08.29l-.2,4.61L18,13.58Z"/><path id="_52" data-name="52" class="cls-8" d="M18.78,12.12l.09,2.22.26.25L19,12.15a.64.64,0,0,1-.25,0Z"/><path id="_51" data-name="51" class="cls-9" d="M18.11,14.09l.38,1.75-.12.12-.14-.09L18,14.31l.09,1.56L18,16l-.12-.16L18,14.31l-.22,1.56L17.6,16l-.13-.12.39-1.75Z"/><path id="_50" data-name="50" class="cls-8" d="M15.72,11.35l-.19,4.49-.32.28.2-4.61a1,1,0,0,1,.31-.16Z"/><path id="_49" data-name="49" class="cls-8" d="M16.11,11.67,16,15.43l-.32.32.19-4.33.29.25Z"/><path id="_48" data-name="48" class="cls-8" d="M16.46,12l-.13,3.13-.26.25.16-3.57.23.19Z"/><path id="_47" data-name="47" class="cls-8" d="M16.84,12.12l-.13,2.67-.25.2.12-3a.93.93,0,0,0,.26.1Z"/><path id="_46" data-name="46" class="cls-8" d="M17.18,12.12l-.09,2.22-.25.25.09-2.44c.07,0,.23,0,.25,0Z"/><path id="_45" data-name="45" class="cls-8" d="M20.24,11.35l.19,4.49.32.28-.19-4.61a1.18,1.18,0,0,0-.32-.16Z"/><path id="_44" data-name="44" class="cls-8" d="M19.86,11.67,20,15.43l.32.32-.2-4.33-.28.25Z"/><path id="_43" data-name="43" class="cls-8" d="M19.51,12l.12,3.13.26.25-.16-3.57c-.06.06-.19.15-.22.19Z"/><path id="_42" data-name="42" class="cls-8" d="M19.13,12.12l.12,2.67.26.2-.13-3a.87.87,0,0,1-.25.1Z"/><path id="_41" data-name="41" class="cls-10" d="M17.12,13.32,16.36,16l1.05.16.45-2-.74-.83Z"/><path id="_40" data-name="40" class="cls-10" d="M18.84,13.32,19.6,16l-1.05.16-.44-2,.73-.83Z"/><path id="_39" data-name="39" class="cls-11" d="M19.09,14.24l-.09.23L18.51,14"/><path id="_38" data-name="38" class="cls-12" d="M18.21,14.78l.35.53m-.11.53.11-.53.1-.54.23.32.1-.36.33.33-.17.61-.23-.38-.12.39-.24-.37"/><path id="_37" data-name="37" class="cls-11" d="M16.87,14.24l.09.23.5-.48"/><path id="_36" data-name="36" class="cls-11" d="M17.21,13.68l.11,1,.31-.42"/><path id="_35" data-name="35" class="cls-11" d="M17.51,14.4l.17.6"/><path id="_34" data-name="34" class="cls-12" d="M17.75,14.78l-.35.53m.11.53-.12-.53-.09-.54-.24.32-.1-.36-.33.33.17.61.23-.38.13.39.23-.37"/><path id="_33" data-name="33" class="cls-11" d="M16.58,16l.21-.29.14.45.19-.32.13.39"/><path id="_32" data-name="32" class="cls-11" d="M19.39,16l-.21-.29-.14.45-.19-.32-.13.39"/><path id="_31" data-name="31" class="cls-13" d="M16.9,16a3.37,3.37,0,0,0,.77,0c.12,0,.21.22,0,.25a3.16,3.16,0,0,1-.76,0,7.07,7.07,0,0,1-.73-.16c-.23-.09-.07-.28.06-.25a5.22,5.22,0,0,0,.7.16Z"/><path id="_30" data-name="30" class="cls-13" d="M19.07,16a3.39,3.39,0,0,1-.77,0c-.13,0-.22.22,0,.25a3.14,3.14,0,0,0,.76,0c.16,0,.51-.09.74-.16s.06-.28-.07-.25a5.05,5.05,0,0,1-.69.16Z"/><path id="_29" data-name="29" class="cls-14" d="M16.11,15.9a.23.23,0,0,0-.23.32c0-.07.16-.07.19-.13s0-.1,0-.19Z"/><path id="_28" data-name="28" class="cls-13" d="M16.87,16.49c0-.13.13-.11.13-.24s0-.16-.1-.16a.14.14,0,0,0-.13.13C16.74,16.34,16.87,16.36,16.87,16.49Z"/><path id="_27" data-name="27" class="cls-13" d="M17.78,16.12c.19,0,.17.26.08.38,0-.09-.16-.12-.16-.19s.14-.09.08-.19Z"/><path id="_26" data-name="26" class="cls-14" d="M19.86,15.9c.19,0,.28.19.22.32,0-.07-.16-.07-.19-.13s0-.1,0-.19Z"/><path id="_25" data-name="25" class="cls-13" d="M19.09,16.49c0-.13-.12-.11-.12-.24s0-.16.1-.16a.13.13,0,0,1,.12.13c0,.12-.1.14-.1.27Z"/><path id="_24" data-name="24" class="cls-13" d="M18.19,16.12c-.19,0-.17.26-.08.38,0-.09.16-.12.16-.19S18.12,16.22,18.19,16.12Z"/><path id="_23" data-name="23" class="cls-15" d="M16.17,16a.29.29,0,0,1,.19.07Z"/><path id="_22" data-name="22" class="cls-15" d="M16.49,16.06a.82.82,0,0,1,.22.06Z"/><path id="_21" data-name="21" class="cls-15" d="M17.63,16.19c-.06,0-.19,0-.22,0Z"/><path id="_20" data-name="20" class="cls-15" d="M17.28,16.19s-.16,0-.22,0Z"/><path id="_19" data-name="19" class="cls-16" d="M19.79,16a.32.32,0,0,0-.19.07Z"/><path id="_18" data-name="18" class="cls-16" d="M19.48,16.06a.87.87,0,0,0-.23.06Z"/><path id="_17" data-name="17" class="cls-16" d="M18.33,16.19c.06,0,.19,0,.22,0Z"/><path id="_16" data-name="16" class="cls-16" d="M18.68,16.19a.22.22,0,0,1,.22,0Z"/><path id="_15" data-name="15" class="cls-11" d="M18.76,13.68l-.11,1-.31-.42"/><path id="_14" data-name="14" class="cls-17" d="M18,14.58a3,3,0,0,0,1.19-2.48h-.1A2,2,0,0,1,18,11.76a2.2,2.2,0,0,1-1.1.35h-.1A3.07,3.07,0,0,0,18,14.58Z"/><path id="_13" data-name="13" class="cls-5" d="M19.07,12.21h0A2.14,2.14,0,0,1,18,11.89a2.36,2.36,0,0,1-1.06.32h0s0,.11,0,.16A2.91,2.91,0,0,0,17,13a2.82,2.82,0,0,0,1,1.48A2.8,2.8,0,0,0,19,13a2.2,2.2,0,0,0,.1-.58.81.81,0,0,0,0-.16Z"/><g id="_12" data-name="12"><g class="cls-18"><rect id="_43809040-4" data-name=" 43809040-4" class="cls-8" x="16.62" y="11.55" width="0.94" height="3.25"/><rect id="_43612568-5" data-name=" 43612568-5" class="cls-8" x="18.38" y="11.55" width="0.99" height="3.25"/></g></g><path id="_11" data-name="11" class="cls-11" d="M18.45,14.4l-.18.6"/><path id="_10" data-name="10" class="cls-8" d="M16.12,16.47s0,0,0,0,0,0,0,0a0,0,0,0,1,0,0s0,0,0,0h0Zm2.19.15,0,0a0,0,0,0,1,0,0s0,0,0,0a0,0,0,0,1,0,.05Zm0,.1a0,0,0,0,1,0,0s0,0,0,0h0a0,0,0,0,1,0,0s0,0,0,0,0,0,0,0Zm-2.17-.12s0,0,0,0h0s0,0,0,0h0Zm.34.18h-.05l-.13,0h0l-.05,0h-.15a.06.06,0,0,1-.05,0s0,0,0,0h0l0,0,0,0h.08v0h0a0,0,0,0,1,0,0s0-.06,0-.06a0,0,0,0,0,0,0h-.05s0,0,0,0l0,0v0l0,0h.07s0,0,0,0h.09v0a0,0,0,0,1,0,0v0h0v0h0s0,0,0,0v0h0v0h0v.07a0,0,0,0,0,0,0v0s0,0,0,0a.08.08,0,0,0,.06,0h0v0s0,0,0,0,0,0,0,0a0,0,0,0,1,0,0l0,0h0s0,0,0,0v.05h0s0,0,0,0v0a0,0,0,0,0,0,0v0s0,0,0,0h.09s0,0,0,0v-.05s0,0,0,0,0,0,0,0l0,0s0,0,0,0a0,0,0,0,1,0,0,0,0,0,0,1,0,0v0a.07.07,0,0,1,0,.05.06.06,0,0,1,0,0v0s0,0-.05,0Zm-.39,0s0,0,0-.06h0s0,0,0,.05h-.05Zm.12,0a0,0,0,0,1,0-.05s0,0,0,0,0,0,0,0v0Zm3.56,0v0s0,0,0,0,0,0,.05,0,0,0,0,.05h-.06Zm-3.4,0s0,0,0,0v0h.05a0,0,0,0,1,0,0s0,0-.05,0Zm.88,0h0v-.06s0,0,0,0v0a.35.35,0,0,0,0-.06.43.43,0,0,1,0-.05v0a.06.06,0,0,1,0,0v-.12h0s0,0,0,0,0,0,0,.05h0v0s0,0,0,0a.55.55,0,0,0,0,.09v0a.1.1,0,0,0,0,0v.05h0a.08.08,0,0,1,0,.06h0Zm1.16,0h0v0h0a0,0,0,0,0,0,0h0Zm-.09.06s0,0,0,0a0,0,0,0,0,0,0v0h0a0,0,0,0,1,0,0v0l0,0h0s0,0,0,0v-.1s0,0,0,0h0l0,0,.06-.06h0v0a.11.11,0,0,1,0,.05.23.23,0,0,0,0,.07v.05a.35.35,0,0,1,0,.06v.05s0,0,0,0h0s0,0,0-.05a.08.08,0,0,1,0,0h0s0,0,0,0l0,0,0,0h0s0,0,0,.05,0,0,0,.05v0s0,0,0,0v0h0s0,0,0,0h-.31ZM17,16.7s0,0,0,0,0,0,0,0,0,0,0,0l0,0h0l.05,0Zm.09.29h0l0,0h0v0s0,0,0,0a0,0,0,0,0,0,0H17s0,0,0,0a0,0,0,0,1,0,0h0s0,0,0,0v0h-.12s-.07,0-.07,0l-.06,0h-.07s-.05,0-.05,0l0,0s0,0,0,0h.05l0,0s0,0,0,0h0v0s0,0,0,0a0,0,0,0,0,0,0v0s0,0,0-.05h0a0,0,0,0,1,0,0s0,0,0,0h0a0,0,0,0,1,0,0,.56.56,0,0,0,0,.07l0,0h.06l0,0,0,0-.07,0s0,0,0,0,0,0,0,0,0,0,0,0h0a.08.08,0,0,1,.07-.06h0v0l0,0s0,0,0,0l.05.05h0a.1.1,0,0,1,0,0s0,0,0,0h0v0s0,0,0,0h0a0,0,0,0,0,0,0h0s0,0,0,0v0h0s0,0,0,0v-.06a.43.43,0,0,1,0-.05.1.1,0,0,0,0,0v0s0,0,0,0v-.05s0,0,0,0v0h0s0,0,0,0l0,0h.08s0,0,0,.05a0,0,0,0,0,0,0v0a.35.35,0,0,0,0,.06v.05a0,0,0,0,0,0,0v0a.43.43,0,0,1,0,0s0,0,0,0v0a.1.1,0,0,1,0,0v0l0,0h-.09Zm2.52-.23s0,0,0,0l0,0,0,0s0,0,0,0h0Zm-.24,0s0,0,0,0,0,0,0,0,0,0,0,0v0l0,0Zm-.1,0v0a0,0,0,0,1,0,0s0,0,0,0,0,0,0,0,0,0,0,0Zm-.24.05s0,0,0,0a0,0,0,0,0,0,0v0h0s0,0,0,0h0Zm.38,0s0,0,0,0h0a0,0,0,0,0,0,0h0Zm-.47.14v0H19A.05.05,0,0,0,19,16.9h0s-.05,0-.08,0h0v-.09h0s0,0,0,0h0l.05,0h0a0,0,0,0,0,0,0v0a0,0,0,0,1,0,0s0,0,0,0,0,0,0,0,0,0,0,0v-.06s0,0,0-.05l0,0h0s0,0,0,0,0,0,0,0h0s0,0,0,0v0h0a0,0,0,0,1,0,0s0,0,0,.06v0s0,0,0,0h.05a0,0,0,0,1,0,0h0a.14.14,0,0,1,0,.05s0,0,0,0h0v0s0,0,0,0h0l0,0h0l0,0a0,0,0,0,0,.06,0h0s0,0,0-.05a0,0,0,0,1,0,0,.06.06,0,0,0,0,0v0a.07.07,0,0,1,0-.05,0,0,0,0,1,0,0,.07.07,0,0,0,0-.05h-.05s0,0,0,0h0v0s0,0,0,0h.18s0,0,0,0h0v0s0,0,0,.08,0,0,0,.05v.06h0s0,0,0,0l.05,0,0,0h0l0,0s0,0,0,0h-.09l-.07,0-.09,0h0s0,0-.05.05h-.1s0,0,0,0h-.06v.06h0a0,0,0,0,1,0,0l0,0a0,0,0,0,1,0,0h0l-.05,0a.13.13,0,0,1,0-.05h-.16a0,0,0,0,0,0,0v0h0s0,0,0,0l0,0h-.08Zm-.23,0h0s0,0,.05,0l0,0a0,0,0,0,1,0,0s0,0,0,0,0,0,0-.05l0,0a0,0,0,0,1,0,0l0,0,0,0h0l0,0h0l0,0h0a0,0,0,0,1,0,0,0,0,0,0,0,0,0,.31.31,0,0,1,0,.09h0l-.05,0H18.7Zm-.28,0v0s0,0,0,0,0,0,.06,0,0,0,0,0l0,0h0s0,0,0,0v0s0,0,0,0,0,0,0,0h0l0,0h0s0,0,0,0Zm-.25-.15h0v0s0,0,0,0h0a0,0,0,0,0,0,0S18.15,16.89,18.17,16.88Zm-.23.09v-.12h-.2a.09.09,0,0,0-.08,0s0,0,0,0,0,0,0,0h.23v0s0,0,0,0h0Zm0,.09h0a.1.1,0,0,1,0,0s0,0,0,0h-.22c-.06,0-.09,0-.1,0v0a0,0,0,0,0,0,0v0h0l0,0H17.3s0,0,0,0h.09l0,0h0a0,0,0,0,1,0,0v0s0,0,0-.05a.11.11,0,0,0,0-.05s0,0,0,0l0,0,0,0s0,0,0,0a.11.11,0,0,1,0,.06h0v0s0,0,0,0,0,0,0,0v0h0s0-.05,0-.05a0,0,0,0,1,0,0v0h0s0,0,0,0,0,0,0,0,0,0,0,0a0,0,0,0,0,0,0H18v0s0,.05,0,.05a0,0,0,0,0,0,0v0h0s0,0,0,0h0s.05,0,.05,0h0s0,0,0,.06a0,0,0,0,1,0,0,.11.11,0,0,0,0,.05v0H18s0,0,0,0v0h0l0,0h0l0,0Z"/><path id="_9" data-name="9" class="cls-19" d="M18.47,11.61s0-.14,0-.14a.78.78,0,0,0,.33.09c-.16-.07-.32-.6-.3-1s-.06-.59-.12-.65a1,1,0,0,0-.51-.16c-.09,0-.08.07-.08.07a.63.63,0,0,0-.43,0c-.08.05-.09.3,0,.26s.25,0,.33.1a1.07,1.07,0,0,1,0,.73,2.61,2.61,0,0,1-.4.71.92.92,0,0,0,.38-.14l-.05.22a1.49,1.49,0,0,0,.3-.21l.16.17a1.46,1.46,0,0,1,.16-.17.57.57,0,0,0,.33.16Z"/><path id="_8" data-name="8" class="cls-20" d="M17.83,10.59a2.39,2.39,0,0,1-.26.85"/><path id="_7" data-name="7" class="cls-20" d="M18,10.58a3.46,3.46,0,0,1-.15.87"/><path id="_6" data-name="6" class="cls-20" d="M18.09,10.6a5.58,5.58,0,0,0,.05.85"/><path id="_5" data-name="5" class="cls-20" d="M18.25,10.64a2.39,2.39,0,0,0,.19.83"/><path id="_4" data-name="4" class="cls-21" d="M17.67,10.28a.38.38,0,0,0-.05-.14c-.08-.11-.19-.21-.33-.1s.05-.15.15-.15.24.06.39.31c0,0-.11,0-.14,0s0,.08,0,.08Z"/><path id="_3" data-name="3" class="cls-21" d="M17.28,9.86a.16.16,0,0,1,0-.08.63.63,0,0,1,.43,0s0-.08.08-.07a1,1,0,0,1,.51.16.35.35,0,0,1,.06.09h0c0-.05-.15-.05-.18-.05l-.13,0A.47.47,0,0,0,18,10S18,10,18,10s0,0-.05,0l0,0s-.11,0-.2-.09a.27.27,0,0,0-.24-.08c-.12,0-.15.07-.15.07Z"/><path id="_2" data-name="2" class="cls-5" d="M17.93,10A.05.05,0,0,0,18,9.92a0,0,0,0,0-.05-.05,0,0,0,0,0,0,.05S17.91,10,17.93,10Z"/><path id="_1" data-name="1" class="cls-22" d="M19.07,12.21h0A2.14,2.14,0,0,1,18,11.89a2.36,2.36,0,0,1-1.06.32h0s0,.11,0,.16A2.91,2.91,0,0,0,17,13a2.82,2.82,0,0,0,1,1.48A2.8,2.8,0,0,0,19,13a2.2,2.2,0,0,0,.1-.58.81.81,0,0,0,0-.16Z"/></g></g></g></svg>