<svg xmlns="http://www.w3.org/2000/svg" xmlns:xlink="http://www.w3.org/1999/xlink" viewBox="0 0 41.1 26.98"><defs><style>.cls-1,.cls-2{fill:none;}.cls-2{stroke:#fff;stroke-miterlimit:10;stroke-width:3px;}.cls-3{clip-path:url(#clip-path);}.cls-4{clip-path:url(#clip-path-2);}.cls-5{fill:#fff;}.cls-6{fill:#49a044;}.cls-7{fill:#c7001b;}</style><clipPath id="clip-path"><circle class="cls-1" cx="20.55" cy="13.49" r="11.99"/></clipPath><clipPath id="clip-path-2"><rect class="cls-1" y="1.5" width="41.1" height="23.98"/></clipPath></defs><title>iran</title><g id="Layer_2" data-name="Layer 2"><g id="OBJECTS"><circle class="cls-2" cx="20.55" cy="13.49" r="11.99" transform="translate(-2.56 5.11) rotate(-13.35)"/><g class="cls-3"><g class="cls-4"><rect class="cls-5" y="1.5" width="41.1" height="23.98"/><rect class="cls-6" y="1.5" width="41.1" height="8.01"/><rect class="cls-7" y="17.47" width="41.1" height="8.01"/><polygon class="cls-7" points="20.55 10.6 20.11 10.96 20.19 16.62 20.55 17.03 20.9 16.62 20.99 10.96 20.55 10.6"/><g class="cls-4"><path class="cls-7" d="M21.42,10a.6.6,0,0,1-.82.2l-.05,0a.61.61,0,0,1-.84-.12l0-.05a.51.51,0,0,0,.37.63.49.49,0,0,0,.5-.14.52.52,0,0,0,.87-.49"/><path class="cls-7" d="M21.64,10.79a3.53,3.53,0,0,1-3.27,5.61,3.28,3.28,0,0,0,3.27-5.61"/><path class="cls-7" d="M19.46,10.79a3.53,3.53,0,0,0,3.27,5.61,3.28,3.28,0,0,1-3.27-5.61"/><path class="cls-7" d="M22.05,10.68a3.55,3.55,0,0,1,.78,5l-.18.23a2.81,2.81,0,0,0-.6-5.18"/><path class="cls-7" d="M19.05,10.68a3.55,3.55,0,0,0-.78,5l.18.23a2.81,2.81,0,0,1,.6-5.18"/><path class="cls-5" d="M.09,9.13H.28V8.75H.84v.38h.93V8.56H1.21v.19h.38v.19H1V8.56H.09Zm.38,0H.65V8.94H.47ZM.09,8.36H2.52V8.17H.09Zm2.43.77H2V8.56h.75V8.17h.18v.77h.19V8.17h.19v.77h.19V8.17h.18v1H2.71V8.75H2.15v.19h.37Z"/><path class="cls-5" d="M3.83,9.13H4V8.75h.56v.38h.93V8.56H5v.19h.37v.19H4.76V8.56H3.83Zm.37,0h.19V8.94H4.2Zm-.37-.77H6.26V8.17H3.83Zm2.43.77H5.69V8.56h.75V8.17h.19v.77h.19V8.17H7v.77h.19V8.17h.19v1H6.44V8.75H5.88v.19h.38Z"/><path class="cls-5" d="M7.57,9.13h.18V8.75h.56v.38h.94V8.56H8.69v.19h.37v.19H8.5V8.56H7.57Zm.37,0h.18V8.94H7.94Zm-.37-.77H10V8.17H7.57ZM10,9.13H9.43V8.56h.75V8.17h.19v.77h.19V8.17h.18v.77h.19V8.17h.18v1h-.93V8.75H9.62v.19H10Z"/><path class="cls-5" d="M11.3,9.13h.19V8.75h.56v.38H13V8.56h-.56v.19h.37v.19h-.56V8.56H11.3Zm.37,0h.19V8.94h-.19Zm-.37-.77h2.43V8.17H11.3Zm2.43.77h-.56V8.56h.75V8.17h.18v.77h.19V8.17h.19v.77h.18V8.17h.19v1h-.93V8.75h-.56v.19h.37Z"/><path class="cls-5" d="M15,9.13h.18V8.75h.56v.38h.94V8.56h-.56v.19h.37v.19H16V8.56H15Zm.37,0h.19V8.94h-.19ZM15,8.36h2.43V8.17H15Zm2.43.77h-.56V8.56h.74V8.17h.19v.77H18V8.17h.18v.77h.19V8.17h.19v1h-.94V8.75h-.56v.19h.38Z"/><path class="cls-5" d="M18.77,9.13H19V8.75h.56v.38h.93V8.56H19.9v.19h.37v.19h-.56V8.56h-.94Zm.38,0h.18V8.94h-.18Zm-.38-.77H21.2V8.17H18.77Zm2.43.77h-.56V8.56h.75V8.17h.19v.77h.18V8.17H22v.77h.19V8.17h.18v1h-.93V8.75h-.56v.19h.37Z"/><path class="cls-5" d="M22.51,9.13h.19V8.75h.56v.38h.93V8.56h-.56v.19H24v.19h-.57V8.56h-.93Zm.37,0h.19V8.94h-.19Zm-.37-.77h2.43V8.17H22.51Zm2.43.77h-.56V8.56h.75V8.17h.18v.77h.19V8.17h.19v.77h.18V8.17h.19v1h-.93V8.75h-.56v.19h.37Z"/><path class="cls-5" d="M26.25,9.13h.18V8.75H27v.38h.94V8.56h-.56v.19h.37v.19h-.56V8.56h-.93Zm.37,0h.19V8.94h-.19Zm-.37-.77h2.43V8.17H26.25Zm2.43.77h-.56V8.56h.74V8.17h.19v.77h.19V8.17h.18v.77h.19V8.17h.19v1h-.94V8.75H28.3v.19h.38Z"/><path class="cls-5" d="M30,9.13h.19V8.75h.56v.38h.94V8.56h-.56v.19h.37v.19h-.56V8.56H30Zm.38,0h.18V8.94h-.18ZM30,8.36h2.43V8.17H30Zm2.43.77h-.56V8.56h.75V8.17h.18v.77H33V8.17h.18v.77h.18V8.17h.2v1H32.6V8.75H32v.19h.37Z"/><path class="cls-5" d="M33.72,9.13h.19V8.75h.56v.38h.93V8.56h-.56v.19h.37v.19h-.56V8.56h-.93Zm.38,0h.18V8.94H34.1Zm-.38-.77h2.43V8.17H33.72Zm2.43.77h-.56V8.56h.75V8.17h.18v.77h.19V8.17h.19v.77h.18V8.17h.19v1h-.93V8.75h-.56v.19h.37Z"/><path class="cls-5" d="M37.46,9.13h.19V8.75h.56v.38h.93V8.56h-.56v.19H39v.19h-.56V8.56h-.93Zm.37,0H38V8.94h-.19Zm-.37-.77h2.42V8.17H37.46Zm2.42.77h-.56V8.56h.75V8.17h.19v.77h.18V8.17h.19v.77h.19V8.17H41v1h-.94V8.75h-.56v.19h.37Z"/><path class="cls-5" d="M.09,9.7H1.77V9.32H.09ZM2,9.7H3.64V9.32H2Z"/><path class="cls-5" d="M3.83,9.7H5.51V9.32H3.83Zm1.86,0H7.38V9.32H5.69Z"/><path class="cls-5" d="M7.57,9.7H9.25V9.32H7.57Zm1.86,0h1.68V9.32H9.43Z"/><path class="cls-5" d="M11.3,9.7H13V9.32H11.3Zm1.87,0h1.68V9.32H13.17Z"/><path class="cls-5" d="M15,9.7h1.68V9.32H15Zm1.87,0h1.68V9.32H16.91Z"/><path class="cls-5" d="M18.77,9.7h1.68V9.32H18.77Zm1.87,0h1.68V9.32H20.64Z"/><path class="cls-5" d="M22.51,9.7h1.68V9.32H22.51Zm1.87,0h1.68V9.32H24.38Z"/><path class="cls-5" d="M26.25,9.7h1.68V9.32H26.25Zm1.87,0H29.8V9.32H28.12Z"/><path class="cls-5" d="M30,9.7h1.69V9.32H30Zm1.87,0h1.69V9.32H31.85Z"/><path class="cls-5" d="M33.72,9.7H35.4V9.32H33.72Zm1.87,0h1.68V9.32H35.59Z"/><path class="cls-5" d="M37.46,9.7h1.68V9.32H37.46Zm1.86,0H41V9.32H39.32Z"/><path class="cls-5" d="M.09,18.8H.28v-.38H.84v.38h.93v-.57H1.21v.19h.38v.19H1v-.38H.09Zm.38,0H.65v-.19H.47ZM.09,18H2.52v-.19H.09Zm2.43.76H2v-.57h.75v-.38h.18v.76h.19v-.76h.19v.76h.19v-.76h.18v.95H2.71v-.38H2.15v.19h.37Z"/><path class="cls-5" d="M3.83,18.8H4v-.38h.56v.38h.93v-.57H5v.19h.37v.19H4.76v-.38H3.83Zm.37,0h.19v-.19H4.2ZM3.83,18H6.26v-.19H3.83Zm2.43.76H5.69v-.57h.75v-.38h.19v.76h.19v-.76H7v.76h.19v-.76h.19v.95H6.44v-.38H5.88v.19h.38Z"/><path class="cls-5" d="M7.57,18.8h.18v-.38h.56v.38h.94v-.57H8.69v.19h.37v.19H8.5v-.38H7.57Zm.37,0h.18v-.19H7.94ZM7.57,18H10v-.19H7.57ZM10,18.8H9.43v-.57h.75v-.38h.19v.76h.19v-.76h.18v.76h.19v-.76h.18v.95h-.93v-.38H9.62v.19H10Z"/><path class="cls-5" d="M11.3,18.8h.19v-.38h.56v.38H13v-.57h-.56v.19h.37v.19h-.56v-.38H11.3Zm.37,0h.19v-.19h-.19ZM11.3,18h2.43v-.19H11.3Zm2.43.76h-.56v-.57h.75v-.38h.18v.76h.19v-.76h.19v.76h.18v-.76h.19v.95h-.93v-.38h-.56v.19h.37Z"/><path class="cls-5" d="M15,18.8h.18v-.38h.56v.38h.94v-.57h-.56v.19h.37v.19H16v-.38H15Zm.37,0h.19v-.19h-.19ZM15,18h2.43v-.19H15Zm2.43.76h-.56v-.57h.74v-.38h.19v.76H18v-.76h.18v.76h.19v-.76h.19v.95h-.94v-.38h-.56v.19h.38Z"/><path class="cls-5" d="M18.77,18.8H19v-.38h.56v.38h.93v-.57H19.9v.19h.37v.19h-.56v-.38h-.94Zm.38,0h.18v-.19h-.18ZM18.77,18H21.2v-.19H18.77Zm2.43.76h-.56v-.57h.75v-.38h.19v.76h.18v-.76H22v.76h.19v-.76h.18v.95h-.93v-.38h-.56v.19h.37Z"/><path class="cls-5" d="M22.51,18.8h.19v-.38h.56v.38h.93v-.57h-.56v.19H24v.19h-.57v-.38h-.93Zm.37,0h.19v-.19h-.19ZM22.51,18h2.43v-.19H22.51Zm2.43.76h-.56v-.57h.75v-.38h.18v.76h.19v-.76h.19v.76h.18v-.76h.19v.95h-.93v-.38h-.56v.19h.37Z"/><path class="cls-5" d="M26.25,18.8h.18v-.38H27v.38h.94v-.57h-.56v.19h.37v.19h-.56v-.38h-.93Zm.37,0h.19v-.19h-.19ZM26.25,18h2.43v-.19H26.25Zm2.43.76h-.56v-.57h.74v-.38h.19v.76h.19v-.76h.18v.76h.19v-.76h.19v.95h-.94v-.38H28.3v.19h.38Z"/><path class="cls-5" d="M30,18.8h.19v-.38h.56v.38h.94v-.57h-.56v.19h.37v.19h-.56v-.38H30Zm.38,0h.18v-.19h-.18ZM30,18h2.43v-.19H30Zm2.43.76h-.56v-.57h.75v-.38h.18v.76H33v-.76h.18v.76h.18v-.76h.2v.95H32.6v-.38H32v.19h.37Z"/><path class="cls-5" d="M33.72,18.8h.19v-.38h.56v.38h.93v-.57h-.56v.19h.37v.19h-.56v-.38h-.93Zm.38,0h.18v-.19H34.1ZM33.72,18h2.43v-.19H33.72Zm2.43.76h-.56v-.57h.75v-.38h.18v.76h.19v-.76h.19v.76h.18v-.76h.19v.95h-.93v-.38h-.56v.19h.37Z"/><path class="cls-5" d="M37.46,18.8h.19v-.38h.56v.38h.93v-.57h-.56v.19H39v.19h-.56v-.38h-.93Zm.37,0H38v-.19h-.19ZM37.46,18h2.42v-.19H37.46Zm2.42.76h-.56v-.57h.75v-.38h.19v.76h.18v-.76h.19v.76h.19v-.76H41v.95h-.94v-.38h-.56v.19h.37Z"/><path class="cls-5" d="M.09,17.66H1.77v-.38H.09Zm1.87,0H3.64v-.38H2Z"/><path class="cls-5" d="M3.83,17.66H5.51v-.38H3.83Zm1.86,0H7.38v-.38H5.69Z"/><path class="cls-5" d="M7.57,17.66H9.25v-.38H7.57Zm1.86,0h1.68v-.38H9.43Z"/><path class="cls-5" d="M11.3,17.66H13v-.38H11.3Zm1.87,0h1.68v-.38H13.17Z"/><path class="cls-5" d="M15,17.66h1.68v-.38H15Zm1.87,0h1.68v-.38H16.91Z"/><path class="cls-5" d="M18.77,17.66h1.68v-.38H18.77Zm1.87,0h1.68v-.38H20.64Z"/><path class="cls-5" d="M22.51,17.66h1.68v-.38H22.51Zm1.87,0h1.68v-.38H24.38Z"/><path class="cls-5" d="M26.25,17.66h1.68v-.38H26.25Zm1.87,0H29.8v-.38H28.12Z"/><path class="cls-5" d="M30,17.66h1.69v-.38H30Zm1.87,0h1.69v-.38H31.85Z"/><path class="cls-5" d="M33.72,17.66H35.4v-.38H33.72Zm1.87,0h1.68v-.38H35.59Z"/><path class="cls-5" d="M37.46,17.66h1.68v-.38H37.46Zm1.86,0H41v-.38H39.32Z"/></g></g></g></g></g></svg>