<svg xmlns="http://www.w3.org/2000/svg" xmlns:xlink="http://www.w3.org/1999/xlink" viewBox="0 0 41.96 26.98"><defs><style>.cls-1,.cls-2{fill:none;}.cls-2{stroke:#fff;stroke-miterlimit:10;stroke-width:3px;}.cls-3{clip-path:url(#clip-path);}.cls-4{clip-path:url(#clip-path-2);}.cls-5{fill:#b01f35;}.cls-6{fill:#296437;}</style><clipPath id="clip-path"><path class="cls-1" d="M33,13.49a12,12,0,1,1-12-12A12,12,0,0,1,33,13.49Z"/></clipPath><clipPath id="clip-path-2"><rect class="cls-1" y="1.25" width="41.96" height="24.48"/></clipPath></defs><title>morocco</title><g id="Layer_2" data-name="Layer 2"><g id="OBJECTS"><circle class="cls-2" cx="20.98" cy="13.49" r="11.99"/><g class="cls-3"><g class="cls-4"><rect class="cls-5" y="1.25" width="41.96" height="24.48"/><polygon class="cls-6" points="19.65 11.87 15.36 11.88 20.25 15.61 20.98 15.05 18.02 12.78 19.37 12.78 19.65 11.87"/><polygon class="cls-6" points="22.31 11.87 20.98 7.58 19.11 13.62 19.85 14.18 20.98 10.52 21.4 11.87 22.31 11.87"/><polygon class="cls-6" points="23.13 14.53 26.6 11.87 20.56 11.87 20.28 12.78 23.94 12.78 22.85 13.62 23.13 14.53"/><polygon class="cls-6" points="20.98 16.17 24.45 18.82 22.59 12.78 21.68 12.78 22.81 16.44 21.71 15.61 20.98 16.17"/><polygon class="cls-6" points="18.83 14.53 17.51 18.82 22.39 15.09 22.11 14.18 19.15 16.45 19.57 15.09 18.83 14.53"/></g></g></g></g></svg>