<svg xmlns="http://www.w3.org/2000/svg" xmlns:xlink="http://www.w3.org/1999/xlink" viewBox="0 0 26.98 26.98"><defs><style>.cls-1,.cls-2{fill:none;}.cls-2{stroke:#fff;stroke-miterlimit:10;stroke-width:3px;}.cls-3{clip-path:url(#clip-path);}.cls-4{fill:#f9f9f9;}.cls-5{fill:#0068b5;}.cls-6{fill:#f51934;}</style><clipPath id="clip-path"><circle class="cls-1" cx="13.49" cy="13.49" r="11.99"/></clipPath></defs><title>panama</title><g id="Layer_2" data-name="Layer 2"><g id="OBJECTS"><circle class="cls-2" cx="13.49" cy="13.49" r="11.99"/><g class="cls-3"><path class="cls-4" d="M13.49,25.48H26V13.14H13.49ZM19.8,15.24l.47,1.45H21.8l-1.24.9L21,19.05l-1.24-.9-1.24.9L19,17.59l-1.24-.9h1.53Z"/><path class="cls-4" d="M13.49,1.5H1V13.14H13.49ZM8.41,10.63l-1.23-.9-1.24.9.47-1.45-1.24-.9H6.7l.48-1.46.47,1.46H9.18l-1.24.9Z"/><polygon class="cls-5" points="7.28 8.59 7.28 8.61 7.29 8.59 7.28 8.59"/><polygon class="cls-5" points="7.45 8.73 7.5 8.66 7.38 8.64 7.43 8.74 7.45 8.73"/><polygon class="cls-5" points="7.18 8.75 7.02 8.54 6.92 8.74 7.24 8.84 7.18 8.75"/><rect class="cls-5" x="1.02" y="13.14" width="12.47" height="12.34"/><rect class="cls-6" x="13.49" y="1.5" width="12.47" height="11.64"/><polygon class="cls-6" points="19.9 17.01 19.9 17.03 19.92 17.01 19.9 17.01"/><polygon class="cls-6" points="20.07 17.15 20.12 17.08 20 17.06 20.05 17.15 20.07 17.15"/><polygon class="cls-6" points="21.8 16.69 20.27 16.69 19.8 15.24 19.33 16.69 17.8 16.69 19.04 17.59 18.56 19.05 19.8 18.15 21.04 19.05 20.56 17.59 21.8 16.69"/><polygon class="cls-5" points="9.18 8.28 7.65 8.28 7.18 6.82 6.7 8.28 5.17 8.28 6.41 9.18 5.94 10.63 7.18 9.73 8.41 10.63 7.94 9.18 9.18 8.28"/></g></g></g></svg>