<svg xmlns="http://www.w3.org/2000/svg" xmlns:xlink="http://www.w3.org/1999/xlink" viewBox="0 0 36.38 26.98"><defs><style>.cls-1,.cls-12,.cls-14,.cls-15,.cls-17,.cls-18,.cls-2{fill:none;}.cls-2{stroke:#fff;stroke-miterlimit:10;stroke-width:3px;}.cls-3{clip-path:url(#clip-path);}.cls-20,.cls-4{fill:#ed1b2e;}.cls-11,.cls-13,.cls-16,.cls-22,.cls-23,.cls-24,.cls-25,.cls-26,.cls-27,.cls-28,.cls-29,.cls-30,.cls-31,.cls-32,.cls-33,.cls-34,.cls-35,.cls-36,.cls-37,.cls-38,.cls-39,.cls-4,.cls-40,.cls-41,.cls-42,.cls-5,.cls-6,.cls-7{fill-rule:evenodd;}.cls-5{fill:#00693f;}.cls-10,.cls-11,.cls-13,.cls-23,.cls-24,.cls-25,.cls-26,.cls-27,.cls-28,.cls-29,.cls-30,.cls-31,.cls-32,.cls-33,.cls-34,.cls-35,.cls-36,.cls-37,.cls-38,.cls-39,.cls-40,.cls-41,.cls-42,.cls-6,.cls-7,.cls-8,.cls-9{fill:#ffde36;}.cls-10,.cls-11,.cls-12,.cls-13,.cls-14,.cls-15,.cls-18,.cls-19,.cls-20,.cls-23,.cls-24,.cls-25,.cls-26,.cls-27,.cls-28,.cls-29,.cls-30,.cls-31,.cls-32,.cls-33,.cls-34,.cls-35,.cls-36,.cls-37,.cls-38,.cls-39,.cls-40,.cls-41,.cls-42,.cls-7,.cls-8,.cls-9{stroke:#111b1e;}.cls-10,.cls-11,.cls-12,.cls-13,.cls-14,.cls-15,.cls-17,.cls-18,.cls-7,.cls-8,.cls-9{stroke-linecap:round;stroke-linejoin:round;}.cls-7{stroke-width:0.03px;}.cls-8{stroke-width:0.03px;}.cls-11,.cls-12,.cls-9{stroke-width:0.03px;}.cls-10{stroke-width:0.03px;}.cls-13{stroke-width:0.03px;}.cls-14{stroke-width:0.03px;}.cls-15{stroke-width:0.03px;}.cls-16{fill:#111b1e;}.cls-17{stroke:#ed1b2e;stroke-width:0.06px;}.cls-18{stroke-width:0.03px;}.cls-19,.cls-22{fill:#fff;}.cls-19,.cls-20,.cls-23,.cls-24,.cls-25,.cls-26,.cls-27,.cls-28,.cls-29,.cls-30,.cls-31,.cls-32,.cls-33,.cls-34,.cls-35,.cls-36,.cls-37,.cls-38,.cls-39,.cls-40,.cls-41,.cls-42{stroke-miterlimit:2.61;}.cls-19{stroke-width:0.04px;}.cls-20{stroke-width:0.03px;}.cls-21{fill:#004685;}.cls-23{stroke-width:0.03px;}.cls-24{stroke-width:0.03px;}.cls-25{stroke-width:0.03px;}.cls-26{stroke-width:0.03px;}.cls-27{stroke-width:0.03px;}.cls-28{stroke-width:0.03px;}.cls-29{stroke-width:0.03px;}.cls-30{stroke-width:0.03px;}.cls-31{stroke-width:0.03px;}.cls-32{stroke-width:0.03px;}.cls-33{stroke-width:0.03px;}.cls-34{stroke-width:0.03px;}.cls-35{stroke-width:0.03px;}.cls-36{stroke-width:0.03px;}.cls-37{stroke-width:0.03px;}.cls-38{stroke-width:0.03px;}.cls-39{stroke-width:0.03px;}.cls-40{stroke-width:0.03px;}.cls-41{stroke-width:0.03px;}.cls-42{stroke-width:0.03px;}</style><clipPath id="clip-path"><circle class="cls-1" cx="18.21" cy="13.49" r="11.99"/></clipPath></defs><title>portugal</title><g id="Layer_2" data-name="Layer 2"><g id="OBJECTS"><circle class="cls-2" cx="18.21" cy="13.49" r="11.99"/><g class="cls-3"><polygon class="cls-4" points="14.55 1.36 36.38 1.36 36.38 25.61 14.55 25.61 14.55 1.36 14.55 1.36"/><polygon class="cls-5" points="0 1.36 14.55 1.36 14.55 25.61 0 25.61 0 1.36 0 1.36"/><path class="cls-6" d="M19.29,17.25C17.46,17.19,9.06,12,9,11.12l.46-.78c.83,1.21,9.42,6.31,10.26,6.13l-.44.78Z"/><path class="cls-7" d="M9.37,10.24c-.16.44,2.19,1.9,5,3.62s5.28,2.79,5.46,2.64a1.18,1.18,0,0,0,.08-.16c0,.06-.12.07-.24,0a28,28,0,0,1-5.24-2.63c-2.48-1.5-4.63-2.89-5-3.47a.48.48,0,0,1,0-.18h0l-.07.13v0Zm10,7c0,.06-.09.06-.2.05a22,22,0,0,1-5.22-2.56c-2.87-1.71-5.23-3.27-5-3.68L9,11H9c-.23.69,4.66,3.49,5,3.67,2.84,1.75,5.22,2.78,5.43,2.51l-.07.13Z"/><path class="cls-6" d="M14.56,11.62a17.15,17.15,0,0,0,5.4-.77l-.28-.45a15.5,15.5,0,0,1-5.13.74c-2.47,0-4.22-.25-5.09-.83l-.27.48a13.25,13.25,0,0,0,5.37.83Z"/><path class="cls-8" d="M20,10.86a7.58,7.58,0,0,1-2.14.58,21.92,21.92,0,0,1-3.34.24,22.27,22.27,0,0,1-3.19-.2,9.17,9.17,0,0,1-2.24-.59l.06-.13a9.9,9.9,0,0,0,2.2.59,23.63,23.63,0,0,0,3.17.2,21.4,21.4,0,0,0,3.31-.25,5.32,5.32,0,0,0,2.08-.59l.09.15Zm-.24-.46a6.42,6.42,0,0,1-2.05.55,22.8,22.8,0,0,1-3.17.23,22,22,0,0,1-3.06-.2,8.66,8.66,0,0,1-2.14-.54l.08-.12a7.4,7.4,0,0,0,2.07.53,22,22,0,0,0,3.05.19,22.19,22.19,0,0,0,3.14-.23,5.49,5.49,0,0,0,2-.56l.09.15Z"/><path class="cls-6" d="M8.54,13.83c1.13.61,3.63.91,6,.93,2.16,0,5-.33,6-.89l0-.6c-.32.51-3.34,1-6,1s-5.16-.43-6-1v.54Z"/><path class="cls-9" d="M20.62,13.74v.15a6.63,6.63,0,0,1-2.39.67,24,24,0,0,1-3.71.26A24.58,24.58,0,0,1,11,14.58a9.1,9.1,0,0,1-2.52-.68v-.17a9.09,9.09,0,0,0,2.54.71,22.91,22.91,0,0,0,3.51.24,25.18,25.18,0,0,0,3.69-.25,7.51,7.51,0,0,0,2.41-.69Zm0-.51v.14a6.55,6.55,0,0,1-2.39.68,25.38,25.38,0,0,1-3.71.25A23.2,23.2,0,0,1,11,14.06a8.72,8.72,0,0,1-2.52-.68v-.17a8.79,8.79,0,0,0,2.54.72,24.27,24.27,0,0,0,3.51.24,25.08,25.08,0,0,0,3.69-.25,7.78,7.78,0,0,0,2.41-.69Z"/><path class="cls-6" d="M14.54,17.14a20.18,20.18,0,0,1-5.29-.82l.35.54a14,14,0,0,0,5,.81,12.78,12.78,0,0,0,4.91-.8l.35-.56a18.53,18.53,0,0,1-5.28.83Z"/><path class="cls-10" d="M19.6,16.74l-.16.24a13.58,13.58,0,0,1-1.85.47,16.79,16.79,0,0,1-3.05.28,14.31,14.31,0,0,1-5.06-.87l-.07-.12v0l.12.05a16.34,16.34,0,0,0,5,.83,16.8,16.8,0,0,0,3-.28,8.61,8.61,0,0,0,2-.55l0,0Zm.31-.5h0l-.12.2a13.68,13.68,0,0,1-2.34.52,19.89,19.89,0,0,1-2.88.24,20,20,0,0,1-5.35-.8l-.07-.13a22.93,22.93,0,0,0,5.42.8,19.48,19.48,0,0,0,2.86-.25,14.19,14.19,0,0,0,2.33-.52h0l.16-.06Z"/><path class="cls-6" d="M14.54,8.1a5.39,5.39,0,1,1-5.39,5.39A5.38,5.38,0,0,1,14.54,8.1Zm0-.54a5.93,5.93,0,1,1-5.92,5.93,5.94,5.94,0,0,1,5.92-5.93Z"/><path class="cls-11" d="M14.55,7.49a6,6,0,1,1-6,6,6,6,0,0,1,6-6Zm0,.13a5.87,5.87,0,1,1-5.88,5.87,5.9,5.9,0,0,1,5.88-5.87Z"/><path class="cls-11" d="M14.55,8a5.5,5.5,0,1,1-5.5,5.5A5.52,5.52,0,0,1,14.55,8Zm0,.13a5.37,5.37,0,1,1-5.37,5.37,5.4,5.4,0,0,1,5.37-5.37Z"/><polygon class="cls-6" points="14.3 7.46 14.82 7.46 14.82 19.54 14.3 19.54 14.3 7.46 14.3 7.46"/><path class="cls-12" d="M14.37,7.47h.37m-.37,12.06h.37"/><path class="cls-13" d="M14.74,7.4h.13V19.6h-.13V7.4Zm-.51,0h.13V19.6h-.13V7.4Z"/><path class="cls-6" d="M8.52,13.24c.75-.69,3.53-1.14,6-1.13s5.38.52,6,1.11v.52c-.53-.5-2.8-1.1-6-1.1s-5.56.6-6,1.11v-.51Z"/><path class="cls-14" d="M8.52,13.26v.45m12-.43v.45"/><path class="cls-9" d="M14.55,12.56a21.15,21.15,0,0,1,3.88.35,4.62,4.62,0,0,1,2.19.82v.16A4.91,4.91,0,0,0,18.41,13a21.07,21.07,0,0,0-3.86-.34,21.1,21.1,0,0,0-3.94.35c-.86.17-2,.51-2.14.84v-.16c.08-.23.93-.58,2.12-.82a23.1,23.1,0,0,1,4-.35Zm0-.51a20.31,20.31,0,0,1,3.88.35,4.41,4.41,0,0,1,2.19.82v.16a4.69,4.69,0,0,0-2.21-.85,21,21,0,0,0-3.86-.35,21.69,21.69,0,0,0-3.93.36c-.83.15-2,.5-2.15.84v-.17a4,4,0,0,1,2.12-.81,21.24,21.24,0,0,1,4-.35Z"/><path class="cls-6" d="M14.52,9.42a13,13,0,0,1,5.07.77l.33.57a12.94,12.94,0,0,0-5.4-.79,13.53,13.53,0,0,0-5.34.81l.38-.65a13.83,13.83,0,0,1,5-.71Z"/><line class="cls-15" x1="19.65" y1="10.28" x2="19.87" y2="10.64"/><path class="cls-8" d="M14.55,9.89a20.29,20.29,0,0,1,3.48.24,6.51,6.51,0,0,1,1.91.56l.1.17a7.62,7.62,0,0,0-2-.6A20.05,20.05,0,0,0,14.55,10a21.4,21.4,0,0,0-3.52.24,6.16,6.16,0,0,0-1.89.59l.1-.18A6.21,6.21,0,0,1,11,10.13a21,21,0,0,1,3.54-.24Zm0-.52a19.92,19.92,0,0,1,3.36.24,5.37,5.37,0,0,1,1.74.57l.14.22a4.53,4.53,0,0,0-1.94-.66,21.43,21.43,0,0,0-3.3-.23,20.59,20.59,0,0,0-3.38.24,5.68,5.68,0,0,0-1.68.52l.12-.18a5.78,5.78,0,0,1,1.54-.47,20.66,20.66,0,0,1,3.4-.25Z"/><path class="cls-6" d="M17.53,16a15.27,15.27,0,0,0-3-.23c-3.73.05-4.93.77-5.08,1l-.27-.45c.94-.69,3-1.07,5.37-1a18.46,18.46,0,0,1,3.22.28l-.26.45Z"/><line class="cls-12" x1="9.26" y1="16.35" x2="9.44" y2="16.67"/><path class="cls-10" d="M14.53,15.7a17.79,17.79,0,0,1,3,.24l-.07.12a16.13,16.13,0,0,0-3-.22,14.56,14.56,0,0,0-4,.46c-.39.11-1,.35-1.08.56l-.07-.12c0-.12.4-.37,1.11-.57a14.35,14.35,0,0,1,4-.47Zm0-.52a18.89,18.89,0,0,1,3.26.28l-.07.13a17.4,17.4,0,0,0-3.18-.28,15.41,15.41,0,0,0-4.17.49c-.43.13-1.17.4-1.2.61l-.07-.13c0-.19.66-.44,1.24-.61a15.16,15.16,0,0,1,4.19-.49Z"/><path class="cls-16" d="M13.46,15.54a.05.05,0,0,1,0,0s0,0,0,0h0l0,0a0,0,0,0,1,0,0,0,0,0,0,0,0,0l0,0h-.06l0,0v0Zm0,0s0,0,0,0h.06s0,0,0,0v0h0s0,0,0,0Zm.14,0h0v0h0v0h0v0Zm.13,0h0l0,0H13.7v0s0,0,0,0h0a0,0,0,0,1,0,0h-.06s0,0,0,0h0Zm0,0h0s0,0,0,0h0v0Zm.07.05h0v0h0a0,0,0,0,1,0,0s0,0,0,0v0h.06v.11h-.05v0Zm0-.05a0,0,0,0,0,0,0h0s0,0,0,0a0,0,0,0,0,0,0h0v0Zm.07,0v-.09h0v0h0l0,0h0v.07h0v-.05h0v.06h0v-.05h0v.05Zm.18,0h0s0,0,0,0H14a0,0,0,0,1,0,0l0,0h.05s0,0,0,0H14v0h0s0,0,0,0Zm0,0h0v0h0v0Zm.07.05v-.08h0s0,0,0,0h0v.07h0v-.05s0,0,0,0h0s0,0,0,0v.05Zm.11,0h0v-.07h0v0h0v0h0v0h0Zm0,0a0,0,0,0,1,0,0h0a0,0,0,0,1,0,.06h-.06s0,0,0,0Zm0,0v0h0a0,0,0,0,1,0,0s0,0,0,0h0s0,0,0,0Zm.17,0h0a0,0,0,0,0,0,0h0s0,0,0,0,0,0,0,0l0,0h.05a0,0,0,0,1,0,0h-.06s0,0,0,0h0Zm0,0h0Zm.06.05,0-.11h0l0,.11Zm.05-.1h0Zm0,.1v-.08h0v.08Zm0,0,0-.08h.09v.08h0V15.5h0v.07h0v-.07h0v.06Zm.14-.1h0Zm0,.1v-.08h0v.08Zm0,0,0-.08h.05v.05h0V15.5h0v.07Zm.14,0h0s0,0,0,0h.06v0h0v0h0Zm0,0h0v0Zm.08,0h0s0,0,0,0h0s0,0,0,0v-.06h0v0h0l0,.11Zm0,0s0,0,0,0h0v0h0s0,0,0,0Zm.07,0s0,0,0,0H15a0,0,0,0,1,0,0v0l0,0h0a0,0,0,0,1,0,0Zm0,0v0h0l0,0s0,0,0,0h0v0Zm.11,0v-.08h0v0Zm.11,0h0v0h-.05s0,0,0,0l0,0h.05s0,0,0,0h-.05s0,0,0,0h0Zm0,0h0v0h0s0,0,0,0Zm.06,0h0a0,0,0,0,0,0,0h0v0h-.05s0,0,0,0Zm.07.06,0-.11h.06v0s0,0,0,0v0l0,0h0v0Zm0-.07v0a0,0,0,0,0,0,0h0v0h0s0,0,0,0Zm.12,0h0a0,0,0,0,1,0,0h0l0,0s0,0,0,0a0,0,0,0,1,0,0h.05a0,0,0,0,1,0,0h-.06v0h0Zm0,0h0a0,0,0,0,0,0,0h0Zm.08,0v0h0v0Zm0,.1v-.09h0v.08Zm.06,0h0V15.5h0v0h0v0h0v0h0Zm.06,0h0v0h0v0h0Zm0,0h0Zm.07,0v0h0l0,0v0a0,0,0,0,1,0,0H15.6s0,0,0,0Zm0,0v0h0l0,0a0,0,0,0,0,0,0h0s0,0,0,0Zm.1.07,0-.11h.06s0,0,0,0v0h-.06v0Zm0-.07v0h0s0,0,0,0v0h0s0,0,0,0Zm.06.05,0-.09h0v.05Zm0,0s0,0,0,0h.05a0,0,0,0,1,0,0v0h-.06a0,0,0,0,1,0,0Zm0,0v0h0s0,0,0,0,0,0,0,0h0s0,0,0,0ZM16,15.5v0h0v0Zm0,.13v0h0l0-.09h0v.1h0Zm.12-.06h0l0,0h0v0s0,0,0,0h0s0,0,0,0H16s0,0,0,0h0l0,0Zm0,0h0s0,0,0,0Z"/><path class="cls-16" d="M16.11,15.58h0l0,0h0l0,0s0,0,0,0,0,0,0,0h.06v0h0v.05h0Zm.05,0h0v-.05h0v0h0v0h0v.05h0Zm0,0,0,0h0s0,0,0,0,0,0,0,0,0,0,0,0h0l0,0v0Zm0,0v0h0v0h0l0,0Zm.16.06h0s0,0,0,0h0v0s0,0,0,0h0s0,0,0,0h0v0h0l0,.11Zm0-.05v0h0v0h0v0Zm.12,0h0v0h0l0,0s0,0,0,0l0,0h0s0,0,0,0v0h-.06v0h0s0,0,0,0Zm0,0h.05v0h-.05Zm.19,0h0l0,0h-.05s0,0,0,0,0,0,0,0v0l0,0h.06v0h-.06l0,0v0s0,0,0,0h0v0Zm0,0,0,0h.05v0s0,0,0,0h-.06v0Zm0,0v0h0s0,0,0,0v0h0l0,0Zm.07,0,0-.11h0l0,.12Zm.08,0h0s0,0,0,0h0v-.05h0v.06h0v-.05h0l0,.08Zm0,0,0-.08h.05s0,0,0,0h0v0l0,0h0v0h0v.07h0l0,0h0v.06Zm.13,0h0l0-.11h0l0,0H17v0h0s0,0,0,0h-.05Zm0,0v0h0s0,0,0,0v0h0a0,0,0,0,0,0,0Zm.11,0h0a0,0,0,0,1,0,0s0,0,0,0h.07v0h0Zm0,0h0Zm0,.05,0-.08h.05s0,0,0,0h0v.05h0l0-.05v0h0v.06Zm.08,0,0,0h0l0,0a0,0,0,0,1,0,0s0,0,0,0v0h0s0,0,0,0v0Zm0,0a0,0,0,0,0,0,0h0a0,0,0,0,0,0,0v0h0v0Z"/><line class="cls-17" x1="17.83" y1="15.47" x2="17.5" y2="16.05"/><path class="cls-6" d="M9.51,10.12c1.85,0,10.36,5.21,10.39,6.17l-.53.81C19.13,16,10.49,10.89,9.07,11l.44-.87Z"/><path class="cls-18" d="M19.86,16.36l-.45.69M9.5,10.17l-.42.77"/><path class="cls-7" d="M9,11c.34-.23,2.86.89,5.49,2.47s5.14,3.4,4.91,3.73l-.07.12,0,0s.05-.06,0-.18c-.11-.37-1.89-1.79-4.85-3.57S9.18,10.81,8.94,11.1L9,11ZM20,16.35c.22-.43-2.11-2.18-5-3.9S9.85,9.79,9.46,10.08l-.09.16,0,0a.32.32,0,0,1,.24-.06c.67,0,2.58.89,5.27,2.43,1.18.69,5,3.12,5,3.81,0,.06,0,.07,0,.1l.09-.15Z"/><path class="cls-19" d="M11,14.15a3.6,3.6,0,0,0,7.2,0h0V9.36H11v4.8Z"/><path class="cls-20" d="M11.08,14.16h0a3.4,3.4,0,0,0,1,2.43A3.45,3.45,0,0,0,18,14.17h0V9.51h-6.9v4.65ZM16.6,10.9v3.28h0a2.26,2.26,0,0,1,0,.26,2.06,2.06,0,0,1-2.05,1.79,2,2,0,0,1-1.45-.61,2.08,2.08,0,0,1-.61-1.45V10.9Z"/><path class="cls-21" d="M14.1,13.63h0a.53.53,0,0,0,.14.35.43.43,0,0,0,.32.14.42.42,0,0,0,.32-.14.52.52,0,0,0,.13-.35h0V13h-.9v.65Z"/><path class="cls-22" d="M14.82,13.14a.09.09,0,1,0,.09.09.09.09,0,0,0-.09-.09Z"/><path class="cls-22" d="M14.56,13.38a.09.09,0,1,0,.09.09.09.09,0,0,0-.09-.09Z"/><path class="cls-22" d="M14.82,13.63a.09.09,0,1,0,.09.09.09.09,0,0,0-.09-.09Z"/><path class="cls-22" d="M14.32,13.63a.1.1,0,0,0-.09.09.09.09,0,0,0,.18,0,.1.1,0,0,0-.09-.09Z"/><path class="cls-22" d="M14.32,13.14a.09.09,0,1,0,.09.09.09.09,0,0,0-.09-.09Z"/><path class="cls-21" d="M14.1,15.2h0a.51.51,0,0,0,.13.34.43.43,0,0,0,.65,0A.51.51,0,0,0,15,15.2h0v-.66H14.1v.66Z"/><path class="cls-22" d="M14.81,14.7a.09.09,0,1,0,.09.09.09.09,0,0,0-.09-.09Z"/><path class="cls-22" d="M14.56,14.94a.09.09,0,1,0,.09.09.09.09,0,0,0-.09-.09Z"/><path class="cls-22" d="M14.81,15.2a.09.09,0,1,0,.09.09.09.09,0,0,0-.09-.09Z"/><path class="cls-22" d="M14.32,15.2a.09.09,0,1,0,.09.09.09.09,0,0,0-.09-.09Z"/><path class="cls-22" d="M14.32,14.7a.09.09,0,1,0,.09.09.09.09,0,0,0-.09-.09Z"/><path class="cls-21" d="M12.84,13.64h0A.48.48,0,0,0,13,14a.42.42,0,0,0,.32.15.44.44,0,0,0,.32-.15.51.51,0,0,0,.13-.34h0V13h-.9v.66Z"/><path class="cls-22" d="M13.56,13.14a.09.09,0,1,0,.09.09.09.09,0,0,0-.09-.09Z"/><path class="cls-22" d="M13.3,13.38a.09.09,0,1,0,.09.09.09.09,0,0,0-.09-.09Z"/><path class="cls-22" d="M13.56,13.64a.09.09,0,1,0,.09.09.09.09,0,0,0-.09-.09Z"/><path class="cls-22" d="M13.06,13.64a.09.09,0,1,0,.09.09.09.09,0,0,0-.09-.09Z"/><path class="cls-22" d="M13.06,13.14a.09.09,0,1,0,.09.09.09.09,0,0,0-.09-.09Z"/><path class="cls-21" d="M15.36,13.64h0a.48.48,0,0,0,.14.34.42.42,0,0,0,.32.15.44.44,0,0,0,.32-.15.51.51,0,0,0,.13-.34h0V13h-.91v.66Z"/><path class="cls-22" d="M16.07,13.14a.09.09,0,1,0,0,.18.09.09,0,1,0,0-.18Z"/><path class="cls-22" d="M15.82,13.38a.09.09,0,1,0,.09.09.09.09,0,0,0-.09-.09Z"/><path class="cls-22" d="M16.07,13.64a.09.09,0,1,0,.09.09.09.09,0,0,0-.09-.09Z"/><path class="cls-22" d="M15.58,13.64a.09.09,0,1,0,.09.09.09.09,0,0,0-.09-.09Z"/><path class="cls-22" d="M15.58,13.14a.09.09,0,1,0,.09.09.09.09,0,0,0-.09-.09Z"/><path class="cls-21" d="M14.1,12.06h0a.52.52,0,0,0,.14.34.42.42,0,0,0,.32.15.44.44,0,0,0,.32-.15.51.51,0,0,0,.13-.34h0V11.4h-.9v.66Z"/><path class="cls-22" d="M14.82,11.56a.09.09,0,1,0,.09.09.09.09,0,0,0-.09-.09Z"/><path class="cls-22" d="M14.56,11.8a.09.09,0,1,0,.09.09.09.09,0,0,0-.09-.09Z"/><path class="cls-22" d="M14.82,12.06a.09.09,0,1,0,.09.09.09.09,0,0,0-.09-.09Z"/><path class="cls-22" d="M14.32,12.06a.09.09,0,1,0,.09.09.09.09,0,0,0-.09-.09Z"/><path class="cls-22" d="M14.32,11.56a.09.09,0,1,0,.09.09.09.09,0,0,0-.09-.09Z"/><path class="cls-6" d="M11.53,10.73a.43.43,0,0,1,.25-.42.43.43,0,0,1,.25.42Z"/><path class="cls-23" d="M11.33,10.32l-.05.38h.26a.34.34,0,0,1,.24-.37.37.37,0,0,1,.25.37h.25l0-.39Z"/><path class="cls-24" d="M11.27,10.7h1s0,0,0,.05h0s0,.05,0,.05h-1a0,0,0,0,1,0-.05h0a0,0,0,0,1,0-.05Z"/><path class="cls-25" d="M11.64,10.7a.27.27,0,0,1,.14-.26.27.27,0,0,1,.14.26Z"/><path class="cls-26" d="M11.29,10.16h1a0,0,0,0,1,0,0h0a0,0,0,0,1,0,0h-1a0,0,0,0,1,0,0h0a0,0,0,0,1,0,0Z"/><path class="cls-26" d="M11.31,10.24h.94a0,0,0,0,1,0,0h0a0,0,0,0,1,0,.05h-.94a0,0,0,0,1,0-.05h0a0,0,0,0,1,0,0Z"/><path class="cls-27" d="M11.61,9.6h.08v.05h.05V9.6h.08v.05h0V9.6H12v.12a0,0,0,0,1,0,0h-.27s0,0,0,0V9.6Z"/><polygon class="cls-25" points="11.89 9.76 11.91 10.15 11.65 10.15 11.67 9.76 11.89 9.76 11.89 9.76"/><path class="cls-27" d="M11.94,9.79H12v.05h.05V9.79h.08v.05h0V9.79h.08v.12s0,0,0,0H12a0,0,0,0,1,0,0V9.79Z"/><polygon class="cls-27" points="12.22 9.94 12.23 10.15 11.98 10.15 11.98 9.94 12.22 9.94 12.22 9.94"/><path class="cls-27" d="M11.3,9.79h.07v.06h.05V9.79h.08v.06h.05V9.79h.07v.12a0,0,0,0,1,0,0h-.26a0,0,0,0,1,0,0V9.79Z"/><polygon class="cls-27" points="11.58 9.95 11.58 10.15 11.33 10.16 11.34 9.95 11.58 9.95 11.58 9.95"/><path class="cls-16" d="M11.76,9.89s.05,0,.05,0V10h-.05V9.89Z"/><path class="cls-16" d="M12.08,10s.05,0,.05,0v.07h-.05V10Z"/><path class="cls-16" d="M11.43,10s.05,0,.05,0v.07h-.05V10Z"/><path class="cls-27" d="M14.39,9.6h.07v.05h0V9.6h.08v.05h.06V9.6h.07v.12a0,0,0,0,1,0,0h-.27a0,0,0,0,1,0,0V9.6Z"/><polygon class="cls-25" points="14.67 9.76 14.68 10.15 14.42 10.15 14.44 9.76 14.67 9.76 14.67 9.76"/><path class="cls-27" d="M14.71,9.79h.07v.06h.06V9.79h.07v.06H15V9.79H15v.12a0,0,0,0,1,0,0h-.27a0,0,0,0,1,0,0V9.79Z"/><polygon class="cls-27" points="14.99 9.95 15 10.15 14.75 10.15 14.76 9.95 14.99 9.95 14.99 9.95"/><path class="cls-27" d="M14.07,9.79h.07v.06h0V9.79h.08v.06h.05V9.79h.08v.12a0,0,0,0,1,0,0H14.1s0,0,0,0V9.79Z"/><polygon class="cls-27" points="14.35 9.95 14.36 10.16 14.11 10.16 14.11 9.95 14.35 9.95 14.35 9.95"/><path class="cls-6" d="M14.3,10.73a.43.43,0,0,1,.25-.42.43.43,0,0,1,.26.42Z"/><path class="cls-23" d="M14.1,10.32l0,.38h.25a.34.34,0,0,1,.24-.37.36.36,0,0,1,.25.37h.25l0-.39Z"/><path class="cls-24" d="M14,10.7h1a0,0,0,0,1,0,.05h0a0,0,0,0,1,0,.05H14a0,0,0,0,1,0-.05h0a0,0,0,0,1,0-.05Z"/><path class="cls-25" d="M14.41,10.7a.27.27,0,0,1,.14-.26.27.27,0,0,1,.14.26Z"/><path class="cls-26" d="M14.06,10.16h1s0,0,0,0h0s0,0,0,0h-1a0,0,0,0,1,0,0h0a0,0,0,0,1,0,0Z"/><path class="cls-26" d="M14.08,10.24H15a0,0,0,0,1,0,0h0a0,0,0,0,1,0,0h-.94s0,0,0,0h0s0,0,0,0Z"/><path class="cls-16" d="M14.53,9.89s.05,0,.05,0V10h-.05V9.89Z"/><path class="cls-16" d="M14.85,10s.05,0,.05,0v.07h-.05V10Z"/><path class="cls-16" d="M14.2,10a0,0,0,0,1,.05,0v.08H14.2V10Z"/><path class="cls-27" d="M17.13,9.6h.07v.06h.06V9.6h.07v.06h.06V9.6h.07v.12s0,0,0,0h-.27s0,0,0,0V9.6Z"/><polygon class="cls-25" points="17.41 9.77 17.42 10.16 17.16 10.16 17.18 9.77 17.41 9.77 17.41 9.77"/><path class="cls-27" d="M17.45,9.79h.07v.06h.06V9.79h.07v.06h.05V9.79h.08v.12a0,0,0,0,1,0,0h-.27a0,0,0,0,1,0,0V9.79Z"/><polygon class="cls-27" points="17.73 9.95 17.74 10.16 17.49 10.16 17.5 9.95 17.73 9.95 17.73 9.95"/><path class="cls-27" d="M16.81,9.79h.07v.06h.05V9.79H17v.06h0V9.79h.08v.13a0,0,0,0,1,0,0h-.26a0,0,0,0,1,0,0V9.79Z"/><polygon class="cls-27" points="17.09 9.95 17.1 10.16 16.85 10.16 16.85 9.95 17.09 9.95 17.09 9.95"/><path class="cls-6" d="M17,10.73a.43.43,0,0,1,.25-.42.43.43,0,0,1,.26.42Z"/><path class="cls-23" d="M16.84,10.32l0,.38h.25a.35.35,0,0,1,.24-.37.36.36,0,0,1,.25.37h.25l0-.38Z"/><path class="cls-24" d="M16.78,10.7h1s0,0,0,.05h0a0,0,0,0,1,0,.05h-1a0,0,0,0,1,0-.05h0s0-.05,0-.05Z"/><path class="cls-25" d="M17.15,10.7a.25.25,0,0,1,.14-.25.25.25,0,0,1,.14.25Z"/><path class="cls-26" d="M16.8,10.16h1s0,0,0,0h0s0,0,0,0h-1a0,0,0,0,1,0,0h0a0,0,0,0,1,0,0Z"/><path class="cls-26" d="M16.82,10.24h.94a0,0,0,0,1,0,0h0a0,0,0,0,1,0,0h-.94s0,0,0,0h0s0,0,0,0Z"/><path class="cls-16" d="M17.27,9.89s.05,0,.05,0V10h-.05V9.89Z"/><path class="cls-16" d="M17.59,10a0,0,0,0,1,.05,0v.08h-.05V10Z"/><path class="cls-16" d="M16.94,10s.06,0,0,0v.08h0V10Z"/><path class="cls-28" d="M11.62,12.41h.07v.05h.05v-.05h.08v.05h.06v-.05H12v.12a0,0,0,0,1,0,0h-.27a0,0,0,0,1,0,0v-.12Z"/><polygon class="cls-29" points="11.9 12.57 11.91 12.96 11.65 12.96 11.67 12.57 11.9 12.57 11.9 12.57"/><path class="cls-30" d="M11.94,12.6H12v.05h.06V12.6h.07v.05h0V12.6h.08v.12a0,0,0,0,1,0,0H12a0,0,0,0,1,0,0V12.6Z"/><polygon class="cls-31" points="12.22 12.75 12.23 12.96 11.98 12.96 11.99 12.75 12.22 12.75 12.22 12.75"/><path class="cls-30" d="M11.3,12.6h.07v.05h.05V12.6h.08v.05h.05V12.6h.08v.12a0,0,0,0,1,0,0h-.26a0,0,0,0,1,0,0V12.6Z"/><polygon class="cls-31" points="11.58 12.75 11.59 12.96 11.34 12.96 11.34 12.75 11.58 12.75 11.58 12.75"/><path class="cls-6" d="M11.53,13.53a.42.42,0,0,1,.25-.41.41.41,0,0,1,.26.42Z"/><path class="cls-32" d="M11.33,13.12l0,.39h.25a.34.34,0,0,1,.24-.37.36.36,0,0,1,.25.37h.25l0-.39Z"/><path class="cls-32" d="M11.27,13.51h1a0,0,0,0,1,0,.05h0s0,0,0,0h-1s0,0,0,0h0a0,0,0,0,1,0-.05Z"/><path class="cls-33" d="M11.64,13.51a.27.27,0,0,1,.14-.26.27.27,0,0,1,.14.26Z"/><path class="cls-29" d="M11.29,13h1s0,0,0,0h0s0,0,0,0h-1a0,0,0,0,1,0,0h0a0,0,0,0,1,0,0Z"/><path class="cls-29" d="M11.31,13.05h.94a0,0,0,0,1,0,0h0a0,0,0,0,1,0,.05h-.94s0,0,0-.05h0s0,0,0,0Z"/><path class="cls-16" d="M11.76,12.69a0,0,0,0,1,.05,0v.1h-.05v-.1Z"/><path class="cls-16" d="M12.08,12.83s.05,0,.05,0v.07h-.05v-.07Z"/><path class="cls-16" d="M11.43,12.83s.05,0,.05,0v.07h-.05v-.07Z"/><path class="cls-34" d="M17,15.37l.05.05,0,0,0,0,0,0,.05,0,0,0,0,0,0,0,.05.06-.08.08a0,0,0,0,1-.05,0l-.19-.19a0,0,0,0,1,0,0l.09-.09Z"/><polygon class="cls-35" points="17.05 15.68 16.78 15.97 16.6 15.79 16.89 15.52 17.05 15.68 17.05 15.68"/><path class="cls-36" d="M17.06,15.73l.05.06,0,0,0,0,0,0,.05.06,0,0,0,0,0,0,.05.06-.08.08a0,0,0,0,1-.05,0L17,15.87s0,0,0,0l.09-.09Z"/><polygon class="cls-37" points="17.15 16.04 17.01 16.2 16.83 16.02 16.98 15.87 17.15 16.04 17.15 16.04"/><path class="cls-36" d="M16.6,15.28l.06.05,0,0,0,0,0,0,.06.05,0,0,0,0,0,0,.06,0-.09.09h0l-.19-.19a0,0,0,0,1,0-.05l.08-.08Z"/><polygon class="cls-37" points="16.7 15.59 16.55 15.74 16.37 15.56 16.53 15.42 16.7 15.59 16.7 15.59"/><path class="cls-6" d="M16.11,16.11a.43.43,0,0,1,.47-.12.41.41,0,0,1-.12.47l-.35-.35Z"/><path class="cls-38" d="M16.26,15.67l-.31.24.18.18a.34.34,0,0,1,.44-.08.37.37,0,0,1-.09.43l.18.18.24-.31-.64-.64Z"/><path class="cls-39" d="M15.94,15.9l.73.73a0,0,0,0,1,0,.06h0a0,0,0,0,1-.06,0L15.87,16a0,0,0,0,1,0-.06h0a0,0,0,0,1,.06,0Z"/><path class="cls-40" d="M16.21,16.17a.28.28,0,0,1,.28-.09.3.3,0,0,1-.09.29l-.19-.2Z"/><path class="cls-26" d="M16.34,15.53l.7.7a0,0,0,0,1,0,.06h0a0,0,0,0,1-.05,0l-.7-.7a0,0,0,0,1,0-.05h0a0,0,0,0,1,.05,0Z"/><path class="cls-26" d="M16.3,15.61l.66.66s0,0,0,.06h0a0,0,0,0,1-.06,0l-.66-.67a0,0,0,0,1,0-.06h0s0,0,.06,0Z"/><path class="cls-16" d="M16.86,15.66s.07,0,0,0l-.07.07,0,0,.06-.07Z"/><path class="cls-16" d="M17,16s.07,0,0,0l-.05.05,0,0,0,0Z"/><path class="cls-16" d="M16.54,15.53s.06,0,0,0l-.05,0,0,0,.05-.05Z"/><path class="cls-27" d="M17.12,12.41h.08v.05h.05v-.05h.08v.05h.05v-.05h.08v.12a0,0,0,0,1,0,0h-.27s0,0,0,0v-.12Z"/><polygon class="cls-25" points="17.4 12.57 17.42 12.96 17.16 12.96 17.18 12.57 17.4 12.57 17.4 12.57"/><path class="cls-27" d="M17.45,12.6h.07v.05h.05V12.6h.08v.05h.05V12.6h.07v.12a0,0,0,0,1,0,0h-.26a0,0,0,0,1,0,0V12.6Z"/><polygon class="cls-27" points="17.73 12.75 17.74 12.96 17.48 12.96 17.49 12.75 17.73 12.75 17.73 12.75"/><path class="cls-27" d="M16.8,12.6h.08v.05h.05V12.6H17v.05h.06V12.6h.07v.12a0,0,0,0,1,0,0h-.26s0,0,0,0V12.6Z"/><polygon class="cls-27" points="17.08 12.75 17.09 12.96 16.84 12.96 16.85 12.75 17.08 12.75 17.08 12.75"/><path class="cls-6" d="M17,13.53a.41.41,0,0,1,.25-.41.41.41,0,0,1,.25.42Z"/><path class="cls-23" d="M16.83,13.12l0,.39H17a.35.35,0,0,1,.25-.37.37.37,0,0,1,.25.37h.25l-.05-.39Z"/><path class="cls-24" d="M16.78,13.51h1s0,0,0,.05h0s0,0,0,0h-1s0,0,0,0h0s0-.05,0-.05Z"/><path class="cls-25" d="M17.15,13.51a.27.27,0,0,1,.14-.26.27.27,0,0,1,.14.26Z"/><path class="cls-26" d="M16.8,13h1a0,0,0,0,1,0,0h0a0,0,0,0,1,0,0h-1a0,0,0,0,1,0,0h0a0,0,0,0,1,0,0Z"/><path class="cls-26" d="M16.82,13.05h.94a0,0,0,0,1,0,0h0a0,0,0,0,1,0,.05h-.94a0,0,0,0,1,0-.05h0a0,0,0,0,1,0,0Z"/><path class="cls-16" d="M17.26,12.7a0,0,0,0,1,.06,0v.09h-.06V12.7Z"/><path class="cls-16" d="M17.59,12.83s.05,0,.05,0v.07h-.05v-.07Z"/><path class="cls-16" d="M16.94,12.83s0,0,0,0v.07h0v-.07Z"/><path class="cls-37" d="M11.89,15.6l0,0,0,0,0,0,0,0,0,0,0,0,0,0,0,0,0-.06.09.09a0,0,0,0,1,0,.05l-.19.19h0l-.08-.09Z"/><polygon class="cls-25" points="12.2 15.52 12.49 15.78 12.3 15.97 12.04 15.68 12.2 15.52 12.2 15.52"/><path class="cls-37" d="M12.25,15.51l.05,0,0,0,0,0,0,0,.05-.05,0,0,0,0,0,0,.05-.05.09.08a0,0,0,0,1,0,.05l-.19.18s0,0,0,0l-.09-.08Z"/><polygon class="cls-37" points="12.56 15.42 12.71 15.56 12.54 15.74 12.39 15.58 12.56 15.42 12.56 15.42"/><path class="cls-37" d="M11.8,16l0-.05,0,0,0,0,0,0,0,0,0,0,0,0,0,0,0,0,.09.09a0,0,0,0,1,0,0l-.18.19h0L11.8,16Z"/><polygon class="cls-37" points="12.1 15.87 12.26 16.02 12.08 16.19 11.94 16.04 12.1 15.87 12.1 15.87"/><path class="cls-6" d="M12.62,16.46a.41.41,0,0,1-.11-.47.41.41,0,0,1,.47.11l-.36.36Z"/><path class="cls-38" d="M12.19,16.31l.24.3.18-.17a.36.36,0,0,1-.09-.44.38.38,0,0,1,.44.09l.18-.18-.31-.24-.64.64Z"/><path class="cls-41" d="M12.42,16.63l.73-.73a0,0,0,0,1,.06,0h0s0,0,0,.06l-.73.72a0,0,0,0,1-.06,0h0a0,0,0,0,1,0-.06Z"/><path class="cls-42" d="M12.68,16.36a.26.26,0,0,1-.08-.28.26.26,0,0,1,.28.08l-.2.2Z"/><path class="cls-26" d="M12.05,16.23l.7-.7s0,0,.05,0h0a0,0,0,0,1,0,.06l-.7.7a0,0,0,0,1-.06,0h0a0,0,0,0,1,0-.05Z"/><path class="cls-26" d="M12.13,16.27l.66-.66a0,0,0,0,1,.06,0h0s0,0,0,.06l-.66.66s0,0-.06,0h0a0,0,0,0,1,0-.06Z"/><path class="cls-16" d="M12.19,15.7a0,0,0,1,1,0,0l.06.07,0,0-.07-.06Z"/><path class="cls-16" d="M12.51,15.57s0-.07,0,0l0,.05,0,0-.05,0Z"/><path class="cls-16" d="M12.06,16s0-.06,0,0l.05,0,0,0,0-.05Z"/></g></g></g></svg>