<svg xmlns="http://www.w3.org/2000/svg" xmlns:xlink="http://www.w3.org/1999/xlink" viewBox="0 0 38.17 26.98"><defs><style>.cls-1,.cls-2{fill:none;}.cls-2{stroke:#fff;stroke-miterlimit:10;stroke-width:3px;}.cls-3{clip-path:url(#clip-path);}.cls-4{fill:#24892b;}.cls-5{fill:#fcfcfc;}</style><clipPath id="clip-path"><circle class="cls-1" cx="19.09" cy="13.49" r="11.99"/></clipPath></defs><title>saudi-arabia</title><g id="Layer_2" data-name="Layer 2"><g id="OBJECTS"><circle class="cls-2" cx="19.09" cy="13.49" r="11.99"/><g class="cls-3"><rect class="cls-4" y="1" width="38.17" height="24.48"/></g><path class="cls-5" d="M10.61,8.88s0,0,.09.08.17,1,.34,1c0,0,0,.09.18-.67s.47-.6.47-.6a1.75,1.75,0,0,1,.14,1s0,.31.17.28,0-.82,0-.85-.27-1-.05-1.07.34.09.36.71.07,1.07.25,1-.2-.5-.18-.91.12-.41.12-.41.24-.08.37.47,0,.59,0,.59a2.41,2.41,0,0,0,.32.31c.11.07.31,0,.16-.36s-.41-.84-.19-1,.45.21.52.36.07.24,0,.19.31.78,0,1.17-.58.24-.58.24-.33-.32-.46-.22,0,1.07,0,1.07.11.83-.33,1l0-1.41a.23.23,0,0,0-.22-.19c-.21,0-.42-.08-.42-.37s0-.83,0-.83-.12-.3-.18.08-.08,1-.36,1S10.57,9.84,10.61,8.88Z"/><path class="cls-5" d="M11,7.93c-.12,0,0,.2.06.38a.63.63,0,0,1,.07.44c0,.1.13,0,.18-.16S11.31,7.88,11,7.93Z"/><path class="cls-5" d="M12.61,8c.09,0,.12.19.17.19s0-.19.11-.19,0,.18.11.18.05-.19.14-.18.13.51-.26.49S12.52,8,12.61,8Z"/><path class="cls-5" d="M18.19,10.36c.09,0,.11.19.17.19s0-.2.11-.2,0,.18.11.18,0-.18.13-.18.13.52-.25.5S18.09,10.37,18.19,10.36Z"/><path class="cls-5" d="M21.44,9.43c.1,0,.12.19.17.19s0-.2.11-.2,0,.18.11.18.05-.18.14-.18.13.52-.25.5S21.35,9.44,21.44,9.43Z"/><path class="cls-5" d="M12,11.57a1.06,1.06,0,0,0-.23,1c.12.7,1,.59,1,.59a1.47,1.47,0,0,0,1-.79c.34-.69.14-.79.33-.81s-.07.82-.1.87-.52,1-1.27,1-.85-.15-1-.5,0-.69-.13-.68-.22.55-.19.78a1,1,0,0,0,1.11,1,2.12,2.12,0,0,0,1.85-1.28,2.55,2.55,0,0,0,.05-1.2s0-.09.18,0,.29-.14.55-.18.18.11.35.08a.44.44,0,0,0,.42-.46c0-.34,0-.5,0-.5a.17.17,0,0,0-.19,0c-.07.08,0,.35-.11.37s-.17-.27-.3-.28S15,11,14.81,11s0-.37-.21-.39-.17.2-.21.1-.22-1.67-.22-1.67h.29l-.32-.77S14,8,13.85,8.06s-.17.43-.15.5.29,1.91.29,1.91.1.44,0,.49-.25-.31-.47-.33-.74.14-.74.59.22.59.36.61.47-.28.51-.23-.26.91-.89,1-.69-.39-.71-.66S12,11.49,12,11.57Z"/><path class="cls-5" d="M14.56,9.55h.54L16,8.69l-.27-.2s-.18-.12-.11-.19.21.15.21.15a.11.11,0,0,0,.15-.09c0-.14,0-.33-.29-.31s-.32.23-.18.44l0,0c.17.23.09.11.09.11Z"/><path class="cls-5" d="M15.54,9.43c.08,0-.06.29,0,.35s.3-.08.35,0-.21.4-.36.36-.3-.18-.27-.33A.39.39,0,0,1,15.54,9.43Z"/><path class="cls-5" d="M16.15,8.43c0-.06.18.06.22.37s.09.76.25.75.28-.8.37-.94.23-.33.36-.33.21.63.2.93a.43.43,0,0,0,.37.49c.17,0,.4-.39.37-.71s-.2-.66-.14-.81.1-.38.23-.39.31.35.29.67-.11,1.23.32,1.18,0-.71-.13-1.11a.42.42,0,0,1,.26-.59.78.78,0,0,1,.5.51c.09.32,0,.14-.14.14s-.08.08,0,.31.07.42.18.48.27.12.33,0,.24-.13.19,0-.13.51-.29.54-.18-.14-.13-.24-.1-.08-.18,0-.15.41-.51.42-.33-.39-.55-.36-.46.41-.72.43a.54.54,0,0,1-.55-.37c0-.19.07-.69,0-.73s-.2.92-.5.91-.58-.41-.61-.68A4.22,4.22,0,0,1,16.15,8.43Z"/><path class="cls-5" d="M16.82,7.79c.1,0-.1.21-.13.27s-.09.09-.05.18.16,0,.2.06-.09.22-.21.19a.28.28,0,0,1-.19-.35A.72.72,0,0,1,16.82,7.79Z"/><path class="cls-5" d="M17.7,8.14c0,.13-.07.41,0,.46s.18-.09.24-.29.14-.44,0-.47S17.7,8.14,17.7,8.14Z"/><path class="cls-5" d="M15,11.71c-.1,0,0,.23.09.33s0,.45.06.46.19-.14.18-.31S15.27,11.71,15,11.71Z"/><path class="cls-5" d="M20.84,11.77s-1.63,0-1.63,0-.18,0-.17-.06.55-.14.73-.26.47-.36.46-.6-.13-.69-.5-.7-.61.34-.59.92a3.5,3.5,0,0,0-.82.26c-.15.12-.47.27-.5.44s-.09.09-.09.09-.09-.65-.12-.82a3.81,3.81,0,0,0-.2-.55c0-.1-.14-.44-.3-.34s-.18.41,0,.81a2.82,2.82,0,0,1,.24,1.2,1.56,1.56,0,0,1-.43.74c-.2.19-.5.47-.66.48s-.49,0-.44-.23.56-.48.69-.65a1.48,1.48,0,0,0,.35-.79,1.47,1.47,0,0,0-.18-.7c-.05,0,0-.1.1,0s.15,0,.08-.14-.28-.57-.51-.44a.46.46,0,0,0-.17.57c.06.17.36.33.35.58a1.19,1.19,0,0,1-.55.78l-.27.19s.12-.44,0-.43a2.82,2.82,0,0,0-.29.56,6.37,6.37,0,0,1-1.07.75s-.56.39-.53.46a2.86,2.86,0,0,0,1-.26c.14-.09.43-.24.48-.2s.26.61.66.58a2.45,2.45,0,0,0,1.23-.78c.13-.2.23-.32.31-.31s.44.47.59.58,1.2.4,1.26.18-.3-.39-.36-.44-.27-.09-.23-.22.29-.34.79-.35a2.6,2.6,0,0,0,.9-.18c.09,0,.1-.26.19-.37S20.88,11.8,20.84,11.77Zm-1.33-1.06c.14,0,.28.19.24.26s-.18-.06-.24-.12S19.43,10.71,19.51,10.71Zm-.62,1.62c-.2.19-.38.21-.44.33s.08.41-.08.4-.23-.16-.37-.32a.75.75,0,0,1-.13-.59c.05-.14.19,0,.48,0S19,12.24,18.89,12.33Z"/><path class="cls-5" d="M11.28,11.06a2.75,2.75,0,0,0-.63.65c0,.1.13,0,.31,0l.89-.43s.27-.07.25-.18S11.78,10.74,11.28,11.06Z"/><path class="cls-5" d="M10.73,12.42s0,.27,0,.45-.06.51,0,.56.28-.24.33-.17,0,.67-.26.64-.41-.34-.34-.62S10.59,12.45,10.73,12.42Z"/><path class="cls-5" d="M19.66,13.28c0,.09.22,0,.27.08s-.08.2,0,.28.37-.05.48-.07.34-.09.31-.18-.17-.11-.24-.11-.14.15-.23.14-.16,0-.12-.14.06-.22,0-.27S19.69,13.13,19.66,13.28Z"/><path class="cls-5" d="M20.47,8.45l-.42-.39s-.25-.33-.35-.15a.84.84,0,0,0,.11.78c.17.24,1.07,1.44,1.07,1.44v3.15a.56.56,0,0,0,.44-.44,10.77,10.77,0,0,0,0-2l1,1.76.06-.78L21.25,10l-.14-.81s0-.12.06-.12.12.1.12,0a8,8,0,0,0-.44-.92s-.1-.26-.22-.19S20.59,8.56,20.47,8.45Z"/><path class="cls-5" d="M20.51,8.69s-.15,0-.06.13.18.26.18.14S20.55,8.68,20.51,8.69Z"/><path class="cls-5" d="M21.44,8.06c-.09,0-.07.21,0,.28s.25.25.23.4-.12.23-.05.28.19-.17.21-.3a.79.79,0,0,0-.07-.5C21.67,8.11,21.56,8,21.44,8.06Z"/><path class="cls-5" d="M22.3,8c0-.06.43.7.44.74s.11.14,0,.2a.29.29,0,0,0-.16.24c0,.11.2,1.5.21,1.76s0,1.47,0,1.69a2.1,2.1,0,0,1-.56,1c-.27.27-.87.56-1.08.15,0,0-.09,0,.23-.2a7.89,7.89,0,0,0,1.12-.91L22.39,11s-.21-1.85-.22-2A3.57,3.57,0,0,1,22.3,8Z"/><path class="cls-5" d="M23.38,9.14c0-.1,0-.17.15-.24s0-.16,0-.2-.42-.79-.46-.73A3.49,3.49,0,0,0,23,9c0,.05.18.92.27,1.84.12,1.07.16,2.22.16,2.22a.55.55,0,0,0,.33-.47c.05-.36-.28-3-.28-3Z"/><path class="cls-5" d="M24,9.76c-.09.08,0,.26.11.48a1.22,1.22,0,0,0,.48.4,2.05,2.05,0,0,0,0-.51c0-.16.06-.24.08-.21s.17.05.18,0a1.22,1.22,0,0,0-.1-.34s-.16-.2-.24-.09,0,.33-.14.43S24.11,9.64,24,9.76Z"/><path class="cls-5" d="M25,10.64s-.8.57-.81.6a.38.38,0,0,0-.09.22c0,.1.12.21.18.13s.79-.6.79-.6a.38.38,0,0,0,.06-.14C25.13,10.79,25.09,10.57,25,10.64Z"/><path class="cls-5" d="M24.88,11.27c-.09.06-.07.3,0,.39s.11.23.1.31a1.26,1.26,0,0,0,0,.34s.22,0,.22-.52S24.88,11.27,24.88,11.27Z"/><path class="cls-5" d="M26.57,8.54c-.09,0-.13.23,0,.45s.18.27.13.43a.49.49,0,0,0,0,.25s.22-.1.18-.57S26.67,8.53,26.57,8.54Z"/><path class="cls-5" d="M23.17,12.31s0,.63.08.76.06.36.28.36.44-.56.49-.68.2-.55.35-.55.46.58.76.58.22-.44.23-.67-.12-2.24-.12-2.24l-.91-1.21a3.19,3.19,0,0,1,0-.69,3.94,3.94,0,0,1,.64.57s0,.05-.06.08,0,.08,0,.11a1.77,1.77,0,0,0,.18.15l0-.75S25,8,25.13,8a5,5,0,0,1,.59.88s0,.15-.08.12-.13-.07-.14,0,.05.65.05.65l.53.74-.33-2.13S25.78,8,26,8s.31.38.38.63.15.36.1.43-.13,0-.14,0,.25,2,.25,2l.74,1.07,0,.72L26.66,12v.54a2.7,2.7,0,0,1-.37.49,10.28,10.28,0,0,1-.09-1.8,2.71,2.71,0,0,0-.42-.57s0,1.68,0,1.68l0,.38s-.16.67-.56.67-.55-.52-.79-.49-.31,1.18-.68,1.14a.94.94,0,0,1-.7-.64C23,13.15,22.94,12.31,23.17,12.31Z"/><path class="cls-5" d="M26,13.22s-.25,0-.25.11.19.16.19.21-.25.29-.19.36.26,0,.34-.09.26-.07.24-.15-.24-.07-.24-.14.11-.18.1-.24S26,13.22,26,13.22Z"/><path class="cls-5" d="M27.35,12.86a2.54,2.54,0,0,1-.48.63c-.16.08-.7.31-.66.41a1.11,1.11,0,0,0,1-.07,1.71,1.71,0,0,0,.46-.88s0-1.42,0-1.74-.18-1.85-.24-2.07,0-.23.06-.24.2,0,.19-.08a6.49,6.49,0,0,0-.43-.69S27.2,8,27.15,8s-.15.18-.13.47.32,3.07.32,3.07A9.48,9.48,0,0,1,27.35,12.86Z"/><path class="cls-5" d="M25.36,18.74c-.1-.12-.41,0-.41,0h-1.3l.07-.19c.05-.11,0-.15-.13-.2s-.05-.15-.15-.15-.15.15-.17.24.17.3.17.3l-10.53-.12c.75.66,1.23.61,1.23.61h9.22a2.91,2.91,0,0,0,0,.33c0,.11.12.36.28.36s.11-.21.11-.21H25s0,.18.25.21.42-.45.42-.58A1.39,1.39,0,0,0,25.36,18.74Zm-.58.77h-.23c-.05,0,0-.1-.2-.11a.14.14,0,0,0-.18.11h-.38c-.2,0-.26-.24-.17-.23h1.21s.15,0,.15.12S24.82,19.52,24.78,19.51Z"/></g></g></svg>