<svg xmlns="http://www.w3.org/2000/svg" xmlns:xlink="http://www.w3.org/1999/xlink" viewBox="0 0 27.91 26.98"><defs><style>.cls-1,.cls-2{fill:none;}.cls-2{stroke:#fff;stroke-miterlimit:10;stroke-width:3px;}.cls-3{clip-path:url(#clip-path);}.cls-4{clip-path:url(#clip-path-2);}.cls-5{fill:#fff;}.cls-6{fill:#b50037;}.cls-7{fill:#1e3476;}</style><clipPath id="clip-path"><circle class="cls-1" cx="13.96" cy="13.49" r="11.99" transform="translate(-4.12 6.42) rotate(-22.67)"/></clipPath><clipPath id="clip-path-2"><rect class="cls-1" y="2.65" width="27.91" height="21.68"/></clipPath></defs><title>south-korea</title><g id="Layer_2" data-name="Layer 2"><g id="OBJECTS"><circle class="cls-2" cx="13.96" cy="13.49" r="11.99" transform="translate(-1.07 1.2) rotate(-4.74)"/><g class="cls-3"><g class="cls-4"><rect class="cls-5" y="2.65" width="27.91" height="21.68"/><rect x="18.37" y="8.05" width="0.68" height="1.87" transform="translate(-1.84 11.87) rotate(-33.64)"/><rect x="19.59" y="9.89" width="0.68" height="1.87" transform="translate(-2.65 12.89) rotate(-33.74)"/><rect x="19.83" y="7.3" width="0.68" height="4.07" transform="translate(-1.79 12.75) rotate(-33.68)"/><rect x="20.06" y="6.92" width="0.68" height="1.87" transform="matrix(0.83, -0.55, 0.55, 0.83, -0.93, 12.62)"/><polygon points="21.39 8.73 22.42 10.28 21.86 10.66 20.82 9.1 21.39 8.73"/><rect x="8.25" y="15.02" width="0.68" height="4.07" transform="translate(-8.02 7.63) rotate(-33.7)"/><rect x="6.8" y="15.77" width="0.68" height="1.86" transform="translate(-8.06 6.76) rotate(-33.69)"/><polygon points="8.12 17.57 9.16 19.12 8.59 19.5 7.56 17.95 8.12 17.57"/><rect x="6.56" y="16.15" width="0.68" height="4.07" transform="translate(-8.93 6.88) rotate(-33.68)"/><rect x="6.56" y="9.56" width="4.07" height="0.68" transform="translate(-4.41 11.56) rotate(-56.32)"/><rect x="5.71" y="9" width="4.07" height="0.68" transform="translate(-4.32 10.61) rotate(-56.32)"/><rect x="4.86" y="8.43" width="4.07" height="0.68" transform="translate(-4.23 9.66) rotate(-56.35)"/><rect x="17.78" y="17.63" width="1.86" height="0.68" transform="translate(-6.62 23.55) rotate(-56.27)"/><rect x="19" y="15.8" width="1.87" height="0.68" transform="translate(-4.54 23.79) rotate(-56.36)"/><rect x="18.62" y="18.2" width="1.87" height="0.68" transform="translate(-6.71 24.53) rotate(-56.32)"/><rect x="19.85" y="16.36" width="1.86" height="0.68" transform="translate(-4.65 24.7) rotate(-56.25)"/><rect x="19.47" y="18.76" width="1.87" height="0.68" transform="translate(-6.81 25.45) rotate(-56.25)"/><rect x="20.69" y="16.93" width="1.86" height="0.68" transform="matrix(0.55, -0.83, 0.83, 0.55, -4.73, 25.7)"/><g class="cls-4"><path class="cls-6" d="M10.57,11.22a.16.16,0,0,0,0,.07.16.16,0,0,1,0-.07"/><path class="cls-6" d="M16.22,10.09a4.07,4.07,0,0,0-5.65,1.13A2,2,0,0,0,14,13.48a2,2,0,1,1,3.38,2.26,4.07,4.07,0,0,0-1.12-5.65"/><path class="cls-7" d="M10.57,11.22A2,2,0,0,0,14,13.48a2,2,0,1,1,3.38,2.26,4.07,4.07,0,1,1-6.77-4.52"/></g></g></g></g></g></svg>