<svg xmlns="http://www.w3.org/2000/svg" xmlns:xlink="http://www.w3.org/1999/xlink" viewBox="0 0 35.96 26.98"><defs><style>.cls-1,.cls-2,.cls-21{fill:none;}.cls-2{stroke:#fff;stroke-miterlimit:10;stroke-width:3px;}.cls-3{clip-path:url(#clip-path);}.cls-4{fill:#ec1c24;}.cls-10,.cls-11,.cls-12,.cls-13,.cls-14,.cls-15,.cls-16,.cls-18,.cls-19,.cls-20,.cls-4,.cls-5,.cls-6,.cls-7,.cls-8,.cls-9{fill-rule:evenodd;}.cls-18,.cls-5{fill:#ffca05;}.cls-14,.cls-6{fill:#00adee;}.cls-15,.cls-18,.cls-19,.cls-21,.cls-6,.cls-7{stroke:#231f20;stroke-miterlimit:2.61;}.cls-15,.cls-18,.cls-19,.cls-6,.cls-7{stroke-width:0.04px;}.cls-12,.cls-7{fill:#c5c7c9;}.cls-17,.cls-8{fill:#231f20;}.cls-9{fill:#f399c0;}.cls-10{fill:#a60e13;}.cls-11{fill:#00a551;}.cls-13,.cls-19{fill:#fff100;}.cls-15,.cls-20{fill:#fff;}.cls-16{fill:#00bcf1;}.cls-21{stroke-width:0.1px;}</style><clipPath id="clip-path"><circle class="cls-1" cx="15.47" cy="13.49" r="11.99"/></clipPath></defs><title>spain</title><g id="Layer_2" data-name="Layer 2"><g id="OBJECTS"><circle class="cls-2" cx="15.47" cy="13.49" r="11.99"/><g class="cls-3"><polygon class="cls-4" points="35.91 25.55 35.91 1.42 0.05 1.42 0.05 25.55 35.91 25.55 35.91 25.55"/><polygon class="cls-5" points="35.91 19.38 35.91 7.6 0.05 7.6 0.05 19.38 35.91 19.38 35.91 19.38"/><path class="cls-6" d="M7.56,18.24a.21.21,0,0,0,.11.05c.07,0,.3-.14.45-.09s.16.15.31.12.18-.07.32-.12.38.1.45.09a.21.21,0,0,0,.11-.05v-.1a.16.16,0,0,1-.11,0c-.07,0-.3-.13-.45-.08s-.2.16-.32.12-.17-.07-.31-.12-.38.09-.45.08a.16.16,0,0,1-.11,0v.1Z"/><path class="cls-7" d="M7.56,18.35a.26.26,0,0,0,.11,0c.07,0,.3-.14.45-.09s.16.15.31.13.18-.08.32-.13.38.1.45.09a.26.26,0,0,0,.11,0v-.11a.21.21,0,0,1-.11.05c-.07,0-.3-.14-.45-.09s-.2.16-.32.12-.17-.07-.31-.12-.38.09-.45.09a.21.21,0,0,1-.11-.05v.11Z"/><path class="cls-6" d="M7.56,18.45a.16.16,0,0,0,.11,0c.07,0,.3-.13.45-.08s.16.14.31.12.18-.07.32-.12.38.09.45.08a.16.16,0,0,0,.11,0v-.11a.21.21,0,0,1-.11.05c-.07,0-.3-.14-.45-.09s-.2.16-.32.12-.17-.07-.31-.12-.38.09-.45.09a.21.21,0,0,1-.11-.05v.11Z"/><path class="cls-7" d="M7.56,18.55a.16.16,0,0,0,.11,0c.07,0,.3-.13.45-.08s.16.15.31.12.18-.07.32-.12.38.09.45.08a.16.16,0,0,0,.11,0v-.1a.26.26,0,0,1-.11,0c-.07,0-.3-.14-.45-.09s-.2.16-.32.13-.17-.08-.31-.13-.38.1-.45.09a.26.26,0,0,1-.11,0v.1Z"/><path class="cls-6" d="M7.56,18.65a.21.21,0,0,0,.11.05c.07,0,.3-.14.45-.09s.16.15.31.12.18-.07.32-.12.38.09.45.09a.21.21,0,0,0,.11-.05v-.1a.26.26,0,0,1-.11,0c-.07,0-.3-.14-.45-.08s-.2.15-.32.12-.17-.07-.31-.12-.38.09-.45.08a.26.26,0,0,1-.11,0v.1Z"/><path class="cls-6" d="M15,18.24a.21.21,0,0,0,.11.05c.07,0,.3-.14.45-.09s.16.15.32.12.17-.07.31-.12.38.1.45.09a.21.21,0,0,0,.11-.05v-.1a.16.16,0,0,1-.11,0c-.07,0-.3-.13-.45-.08s-.2.16-.31.12-.18-.07-.32-.12-.38.09-.45.08a.16.16,0,0,1-.11,0v.1Z"/><path class="cls-7" d="M15,18.35a.26.26,0,0,0,.11,0c.07,0,.3-.14.45-.09s.16.15.32.13.17-.08.31-.13.38.1.45.09a.26.26,0,0,0,.11,0v-.11a.21.21,0,0,1-.11.05c-.07,0-.3-.14-.45-.09s-.2.16-.31.12-.18-.07-.32-.12-.38.09-.45.09a.21.21,0,0,1-.11-.05v.11Z"/><path class="cls-6" d="M15,18.45a.16.16,0,0,0,.11,0c.07,0,.3-.13.45-.08s.16.14.32.12.17-.07.31-.12.38.09.45.08a.16.16,0,0,0,.11,0v-.11a.21.21,0,0,1-.11.05c-.07,0-.3-.14-.45-.09s-.2.16-.31.12-.18-.07-.32-.12-.38.09-.45.09a.21.21,0,0,1-.11-.05v.11Z"/><path class="cls-7" d="M15,18.55a.16.16,0,0,0,.11,0c.07,0,.3-.13.45-.08s.16.15.32.12.17-.07.31-.12.38.09.45.08a.16.16,0,0,0,.11,0v-.1a.26.26,0,0,1-.11,0c-.07,0-.3-.14-.45-.09s-.2.16-.31.13-.18-.08-.32-.13-.38.1-.45.09a.26.26,0,0,1-.11,0v.1Z"/><path class="cls-6" d="M15,18.65a.21.21,0,0,0,.11.05c.07,0,.3-.14.45-.09s.16.15.32.12.17-.07.31-.12.38.09.45.09a.21.21,0,0,0,.11-.05v-.1a.26.26,0,0,1-.11,0c-.07,0-.3-.14-.45-.08s-.2.15-.31.12-.18-.07-.32-.12-.38.09-.45.08a.26.26,0,0,1-.11,0v.1Z"/><path class="cls-8" d="M16.28,17.6h.21v.49H15.21v-.45h.23l.06,0a.2.2,0,0,0,0-.11l-.05,0c.05-.5,0-.95,0-1.45-.16-.11-.41-.2-.5-.41a2.17,2.17,0,0,0,.13-.56c.09-.22.52,0,.34-.32v0a3.85,3.85,0,0,0-.67.09,19.16,19.16,0,0,1-.17,3.06c-.2.54-.79.71-1.29.85a4.06,4.06,0,0,1-3-.27c-1-.44-.73-2.81-.7-3.65a1.61,1.61,0,0,0-.7-.09.37.37,0,0,0,0,.31.37.37,0,0,1,.36.17c0,.19.11.48-.06.58a1.85,1.85,0,0,0-.32.25l0,1.57h.21v.49H7.8v-.45h.26c0-.23,0-.4,0-.57s0-.57,0-.62S8,16.4,8,16.48s.08.09.08.12a.77.77,0,0,1,0,.32l-.17-.12a1,1,0,0,1-.2-.71l.42-.31v-.54c-.15-.07-.37.12-.41-.12s0-.49,0-.49l.44-.32,0-1.05s0-.18-.09-.23-.1,0-.12-.09v-.36l.27,0c-.08-.15-.24-.28-.18-.48s.28-.24.48-.24a1.42,1.42,0,0,1,0-.2c.12-.08.14.12.15.21.16,0,.33,0,.43.14s.08,0,.08.33a.29.29,0,0,0-.09.21s.11,0,.15.06,0,.3-.05.41c-.27-.06-.13.24-.22.35v.76c.2.05.45,0,.65.07h.05c0-.57,0-1.09.06-1.67a6,6,0,0,0,1,.06.16.16,0,0,0-.16-.06l-.14-.58c-.22-.12-.55-.19-.6-.47-.07-.06-.16,0-.24-.06a.25.25,0,0,1,.1-.17.74.74,0,0,1-.13-.74,1.23,1.23,0,0,1,.83-.66.91.91,0,0,1,.49.07,1.33,1.33,0,0,1,1.24-.11l0-.09a.33.33,0,0,1,0-.64V8.92H12V8.79h.18V8.61h.14v.18h.17v.13h-.18V9a.34.34,0,0,1,.27.33.33.33,0,0,1-.27.32l.06.08a1.28,1.28,0,0,1,1.27.14,1.11,1.11,0,0,1,1.22.61,1,1,0,0,1-.09.65s.13,0,.13.06-.27.13-.26.28-.31.21-.44.34L14,11.9c0,.17,0,.48-.13.59l.79,0a17,17,0,0,1,.09,1.76,3.37,3.37,0,0,0,.7,0c0-.35,0-.77,0-1.09-.26,0-.17-.28-.16-.44s.12,0,.19,0c-.11-.15-.35-.3-.23-.55,0-.09.14-.1.21-.07s.13-.08.21-.08.07,0,.1,0,0-.15.06-.19.07.1.08.16c.2-.06.22.18.4,0s.1.05.13.1c.06.23-.15.36-.14.57s.13,0,.18,0,0,.37-.15.43.06.26-.07.31c0,.32,0,.64,0,.92a3.51,3.51,0,0,0,.65.37c0,.16-.09.34-.1.51a6,6,0,0,1-.52.36c0,.2.1.29.22.37l.34.25-.06.59c-.11.08-.2.3-.24.34s-.11-.14-.14-.29.13-.17.12-.23-.2-.08-.22-.1c-.05.17,0,.73,0,.91,0,0,0,.08,0,.1s0,.13,0,.13ZM11.6,9.81a.76.76,0,0,0-.58.29.71.71,0,0,0,.1.37.92.92,0,0,1,.74-.14L12,10c0-.13-.25-.1-.39-.15Zm.87.12c.09.09,0,.25.11.36a.89.89,0,0,1,.78.16l.05-.11a.46.46,0,0,0,0-.41.93.93,0,0,0-.9,0Zm-2.56.55c-.11.09,0,.24.08.26a1.26,1.26,0,0,1,.2-.2.55.55,0,0,1,.45,0,1,1,0,0,1,.14-.48,1,1,0,0,0-.87.47Zm3.89-.42c.11.13,0,.31,0,.44a.86.86,0,0,1,.74.19v-.12a.94.94,0,0,0-.79-.51Z"/><polygon class="cls-8" points="8.87 17.6 9.08 17.6 9.08 18.09 7.8 18.1 7.8 17.65 8.06 17.65 8.87 17.6 8.87 17.6"/><polygon class="cls-8" points="8.87 17.6 9.08 17.6 9.08 18.09 7.8 18.1 7.8 17.65 8.06 17.65 8.87 17.6 8.87 17.6"/><path class="cls-9" d="M12.51,10.6c-.1.07-.16-.13-.28,0s-.13,0-.14.08c-.21-.25,0-.57.1-.81.14,0,.36.31.32.76Z"/><path class="cls-5" d="M13.69,10.52a.58.58,0,0,1-.21.15c-.13-.1.1-.22.08-.35v-.26c.21.09.1.3.12.46Z"/><path class="cls-5" d="M10.87,10.21a1.65,1.65,0,0,0,.21.49.17.17,0,0,1-.15.06.43.43,0,0,1-.13-.44.26.26,0,0,1,.07-.11Z"/><path class="cls-4" d="M11.86,10.51c0,.16.18.27.19.4a.31.31,0,0,0-.28,0,.29.29,0,0,0-.1.35.37.37,0,0,0,.2.19H12a.23.23,0,0,1-.18.05l-.13-.17c-.17,0-.14.28-.32.24,0,0-.06,0-.07-.09s.14.08.21,0a.33.33,0,0,0-.11-.34c-.06,0-.09-.08-.17-.06a.58.58,0,0,1,0-.29c0-.07-.06-.09-.05-.15a.82.82,0,0,1,.67-.07Z"/><path class="cls-4" d="M13.26,10.61c0,.07.07.09.09.14s-.08.2-.16.28c0-.09-.15,0-.21,0s-.09.14-.07.23l.2.19c-.07,0-.21,0-.24-.12s0-.09-.06-.13c-.2,0-.09.43-.36.24,0,0,0,0,0-.08a.39.39,0,0,0,.32-.1.41.41,0,0,0-.17-.41c-.05,0-.17,0-.14-.06s.14-.09.19-.18v-.19c.25,0,.48,0,.64.18Z"/><path class="cls-5" d="M9.87,11.05c-.09,0-.15-.05-.17-.12-.21-.77.62-.88.66-1-.27.28-.78.27-.49,1.1Z"/><path class="cls-5" d="M14.75,11h0c0-.17,0-.38,0-.55a.6.6,0,0,1,.05.55Z"/><path class="cls-4" d="M10.74,10.78c.15.07,0,.15.06.25s-.18,0-.21.11v.17c-.11-.05-.26-.25-.43-.12L10,11.12c.07-.21.13-.46.39-.49s.33-.05.35.15Z"/><path class="cls-4" d="M14.55,10.87c.11.25-.24.2-.31.37a.47.47,0,0,0-.24,0,.28.28,0,0,0-.07.3l.1.11s-.06,0-.09,0,0-.19-.09-.25-.16.26-.34.18a.15.15,0,0,1,0-.1c.12,0,.23,0,.27-.11s-.33-.28-.13-.53.25-.26.48-.2a.73.73,0,0,1,.44.23Z"/><path class="cls-5" d="M12.35,11.1a.31.31,0,0,1,.18-.09.22.22,0,0,1,.07.19c-.12.1-.28-.11-.34.08s.05.31.21.34,0,0,.06,0-.21-.06-.31-.1-.19.12-.32.09a.35.35,0,0,0,.3-.23v-.14c-.11,0-.22,0-.34,0a.24.24,0,0,1-.06-.19c.06-.1.17,0,.23,0a.1.1,0,0,0,.12,0c.07-.1,0-.24.13-.34.07.11-.06.29.08.34Z"/><path class="cls-5" d="M11.16,11.19c.05,0,.14,0,.18,0l.05.06c-.07,0-.19,0-.22.14a.31.31,0,0,0,.17.27.77.77,0,0,0-.26-.07.19.19,0,0,0,0-.18c-.12-.07-.29.1-.38-.07s0-.1,0-.15.15.07.21,0,0-.18,0-.24l.1,0c0,.08,0,.2.07.26Z"/><path class="cls-5" d="M13.58,11.24s.05.06,0,.1h-.17a.22.22,0,0,0-.08.28c-.16,0-.45.16-.6,0v-.05c.13,0,.28.16.43.07s.14-.13.08-.21-.21-.07-.21-.19.19.16.27,0,0-.24.12-.3c.07.11-.13.4.13.38Z"/><path class="cls-5" d="M10.05,11.33s0,.08,0,.09.14-.13.25-.1.09,0,.08.09a.16.16,0,0,0-.2.14l0,.13a.8.8,0,0,1-.17-.08.74.74,0,0,0-.34-.33c.05-.13.16,0,.23,0l.05.08Z"/><path class="cls-10" d="M11.14,11.32s0,0-.07,0,0-.09,0-.14.16,0,.11.11Z"/><path class="cls-10" d="M12.28,11.2s0,0-.07,0,0-.1,0-.14.16,0,.11.11Z"/><path class="cls-10" d="M13.4,11.34s0,0-.07,0,0-.1,0-.15.16,0,.11.12Z"/><path class="cls-5" d="M14.73,11.22c-.17,0-.19.31-.36.28a.59.59,0,0,1-.28.24c.05,0,.09-.06.11-.1s-.22-.15-.12-.29.17.11.26,0,.23-.24.39-.15Z"/><path class="cls-5" d="M10.91,11.56v0c-.1.07-.19-.05-.26-.08.08,0,.15.09.26.06Z"/><path class="cls-5" d="M10.5,11.54c0,.05.05.15,0,.15s-.05-.08-.07-.13.07,0,.11,0Z"/><path class="cls-5" d="M11,11.7c-.15.23-.39-.16-.44.11.14-.15.28,0,.44-.11Z"/><path class="cls-5" d="M13.89,11.85a.49.49,0,0,0-.33-.11c.12,0,.26-.19.33.11Z"/><path class="cls-5" d="M12.26,11.8c.19.06.41-.14.57,0a6.66,6.66,0,0,1,.9,0c.32,0,.09.32.1.46s0,0,0,0a2.09,2.09,0,0,0-.79-.3.15.15,0,0,0,0-.1c-.06-.07-.16-.06-.25-.05s0,.06,0,.11l-.5,0c.05,0,.06-.05.09-.07s-.22,0-.34-.07l0,.07a.12.12,0,0,0,.15.08,4,4,0,0,0-1.44.34l-.12-.42c.16-.08.36.09.49-.08.28.11.49-.18.76,0a1,1,0,0,1,.45,0Z"/><polygon class="cls-4" points="8.48 12.07 8.24 11.95 8.48 11.96 8.48 12.07 8.48 12.07"/><path class="cls-4" d="M8.91,12a.38.38,0,0,1-.18.09V12Z"/><path class="cls-11" d="M11.51,11.94c-.08,0-.16.13-.24.05s.14-.06.19-.13.06,0,0,.08Z"/><path class="cls-5" d="M8.81,12.14s.09-.08.15-.09-.18.13-.16.23l.11.07a1.43,1.43,0,0,0-.71,0,.15.15,0,0,0,.11-.07l-.07-.25c.08,0,.14.15.24.12L8.61,12c0,.07.09.2.2.14Z"/><path class="cls-4" d="M10.85,12c0,.07,0,.1-.08.12s-.09,0-.1-.06.14-.11.18-.06Z"/><path class="cls-4" d="M8.17,12.26l0,.05c-.08-.05,0-.12,0-.2s0,.1.06.15Z"/><path class="cls-11" d="M13.64,12v.08c-.06.05-.13,0-.19,0a.06.06,0,0,1,0-.1.52.52,0,0,0,.18,0Z"/><path class="cls-4" d="M9.05,12.26l0,0s0,0,0-.06l0-.06s0,.07,0,.1Z"/><path class="cls-4" d="M13.57,12.41a9.84,9.84,0,0,1-1.74.09,5.8,5.8,0,0,1-.85-.13,3.78,3.78,0,0,1,2.59,0Z"/><path class="cls-4" d="M15.82,12.22v.06c-.08,0-.18,0-.18-.07s.06-.12.09-.15.06.11.09.16Z"/><path class="cls-4" d="M16.05,12.29H16c0-.11,0-.21.09-.25s0,.16,0,.24Z"/><path class="cls-4" d="M15.55,12.32s-.05.07-.1.06a.2.2,0,0,1,0-.26.43.43,0,0,1,.14.2Z"/><path class="cls-4" d="M16.37,12.08c0,.12-.06.18-.09.27s-.09-.11-.07-.17a.15.15,0,0,1,.16-.1Z"/><path class="cls-4" d="M8.9,12.46l-.06.07-.54,0,0-.05a1,1,0,0,1,.63,0Z"/><path class="cls-5" d="M9.09,12.68c0,.08,0,.13,0,.2L8,12.9l0-.23c.36.06.73,0,1.09,0Z"/><path class="cls-5" d="M16.24,12.53c-.22,0-.44-.17-.64,0l0,0a.86.86,0,0,1,.67,0v0Z"/><path class="cls-12" d="M13.65,12.64c-.05.11-.08.33-.25.3h-.06v.13c-.1,0-.17-.17-.26-.09s.22.23.35.28-.1.08-.16.11-.23-.08-.28-.21,0-.27-.14-.26-.22-.08-.26,0l.09.11c-.06,0-.13,0-.15.06s.05.09.08.11-.27.16-.15.31c.23-.11.38.1.55.18-.05.14-.2,0-.29.08s-.21.08-.21.2a.13.13,0,0,0,.12,0c0,.09-.07.2,0,.27s.09,0,.13-.07.08.16.18.13c0-.2.22-.23.36-.31l.23.06c-.09.06-.36.05-.24.27s-.11,0-.15.12-.17.06-.21.15,0,.07,0,.1h0l0,.09c-.11-.16-.21-.4-.42-.45l-.25-.05c0-.54-.09-1.15,0-1.68Z"/><path class="cls-12" d="M14.6,13a.07.07,0,0,0-.06-.06l-.1.1a1,1,0,0,0,0-.24s0,0,0,0a2.77,2.77,0,0,0-.12,1.34c-.07.05-.14,0-.2,0s-.15-.16-.14-.27c.16-.1-.07-.38.22-.36,0-.17-.13-.34.08-.47,0-.13-.15-.09-.2-.15s0-.07,0-.11l-.15,0-.07-.12h.82V13Z"/><polygon class="cls-5" points="16.21 12.64 15.73 12.61 15.87 12.56 16.21 12.64 16.21 12.64"/><path class="cls-5" d="M16.39,12.78v.12h-.93l0-.17a4.93,4.93,0,0,0,.94,0Z"/><path class="cls-5" d="M8.86,13.05a.25.25,0,0,1,0,.15,2.83,2.83,0,0,1-.65,0v-.12l.66,0Z"/><path class="cls-4" d="M14,13.35a.25.25,0,0,0-.17.21v0a.15.15,0,0,0-.2.09c-.07,0-.07-.16-.17-.16s-.07,0-.12,0,.25-.05.27-.22.08-.19,0-.26h-.16c.09-.05.2,0,.27-.14.15.09.33.19.32.42Z"/><path class="cls-4" d="M13,13.38c.06.11.33,0,.21.22-.18,0-.3-.22-.49-.26a.6.6,0,0,1,.14-.3.37.37,0,0,0,.14.34Z"/><path class="cls-12" d="M14.64,15.33a8.06,8.06,0,0,0-1.39.1c-.23.07-.05-.17-.13-.27s-.14-.22,0-.22,0,.23.15.18c0-.33.46-.16.34-.49l.07-.08a.79.79,0,0,0,0,.13c.07.06.25,0,.22.14a.4.4,0,0,0-.27.2c0,.05,0,.08,0,.12s.14-.08.19,0,0,.15.08.16l.11-.09a.13.13,0,0,0,.1.13c.23-.05,0-.36.24-.48s-.25-.19-.12-.44.16-.57.09-.86c.11-.16.09-.37.24-.52,0,.8,0,1.52,0,2.33Z"/><path class="cls-12" d="M8.83,14.1a4.13,4.13,0,0,0-.63.12,3.86,3.86,0,0,1,0-.9h.64v.79Z"/><path class="cls-5" d="M16.27,13.2a1.73,1.73,0,0,1-.68,0v-.11c.26,0,.43,0,.68,0v.11Z"/><path class="cls-4" d="M11.1,13.75v-.56h.09v-.35H11.1V13H11v-.14h-.1V13H10.8v-.14h-.1v.35h.06v.56h-.24v-.14h.08v-.35h-.09v.14h-.09v-.14h-.1v.14h-.1v-.14h-.11v.35h.06v.14h-.1V14h.16v.57H10v.33h1.46a1.56,1.56,0,0,0-.09.53c-.51.05-1.09,0-1.65,0,.08-.93,0-1.86.08-2.79a12.41,12.41,0,0,0,2.36,0v1.67a1.09,1.09,0,0,0-.35.11h-.17V14h.16v-.25h-.12v-.14h.08v-.35h-.11v.14h-.1v-.14h-.1v.14h-.09v-.14h-.09v.35h.07v.14Z"/><path class="cls-12" d="M16.22,13.33c0,.3,0,.63,0,.93a1.93,1.93,0,0,0-.6-.09,5.83,5.83,0,0,1,.05-.84Z"/><path class="cls-4" d="M13.68,13.88c.06,0,.05-.13.12-.14a.62.62,0,0,0,.35.51h0a.46.46,0,0,0,0,.41.26.26,0,0,0,.11.07c0,.11-.11.18-.14.29s-.08,0-.13,0A.1.1,0,0,0,14,15c0,.06.14,0,.11-.12a.2.2,0,0,0-.17-.25s-.09,0-.07-.07a.17.17,0,0,0,.08-.22.68.68,0,0,0-.54-.39c.06-.08-.06-.18.07-.22s.1.2.23.19Z"/><path class="cls-4" d="M12.89,14.1c-.08-.06-.12-.08-.13-.19s.14.07.23,0l.24-.15c.15.29-.26.16-.34.35Z"/><path class="cls-4" d="M9.66,14.28l0,.33a2.87,2.87,0,0,0-1.48.12l-.39.32a.86.86,0,0,1-.07-.36,2.36,2.36,0,0,1,1.08-.44,3.49,3.49,0,0,1,.89,0Z"/><path class="cls-4" d="M13.77,14.34c-.14.08-.31.22-.28.39-.12,0-.18.15-.29,0s.07-.09,0-.14c.12-.07.19.13.27,0l-.07-.31c.1-.06.21,0,.31,0s0,.05,0,.08Z"/><path class="cls-4" d="M16.79,14.75l0,.26a1.91,1.91,0,0,0-1.94-.29h0v-.35a2.49,2.49,0,0,1,2,.39Z"/><path class="cls-12" d="M8.81,15.41a4,4,0,0,1-.62.32v-.86a2,2,0,0,1,.62-.13v.67Z"/><path class="cls-4" d="M8.05,15.16c-.05,0-.16,0-.2,0L8,15l0,.18Z"/><path class="cls-12" d="M16.19,14.87a3.72,3.72,0,0,1,0,.75,2.61,2.61,0,0,1-.54-.21,1.77,1.77,0,0,1-.09-.68,1.06,1.06,0,0,1,.61.14Z"/><path class="cls-4" d="M9.12,15.2a.27.27,0,0,1-.16.14l0-.18a.24.24,0,0,1,.19,0Z"/><path class="cls-4" d="M16.64,15.15l-.28.22,0-.41c.09.08.22.09.3.19Z"/><path class="cls-4" d="M15.45,15.12v.14c-.07,0-.15,0-.21-.1s.18-.1.21,0Z"/><path class="cls-4" d="M8.79,15.92c-.14.08-1,.48-1,.56a.41.41,0,0,1,0-.29c.45-.35,1-.47,1.43-.83.19.33-.22.4-.38.56Z"/><path class="cls-4" d="M16.77,16.19v.44L16,16.14c-.31-.18-.68-.24-.91-.54l.06-.27a5.21,5.21,0,0,1,1.59.86Z"/><path class="cls-4" d="M10.25,15.54c0,.82,0,1.8,0,2.66-.14,0-.12-.05-.13-.27.05-.79,0-1.63,0-2.4Z"/><path class="cls-5" d="M10.56,15.54c0,1,0,1.9,0,2.86-.11,0-.22-.09-.21-.24,0-.86,0-1.74.06-2.62Z"/><path class="cls-4" d="M10.84,15.54c0,.78,0,2.68,0,2.91-.06,0-.11.06-.17,0-.07-1,0-1.95,0-2.92.06,0,.09,0,.15,0Z"/><path class="cls-5" d="M10,15.54c0,.75,0,1.7,0,2.5-.41-.41-.28-1.22-.34-1.8l.05-.7Z"/><path class="cls-5" d="M11.12,15.54c.05.94,0,1.92,0,2.84,0,0-.07,0-.11,0a27.25,27.25,0,0,1,0-2.87Z"/><path class="cls-4" d="M11.41,16c0,.79,0,1.57-.05,2.32l-.11.05c0-.92,0-1.88,0-2.8.16.07,0,.29.13.43Z"/><path class="cls-4" d="M14.63,15.5a7.94,7.94,0,0,1-.15,2.35c-.31.73-1,.53-1.39.38,0,0,.2.09.25-.06v-.08c0,.06.05.18.15.21s.28-.15.42-.08a.35.35,0,0,0,.3-.22.18.18,0,0,1,.06-.19c.25,0,0-.31.21-.36.09-.07,0-.21.11-.27s-.18-.07-.1-.21a.31.31,0,0,0,0-.31c.14-.28-.19-.56.05-.82a.2.2,0,0,0-.12-.16c-.09,0-.21,0-.24.09s0-.12,0-.14-.29-.07-.35.07-.25-.15-.39,0c-.05-.1-.19,0-.3,0,0-.28.29,0,.44-.18Z"/><path class="cls-13" d="M13.23,15.79c0,.09-.06.09-.14.09v-.1Z"/><path class="cls-13" d="M14.07,15.86s-.08.05-.13,0l0-.13c.07,0,.16,0,.15.09Z"/><path class="cls-13" d="M13.64,15.84v.05s-.06-.07-.1,0l0,.05c-.05,0-.05-.09,0-.11s.15-.05.16,0Z"/><path class="cls-13" d="M14.42,15.81s0,.1-.05.14,0,0-.07,0l0-.1Z"/><path class="cls-12" d="M8.75,17.42l-.6,0c0-.36,0-.77,0-1.11l.63-.25c0,.44,0,.88,0,1.34Z"/><path class="cls-4" d="M13.89,16c.11,0,.23,0,.29-.07s0,.13-.12.19a.18.18,0,0,0-.1-.09c-.14,0-.19.17-.25.27s.15.2,0,.28l-.08.05c0-.05,0-.17,0-.25.18-.05,0-.25.1-.33-.1-.06.06-.11.06-.18s.06.12.13.13Z"/><path class="cls-4" d="M13.31,16.15c-.09-.22-.26,0-.33-.14.11,0,.31.09.36-.08l.08.08-.11.14Z"/><path class="cls-4" d="M13,16.21s-.08.07,0,.1c.19,0,.12.32.3.18,0,0,0,.05.06.07s-.18,0-.26,0,0,.2-.2.16a.39.39,0,0,1,0-.28c.16-.05.09-.24.14-.36a.07.07,0,0,1,0,.11Z"/><path class="cls-5" d="M11.67,16.35c0,.59-.07,1.16,0,1.74l-.13.11c0-.66,0-1.36,0-2l.14.19Z"/><path class="cls-4" d="M14.36,16.16s-.07,0-.1,0,0,.31,0,.45.16-.05.18.07l-.16.06c0-.06-.05-.09-.09-.11H14c.09-.11.3-.18.19-.36h0c.06-.06.09-.25.22-.17v.08Z"/><path class="cls-12" d="M16.24,16.4a6.12,6.12,0,0,1,0,1,2.78,2.78,0,0,1-.59,0c0-.44,0-.87,0-1.34a1.7,1.7,0,0,1,.64.33Z"/><path class="cls-13" d="M13.5,16.27h-.05s0-.11,0-.1v.11Z"/><path class="cls-13" d="M13.17,16.35l0-.15c-.2.08.07.1,0,.15Z"/><path class="cls-4" d="M7.87,16.72c-.07-.07-.09-.18,0-.22l.1.15c0,.11,0,.24-.13.07Z"/><path class="cls-13" d="M12.75,16.35h-.07l.1-.08s0,.08,0,.08Z"/><path class="cls-13" d="M14,16.27c-.06,0-.06.12-.12.13s0-.11.09-.16l0,0Z"/><path class="cls-13" d="M14.47,16.48h-.14v-.18a.34.34,0,0,1,.15.19Z"/><path class="cls-4" d="M13.47,16.62a.61.61,0,0,1-.18-.24l.2,0,0,.2Z"/><path class="cls-4" d="M11.9,16.47c0,.49,0,.92,0,1.39l-.12.12a13.07,13.07,0,0,1,0-1.53l.11,0Z"/><path class="cls-4" d="M12.67,16.45c.12.22-.39.21-.18.48l.07.08c-.13,0-.12.15-.13.25s0,.15.11.17.15,0,.17.1-.16.19-.11.31a.34.34,0,0,0,.35.1c0,.09-.06.19,0,.25-.27-.2-.8-.29-.71-.76l0-.9c.12,0,.22-.11.37-.08Z"/><path class="cls-5" d="M12.14,16.53a3.3,3.3,0,0,1-.1,1.1c0-.4,0-.72,0-1.11Z"/><path class="cls-13" d="M13.8,16.73c-.05,0,0-.09,0-.13s0,.09,0,.13Z"/><polygon class="cls-13" points="13.35 16.75 13.35 16.65 13.39 16.7 13.35 16.75 13.35 16.75"/><polygon class="cls-13" points="13.2 16.84 13.09 16.84 13.09 16.68 13.2 16.69 13.2 16.84 13.2 16.84"/><path class="cls-4" d="M16.78,16.72l-.22.23s0-.14,0-.17l.08-.13a.73.73,0,0,1,.19.07Z"/><path class="cls-13" d="M12.74,16.93c0-.06-.16,0-.16-.1l0-.07c0,.09.2.06.13.17Z"/><path class="cls-4" d="M13,16.84s-.05.06,0,.11.2,0,.28,0a.21.21,0,0,0,.11-.1c.07.06,0,.13,0,.19s-.1-.06-.16,0-.12.27-.2.38l.06.08-.1.12a.26.26,0,0,1-.11-.16c.18,0,.07-.26.07-.37s0-.15,0-.24Z"/><polygon class="cls-13" points="13.97 16.89 13.98 16.79 14.12 16.86 13.97 16.89 13.97 16.89"/><path class="cls-4" d="M14.26,17c.08,0,0-.1,0-.15s.09.12.07.19-.11.07-.14.12.07.12,0,.19h0c-.05-.12-.14-.35-.29-.27l-.08.06c-.13-.06-.12-.17,0-.27,0,.31.27.07.45.13Z"/><path class="cls-4" d="M13.5,17.27c-.06,0-.09,0-.14-.09l.1-.16,0,.25Z"/><path class="cls-13" d="M12.62,17.29h0v-.17c0,.06.05.1,0,.17Z"/><path class="cls-4" d="M13.74,17.21a.2.2,0,0,1-.13.09c0-.07,0-.16,0-.21l.1.12Z"/><path class="cls-13" d="M12.76,17.3h-.09l0-.18c.05,0,.06.13.06.18Z"/><path class="cls-13" d="M13.13,17.35c0-.05,0-.12.06-.19s0,.13-.06.19Z"/><path class="cls-13" d="M14,17.33c0,.06,0,.06,0,.07s-.13-.12-.07-.19.07.08.12.12Z"/><path class="cls-13" d="M14.4,17.35c-.2-.06-.07-.14-.05-.2l.09,0,0,.18Z"/><path class="cls-5" d="M8.71,17.68l-.55,0s0-.15.07-.13.43-.1.48.11Z"/><path class="cls-4" d="M13.35,17.81h.12c.06.08,0,.14-.09.16h0c.11-.17-.15-.16-.23-.22a.32.32,0,0,0-.13.1c-.08,0,0-.06,0-.12s.1-.22.19-.17.12-.11.17-.17c0,.15-.05.29,0,.41Z"/><polygon class="cls-13" points="13.5 17.66 13.45 17.67 13.47 17.43 13.49 17.43 13.5 17.66 13.5 17.66"/><path class="cls-4" d="M13.9,17.62c.11-.12.18.06.27.08s0,.1-.06.11c-.2-.13-.19.19-.36.22,0,0,0,0,0,0s-.07-.14-.13-.19.08-.1.14-.12v-.35a.48.48,0,0,0,.17.2Z"/><path class="cls-4" d="M14.24,17.6a.24.24,0,0,1-.14-.09c.06,0,.11-.15.17,0l0,.13Z"/><path class="cls-5" d="M16.18,17.68h-.57c0-.07,0-.12,0-.14s.41,0,.52,0v.14Z"/><path class="cls-13" d="M12.83,17.69a.29.29,0,0,1-.1.12.12.12,0,0,1,0-.14s.06,0,.08,0Z"/><path class="cls-5" d="M9,18a8.68,8.68,0,0,0-1,0v-.18a8.53,8.53,0,0,1,1,0L9,18Z"/><path class="cls-5" d="M16.4,17.77a1,1,0,0,0,0,.24H15.34v-.23c.29,0,.74,0,1,0Z"/><path class="cls-13" d="M13.19,18.08h-.1V18s.1,0,.1.06Z"/><path class="cls-13" d="M14.05,18s0,.07-.06.08h0s.05-.09.1-.08Z"/><path class="cls-13" d="M13.58,18.07s0,.11,0,.12l-.11,0s.05-.16.14-.09Z"/><path class="cls-10" d="M14.49,11.59s0,0-.07,0,0-.09,0-.14.16,0,.11.11Z"/><path class="cls-10" d="M10,11.63s0,0-.07,0,0-.09,0-.14.16.05.11.12Z"/><polygon class="cls-5" points="12.18 8.64 12.26 8.64 12.26 8.81 12.42 8.81 12.42 8.89 12.26 8.89 12.26 9.38 12.52 9.38 12.52 9.46 11.94 9.46 11.94 9.37 12.18 9.37 12.18 8.89 12 8.89 12 8.81 12.18 8.81 12.18 8.64 12.18 8.64"/><path class="cls-14" d="M12.29,9.09v.25h.22a.26.26,0,0,0-.22-.25Z"/><path class="cls-14" d="M12.15,9.09v.25h-.21a.26.26,0,0,1,.21-.25Z"/><path class="cls-14" d="M12,9.48h.54s0,.15-.23.2a.31.31,0,0,1-.31-.2Z"/><path class="cls-15" d="M10.65,9.81a.1.1,0,0,0,.1-.1.1.1,0,0,0-.2,0,.1.1,0,0,0,.1.1Z"/><path class="cls-15" d="M10.41,9.82a.09.09,0,0,0,.1-.1.09.09,0,0,0-.1-.09.09.09,0,0,0-.09.09.09.09,0,0,0,.09.1Z"/><path class="cls-15" d="M10.16,9.89a.09.09,0,0,0,.1-.1.09.09,0,0,0-.1-.09.09.09,0,0,0-.09.09.09.09,0,0,0,.09.1Z"/><path class="cls-15" d="M9.93,10A.09.09,0,0,0,10,9.92a.09.09,0,0,0-.09-.1.09.09,0,0,0-.1.1.09.09,0,0,0,.1.09Z"/><path class="cls-15" d="M9.71,10.19a.1.1,0,0,0,.1-.09.1.1,0,0,0-.2,0,.1.1,0,0,0,.1.09Z"/><path class="cls-15" d="M9.57,11.28a.09.09,0,0,0,.09-.1.09.09,0,0,0-.09-.09.09.09,0,0,0-.1.09.09.09,0,0,0,.1.1Z"/><path class="cls-15" d="M9.48,11.06A.09.09,0,0,0,9.57,11a.09.09,0,0,0-.09-.1.09.09,0,0,0-.1.1.09.09,0,0,0,.1.09Z"/><path class="cls-15" d="M9.43,10.79a.09.09,0,0,0,.1-.1.09.09,0,0,0-.1-.09.09.09,0,0,0-.09.09.09.09,0,0,0,.09.1Z"/><path class="cls-15" d="M9.47,10.55a.09.09,0,0,0,.09-.09.09.09,0,0,0-.09-.1.09.09,0,0,0-.1.1.09.09,0,0,0,.1.09Z"/><path class="cls-15" d="M9.55,10.35a.09.09,0,0,0,.09-.1.09.09,0,0,0-.09-.09.09.09,0,0,0-.1.09.09.09,0,0,0,.1.1Z"/><path class="cls-15" d="M11,9.83a.1.1,0,1,0-.1-.1.11.11,0,0,0,.1.1Z"/><path class="cls-15" d="M11.18,9.75a.1.1,0,0,0,0-.2.1.1,0,1,0,0,.2Z"/><path class="cls-15" d="M11.07,12.1a.1.1,0,0,0,.1-.09.1.1,0,0,0-.2,0,.1.1,0,0,0,.1.09Z"/><path class="cls-15" d="M11.75,12a.1.1,0,0,0,.1-.1.1.1,0,0,0-.2,0,.1.1,0,0,0,.1.1Z"/><path class="cls-15" d="M12.65,12a.1.1,0,0,0,.1-.1.1.1,0,0,0-.2,0,.1.1,0,0,0,.1.1Z"/><path class="cls-15" d="M13.23,12.07a.1.1,0,0,0,.1-.09.1.1,0,0,0-.2,0,.1.1,0,0,0,.1.09Z"/><path class="cls-15" d="M11.41,9.68a.1.1,0,0,0,.1-.09.1.1,0,0,0-.2,0,.1.1,0,0,0,.1.09Z"/><path class="cls-15" d="M11.67,9.67a.1.1,0,0,0,.1-.09.1.1,0,0,0-.2,0,.1.1,0,0,0,.1.09Z"/><path class="cls-15" d="M11.91,9.72a.1.1,0,0,0,.1-.1.1.1,0,0,0-.2,0,.1.1,0,0,0,.1.1Z"/><path class="cls-15" d="M12.6,9.68a.09.09,0,0,0,.1-.09.09.09,0,0,0-.1-.1.09.09,0,0,0-.09.1.09.09,0,0,0,.09.09Z"/><path class="cls-15" d="M12.25,10.1a.09.09,0,0,0,.1-.09.09.09,0,0,0-.1-.1.09.09,0,0,0-.09.1.09.09,0,0,0,.09.09Z"/><path class="cls-15" d="M12.26,10.33a.1.1,0,0,0,0-.2.1.1,0,0,0,0,.2Z"/><path class="cls-15" d="M12.28,10.54a.09.09,0,0,0,.1-.1.09.09,0,0,0-.1-.09.09.09,0,0,0-.09.09.09.09,0,0,0,.09.1Z"/><path class="cls-15" d="M12.83,9.65a.09.09,0,0,0,.09-.1.09.09,0,0,0-.09-.09.09.09,0,0,0-.1.09.09.09,0,0,0,.1.1Z"/><path class="cls-15" d="M13.05,9.66a.09.09,0,0,0,.1-.09.09.09,0,0,0-.1-.1.09.09,0,0,0-.09.1.09.09,0,0,0,.09.09Z"/><path class="cls-15" d="M13.27,9.7a.1.1,0,1,0-.1-.1.11.11,0,0,0,.1.1Z"/><path class="cls-15" d="M13.52,9.8a.1.1,0,0,0,.09-.1.09.09,0,0,0-.09-.09.1.1,0,0,0-.1.09.11.11,0,0,0,.1.1Z"/><path class="cls-15" d="M13.76,9.89a.09.09,0,0,0,.09-.1.09.09,0,0,0-.09-.09.09.09,0,0,0-.1.09.09.09,0,0,0,.1.1Z"/><path class="cls-15" d="M14,9.92a.09.09,0,0,0,.09-.09.09.09,0,0,0-.09-.1.09.09,0,0,0-.1.1.09.09,0,0,0,.1.09Z"/><path class="cls-15" d="M14.28,10a.09.09,0,0,0,.09-.1.09.09,0,0,0-.09-.09.09.09,0,0,0-.1.09.09.09,0,0,0,.1.1Z"/><path class="cls-15" d="M14.5,10.07a.09.09,0,0,0,.1-.1.09.09,0,0,0-.1-.09.09.09,0,0,0-.09.09.09.09,0,0,0,.09.1Z"/><path class="cls-15" d="M14.7,10.22a.1.1,0,0,0,.09-.1A.09.09,0,0,0,14.7,10a.09.09,0,0,0-.1.09.1.1,0,0,0,.1.1Z"/><path class="cls-15" d="M14.84,10.41a.09.09,0,0,0,.1-.1.09.09,0,0,0-.1-.09.09.09,0,0,0-.09.09.09.09,0,0,0,.09.1Z"/><path class="cls-15" d="M14.94,10.63a.09.09,0,0,0,.1-.09.09.09,0,0,0-.1-.1.09.09,0,0,0-.09.1.09.09,0,0,0,.09.09Z"/><path class="cls-15" d="M15,10.88a.09.09,0,0,0,.1-.1.09.09,0,0,0-.1-.09.09.09,0,0,0-.09.09.09.09,0,0,0,.09.1Z"/><path class="cls-15" d="M14.92,11.13a.1.1,0,0,0,0-.2.1.1,0,0,0,0,.2Z"/><path class="cls-4" d="M12.28,14.41c-.43,0-.77.46-.77,1s.34,1,.77,1,.77-.46.77-1-.35-1-.77-1Z"/><path class="cls-16" d="M12.28,14.71c-.3,0-.54.33-.54.72s.24.72.54.72.54-.32.54-.72-.25-.72-.54-.72Z"/><path class="cls-17" d="M12.28,14.74a.47.47,0,0,0-.37.2.84.84,0,0,0-.15.49.87.87,0,0,0,.15.5.5.5,0,0,0,.37.2.46.46,0,0,0,.36-.2.8.8,0,0,0,.15-.5.77.77,0,0,0-.15-.49.44.44,0,0,0-.36-.2Zm-.4.17a.51.51,0,0,1,.4-.22.55.55,0,0,1,.4.22.89.89,0,0,1,.16.52.85.85,0,0,1-.16.52.51.51,0,0,1-.4.22.49.49,0,0,1-.4-.22.85.85,0,0,1-.16-.52.89.89,0,0,1,.16-.52Z"/><path class="cls-18" d="M12,15.42a.28.28,0,0,1,.05-.08s.11,0,.11,0,0-.17,0-.17-.13.06-.13.06a.32.32,0,0,0,.06-.13.78.78,0,0,0-.1-.19.56.56,0,0,0-.09.19s0,.11.06.13-.08-.07-.13-.06-.06.15-.05.17.09,0,.12,0l0,.08Z"/><polygon class="cls-18" points="12.08 15.47 12.08 15.42 11.91 15.42 11.91 15.47 12.08 15.47 12.08 15.47"/><polygon class="cls-18" points="11.92 15.47 11.9 15.52 11.96 15.51 11.99 15.58 12.03 15.51 12.09 15.52 12.07 15.47 11.92 15.47 11.92 15.47"/><path class="cls-18" d="M12.33,15.9a.19.19,0,0,1,.05-.08s.12,0,.12,0,0-.16-.05-.16-.13.06-.13.06.07-.08.06-.13a.85.85,0,0,0-.09-.19.78.78,0,0,0-.1.19c0,.05.05.11.06.13s-.07-.07-.13-.06,0,.15,0,.16.08-.05.11,0a.19.19,0,0,1,.05.08Z"/><polygon class="cls-19" points="12.37 15.95 12.37 15.9 12.21 15.9 12.21 15.95 12.37 15.95 12.37 15.95"/><polygon class="cls-18" points="12.22 15.95 12.2 16 12.26 15.99 12.29 16.06 12.32 15.99 12.38 16 12.36 15.95 12.22 15.95 12.22 15.95"/><path class="cls-18" d="M12.57,15.42a.28.28,0,0,1,0-.08s.11,0,.11,0,0-.17,0-.17-.13.06-.13.06.07-.08.06-.13a.78.78,0,0,0-.1-.19.85.85,0,0,0-.09.19s0,.11.06.13-.08-.07-.13-.06-.06.15,0,.17.09,0,.12,0l.05.08Z"/><polygon class="cls-18" points="12.61 15.47 12.61 15.42 12.45 15.42 12.45 15.47 12.61 15.47 12.61 15.47"/><polygon class="cls-18" points="12.46 15.47 12.44 15.52 12.49 15.51 12.53 15.58 12.56 15.51 12.62 15.52 12.6 15.47 12.46 15.47 12.46 15.47"/><path class="cls-5" d="M13.65,12.88a1,1,0,0,1,.21.07l.19.2.08-.21H14l-.05-.13-.07,0-.16-.11v.08l-.06.08Z"/><path class="cls-4" d="M14.37,12.93s0,.38,0,.44a2.1,2.1,0,0,0,.12-.28l0,0,0-.12Z"/><path class="cls-12" d="M12.19,17.74a1.63,1.63,0,0,0,1.5.72,4.28,4.28,0,0,1-1.5.35,3,3,0,0,1-1.3-.27,2.12,2.12,0,0,0,1.3-.8Z"/><path class="cls-8" d="M12.19,18.76l0-.05v-.06a.53.53,0,0,0,.25,0,.6.6,0,0,0,.26-.24.52.52,0,0,0-.5.19v-.08s.24-.06.24-.22a.19.19,0,0,0-.18-.19l.07-.08-.1,0L12.19,18l-.07.05L12,18l.07.08a.19.19,0,0,0-.18.19c0,.16.24.22.24.22v.08a.52.52,0,0,0-.5-.19.67.67,0,0,0,.26.24.53.53,0,0,0,.25,0v.06l0,.05Z"/><path class="cls-11" d="M12.13,18.62s-.1-.15-.18-.17l-.26-.06a.48.48,0,0,0,.22.18l.22.05Z"/><path class="cls-11" d="M12.24,18.62s.11-.15.19-.17l.25-.06a.43.43,0,0,1-.21.18l-.23.05Z"/><path class="cls-20" d="M12.1,18.05h0l.06,0,0,0h0v.06s.11,0,.14.08a.18.18,0,0,1,0,.18.51.51,0,0,1-.18.11s-.2,0-.23-.12,0-.15,0-.17l.13-.09v0Z"/><path class="cls-4" d="M12.2,18.42s.08-.07.08-.16,0-.17-.08-.17-.08.08-.08.17,0,.16.08.16Z"/><path class="cls-17" d="M12.2,18.4s0,0,0,0a.25.25,0,0,0,0-.1.36.36,0,0,0,0-.11.05.05,0,0,0,0,0s0,0,0,0a.2.2,0,0,0,0,.11.15.15,0,0,0,0,.1s0,0,0,0Zm.08,0a.09.09,0,0,1-.08.06.07.07,0,0,1-.07-.06.21.21,0,0,1,0-.12.25.25,0,0,1,0-.13.07.07,0,0,1,.07-.06.09.09,0,0,1,.08.06.44.44,0,0,1,0,.13.37.37,0,0,1,0,.12Z"/><path class="cls-5" d="M11.35,13.82h0v-.25h-.07v-.12h.4v.12h-.09v.27h.1v.08h-.15v.56h.17l-.24.34h-.45V14.6s0-.15-.15-.15-.16.16-.16.16v.19h-.62v-.18h.17V14h-.17V13.8h.12v-.23h-.09v-.14h.4v.14h-.1v.24h.11v.12h.17V13.8h.1v-.65h-.07V13h.36v.1H11v.7h.06v.11h.25v-.11Z"/><path class="cls-11" d="M13.52,16.7a.13.13,0,0,0,0,.26.13.13,0,0,0,0-.26Z"/><path class="cls-17" d="M11.41,14.19h0s-.06-.07-.1-.07a.09.09,0,0,0-.09.07h0a.21.21,0,0,0,0,.14v0h.26v0a.29.29,0,0,0,0-.14Zm0,.12h-.17a.25.25,0,0,1,0-.1h0s0-.05.06-.05,0,0,.06.05h0a.15.15,0,0,1,0,.1Z"/><path class="cls-17" d="M10.58,14.19h0a.09.09,0,0,0-.09-.07.1.1,0,0,0-.1.07h0a.29.29,0,0,0,0,.14v0h.26v0a.29.29,0,0,0,0-.14Zm0,.12H10.4a.15.15,0,0,1,0-.1h0a.07.07,0,0,1,.06-.05s0,0,.06.05h0a.25.25,0,0,1,0,.1Z"/><polygon class="cls-21" points="35.91 25.55 35.91 1.42 0.05 1.42 0.05 25.55 35.91 25.55 35.91 25.55"/></g></g></g></svg>