<svg xmlns="http://www.w3.org/2000/svg" xmlns:xlink="http://www.w3.org/1999/xlink" viewBox="0 0 41.1 26.98"><defs><style>.cls-1,.cls-2{fill:none;}.cls-2{stroke:#fff;stroke-miterlimit:10;stroke-width:3px;}.cls-3{clip-path:url(#clip-path);}.cls-4{clip-path:url(#clip-path-2);}.cls-5{fill:#d30025;}.cls-6{fill:#fff;}</style><clipPath id="clip-path"><circle class="cls-1" cx="20.55" cy="13.49" r="11.99"/></clipPath><clipPath id="clip-path-2"><rect class="cls-1" y="1.5" width="41.1" height="23.98"/></clipPath></defs><title>tunisia</title><g id="Layer_2" data-name="Layer 2"><g id="OBJECTS"><circle class="cls-2" cx="20.55" cy="13.49" r="11.99"/><g class="cls-3"><g class="cls-4"><rect class="cls-5" y="1.5" width="41.1" height="23.98"/><g class="cls-4"><path class="cls-6" d="M20.55,7.49a6,6,0,1,1-6,6,6,6,0,0,1,6-6"/><path class="cls-5" d="M20.55,9a4.5,4.5,0,1,1-4.5,4.49A4.5,4.5,0,0,1,20.55,9"/><path class="cls-6" d="M21.75,9.89a3.6,3.6,0,1,1-3.6,3.59,3.59,3.59,0,0,1,3.6-3.59"/><polyline class="cls-5" points="19.05 13.48 21.62 14.32 22.03 13.04"/><polyline class="cls-5" points="19.05 13.48 21.62 12.65 22.03 13.94"/><polyline class="cls-5" points="20.91 10.92 20.91 13.62 22.26 13.62"/><polyline class="cls-5" points="20.91 10.92 22.5 13.11 21.41 13.9"/><polyline class="cls-5" points="20.91 16.05 22.5 13.87 21.41 13.08"/><polyline class="cls-5" points="20.91 16.05 20.91 13.35 22.26 13.35"/><polyline class="cls-5" points="23.93 11.9 21.36 12.74 21.78 14.02"/><polyline class="cls-5" points="23.93 11.9 22.34 14.08 21.25 13.29"/><polyline class="cls-5" points="23.93 15.08 22.34 12.89 21.25 13.68"/><polyline class="cls-5" points="23.93 15.08 21.36 14.24 21.78 12.95"/></g></g></g></g></g></svg>