<svg xmlns="http://www.w3.org/2000/svg" xmlns:xlink="http://www.w3.org/1999/xlink" viewBox="0 0 39.23 26.98"><defs><style>.cls-1,.cls-2{fill:none;}.cls-2{stroke:#fff;stroke-miterlimit:10;stroke-width:3px;}.cls-3{clip-path:url(#clip-path);}.cls-4{fill:#fff;}.cls-5{fill:gold;}.cls-6{fill:#231f20;}.cls-7{fill:#1254a5;}</style><clipPath id="clip-path"><circle class="cls-1" cx="13.49" cy="13.49" r="11.99"/></clipPath></defs><title>uruguay</title><g id="Layer_2" data-name="Layer 2"><g id="OBJECTS"><circle class="cls-2" cx="13.49" cy="13.49" r="11.99" transform="translate(-2.75 3.48) rotate(-13.35)"/><g class="cls-3"><rect class="cls-4" x="1.5" y="0.91" width="37.73" height="25.15"/><path class="cls-5" d="M13,5.85l-.38-.12a1,1,0,0,0-.41.06,3.19,3.19,0,0,0-.45.25,2.49,2.49,0,0,1-.66.27,2.45,2.45,0,0,1-.52.05l0,.09h0L10,7.31s0,.09.07.08l.8,0h0l.12,0a3.55,3.55,0,0,0,.72-.4,4.29,4.29,0,0,0,.52-.53,2.84,2.84,0,0,1,.37-.39A.69.69,0,0,1,12.89,6h.45A1.72,1.72,0,0,0,13,5.85Z"/><path class="cls-6" d="M13,5.85l-.38-.12a1,1,0,0,0-.41.06,3.19,3.19,0,0,0-.45.25,2.49,2.49,0,0,1-.66.27,2.45,2.45,0,0,1-.52.05l0,.09a3.44,3.44,0,0,0,.6-.06,2.54,2.54,0,0,0,.67-.27,2.56,2.56,0,0,1,.44-.24.82.82,0,0,1,.37-.06l.1,0a.94.94,0,0,0-.5.19,11.57,11.57,0,0,1-1.13.77A9.68,9.68,0,0,1,10,7.24l0,.08a8.56,8.56,0,0,0,1.11-.43,10.18,10.18,0,0,0,1.15-.78.89.89,0,0,1,.56-.18.72.72,0,0,0-.36.14,2.24,2.24,0,0,0-.4.41,3.85,3.85,0,0,1-.49.51,4.21,4.21,0,0,1-.79.42l.12,0a3.55,3.55,0,0,0,.72-.4,4.29,4.29,0,0,0,.52-.53,2.84,2.84,0,0,1,.37-.39A.69.69,0,0,1,12.89,6h.45A1.72,1.72,0,0,0,13,5.85Z"/><path class="cls-5" d="M3.79,10l.38.12A1,1,0,0,0,4.59,10,3.19,3.19,0,0,0,5,9.76a2.31,2.31,0,0,1,.65-.27,3.63,3.63,0,0,1,.52-.05l0-.08h0l.66-.93s0-.08-.07-.07L6,8.39H6l-.11,0a3.14,3.14,0,0,0-.73.39,5,5,0,0,0-.51.53,2.84,2.84,0,0,1-.37.39.72.72,0,0,1-.35.12H3.49A1.07,1.07,0,0,0,3.79,10Z"/><path class="cls-6" d="M3.79,10l.38.12A1,1,0,0,0,4.59,10,3.19,3.19,0,0,0,5,9.76a2.31,2.31,0,0,1,.65-.27,3.63,3.63,0,0,1,.52-.05l0-.08a3.09,3.09,0,0,0-.59.05A2.46,2.46,0,0,0,5,9.68a2.55,2.55,0,0,1-.43.24.87.87,0,0,1-.37.06l-.11,0a.91.91,0,0,0,.5-.19A13,13,0,0,1,5.71,9,8.4,8.4,0,0,1,6.8,8.57V8.48a9.65,9.65,0,0,0-1.12.43,11.36,11.36,0,0,0-1.14.78A.91.91,0,0,1,4,9.87a.74.74,0,0,0,.37-.14,2.6,2.6,0,0,0,.39-.41,4.74,4.74,0,0,1,.5-.51A4.22,4.22,0,0,1,6,8.39l-.11,0a3.14,3.14,0,0,0-.73.39,5,5,0,0,0-.51.53,2.84,2.84,0,0,1-.37.39.72.72,0,0,1-.35.12H3.49A1.07,1.07,0,0,0,3.79,10Z"/><path class="cls-5" d="M10.22,3.21a1.77,1.77,0,0,0-.35.19.76.76,0,0,0-.25.33,3.11,3.11,0,0,0-.15.5,2.45,2.45,0,0,1-.27.65,2.51,2.51,0,0,1-.33.4l0,.1h0l.17,1.07s.07,0,.09,0l.6-.58h0l.11,0a3.58,3.58,0,0,0,.24-.8,3.48,3.48,0,0,0,0-.73,2.5,2.5,0,0,1,0-.54.71.71,0,0,1,.16-.33l0,0,.2-.22.08-.08A1.63,1.63,0,0,0,10.22,3.21Z"/><path class="cls-6" d="M10.22,3.21a1.77,1.77,0,0,0-.35.19.76.76,0,0,0-.25.33,3.11,3.11,0,0,0-.15.5,2.45,2.45,0,0,1-.27.65,2.51,2.51,0,0,1-.33.4l0,.1a3.23,3.23,0,0,0,.39-.46,3,3,0,0,0,.28-.67,2.64,2.64,0,0,1,.14-.48.78.78,0,0,1,.22-.3L10,3.41a1.05,1.05,0,0,0-.22.49,10.86,10.86,0,0,1-.25,1.35,10.5,10.5,0,0,1-.47,1.07l.07,0a8.37,8.37,0,0,0,.48-1.1,8.86,8.86,0,0,0,.26-1.36.91.91,0,0,1,.28-.52.7.7,0,0,0-.17.35,2.81,2.81,0,0,0,0,.57A4.14,4.14,0,0,1,10,5a5.18,5.18,0,0,1-.26.86l.11,0a3.58,3.58,0,0,0,.24-.8,3.48,3.48,0,0,0,0-.73,2.5,2.5,0,0,1,0-.54.71.71,0,0,1,.16-.33l0,0,.2-.22h0l.08-.08A1.63,1.63,0,0,0,10.22,3.21Z"/><path class="cls-5" d="M6.66,12.59A2.64,2.64,0,0,0,7,12.4a.85.85,0,0,0,.25-.33,3.27,3.27,0,0,0,.14-.5,3,3,0,0,1,.28-.65,2.51,2.51,0,0,1,.33-.4l0-.1H8L7.86,9.36s-.07,0-.09,0l-.66.57h0L7,10a4.76,4.76,0,0,0-.23.8,4.38,4.38,0,0,0,0,.73,3.52,3.52,0,0,1,0,.54.71.71,0,0,1-.16.33l0,0a2.79,2.79,0,0,1-.2.22l-.08.08A1.12,1.12,0,0,0,6.66,12.59Z"/><path class="cls-6" d="M6.66,12.59A2.64,2.64,0,0,0,7,12.4a.85.85,0,0,0,.25-.33,3.27,3.27,0,0,0,.14-.5,3,3,0,0,1,.28-.65,2.51,2.51,0,0,1,.33-.4l0-.1a3.36,3.36,0,0,0-.38.46,2.9,2.9,0,0,0-.28.68,4.13,4.13,0,0,1-.14.47.78.78,0,0,1-.22.3l-.09.06a1,1,0,0,0,.21-.49,10.42,10.42,0,0,1,.26-1.35,8.67,8.67,0,0,1,.47-1.07l-.08-.05a7.26,7.26,0,0,0-.47,1.1A8.86,8.86,0,0,0,7,11.89a.88.88,0,0,1-.28.52.71.71,0,0,0,.16-.35,2.76,2.76,0,0,0,0-.57,4.14,4.14,0,0,1,0-.71,3.75,3.75,0,0,1,.26-.86L7,10a4.76,4.76,0,0,0-.23.8,4.38,4.38,0,0,0,0,.73,3.52,3.52,0,0,1,0,.54.71.71,0,0,1-.16.33l0,0a2.79,2.79,0,0,1-.2.22h0l-.08.08A1.12,1.12,0,0,0,6.66,12.59Z"/><path class="cls-5" d="M6.36,3.28a2.36,2.36,0,0,0-.11.38.8.8,0,0,0,.06.42,2.57,2.57,0,0,0,.24.45,2.31,2.31,0,0,1,.27.65,2.55,2.55,0,0,1,0,.52l.09,0H7l.87.67s.08,0,.07-.07L8,5.48H7.93l0-.12a3.55,3.55,0,0,0-.4-.72A3.6,3.6,0,0,0,7,4.14a3.62,3.62,0,0,1-.39-.37.75.75,0,0,1-.12-.35v0a2,2,0,0,1,0-.3V3A1.48,1.48,0,0,0,6.36,3.28Z"/><path class="cls-6" d="M6.36,3.28a2.36,2.36,0,0,0-.11.38.8.8,0,0,0,.06.42,2.57,2.57,0,0,0,.24.45,2.31,2.31,0,0,1,.27.65,2.55,2.55,0,0,1,0,.52l.09,0a3.23,3.23,0,0,0,0-.6,3,3,0,0,0-.28-.67A3.54,3.54,0,0,1,6.39,4a.82.82,0,0,1-.06-.37.62.62,0,0,0,0-.1,1,1,0,0,0,.19.5A11,11,0,0,1,7.32,5.2a9.68,9.68,0,0,1,.43,1.09h.09A8.28,8.28,0,0,0,7.4,5.16,10.3,10.3,0,0,0,6.62,4a1,1,0,0,1-.18-.57.78.78,0,0,0,.14.37A3.91,3.91,0,0,0,7,4.21a4,4,0,0,1,.51.5,5.3,5.3,0,0,1,.43.78l0-.12a3.55,3.55,0,0,0-.4-.72A3.6,3.6,0,0,0,7,4.14a3.62,3.62,0,0,1-.39-.37.75.75,0,0,1-.12-.35v0a2,2,0,0,1,0-.3h0V3A1.48,1.48,0,0,0,6.36,3.28Z"/><path class="cls-5" d="M10.52,12.52a2.36,2.36,0,0,0,.11-.38.91.91,0,0,0-.06-.42,4.92,4.92,0,0,0-.25-.45,2.59,2.59,0,0,1-.26-.65A1.86,1.86,0,0,1,10,10.1l-.09,0h0L9.1,9.45S9,9.46,9,9.51l-.13.81h0v.12a3.55,3.55,0,0,0,.4.72,4.13,4.13,0,0,0,.52.51,2.37,2.37,0,0,1,.39.37.8.8,0,0,1,.13.35v0c0,.09,0,.3,0,.3s0,.09,0,.11A1.48,1.48,0,0,0,10.52,12.52Z"/><path class="cls-6" d="M10.52,12.52a2.36,2.36,0,0,0,.11-.38.91.91,0,0,0-.06-.42,4.92,4.92,0,0,0-.25-.45,2.59,2.59,0,0,1-.26-.65A2.5,2.5,0,0,1,10,10.1l-.09,0a3.23,3.23,0,0,0,.05.6,2.6,2.6,0,0,0,.28.67,3.54,3.54,0,0,1,.24.44.69.69,0,0,1,0,.37.58.58,0,0,1,0,.1,1,1,0,0,0-.19-.5,8.76,8.76,0,0,1-.77-1.13,6.94,6.94,0,0,1-.43-1.09L9,9.53a8.74,8.74,0,0,0,.44,1.11,9.43,9.43,0,0,0,.78,1.14,1,1,0,0,1,.17.57A.85.85,0,0,0,10.3,12a3.91,3.91,0,0,0-.41-.39,3.88,3.88,0,0,1-.51-.49A4.14,4.14,0,0,1,9,10.31l0,.12a3.55,3.55,0,0,0,.4.72,4.13,4.13,0,0,0,.52.51,2.37,2.37,0,0,1,.39.37.8.8,0,0,1,.13.35v0c0,.09,0,.3,0,.3h0s0,.09,0,.11A1.48,1.48,0,0,0,10.52,12.52Z"/><path class="cls-5" d="M3.72,6.09a1.77,1.77,0,0,0,.19.35.91.91,0,0,0,.34.26,4.1,4.1,0,0,0,.49.14,2.83,2.83,0,0,1,.65.27,2.4,2.4,0,0,1,.4.34l.1,0h0L7,7.3S7,7.23,7,7.2l-.58-.65h0l0-.11a3.22,3.22,0,0,0-.8-.23,4.38,4.38,0,0,0-.73,0,2.5,2.5,0,0,1-.54,0,.63.63,0,0,1-.33-.16l0,0-.22-.2-.08-.07A1.43,1.43,0,0,0,3.72,6.09Z"/><path class="cls-6" d="M3.72,6.09a1.77,1.77,0,0,0,.19.35.91.91,0,0,0,.34.26,4.1,4.1,0,0,0,.49.14,2.83,2.83,0,0,1,.65.27,2.4,2.4,0,0,1,.4.34l.1,0A4.08,4.08,0,0,0,5.43,7a2.65,2.65,0,0,0-.67-.28,4.2,4.2,0,0,1-.48-.13A.89.89,0,0,1,4,6.39l0-.09a.93.93,0,0,0,.48.22,8.66,8.66,0,0,1,1.35.26,8.13,8.13,0,0,1,1.07.46l0-.07a8.82,8.82,0,0,0-1.09-.48,11,11,0,0,0-1.36-.26,1,1,0,0,1-.53-.27.87.87,0,0,0,.36.16,2.66,2.66,0,0,0,.56,0,4.26,4.26,0,0,1,.72,0,4.15,4.15,0,0,1,.85.25l0-.11a3.22,3.22,0,0,0-.8-.23,4.38,4.38,0,0,0-.73,0,2.5,2.5,0,0,1-.54,0,.63.63,0,0,1-.33-.16l0,0-.22-.2h0l-.08-.07A1.43,1.43,0,0,0,3.72,6.09Z"/><path class="cls-5" d="M13.16,9.71c-.07-.14-.15-.29-.19-.35a.91.91,0,0,0-.34-.26A4.75,4.75,0,0,0,12.14,9a2.65,2.65,0,0,1-.65-.27,2.4,2.4,0,0,1-.4-.34l-.1,0h0L9.92,8.5s-.05.08,0,.1l.57.65h0l0,.11a3.24,3.24,0,0,0,.79.23,4.49,4.49,0,0,0,.74,0,2.41,2.41,0,0,1,.53,0,.82.82,0,0,1,.34.16l0,0a2.79,2.79,0,0,1,.22.2.4.4,0,0,0,.09.07A1.65,1.65,0,0,0,13.16,9.71Z"/><path class="cls-6" d="M13.16,9.71c-.07-.14-.15-.29-.19-.35a.91.91,0,0,0-.34-.26A4.75,4.75,0,0,0,12.14,9a2.65,2.65,0,0,1-.65-.27,2.4,2.4,0,0,1-.4-.34l-.1,0a2.73,2.73,0,0,0,.46.39,2.65,2.65,0,0,0,.67.28,2.92,2.92,0,0,1,.48.14.76.76,0,0,1,.3.22l0,.09a1.05,1.05,0,0,0-.49-.22A8.73,8.73,0,0,1,11.12,9a7.58,7.58,0,0,1-1.07-.46L10,8.63a8.82,8.82,0,0,0,1.09.48,10.66,10.66,0,0,0,1.36.26.94.94,0,0,1,.53.28.75.75,0,0,0-.36-.17,2.66,2.66,0,0,0-.56,0,4.26,4.26,0,0,1-.72,0,4.15,4.15,0,0,1-.85-.25l0,.11a3.24,3.24,0,0,0,.79.23,4.49,4.49,0,0,0,.74,0,2.41,2.41,0,0,1,.53,0,.82.82,0,0,1,.34.16l0,0a2.79,2.79,0,0,1,.22.2h0a.4.4,0,0,0,.09.07A1.65,1.65,0,0,0,13.16,9.71Z"/><path class="cls-5" d="M13.58,7.88,9.92,7.23l0,.09h0V8.54h0l0,.08L13.59,8l.26,0Z"/><polygon class="cls-6" points="13.85 7.93 13.58 7.88 9.75 7.21 9.74 7.29 13.08 7.88 10.13 7.88 10.13 7.97 13.11 7.97 9.92 8.53 9.94 8.62 13.6 7.97 13.85 7.93"/><path class="cls-5" d="M3.29,7.94,7,8.59,7,8.5H7V7.29H7l0-.08-3.65.64L3,7.89Z"/><polygon class="cls-6" points="3.02 7.89 3.29 7.94 7.12 8.62 7.13 8.53 3.79 7.94 6.74 7.94 6.74 7.85 3.76 7.85 6.95 7.29 6.93 7.21 3.28 7.85 3.02 7.89"/><path class="cls-5" d="M12.05,4.25,9,6.38l.05.08h0l.86.86h0l.07,0,2.13-3,.14-.21Z"/><polygon class="cls-6" points="12.27 4.1 12.05 4.25 8.87 6.48 8.92 6.55 11.7 4.61 9.62 6.69 9.68 6.75 11.78 4.64 9.92 7.3 10 7.35 12.13 4.31 12.27 4.1"/><path class="cls-5" d="M4.82,11.57l3-2.13-.05-.07h0L7,8.51h0l-.07,0-2.13,3-.14.21Z"/><polygon class="cls-6" points="4.6 11.73 4.82 11.57 8 9.34 7.95 9.27 5.17 11.22 7.25 9.13 7.19 9.07 5.09 11.18 6.95 8.52 6.88 8.47 4.74 11.52 4.6 11.73"/><path class="cls-5" d="M8.4,2.77,7.76,6.43H9.14L8.5,2.75,8.45,2.5Z"/><polygon class="cls-6" points="8.45 2.5 8.4 2.77 7.73 6.59 7.82 6.61 8.4 3.27 8.4 6.21 8.49 6.21 8.49 3.23 9.05 6.42 9.14 6.41 8.5 2.75 8.45 2.5"/><path class="cls-5" d="M8.47,13.06,9.11,9.4,9,9.38H7.73l.64,3.66.05.25Z"/><polygon class="cls-6" points="8.42 13.32 8.47 13.06 9.14 9.23 9.05 9.21 8.47 12.55 8.47 9.61 8.38 9.61 8.38 12.59 7.82 9.4 7.73 9.41 8.38 13.07 8.42 13.32"/><path class="cls-5" d="M4.77,4.29,6.91,7.34l.07,0H7l.86-.86h0l0-.07-3-2.13-.21-.15Z"/><polygon class="cls-6" points="4.62 4.07 4.78 4.29 7 7.48 7.08 7.43 5.13 4.65 7.21 6.73 7.27 6.67 5.17 4.56 7.82 6.42 7.87 6.35 4.83 4.22 4.62 4.07"/><path class="cls-5" d="M12.1,11.53,10,8.48l-.07,0h0L9,9.4H9l0,.07,3,2.13.21.15Z"/><polygon class="cls-6" points="12.25 11.75 12.1 11.53 9.87 8.34 9.79 8.39 11.74 11.17 9.66 9.09 9.6 9.15 11.7 11.26 9.05 9.4 9 9.47 12.04 11.6 12.25 11.75"/><path class="cls-5" d="M8.41,6.24A1.71,1.71,0,1,0,10.11,8,1.7,1.7,0,0,0,8.41,6.24Z"/><path class="cls-6" d="M8.41,6.19a1.76,1.76,0,1,0,1.76,1.75A1.75,1.75,0,0,0,8.41,6.19Zm0,3.44A1.69,1.69,0,1,1,10.1,7.94,1.69,1.69,0,0,1,8.41,9.63Z"/><path class="cls-6" d="M7.22,7.27a1.32,1.32,0,0,1,.6-.11.83.83,0,0,1,.32.14s.13.08.07,0a.84.84,0,0,0-.29-.21.48.48,0,0,0-.45,0C7.22,7.18,7.12,7.25,7.22,7.27Z"/><path class="cls-6" d="M7.26,7.53a1,1,0,0,1,.51-.17c.2,0,.25,0,.33.16a.22.22,0,0,0-.23-.22.94.94,0,0,0-.42.07A1.34,1.34,0,0,0,7.26,7.53Z"/><path class="cls-6" d="M7.92,7.44a.17.17,0,0,0-.23-.09.19.19,0,0,0-.14.22c0,.08.12.12.23.09A.21.21,0,0,0,7.92,7.44Z"/><path class="cls-6" d="M7.37,7.53a1,1,0,0,0,.24.18.48.48,0,0,0,.27,0L8,7.63s.06-.12,0-.06-.15.1-.22.1a.41.41,0,0,1-.19,0Z"/><path class="cls-6" d="M7.49,7.62a.19.19,0,0,1,0-.23c.11-.1,0,0,0,0l0,0a.42.42,0,0,0,0,.17S7.49,7.62,7.49,7.62Z"/><path class="cls-6" d="M9.6,7.27A1.29,1.29,0,0,0,9,7.16a.83.83,0,0,0-.32.14s-.13.08-.07,0a.84.84,0,0,1,.29-.21.48.48,0,0,1,.45,0C9.6,7.18,9.7,7.25,9.6,7.27Z"/><path class="cls-6" d="M9.55,7.53A1,1,0,0,0,9,7.36c-.19,0-.24,0-.32.16A.22.22,0,0,1,9,7.3a.88.88,0,0,1,.41.07A.92.92,0,0,1,9.55,7.53Z"/><path class="cls-6" d="M8.9,7.44a.16.16,0,0,1,.23-.09.19.19,0,0,1,.14.22A.18.18,0,0,1,9,7.66.21.21,0,0,1,8.9,7.44Z"/><path class="cls-6" d="M9.45,7.53a1,1,0,0,1-.24.18.48.48,0,0,1-.27,0l-.15-.07s-.07-.12.05-.06.15.1.22.1a.43.43,0,0,0,.19,0Z"/><path class="cls-6" d="M9.33,7.62a.18.18,0,0,0,0-.23c-.1-.1.06,0,.06,0v0a.31.31,0,0,1,0,.17S9.33,7.62,9.33,7.62Z"/><path class="cls-6" d="M8.92,8.29s-.1,0-.11-.06l-.09-.16s-.09-.07-.06,0,0,.26-.1.13c0,.14-.15.13-.15.13h0s-.2,0-.14-.13c-.12.13-.25,0-.11-.13s-.05,0-.06,0A.79.79,0,0,0,8,8.23s-.07,0-.12.06a.46.46,0,0,0-.12.13s.08-.06.13-.08a.73.73,0,0,1,.23,0c.08,0,.16.09.26.09h0c.1,0,.19-.08.26-.09a.73.73,0,0,1,.23,0A1.18,1.18,0,0,1,9,8.42.34.34,0,0,0,8.92,8.29Z"/><path class="cls-6" d="M9.15,8.57l.08.11L9,8.66l-.23-.08a.31.31,0,0,0-.19,0l-.15,0-.15,0a.31.31,0,0,0-.19,0l-.23.08-.25,0,.08-.11a.35.35,0,0,0-.15.23.52.52,0,0,1,.07-.12,2,2,0,0,1,.26.13A1.93,1.93,0,0,0,8.31,9h.2A1.79,1.79,0,0,0,9,8.81l.26-.13.08.12A.34.34,0,0,0,9.15,8.57Zm-.73.27h0a1.2,1.2,0,0,1-.49-.09,3.35,3.35,0,0,1,.5,0h0a3.41,3.41,0,0,1,.5,0A1.28,1.28,0,0,1,8.42,8.84Z"/><path class="cls-6" d="M8.42,9.15h.13a.21.21,0,0,0-.12,0h0a.22.22,0,0,0-.13,0h.15Z"/><rect class="cls-7" x="15.47" y="3.71" width="23.76" height="2.8"/><rect class="cls-7" x="15.47" y="9.3" width="23.76" height="2.79"/><rect class="cls-7" x="1.5" y="14.89" width="37.73" height="2.79"/><rect class="cls-7" x="1.5" y="20.48" width="37.73" height="2.8"/></g></g></g></svg>