<svg xmlns="http://www.w3.org/2000/svg" xmlns:xlink="http://www.w3.org/1999/xlink" viewBox="0 0 66.58 45.59"><defs><style>.cls-1{fill:none;}.cls-2{clip-path:url(#clip-path);}.cls-3{fill:#fff;}.cls-4{fill:#74acdf;}.cls-5{fill:#f6b40e;}.cls-6{fill:#843511;}.cls-7{fill:#85340a;}</style><clipPath id="clip-path"><path class="cls-1" d="M49.25,7.39,35.38,2.13a6.12,6.12,0,0,0-4.38,0L17.12,7.39a6.17,6.17,0,0,0-4,5.77V33.35a6.17,6.17,0,0,0,4,5.77L31,44.38a6.12,6.12,0,0,0,4.38,0l13.87-5.26a6.18,6.18,0,0,0,4-5.77V13.16A6.18,6.18,0,0,0,49.25,7.39Z"/></clipPath></defs><title>argentina</title><g id="Layer_2" data-name="Layer 2"><g id="OBJECTS"><g class="cls-2"><g id="argentina"><rect class="cls-3" x="0.04" y="14.68" width="66.51" height="15.43"/><rect class="cls-4" width="66.58" height="14.93"/><rect class="cls-4" y="29.86" width="66.58" height="14.93"/><path class="cls-5" d="M34.57,27.41a1.93,1.93,0,0,1-.17-1.1,2.27,2.27,0,0,0-.15-1,3,3,0,0,1-.11-.55l-.11,0c.07.66.41,1.07.24,1.57.07-.62-.24-1-.36-1.55H33.8a3.31,3.31,0,0,0,.17.56,2.06,2.06,0,0,1,.19,1,2,2,0,0,0,.3,1.15,1.76,1.76,0,0,1,.14.27.6.6,0,0,1,0,.41.25.25,0,0,0,0,.07s0,0,0,0a.6.6,0,0,0,.1-.52A1,1,0,0,0,34.57,27.41Z"/><path class="cls-5" d="M34.58,24.61l-.08.05.56,1.51-.68-1.47-.09,0,1.46,3.18s0,.05,0,.05,0-.06,0-.07Z"/><path class="cls-5" d="M32.67,26.38c.31-.55.15-1,.26-1.57l-.1,0a3.94,3.94,0,0,0-.06.58,2.11,2.11,0,0,1-.2,1,1.87,1.87,0,0,0-.16,1.18,1.58,1.58,0,0,1,0,.3.64.64,0,0,1-.17.38.1.1,0,0,0,0,.05s0,0,0,0a.62.62,0,0,0,.29-.44,1.09,1.09,0,0,0,0-.36,1.89,1.89,0,0,1,.26-1.09,2.17,2.17,0,0,0,.24-1,3,3,0,0,1,.09-.56h-.09C32.86,25.47,33,26,32.67,26.38Z"/><path class="cls-5" d="M33.48,26.48l-.06-1.61h-.09l.13,3.49s0,.07,0,.07,0-.06,0-.07l.13-3.49h-.1Z"/><path class="cls-5" d="M32.58,24.7l-.67,1.47.56-1.52-.08,0-1.22,3.27s0,.07,0,.08,0,0,0-.05l1.46-3.18Z"/><path class="cls-5" d="M31.93,25a2.8,2.8,0,0,1,.3-.49l-.08,0c-.43.52-.47,1-.95,1.28.49-.39.51-.86.84-1.35L32,24.34a3.14,3.14,0,0,0-.27.51,2.36,2.36,0,0,1-.57.85,1.87,1.87,0,0,0-.61,1,1.39,1.39,0,0,1-.1.29.56.56,0,0,1-.3.28l-.06,0h.05a.61.61,0,0,0,.43-.29,1.12,1.12,0,0,0,.16-.33,1.88,1.88,0,0,1,.65-.9A2.12,2.12,0,0,0,31.93,25Z"/><path class="cls-5" d="M30.2,24.71a2.12,2.12,0,0,0,.84-.5,2.71,2.71,0,0,1,.46-.33l-.06-.08c-.59.32-.83.79-1.36.83.6-.17.8-.6,1.29-.93,0,0,0-.07-.05-.1-.17.12-.31.25-.45.37a2.23,2.23,0,0,1-.85.57,2,2,0,0,0-.95.71,1.18,1.18,0,0,1-.2.23.58.58,0,0,1-.39.14h-.06l0,0a.65.65,0,0,0,.52-.11,1.55,1.55,0,0,0,.27-.24A1.82,1.82,0,0,1,30.2,24.71Z"/><path class="cls-5" d="M31.76,24.17l-1.19,1.11,1.11-1.19s0-.05-.06-.07l-2.38,2.56s0,.05,0,.06.06,0,.06,0l2.57-2.38A.27.27,0,0,1,31.76,24.17Z"/><path class="cls-5" d="M28.11,23.57a1,1,0,0,0,.34-.11,1.83,1.83,0,0,1,1.1-.18,2.37,2.37,0,0,0,1-.14,2.31,2.31,0,0,1,.56-.12s0-.07,0-.11c-.66.07-1.06.41-1.57.24.62.07,1-.24,1.55-.36a.41.41,0,0,0,0-.11,3.2,3.2,0,0,0-.55.17,2.21,2.21,0,0,1-1,.2,1.82,1.82,0,0,0-1.15.3l-.28.13a.6.6,0,0,1-.41,0l-.06,0,0,0A.61.61,0,0,0,28.11,23.57Z"/><path class="cls-5" d="M31.2,23.38l-1.52.56,1.47-.67s0-.06,0-.09L28,24.63s-.06,0-.05.05.05,0,.07,0l3.28-1.21A.41.41,0,0,1,31.2,23.38Z"/><path class="cls-5" d="M28.05,21.42a1.16,1.16,0,0,0,.37,0,1.83,1.83,0,0,1,1.08.25,2.2,2.2,0,0,0,.95.24A2.72,2.72,0,0,1,31,22a.28.28,0,0,0,0-.09c-.64-.2-1.14,0-1.54-.39.54.31,1,.15,1.57.26l0-.1a2.9,2.9,0,0,0-.58-.05,2.21,2.21,0,0,1-1-.21,1.87,1.87,0,0,0-1.18-.16l-.31,0a.58.58,0,0,1-.37-.18l0,0a.1.1,0,0,0,0,0A.61.61,0,0,0,28.05,21.42Z"/><path class="cls-5" d="M31,22.42l-1.62-.05L31,22.31a.31.31,0,0,1,0-.1l-3.5.13s-.06,0-.06,0,0,0,.06,0l3.5.14A.41.41,0,0,1,31,22.42Z"/><path class="cls-5" d="M28,20.1l3.18,1.46a.54.54,0,0,1,0-.1l-1.47-.67,1.51.56a.35.35,0,0,1,.05-.08L28,20.05s-.06,0-.07,0S27.94,20.1,28,20.1Z"/><path class="cls-5" d="M28.83,19.42a1.26,1.26,0,0,0,.33.16,1.83,1.83,0,0,1,.9.65,2.28,2.28,0,0,0,.79.59,2.45,2.45,0,0,1,.48.29.56.56,0,0,0,.05-.08c-.52-.43-1.05-.47-1.28-1,.38.49.85.52,1.35.84l.07-.08a4.3,4.3,0,0,0-.52-.27,2.2,2.2,0,0,1-.84-.57,1.84,1.84,0,0,0-1-.6l-.28-.1a.56.56,0,0,1-.28-.31.33.33,0,0,1,0-.06.2.2,0,0,0,0,.05A.64.64,0,0,0,28.83,19.42Z"/><path class="cls-5" d="M30.55,18.13a1.87,1.87,0,0,1,.59.95,2.24,2.24,0,0,0,.5.84,2.74,2.74,0,0,1,.34.46l.07-.06c-.32-.59-.79-.83-.82-1.36.17.6.59.8.93,1.29l.09-.05a4,4,0,0,0-.37-.45,2.07,2.07,0,0,1-.56-.84A1.86,1.86,0,0,0,30.6,18a2.51,2.51,0,0,1-.23-.21.64.64,0,0,1-.14-.38V17.3l0,0a.59.59,0,0,0,.1.52A1.25,1.25,0,0,0,30.55,18.13Z"/><path class="cls-5" d="M31.62,20.72l.06-.08-1.1-1.18,1.18,1.1.08-.06-2.56-2.38s-.06,0-.07,0,0,.06,0,.06Z"/><path class="cls-5" d="M32.39,20.13l.09-.05-.57-1.51L32.59,20l.09,0-1.46-3.18s0-.06,0,0,0,.06,0,.07Z"/><path class="cls-5" d="M32.4,17.33a1.91,1.91,0,0,1,.18,1.1,2.07,2.07,0,0,0,.14,1,3.27,3.27,0,0,1,.12.56l.1,0c-.06-.67-.41-1.07-.23-1.58-.08.62.24,1,.36,1.56h.11a4.59,4.59,0,0,0-.18-.56,2.21,2.21,0,0,1-.19-1,1.82,1.82,0,0,0-.3-1.15,1.14,1.14,0,0,1-.13-.28.55.55,0,0,1,0-.41s0-.05,0-.06l0,0a.62.62,0,0,0-.1.52A1,1,0,0,0,32.4,17.33Z"/><path class="cls-5" d="M34.3,18.36c-.3.54-.15,1-.26,1.57l.11,0c0-.2,0-.39.05-.57a2.24,2.24,0,0,1,.2-1,1.89,1.89,0,0,0,.17-1.18,1.1,1.1,0,0,1,0-.3.59.59,0,0,1,.17-.38l0-.05h0a.64.64,0,0,0-.29.44,1.15,1.15,0,0,0,0,.37,1.86,1.86,0,0,1-.26,1.08,2.21,2.21,0,0,0-.24,1,2.33,2.33,0,0,1-.09.56h.1C34.11,19.27,34,18.76,34.3,18.36Z"/><path class="cls-5" d="M33.49,18.25l.06,1.62h.1l-.14-3.49s0-.07,0-.07,0,.05,0,.06l-.13,3.5h.1Z"/><path class="cls-5" d="M35,19.73a3.15,3.15,0,0,1-.3.48l.09.05c.42-.52.47-1.05.94-1.28-.49.38-.51.85-.84,1.35l.09.07a4.19,4.19,0,0,0,.27-.51,2.06,2.06,0,0,1,.57-.85,1.9,1.9,0,0,0,.6-1,1.28,1.28,0,0,1,.1-.28.59.59,0,0,1,.3-.28l.06,0h0c-.09,0-.27.06-.44.3a1.12,1.12,0,0,0-.16.33,2,2,0,0,1-.65.9A2.12,2.12,0,0,0,35,19.73Z"/><path class="cls-5" d="M34.39,20l.67-1.47-.56,1.51.09.05,1.21-3.28s0-.06,0-.07,0,0,0,0L34.29,20Z"/><path class="cls-5" d="M36.78,20a2.29,2.29,0,0,0-.85.5,2.74,2.74,0,0,1-.46.34l.06.07c.59-.31.84-.78,1.37-.82-.6.17-.81.59-1.3.93l0,.09a4.17,4.17,0,0,0,.45-.36A2,2,0,0,1,37,20.2a1.91,1.91,0,0,0,.95-.72,1.5,1.5,0,0,1,.2-.22.62.62,0,0,1,.39-.15h.06l0,0a.63.63,0,0,0-.52.1,1.12,1.12,0,0,0-.28.25A1.9,1.9,0,0,1,36.78,20Z"/><path class="cls-5" d="M35.21,20.56l1.19-1.1-1.1,1.19.06.07,2.38-2.56s0-.05,0-.07l-.06,0L35.13,20.5Z"/><path class="cls-5" d="M38.87,21.16a1.45,1.45,0,0,0-.35.12,1.81,1.81,0,0,1-1.1.18,2.1,2.1,0,0,0-1,.14,2.31,2.31,0,0,1-.56.12l0,.1c.66-.06,1.07-.4,1.57-.23-.62-.08-1,.24-1.55.36a.45.45,0,0,0,0,.11c.2,0,.38-.11.56-.17a2.18,2.18,0,0,1,1-.2,1.86,1.86,0,0,0,1.15-.3,1.62,1.62,0,0,1,.27-.13.6.6,0,0,1,.41,0h.07s0,0,0,0A.68.68,0,0,0,38.87,21.16Z"/><path class="cls-5" d="M35.78,21.36l1.51-.56-1.47.67,0,.09L39,20.1s.06,0,0-.05-.06,0-.07,0l-3.27,1.22A.41.41,0,0,0,35.78,21.36Z"/><path class="cls-5" d="M39.47,22.34,36,22.21a.34.34,0,0,1,0,.1l1.62.06L36,22.43a.38.38,0,0,1,0,.1l3.5-.14s.06,0,.06,0S39.48,22.34,39.47,22.34Z"/><path class="cls-5" d="M38.92,23.31a1.48,1.48,0,0,0-.36,0A1.94,1.94,0,0,1,37.47,23a2.07,2.07,0,0,0-.95-.25A2.33,2.33,0,0,1,36,22.7a.34.34,0,0,0,0,.1c.64.19,1.14,0,1.54.38-.54-.3-1-.15-1.57-.26a.45.45,0,0,1,0,.11c.2,0,.39,0,.58,0a2.24,2.24,0,0,1,1,.2,1.89,1.89,0,0,0,1.18.17,1.62,1.62,0,0,1,.3,0,.58.58,0,0,1,.37.17l0,0a.08.08,0,0,0,0,0A.59.59,0,0,0,38.92,23.31Z"/><path class="cls-5" d="M38.15,25.32a1.12,1.12,0,0,0-.33-.16,1.94,1.94,0,0,1-.91-.65,2.22,2.22,0,0,0-.78-.59,2,2,0,0,1-.49-.3.41.41,0,0,1,0,.09c.52.42,1,.47,1.29.94-.39-.49-.86-.51-1.35-.84l-.07.09a3.56,3.56,0,0,0,.51.27,2,2,0,0,1,.84.57,1.9,1.9,0,0,0,1,.6,1.63,1.63,0,0,1,.29.1.69.69,0,0,1,.28.3l0,.06v0A.63.63,0,0,0,38.15,25.32Z"/><path class="cls-5" d="M39,24.63l-3.18-1.46a.54.54,0,0,0,0,.1l1.47.68-1.52-.57,0,.09L39,24.68s.07,0,.07,0S39,24.64,39,24.63Z"/><path class="cls-5" d="M35.36,24a.46.46,0,0,1-.07.07l1.1,1.19-1.18-1.1-.08.06,2.57,2.38s0,0,.06,0,0-.06,0-.07Z"/><path class="cls-5" d="M36.42,26.6a1.83,1.83,0,0,1-.59-.94,2.17,2.17,0,0,0-.5-.85,2.36,2.36,0,0,1-.33-.46s0,0-.08.06c.32.59.79.84.82,1.37-.16-.6-.59-.8-.92-1.3l-.1.05a4.23,4.23,0,0,0,.37.45,2.32,2.32,0,0,1,.57.85,1.9,1.9,0,0,0,.71,1l.23.2a.6.6,0,0,1,.14.39s0,.05,0,.06l0,0a.64.64,0,0,0-.11-.52A1.31,1.31,0,0,0,36.42,26.6Z"/><path class="cls-5" d="M33.21,23.58l0,0h0l0,0h0l.1,0h.21l.1,0h0l0,0h0l0,0,0,0,.06,0a.44.44,0,0,1,.19,0l-.22,0h-.23l-.1,0h0l-.11,0h-.22l-.21,0a.31.31,0,0,1,.18,0l.06,0Z"/><path class="cls-5" d="M34,24.67a.32.32,0,0,0,.09,0h.12l.09,0,.12,0,.09-.05h.09l0,0,.1-.05.12-.08.07-.06,0,0,0,0,0,0,.07-.06L35.2,24l.07-.08v0l0,0,0,0v0l0,0,.07-.08.08-.12,0-.09,0,0v0s0,0,0,0l0-.08.05-.12a.38.38,0,0,1,0-.1V23s0-.07,0-.11,0-.09,0-.14a.31.31,0,0,0,0-.1v-.12s0-.06,0-.1,0,0,0-.06,0,0,0-.06,0-.07,0-.1v-.13s0-.08,0-.11l0-.14,0-.1v-.11l0-.09-.05-.12a.41.41,0,0,0,0-.09v-.09l0,0,0-.1L35.41,21l-.06-.08,0,0h0l0,0-.06-.08-.09-.09L35,20.59l0,0h0l0,0h0l0,0-.09-.07-.12-.08-.08-.05,0,0h0l0,0-.09,0-.11-.05-.1,0h-.12l-.11,0-.14,0H33.2l-.11,0-.14,0-.1,0,0,0h0l-.05,0-.09,0-.12,0-.09.05,0,0h-.09l-.1.06-.11.08s0,0-.08.06l0,0,0,0,0,0-.08.06-.09.09-.06.08,0,0h0v0h0v0l-.08.09-.07.12-.05.09,0,0,0,0s0,0,0,.05l-.05.08s0,.08,0,.12a.29.29,0,0,0,0,.1v.12a.38.38,0,0,0,0,.1.89.89,0,0,0,0,.14.31.31,0,0,1,0,.1v.13s0,.06,0,.09,0,.05,0,.07,0,0,0,.06,0,.07,0,.1v.13a.37.37,0,0,1,0,.11l0,.14,0,.1s0,0,0,0v0l0,.05s0,.06,0,.09l.05.12.05.09v0h0l0,0v0s0,.07.05.1l.08.12.07.07,0,0v0s0,0,0,0,0,0,.06.07l.09.09a.46.46,0,0,0,.07.07l0,0h0l0,0h0l0,0,.09.07.12.08.08,0,0,0h0l0,0,.09.05.12,0,.09,0h.12l.11,0,.14,0h.79ZM33.61,23h-.28l0,0h0a0,0,0,0,1,0,0l0,0-.05,0h0l-.05,0s0,0,0,0a.08.08,0,0,1,0,0v0a.08.08,0,0,1,0,0h0s0,0,0-.05a.14.14,0,0,1,0-.06l.07,0,0,0,0,0s0,0-.05.07h0s0,0,0,0v0s0,0,0,0l0,0h0l.05,0a.07.07,0,0,0,0-.06v0h0l0,.06,0,0h0l0,0h0l.06,0h.16l0,0,0-.05h0a.06.06,0,0,0,0,.06,0,0,0,0,0,0,0h0l0,0,0,0h0s0,0,0-.05h0a.11.11,0,0,0-.07-.11l.07,0a.16.16,0,0,1,0,.09.08.08,0,0,1,0,0h0v0l0,0a.06.06,0,0,1,0,0l0,0,0,0,0,0h0l-.05,0s0,0,0,0h0l-.05,0Zm-.78-.84h-.18l-.18,0-.09,0-.08-.05-.09,0h0A.27.27,0,0,1,32.3,22a.39.39,0,0,1,.25-.12h.12l.17,0L33,22,33,22l0,0h0l0,0h0l-.08,0h0l0,0Zm-.66-.24a.64.64,0,0,1,.2-.14l.08,0h.12l.07,0h.06l.11,0,.08,0,0,0h0l.07.06,0,0,0,0,.07,0h.05s0,0,0,0,0,0,0,0,0,0,0,0h0l-.05,0-.08-.06h0a.2.2,0,0,1-.07-.06h0s0,0-.06,0a.49.49,0,0,0-.17-.06h-.19l-.06,0h0a.89.89,0,0,0-.24.13l-.09.07-.05,0,0,0A.17.17,0,0,1,32.17,21.93Zm2.11-.19h.24l.1,0a1,1,0,0,1,.21.13l.06.08a.06.06,0,0,1,0,0h0l0,0L34.77,22a.89.89,0,0,0-.24-.13h-.3a.32.32,0,0,0-.18.06l0,0,0,0,0,0,0,0-.09.05,0,0h0s0,0,0,0,0,0,0,0,0,0,0,0h0l.11-.07h0l.07-.06.07,0h0A.4.4,0,0,1,34.28,21.74Zm0,.45h-.16l0,0h0l-.06,0H33.9s0,0,0,0h0A.27.27,0,0,1,34,22a.35.35,0,0,1,.13-.08.53.53,0,0,1,.17,0h.12a.68.68,0,0,1,.26.12.47.47,0,0,1,.09.06h0l0,0-.1,0a.26.26,0,0,1-.09.05h0A1,1,0,0,1,34.24,22.19Zm.22.11-.17,0h-.1a.37.37,0,0,1-.15,0h0l0,0h0l0,0h0l0,0,0,0h0l0,0h0s0,0,0,0h0l0,0h0l0,0,.06,0,0,0h.09a.37.37,0,0,0,.19,0h.16l.26-.08.06,0,0,0h0a.51.51,0,0,1-.16.09Zm.08-.84.09,0,0,0,0,0h0l0,0,0,0,.09.08a1,1,0,0,1,.13.15h0l-.19-.13-.11-.07-.06,0h-.1l-.11,0a1.37,1.37,0,0,0-.28,0h-.11l-.07,0-.05,0-.13.07h0s0,0-.05,0h0l0,0h0l-.06.12h0a.14.14,0,0,0,0,.07h0a.43.43,0,0,1,0,.05h0v0h0v0h0v0a.43.43,0,0,0,0,0v0h0v.06h0v.05h0v.05h0l0,.06h0l0,0h0v0h0v0h0v0s0,0,0,0h-.09l0,0h0v0h0v0h0v0l0,0h0a.08.08,0,0,1,0,0h0v0h0v0h0v0h0v0h0v0h0v-.06h0s0,0,0,0h0v0h0v0h0v0h0a.09.09,0,0,0,0-.05h0v0h0a.22.22,0,0,1,0-.08h0v0s0,0,0-.06h0v-.06s0,0,0-.06l0,0,.05,0,0,0,0,0,.13-.06.06,0h0l.06,0h.2A1,1,0,0,1,34.54,21.46Zm-2.43.23a.27.27,0,0,1,.08-.07l0,0,0,0h0l0,0,.05,0,.1-.05.23-.05h.19l.06,0H33l.15.07,0,0,0,0a.1.1,0,0,1,.05,0l0,0v0l0,.07s0,0,0,.06h0s0,0,0,0V22h0V22h0v.05h0v0h0v0h0v0h0v0h0v0h0s0,0,0,.06h0a0,0,0,0,1,0,0h0s0,0,0,0h0a.08.08,0,0,0,0,0h0v0h0v0h0s0,0,0,0h0v0h0v0h0a.09.09,0,0,1,0,.05h0l0,.05h0l0,0h0v0h0v0h0v0h0s0,0,0-.06v0h0v0h0v0h0a.06.06,0,0,1,0,0h0v-.11h0v0h0v0h0v0h0s0,0,0,0v0h0a.11.11,0,0,0,0,0l0-.06a.16.16,0,0,0,0-.07l0,0s0,0,0,0l-.05,0,0,0L33,21.58l-.07,0H32.8l-.27,0-.11,0h-.1l0,0-.1.06-.19.13h0A.93.93,0,0,1,32.11,21.69Zm.21.53a.47.47,0,0,1-.09-.06l0,0h0l0,0,.22.07.09,0h.1a.41.41,0,0,0,.2,0h0l0,0h0l0,0,.06,0,0,0h.09s0,0,0,0h0s0,0,0,0h0l0,0h0l0,0h-.12a.4.4,0,0,1-.15,0h-.1a.71.71,0,0,1-.2,0l-.1,0Zm.58,1.27h0a.8.8,0,0,1,.23,0h.64l.25.06h.05l-.05,0-.25-.15h0l0,0h-.17l0,0h-.31l0,0h0c-.11.06-.18.12-.25.16l-.05,0,.05,0a1.1,1.1,0,0,1,.25-.2l0,0h.08l.06,0h0l.05,0h.13l.05,0h0l.07,0h.08l0,0a1.33,1.33,0,0,1,.24.19l.06.06h0a.38.38,0,0,0-.19.07l-.08.07h0l0,0h0l0,0h0l-.11,0h-.2l-.09,0h0l0,0h0s0,0,0,0h0l-.08-.07A.38.38,0,0,0,32.9,23.49Zm.68.35h-.09l-.1,0-.1,0,0,0s0,0,0,.05a.54.54,0,0,0-.05.11.3.3,0,0,1,.05-.16.25.25,0,0,1,0-.07l0,0a.2.2,0,0,1,.09,0l.11,0h.09a.33.33,0,0,1,.1.06l0,0,.05.07a.42.42,0,0,1,0,.16.27.27,0,0,0,0-.11l0-.05,0,0Z"/><path class="cls-5" d="M32.52,22.1s0,0,0,0,0,0,0,0v0a.16.16,0,0,1,.07-.13.36.36,0,0,0-.21.11l-.05,0h0l.08,0,.08.05.17,0s-.06,0-.08,0S32.53,22.12,32.52,22.1Z"/><path class="cls-5" d="M33,22l0,0h0l0,0a.38.38,0,0,0-.17-.08s0,0,0,.05,0,0,0,.08h0s0,0,0,0v0a.06.06,0,0,0,0,0,0,0,0,0,0,0,0h0s0,0,0,0l0,0h0L33,22Z"/><path class="cls-5" d="M34.65,22s0,0,0,0a.36.36,0,0,0-.24-.12h0a.17.17,0,0,1,.08.13v0s0,0,0,0h0s0,0,0,0l0,0,.06,0,.09,0,.07-.05Z"/><path class="cls-5" d="M34.18,22.13s0,0,0,0h0s0,0,0,0h0a.15.15,0,0,1,0-.07s0,0,0-.05a.42.42,0,0,0-.14.09l0,0s0,0,0,0l0,0,.05,0,0,0h0l0,0h.09a.09.09,0,0,1-.06,0A0,0,0,0,0,34.18,22.13Z"/><path class="cls-6" d="M34.69,22a.68.68,0,0,0-.26-.12h-.12a.53.53,0,0,0-.17,0A.35.35,0,0,0,34,22a.27.27,0,0,0-.08.07h0s0,0,0,0H34l.06,0h0l0,0h.08l0,0h0l0,0-.05,0,0,0s0,0,0,0l0,0a.42.42,0,0,1,.14-.09l.1,0h0l0,0h0a.36.36,0,0,1,.24.12s0,0,0,0l0,0-.07.05-.09,0-.06,0h.17a.26.26,0,0,0,.09-.05l.1,0,0,0h0A.47.47,0,0,0,34.69,22Z"/><path class="cls-6" d="M34.31,22.2l0,0h0Z"/><path class="cls-6" d="M33,22,33,22l-.12-.06-.17,0h-.12a.39.39,0,0,0-.25.12.27.27,0,0,0-.08.07h0l.09,0,.08.05.09,0,.18,0,0,0-.17,0-.08-.05-.08,0h0l.05,0a.36.36,0,0,1,.21-.11h0l0,0h0l0,0h0l.06,0a.38.38,0,0,1,.17.08l0,0h0l0,0h0l-.07.05h0l0,0s0,0,0,0h-.05s0,0,0,0h.17l0,0h0l.08,0h0l0,0h0Z"/><path class="cls-7" d="M39.6,22.29a.24.24,0,0,0-.13-.05l-3.34-.12.42-.14a2.06,2.06,0,0,1,1-.19,2,2,0,0,0,1.2-.31l.26-.13a.5.5,0,0,1,.35,0c.06,0,.14.05.18,0a.11.11,0,0,0,0-.12.7.7,0,0,0-.63-.16,2,2,0,0,0-.37.13,1.76,1.76,0,0,1-1,.17,2.22,2.22,0,0,0-1,.15,2.51,2.51,0,0,1-.49.12l3.13-1.44c.07,0,.14-.09.1-.17A.09.09,0,0,0,39.1,20c-.05,0-.12,0-.13,0l-3.14,1.17.34-.29a2,2,0,0,1,.81-.55,2,2,0,0,0,1-.75l.18-.21a.58.58,0,0,1,.34-.12c.06,0,.15,0,.15-.09a.14.14,0,0,0-.07-.11.68.68,0,0,0-.63.1,1.56,1.56,0,0,0-.3.26,1.76,1.76,0,0,1-.9.56,2.17,2.17,0,0,0-.88.52,2.55,2.55,0,0,1-.41.3l2.34-2.53a.14.14,0,0,0,0-.2.11.11,0,0,0-.08,0h0a.19.19,0,0,0-.12.06l-2.46,2.28c.08-.14.14-.27.21-.4a2.06,2.06,0,0,1,.54-.82A1.88,1.88,0,0,0,36.55,18a1.18,1.18,0,0,1,.1-.27.46.46,0,0,1,.26-.23c.06,0,.13-.07.1-.15s0-.06-.1-.07a.66.66,0,0,0-.55.33,1.13,1.13,0,0,0-.17.35,1.76,1.76,0,0,1-.63.87,2.26,2.26,0,0,0-.61.81,2,2,0,0,1-.26.44l1.2-3.23c0-.07,0-.17,0-.2a.15.15,0,0,0-.18.1l-1.4,3.05c0-.16,0-.3,0-.45a2,2,0,0,1,.19-1,1.91,1.91,0,0,0,.17-1.23,1.5,1.5,0,0,1,0-.29.51.51,0,0,1,.15-.32c0-.05.1-.11,0-.17a.12.12,0,0,0-.12,0,.66.66,0,0,0-.38.52,1,1,0,0,0,0,.39,1.84,1.84,0,0,1-.24,1,2.27,2.27,0,0,0-.26,1,2.31,2.31,0,0,1-.07.5l-.13-3.45c0-.07,0-.16-.12-.16s-.13.09-.13.16l-.12,3.35a2.6,2.6,0,0,0-.15-.42,2.06,2.06,0,0,1-.18-1,2,2,0,0,0-.31-1.21,1,1,0,0,1-.13-.26.5.5,0,0,1,0-.35c0-.06,0-.14,0-.18a.11.11,0,0,0-.12,0,.66.66,0,0,0-.16.62,1.24,1.24,0,0,0,.13.37,1.78,1.78,0,0,1,.17,1.05,2.23,2.23,0,0,0,.14,1,2,2,0,0,1,.13.49l-1.44-3.13c0-.07-.1-.13-.17-.1a.15.15,0,0,0-.06.2L32.25,20c-.1-.13-.2-.23-.3-.34a2.18,2.18,0,0,1-.54-.81,1.91,1.91,0,0,0-.75-1,1.37,1.37,0,0,1-.21-.19.5.5,0,0,1-.12-.33c0-.07,0-.15-.09-.15a.11.11,0,0,0-.11.06.67.67,0,0,0,.1.64,1,1,0,0,0,.26.29,1.8,1.8,0,0,1,.56.91,2.24,2.24,0,0,0,.52.88,2.09,2.09,0,0,1,.3.4l-2.53-2.34a.14.14,0,0,0-.2,0,.11.11,0,0,0,0,.08.16.16,0,0,0,.06.12l2.28,2.46-.4-.2a2.21,2.21,0,0,1-.82-.54,2,2,0,0,0-1.07-.64l-.27-.09a.53.53,0,0,1-.24-.26c0-.06-.06-.14-.14-.11a.1.1,0,0,0-.07.1.66.66,0,0,0,.33.55,1.46,1.46,0,0,0,.35.18,1.76,1.76,0,0,1,.87.62,2.26,2.26,0,0,0,.81.61,2.73,2.73,0,0,1,.43.26L28,20c-.08,0-.17,0-.2.06a.11.11,0,0,0,0,.08.16.16,0,0,0,.1.09L31,21.59l-.45,0a2.17,2.17,0,0,1-1-.19,2,2,0,0,0-1.23-.18l-.29,0a.51.51,0,0,1-.32-.15c-.05,0-.11-.1-.17,0a.12.12,0,0,0,0,.13.7.7,0,0,0,.52.38,1.3,1.3,0,0,0,.39,0,1.8,1.8,0,0,1,1,.25,2.24,2.24,0,0,0,1,.25,2.89,2.89,0,0,1,.49.07l-3.44.13c-.07,0-.16,0-.16.13a.11.11,0,0,0,0,.08.22.22,0,0,0,.13,0l3.35.13-.43.14a2.13,2.13,0,0,1-1,.19,2,2,0,0,0-1.21.31l-.26.13a.5.5,0,0,1-.35,0c-.06,0-.14-.05-.18,0a.13.13,0,0,0,0,.13.7.7,0,0,0,.63.15,1.16,1.16,0,0,0,.37-.13,1.86,1.86,0,0,1,1.05-.17,2.23,2.23,0,0,0,1-.14,2.51,2.51,0,0,1,.49-.12l-3.13,1.43s-.08,0-.1.1a.11.11,0,0,0,0,.08.09.09,0,0,0,.06.06h.05l.08,0,3.14-1.16a3.11,3.11,0,0,0-.33.29,2.06,2.06,0,0,1-.81.54,2,2,0,0,0-1,.75,1.51,1.51,0,0,1-.19.22.48.48,0,0,1-.33.11c-.07,0-.15,0-.16.1a.12.12,0,0,0,.07.1.69.69,0,0,0,.64-.09,1.48,1.48,0,0,0,.29-.26,1.76,1.76,0,0,1,.91-.56,2.46,2.46,0,0,0,.88-.52,2.09,2.09,0,0,1,.4-.3l-2.34,2.52c-.06.06-.09.14,0,.2a.09.09,0,0,0,.08,0,.2.2,0,0,0,.12-.06l2.46-2.28a3.73,3.73,0,0,0-.2.4,2.09,2.09,0,0,1-.55.81,2,2,0,0,0-.63,1.08,2.83,2.83,0,0,1-.09.27.5.5,0,0,1-.26.23c-.06,0-.14.07-.11.14a.11.11,0,0,0,.1.08.69.69,0,0,0,.55-.33,1.51,1.51,0,0,0,.18-.36,1.71,1.71,0,0,1,.62-.86,2.28,2.28,0,0,0,.61-.82,2.73,2.73,0,0,1,.26-.43l-1.2,3.23a.15.15,0,0,0,.06.2h.08a.22.22,0,0,0,.09-.1l1.4-3.05a3.4,3.4,0,0,0,0,.45,2.21,2.21,0,0,1-.2,1,2,2,0,0,0-.17,1.23c0,.11,0,.21,0,.28a.64.64,0,0,1-.15.32c0,.05-.1.12,0,.18a.17.17,0,0,0,.12,0,.71.71,0,0,0,.39-.52,1.38,1.38,0,0,0,0-.4,1.76,1.76,0,0,1,.25-1,2.27,2.27,0,0,0,.25-1,2.23,2.23,0,0,1,.07-.5l.13,3.44c0,.08,0,.16.13.16s.12-.08.12-.16L33.74,25c0,.15.09.29.14.43a2.2,2.2,0,0,1,.19,1,2,2,0,0,0,.31,1.21,1.39,1.39,0,0,1,.12.25.57.57,0,0,1,0,.35c0,.07-.05.15,0,.18h0a.13.13,0,0,0,.08,0,.66.66,0,0,0,.16-.62,1.14,1.14,0,0,0-.13-.38,1.82,1.82,0,0,1-.17-1.05,2.28,2.28,0,0,0-.14-1,2.51,2.51,0,0,1-.12-.49l1.43,3.13a.25.25,0,0,0,.09.11h.09a.13.13,0,0,0,.07-.13.14.14,0,0,0,0-.07l-1.16-3.14c.09.12.19.23.29.34a2.18,2.18,0,0,1,.54.81,2.06,2.06,0,0,0,.75,1l.22.19a.48.48,0,0,1,.11.33c0,.06,0,.15.09.15h0a.12.12,0,0,0,.1-.06.67.67,0,0,0-.1-.64,1.08,1.08,0,0,0-.26-.3,1.78,1.78,0,0,1-.55-.9,2.25,2.25,0,0,0-.53-.88,2.41,2.41,0,0,1-.29-.4l2.52,2.34s.06.06.12.06a.12.12,0,0,0,.11-.11.28.28,0,0,0,0-.13l-2.28-2.45.4.2a2,2,0,0,1,.81.54,2,2,0,0,0,1.07.64,1.21,1.21,0,0,1,.27.09.48.48,0,0,1,.24.26c0,.05.06.11.11.11h0a.15.15,0,0,0,.08-.11.68.68,0,0,0-.34-.55,1,1,0,0,0-.35-.17,1.78,1.78,0,0,1-.86-.62,2.32,2.32,0,0,0-.82-.62,2.09,2.09,0,0,1-.43-.25L39,24.77a.17.17,0,0,0,.13,0,.09.09,0,0,0,.06-.06.11.11,0,0,0,0-.08c0-.06-.09-.09-.1-.1l-3-1.39c.15,0,.3,0,.45,0a2,2,0,0,1,1,.19,1.94,1.94,0,0,0,1.24.17,1.38,1.38,0,0,1,.28,0,.51.51,0,0,1,.32.15.21.21,0,0,0,.12.07.05.05,0,0,0,0,0s0,0,0-.12a.68.68,0,0,0-.52-.38,1.31,1.31,0,0,0-.39,0,1.73,1.73,0,0,1-1-.24,2.27,2.27,0,0,0-1-.25,2.89,2.89,0,0,1-.5-.08l3.44-.13a.16.16,0,0,0,.13,0,.12.12,0,0,0,0-.16Zm-.68,1a.59.59,0,0,1,.44.3.08.08,0,0,1,0,0l0,0a.58.58,0,0,0-.37-.17,1.62,1.62,0,0,0-.3,0,1.89,1.89,0,0,1-1.18-.17,2.24,2.24,0,0,0-1-.2c-.19,0-.38,0-.58,0a.45.45,0,0,0,0-.11c.59.11,1,0,1.57.26-.4-.35-.9-.19-1.54-.38a.34.34,0,0,1,0-.1,2.33,2.33,0,0,0,.56.09,2.07,2.07,0,0,1,.95.25,1.94,1.94,0,0,0,1.09.25A1.48,1.48,0,0,1,38.92,23.31Zm.15,1.37s-.06,0-.07,0l-3.27-1.21,0-.09,1.52.57-1.47-.68a.54.54,0,0,1,0-.1L39,24.63S39.08,24.66,39.07,24.68Zm-1.25.48a1.12,1.12,0,0,1,.33.16.63.63,0,0,1,.29.44v0l0-.06a.69.69,0,0,0-.28-.3,1.63,1.63,0,0,0-.29-.1,1.9,1.9,0,0,1-1-.6,2,2,0,0,0-.84-.57,3.56,3.56,0,0,1-.51-.27l.07-.09c.49.33,1,.35,1.35.84-.24-.47-.77-.52-1.29-.94a.41.41,0,0,0,0-.09,2,2,0,0,0,.49.3,2.22,2.22,0,0,1,.78.59A1.94,1.94,0,0,0,37.82,25.16Zm-1.16,1.72a.64.64,0,0,1,.11.52l0,0s0,0,0-.06A.6.6,0,0,0,36.6,27l-.23-.2a1.9,1.9,0,0,1-.71-1,2.32,2.32,0,0,0-.57-.85,4.23,4.23,0,0,1-.37-.45l.1-.05c.33.5.76.7.92,1.3,0-.53-.5-.78-.82-1.37,0,0,0,0,.08-.06a2.36,2.36,0,0,0,.33.46,2.17,2.17,0,0,1,.5.85,1.83,1.83,0,0,0,.59.94A1.31,1.31,0,0,1,36.66,26.88ZM35.8,28s0-.05,0-.05l-1.46-3.18.09,0,.68,1.47-.56-1.51.08-.05,1.22,3.28S35.82,28,35.8,28Zm-1.24.34a.25.25,0,0,1,0-.07.6.6,0,0,0,0-.41,1.76,1.76,0,0,0-.14-.27,2,2,0,0,1-.3-1.15,2.06,2.06,0,0,0-.19-1,3.31,3.31,0,0,1-.17-.56h.11c.12.58.43.93.36,1.55.17-.5-.17-.91-.24-1.57l.11,0a3,3,0,0,0,.11.55,2.27,2.27,0,0,1,.15,1,1.93,1.93,0,0,0,.17,1.1,1,1,0,0,1,.12.34.6.6,0,0,1-.1.52S34.56,28.29,34.56,28.3Zm-1.07.12s0-.06,0-.07l-.13-3.49h.09l.06,1.61.06-1.61h.1l-.13,3.49S33.51,28.42,33.49,28.42Zm-.43-3a2.17,2.17,0,0,1-.24,1,1.89,1.89,0,0,0-.26,1.09,1.09,1.09,0,0,1,0,.36.62.62,0,0,1-.29.44s0,0,0,0a.1.1,0,0,1,0-.05.64.64,0,0,0,.17-.38,1.58,1.58,0,0,0,0-.3,1.87,1.87,0,0,1,.16-1.18,2.11,2.11,0,0,0,.2-1,3.94,3.94,0,0,1,.06-.58l.1,0c-.11.58,0,1-.26,1.57.35-.4.19-.91.39-1.55h.09A3,3,0,0,0,33.06,25.4ZM31.17,28s0-.06,0-.08l1.22-3.27.08,0-.56,1.52.67-1.47.1,0-1.46,3.18S31.2,28,31.17,28Zm-.48-1.26a1.12,1.12,0,0,1-.16.33.61.61,0,0,1-.43.29h-.05l.06,0a.56.56,0,0,0,.3-.28,1.39,1.39,0,0,0,.1-.29,1.87,1.87,0,0,1,.61-1,2.36,2.36,0,0,0,.57-.85,3.14,3.14,0,0,1,.27-.51l.08.07c-.33.49-.35,1-.84,1.35.48-.24.52-.76.95-1.28l.08,0a2.8,2.8,0,0,0-.3.49,2.12,2.12,0,0,1-.59.79A1.88,1.88,0,0,0,30.69,26.7Zm-1.44-1.4a1.55,1.55,0,0,1-.27.24.65.65,0,0,1-.52.11l0,0h.06a.58.58,0,0,0,.39-.14,1.18,1.18,0,0,0,.2-.23,2,2,0,0,1,.95-.71,2.23,2.23,0,0,0,.85-.57c.14-.12.28-.25.45-.37,0,0,0,.07.05.1-.49.33-.69.76-1.29.93.53,0,.77-.51,1.36-.83l.06.08a2.71,2.71,0,0,0-.46.33,2.12,2.12,0,0,1-.84.5A1.82,1.82,0,0,0,29.25,25.3ZM28,24.63l3.18-1.45s0,.06,0,.09l-1.47.67,1.52-.56a.41.41,0,0,0,.05.09L28,24.68s0,0-.07,0S27.94,24.64,28,24.63Zm.5-1.17a1,1,0,0,1-.34.11.61.61,0,0,1-.53-.1l0,0,.06,0a.6.6,0,0,0,.41,0l.28-.13a1.82,1.82,0,0,1,1.15-.3,2.21,2.21,0,0,0,1-.2,3.2,3.2,0,0,1,.55-.17.41.41,0,0,1,0,.11c-.58.12-.93.43-1.55.36.51.17.91-.17,1.57-.24,0,0,0,.07,0,.11a2.31,2.31,0,0,0-.56.12,2.37,2.37,0,0,1-1,.14A1.83,1.83,0,0,0,28.45,23.46Zm-.4-2a.61.61,0,0,1-.44-.29.1.1,0,0,1,0,0l0,0a.58.58,0,0,0,.37.18l.31,0a1.87,1.87,0,0,1,1.18.16,2.21,2.21,0,0,0,1,.21,2.9,2.9,0,0,1,.58.05l0,.1c-.59-.11-1,.05-1.57-.26.4.35.9.19,1.54.39A.28.28,0,0,1,31,22a2.72,2.72,0,0,0-.56-.09,2.2,2.2,0,0,1-.95-.24,1.83,1.83,0,0,0-1.08-.25A1.16,1.16,0,0,1,28.05,21.42Zm-.15-1.37s.06,0,.07,0l3.28,1.22a.35.35,0,0,0-.05.08l-1.51-.56,1.47.67a.54.54,0,0,0,0,.1L28,20.1S27.89,20.07,27.9,20.05Zm1.26-.47a1.26,1.26,0,0,1-.33-.16.64.64,0,0,1-.3-.44.2.2,0,0,1,0-.05.33.33,0,0,0,0,.06.56.56,0,0,0,.28.31l.28.1a1.84,1.84,0,0,1,1,.6,2.2,2.2,0,0,0,.84.57,4.3,4.3,0,0,1,.52.27l-.07.08c-.5-.32-1-.35-1.35-.84.23.48.76.52,1.28,1a.56.56,0,0,1-.05.08,2.45,2.45,0,0,0-.48-.29,2.28,2.28,0,0,1-.79-.59A1.83,1.83,0,0,0,29.16,19.58Zm1.15-1.72a.59.59,0,0,1-.1-.52l0,0v.07a.64.64,0,0,0,.14.38,2.51,2.51,0,0,0,.23.21,1.86,1.86,0,0,1,.72.95,2.07,2.07,0,0,0,.56.84,4,4,0,0,1,.37.45l-.09.05c-.34-.49-.76-.69-.93-1.29,0,.53.5.77.82,1.36l-.07.06a2.74,2.74,0,0,0-.34-.46,2.24,2.24,0,0,1-.5-.84,1.87,1.87,0,0,0-.59-.95A1.25,1.25,0,0,1,30.31,17.86Zm.86-1.08s0,0,0,0L32.68,20l-.09,0-.68-1.47.57,1.51-.09.05-1.22-3.28S31.15,16.79,31.17,16.78Zm1.24-.34s0,0,0,.06a.55.55,0,0,0,0,.41,1.14,1.14,0,0,0,.13.28,1.82,1.82,0,0,1,.3,1.15,2.21,2.21,0,0,0,.19,1,4.59,4.59,0,0,1,.18.56h-.11c-.12-.59-.44-.94-.36-1.56-.18.51.17.91.23,1.58l-.1,0a3.27,3.27,0,0,0-.12-.56,2.07,2.07,0,0,1-.14-1,1.91,1.91,0,0,0-.18-1.1,1,1,0,0,1-.12-.34.62.62,0,0,1,.1-.52Zm1.08-.12s0,.05,0,.07l.14,3.49h-.1l-.06-1.62-.06,1.62h-.1l.13-3.5S33.47,16.32,33.49,16.32Zm.42,3a2.21,2.21,0,0,1,.24-1,1.86,1.86,0,0,0,.26-1.08,1.15,1.15,0,0,1,0-.37.64.64,0,0,1,.29-.44h0l0,.05a.59.59,0,0,0-.17.38,1.1,1.1,0,0,0,0,.3,1.89,1.89,0,0,1-.17,1.18,2.24,2.24,0,0,0-.2,1c0,.18,0,.37-.05.57l-.11,0c.11-.58,0-1,.26-1.57-.35.4-.19.91-.38,1.55h-.1A2.33,2.33,0,0,0,33.91,19.34Zm1.89-2.56s0,.06,0,.07l-1.21,3.28-.09-.05.56-1.51L34.39,20l-.1,0,1.46-3.18S35.78,16.77,35.8,16.78ZM36.28,18a1.12,1.12,0,0,1,.16-.33c.17-.24.35-.31.44-.3h0l-.06,0a.59.59,0,0,0-.3.28,1.28,1.28,0,0,0-.1.28,1.9,1.9,0,0,1-.6,1,2.06,2.06,0,0,0-.57.85,4.19,4.19,0,0,1-.27.51l-.09-.07c.33-.5.35-1,.84-1.35-.47.23-.52.76-.94,1.28l-.09-.05a3.15,3.15,0,0,0,.3-.48,2.12,2.12,0,0,1,.59-.79A2,2,0,0,0,36.28,18Zm1.44,1.4a1.12,1.12,0,0,1,.28-.25.63.63,0,0,1,.52-.1l0,0h-.06a.62.62,0,0,0-.39.15,1.5,1.5,0,0,0-.2.22,1.91,1.91,0,0,1-.95.72,2,2,0,0,0-.85.57,4.17,4.17,0,0,1-.45.36l0-.09c.49-.34.7-.76,1.3-.93-.53,0-.78.51-1.37.82l-.06-.07a2.74,2.74,0,0,0,.46-.34,2.29,2.29,0,0,1,.85-.5A1.9,1.9,0,0,0,37.72,19.44Zm1.35.61s0,.05,0,.05l-3.17,1.46,0-.09,1.47-.67-1.51.56a.41.41,0,0,1-.05-.09L39,20.05S39.07,20,39.07,20.05Zm-.55,1.23a1.45,1.45,0,0,1,.35-.12.68.68,0,0,1,.52.1s0,0,0,0h-.07a.6.6,0,0,0-.41,0,1.62,1.62,0,0,0-.27.13,1.86,1.86,0,0,1-1.15.3,2.18,2.18,0,0,0-1,.2c-.18.06-.36.12-.56.17A.45.45,0,0,1,36,22c.58-.12.93-.44,1.55-.36-.5-.17-.91.17-1.57.23l0-.1a2.31,2.31,0,0,0,.56-.12,2.1,2.1,0,0,1,1-.14A1.81,1.81,0,0,0,38.52,21.28Zm-3.2,2.58,0,0,0,0v0L35.2,24l-.09.09-.07.06,0,0,0,0,0,0-.07.06-.12.08-.1.05,0,0h-.09l-.09.05-.12,0-.09,0h-.12a.32.32,0,0,1-.09,0l-.14,0H33.1l-.14,0-.11,0h-.12l-.09,0-.12,0-.09-.05,0,0h0l0,0-.08,0-.12-.08L32,24.23l0,0h0l0,0h0l0,0a.46.46,0,0,1-.07-.07L31.77,24s0,0-.06-.07,0,0,0,0v0l0,0-.07-.07-.08-.12s0-.07-.05-.1v0l0,0h0v0l-.05-.09-.05-.12s0-.06,0-.09l0-.05v0s0,0,0,0l0-.1,0-.14a.37.37,0,0,0,0-.11v-.13s0-.07,0-.1,0,0,0-.06,0-.05,0-.07,0-.06,0-.09v-.13a.31.31,0,0,0,0-.1.89.89,0,0,1,0-.14.38.38,0,0,1,0-.1v-.12a.29.29,0,0,1,0-.1s0-.08,0-.12l.05-.08s0,0,0-.05l0,0,0,0,.05-.09.07-.12.08-.09v0h0v0h0l0,0,.06-.08.09-.09.08-.06,0,0,0,0,0,0s0-.05.08-.06l.11-.08.1-.06h.09l0,0,.09-.05.12,0,.09,0,.05,0h0l0,0,.1,0,.14,0,.11,0h.67l.14,0,.11,0h.12l.1,0,.11.05.09,0,0,0h0l0,0,.08.05.12.08.09.07,0,0h0l0,0h0l0,0,.08.06.09.09.06.08,0,0h0l0,0,.06.08.08.12,0,.1,0,0v.09a.41.41,0,0,1,0,.09l.05.12,0,.09v.11l0,.1,0,.14s0,.07,0,.11v.13s0,.06,0,.1,0,0,0,.06,0,0,0,.06,0,.07,0,.1v.12a.31.31,0,0,1,0,.1c0,.05,0,.1,0,.14s0,.07,0,.11v.12a.38.38,0,0,0,0,.1l-.05.12,0,.08s0,0,0,0v0l0,0,0,.09-.08.12-.07.08,0,0Zm2.42-5.7-2.38,2.56-.06-.07,1.1-1.19-1.19,1.1-.08-.06,2.57-2.38.06,0S37.74,18.15,37.74,18.16Zm-6,2.4-1.18-1.1,1.1,1.18-.06.08-2.38-2.57s0,0,0-.06.06,0,.07,0l2.56,2.38ZM31,22.21a.31.31,0,0,0,0,.1l-1.62.06,1.62.05a.41.41,0,0,0,0,.11l-3.5-.14s-.06,0-.06,0,0,0,.06,0Zm-1.76,4.37L31.62,24s0,.05.06.07l-1.11,1.19,1.19-1.11a.27.27,0,0,0,.08.07l-2.57,2.38s0,0-.06,0S29.23,26.59,29.24,26.58Zm6-2.4,1.18,1.1-1.1-1.19a.46.46,0,0,0,.07-.07l2.38,2.56s0,.05,0,.07,0,0-.06,0l-2.57-2.38ZM36,22.53a.38.38,0,0,0,0-.1l1.62-.06L36,22.31a.34.34,0,0,0,0-.1l3.5.13s.05,0,.06,0-.05,0-.06,0Z"/><path class="cls-7" d="M34.89,22l-.06-.08a1,1,0,0,0-.21-.13l-.1,0h-.24a.4.4,0,0,0-.17,0h0l-.07,0-.07.06h0l-.11.07h0s0,0,0,0,0,0,0,0,0,0,0,0h0l0,0,.09-.05,0,0,0,0,0,0,0,0a.32.32,0,0,1,.18-.06h.3a.89.89,0,0,1,.24.13l.08.07,0,0h0A.06.06,0,0,0,34.89,22Z"/><polygon class="cls-7" points="35.02 21.84 35.02 21.84 35.02 21.84 35.02 21.84"/><path class="cls-7" d="M34.89,21.69l-.09-.08,0,0,0,0h0l0,0,0,0-.09,0a1,1,0,0,0-.24-.05h-.2l-.06,0h0l-.06,0-.13.06,0,0,0,0-.05,0,0,0s0,0,0,.06v.06h0s0,0,0,.06v0h0a.22.22,0,0,0,0,.08h0v0h0a.09.09,0,0,1,0,.05h0v0h0v0h0v0h0s0,0,0,0h0v.06h0v0h0v0h0v0h0v0h0v0h0a.08.08,0,0,0,0,0h0l0,0v0h0v0h0v0h0l0,0h.09s0,0,0,0v0h0v0h0v0h0l0,0h0l0-.06h0v-.05h0v-.05h0v-.06h0v0a.43.43,0,0,1,0,0v0h0v0h0v0h0a.43.43,0,0,0,0-.05h0a.14.14,0,0,1,0-.07h0l.06-.12h0l0,0h0s0,0,.05,0h0l.13-.07.05,0,.07,0h.11a1.37,1.37,0,0,1,.28,0l.11,0h.1l.06,0,.11.07.19.13h0A1,1,0,0,0,34.89,21.69Z"/><path class="cls-7" d="M34.16,22.08h0s0,0,0,0a0,0,0,0,1,0,0,.09.09,0,0,0,.06,0h0s0,0,0,0,0,0,.08,0l0,0s0,0,0,0h0s0,0,0,0v0a.17.17,0,0,0-.08-.13h0l0,0h0l-.1,0s0,0,0,.05a.15.15,0,0,0,0,.07h0S34.16,22.07,34.16,22.08Z"/><path class="cls-7" d="M34.48,22.24h-.16a.37.37,0,0,1-.19,0H34l0,0-.06,0,0,0h0l0,0h0s0,0,0,0h0l0,0h0l0,0,0,0h0l0,0h0l0,0h0a.37.37,0,0,0,.15,0h.1l.17,0,.13,0a.51.51,0,0,0,.16-.09h0l0,0-.06,0Z"/><path class="cls-7" d="M33.39,22.94l0,0h0l0,0,0-.06h0v0a.07.07,0,0,1,0,.06l-.05,0h0l0,0s0,0,0,0v0s0,0,0,0h0s0-.06.05-.07l0,0,0,0-.07,0a.14.14,0,0,0,0,.06s0,0,0,.05h0a.08.08,0,0,0,0,0v0a.08.08,0,0,0,0,0s0,0,0,0l.05,0h0l.05,0,0,0a0,0,0,0,0,0,0h0l0,0h.28l0,0,.05,0h0s0,0,0,0l.05,0h0l0,0,0,0,0,0a.06.06,0,0,0,0,0l0,0v0h0a.08.08,0,0,0,0,0,.16.16,0,0,0,0-.09l-.07,0a.11.11,0,0,1,.07.11h0s0,0,0,.05h0l0,0,0,0h0a0,0,0,0,1,0,0,.06.06,0,0,1,0-.06h0l0,.05,0,0h-.16l-.06,0Z"/><path class="cls-7" d="M33.8,23.24l0,0h-.08l-.07,0h0l-.05,0h-.13l-.05,0h0l-.06,0h-.08l0,0a1.1,1.1,0,0,0-.25.2l-.05,0,.05,0c.07,0,.14-.1.25-.16h0l0,0h.31l0,0h.17l0,0h0l.25.15.05,0L34,23.43A1.33,1.33,0,0,0,33.8,23.24Z"/><path class="cls-7" d="M34.05,23.49l-.25-.06h-.64a.8.8,0,0,0-.23,0h0a.38.38,0,0,1,.2.08l.08.07h0s0,0,0,0h0l0,0h0l.09,0h.2l.11,0h0l0,0h0l0,0h0l.08-.07a.38.38,0,0,1,.19-.07h0Zm-.2,0-.06,0,0,0,0,0h0l0,0h0l-.1,0h-.21l-.1,0h0l0,0h0l0,0,0,0-.06,0a.31.31,0,0,0-.18,0l.21,0h.22l.11,0h0l.1,0h.23l.22,0A.44.44,0,0,0,33.85,23.52Z"/><path class="cls-7" d="M33.73,23.86l0,0a.33.33,0,0,0-.1-.06h-.09l-.11,0a.2.2,0,0,0-.09,0l0,0a.25.25,0,0,0,0,.07.3.3,0,0,0-.05.16A.54.54,0,0,1,33.2,24s0,0,0-.05l0,0,.1,0,.1,0h.09l.1.05,0,0,0,.05a.27.27,0,0,1,0,.11.42.42,0,0,0,0-.16Z"/><path class="cls-7" d="M32.27,21.65l0,0h.1l.11,0,.27,0H33l.07,0,.09.05,0,0,.05,0s0,0,0,0l0,0a.16.16,0,0,1,0,.07l0,.06a.11.11,0,0,1,0,0h0v0s0,0,0,0h0v0h0v0h0v0h0v.11h0a.06.06,0,0,0,0,0h0v0h0v0h0v0s0,0,0,.06h0v0h0v0h0v0h0l0,0h0l0-.05h0a.09.09,0,0,0,0-.05h0v0h0v0h0s0,0,0,0h0v0h0v0h0a.08.08,0,0,1,0,0h0s0,0,0,0h0a0,0,0,0,0,0,0h0s0,0,0-.06h0v0h0v0h0v0h0v0h0v0h0V22h0V22h0v-.09s0,0,0,0h0s0,0,0-.06l0-.07v0l0,0a.1.1,0,0,0-.05,0l0,0,0,0L33,21.46h-.09l-.06,0h-.19l-.23.05-.1.05-.05,0,0,0h0l0,0,0,0a.27.27,0,0,0-.08.07.93.93,0,0,0-.13.15h0l.19-.13Z"/><path class="cls-7" d="M32.46,21.82h0l.06,0h.19a.49.49,0,0,1,.17.06s0,0,.06,0h0a.2.2,0,0,0,.07.06h0l.08.06.05,0h0s0,0,0,0,0,0,0,0,0,0,0,0h-.05l-.07,0,0,0,0,0L33,21.8h0l0,0-.08,0-.11,0h-.06l-.07,0h-.12l-.08,0a.64.64,0,0,0-.2.14.17.17,0,0,0-.07.08l0,0,.05,0,.09-.07A.89.89,0,0,1,32.46,21.82Z"/><path class="cls-7" d="M32.74,21.89l-.06,0h0l0,0h0l0,0h0a.16.16,0,0,0-.07.13v0s0,0,0,0,0,0,0,0,0,0,0,0,.05,0,.08,0l0,0h.06s0,0,0,0h0a0,0,0,0,1,0,0,.06.06,0,0,1,0,0v0s0,0,0,0h0s0-.05,0-.08S32.76,21.91,32.74,21.89Z"/><path class="cls-7" d="M33,22.28h.11l0,0h0l0,0h0s0,0,0,0h0s0,0,0,0h-.09l0,0-.06,0,0,0h0l0,0h0a.41.41,0,0,1-.2,0h-.1l-.09,0-.22-.07,0,0h0l0,0a.47.47,0,0,0,.09.06l.07,0,.1,0a.71.71,0,0,0,.2,0h.1a.4.4,0,0,0,.15,0Z"/></g></g><path class="cls-3" d="M33.19,45.59a7.06,7.06,0,0,1-2.48-.45L16.84,39.87a7,7,0,0,1-4.51-6.52V13.16a7,7,0,0,1,4.51-6.52L30.71,1.37a7,7,0,0,1,4.95,0L49.54,6.64A7,7,0,0,1,54,13.16V33.35a7,7,0,0,1-4.5,6.52L35.66,45.14A7,7,0,0,1,33.19,45.59Zm0-43.06a5.25,5.25,0,0,0-1.91.35L17.41,8.14a5.4,5.4,0,0,0-3.47,5V33.35a5.39,5.39,0,0,0,3.47,5l13.87,5.26a5.32,5.32,0,0,0,3.81,0L49,38.37a5.4,5.4,0,0,0,3.46-5V13.16a5.41,5.41,0,0,0-3.46-5L35.09,2.88A5.41,5.41,0,0,0,33.19,2.53Z"/></g></g></svg>