<svg xmlns="http://www.w3.org/2000/svg" xmlns:xlink="http://www.w3.org/1999/xlink" viewBox="0 0 65.74 44.67"><defs><style>.cls-1{fill:none;}.cls-2{clip-path:url(#clip-path);}.cls-3{fill:#003876;}.cls-4,.cls-6{fill:#fff;}.cls-4{fill-rule:evenodd;}.cls-5{fill:#ca202b;}</style><clipPath id="clip-path"><path class="cls-1" d="M37.8,6.47,23.93,1.21a6.12,6.12,0,0,0-4.38,0L5.67,6.47a6.18,6.18,0,0,0-4,5.77V32.43a6.18,6.18,0,0,0,4,5.77l13.88,5.26a6.12,6.12,0,0,0,4.38,0L37.8,38.2a6.18,6.18,0,0,0,4-5.77V12.24A6.18,6.18,0,0,0,37.8,6.47Z"/></clipPath></defs><title>australia</title><g id="Layer_2" data-name="Layer 2"><g id="OBJECTS"><g class="cls-2"><g id="australia"><rect class="cls-3" y="0.07" width="65.74" height="44.52"/><polygon class="cls-4" points="33.76 0.07 33.15 0.07 20.37 6.46 20.37 0.07 12.9 0.07 12.9 6.46 0.12 0.07 0 0.07 0 5.48 3.69 7.34 0 7.34 0 14.84 3.69 14.84 0 16.7 0 22.17 12.9 15.72 12.9 22.35 20.37 22.35 20.37 15.72 33.64 22.35 33.76 22.35 33.76 16.94 29.58 14.84 33.76 14.84 33.76 7.34 29.58 7.34 33.76 5.24 33.76 0.07"/><polygon class="cls-5" points="0 2.73 0 4.53 5.61 7.34 9.23 7.34 0 2.73"/><polygon class="cls-5" points="0 21.25 12.78 14.84 9.19 14.84 0 19.45 0 21.25"/><polygon class="cls-5" points="18.88 0.07 14.49 0.07 14.49 8.89 0 8.89 0 13.29 14.49 13.29 14.49 22.35 18.88 22.35 18.88 13.29 33.76 13.29 33.76 8.89 18.88 8.89 18.88 0.07"/><polygon class="cls-5" points="24.17 14.84 33.76 19.66 33.76 17.86 27.77 14.84 24.17 14.84"/><polygon class="cls-5" points="24.18 7.34 33.76 2.52 33.76 0.74 20.59 7.34 24.18 7.34"/><path class="cls-4" d="M16.33,26.29,17.74,31l4.58-1.85-2.83,4.06,4.3,2.42L18.87,36l.78,4.88L16.33,37.2,13,40.86,13.8,36l-4.93-.32,4.31-2.42-2.82-4.06L14.93,31l1.4-4.74ZM41.24,16.11l.51,1.72,1.66-.68-1,1.47,1.56.88-1.78.12.28,1.77-1.2-1.33L40,21.39l.28-1.77-1.79-.12,1.56-.88-1-1.47,1.66.68.51-1.72ZM57,21.31l.42,1.29h1.35l-1.1.8.43,1.3L57,23.89l-1.1.81.42-1.3-1.1-.8h1.36L57,21.31ZM51.93,5.39l.51,1.72,1.65-.68-1,1.47,1.56.88-1.78.12.28,1.77-1.2-1.33-1.2,1.33L51,8.9l-1.79-.12,1.56-.88-1-1.47,1.66.68.51-1.72Zm9.21,8.07.51,1.72,1.66-.67-1,1.47,1.56.88L62.06,17l.29,1.77-1.21-1.33-1.2,1.33L60.22,17l-1.78-.11L60,16l-1-1.47,1.66.67.51-1.72ZM51.87,33.17l.51,1.72L54,34.22l-1,1.47,1.56.88-1.79.12.29,1.77-1.2-1.33-1.21,1.33L51,36.69l-1.79-.12,1.56-.88-1-1.47,1.66.67Z"/></g></g><path class="cls-6" d="M21.74,44.67a7.06,7.06,0,0,1-2.48-.45L5.39,39a7,7,0,0,1-4.5-6.52V12.24a7,7,0,0,1,4.5-6.52L19.26.45a7,7,0,0,1,4.95,0L38.09,5.72a7,7,0,0,1,4.5,6.52V32.43A7,7,0,0,1,38.09,39L24.21,44.22A7,7,0,0,1,21.74,44.67Zm0-43.06A5.25,5.25,0,0,0,19.83,2L6,7.22a5.42,5.42,0,0,0-3.47,5V32.43a5.41,5.41,0,0,0,3.47,5l13.87,5.26a5.32,5.32,0,0,0,3.81,0l13.88-5.26a5.4,5.4,0,0,0,3.46-5V12.24a5.41,5.41,0,0,0-3.46-5L23.64,2A5.41,5.41,0,0,0,21.74,1.61Z"/></g></g></svg>