<svg xmlns="http://www.w3.org/2000/svg" xmlns:xlink="http://www.w3.org/1999/xlink" viewBox="0 0 61.79 44.67"><defs><style>.cls-1{fill:none;}.cls-2{clip-path:url(#clip-path);}.cls-3{fill:#f8d835;}.cls-4{fill:#dc1b29;}.cls-5{fill:#fff;}</style><clipPath id="clip-path"><path class="cls-1" d="M46.57,6.47,32.69,1.21a6.12,6.12,0,0,0-4.38,0L14.44,6.47a6.17,6.17,0,0,0-4,5.77V32.43a6.17,6.17,0,0,0,4,5.77l13.87,5.26a6.12,6.12,0,0,0,4.38,0L46.57,38.2a6.17,6.17,0,0,0,4-5.77V12.24A6.17,6.17,0,0,0,46.57,6.47Z"/></clipPath></defs><title>belgium</title><g id="Layer_2" data-name="Layer 2"><g id="OBJECTS"><g class="cls-2"><g id="belgium"><g id="flag"><rect y="1.17" width="20.72" height="41.99"/><rect class="cls-3" x="20.57" y="1.34" width="20.72" height="41.99"/><rect class="cls-4" x="41.07" y="1.55" width="20.72" height="41.99"/><rect class="cls-4" x="40.64" y="1.34" width="20.72" height="41.99"/></g></g></g><path class="cls-5" d="M30.5,44.67A7,7,0,0,1,28,44.22L14.16,39a7,7,0,0,1-4.51-6.52V12.24a7,7,0,0,1,4.51-6.52L28,.45A7,7,0,0,1,33,.45L46.85,5.72a7,7,0,0,1,4.51,6.52V32.43A7,7,0,0,1,46.85,39L33,44.22A7.06,7.06,0,0,1,30.5,44.67Zm0-43.06A5.2,5.2,0,0,0,28.6,2L14.73,7.22a5.4,5.4,0,0,0-3.47,5V32.43a5.39,5.39,0,0,0,3.47,5L28.6,42.71a5.32,5.32,0,0,0,3.81,0l13.87-5.26a5.39,5.39,0,0,0,3.47-5V12.24a5.4,5.4,0,0,0-3.47-5L32.41,2A5.43,5.43,0,0,0,30.5,1.61Z"/></g></g></svg>