<svg xmlns="http://www.w3.org/2000/svg" xmlns:xlink="http://www.w3.org/1999/xlink" viewBox="0 0 61.93 44.67"><defs><style>.cls-1{fill:none;}.cls-2{clip-path:url(#clip-path);}.cls-3,.cls-7{fill:#219256;}.cls-4{fill:#f8e334;}.cls-5{fill:#042c81;}.cls-6{fill:#fff;}.cls-7{fill-rule:evenodd;}</style><clipPath id="clip-path"><path class="cls-1" d="M47,6.47,33.13,1.21a6.12,6.12,0,0,0-4.38,0L14.88,6.47a6.18,6.18,0,0,0-4,5.77V32.43a6.18,6.18,0,0,0,4,5.77l13.87,5.26a6.12,6.12,0,0,0,4.38,0L47,38.2a6.18,6.18,0,0,0,4-5.77V12.24A6.18,6.18,0,0,0,47,6.47Z"/></clipPath></defs><title>brazil</title><g id="Layer_2" data-name="Layer 2"><g id="OBJECTS"><g class="cls-2"><g id="brazil"><rect class="cls-3" y="1.43" width="61.93" height="41.8"/><polygon class="cls-4" points="4.67 22.31 30.68 38.92 56.7 22.31 30.68 5.69 4.67 22.31"/><path class="cls-5" d="M41.66,22.31a11,11,0,1,1-11-11A11,11,0,0,1,41.66,22.31Z"/><path class="cls-6" d="M20.65,17.87a10.78,10.78,0,0,0-.59,1.68,25.09,25.09,0,0,1,21.1,6,12.22,12.22,0,0,0,.39-1.74A26.55,26.55,0,0,0,24.42,17.6,27.53,27.53,0,0,0,20.65,17.87Z"/><path class="cls-7" d="M26.65,18.68,26.51,18l-.26,0-.09,1h.17l.07-.71.14.73h.17l.27-.69-.07.71.18,0,.09-1-.26,0ZM25,18.45l.59,0V18.3l-.6,0v-.21l.71,0V17.9l-.89,0,0,1.05.94,0v-.19l-.76,0ZM24,17.87h-.49v1H24a.45.45,0,0,0,.44-.45v-.15A.43.43,0,0,0,24,17.87Zm0,.85h-.29v-.66H24a.29.29,0,0,1,.29.28v.09A.29.29,0,0,1,24,18.72Zm-2.78-.66a.49.49,0,0,0-.4.58.5.5,0,0,0,.53.46.49.49,0,0,0,.4-.58A.5.5,0,0,0,21.2,18.06Zm.1.85a.31.31,0,0,1-.31-.3.31.31,0,0,1,.24-.36.31.31,0,0,1,.31.3A.31.31,0,0,1,21.3,18.91Zm1.77-.69a.33.33,0,0,0-.35-.3l-.6,0,.06,1h.19l0-.39.41,0a.62.62,0,0,1,.13.38h.18c0-.11,0-.34-.14-.42A.35.35,0,0,0,23.07,18.22Zm-.33.16-.41,0,0-.27.41,0,.14.13Zm18.1,5.22a.53.53,0,1,0,0,.7A.5.5,0,0,0,40.84,23.6Zm-.11.58a.3.3,0,0,1-.42.08.29.29,0,0,1,0-.42.3.3,0,0,1,.42-.09A.31.31,0,0,1,40.73,24.18ZM36.31,20.7l-.53-.27-.48.93.17.09.18-.35.37.19a.56.56,0,0,1-.09.39l.16.08c.06-.11.16-.31.1-.44a.33.33,0,0,0,.12-.62Zm0,.35-.18.06-.36-.18.12-.24.36.18Zm-2.62-1.52a.53.53,0,0,0-.36,1,.49.49,0,0,0,.62-.32A.5.5,0,0,0,33.65,19.53Zm.08.59a.3.3,0,0,1-.37.21.3.3,0,0,1-.15-.4.28.28,0,1,1,.52.19Zm4,1.54.1-.17L37,21.05l-.52.91.82.47.1-.17-.67-.38.14-.23.52.29.08-.15-.52-.3.11-.18Zm-2.74-1.61a.5.5,0,0,0-.64.29.49.49,0,0,0,.22.67.43.43,0,0,0,.35,0l-.06.13.14.06.21-.48A.51.51,0,0,0,34.94,20.05Zm0,.59-.18-.08-.07.14.16.07a.27.27,0,0,1-.29.06.31.31,0,0,1-.13-.41.32.32,0,0,1,.39-.19A.31.31,0,0,1,35,20.64Zm-2.5-1.51L31.91,19l-.32,1,.18.06.12-.37.4.13a.56.56,0,0,1,0,.39l.17.06c0-.11.11-.33,0-.45a.35.35,0,0,0,.24-.22A.33.33,0,0,0,32.48,19.13Zm0,.35-.17.09L32,19.44l.08-.25.38.12Zm7.27,3.32c-.11-.08-.4-.31-.59-.05s.43.6.31.77-.13.06-.25,0-.17-.19-.11-.27l-.19-.14c-.16.21.05.44.19.54s.41.23.57,0-.42-.61-.31-.75.14-.06.23,0,.16.16.1.25l.18.14A.34.34,0,0,0,39.77,22.8ZM28.32,19.21l.77.13,0-.18-.59-.1,0-.23.48.08,0-.18-.48-.08,0-.16.57.1,0-.18-.75-.13ZM38.63,22c-.12-.07-.42-.28-.59,0s.46.57.34.75-.12.06-.25,0-.18-.18-.12-.27l-.2-.12c-.14.22.07.44.22.53s.42.21.57,0-.45-.59-.35-.74.14-.06.23,0,.17.16.11.25l.19.13A.35.35,0,0,0,38.63,22Zm-7.47-3.28-.58-.15-.27,1,.18,0,.1-.38.4.11a.33.33,0,0,0,.17-.64Zm0,.35-.16.1-.39-.11.07-.26.38.1Z"/><polygon class="cls-6" points="34.26 18.96 34.53 18.76 34.19 18.76 34.09 18.43 33.98 18.76 33.64 18.76 33.92 18.96 33.81 19.28 34.09 19.08 34.36 19.28 34.26 18.96"/><polygon class="cls-6" points="33.78 21.79 33.97 21.66 33.74 21.66 33.67 21.44 33.6 21.66 33.37 21.66 33.56 21.79 33.48 22.01 33.67 21.87 33.85 22.01 33.78 21.79"/><path class="cls-6" d="M21.84,20.19l-.11-.33-.11.33h-.34l.28.2-.11.33.28-.21.27.21-.1-.33.28-.2Zm1,4.61-.1-.32-.11.32h-.34l.28.2-.11.33.28-.2.28.2L22.87,25l.28-.2Zm-1.37,1-.07-.22-.07.22h-.23l.18.13-.07.21.19-.13.18.13L21.47,26l.18-.13Zm2.39-1.63-.05-.16-.05.16h-.16l.13.09-.05.16.13-.1.14.1-.05-.16.13-.09Zm1.25,1.7L25,25.64l-.08.27h-.29l.23.17-.09.27.23-.16.23.16-.09-.27.24-.17ZM24.74,27l-.09-.28-.09.28h-.28l.23.16-.09.27.23-.16.23.16-.08-.27L25,27Zm13.35-.47.28-.2.28.2-.11-.33.28-.2h-.34l-.11-.33-.1.33h-.35l.28.2Zm2.1-.38H40L39.89,26l-.07.21H39.6l.18.14-.07.21.18-.13.19.13L40,26.3ZM38.91,27l-.09-.28-.09.28h-.28l.23.16-.09.27.23-.16.23.16L39,27.17l.23-.16Zm-2.73,2-.09.27h-.28l.23.17-.09.27.23-.17.23.17-.09-.27.23-.17h-.28Zm0,1.4-.07-.22-.07.22h-.23l.19.14-.07.21.18-.13.19.13-.07-.21.18-.14Zm1.11-2-.07-.22-.07.22H37l.18.14-.07.21.19-.13.18.13-.07-.21.18-.14Zm.89-.58-.08-.27-.09.27h-.28l.22.17-.08.27.23-.16.23.16-.09-.27.23-.17ZM36,28.6l.18-.13.19.13-.07-.21.18-.14H36.2L36.13,28l-.07.21h-.23l.19.14Zm-9.36-6-.08-.27-.09.27h-.29l.23.17-.08.27.23-.17.23.17-.09-.27.23-.17Zm4.2,4.46-.11-.33-.1.33h-.34l.27.2-.1.32.27-.2.28.2-.11-.32.28-.2ZM32,24.93,32,24.66l-.08.27h-.29l.23.17-.09.27L32,25.2l.23.17-.09-.27.24-.17Zm-1.59-.55.23-.16.23.16-.08-.27.23-.16h-.29l-.09-.28L30.6,24h-.29l.23.16Zm-.8.57-.07-.21-.07.21h-.23l.19.14-.07.22.18-.14.18.14-.07-.22.19-.14Zm.56.89.14-.1h-.17l-.05-.15-.05.15h-.16l.13.1L30,26l.13-.09.14.09Zm3.85,3.73L34,29.3l-.09.27h-.29l.24.17-.09.27.23-.17.23.17-.09-.27.23-.17Zm.92-.94-.07-.22-.07.22h-.23l.18.13-.07.22.19-.14.18.14L35,28.76l.19-.13Zm-1.81-.27-.07-.22-.07.22H32.8l.19.13-.07.22.18-.14.19.14-.07-.22.18-.13ZM26.39,28l-.11-.32-.1.32h-.35l.28.2-.11.33.28-.2.28.2-.11-.33.28-.2Zm4.33,2.86,0-.11,0,.11h-.11l.09.06,0,.11.09-.06.1.06,0-.11.09-.06Z"/></g></g><path class="cls-6" d="M30.94,44.67a7,7,0,0,1-2.47-.45L14.59,39a7,7,0,0,1-4.5-6.52V12.24a7,7,0,0,1,4.5-6.52L28.47.45a7,7,0,0,1,5,0L47.29,5.72a7,7,0,0,1,4.5,6.52V32.43A7,7,0,0,1,47.29,39L33.42,44.22A7.06,7.06,0,0,1,30.94,44.67Zm0-43.06A5.16,5.16,0,0,0,29,2L15.16,7.22a5.41,5.41,0,0,0-3.46,5V32.43a5.4,5.4,0,0,0,3.46,5L29,42.71a5.32,5.32,0,0,0,3.81,0l13.87-5.26a5.41,5.41,0,0,0,3.47-5V12.24a5.42,5.42,0,0,0-3.47-5L32.85,2A5.47,5.47,0,0,0,30.94,1.61Z"/></g></g></svg>