<svg xmlns="http://www.w3.org/2000/svg" xmlns:xlink="http://www.w3.org/1999/xlink" viewBox="0 0 61.61 44.67"><defs><style>.cls-1{fill:none;}.cls-2{clip-path:url(#clip-path);}.cls-3{fill:#04307c;}.cls-4{fill:#cc172d;}.cls-5{fill:#fff;}</style><clipPath id="clip-path"><path class="cls-1" d="M46.87,6.47,33,1.21a6.12,6.12,0,0,0-4.38,0L14.74,6.47a6.18,6.18,0,0,0-4,5.77V32.43a6.18,6.18,0,0,0,4,5.77l13.87,5.26a6.12,6.12,0,0,0,4.38,0L46.87,38.2a6.17,6.17,0,0,0,4-5.77V12.24A6.17,6.17,0,0,0,46.87,6.47Z"/></clipPath></defs><title>costa-rica</title><g id="Layer_2" data-name="Layer 2"><g id="OBJECTS"><g class="cls-2"><g id="costa_rica" data-name="costa rica"><g id="flag"><rect class="cls-3" y="1.57" width="61.61" height="6.94"/><rect class="cls-3" y="36.25" width="61.61" height="6.94"/><rect class="cls-4" y="15.45" width="61.61" height="13.87"/><rect class="cls-5" y="29.32" width="61.61" height="6.94"/><rect class="cls-5" y="8.51" width="61.61" height="6.94"/></g></g></g><path class="cls-5" d="M30.8,44.67a7,7,0,0,1-2.47-.45L14.45,39A7,7,0,0,1,10,32.43V12.24a7,7,0,0,1,4.5-6.52L28.33.45a7,7,0,0,1,5,0L47.15,5.72a7,7,0,0,1,4.51,6.52V32.43A7,7,0,0,1,47.15,39L33.28,44.22A7.06,7.06,0,0,1,30.8,44.67Zm0-43.06A5.2,5.2,0,0,0,28.9,2L15,7.22a5.41,5.41,0,0,0-3.46,5V32.43a5.4,5.4,0,0,0,3.46,5L28.9,42.71a5.32,5.32,0,0,0,3.81,0l13.87-5.26a5.39,5.39,0,0,0,3.47-5V12.24a5.4,5.4,0,0,0-3.47-5L32.71,2A5.47,5.47,0,0,0,30.8,1.61Z"/></g></g></svg>