<svg xmlns="http://www.w3.org/2000/svg" xmlns:xlink="http://www.w3.org/1999/xlink" viewBox="0 0 66.34 46"><defs><style>.cls-1{fill:none;}.cls-2{clip-path:url(#clip-path);}.cls-3{fill:#fff;}.cls-4{fill:#1e2788;}.cls-5{fill:#cb0028;}.cls-6{fill:#3a7aa1;}.cls-7{fill:#4c73d5;}.cls-8{fill:#fbfc2b;}.cls-9{fill:#c2a21f;}.cls-10{fill:#613f21;}.cls-11{fill:#160080;}.cls-12{fill:#d30028;}.cls-13{fill:#ba0019;}.cls-14{fill:#82373b;}.cls-15{fill:#83353b;}.cls-16{fill:#e8d629;}.cls-17{fill:#624e0f;}.cls-18{fill:#f4c627;}.cls-19{fill:#f4c427;}</style><clipPath id="clip-path"><path class="cls-1" d="M49.24,6.47,35.36,1.21a6.12,6.12,0,0,0-4.38,0L17.11,6.47a6.18,6.18,0,0,0-4,5.77V32.43a6.18,6.18,0,0,0,4,5.77L31,43.46a6.12,6.12,0,0,0,4.38,0L49.24,38.2a6.17,6.17,0,0,0,4-5.77V12.24A6.17,6.17,0,0,0,49.24,6.47Z"/></clipPath></defs><title>croatia</title><g id="Layer_2" data-name="Layer 2"><g id="OBJECTS"><g class="cls-2"><g id="croatia"><rect class="cls-3" y="16.14" width="66.34" height="14.93"/><rect class="cls-4" y="31.07" width="66.34" height="14.93"/><rect class="cls-5" y="1.21" width="66.34" height="14.93"/><path class="cls-3" d="M24.27,15.93a26.78,26.78,0,0,1,8.78-1.52,26.49,26.49,0,0,1,9,1.54l2.23-4.51L42.73,8.71,39.91,9.86s-2-2.15-2-2.15L35.42,9.22l-2.35-1.8L30.85,9.2,28.27,7.7,26.38,9.94,23.55,8.73,22,11.44Z"/><path class="cls-5" d="M42.1,16l-.05,0a26.56,26.56,0,0,0-8.93-1.53A26.85,26.85,0,0,0,24.29,16L22,11.47,23.5,8.7l2.91,1.18,1.81-2.22,2.67,1.48L33,7.37l2.43,1.8L37.9,7.65c.83.84,2,2.1,2.05,2.15S42,9,42.71,8.65l1.65,2.76L42.1,16ZM23.53,8.79,22.1,11.48l2.23,4.42a25.17,25.17,0,0,1,8.72-1.55,26.65,26.65,0,0,1,9,1.52l2.21-4.46L42.68,8.74c-2.74,1.18-2.75,1.18-2.77,1.18a20.66,20.66,0,0,1-2-2.17L35.46,9.28,33,7.47,30.89,9.25,28.23,7.76,26.43,10l-2.9-1.19Z"/><path class="cls-6" d="M38.6,14.68l1.28-4.53L42.62,9l1.44,2.43L42,15.71a18,18,0,0,0-3.39-1Z"/><path class="cls-7" d="M42,15.73h0a18.58,18.58,0,0,0-3.39-1l1.26-4.54L42.61,9l1.47,2.43L42,15.73Zm.61-6.68-2.72,1.12-1.27,4.51a17.38,17.38,0,0,1,3.36,1l2.07-4.22L42.61,9.05Z"/><path class="cls-6" d="M31.38,14.19,31,9.5l2.18-1.73L35.41,9.5,35,14.19c-1.25-.06-2.15-.06-3.62,0Z"/><path class="cls-7" d="M35,14.21h0a33.4,33.4,0,0,0-3.62,0l-.44-4.7,2.18-1.74,2.3,1.72L35,14.21Zm-1.9-6.43L31,9.52l.44,4.67a28.82,28.82,0,0,1,3.59,0l.4-4.67L33.12,7.78Z"/><path class="cls-6" d="M24.38,15.7l-2-4.29L23.71,9l2.81,1.22,1.19,4.43a18.46,18.46,0,0,0-3.33,1Z"/><path class="cls-7" d="M24.37,15.72l-2-4.3L23.69,9l2.84,1.22,1.19,4.44a19.58,19.58,0,0,0-3.33,1ZM23.7,9.05l-1.34,2.37,2,4.26a17.48,17.48,0,0,1,3.32-1L26.5,10.27,23.7,9.05Z"/><path class="cls-3" d="M24,13.55a3.54,3.54,0,0,0,1.6-.16,2.17,2.17,0,0,0,1-.92A1.15,1.15,0,0,1,26,13.94a1.58,1.58,0,0,1-2-.39Z"/><path class="cls-3" d="M25.15,14.15a1.42,1.42,0,0,1-1.21-.59h.52a3.14,3.14,0,0,0,1.08-.18,2.14,2.14,0,0,0,1-.86h0a2.05,2.05,0,0,1-1,.88,3.52,3.52,0,0,1-1.6.15,1.68,1.68,0,0,0,2,.37,1.11,1.11,0,0,0,.68-1.11A1.06,1.06,0,0,1,26,14a1.67,1.67,0,0,1-.8.2Z"/><path class="cls-8" d="M33.72,10.23l-.12,0v.22l-.15,0-.1.2.06.06s0,.14,0,.14l0,.06,0,.12h.11l0,.14.16,0,.15.1v.07h.17l.11,0,.41-.05.05-.08v-.12h.21l0-.18H35l0-.21h.1l0-.09L35,10.68l0-.13-.17-.17,0-.21-.11-.05V10l.12-.17V9.73h-.11l-.09.07-.11,0v0l0,.09h-.13V9.81l-.18-.09L34,9.84V10l-.08,0-.09-.13-.15,0h-.08v.1l.16.2Z"/><path class="cls-9" d="M34.17,11.52l-.31,0,0-.09-.13-.08-.14,0-.06-.17h-.07l-.09-.27.06-.08-.09,0,.1-.24.18-.06,0-.18.15-.07v-.08l-.15-.18V9.77h.12l.16.06.1.14,0-.14s0,0,.19-.15l.22.09,0,.18.06,0,0,0c0-.1,0-.1.15-.11l.07-.07h.16l0,.1-.13.19,0,.13s.08,0,.08,0l.06.25.16.14.11.32-.14,0L35,11l-.16,0,0,.15-.25,0,0,.08-.06.1-.44.07Zm-.11-.12.12,0,.39,0,0-.06v-.1l.25,0V11L35,11l-.05-.16.13,0L35,10.7l0-.15-.16-.14-.05-.24c-.11,0-.11,0-.11-.05V10l.13-.19h-.09l-.06.06-.13,0,.06.11-.17,0,0-.19-.16-.05L34,9.87V10l-.11,0-.13-.14-.13,0,0,.06.15.18v.14l-.15.07,0,.18-.18.07-.08.18c.08,0,.07,0,0,.14s0,0,0,.07l0,.14.07,0,.06.17h.13l.18.12v.08l.13,0Z"/><polygon class="cls-9" points="33.42 10.75 33.59 10.74 33.63 10.9 33.69 10.95 33.7 11.24 33.76 11.26 33.77 11.15 33.91 11.14 33.94 11.37 33.9 11.4 33.91 11.44 34.08 11.43 34.12 11.37 34.21 11.36 34.25 11.43 34.27 11.34 34.36 11.31 34.43 11.42 34.55 11.4 34.48 11.34 34.45 11.19 34.62 11.1 34.68 11.21 34.74 11.21 34.67 11.08 34.67 10.82 34.8 10.65 34.97 10.63 34.97 10.56 34.8 10.4 34.75 10.18 34.65 10.13 34.62 10.16 34.51 10.17 34.62 10.33 34.62 10.43 34.67 10.46 34.66 10.74 34.54 10.76 34.53 10.93 34.45 11 34.4 11.15 34.33 11.24 34.19 11.24 34.12 11.17 34.1 11.05 34.05 11.04 34.01 10.92 33.92 10.87 33.91 10.79 33.83 10.75 33.81 10.69 33.77 10.66 33.76 10.48 33.84 10.46 33.8 10.41 33.78 10.36 33.78 10.3 33.85 10.24 33.73 10.22 33.61 10.27 33.61 10.49 33.47 10.53 33.36 10.7 33.42 10.75"/><path class="cls-9" d="M33.89,11.47l0-.06v-.27l-.1,0,0,.09v0l-.1,0,0-.32-.09-.2-.16,0-.06-.06.1-.22.15-.06s0-.16,0-.17a.24.24,0,0,1,.13-.08h.14l-.05.2-.06,0,.06-.1h-.07s0,0-.08,0v.19l-.17.07-.09.16.2,0,.08.19.07.35v-.1l.18,0,.06.26,0,0,.17,0v.08l-.22,0Zm.55,0c-.12-.13-.12-.14-.12-.15l0,0v0l0,0,.1,0a1.15,1.15,0,0,1,.1.13l.09,0h-.1l0-.17h0l0,.07-.16,0c-.12-.09-.12-.1-.12-.11l0-.11c-.05,0-.05,0-.08-.13l-.1,0V10.8l-.09,0V10.7c-.06,0-.06,0-.06-.22v0h.11l.08.07-.13,0s0,.12,0,.14l.15.12v.09l.07,0s0,.12,0,.13.07.14.07.15l.07.05.11,0c.05-.09.05-.09.07-.09s0-.12,0-.12l.09-.09v-.14s0,0,.16,0l-.08-.38-.1-.14.14-.07.14,0,.07.25.18.15v.09l-.21.06-.1.15v.24h0a1.05,1.05,0,0,1,.07.11l-.09.06-.1-.13-.12.1.12.16-.14.08Zm.12-.66a.62.62,0,0,1,0,.13l-.09.1a.51.51,0,0,1,0,.15l.17-.12,0,0h0v-.28l0-.05-.11,0Zm.07-.64-.12,0,.14.11.05.42.07-.1.2,0-.2-.16-.06-.25-.08,0Z"/><path class="cls-10" d="M34.11,11l.09,0v-.1l-.08,0,0,0h.21l0,0s0,0,0,0l-.07,0V11l.21,0s0,0,0,0L34.22,11l-.13.08Z"/><path class="cls-9" d="M34.05,11.14l0-.1.1-.07,0-.09h.05l.08,0h0l-.06.05V11c.21,0,.21,0,.21,0s0,.06-.25,0l-.16.11Z"/><path class="cls-9" d="M34.63,10.43l-.12.1-.08.13h0l-.12-.16h-.13l-.07.18H34l-.13-.15s-.05-.07,0-.07h.35v-.16l-.09,0h.19l-.07.05v.14h.3Z"/><path class="cls-9" d="M34.07,10.74H34l-.18-.18,0-.1.38,0,0-.11,0,0,0,0c0-.08,0-.08.14-.08h.12l-.17.12,0,.11.36-.06-.18.28h-.08l-.12-.15h-.09a.49.49,0,0,1,0,.16l0,0Zm.15-.27-.38,0,.2.17.07-.17.11,0Z"/><path class="cls-10" d="M34,10.51h0s0,0,0,0v0l0,0h0s0,0,0,0v0a0,0,0,0,1,0,0Z"/><path class="cls-10" d="M34.39,10.5h0l0,0v0s0,0,0,0h0a0,0,0,0,1,0,0v0s0,0,0,0Z"/><path class="cls-9" d="M33.84,10.28l0,0v0a1,1,0,0,1,.36-.1,1.25,1.25,0,0,1,.4,0,1.29,1.29,0,0,1-.39,0,1.13,1.13,0,0,0-.34.1Z"/><polygon class="cls-9" points="33.87 9.99 33.77 9.99 33.62 9.83 33.7 9.84 33.8 9.89 33.87 9.99"/><polygon class="cls-9" points="33.94 10.02 33.77 10.02 33.52 9.78 33.82 9.85 33.94 10.02 33.94 10.02"/><polygon class="cls-9" points="34.49 9.93 34.73 9.75 34.65 9.74 34.56 9.82 34.46 9.84 34.49 9.93"/><polygon class="cls-9" points="34.36 9.96 33.99 9.97 33.99 9.93 34.13 9.92 34.14 9.87 34.19 9.87 34.21 9.92 34.34 9.94 34.36 9.96"/><polygon class="cls-9" points="33.95 10.01 33.96 9.93 34.13 9.88 34.05 9.93 34.17 9.93 34.15 9.88 34.35 9.9 34.39 9.96 34.36 10 33.95 10.01 33.95 10.01"/><polygon class="cls-9" points="34.34 9.82 34.21 9.83 34.2 9.76 34.34 9.82"/><polygon class="cls-9" points="34.12 9.76 34.12 9.83 33.99 9.85 34.12 9.76"/><polygon class="cls-9" points="33.42 11.01 33.49 10.86 33.43 10.75 33.37 10.91 33.42 11.01"/><polygon class="cls-9" points="33.55 11.1 33.63 10.91 33.48 11.06 33.55 11.1"/><polygon class="cls-9" points="33.57 11.15 33.47 11.1 33.59 10.9 33.51 11.09 33.55 11.1 33.52 11.08 33.6 10.88 33.57 11.15 33.57 11.15"/><path class="cls-8" d="M31.7,10.29l-.12,0v.22l-.15,0-.1.2.06.06-.05.14,0,0,0,.12.1,0,0,.14.16,0,.15.11v.06H32l.11,0,.41,0,0-.09V11.3h.22l0-.18H33l0-.2h.1l0-.1L33,10.74v-.12l-.17-.17,0-.22-.1-.05V10l.12-.17V9.8h-.11l-.09.07h-.11v0l0,.1h-.13V9.88l-.18-.09L32,9.91V10l-.09,0-.08-.12-.15-.06h-.08V10l.15.2Z"/><path class="cls-9" d="M32.15,11.58l-.32,0v-.1l-.13-.08-.15,0-.05-.17-.07,0-.1-.26a.93.93,0,0,0,0-.1l-.06-.07.11-.2.17-.05,0-.18.15-.07v-.09L31.53,10V9.84h.12l.16.05.11.14,0-.13s0,0,.19-.15l.22.09,0,.18.06,0,0-.05c0-.09,0-.09.15-.11l.06-.06h.17l0,.1-.13.2v.12s.09,0,.09,0l.06.24.16.15.1.32L33,11l0,.16-.15,0,0,.15-.26,0,0,.07-.06.11-.44.06ZM32,11.47l.12,0,.39,0,0-.07V11.3l.25,0,0-.15.16,0-.06-.17.14,0-.12-.12,0-.14-.15-.14,0-.24c-.11,0-.11,0-.11-.06V10l.13-.19h-.09l-.07.06-.12,0,.05.11-.16,0,0-.19-.15-.06s-.11.09-.14.11A.4.4,0,0,1,32,10v0l-.11,0L31.76,10l-.13,0,0,.06.14.18v.14l-.15.06,0,.19-.18.07-.08.17c.07.05.07.05,0,.16s0,0,0,.06l.05.13h.07l.06.17h.13l.17.12v.08l.14,0Z"/><polygon class="cls-9" points="31.39 10.82 31.57 10.81 31.61 10.96 31.66 11.02 31.68 11.3 31.73 11.33 31.75 11.21 31.89 11.2 31.91 11.44 31.88 11.46 31.89 11.5 32.05 11.5 32.1 11.44 32.19 11.43 32.23 11.5 32.25 11.41 32.34 11.38 32.41 11.49 32.53 11.47 32.45 11.4 32.43 11.25 32.59 11.16 32.66 11.27 32.72 11.27 32.64 11.15 32.64 10.89 32.77 10.72 32.95 10.7 32.95 10.62 32.77 10.46 32.73 10.24 32.62 10.19 32.6 10.22 32.49 10.23 32.6 10.39 32.6 10.5 32.65 10.52 32.64 10.81 32.51 10.83 32.51 10.99 32.43 11.06 32.38 11.22 32.31 11.31 32.17 11.31 32.09 11.23 32.08 11.12 32.02 11.1 31.99 10.98 31.9 10.93 31.89 10.86 31.8 10.82 31.79 10.75 31.74 10.72 31.74 10.54 31.82 10.53 31.77 10.47 31.76 10.42 31.76 10.37 31.83 10.3 31.7 10.29 31.59 10.34 31.59 10.55 31.45 10.6 31.34 10.77 31.39 10.82"/><path class="cls-9" d="M31.87,11.54l0-.06v-.27l-.1,0,0,.08v.05l-.1,0,0-.32-.09-.21-.16,0-.07,0,.11-.22.15-.06s0-.16,0-.18l.13-.08a.58.58,0,0,1,.15,0l0,.19-.06,0,.05-.1h-.06s-.05,0-.09,0a.47.47,0,0,1,0,.18l-.16.08-.09.16.2,0,.07.19.07.34v-.09l.17-.05.07.27,0,0,.17,0v.08l-.22,0Zm.54,0-.11-.14,0,0v0l.1,0,.1.13.08,0h-.09l0-.17.18-.13,0,0h0v-.28l0-.06a.22.22,0,0,1-.1,0,.56.56,0,0,1,0,.13l-.09.1c0,.16,0,.16-.07.16l0,.08-.17,0c-.11-.1-.11-.1-.11-.12l0-.1c-.05,0-.05,0-.08-.14l-.1,0v-.09h-.09l0-.09c-.05,0-.05,0-.05-.22v0l.11,0h0l.08.07-.13,0s0,.12,0,.13l.15.12v.1L32,11a1.21,1.21,0,0,1,.05.14c.06,0,.07.14.07.14l.07,0h.11c0-.09,0-.09.07-.09s0-.13,0-.13l.09-.09v-.13s0,0,.15-.06l-.07-.38-.1-.14.14-.07.14,0,.07.25.18.15v.09l-.21.05-.11.16v.24h0s.06.09.07.1h0l-.09.06-.1-.13-.12.1.11.16-.14.08Zm.2-1.29-.12,0,.14.1,0,.42.07-.1.2,0-.19-.17-.06-.24-.08,0Z"/><path class="cls-10" d="M32.09,11.11l.09,0V11l-.08,0,0,0,.1,0h.12l0,0s0,0,0,0l-.06,0v.1l.21,0s0,0,0,0l-.21,0-.13.08Z"/><path class="cls-9" d="M32,11.2l0-.1.1-.06,0-.1h0l.08,0v0l-.05.05v.08c.21,0,.21,0,.2,0s0,.05-.24,0l-.16.1Z"/><path class="cls-9" d="M32.6,10.5l-.11.09-.08.14h0l-.12-.15h-.13l-.07.18H32l-.14-.15,0-.08h.35v-.17l-.08,0h.19l-.07.05v.14h.3Z"/><path class="cls-9" d="M32,10.8H32l-.17-.18,0-.1h.39l0-.12,0,0h0c0-.07,0-.07.15-.07h.12l-.17.11,0,.11.36-.06-.18.29h-.08l-.12-.15-.09,0a.58.58,0,0,1-.05.16l0,0Zm.15-.26-.38,0,.21.16.07-.16.11,0Z"/><path class="cls-10" d="M32,10.58h0s0,0,0,0v0a0,0,0,0,1,0,0h0s0,0,0,0v0a0,0,0,0,1,0,0Z"/><path class="cls-10" d="M32.36,10.56h0a0,0,0,0,1,0,0v0s0,0,0,0h0a0,0,0,0,1,0,0v0s0,0,0,0Z"/><path class="cls-9" d="M31.83,10.34l0,0,0-.05a1.46,1.46,0,0,1,.35-.1,1.75,1.75,0,0,1,.4,0,1.31,1.31,0,0,1-.39.05,1,1,0,0,0-.33.09Z"/><polygon class="cls-9" points="31.85 10.05 31.75 10.05 31.6 9.9 31.68 9.91 31.78 9.95 31.85 10.05"/><polygon class="cls-9" points="31.92 10.09 31.75 10.09 31.5 9.85 31.79 9.92 31.92 10.09 31.92 10.09"/><polygon class="cls-9" points="32.47 9.99 32.71 9.82 32.63 9.81 32.54 9.89 32.44 9.9 32.47 9.99"/><polygon class="cls-9" points="32.33 10.03 31.97 10.04 31.97 10 32.1 9.99 32.12 9.93 32.16 9.93 32.19 9.98 32.32 10.01 32.33 10.03"/><polygon class="cls-9" points="31.93 10.08 31.93 10 32.1 9.95 32.03 10 32.15 9.99 32.13 9.95 32.33 9.97 32.37 10.03 32.34 10.06 31.93 10.08 31.93 10.08"/><polygon class="cls-9" points="32.32 9.89 32.19 9.89 32.18 9.82 32.32 9.89"/><polygon class="cls-9" points="32.1 9.83 32.09 9.89 31.97 9.91 32.1 9.83"/><polygon class="cls-9" points="31.4 11.08 31.46 10.92 31.41 10.81 31.35 10.97 31.4 11.08"/><polygon class="cls-9" points="31.53 11.16 31.61 10.98 31.46 11.13 31.53 11.16"/><polygon class="cls-9" points="31.55 11.21 31.44 11.16 31.57 10.96 31.49 11.15 31.53 11.16 31.49 11.15 31.58 10.95 31.55 11.21 31.55 11.21"/><path class="cls-4" d="M35,14.18l.41-4.69,2.49-1.44,1.92,2.09-1.28,4.53A22.73,22.73,0,0,0,35,14.18Z"/><path class="cls-11" d="M38.58,14.69h0A24.3,24.3,0,0,0,35,14.2l.39-4.72L37.92,8l1.94,2.09-1.28,4.56Zm-.66-6.62L35.45,9.5l-.4,4.69a21.74,21.74,0,0,1,3.51.46l1.28-4.51L37.92,8.07Z"/><path class="cls-8" d="M32.75,12.05l-.12,0v.22l-.15,0-.1.2.06.06,0,.15,0,0,0,.12h.1l0,.14.16,0,.15.1v.07h.17l.11,0,.4-.05.06-.08v-.11h.22l0-.18H34v-.2h.1l0-.09L34,12.5v-.13l-.17-.16,0-.22-.11-.05v-.15l.12-.17v-.06h-.11l-.09.07-.11,0v0l0,.09h-.13v-.15l-.18-.09-.17.12v.14l-.09,0-.08-.13-.15,0h-.08v.1l.15.2Z"/><path class="cls-9" d="M33.2,13.34l-.32-.05V13.2l-.13-.08-.15,0-.05-.17h-.07l-.11-.29,0-.14.11-.19.17-.05,0-.19.15-.07v-.08l-.15-.18V11.6h.12l.16.06.1.14,0-.14s0,0,.19-.15l.22.09,0,.18.06,0,0-.05c0-.1,0-.1.15-.11l.06-.06h.17l0,.1-.13.19v.13s.09,0,.09,0l.06.25.16.14.1.32-.13,0,0,.17-.15,0,0,.14-.26,0,0,.08-.07.1-.43.07Zm-.11-.12.11,0,.4,0,0-.07v-.1l.25,0,0-.15.15,0,0-.16.14,0L34,12.52l0-.14-.16-.15,0-.24c-.11,0-.11,0-.11-.05v-.15l.13-.19h-.1l-.06.06-.12,0,0,.11-.16,0-.05-.18-.15-.06-.14.11s0,.11,0,.11v0l-.11,0-.12-.14-.13-.05,0,.06.14.18v.15l-.15.06,0,.18-.18.07-.08.18c.07,0,.07,0,0,.14s0,0,0,.08l0,.13h.07l.05.17h.13l.18.12v.08l.14,0Z"/><polygon class="cls-9" points="32.44 12.57 32.62 12.56 32.66 12.72 32.72 12.77 32.72 13.06 32.78 13.08 32.8 12.97 32.93 12.96 32.96 13.19 32.93 13.22 32.94 13.26 33.1 13.25 33.14 13.19 33.24 13.18 33.27 13.25 33.3 13.16 33.39 13.13 33.46 13.24 33.58 13.23 33.5 13.16 33.47 13.01 33.64 12.92 33.71 13.03 33.77 13.03 33.69 12.9 33.69 12.64 33.82 12.47 34 12.45 34 12.38 33.82 12.22 33.77 12 33.67 11.95 33.65 11.98 33.54 11.99 33.65 12.15 33.65 12.25 33.7 12.28 33.69 12.57 33.56 12.59 33.55 12.74 33.48 12.82 33.43 12.97 33.36 13.06 33.22 13.07 33.14 12.99 33.13 12.88 33.07 12.86 33.04 12.74 32.95 12.69 32.94 12.62 32.85 12.58 32.84 12.51 32.79 12.48 32.79 12.3 32.87 12.29 32.82 12.23 32.81 12.18 32.81 12.12 32.88 12.06 32.75 12.05 32.64 12.1 32.63 12.31 32.5 12.35 32.39 12.52 32.44 12.57"/><path class="cls-9" d="M32.92,13.29l0-.06V13l-.1,0,0,.08v.05l-.1-.05,0-.32-.1-.2-.15,0-.07-.06.11-.22.15-.06s0-.15,0-.17a.41.41,0,0,1,.13-.08h.15l-.06.2,0,0,0-.1h-.06s0,0-.09,0a.55.55,0,0,1,0,.19l-.16.08-.09.15h.2l.07.18.07.35V13l.17,0,.07.27,0,0,.17,0v.08l-.22,0Zm.54,0c-.11-.13-.11-.14-.11-.15l0,.13-.11-.08h-.05l.08,0v0l.07,0h0l0-.09.1,0a1.15,1.15,0,0,1,.1.13l.08,0h-.09l0-.17.18-.12.05,0h0v-.28l0-.05a.45.45,0,0,1-.11,0s0,.13,0,.13l-.09.1c0,.16,0,.16-.07.16s0,.07,0,.07l-.17,0C33.1,13,33.1,13,33.1,13v-.11c-.05,0-.05,0-.09-.13l-.09,0v-.09l-.08,0,0-.08s0,0,0-.22v0l.11,0h0l.08.06-.13,0s0,.13,0,.14.05,0,.06.1l.09,0v.09l.08,0a.38.38,0,0,1,0,.13c.06,0,.08.14.08.15l.07,0h.11c0-.1,0-.1.07-.1s0-.12,0-.12l.09-.09v-.14s0,0,.15-.05l-.07-.38-.1-.14.13-.07.15,0,.07.25.17.15v.09l-.21.06-.1.15v.24h0a1.05,1.05,0,0,1,.07.11l-.09.06-.1-.13-.12.1.11.16-.14.08Zm.2-1.3-.12,0,.14.11,0,.42.07-.1.2,0-.2-.16,0-.25-.08,0Z"/><path class="cls-10" d="M33.13,12.86l.09,0v-.1l-.09,0,0,0h.22l0,0s0,0,0,0l-.06,0v.09l.2,0v0l-.22-.05-.13.08Z"/><path class="cls-9" d="M33.08,13l0-.1.1-.07,0-.09h.05l.08,0h0l0,.05v.08c.2,0,.2,0,.2,0s0,.06-.24,0l-.16.11Z"/><path class="cls-9" d="M33.65,12.26l-.12.09-.07.13h0l-.12-.16h-.13l-.08.18H33l-.14-.15,0-.07h.35v-.16l-.08,0h.19l-.07.05v.14h.3Z"/><path class="cls-9" d="M33.09,12.56H33l-.18-.18,0-.1.38,0,0-.11,0,0h0c0-.08,0-.08.15-.08h.12l-.17.12,0,.11.35-.06-.17.28h-.08l-.12-.15h-.09a.43.43,0,0,1,0,.16l0,0Zm.15-.27-.38,0,.21.16s0-.07.06-.17h.12v0Z"/><path class="cls-10" d="M33,12.33h0a0,0,0,0,1,0,0v0s0,0,0,0h0l0,0v0s0,0,0,0Z"/><path class="cls-10" d="M33.41,12.32h0s0,0,0,0v0a0,0,0,0,1,0,0h0s0,0,0,0v0l0,0Z"/><path class="cls-9" d="M32.87,12.1l0,0v0a1,1,0,0,1,.36-.1,1.3,1.3,0,0,1,.4,0,1.29,1.29,0,0,1-.39,0,1,1,0,0,0-.34.1Z"/><polygon class="cls-9" points="32.9 11.81 32.79 11.81 32.65 11.65 32.73 11.66 32.83 11.71 32.9 11.81"/><polygon class="cls-9" points="32.97 11.85 32.79 11.85 32.55 11.6 32.84 11.67 32.97 11.85 32.97 11.85"/><polygon class="cls-9" points="33.52 11.75 33.76 11.57 33.68 11.56 33.59 11.64 33.49 11.66 33.52 11.75"/><polygon class="cls-9" points="33.38 11.78 33.02 11.79 33.02 11.76 33.15 11.74 33.17 11.69 33.21 11.69 33.24 11.74 33.37 11.76 33.38 11.78"/><polygon class="cls-9" points="32.98 11.83 32.98 11.75 33.15 11.71 33.08 11.76 33.2 11.75 33.18 11.71 33.38 11.73 33.41 11.78 33.38 11.82 32.98 11.83 32.98 11.83"/><polygon class="cls-9" points="33.36 11.64 33.24 11.65 33.23 11.58 33.36 11.64"/><polygon class="cls-9" points="33.15 11.58 33.14 11.65 33.02 11.67 33.15 11.58"/><polygon class="cls-9" points="32.45 12.83 32.51 12.68 32.46 12.57 32.4 12.73 32.45 12.83"/><polygon class="cls-9" points="32.58 12.92 32.66 12.73 32.51 12.88 32.58 12.92"/><polygon class="cls-9" points="32.6 12.97 32.49 12.92 32.62 12.72 32.53 12.91 32.58 12.92 32.54 12.9 32.63 12.71 32.6 12.97 32.6 12.97"/><path class="cls-5" d="M35.65,13.34l-.12.15v.12h.26a.17.17,0,0,0,.12-.08s0-.07,0-.13Z"/><path class="cls-12" d="M35.52,13.63v-.14l.13-.16.29.06v.14h0s0,.07-.13.09Z"/><path class="cls-5" d="M36.27,13.69l-.12.09v.11l.23,0c.09,0,.1,0,.12-.06s0,0,0-.09Z"/><path class="cls-12" d="M36.37,13.92h-.23v-.13l.12-.1.27.06,0,.11h0s0,.05-.13.06Z"/><path class="cls-5" d="M37.29,13.4l-.12.12v.09h.25c.08,0,.07,0,.09-.06s0-.05,0-.1Z"/><path class="cls-12" d="M37.42,13.64h-.25l0-.11.13-.14.26.06,0,.12h0s0,0-.1.07Z"/><path class="cls-5" d="M38,13.62l-.14.11v.12l.26,0c.09,0,.09-.05.11-.08s0,0,0-.1Z"/><path class="cls-12" d="M38.12,13.89l-.26,0v-.14L38,13.6l.27.09v.12a.16.16,0,0,1-.12.08Z"/><path class="cls-5" d="M36.26,10.54l.49.32c.09-.07.28,0,.36,0a3.19,3.19,0,0,0,.35.14,2.19,2.19,0,0,0,.66.07,1.36,1.36,0,0,0,.51-.2v0h-.1a1.23,1.23,0,0,1-.54,0c-.17,0-.21-.09-.46-.17l0,0a1,1,0,0,0,.49-.05.67.67,0,0,0,.25-.16v0h-.1a.44.44,0,0,1-.37.08c-.16,0-.31-.11-.42-.11s-.11-.06-.22-.06a1.63,1.63,0,0,0-.54.05.59.59,0,0,0-.34.21Z"/><path class="cls-13" d="M38,11.08a2.3,2.3,0,0,1-.55-.07.67.67,0,0,1-.18-.07l-.16-.07a.4.4,0,0,0-.35,0l-.51-.33a.57.57,0,0,1,.34-.24,2.16,2.16,0,0,1,.55-.05.21.21,0,0,1,.11,0,.18.18,0,0,0,.11,0,.77.77,0,0,1,.19,0,.61.61,0,0,0,.24.06.44.44,0,0,0,.36-.07h.09l0,.09a.42.42,0,0,1-.2.11.5.5,0,0,1-.29.06h-.08l.08,0a.55.55,0,0,0,.28-.06.43.43,0,0,0,.19-.1l0-.07a1,1,0,0,1-.45.07.84.84,0,0,1-.24-.07l-.18-.05a.19.19,0,0,1-.12,0l-.1,0a2.05,2.05,0,0,0-.54.05.55.55,0,0,0-.29.17l.45.34s.17-.06.35,0l.18.07a.58.58,0,0,0,.17.06,1.77,1.77,0,0,0,.66.07,1.06,1.06,0,0,0,.43-.16l0-.05a1.15,1.15,0,0,1-.54,0,.71.71,0,0,1-.22-.07,1.06,1.06,0,0,0-.25-.1l.06,0,.21.09a.59.59,0,0,0,.2.07,1.1,1.1,0,0,0,.53,0h.11l-.06.11a1.28,1.28,0,0,1-.45.17Z"/><path class="cls-14" d="M36.36,10.47a.5.5,0,0,1,.13,0l.07.05s0,0,0-.06a.9.9,0,0,0-.1-.09Z"/><path class="cls-14" d="M36.77,10.82a.56.56,0,0,0,0-.12.53.53,0,0,0-.06-.1.13.13,0,0,1,.09.06.29.29,0,0,1,0,.14Z"/><path class="cls-14" d="M36.86,10.3s0,0,0,.11a.53.53,0,0,1,0,.14.57.57,0,0,0,0-.13s0-.08,0-.12Z"/><polygon class="cls-14" points="37.26 10.33 37.27 10.56 37.3 10.34 37.26 10.33"/><path class="cls-14" d="M37.16,10.81a.21.21,0,0,0,0-.11.7.7,0,0,0,0-.12.25.25,0,0,1,.07.12.15.15,0,0,1,0,.11Z"/><path class="cls-14" d="M37.57,10.71a.59.59,0,0,1,0,.14.22.22,0,0,1-.07.09s.09,0,.1-.08a.26.26,0,0,0,0-.15Z"/><path class="cls-14" d="M37.64,10.63s0-.11,0-.17a0,0,0,0,1,0,0,.49.49,0,0,1,0,.14Z"/><polygon class="cls-14" points="37.92 10.59 37.94 10.49 37.97 10.49 37.97 10.57 37.92 10.59 37.92 10.59"/><path class="cls-14" d="M37.9,10.85A.19.19,0,0,1,38,11s0,0,0,.09h0a.22.22,0,0,0,0-.1.2.2,0,0,0,0-.09Z"/><path class="cls-15" d="M38,11.06h-.06l0-.11,0-.09h0l.07.08a.14.14,0,0,1,0,.09l0,0h0A.16.16,0,0,0,38,11l0-.08A.08.08,0,0,1,38,11a.11.11,0,0,1,0,.1Z"/><polygon class="cls-14" points="38.24 10.87 38.25 11.01 38.29 10.99 38.28 10.87 38.24 10.87"/><path class="cls-8" d="M36.23,10.56a.41.41,0,0,0-.2.15l-.32-.16a.13.13,0,0,0,0,.16.54.54,0,0,0,.19.21,1.42,1.42,0,0,1-.07.22,1.45,1.45,0,0,0-.11.23s0,.12,0,.14.24,0,.31,0,0,.09,0,.12,0,0,.07,0,0,.07,0,.09a.2.2,0,0,0,.13,0l-.1.1-.16.16c0,.07-.06.14,0,.14s-.07.08-.06.11,0,.07.1.05a.39.39,0,0,0,0,.28c0,.07,0,.14,0,.23s-.08.09-.13.18-.12.11-.17.3l.29.07s0-.06.06-.1a.33.33,0,0,0,0-.14,2.39,2.39,0,0,0,.21-.34.37.37,0,0,1,.15-.05c.05,0,.08,0,.13.05a1.42,1.42,0,0,0-.09.27v.29c0,.08-.09.08-.13.3l.26.06c0-.07.11-.08.13-.11l0-.31c0-.14.23-.26.24-.42h.12a.31.31,0,0,0,.09-.07s0,0,.08,0a.34.34,0,0,0,.12-.06.07.07,0,0,0,.06.06.62.62,0,0,0,.19,0l-.21.35s0,.05,0,.09,0,.05-.06.08l.24.06,0-.1c.05,0,.1,0,.12-.06a.38.38,0,0,0,0-.13,1.7,1.7,0,0,0,.3-.3.25.25,0,0,1,.18.14,1,1,0,0,1,0,.33l-.16.24v0l.24.09.15-.12v-.17a1.19,1.19,0,0,1,.29-.3,1.09,1.09,0,0,0,0-.18s0,0,0-.05a1.08,1.08,0,0,1,0-.18s0,0,0-.05,0-.17,0-.26.14-.23.16-.3l0-.11s0,0,0-.07a.15.15,0,0,1,0-.08l0-.06v-.27s0-.08-.06-.08-.06,0-.09,0l-.14.1a.32.32,0,0,1-.24,0h-.18a.3.3,0,0,1-.23,0h-.11l-.12.06h-.12a.54.54,0,0,0-.28.06.54.54,0,0,0-.29-.05l-.1,0a1.09,1.09,0,0,1-.3-.36c.26-.07.37-.15.44-.32h-.36Z"/><path class="cls-16" d="M36.55,13.74l-.27-.07a.39.39,0,0,1,.08-.25l0-.35a.53.53,0,0,1,.05-.19l-.08-.11a.24.24,0,0,0-.14.05,2.9,2.9,0,0,1-.2.33.31.31,0,0,1,0,.13l-.08.12-.28-.07a.46.46,0,0,1,.1-.26l.08-.13a.29.29,0,0,1,.1-.12l-.07.13a.45.45,0,0,1-.08.14.49.49,0,0,0-.11.23l.27,0,0-.1a.41.41,0,0,0,0-.12c0-.1.17-.26.2-.35s.2-.08.27,0,0,.09,0,.12a.53.53,0,0,0,0,.18v.29a.67.67,0,0,0-.13.3l.23.05a.2.2,0,0,1,.09-.08l.05-.33a.55.55,0,0,1,.12-.19.4.4,0,0,0,.12-.23H37l.06,0h-.12a.39.39,0,0,1-.13.23.58.58,0,0,0-.11.18v.3a.63.63,0,0,0-.14.12Zm1.73-.06L38,13.6l.16-.31a.73.73,0,0,0,0-.32.26.26,0,0,0-.17-.12,1.59,1.59,0,0,1-.29.29l0,.13a.29.29,0,0,1-.11.06l0,.1-.26,0,.06-.09v0l.2.08,0-.1a.42.42,0,0,0,.12-.06l0-.14a1.63,1.63,0,0,0,.3-.29.28.28,0,0,1,.21.14.89.89,0,0,1,0,.35l-.15.24.21.1.14-.11v-.16a.84.84,0,0,1,.26-.27.89.89,0,0,0,0-.21.28.28,0,0,1,0-.23c0-.09,0-.21,0-.32a.39.39,0,0,1,.11-.21l.06-.08V12c0-.09,0-.12,0-.16l0-.32h0l-.12,0-.14.11a.42.42,0,0,1-.25,0h-.18a.29.29,0,0,1-.24,0h-.1l-.11,0-.13,0v0c-.18,0-.21,0-.23,0h-.1a.55.55,0,0,0-.24,0l-.1,0a1,1,0,0,1-.31-.37c.26-.1.36-.17.44-.34l-.35,0-.52-.34a.35.35,0,0,0-.15.11h0a.33.33,0,0,1,.19-.13l.52.34.35,0c-.06.2-.17.28-.43.36a1.23,1.23,0,0,0,.3.33l.1,0a.72.72,0,0,1,.25,0,1.36,1.36,0,0,1,.31,0h.12l.1,0,.13,0a.25.25,0,0,0,.22,0h.19a.38.38,0,0,0,.24,0l.13-.1s.06-.06.09-.06a.11.11,0,0,1,.08.1v.27l-.08.14,0,.18a.37.37,0,0,1-.06.1c0,.06-.11.13-.1.2s0,.2,0,.25a.4.4,0,0,0,0,.24s0,0,0,.22a1.7,1.7,0,0,0-.3.32v.16l-.16.13Zm-.91-.4h0l0-.09.2-.34s-.09,0-.14,0l-.1-.06c-.09.07-.17.12-.21,0l.1,0,.11-.06.08.05a.51.51,0,0,0,.18,0l-.22.45ZM36,12.81a.59.59,0,0,1,0-.22.44.44,0,0,1,0-.28c-.07,0-.09,0-.1,0a.13.13,0,0,1,0-.1s0,.07,0,.09h0l.06.07a.33.33,0,0,0,0,.22.87.87,0,0,0,0,.2l0,.06Zm-.06-.69s0-.07,0-.11l.12-.13.13-.13a.09.09,0,0,1-.12,0l0-.08h0l.08.06,0,.1-.19.19a.19.19,0,0,0,0,.09Zm.18-.45L36,11.62a.23.23,0,0,1,0-.11h-.22a.13.13,0,0,1-.12-.16.33.33,0,0,1,.05-.12.6.6,0,0,0,.06-.11.94.94,0,0,0,.07-.22.72.72,0,0,1-.19-.2.17.17,0,0,1,.05-.18l.21.1-.2-.07a.14.14,0,0,0,0,.14.71.71,0,0,0,.19.2.84.84,0,0,1-.07.24.67.67,0,0,1-.06.12l-.05.1c0,.06,0,.11,0,.12H36l0,.19Z"/><path class="cls-17" d="M36.1,11l.1,0s0,0,.06,0l0,0,.1-.05c-.06,0-.08,0-.14,0a.94.94,0,0,0-.16,0Z"/><path class="cls-17" d="M36.26,11.1,36.1,11h0c.08,0,.11-.06.14-.06l.1,0h-.1l-.13,0,.13.07v0l0,0,.09-.06,0,0-.14.08Z"/><path class="cls-9" d="M36.29,12.22h0a.94.94,0,0,0-.07-.3,1.18,1.18,0,0,1,.09.3Z"/><path class="cls-9" d="M36.89,12.23s0,0,.06,0,0-.05,0-.08-.05-.14-.07-.18,0,0,0,0,.05.24.06.26Z"/><path class="cls-9" d="M37.22,12.19s0,0,0,0-.07-.27-.06-.28a.31.31,0,0,1,.07.12,1.27,1.27,0,0,1,0,.18Z"/><path class="cls-9" d="M37.18,12.68s0,0,0,0,.1-.14.11-.17a1.31,1.31,0,0,0,0-.22,2.08,2.08,0,0,0-.1.19.81.81,0,0,0-.11.21Z"/><path class="cls-9" d="M37.19,12.7h0s0,0,.1-.23l.07-.13h0l-.06.15-.11.2h0v0l.09-.13a1.28,1.28,0,0,0,.09-.22s0,.16,0,.17l-.17.19Z"/><path class="cls-9" d="M37.51,12.58s0-.17,0-.2,0-.13,0-.24a.66.66,0,0,1-.07.44Z"/><path class="cls-9" d="M37.51,12.61l0,0s0,0,0-.14l.06-.31a.57.57,0,0,1,0,.45v0Z"/><path class="cls-9" d="M37.7,12.05a.71.71,0,0,1-.13-.22l.13.17s0,0,0,.05Z"/><path class="cls-9" d="M38,12.23s0-.08,0-.17-.06-.16,0-.18,0,0,0,0,0,.21.05.33Z"/><path class="cls-9" d="M38.27,12s0,.08.06.19.05.31.06.29,0,0,0,0h.14a1.19,1.19,0,0,1-.19-.2,1.34,1.34,0,0,1-.12-.24Z"/><path class="cls-9" d="M38.38,12.52h0l0-.1a1.77,1.77,0,0,0,0-.21l0-.14h0v0l.05.07.09.14a.81.81,0,0,0,.16.16l-.18.11Z"/><path class="cls-3" d="M39.45,11.67a20.36,20.36,0,0,1,2,.53c.65.21,1.26.46,1.89.73L42.3,15.06c-.59-.23-1.17-.41-1.75-.6l-1.73-.53Z"/><path class="cls-3" d="M42.31,15.08h0c-.51-.19-1-.35-1.5-.51l-.25-.08-1.19-.37L38.81,14l.63-2.29a18,18,0,0,1,2,.52c.7.23,1.36.5,1.9.73l-1,2.17Zm-2.86-3.39-.62,2.25.54.14,1.19.37.25.08c.49.16,1,.32,1.48.51l1.05-2.12c-.54-.21-1.19-.48-1.89-.71a18.82,18.82,0,0,0-2-.52Z"/><path class="cls-5" d="M39.31,12.17s1,.22,1.93.53,1.88.69,1.88.69-.6,1.22-.6,1.22c-.57-.23-1.17-.44-1.77-.63s-1.19-.38-1.8-.52Z"/><path class="cls-12" d="M42.53,14.63h0c-.56-.22-1.15-.44-1.77-.64s-1.17-.37-1.8-.51l.35-1.31a16.44,16.44,0,0,1,2,.51c.62.2,1.69.61,1.86.7-.08,0-1-.37-1.87-.67s-1.92-.52-1.93-.52L39,13.46c.61.13,1.22.32,1.79.5s1.21.41,1.75.63c.52-1.07.59-1.2.6-1.21l0,0s-.44.89-.6,1.22Z"/><path d="M39.4,12.77c.09-.06.16-.07.21-.16H40v.13l.22.12.29.12.75.07a.81.81,0,0,1,.33.11.44.44,0,0,1,.19.19,2,2,0,0,0,.47.11l.51,0c.07,0,.07.07,0,.11a.41.41,0,0,1-.32.11c-.23,0-.49-.13-.6-.11s.12.21.26.27v.33l-.06.06-.07,0A.28.28,0,0,0,42,14c0-.08-.06-.11-.16-.11a.73.73,0,0,1-.34-.16h0a.24.24,0,0,1-.13.13h-.15l-.34-.08s0,0,0,0,.11,0,.12,0a1.13,1.13,0,0,0,.22,0V13.6l.23,0c0-.15-.07-.25-.28-.29l-.65,0v.09a1.78,1.78,0,0,0-.61,0c-.09,0-.22.06-.28.06l-.06,0s0,0,0-.06a1,1,0,0,0,.41-.09s0-.08,0-.09h-.37l-.18-.06v-.07l.12,0a.89.89,0,0,0,.38,0V13s0-.09,0-.09l-.26,0c-.11,0-.09-.07-.09-.12Z"/><path d="M42,14.29l-.08,0A.34.34,0,0,0,42,14c-.05-.07-.06-.09-.14-.1a.71.71,0,0,1-.31-.13,1.59,1.59,0,0,0,.32.1.15.15,0,0,1,.14.09.3.3,0,0,1,0,.29l.05,0h0l.06-.06v-.32a.4.4,0,0,1-.26-.27.47.47,0,0,1,.26,0,1.43,1.43,0,0,0,.36.06.38.38,0,0,0,.3-.1,1.6,1.6,0,0,0-.53-.12,3.57,3.57,0,0,1-.47-.11.53.53,0,0,0-.19-.2,1.28,1.28,0,0,0-.33-.11L40.47,13l-.15-.06-.15-.06-.11-.07L40,12.75v-.14l-.33,0a.26.26,0,0,1-.15.12c-.05.08-.05.11,0,.13a1.27,1.27,0,0,1,.27,0,.19.19,0,0,1,.05.11v.09a.67.67,0,0,1-.4,0l-.07,0,0,0a.6.6,0,0,0,.42,0V13c-.05-.08-.23-.1-.29-.1s-.11-.08-.11-.13h0l.07,0a.28.28,0,0,0,.14-.12H40l0,.15a.19.19,0,0,1,.1,0l.11.06.14.06.15.06.74.06a1.35,1.35,0,0,1,.34.11.64.64,0,0,1,.2.2,2.11,2.11,0,0,0,.45.1,3,3,0,0,0,.51,0h0l.07.06a.34.34,0,0,1-.36.2,1.43,1.43,0,0,1-.37-.07.76.76,0,0,0-.21-.05.46.46,0,0,0,.24.25v.35l-.08.07Zm-.73-.43h-.15c-.36-.08-.36-.08-.36-.1s0-.07.15-.07a1.13,1.13,0,0,0,.22,0l0-.11.15,0-.13,0,0,.11a.48.48,0,0,1-.24,0h-.12a1.28,1.28,0,0,0,.33.11h.15a.26.26,0,0,0,.12-.11l0,0a.52.52,0,0,1-.17.12Zm.08-.3c-.06-.14-.09-.22-.27-.25h-.65l0,.08H40.2a1.08,1.08,0,0,0-.35,0l-.14,0-.14,0-.11,0,0,0,.06.05v0l.13,0a.8.8,0,0,1,.15,0,1.08,1.08,0,0,1,.35,0h.27l0-.07.67,0c.21,0,.24.14.28.28Zm-1.77-.16a1.31,1.31,0,0,0,.27-.1l-.17-.06h-.23s-.19-.06-.19-.08l0,0a.51.51,0,0,0,.17.07h.37a.11.11,0,0,1,.06.11.73.73,0,0,1-.3.08Z"/><path class="cls-3" d="M40.83,13.54a1,1,0,0,0,.33.06l.23,0c0-.15-.07-.25-.28-.29l-.65,0v.09l.37.14Z"/><path d="M41.16,13.61h0a1.35,1.35,0,0,1-.33,0,3.67,3.67,0,0,0-.37-.14l0-.11.67,0c.21,0,.24.14.28.28h0c-.06-.14-.09-.22-.27-.25h-.65l0,.08a2,2,0,0,1,.31.11,1.27,1.27,0,0,0,.37.07h.16l-.16,0Z"/><path class="cls-4" d="M27.74,14.68l-1.19-4.44L28.37,8l2.55,1.46.43,4.7a30.37,30.37,0,0,0-3.61.49Z"/><path class="cls-11" d="M27.73,14.69h0l-1.19-4.44L28.36,8l2.57,1.45.44,4.72c-1.33.12-2.19.25-3.62.5Zm.63-6.64-1.8,2.2,1.19,4.41a28.81,28.81,0,0,1,3.6-.48L30.9,9.49,28.36,8.05Z"/><path class="cls-8" d="M23.48,11l.44.33-.09.6.57-.24.44.34.06-.54.46-.18L25,10.92l.09-.54-.56.19-.4-.33s-.09.52-.09.52Z"/><path class="cls-18" d="M24.86,12.05l-.48-.36-.54.24.06-.62L23.47,11l.54-.25.08-.51a3.74,3.74,0,0,1,.43.33l.54-.2-.06.56.38.35-.47.22-.05.56Zm-.47-.4.43.33.06-.52.48-.19L25,10.94l.08-.57-.54.22-.41-.33a4,4,0,0,1-.06.5l-.55.23.44.31-.08.61.54-.26Z"/><path class="cls-19" d="M23.49,11l1.87.3-.47.19-.45-.32.4.84-.44-.32,0-.52-.6.75.09-.59Z"/><polygon class="cls-18" points="24.01 10.77 24.45 11.13 24.11 10.24 24.01 10.77"/><path class="cls-18" d="M24.51,10.59l-.07.54.62-.74s-.54.21-.55.2Z"/><path class="cls-8" d="M41.29,10.22l.11.54-.45.4.58.18.11.54.41-.38.47.15-.05-.52.42-.36-.55-.2s-.08-.51-.09-.51l-.41.34Z"/><path class="cls-18" d="M41.64,11.91l-.13-.57-.57-.17.45-.43-.12-.52.58.16.4-.34a2.56,2.56,0,0,1,.1.54l.55.17-.42.39.06.51-.49-.14-.41.4Zm-.36-1.67.13.51-.45.42.57.15.12.53.39-.36.49.15-.08-.51.43-.37a2.61,2.61,0,0,1-.56-.19s-.07-.47-.08-.5-.39.34-.39.34l-.57-.17Z"/><path class="cls-18" d="M41.29,10.23l1.23,1.41L42,11.5,41.91,11l-.25.89s-.12-.51-.13-.53L41.9,11l-.94.2.45-.4Z"/><polygon class="cls-18" points="41.84 10.39 41.93 10.95 42.26 10.05 41.84 10.39"/><path class="cls-18" d="M42.33,10.57l-.4.37,1-.17-.56-.2Z"/><path class="cls-5" d="M26.56,10.25A7.11,7.11,0,0,1,28.7,9.6a15,15,0,0,1,2.23-.12l.1,1.17a15.51,15.51,0,0,0-2.09.13,8.34,8.34,0,0,0-2.1.51Z"/><path class="cls-12" d="M26.83,11.31l-.29-1.05a6.93,6.93,0,0,1,2.16-.68,14.94,14.94,0,0,1,2.08-.11h.15s.11,1.17.11,1.18l-.18,0a11.93,11.93,0,0,0-1.92.13,7.93,7.93,0,0,0-2.1.51Zm4.08-1.82h-.13a14.94,14.94,0,0,0-2.08.11,7.18,7.18,0,0,0-2.13.66l.28,1a8.14,8.14,0,0,1,2.09-.51,12.91,12.91,0,0,1,1.92-.12H31s-.12-1.15-.12-1.15Z"/><path class="cls-5" d="M27.11,12.3s.33,1.23.33,1.23a17.06,17.06,0,0,1,1.89-.37c.63-.09,1.3-.14,1.91-.18l-.1-1.19a10.83,10.83,0,0,0-2.05.05,10.12,10.12,0,0,0-2,.46Z"/><path class="cls-12" d="M27.43,13.55v0a9.32,9.32,0,0,1-.33-1.24,11,11,0,0,1,2-.47,11.51,11.51,0,0,1,2.05-.05L31.26,13c-.6.06-1.28.11-1.93.2a17,17,0,0,0-1.88.36Zm2.9-1.77a9.44,9.44,0,0,0-1.24.07,10.6,10.6,0,0,0-2,.47s.2.72.33,1.19a17,17,0,0,1,1.88-.36c.64-.09,1.33-.15,1.91-.18l-.12-1.18Z"/><path class="cls-3" d="M24.14,16.08H42.2V27.66a9.14,9.14,0,0,1-8.75,7.86c-4.28.19-9-3.32-9.35-7.9Z"/><path class="cls-5" d="M33.12,35.59c-4,0-8.73-3.27-9.08-8l0-11.55L42.2,16l.07,11.64a9.27,9.27,0,0,1-8.78,7.92Zm9-19.51-18,.07,0,11.47c.35,4.75,5.23,8,9.28,7.83,3.76,0,8.22-3.2,8.69-7.79V16.08Z"/><path class="cls-5" d="M24.52,16.49H41.83v11.1a8.75,8.75,0,0,1-8.39,7.52c-4.1.18-8.63-3.17-9-7.56Z"/><path class="cls-5" d="M33.12,35.18c-3.85,0-8.37-3.13-8.7-7.63l0-11.06,17.37-.06.06,11.16a8.89,8.89,0,0,1-8.41,7.59Zm8.64-18.69-17.24.06,0,11c.34,4.54,5,7.66,8.89,7.5a8.75,8.75,0,0,0,8.33-7.47V16.49Z"/><rect class="cls-3" x="28" y="16.55" width="3.44" height="3.7"/><path class="cls-3" d="M38.35,27.66v3.66h1.94a8.51,8.51,0,0,0,1.44-3.66Z"/><path class="cls-3" d="M40.3,31.35H38.35l0-3.68h3.4a8.2,8.2,0,0,1-1.42,3.69Zm-1.95-3.67v3.64h1.92a8.42,8.42,0,0,0,1.43-3.66l-1.76,0Z"/><path class="cls-3" d="M34.91,31.36v3.51a9.14,9.14,0,0,0,3.41-1.54v-2Z"/><path class="cls-3" d="M34.89,34.89V31.36l3.42,0,0,2a8.86,8.86,0,0,1-3.42,1.56Zm3.4-3.53-3.38,0v3.47a8.93,8.93,0,0,0,3.39-1.54l0-2Z"/><path class="cls-3" d="M28,31.36v2a9.94,9.94,0,0,0,3.41,1.52V31.36Z"/><path class="cls-3" d="M31.45,34.86h0A9.8,9.8,0,0,1,28,33.34l0-2h3.42l0,3.51Zm0-3.5-3.38,0,0,1.94a9.75,9.75,0,0,0,3.37,1.5V31.36Z"/><path class="cls-3" d="M24.58,27.67A7.3,7.3,0,0,0,26,31.28l2,0V27.66Z"/><path class="cls-3" d="M28,31.34h0l-2,0a7.41,7.41,0,0,1-1.42-3.63l3.43,0v3.69Zm0-3.68-3.39,0A7.54,7.54,0,0,0,26,31.27l2,0V27.66Z"/><rect class="cls-3" x="24.56" y="20.25" width="3.44" height="3.7"/><rect class="cls-3" x="31.45" y="20.25" width="3.44" height="3.7"/><rect class="cls-3" x="34.89" y="16.53" width="3.44" height="3.7"/><rect class="cls-3" x="38.33" y="20.25" width="3.44" height="3.7"/><rect class="cls-3" x="28" y="23.95" width="3.44" height="3.7"/><rect class="cls-3" x="34.89" y="23.95" width="3.44" height="3.7"/><rect class="cls-3" x="31.45" y="27.65" width="3.44" height="3.7"/><path class="cls-9" d="M36.57,12.18a.77.77,0,0,1,0-.2,2,2,0,0,1-.07-.24.66.66,0,0,1,.11.44Z"/><path class="cls-9" d="M36.57,12.19s0,0,0-.14l-.08-.3a.52.52,0,0,1,.15.43Z"/></g></g><path class="cls-3" d="M33.17,44.67a7,7,0,0,1-2.47-.45L16.82,39a7,7,0,0,1-4.5-6.52V12.24a7,7,0,0,1,4.5-6.52L30.7.45a7,7,0,0,1,4.95,0L49.52,5.72A7,7,0,0,1,54,12.24V32.43A7,7,0,0,1,49.52,39L35.65,44.22A7.06,7.06,0,0,1,33.17,44.67Zm0-43.06a5.2,5.2,0,0,0-1.9.35L17.39,7.22a5.41,5.41,0,0,0-3.46,5V32.43a5.4,5.4,0,0,0,3.46,5l13.88,5.26a5.32,5.32,0,0,0,3.81,0L49,37.45a5.41,5.41,0,0,0,3.47-5V12.24a5.42,5.42,0,0,0-3.47-5L35.08,2A5.47,5.47,0,0,0,33.17,1.61Z"/></g></g></svg>