<svg xmlns="http://www.w3.org/2000/svg" xmlns:xlink="http://www.w3.org/1999/xlink" viewBox="0 0 65.95 44.71"><defs><style>.cls-1{fill:none;}.cls-2{clip-path:url(#clip-path);}.cls-3{fill:#be003a;}.cls-4{fill:#fff;}</style><clipPath id="clip-path"><path class="cls-1" d="M45.83,6.51,32,1.25a6.12,6.12,0,0,0-4.38,0L13.7,6.51a6.18,6.18,0,0,0-4,5.78V32.47a6.18,6.18,0,0,0,4,5.78l13.87,5.26a6.23,6.23,0,0,0,4.38,0l13.88-5.26a6.17,6.17,0,0,0,4-5.78V12.29A6.17,6.17,0,0,0,45.83,6.51Z"/></clipPath></defs><title>denmark</title><g id="Layer_2" data-name="Layer 2"><g id="OBJECTS"><g class="cls-2"><g id="peru"><rect class="cls-3" width="19.53" height="18.19"/><rect class="cls-3" y="26.47" width="19.53" height="18.19"/><rect class="cls-3" x="27.8" width="38.15" height="18.19"/><rect class="cls-3" x="27.8" y="26.47" width="38.15" height="18.19"/><rect class="cls-4" x="19.53" width="8.28" height="18.19"/><rect class="cls-4" x="19.53" y="26.47" width="8.28" height="18.19"/><polygon class="cls-4" points="27.8 26.47 65.95 26.47 65.95 18.19 27.8 18.19 19.53 18.19 0 18.19 0 26.47 19.53 26.47 27.8 26.47"/></g></g><path class="cls-4" d="M29.76,44.71a7,7,0,0,1-2.47-.45L13.41,39a7,7,0,0,1-4.5-6.53V12.29a7,7,0,0,1,4.5-6.53L27.29.5a6.92,6.92,0,0,1,5,0L46.11,5.76a7,7,0,0,1,4.51,6.53V32.47A7,7,0,0,1,46.11,39L32.24,44.26A7.06,7.06,0,0,1,29.76,44.71Zm0-43.06a5.41,5.41,0,0,0-1.9.35L14,7.26a5.41,5.41,0,0,0-3.46,5V32.47a5.38,5.38,0,0,0,3.47,5l13.87,5.27a5.43,5.43,0,0,0,3.81,0l13.87-5.27a5.38,5.38,0,0,0,3.47-5V12.29a5.4,5.4,0,0,0-3.47-5L31.67,2A5.43,5.43,0,0,0,29.76,1.65Z"/></g></g></svg>