<svg xmlns="http://www.w3.org/2000/svg" xmlns:xlink="http://www.w3.org/1999/xlink" viewBox="0 0 65.44 45.03"><defs><style>.cls-1{fill:none;}.cls-2{clip-path:url(#clip-path);}.cls-3{fill:#fff;}.cls-4{fill:#bc0030;}.cls-5{fill:#f4d134;}</style><clipPath id="clip-path"><path class="cls-1" d="M48.78,6.65,34.91,1.39a6.12,6.12,0,0,0-4.38,0L16.65,6.65a6.18,6.18,0,0,0-4,5.77V32.61a6.17,6.17,0,0,0,4,5.77l13.88,5.27a6.23,6.23,0,0,0,4.38,0l13.87-5.27a6.17,6.17,0,0,0,4-5.77V12.42A6.18,6.18,0,0,0,48.78,6.65Z"/></clipPath></defs><title>egypt</title><g id="Layer_2" data-name="Layer 2"><g id="OBJECTS"><g class="cls-2"><g id="egypt"><rect y="30.02" width="65.44" height="15.01"/><rect class="cls-3" y="15.01" width="65.44" height="15.01"/><rect class="cls-4" width="65.44" height="15.01"/><path class="cls-5" d="M29.76,27.42s0,0,0,0-.1,0,0,0Zm0-.21c-.05,0-.05.1,0,.1s.11-.1,0-.1Zm0,.78c-.05,0-.05.1,0,.1s0-.1,0-.1ZM30,28c-.1,0-.1.11,0,.11S30,28,30,28Zm.2.05s0,.1,0,.1.11-.1,0-.1Zm3.22-.51s0,.1,0,.1a.05.05,0,0,0,0-.1Zm.06.2c-.1,0-.1,0,0,0s0,0,0,0Zm.15.52c-.05,0-.05.11,0,.11s0-.11,0-.11Zm.21,0c-.11,0-.11.11,0,.11s0-.11,0-.11Zm2.13-.42c-.11,0-.11.06,0,.06s.05-.06,0-.06Zm-3.22,1a14.15,14.15,0,0,0,3.3-.31.44.44,0,0,0,.41-.47.48.48,0,0,0,.22-.35s0-.07,0-.07h0a.13.13,0,0,0,.09-.15.12.12,0,0,0-.12-.11h-.05a1,1,0,0,1-.09-.1.45.45,0,0,0-.27-.2c-.06-.32-.43-.45-.83-.32a9.65,9.65,0,0,1-2.71.25l-.56,0A9.34,9.34,0,0,1,30,26.78c-.39-.13-.76,0-.83.3a.5.5,0,0,0-.27.22s-.08.09-.11.1h0a.14.14,0,0,0-.13.11.15.15,0,0,0,.1.15h0a.19.19,0,0,0,0,.07.48.48,0,0,0,.22.35c0,.19,0,.4.41.46a13.47,13.47,0,0,0,3.3.32ZM29,27.57l.1-.11c.06-.08.09-.12.16-.12a.11.11,0,0,0,.11,0,.12.12,0,0,0,.05-.1c0-.05,0-.23.26-.23a.69.69,0,0,1,.24.05,9.45,9.45,0,0,0,2.22.23l.57,0A10.18,10.18,0,0,0,35.51,27a.69.69,0,0,1,.24-.05c.26,0,.26.18.26.23a.13.13,0,0,0,.06.1.17.17,0,0,0,.12,0s.08,0,.14.12l.09.11a.29.29,0,0,0,0,.09c0,.11,0,.17-.14.2a.14.14,0,0,0-.09.13c0,.2,0,.25-.21.29a13.7,13.7,0,0,1-3.24.31,13.64,13.64,0,0,1-3.24-.31c-.21,0-.21-.09-.21-.29a.14.14,0,0,0-.09-.13c-.09,0-.11-.09-.14-.2a.32.32,0,0,0,0-.09Zm.75,0s.11-.06.11-.1-.07-.09-.11-.09-.14,0-.14.09,0,.1.14.1Zm0-.16c.1,0,.15-.06.15-.12s-.05-.12-.15-.12-.11.09-.11.12a.19.19,0,0,0,.11.12Zm0,.78s.11-.08.11-.12-.07-.12-.11-.12a.12.12,0,0,0,0,.24Zm.21.06a.14.14,0,0,0,.11-.13S30,28,30,28s-.15.06-.15.12a.13.13,0,0,0,.15.13Zm.2,0c.1,0,.15-.06.15-.12s-.05-.12-.15-.12-.1.08-.1.12.07.12.1.12Zm3.22-.51s.11-.08.11-.12-.07-.12-.11-.12-.1.08-.1.12.06.12.1.12Zm.21.73s.11-.09.11-.13-.07-.12-.11-.12-.11.08-.11.12.07.13.11.13Zm.21,0a.13.13,0,0,0,.11-.13s-.07-.12-.11-.12-.15.06-.15.12a.13.13,0,0,0,.15.13ZM35.94,28s.11-.06.11-.1-.07-.09-.11-.09-.15,0-.15.09,0,.1.15.1Zm-5.62.07.09,0a.38.38,0,0,0,.14-.28.22.22,0,0,0-.08-.13.16.16,0,0,0-.11.05l.08.08h0c0,.09-.05.15-.08.16s-.06,0-.09,0a.39.39,0,0,1-.1,0,.47.47,0,0,0,0-.14v0a.1.1,0,0,0,0,0l0,0,0-.08s-.06.07-.07.17a.17.17,0,0,0,0,.1l-.11,0s0,0,0-.06a1.7,1.7,0,0,0,.13-.4l0-.13a.08.08,0,0,0-.05-.09.07.07,0,0,0-.09.05l0,.13a2.49,2.49,0,0,1-.13.41c0,.14.1.23.15.22a.36.36,0,0,0,.16,0,.29.29,0,0,0,.16.07.35.35,0,0,0,.11,0ZM29.91,28A.08.08,0,0,0,30,27.9a.07.07,0,0,0-.05-.08.26.26,0,0,1-.15-.09s0,0,.1,0a.06.06,0,0,0,.05-.08s0-.06-.08-.05-.21.11-.21.17.1.18.25.22Zm1.5.42h0c.09,0,.16-.2.16-.33v-.46c0-.08-.14-.08-.14,0V28c0,.1-.05.19-.08.19h0s0,0-.07-.14L31.22,28a.22.22,0,0,0,.09-.17.24.24,0,0,0-.12-.21.21.21,0,0,0-.26.11A.22.22,0,0,0,31,28a.28.28,0,0,1-.2,0v-.09c0-.1-.07-.14-.19-.12a.17.17,0,0,0,0,.14.2.2,0,0,0,0,.11.18.18,0,0,1-.09.08.07.07,0,0,0,0,.09s.05.05.09,0a.37.37,0,0,0,.13-.12.58.58,0,0,0,.38,0,.24.24,0,0,0,.12,0c0,.19.11.21.12.19s.06,0,.09,0Zm.27-.15a.07.07,0,0,0,.07-.07,1.59,1.59,0,0,1,0-.29c0-.1,0-.21,0-.28s-.14-.08-.14,0,0,.17,0,.26,0,.22,0,.31a.07.07,0,0,0,.07.07Zm.16.3h0a.61.61,0,0,0,.21-.25h.42c.08,0,.08,0,.1.08a.24.24,0,0,0,.17.09c.07,0,.1-.08.13-.18a.42.42,0,0,0,0-.1c0-.15-.05-.23-.18-.21a.57.57,0,0,1-.36,0h-.1s-.05-.09-.08-.09-.09.07-.09.11a.08.08,0,0,0,0,.08c0,.09,0,.1,0,.1h0v-.05c0-.09-.08-.14-.14-.14a.15.15,0,0,0-.09,0,.14.14,0,0,0,0,.16l.07.08a.48.48,0,0,1-.16.19.07.07,0,0,0,0,.1l.05,0Zm.46-.4a.15.15,0,0,0,0-.07h.07a.66.66,0,0,0,.42,0,.54.54,0,0,1,0,.11l-.06.11c0-.07,0-.18-.22-.18Zm.78.14h0c.06,0,.22-.06.22-.17a.18.18,0,0,0-.1-.16A.17.17,0,0,0,33,28a.23.23,0,0,0,0,.14l-.07,0,0,.07v-.07s0,0,0,.07.07.06.11.06a.26.26,0,0,1,.09,0Zm.42,0a.27.27,0,0,0,.14-.05h0a.17.17,0,0,0,.16,0c.16,0,.21-.06.22-.27v-.07s-.06-.09-.09-.1a.13.13,0,0,0-.11,0s0,.09.06.13,0,.11-.08.12l-.11,0a1.54,1.54,0,0,0,0-.48.07.07,0,0,0-.09,0,.07.07,0,0,0,0,.08,1.26,1.26,0,0,1,0,.41.29.29,0,0,0-.19.15.18.18,0,0,0,.06.09Zm.62.17s0,0,.05,0,.24-.35.15-.51-.12-.12-.2-.1-.07.12-.07.15,0,.12.14.19a.52.52,0,0,1-.12.17.09.09,0,0,0,0,.1.06.06,0,0,0,0,0Zm.37-.1h0a.26.26,0,0,0,.19-.21,1.8,1.8,0,0,0,.7-.21.08.08,0,0,0,0-.1.07.07,0,0,0-.09,0,1.8,1.8,0,0,1-.62.2.2.2,0,0,0-.09-.17.25.25,0,0,0-.12,0,.2.2,0,0,0-.11.2c0,.05,0,.1.16.09a.15.15,0,0,1-.09.08.07.07,0,0,0,0,.08.08.08,0,0,0,.07.05Zm.62-.2a.19.19,0,0,0,.13-.05.16.16,0,0,0,0-.19.19.19,0,0,0-.13-.17.34.34,0,0,0-.13,0v0L35,27.46a.07.07,0,0,0-.09-.05.07.07,0,0,0-.05.08l.05.21v0a.3.3,0,0,0-.11.25c0,.07.14.07.14,0a.13.13,0,0,1,0-.08.72.72,0,0,0,.09.2Zm.38-.14a.32.32,0,0,0,.23-.11.18.18,0,0,0,0-.19.28.28,0,0,0-.41.05.25.25,0,0,0,0,.12.2.2,0,0,0,.19.13Zm.43-.18a.38.38,0,0,0,.24-.12s0-.12-.06-.13-.11.07-.12.1h0a.06.06,0,0,1-.06,0c-.06,0-.11-.13-.11-.35a.24.24,0,0,0-.13-.22.29.29,0,0,0-.3.07.09.09,0,0,0,0,.1.07.07,0,0,0,.1,0,.14.14,0,0,1,.15,0s0,0,0,.09c0,.25.06.41.18.47l.08,0ZM28.2,27s0,0,.05,0l4.52-4.1L37.19,27a.07.07,0,0,0,.07,0s.05,0,0-.07L37,19.37c0-.73-.44-.88-.77-.88a2.46,2.46,0,0,0-1.1.36A2.7,2.7,0,0,1,32.7,19a2.64,2.64,0,0,1-2.39-.15,2.38,2.38,0,0,0-1.09-.36c-.34,0-.74.15-.77.88l-.32,7.53a.07.07,0,0,0,0,.06Zm1-8.34a2.22,2.22,0,0,1,1,.34,2.71,2.71,0,0,0,2.46.16A2.77,2.77,0,0,0,35.2,19c.94-.55,1.61-.44,1.65.41l.31,7.36-4.34-4a.06.06,0,0,0-.09,0l-4.45,4,.31-7.36c0-.51.23-.75.63-.75Zm2.32,1.11.21,0a1.11,1.11,0,0,0,.71-.36l.08.1a.77.77,0,0,1,.12.17l.06.11.06-.11a.77.77,0,0,1,.12-.17l.08-.1a1.09,1.09,0,0,0,.71.36l.2,0-.14-.15-.1-.1a1.74,1.74,0,0,0,.47.05h.21l-.17-.12a2.1,2.1,0,0,1-.6-1.69c.11-.87-.12-1.37-.68-1.48l-.1,0a2.16,2.16,0,0,0-.33,0,.37.37,0,0,0-.29.19.9.9,0,0,0-.19-.05.47.47,0,0,1-.21-.07c-.2-.08-.51,0-.51.42v.1l.16-.08.21.11.07.05a.56.56,0,0,1,.29.45,2.21,2.21,0,0,1-.71,2.12l-.12.11h.17a1.78,1.78,0,0,0,.47-.05l-.1.1-.15.15ZM33,19.09l-.06.1a.77.77,0,0,1-.12.17l-.08.1-.08-.1a1.55,1.55,0,0,1-.13-.17l0-.1-.06.1a.74.74,0,0,1-.48.34,1.25,1.25,0,0,0,.12-.17L32,19.27a1.08,1.08,0,0,1-.48.14,2.36,2.36,0,0,0,.63-2.12.71.71,0,0,0-.35-.54l-.11-.07a.5.5,0,0,0-.26-.1h0c.05-.29.27-.22.31-.21a.72.72,0,0,0,.24.09.47.47,0,0,1,.2.06l.06,0,0-.06a.3.3,0,0,1,.26-.17.7.7,0,0,1,.24,0s.09,0,.13,0c.48.1.66.53.56,1.33a2.44,2.44,0,0,0,.51,1.7,1,1,0,0,1-.46-.14l-.08.09.11.17a.75.75,0,0,1-.47-.34l-.06-.1Zm.5.35h0a.07.07,0,0,0,0-.1,2.06,2.06,0,0,1-.28-1c0-.08-.14-.08-.14,0a2.28,2.28,0,0,0,.3,1.07.07.07,0,0,0,.06,0Zm-.5-.15h0a.07.07,0,0,0,0-.09,1.71,1.71,0,0,1-.15-.85c0-.08-.14-.08-.14,0a1.84,1.84,0,0,0,.17.92.09.09,0,0,0,.06,0Zm-1,.15a.07.07,0,0,0,.06,0,2.25,2.25,0,0,0,.3-1.07c0-.08-.14-.08-.14,0a2.14,2.14,0,0,1-.28,1,.08.08,0,0,0,0,.1Zm.5-.15.06,0a1.84,1.84,0,0,0,.17-.92c0-.08-.14-.08-.14,0a1.83,1.83,0,0,1-.15.85.07.07,0,0,0,0,.09Zm-1.11-2.66a.88.88,0,0,1,.31.12.68.68,0,0,1,.38.5c-.05-.16.05-.32.16-.26a.72.72,0,0,0-.85-.36Zm.69.65h0a0,0,0,0,0,0,0,.08.08,0,0,0,0,0v0a.19.19,0,0,1,.1-.17h.05s0,0,0,0a.74.74,0,0,0-.68-.42.19.19,0,0,0-.2.1.59.59,0,0,1,.22.08v0l.06.06a.65.65,0,0,1,.36.42h0s0,0,0,.06h0s0,0,0,0Zm-.58-.65a.73.73,0,0,1,.7.32.1.1,0,0,0-.1.05.09.09,0,0,0,0,.06.7.7,0,0,0-.35-.33l-.07,0-.14-.06Zm1,7-.62,2.86.2.2.22-.16.35-2.54-.15,2.54.21.26.2-.26-.15-2.54.36,2.54.21.16.21-.2-.63-2.86Zm.21,3.26.26-.36-.07-1.2.19,1.25.29.15.22-.26-.69-2.9-.46.05-.61,2.91.28.21.23-.2.17-1.2-.06,1.23.25.32Zm0-2.86.16,2.47-.16.2-.15-.16L32.72,24Zm.15-.38.64,2.79-.13.2-.19-.12-.36-2.54h-.22l-.34,2.51-.14.16-.19-.15.57-2.81.36,0ZM29,19.11a1.49,1.49,0,0,0-.51.27L28.2,26.9l.53-.46.3-7.33Zm.63.53-.47-.41-.32,7.07.53-.54.26-6.12Zm.57.46c-.06-.05-.26-.2-.36-.3l-.27,5.82.43-.41.2-5.11Zm.62.27a1.59,1.59,0,0,1-.41-.16l-.21,4.84.41-.33.21-4.35Zm.57,0a1.27,1.27,0,0,1-.41,0l-.16,4,.42-.42.15-3.62Zm5-1.26.31,7.33.53.46-.32-7.52a1.44,1.44,0,0,0-.52-.27Zm-.62.53L36,25.76l.52.46-.31-7c-.11.1-.42.35-.47.41Zm-.57.46.21,5.11.41.34-.26-5.75c-.1.1-.31.25-.36.3Zm-.62.27.21,4.27.41.34L35,20.21a1.74,1.74,0,0,1-.41.16Zm-.57,0L34.17,24l.42.42-.16-4a1.27,1.27,0,0,1-.41,0Zm-2.24,6.7a.08.08,0,0,0,.07-.05l.71-3.38-1.19-1.35a.06.06,0,0,0-.07,0,.07.07,0,0,0-.05,0L30,26.73a.11.11,0,0,0,0,.05s0,0,0,0l1.71.26Zm-1.63-.38,1.2-4.23,1.1,1.21-.72,3.26-1.58-.24Zm3.5.38h0l1.71-.26a.09.09,0,0,0,.05,0,.11.11,0,0,0,0-.05l-1.25-4.42a0,0,0,0,0,0,0,.06.06,0,0,0-.07,0L32.86,23.7,33.59,27a.06.06,0,0,0,.06.05Zm.44-4.61,1.19,4.23-1.58.24L33,23.73l1.12-1.27Zm-3,1.81.06,0,.46-.52a.07.07,0,0,0,0-.1.08.08,0,0,0-.1,0l-.39.43L31,23.81s-.06-.06-.09,0a.07.07,0,0,0,0,.09l.15.37a.1.1,0,0,0,.05,0Zm.58.31a.06.06,0,0,0,.06,0l.51-.67a.07.07,0,0,0,0-.1.08.08,0,0,0-.1,0l-.41.54-.14-1.28s0-.06-.07-.06-.07,0-.06.08l.16,1.45a.06.06,0,0,0,.05.06Zm.62.36h0a.07.07,0,0,0,0-.09l-.3-.78a.09.09,0,0,0-.09,0s-.06.06,0,.09l.31.78a.05.05,0,0,0,.06,0Zm-.47.63,0,0,.42-.42a.07.07,0,0,0,0-.1.06.06,0,0,0-.09,0l-.34.34-.23-.72a.06.06,0,0,0-.06,0s-.06,0-.07,0l-.18.34-.16-.39a.1.1,0,0,0-.05,0s-.05,0-.06,0l-.46.41a.07.07,0,0,0,0,.1.06.06,0,0,0,.09,0l.39-.34.17.42a.08.08,0,0,0,.07,0s.05,0,.06,0l.18-.33.21.68a.08.08,0,0,0,.05.05Zm.16.93h0a.06.06,0,0,0,0-.08l-.16-.78a.06.06,0,0,0-.05-.06s-.05,0-.07,0L31.4,26l-.17-.51a.07.07,0,0,0-.05,0,.1.1,0,0,0-.07,0l-.29.38-.27-.67a.09.09,0,0,0-.09,0s-.06.06,0,.09l.32.78a.07.07,0,0,0,.05,0,.08.08,0,0,0,.07,0l.28-.37.17.51s0,0,.05,0a.06.06,0,0,0,.07,0l.32-.41.12.64a.08.08,0,0,0,.07.05Zm-.42.57h.05l.31-.26a.07.07,0,0,0,0-.1.06.06,0,0,0-.09,0l-.24.2-.18-.53a.06.06,0,0,0-.06-.05.06.06,0,0,0-.06,0l-.24.4-.21-.54s0,0-.06-.05a.07.07,0,0,0-.06,0l-.31.42a.07.07,0,0,0,0,.1.07.07,0,0,0,.09,0l.24-.32.21.57A.07.07,0,0,0,31,27s.05,0,.07,0l.23-.39.16.48a0,0,0,0,0,0,0Zm2.86-2.8h0a.09.09,0,0,0,.06,0l.15-.37a.09.09,0,0,0,0-.09.06.06,0,0,0-.09,0l-.11.26L34,23.64a.08.08,0,0,0-.1,0,.07.07,0,0,0,0,.1l.46.52.05,0Zm-.57.31h0a.07.07,0,0,0,.05-.06L34,23.07S34,23,34,23a.09.09,0,0,0-.08.06l-.13,1.28-.42-.54a.06.06,0,0,0-.09,0,.08.08,0,0,0,0,.1l.53.67a.05.05,0,0,0,.05,0Zm-.62.36a.06.06,0,0,0,.06,0l.31-.78a.07.07,0,0,0,0-.09.08.08,0,0,0-.09,0l-.31.78a.09.09,0,0,0,0,.09Zm.46.63h0s0,0,0-.05l.17-.68.22.33s0,0,.07,0a.05.05,0,0,0,0,0l.18-.42.4.34a.06.06,0,0,0,.09,0,.07.07,0,0,0,0-.1l-.47-.41a.07.07,0,0,0-.06,0,.1.1,0,0,0,0,0l-.16.4-.24-.36a.09.09,0,0,0-.07,0,.06.06,0,0,0-.06,0l-.17.71L33.29,25a.07.07,0,0,0-.1,0,.09.09,0,0,0,0,.1l.42.42,0,0Zm-.16.93s.07,0,.07-.05l.13-.64.32.41a.06.06,0,0,0,.07,0,.07.07,0,0,0,.05,0l.17-.51.28.37a.08.08,0,0,0,.07,0,.07.07,0,0,0,.05,0l.32-.78a.07.07,0,0,0,0-.09.09.09,0,0,0-.09,0l-.27.67-.29-.38a.1.1,0,0,0-.07,0,0,0,0,0,0,0,0L34,26l-.33-.42a.06.06,0,0,0-.07,0,.06.06,0,0,0,0,.06l-.16.78s0,.08,0,.08Zm.43.57h0s0,0,0,0l.16-.48.23.39s0,0,.07,0a.08.08,0,0,0,.06,0l.21-.57.24.32a.07.07,0,0,0,.09,0,.08.08,0,0,0,0-.1l-.31-.42a.11.11,0,0,0-.07,0,.08.08,0,0,0,0,.05l-.21.54-.24-.4a.07.07,0,0,0-.06,0,.06.06,0,0,0-.06.05l-.18.53-.24-.2a.06.06,0,0,0-.09,0,.08.08,0,0,0,0,.1l.32.26Zm-1.2-2.66h0a4.37,4.37,0,0,0,1.94-4.08,3,3,0,0,1-2-.56,2.72,2.72,0,0,1-1.73.56h0a.58.58,0,0,0-.26.05,4.48,4.48,0,0,0,2,4Zm-2-4H31a2.52,2.52,0,0,0,1.73-.59,2.83,2.83,0,0,0,1.79.59c.07,0,.14,0,.16-.06a4.38,4.38,0,0,1-1.92,3.94,4.53,4.53,0,0,1-2-3.89Zm2,3.74a4.31,4.31,0,0,0,1.77-3.63A2.7,2.7,0,0,1,32.72,20a2.87,2.87,0,0,1-1.82.52,4.47,4.47,0,0,0,1.82,3.63Zm0,.07h0a4.37,4.37,0,0,0,1.8-3.69s0,0,0-.05l0,0a2.66,2.66,0,0,1-1.73-.5.06.06,0,0,0-.08,0,2.77,2.77,0,0,1-1.78.5l0,0a.08.08,0,0,0,0,.05,4.55,4.55,0,0,0,1.84,3.69ZM31,20.58a2.89,2.89,0,0,0,1.75-.5,2.87,2.87,0,0,0,1.7.5,4.27,4.27,0,0,1-1.7,3.5A4.44,4.44,0,0,1,31,20.58Zm.82,6.72.37,0c.25,0,.33-.17.32-.29a.29.29,0,0,0-.28-.26h0A5,5,0,0,1,31,26.67a8.58,8.58,0,0,1-1.19-.26.33.33,0,0,0-.31.24c0,.06,0,.21.23.32s.95.21,1.2.25a5.35,5.35,0,0,0,.9.08Zm-2-.75h0a7,7,0,0,0,1.15.26,5.28,5.28,0,0,0,1.26.06.14.14,0,0,1,.14.13c0,.07-.07.13-.2.14a4.8,4.8,0,0,1-1.22-.05c-.25-.05-.83-.15-1.19-.25-.05,0-.15-.08-.13-.17a.19.19,0,0,1,.19-.12Zm3.85.75a5.38,5.38,0,0,0,.91-.08c.24,0,.83-.15,1.21-.25s.23-.26.22-.32a.33.33,0,0,0-.37-.23,7.16,7.16,0,0,1-1.13.25,5,5,0,0,1-1.24.06A.29.29,0,0,0,33,27c0,.12.07.26.32.29l.36,0Zm-.41-.43a5.39,5.39,0,0,0,1.27-.06,8.29,8.29,0,0,0,1.17-.26.18.18,0,0,1,.17.12c0,.09-.08.14-.13.17-.36.1-.94.2-1.19.25a4.82,4.82,0,0,1-1.22.05c-.13,0-.21-.07-.2-.14a.15.15,0,0,1,.13-.13Zm-3.93.25s.05,0,.06,0a.31.31,0,0,1,.12-.07.33.33,0,0,0,.19-.14.29.29,0,0,0,0-.18.16.16,0,0,1,0-.11s0,0,0-.07-.07,0-.09-.05a.37.37,0,0,0-.33.19.45.45,0,0,0,0,.43.08.08,0,0,0,.07,0Zm.25-.51a.17.17,0,0,0,0,.1.13.13,0,0,1-.13.17l-.09.05a.46.46,0,0,1,.05-.2.3.3,0,0,1,.17-.12Zm1.35.95a.07.07,0,0,0,.07-.07c0-.07,0-.09.08-.14a.27.27,0,0,0,.13-.24c0-.13-.07-.33-.23-.33a.28.28,0,0,0-.27.26.33.33,0,0,0,.08.29.24.24,0,0,1,.07.16.08.08,0,0,0,.07.07Zm.05-.64s.09.1.09.19a.16.16,0,0,1-.08.14l-.05.05,0-.06a.2.2,0,0,1-.06-.19.16.16,0,0,1,.14-.13Zm1.56.67a.09.09,0,0,0,.06,0,.59.59,0,0,0,.08-.57.28.28,0,0,0-.27-.16s-.06.05-.07.07,0,.09,0,.11a.26.26,0,0,0-.12.2c0,.08.07.13.14.18s.12.08.12.13a.08.08,0,0,0,.05.07Zm0-.6.05.06a.44.44,0,0,1,0,.32l-.12-.09s-.08-.05-.08-.07,0-.06.07-.09a.25.25,0,0,0,.09-.13Zm3.66.13a.05.05,0,0,0,.06,0,.44.44,0,0,0,0-.43.37.37,0,0,0-.4-.18.07.07,0,0,0-.06,0,.09.09,0,0,0,0,.07c0,.06,0,.08,0,.11a.49.49,0,0,0,0,.19c0,.07.12.1.19.13a.31.31,0,0,1,.12.07s0,0,.06,0Zm-.25-.51a.21.21,0,0,1,.16.12.29.29,0,0,1,.05.2L36,26.88a.19.19,0,0,1-.11-.06.15.15,0,0,1,0-.11.33.33,0,0,0,0-.1Zm-1.36.95a.07.07,0,0,0,.07-.07.21.21,0,0,1,.08-.16.32.32,0,0,0,.08-.28.28.28,0,0,0-.27-.27c-.16,0-.23.2-.23.33a.29.29,0,0,0,.12.24s.08.07.08.14a.07.07,0,0,0,.07.07Zm0-.64a.17.17,0,0,1,.14.15c0,.08,0,.11-.06.17a.21.21,0,0,0,0,.06l-.05-.05a.16.16,0,0,1-.08-.14c0-.09,0-.19.09-.19Zm-1.57.67h0a.08.08,0,0,0,0-.07c0-.05.06-.09.12-.13s.15-.1.15-.18-.07-.16-.15-.27,0-.05,0-.07a.07.07,0,0,0-.06,0,.28.28,0,0,0-.26.16.59.59,0,0,0,.08.57.05.05,0,0,0,.05,0Zm0-.6a.25.25,0,0,0,.09.13s.07.05.07.09a.35.35,0,0,1-.09.07l-.11.09a.44.44,0,0,1,0-.32L33,27Zm-2.89-.2,0,0a.06.06,0,0,0,0-.06.57.57,0,0,0-.35-.12,0,0,0,0,0,0,0,0,0,0,0,0,0,.06l.31.1Zm.57.16a.05.05,0,0,0,.05,0,0,0,0,0,0,0-.06c-.15-.08-.43-.15-.44-.07a.05.05,0,0,0,0,.06l.36.1Zm1.14.15h0l.36-.05A0,0,0,0,0,32.2,27s0,0-.05,0a.75.75,0,0,0-.4.06,0,0,0,0,0,0,.05.05.05,0,0,0,0,0Zm-.2-.05s0,0,0,0a0,0,0,0,0,0-.05.38.38,0,0,0-.42,0,0,0,0,0,0,0,.06s0,0,0,0Zm3.79-.26h0l.31-.1a0,0,0,0,0,0-.06,0,0,0,0,0,0,0,.59.59,0,0,0-.35.12s0,0,0,.06l0,0ZM34.8,27h0l.36-.1a.05.05,0,0,0,0-.06c0-.08-.28,0-.44.07a0,0,0,0,0,0,.06.05.05,0,0,0,0,0Zm-1.15.15a.05.05,0,0,0,.05,0,0,0,0,0,0,0-.05.75.75,0,0,0-.4-.06,0,0,0,0,0,0,.09l.37.05Zm.57-.05s.05,0,.05,0a0,0,0,0,0,0-.06.38.38,0,0,0-.42,0s0,0,0,.05a.05.05,0,0,0,0,0Zm-.77-10.27a.78.78,0,0,0-.54-.51,1.44,1.44,0,0,0-.42,0c-.16,0-.29.12-.34.23.16.11.19.22.27.26s.24,0,.4-.15a.4.4,0,0,1,.63.2Zm-.92,0a.5.5,0,0,0,.32-.18c.13-.13.38-.06.59.08a.75.75,0,0,0-.52-.44.84.84,0,0,0-.34,0h-.14c-.17,0-.29.19-.31.29a1.39,1.39,0,0,1,.17.16.29.29,0,0,0,.11.11l.12,0Zm-.05-.51h.17a1.07,1.07,0,0,1,.25,0,.87.87,0,0,1,.4.23.43.43,0,0,0-.5,0c-.17.16-.23.19-.36.15a.38.38,0,0,1-.09-.09.37.37,0,0,0-.17-.13.35.35,0,0,1,.3-.21Z"/></g></g><path class="cls-3" d="M32.72,44.85a7.06,7.06,0,0,1-2.48-.45L16.37,39.14a7,7,0,0,1-4.5-6.53V12.42a7,7,0,0,1,4.5-6.52L30.24.64a6.92,6.92,0,0,1,4.95,0L49.07,5.9a7,7,0,0,1,4.5,6.52V32.61a7,7,0,0,1-4.5,6.53L35.19,44.4A7,7,0,0,1,32.72,44.85Zm0-43.06a5.47,5.47,0,0,0-1.91.35L16.94,7.4a5.42,5.42,0,0,0-3.47,5V32.61a5.41,5.41,0,0,0,3.47,5l13.87,5.26a5.32,5.32,0,0,0,3.81,0L48.5,37.63a5.4,5.4,0,0,0,3.46-5V12.42a5.41,5.41,0,0,0-3.46-5L34.62,2.14A5.41,5.41,0,0,0,32.72,1.79Z"/></g></g></svg>