<svg xmlns="http://www.w3.org/2000/svg" xmlns:xlink="http://www.w3.org/1999/xlink" viewBox="0 0 62.13 44.67"><defs><style>.cls-1{fill:none;}.cls-2{clip-path:url(#clip-path);}.cls-3{fill:#fff;}.cls-4{fill:#d91b26;fill-rule:evenodd;}</style><clipPath id="clip-path"><path class="cls-1" d="M47.13,6.47,33.26,1.21a6.15,6.15,0,0,0-4.39,0L15,6.47a6.17,6.17,0,0,0-4,5.77V32.43a6.17,6.17,0,0,0,4,5.77l13.87,5.26a6.15,6.15,0,0,0,4.39,0L47.13,38.2a6.17,6.17,0,0,0,4-5.77V12.24A6.17,6.17,0,0,0,47.13,6.47Z"/></clipPath></defs><title>england</title><g id="Layer_2" data-name="Layer 2"><g id="OBJECTS"><g class="cls-2"><g id="england"><rect class="cls-3" x="0.09" y="1.44" width="61.94" height="41.79"/><polygon class="cls-4" points="26.93 1.34 35.2 1.34 35.2 18.46 62.13 18.46 62.13 26.21 35.2 26.21 35.2 43.33 26.93 43.33 26.93 26.21 0 26.21 0 18.46 26.93 18.46 26.93 1.34"/></g></g><path class="cls-3" d="M31.06,44.67a7,7,0,0,1-2.47-.45L14.72,39a7,7,0,0,1-4.51-6.52V12.24a7,7,0,0,1,4.51-6.52L28.59.45a7,7,0,0,1,4.95,0L47.41,5.72a7,7,0,0,1,4.51,6.52V32.43A7,7,0,0,1,47.41,39L33.54,44.22A7.06,7.06,0,0,1,31.06,44.67Zm0-43.06a5.2,5.2,0,0,0-1.9.35L15.29,7.22a5.4,5.4,0,0,0-3.47,5V32.43a5.39,5.39,0,0,0,3.47,5l13.87,5.26a5.32,5.32,0,0,0,3.81,0l13.87-5.26a5.39,5.39,0,0,0,3.47-5V12.24a5.4,5.4,0,0,0-3.47-5L33,2A5.43,5.43,0,0,0,31.06,1.61Z"/></g></g></svg>