<svg xmlns="http://www.w3.org/2000/svg" xmlns:xlink="http://www.w3.org/1999/xlink" viewBox="0 0 60.53 46.34"><defs><style>.cls-1{fill:none;}.cls-2{clip-path:url(#clip-path);}.cls-3{fill:#fff;}.cls-4{fill:#dc1b29;}.cls-5{fill:#2c3281;fill-rule:evenodd;}</style><clipPath id="clip-path"><path class="cls-1" d="M46.36,8,32.49,2.77a6.12,6.12,0,0,0-4.38,0L14.24,8a6.18,6.18,0,0,0-4,5.77V34a6.18,6.18,0,0,0,4,5.77L28.11,45a6.23,6.23,0,0,0,4.38,0l13.87-5.27a6.18,6.18,0,0,0,4-5.77V13.8A6.18,6.18,0,0,0,46.36,8Z"/></clipPath></defs><title>france</title><g id="Layer_2" data-name="Layer 2"><g id="OBJECTS"><g class="cls-2"><g id="france"><rect class="cls-3" x="18.83" y="1.7" width="23.09" height="44.6"/><rect class="cls-4" x="38.36" width="22.17" height="44.67"/><polygon class="cls-5" points="22.1 1.67 0 1.67 0 46.34 22.16 46.34 22.16 46.34 22.1 46.34 22.1 1.67"/></g></g><path class="cls-3" d="M30.3,46.23a7.06,7.06,0,0,1-2.48-.45L14,40.51A7,7,0,0,1,9.45,34V13.8A7,7,0,0,1,14,7.28L27.82,2a7.06,7.06,0,0,1,5,0L46.65,7.28a7,7,0,0,1,4.5,6.52V34a7,7,0,0,1-4.5,6.52L32.78,45.78A7.06,7.06,0,0,1,30.3,46.23Zm0-43.06a5.47,5.47,0,0,0-1.91.35L14.52,8.78a5.42,5.42,0,0,0-3.47,5V34a5.41,5.41,0,0,0,3.47,5l13.87,5.26a5.32,5.32,0,0,0,3.81,0L46.08,39a5.41,5.41,0,0,0,3.47-5V13.8a5.42,5.42,0,0,0-3.47-5L32.2,3.52A5.37,5.37,0,0,0,30.3,3.17Z"/></g></g></svg>