<svg xmlns="http://www.w3.org/2000/svg" xmlns:xlink="http://www.w3.org/1999/xlink" viewBox="0 0 68.11 46.01"><defs><style>.cls-1{fill:none;}.cls-2{clip-path:url(#clip-path);}.cls-3{fill:#f8d835;}.cls-4{fill:#dc1b29;}.cls-5{fill:#fff;}</style><clipPath id="clip-path"><path class="cls-1" d="M50.12,6.85,36.25,1.59a6.23,6.23,0,0,0-4.38,0L18,6.85a6.17,6.17,0,0,0-4,5.78V32.81a6.17,6.17,0,0,0,4,5.78l13.88,5.26a6.23,6.23,0,0,0,4.38,0l13.87-5.26a6.18,6.18,0,0,0,4-5.78V12.63A6.18,6.18,0,0,0,50.12,6.85Z"/></clipPath></defs><title>germany</title><g id="Layer_2" data-name="Layer 2"><g id="OBJECTS"><g class="cls-2"><g id="germany"><g id="flag"><rect class="cls-3" y="30.67" width="68.11" height="15.34"/><rect class="cls-4" y="15.34" width="68.11" height="15.34"/><rect width="68.11" height="15.34"/></g></g></g><path class="cls-5" d="M34.06,45.05a7.06,7.06,0,0,1-2.48-.45L17.71,39.34a7,7,0,0,1-4.51-6.53V12.63A7,7,0,0,1,17.71,6.1L31.58.84a6.92,6.92,0,0,1,5,0L50.41,6.1a7,7,0,0,1,4.5,6.53V32.81a7,7,0,0,1-4.5,6.53L36.53,44.6A7,7,0,0,1,34.06,45.05ZM34.06,2a5.47,5.47,0,0,0-1.91.35L18.28,7.61a5.38,5.38,0,0,0-3.47,5V32.81a5.38,5.38,0,0,0,3.47,5L32.15,43.1a5.43,5.43,0,0,0,3.81,0l13.88-5.27a5.39,5.39,0,0,0,3.46-5V12.63a5.39,5.39,0,0,0-3.46-5L36,2.34A5.41,5.41,0,0,0,34.06,2Z"/></g></g></svg>