<svg xmlns="http://www.w3.org/2000/svg" xmlns:xlink="http://www.w3.org/1999/xlink" viewBox="0 0 66.58 44.79"><defs><style>.cls-1{fill:none;}.cls-2{clip-path:url(#clip-path);}.cls-3{fill:#223693;}.cls-4{fill:#fff;}.cls-5{fill:#c51d32;}</style><clipPath id="clip-path"><path class="cls-1" d="M43.05,6.53,29.18,1.26a6.23,6.23,0,0,0-4.38,0L10.93,6.53a6.17,6.17,0,0,0-4,5.77V32.49a6.18,6.18,0,0,0,4,5.77L24.8,43.52a6.12,6.12,0,0,0,4.38,0l13.87-5.26a6.18,6.18,0,0,0,4-5.77V12.3A6.17,6.17,0,0,0,43.05,6.53Z"/></clipPath></defs><title>iceland</title><g id="Layer_2" data-name="Layer 2"><g id="OBJECTS"><g class="cls-2"><g id="iceland"><rect class="cls-3" x="26.92" y="27.37" width="39.66" height="17.42"/><rect class="cls-3" x="26.92" width="39.66" height="17.42"/><rect class="cls-3" width="16.97" height="17.42"/><rect class="cls-3" y="27.37" width="16.97" height="17.42"/><rect class="cls-4" x="16.97" width="2.49" height="17.42"/><rect class="cls-4" x="24.43" width="2.49" height="17.42"/><rect class="cls-4" x="16.97" y="27.37" width="2.49" height="17.42"/><rect class="cls-4" x="24.43" y="27.37" width="2.49" height="17.42"/><polygon class="cls-4" points="24.43 17.42 24.43 19.91 66.58 19.91 66.58 17.42 26.92 17.42 24.43 17.42"/><polygon class="cls-4" points="24.43 24.88 24.43 27.37 26.92 27.37 66.58 27.37 66.58 24.88 24.43 24.88"/><polygon class="cls-4" points="19.46 27.37 19.46 24.88 0 24.88 0 27.37 16.97 27.37 19.46 27.37"/><polygon class="cls-4" points="19.46 19.91 19.46 17.42 16.97 17.42 0 17.42 0 19.91 19.46 19.91"/><polygon class="cls-5" points="24.43 24.88 19.46 24.88 19.46 27.37 19.46 44.79 24.43 44.79 24.43 27.37 24.43 24.88"/><polygon class="cls-5" points="19.46 19.91 24.43 19.91 24.43 17.42 24.43 0 19.46 0 19.46 17.42 19.46 19.91"/><polygon class="cls-5" points="19.46 24.88 24.43 24.88 66.58 24.88 66.58 19.91 24.43 19.91 19.46 19.91 0 19.91 0 24.88 19.46 24.88"/></g></g><path class="cls-4" d="M27,44.73a6.76,6.76,0,0,1-2.47-.46L10.64,39a7,7,0,0,1-4.5-6.52V12.3a7,7,0,0,1,4.5-6.53L24.52.51a7,7,0,0,1,4.95,0L43.34,5.77a7,7,0,0,1,4.5,6.53V32.49A7,7,0,0,1,43.34,39L29.47,44.27A6.85,6.85,0,0,1,27,44.73ZM27,1.67a5.16,5.16,0,0,0-1.9.35L11.21,7.28a5.39,5.39,0,0,0-3.46,5V32.49a5.41,5.41,0,0,0,3.46,5l13.88,5.26a5.32,5.32,0,0,0,3.81,0l13.87-5.26a5.42,5.42,0,0,0,3.47-5V12.3a5.4,5.4,0,0,0-3.47-5L28.9,2A5.25,5.25,0,0,0,27,1.67Z"/></g></g></svg>