<svg xmlns="http://www.w3.org/2000/svg" xmlns:xlink="http://www.w3.org/1999/xlink" viewBox="0 0 66.08 44.67"><defs><style>.cls-1{fill:none;}.cls-2{clip-path:url(#clip-path);}.cls-3{fill:#fff;}.cls-4{fill:#219257;}.cls-5{fill:#d91b26;}</style><clipPath id="clip-path"><path class="cls-1" d="M49.1,6.47,35.23,1.21a6.12,6.12,0,0,0-4.38,0L17,6.47a6.18,6.18,0,0,0-4,5.77V32.43a6.18,6.18,0,0,0,4,5.77l13.88,5.26a6.12,6.12,0,0,0,4.38,0L49.1,38.2a6.18,6.18,0,0,0,4-5.77V12.24A6.18,6.18,0,0,0,49.1,6.47Z"/></clipPath></defs><title>iran</title><g id="Layer_2" data-name="Layer 2"><g id="OBJECTS"><g class="cls-2"><g id="iran"><rect class="cls-3" x="0.03" y="10.31" width="66.03" height="25.12"/><polygon class="cls-4" points="66.08 3.07 66.08 0.01 0 0.01 0 3.07 0 3.07 0 15.91 0.15 15.91 0.15 15.61 2.85 15.61 2.85 15.91 3.15 15.91 3.15 15.61 5.86 15.61 5.86 15.91 6.16 15.91 6.16 15.61 8.86 15.61 8.86 15.91 9.16 15.91 9.16 15.61 11.86 15.61 11.86 15.91 12.16 15.91 12.16 15.61 14.87 15.61 14.87 15.91 15.17 15.91 15.17 15.61 17.87 15.61 17.87 15.91 18.17 15.91 18.17 15.61 20.88 15.61 20.88 15.91 21.18 15.91 21.18 15.61 23.88 15.61 23.88 15.91 24.18 15.91 24.18 15.61 26.88 15.61 26.88 15.91 27.18 15.91 27.18 15.61 29.89 15.61 29.89 15.91 30.19 15.91 30.19 15.61 32.89 15.61 32.89 15.91 33.19 15.91 33.19 15.61 35.89 15.61 35.89 15.91 36.19 15.91 36.19 15.61 38.9 15.61 38.9 15.91 39.2 15.91 39.2 15.61 41.9 15.61 41.9 15.91 42.2 15.91 42.2 15.61 44.9 15.61 44.9 15.91 45.2 15.91 45.2 15.61 47.91 15.61 47.91 15.91 48.21 15.91 48.21 15.61 50.91 15.61 50.91 15.91 51.21 15.91 51.21 15.61 53.91 15.61 53.91 15.91 54.22 15.91 54.22 15.61 56.92 15.61 56.92 15.91 57.22 15.91 57.22 15.61 59.92 15.61 59.92 15.91 60.22 15.91 60.22 15.61 62.92 15.61 62.92 15.91 63.22 15.91 63.22 15.61 65.93 15.61 65.93 15.91 66.08 15.91 66.08 3.07 66.08 3.07"/><path class="cls-5" d="M65.93,28.67V29H63.22v-.3h-.29V29H60.22v-.3h-.3V29h-2.7v-.3h-.3V29H54.21v-.3h-.3V29h-2.7v-.3h-.3V29h-2.7v-.3h-.3V29H45.2v-.3h-.3V29H42.2v-.3h-.3V29H39.2v-.3h-.3V29H36.19v-.3h-.3V29h-2.7v-.3h-.3V29h-2.7v-.3h-.3V29H27.18v-.3h-.3V29h-2.7v-.3h-.3V29h-2.7v-.3h-.3V29H18.17v-.3h-.3V29h-2.7v-.3h-.3V29H12.16v-.3h-.3V29H9.16v-.3h-.3V29H6.16v-.3h-.3V29H3.16v-.3h-.3V29H.15v-.3H0V41.51H0v3.06H66.08V41.51h0V28.67Zm-1.51.61h.31V30.5H65V29.28h.3V30.5h.3V29.28h.3v1.53H64.42V30.2h-.9v.3h.61v.31h-.91v-.92h1.2Zm-4.2,0h3.91v.3H60.22Zm0,.61h1.5v.61h.9v-.3H62v-.31h.91v.92H61.42V30.2h-.9v.61h-.3Zm.9.61v.31h-.3V30.5Zm-2.7-1.22h.3V30.5H59V29.28h.3V30.5h.3V29.28h.3v1.53h-1.5V30.2h-.9v.3h.6v.31h-.9v-.92h1.2Zm-4.21,0h3.91v.3H54.21Zm0,.61h1.51v.61h.9v-.3H56v-.31h.9v.92h-1.5V30.2h-.9v.61h-.31Zm.91.61v.31h-.3V30.5Zm-2.71-1.22h.3V30.5H53V29.28h.3V30.5h.3V29.28h.3v1.53h-1.5V30.2h-.9v.3h.6v.31h-.9v-.92h1.2Zm-4.2,0h3.9v.3h-3.9Zm0,.61h1.5v.61h.9v-.3H50v-.31h.9v.92h-1.5V30.2h-.9v.61h-.3Zm.9.61v.31h-.3V30.5ZM46.4,29.28h.31V30.5H47V29.28h.3V30.5h.3V29.28h.3v1.53H46.4V30.2h-.9v.3h.6v.31h-.9v-.92h1.2Zm-4.2,0h3.9v.3H42.2Zm0,.61h1.5v.61h.9v-.3H44v-.31h.9v.92H43.4V30.2h-.9v.61h-.3Zm.9.61v.31h-.3V30.5Zm-2.7-1.22h.3V30.5H41V29.28h.3V30.5h.3V29.28h.3v1.53H40.4V30.2h-.9v.3h.6v.31h-.9v-.92h1.2Zm-4.21,0H40.1v.3H36.19Zm0,.61h1.5v.61h.91v-.3H38v-.31h.91v.92H37.39V30.2h-.9v.61h-.3Zm.9.61v.31h-.3V30.5Zm-2.7-1.22h.3V30.5H35V29.28h.3V30.5h.3V29.28h.3v1.53h-1.5V30.2h-.9v.3h.6v.31h-.9v-.92h1.2Zm-4.2,0h3.9v.3h-3.9Zm0,.61h1.5v.61h.9v-.3H32v-.31h.9v.92h-1.5V30.2h-.9v.61h-.3Zm.9.61v.31h-.3V30.5Zm-2.71-1.22h.3V30.5H29V29.28h.31V30.5h.3V29.28h.3v1.53H28.38V30.2h-.9v.3h.6v.31h-.9v-.92h1.2Zm-4.2,0h3.9v.3h-3.9Zm0,.61h1.5v.61h.9v-.3H26v-.31h.9v.92h-1.5V30.2h-.9v.61h-.3Zm.9.61v.31h-.3V30.5Zm-2.7-1.22h.3V30.5H23V29.28h.3V30.5h.3V29.28h.3v1.53h-1.5V30.2h-.9v.3h.6v.31h-.9v-.92h1.2Zm-4.21,0h3.91v.3H18.17Zm0,.61h1.5v.61h.91v-.3H20v-.31h.91v.92H19.37V30.2h-.9v.61h-.3Zm.9.61v.31h-.3V30.5Zm-2.7-1.22h.3V30.5H17V29.28h.3V30.5h.3V29.28h.3v1.53h-1.5V30.2h-.9v.3h.6v.31h-.9v-.92h1.2Zm-4.21,0h3.91v.3H12.16Zm0,.61h1.51v.61h.9v-.3H14v-.31h.9v.92h-1.5V30.2h-.9v.61h-.31Zm.91.61v.31h-.3V30.5Zm-2.71-1.22h.3V30.5H11V29.28h.3V30.5h.3V29.28h.3v1.53h-1.5V30.2h-.9v.3h.6v.31h-.9v-.92h1.2Zm-4.2,0h3.9v.3H6.16Zm0,.61h1.5v.61h.9v-.3H8v-.31h.9v.92H7.36V30.2h-.9v.61h-.3Zm.9.61v.31h-.3V30.5ZM4.35,29.28h.31V30.5H5V29.28h.3V30.5h.3V29.28h.3v1.53H4.35V30.2h-.9v.3h.61v.31h-.9v-.92H4.35Zm-4.2,0H4.06v.3H.15Zm0,.61h1.5v.61h.9v-.3H2v-.31h.91v.92H1.35V30.2H.45v.61H.15Zm.9.61v.31H.75V30.5Z"/><path class="cls-3" d="M.15,15.3h.3v-.61h.9v.61H2.86v-.91H2v.3h.6V15h-.9v-.61H.15Zm.6,0h.3V15H.75Zm-.6-1.22H4.06v-.31H.15ZM4.06,15.3h-.9v-.91H4.35v-.62h.31V15H5V13.77h.3V15h.3V13.77h.3V15.3H4.35v-.61h-.9V15h.61Z"/><path class="cls-3" d="M6.16,15.3h.3v-.61h.9v.61h1.5v-.91H8v.3h.6V15h-.9v-.61H6.16Zm.6,0h.3V15h-.3Zm-.6-1.22h3.9v-.31H6.16Zm3.9,1.22h-.9v-.91h1.2v-.62h.3V15H11V13.77h.3V15h.3V13.77h.3V15.3h-1.5v-.61h-.9V15h.6Z"/><path class="cls-3" d="M12.17,15.3h.3v-.61h.9v.61h1.5v-.91H14v.3h.6V15h-.9v-.61h-1.5Zm.6,0h.3V15h-.3Zm-.6-1.22h3.9v-.31h-3.9Zm3.9,1.22h-.9v-.91h1.2v-.62h.3V15H17V13.77h.3V15h.3V13.77h.3V15.3h-1.5v-.61h-.9V15h.6Z"/><path class="cls-3" d="M18.17,15.3h.3v-.61h.9v.61h1.51v-.91H20v.3h.61V15h-.91v-.61h-1.5Zm.6,0h.3V15h-.3Zm-.6-1.22h3.91v-.31H18.17Zm3.91,1.22h-.9v-.91h1.2v-.62h.3V15H23V13.77h.3V15h.3V13.77h.3V15.3h-1.5v-.61h-.9V15h.6Z"/><path class="cls-3" d="M24.18,15.3h.3v-.61h.9v.61h1.5v-.91H26v.3h.6V15h-.9v-.61h-1.5Zm.6,0h.3V15h-.3Zm-.6-1.22h3.9v-.31h-3.9Zm3.9,1.22h-.9v-.91h1.2v-.62h.3V15H29V13.77h.31V15h.3V13.77h.3V15.3H28.38v-.61h-.9V15h.6Z"/><path class="cls-3" d="M30.19,15.3h.3v-.61h.9v.61h1.5v-.91H32v.3h.6V15h-.9v-.61h-1.5Zm.6,0h.3V15h-.3Zm-.6-1.22h3.9v-.31h-3.9Zm3.9,1.22h-.9v-.91h1.2v-.62h.3V15H35V13.77h.3V15h.3V13.77h.3V15.3h-1.5v-.61h-.9V15h.6Z"/><path class="cls-3" d="M36.19,15.3h.3v-.61h.91v.61h1.5v-.91H38v.3h.6V15h-.91v-.61h-1.5Zm.6,0h.3V15h-.3Zm-.6-1.22H40.1v-.31H36.19ZM40.1,15.3h-.9v-.91h1.2v-.62h.3V15H41V13.77h.3V15h.3V13.77h.3V15.3H40.4v-.61h-.9V15h.6Z"/><path class="cls-3" d="M42.2,15.3h.3v-.61h.9v.61h1.5v-.91H44v.3h.6V15h-.9v-.61H42.2Zm.6,0h.3V15h-.3Zm-.6-1.22h3.9v-.31H42.2Zm3.9,1.22h-.9v-.91h1.2v-.62h.31V15H47V13.77h.3V15h.3V13.77h.3V15.3H46.4v-.61h-.9V15h.6Z"/><path class="cls-3" d="M48.21,15.3h.3v-.61h.9v.61h1.5v-.91H50v.3h.6V15h-.9v-.61h-1.5Zm.6,0h.3V15h-.3Zm-.6-1.22h3.9v-.31h-3.9Zm3.9,1.22h-.9v-.91h1.2v-.62h.3V15H53V13.77h.3V15h.3V13.77h.3V15.3h-1.5v-.61h-.9V15h.6Z"/><path class="cls-3" d="M54.21,15.3h.3v-.61h.91v.61h1.5v-.91H56v.3h.6V15h-.9v-.61H54.21Zm.61,0h.3V15h-.3Zm-.61-1.22h3.91v-.31H54.21Zm3.91,1.22h-.9v-.91h1.2v-.62h.3V15H59V13.77h.3V15h.3V13.77h.3V15.3h-1.5v-.61h-.9V15h.6Z"/><path class="cls-3" d="M60.22,15.3h.3v-.61h.9v.61h1.51v-.91H62v.3h.6V15h-.9v-.61h-1.5Zm.6,0h.3V15h-.3Zm-.6-1.22h3.91v-.31H60.22Zm3.91,1.22h-.91v-.91h1.2v-.62h.31V15H65V13.77h.3V15h.3V13.77h.3V15.3H64.42v-.61h-.9V15h.61Z"/><path class="cls-5" d="M32.32,18.11A.72.72,0,0,0,33,17.9a.73.73,0,0,0,1.05,0,.76.76,0,0,0,.2-.73.84.84,0,0,1-1.18.28l-.07,0a.86.86,0,0,1-1.21-.17l0-.07A.76.76,0,0,0,32.32,18.11Z"/><path class="cls-5" d="M33.93,26.31A4.69,4.69,0,0,0,36,23.88a4.86,4.86,0,0,0-1.43-5.54,5.25,5.25,0,0,1-1,7.21l.1-7L33,18.07l-.63.51.1,7a5.25,5.25,0,0,1-1-7.21A4.86,4.86,0,0,0,30,23.88a4.69,4.69,0,0,0,2.11,2.43,4.89,4.89,0,0,1-2.25.25,4.61,4.61,0,0,0,2.63.26v.06l.51.6.51-.6v-.06a4.57,4.57,0,0,0,2.62-.26A4.86,4.86,0,0,1,33.93,26.31Z"/><path class="cls-5" d="M37.69,20.19a4.12,4.12,0,0,0-2.49-2,5.26,5.26,0,0,1,1.12,7.25,2.91,2.91,0,0,1-.26.33A4.15,4.15,0,0,0,37.69,20.19Z"/><path class="cls-5" d="M29.76,25.43a5.26,5.26,0,0,1,1.12-7.25A4.13,4.13,0,0,0,30,25.76,4.19,4.19,0,0,1,29.76,25.43Z"/></g></g><path class="cls-3" d="M33,44.67a7.06,7.06,0,0,1-2.48-.45L16.69,39a7,7,0,0,1-4.5-6.52V12.24a7,7,0,0,1,4.5-6.52L30.56.45a7,7,0,0,1,4.95,0L49.39,5.72a7,7,0,0,1,4.5,6.52V32.43A7,7,0,0,1,49.39,39L35.51,44.22A7,7,0,0,1,33,44.67ZM33,1.61A5.25,5.25,0,0,0,31.13,2L17.26,7.22a5.42,5.42,0,0,0-3.47,5V32.43a5.41,5.41,0,0,0,3.47,5l13.87,5.26a5.32,5.32,0,0,0,3.81,0l13.88-5.26a5.4,5.4,0,0,0,3.46-5V12.24a5.41,5.41,0,0,0-3.46-5L34.94,2A5.41,5.41,0,0,0,33,1.61Z"/></g></g></svg>