<svg xmlns="http://www.w3.org/2000/svg" xmlns:xlink="http://www.w3.org/1999/xlink" viewBox="0 0 67.66 45.61"><defs><style>.cls-1{fill:none;}.cls-2{clip-path:url(#clip-path);}.cls-3{fill:#fff;}.cls-4{fill:#d41022;}</style><clipPath id="clip-path"><path class="cls-1" d="M49.89,6.88,36,1.62a6.12,6.12,0,0,0-4.38,0L17.76,6.88a6.17,6.17,0,0,0-4,5.77V32.84a6.17,6.17,0,0,0,4,5.77l13.88,5.27a6.23,6.23,0,0,0,4.38,0l13.87-5.27a6.18,6.18,0,0,0,4-5.77V12.65A6.18,6.18,0,0,0,49.89,6.88Z"/></clipPath></defs><title>japan</title><g id="Layer_2" data-name="Layer 2"><g id="OBJECTS"><g class="cls-2"><g id="japan"><rect class="cls-3" width="67.66" height="45.61"/><path class="cls-4" d="M34,12.05A10.76,10.76,0,1,1,23.27,22.81,10.76,10.76,0,0,1,34,12.05Z"/></g></g><path class="cls-3" d="M33.83,45.08a7.06,7.06,0,0,1-2.48-.45L17.48,39.36A7,7,0,0,1,13,32.84V12.65a7,7,0,0,1,4.51-6.52L31.35.87a6.92,6.92,0,0,1,4.95,0L50.18,6.13a7,7,0,0,1,4.5,6.52V32.84a7,7,0,0,1-4.5,6.52L36.3,44.63A7,7,0,0,1,33.83,45.08ZM33.83,2a5.47,5.47,0,0,0-1.91.35L18.05,7.63a5.42,5.42,0,0,0-3.47,5V32.84a5.41,5.41,0,0,0,3.47,5l13.87,5.26a5.32,5.32,0,0,0,3.81,0l13.88-5.26a5.4,5.4,0,0,0,3.46-5V12.65a5.41,5.41,0,0,0-3.46-5L35.73,2.37A5.41,5.41,0,0,0,33.83,2Z"/></g></g></svg>