<svg xmlns="http://www.w3.org/2000/svg" xmlns:xlink="http://www.w3.org/1999/xlink" viewBox="0 0 68.37 46.01"><defs><style>.cls-1{fill:none;}.cls-2{clip-path:url(#clip-path);}.cls-3{fill:#fff;}.cls-4{fill:#11549d;}.cls-5{fill:#da1c27;}</style><clipPath id="clip-path"><path class="cls-1" d="M50.62,7.19,36.75,1.92a6.23,6.23,0,0,0-4.38,0L18.49,7.19a6.17,6.17,0,0,0-4,5.77V33.14a6.19,6.19,0,0,0,4,5.78l13.88,5.26a6.12,6.12,0,0,0,4.38,0l13.87-5.26a6.18,6.18,0,0,0,4-5.78V13A6.17,6.17,0,0,0,50.62,7.19Z"/></clipPath></defs><title>korea-republic</title><g id="Layer_2" data-name="Layer 2"><g id="OBJECTS"><g class="cls-2"><g id="korea_republic" data-name="korea republic"><rect class="cls-3" width="68.37" height="46.01"/><rect x="42.98" y="12.74" width="1.28" height="3.53" transform="matrix(0.83, -0.55, 0.55, 0.83, -0.72, 26.63)"/><rect x="45.29" y="16.2" width="1.28" height="3.53" transform="translate(-2.25 28.51) rotate(-33.71)"/><rect x="45.74" y="11.32" width="1.28" height="7.7" transform="translate(-0.62 28.28) rotate(-33.69)"/><rect x="46.18" y="10.6" width="1.28" height="3.53" transform="translate(1.01 28.05) rotate(-33.69)"/><rect x="48.5" y="14.07" width="1.28" height="3.53" transform="translate(-0.55 29.86) rotate(-33.63)"/><rect x="23.85" y="25.91" width="1.28" height="7.7" transform="translate(-12.39 18.59) rotate(-33.69)"/><rect x="21.1" y="27.32" width="1.28" height="3.53" transform="translate(-12.49 16.96) rotate(-33.71)"/><rect x="23.41" y="30.79" width="1.28" height="3.53" transform="translate(-14.02 18.8) rotate(-33.68)"/><rect x="20.65" y="28.04" width="1.28" height="7.7" transform="translate(-14.11 17.17) rotate(-33.69)"/><rect x="20.65" y="15.59" width="7.7" height="1.28" transform="translate(-2.6 27.61) rotate(-56.31)"/><rect x="19.05" y="14.52" width="7.7" height="1.28" transform="translate(-2.42 25.81) rotate(-56.32)"/><rect x="17.44" y="13.46" width="7.7" height="1.28" transform="translate(-2.25 23.99) rotate(-56.29)"/><rect x="41.86" y="30.85" width="3.53" height="1.28" transform="translate(-6.78 50.32) rotate(-56.31)"/><rect x="44.17" y="27.38" width="3.53" height="1.28" transform="translate(-2.86 50.69) rotate(-56.3)"/><rect x="43.46" y="31.92" width="3.53" height="1.28" transform="translate(-6.96 52.11) rotate(-56.29)"/><rect x="45.77" y="28.45" width="3.53" height="1.28" transform="translate(-3.04 52.49) rotate(-56.29)"/><rect x="45.06" y="32.98" width="3.53" height="1.28" transform="translate(-7.13 53.91) rotate(-56.29)"/><rect x="47.37" y="29.51" width="3.53" height="1.28" transform="translate(-3.23 54.27) rotate(-56.26)"/><path class="cls-4" d="M28.23,18.73A3.85,3.85,0,0,0,34.64,23,3.85,3.85,0,0,1,41,27.26a7.7,7.7,0,1,1-12.81-8.53Z"/><path class="cls-5" d="M38.91,16.59a7.7,7.7,0,0,0-10.68,2.14A3.85,3.85,0,0,0,34.64,23,3.85,3.85,0,0,1,41,27.26,7.69,7.69,0,0,0,38.91,16.59Z"/></g></g><path class="cls-3" d="M34.56,45.39a6.85,6.85,0,0,1-2.48-.46L18.21,39.67a7,7,0,0,1-4.5-6.53V13a7,7,0,0,1,4.5-6.53L32.08,1.17a6.92,6.92,0,0,1,5,0L50.91,6.43A7,7,0,0,1,55.41,13V33.14a7,7,0,0,1-4.5,6.53L37,44.93A6.76,6.76,0,0,1,34.56,45.39Zm0-43.07a5.47,5.47,0,0,0-1.91.35L18.78,7.94a5.4,5.4,0,0,0-3.47,5V33.14a5.42,5.42,0,0,0,3.47,5l13.87,5.26a5.43,5.43,0,0,0,3.81,0l13.88-5.26a5.41,5.41,0,0,0,3.46-5V13a5.39,5.39,0,0,0-3.46-5L36.46,2.67A5.41,5.41,0,0,0,34.56,2.32Z"/></g></g></svg>