<svg xmlns="http://www.w3.org/2000/svg" xmlns:xlink="http://www.w3.org/1999/xlink" viewBox="0 0 65.96 45.36"><defs><style>.cls-1{fill:none;}.cls-2{clip-path:url(#clip-path);}.cls-3{fill:#b01f35;}.cls-4{fill:#296437;}.cls-5{fill:#fff;}</style><clipPath id="clip-path"><path class="cls-1" d="M49,7.16,35.09,1.89a6.23,6.23,0,0,0-4.38,0L16.83,7.16a6.17,6.17,0,0,0-4,5.77V33.12a6.17,6.17,0,0,0,4,5.77l13.88,5.26a6.12,6.12,0,0,0,4.38,0L49,38.89a6.17,6.17,0,0,0,4-5.77V12.93A6.17,6.17,0,0,0,49,7.16Z"/></clipPath></defs><title>morocco</title><g id="Layer_2" data-name="Layer 2"><g id="OBJECTS"><g class="cls-2"><g id="morocco"><path class="cls-3" d="M0,0V44.55H66V0ZM34.59,20.79h2.07l4.28,13.83-8-6.07,1.68-1.28,2.52,1.91-1.54-5,.58,1.88L25,34.63l3-9.84,1.68,1.29-.95,3.1L35.58,24l-1-3.21H31.38l-1,3.21L33,26,31.3,27.26,20.11,18.72h9.83l-.64,2.08H26.2l2.51,1.92L33,8.88,36,18.71H33.94l-1-3.1-1.12,3.63.16-.53H45.85l-8,6.09-.64-2.09,2.5-1.92Z"/><polygon class="cls-4" points="37.26 22.71 37.9 24.8 45.85 18.71 32.02 18.71 31.86 19.24 32.98 15.61 33.95 18.71 36.02 18.71 32.98 8.88 28.71 22.72 26.2 20.8 29.3 20.79 29.94 18.71 20.11 18.72 31.3 27.26 32.98 25.98 30.39 24 31.38 20.79 34.59 20.79 39.76 20.79 37.26 22.71"/><polygon class="cls-4" points="34.59 20.79 35.58 24 28.79 29.18 29.74 26.08 28.06 24.79 25.03 34.63 36.22 26.07 35.64 24.19 37.18 29.18 34.66 27.27 32.98 28.55 40.94 34.62 36.66 20.79 34.59 20.79"/></g></g><path class="cls-5" d="M32.9,45.36a7.06,7.06,0,0,1-2.48-.45L16.55,39.64A7,7,0,0,1,12,33.12V12.93a7,7,0,0,1,4.51-6.52L30.42,1.14a7,7,0,0,1,4.95,0L49.24,6.41a7,7,0,0,1,4.51,6.52V33.12a7,7,0,0,1-4.5,6.52L35.37,44.91A7,7,0,0,1,32.9,45.36Zm0-43.06A5.21,5.21,0,0,0,31,2.65L17.12,7.91a5.39,5.39,0,0,0-3.47,5V33.12a5.4,5.4,0,0,0,3.47,5L31,43.4a5.32,5.32,0,0,0,3.81,0l13.87-5.26a5.4,5.4,0,0,0,3.47-5V12.93a5.39,5.39,0,0,0-3.47-5L34.8,2.65A5.2,5.2,0,0,0,32.9,2.3Z"/></g></g></svg>