<svg xmlns="http://www.w3.org/2000/svg" xmlns:xlink="http://www.w3.org/1999/xlink" viewBox="0 0 63.85 44.76"><defs><style>.cls-1{fill:none;}.cls-2{clip-path:url(#clip-path);}.cls-3{fill:#fff;}.cls-4{fill:#0e7837;}</style><clipPath id="clip-path"><path class="cls-1" d="M47.91,6.56,34,1.3a6.12,6.12,0,0,0-4.38,0L15.78,6.56a6.17,6.17,0,0,0-4,5.78V32.52a6.16,6.16,0,0,0,4,5.77l13.88,5.27a6.23,6.23,0,0,0,4.38,0l13.87-5.27a6.17,6.17,0,0,0,4-5.77V12.34A6.18,6.18,0,0,0,47.91,6.56Z"/></clipPath></defs><title>nigeria</title><g id="Layer_2" data-name="Layer 2"><g id="OBJECTS"><g class="cls-2"><g id="nigeria"><rect class="cls-3" x="20.3" width="22.51" height="44.75"/><rect class="cls-4" width="22.12" height="44.75"/><rect class="cls-4" x="41.36" y="0.02" width="22.5" height="44.75"/></g></g><path class="cls-3" d="M31.85,44.76a7.06,7.06,0,0,1-2.48-.45L15.5,39.05A7,7,0,0,1,11,32.52V12.34A7,7,0,0,1,15.5,5.81L29.37.55a6.92,6.92,0,0,1,4.95,0L48.2,5.81a7,7,0,0,1,4.5,6.53V32.52a7,7,0,0,1-4.5,6.53L34.32,44.31A7,7,0,0,1,31.85,44.76Zm0-43.06a5.47,5.47,0,0,0-1.91.35L16.07,7.31a5.4,5.4,0,0,0-3.47,5V32.52a5.38,5.38,0,0,0,3.47,5l13.87,5.27a5.43,5.43,0,0,0,3.81,0l13.88-5.27a5.39,5.39,0,0,0,3.46-5V12.34a5.41,5.41,0,0,0-3.46-5L33.75,2.05A5.41,5.41,0,0,0,31.85,1.7Z"/></g></g></svg>