<svg xmlns="http://www.w3.org/2000/svg" xmlns:xlink="http://www.w3.org/1999/xlink" viewBox="0 0 47.83 45.76"><defs><style>.cls-1{fill:none;}.cls-2{clip-path:url(#clip-path);}.cls-3{fill:#fff;}.cls-4{fill:#3564c2;}.cls-5{fill:#c0003b;}</style><clipPath id="clip-path"><path class="cls-1" d="M40,6.47,26.1,1.21a6.12,6.12,0,0,0-4.38,0L7.85,6.47a6.18,6.18,0,0,0-4,5.77V32.43a6.18,6.18,0,0,0,4,5.77l13.87,5.26a6.12,6.12,0,0,0,4.38,0L40,38.2a6.17,6.17,0,0,0,4-5.77V12.24A6.17,6.17,0,0,0,40,6.47Z"/></clipPath></defs><title>panama</title><g id="Layer_2" data-name="Layer 2"><g id="OBJECTS"><g class="cls-2"><g id="panama"><path class="cls-3" d="M0,0V22.38H23.91V0Z"/><path class="cls-3" d="M23.91,22.38V45.76H47.83V22.38Z"/><polygon class="cls-4" points="12.17 17.36 14.54 15.63 16.91 17.36 16.01 14.57 18.38 12.84 15.45 12.84 14.54 10.05 13.63 12.84 10.7 12.84 13.07 14.57 12.17 17.36"/><rect class="cls-4" y="22.38" width="23.91" height="23.38"/><rect class="cls-5" x="23.91" y="0.05" width="23.91" height="22.34"/><polygon class="cls-5" points="34.15 30.71 33.24 27.92 32.34 30.71 29.4 30.71 31.78 32.43 30.87 35.22 33.24 33.5 35.62 35.22 34.71 32.43 37.08 30.71 34.15 30.71"/></g></g><path class="cls-3" d="M23.91,44.67a7,7,0,0,1-2.47-.45L7.56,39a7,7,0,0,1-4.5-6.52V12.24a7,7,0,0,1,4.5-6.52L21.44.45a7,7,0,0,1,4.95,0L40.26,5.72a7,7,0,0,1,4.51,6.52V32.43A7,7,0,0,1,40.26,39L26.39,44.22A7.06,7.06,0,0,1,23.91,44.67Zm0-43.06A5.2,5.2,0,0,0,22,2L8.13,7.22a5.41,5.41,0,0,0-3.46,5V32.43a5.4,5.4,0,0,0,3.46,5L22,42.71a5.32,5.32,0,0,0,3.81,0l13.87-5.26a5.39,5.39,0,0,0,3.47-5V12.24a5.4,5.4,0,0,0-3.47-5L25.82,2A5.47,5.47,0,0,0,23.91,1.61Z"/></g></g></svg>