<svg xmlns="http://www.w3.org/2000/svg" xmlns:xlink="http://www.w3.org/1999/xlink" viewBox="0 0 62.08 44.67"><defs><style>.cls-1{fill:none;}.cls-2{clip-path:url(#clip-path);}.cls-3{fill:#fff;}.cls-4{fill:#ba0019;}</style><clipPath id="clip-path"><path class="cls-1" d="M47.11,6.47,33.23,1.21a6.12,6.12,0,0,0-4.38,0L15,6.47a6.18,6.18,0,0,0-4,5.77V32.43a6.18,6.18,0,0,0,4,5.77l13.87,5.26a6.12,6.12,0,0,0,4.38,0L47.11,38.2a6.17,6.17,0,0,0,4-5.77V12.24A6.17,6.17,0,0,0,47.11,6.47Z"/></clipPath></defs><title>peru</title><g id="Layer_2" data-name="Layer 2"><g id="OBJECTS"><g class="cls-2"><g id="denmark"><rect class="cls-3" x="20.05" width="21.98" height="44.67"/><rect class="cls-4" x="40.1" width="21.99" height="44.67"/><rect class="cls-4" width="21.99" height="44.67"/></g></g><path class="cls-3" d="M31,44.67a7,7,0,0,1-2.47-.45L14.69,39a7,7,0,0,1-4.5-6.52V12.24a7,7,0,0,1,4.5-6.52L28.57.45a7,7,0,0,1,5,0L47.39,5.72a7,7,0,0,1,4.51,6.52V32.43A7,7,0,0,1,47.39,39L33.52,44.22A7.06,7.06,0,0,1,31,44.67ZM31,1.61a5.2,5.2,0,0,0-1.9.35L15.26,7.22a5.41,5.41,0,0,0-3.46,5V32.43a5.4,5.4,0,0,0,3.46,5l13.88,5.26a5.32,5.32,0,0,0,3.81,0l13.87-5.26a5.41,5.41,0,0,0,3.47-5V12.24a5.42,5.42,0,0,0-3.47-5L33,2A5.47,5.47,0,0,0,31,1.61Z"/></g></g></svg>