<svg xmlns="http://www.w3.org/2000/svg" xmlns:xlink="http://www.w3.org/1999/xlink" viewBox="0 0 67.53 45.61"><defs><style>.cls-1{fill:none;}.cls-2{clip-path:url(#clip-path);}.cls-3{fill:#fff;}.cls-4{fill:#d80031;}</style><clipPath id="clip-path"><path class="cls-1" d="M49.77,6.94,35.9,1.68a6.12,6.12,0,0,0-4.38,0L17.65,6.94a6.18,6.18,0,0,0-4,5.77V32.9a6.18,6.18,0,0,0,4,5.77l13.87,5.27a6.23,6.23,0,0,0,4.38,0l13.87-5.27a6.18,6.18,0,0,0,4-5.77V12.71A6.18,6.18,0,0,0,49.77,6.94Z"/></clipPath></defs><title>poland</title><g id="Layer_2" data-name="Layer 2"><g id="OBJECTS"><g class="cls-2"><g id="poland"><rect class="cls-3" width="67.53" height="22.81"/><rect class="cls-4" y="22.81" width="67.53" height="22.81"/></g></g><path class="cls-3" d="M33.71,45.14a7.06,7.06,0,0,1-2.48-.45L17.36,39.43a7,7,0,0,1-4.5-6.53V12.71a7,7,0,0,1,4.5-6.52L31.23.93a7,7,0,0,1,5,0L50.06,6.19a7,7,0,0,1,4.5,6.52V32.9a7,7,0,0,1-4.5,6.53L36.19,44.69A7.06,7.06,0,0,1,33.71,45.14Zm0-43.06a5.47,5.47,0,0,0-1.91.35L17.93,7.69a5.42,5.42,0,0,0-3.47,5V32.9a5.41,5.41,0,0,0,3.47,5L31.8,43.18a5.35,5.35,0,0,0,3.82,0l13.87-5.26a5.41,5.41,0,0,0,3.47-5V12.71a5.42,5.42,0,0,0-3.47-5L35.62,2.43A5.47,5.47,0,0,0,33.71,2.08Z"/></g></g></svg>