<svg xmlns="http://www.w3.org/2000/svg" xmlns:xlink="http://www.w3.org/1999/xlink" viewBox="0 0 65.93 44.67"><defs><style>.cls-1{fill:none;}.cls-2{clip-path:url(#clip-path);}.cls-3{fill:#209156;}.cls-4{fill:#d91b26;}.cls-5{fill:#fce12e;}.cls-6{fill:#231f20;}.cls-7{fill:#fff;}.cls-8{fill:#007ac1;}</style><clipPath id="clip-path"><path class="cls-1" d="M45,6.47,31.11,1.21a6.12,6.12,0,0,0-4.38,0L12.85,6.47a6.18,6.18,0,0,0-4,5.77V32.43a6.18,6.18,0,0,0,4,5.77l13.88,5.26a6.12,6.12,0,0,0,4.38,0L45,38.2a6.18,6.18,0,0,0,4-5.77V12.24A6.18,6.18,0,0,0,45,6.47Z"/></clipPath></defs><title>portugal</title><g id="Layer_2" data-name="Layer 2"><g id="OBJECTS"><g class="cls-2"><g id="portugal"><rect class="cls-3" y="0.06" width="25.71" height="44.56"/><rect class="cls-4" x="25.71" y="0.06" width="40.22" height="44.56"/><path class="cls-5" d="M35.9,27.2h-.23c-1.36-.17-5.4-2.05-10-4.7s-8.21-5.22-9-6.32a1.62,1.62,0,0,1-.13-.19l-1,1.69c-.06.09-.11.1,0,.3.79,1.09,4.45,3.67,9.05,6.34s8.65,4.55,10,4.7c.24,0,.2-.05.28-.13Z"/><path class="cls-6" d="M34.73,29.06h-.09c-1.37-.15-5.49-2.08-10-4.7S16.39,19.12,15.57,18c-.12-.18-.11-.23-.06-.32l0,0,1-1.76,0,.07.13.18c.83,1.12,4.54,3.71,9,6.31s8.57,4.52,10,4.69H36l0,.07-1,1.69s0,0-.05.05-.06.1-.18.1Zm-18.19-13-.95,1.66c0,.05,0,.07.06.21.81,1.12,4.52,3.71,9,6.33s8.61,4.54,10,4.69c.14,0,.16,0,.19,0a.15.15,0,0,1,0-.07l.93-1.6-.16,0c-1.39-.17-5.5-2.1-10-4.7s-8.21-5.21-9-6.34l-.09-.12Z"/><path class="cls-5" d="M16.45,15.84c-.09.11,0,.24.16.45.82,1.1,4.46,3.67,9,6.32s8.61,4.53,10,4.69c.25,0,.4.05.46-.09s-.19-.48-.19-.48c.06.17.14.33-.1.31-1.33-.15-5.39-2-10-4.71s-8.25-5.24-9-6.33c-.14-.2,0-.21.18-.24-.29,0-.38,0-.48.08Z"/><path class="cls-6" d="M35.85,27.37l-.25,0c-1.39-.17-5.5-2.1-10-4.7s-8.21-5.21-9-6.33c-.15-.2-.27-.37-.15-.51s.18-.11.35-.1h.16v.09c-.1,0-.19,0-.2,0s0,0,0,.11c.82,1.11,4.53,3.71,9,6.32s8.61,4.55,10,4.7c.06,0,.09,0,.1,0s0-.12,0-.18v-.05l.08,0c0,.06.26.36.19.52a.26.26,0,0,1-.26.14ZM16.65,15.8c-.08,0-.12,0-.16.07s0,.18.15.39c.84,1.12,4.55,3.71,9,6.31s8.57,4.52,10,4.69l.24,0c.12,0,.16,0,.18-.09A.36.36,0,0,0,36,27s0,0,0,0-.09.06-.19,0c-1.37-.15-5.49-2.08-10-4.71S17.53,17.14,16.71,16a.23.23,0,0,1-.06-.19l0,0Z"/><path class="cls-5" d="M15.32,17.77c-.08.1,0,.26.17.47.82,1.09,4.46,3.67,9,6.31s8.61,4.54,10,4.7c.25,0,.38,0,.46-.09s0-.07-.05-.24c0,0,0,.09-.24.06-1.33-.14-5.39-2-10-4.7s-8.25-5.25-9-6.34c-.14-.19-.09-.16-.08-.24s-.12,0-.23.07Z"/><path class="cls-6" d="M34.71,29.32l-.23,0c-1.39-.17-5.5-2.11-10-4.71s-8.2-5.19-9-6.33c-.15-.19-.27-.38-.17-.52a.33.33,0,0,1,.27-.09h0v.05s0,.05,0,.06,0,0,.09.16c.8,1.11,4.52,3.71,9,6.32s8.61,4.55,10,4.7c.14,0,.18,0,.18,0h.09L35,29a.25.25,0,0,1,0,.17v0a.3.3,0,0,1-.28.13ZM15.49,17.75h0a.18.18,0,0,0-.14.05c0,.07,0,.21.17.41.84,1.12,4.55,3.71,9,6.3s8.57,4.53,10,4.7c.24,0,.36,0,.42-.07a.13.13,0,0,0,0-.12v0a.33.33,0,0,1-.22,0c-1.38-.15-5.49-2.09-10-4.71S16.41,19.09,15.59,18c-.1-.13-.11-.17-.1-.22Z"/><path class="cls-5" d="M16.48,28.48c1.05.51,4.78.89,9.21.89s8.14-.38,9.21-.89l.56-1c-1.08.55-5,1-9.77,1s-8.7-.41-9.77-1Z"/><path class="cls-6" d="M25.69,29.41c-4.35,0-8.15-.36-9.23-.89l-.66-1.11.14.07c1.1.56,5.11.95,9.75.95s8.65-.39,9.75-.95l.14-.07-.64,1.09c-1.12.55-4.92.91-9.25.91ZM16,27.62l.49.83c1.05.51,4.83.87,9.17.87s8.1-.36,9.19-.88l.47-.81c-1.28.53-5.18.89-9.66.89s-8.39-.36-9.66-.9Z"/><path class="cls-5" d="M35.05,28.23a.72.72,0,0,1-.28.16c-1.25.48-4.84.82-9.08.82s-7.84-.34-9.08-.82a.88.88,0,0,1-.28-.16,1,1,0,0,0,0,.11c0,.65,4.2,1.17,9.39,1.17s9.39-.52,9.39-1.17a.24.24,0,0,0,0-.11Z"/><path class="cls-6" d="M25.69,29.56c-4.64,0-9.44-.46-9.44-1.22,0,0,0-.06,0-.12l0-.06.05,0a.89.89,0,0,0,.27.15c1.27.49,4.92.82,9.06.82s7.79-.33,9.06-.82a.69.69,0,0,0,.27-.16l0,0,0,.05a.4.4,0,0,1,0,.13c0,.76-4.8,1.22-9.44,1.22Zm-9.34-1.25v0c0,.53,3.75,1.12,9.34,1.12S35,28.88,35,28.34h0v0a1.16,1.16,0,0,1-.24.14c-1.29.49-4.95.82-9.1.82s-7.81-.33-9.1-.82l-.24-.13Z"/><path class="cls-5" d="M15.89,27.2c0,.11,0,.21.16.25,1.26.51,5.1.89,9.64.89s8.59-.46,9.65-.89c.11,0,.19-.1.17-.23a.21.21,0,0,1,.11.18c0,.68-4.44,1.23-9.93,1.23s-9.93-.55-9.93-1.23a.22.22,0,0,1,.13-.2Z"/><path class="cls-6" d="M25.69,28.68c-4.9,0-10-.48-10-1.28a.26.26,0,0,1,.15-.24l.1-.06,0,.11c0,.09.05.17.13.2,1.28.52,5.24.88,9.63.88s8.58-.45,9.63-.88c.12-.05.16-.1.14-.18v-.08l.07,0a.24.24,0,0,1,.14.21c0,.81-5.07,1.29-10,1.29ZM15.84,27.3a.19.19,0,0,0,0,.09c0,.58,4,1.2,9.88,1.2s9.88-.62,9.88-1.19a.17.17,0,0,0,0-.08.28.28,0,0,1-.19.17c-1.06.43-5.2.9-9.67.9S17.34,28,16,27.49a.28.28,0,0,1-.19-.19Z"/><path class="cls-5" d="M36.73,22a1.41,1.41,0,0,1-.21.16c-1.24.82-5.62,1.42-10.83,1.42S16.1,23,14.85,22.2l-.2-.15v.72c0,.16,0,.22.18.36,1.22.83,5.62,1.44,10.86,1.44s9.64-.61,10.86-1.44c.21-.14.14-.21.17-.36Z"/><path class="cls-6" d="M25.69,24.61c-5.16,0-9.63-.59-10.88-1.44-.2-.13-.21-.21-.2-.34V22l.07.06.2.14c1.26.83,5.71,1.41,10.81,1.41S35.24,23,36.5,22.16a2.07,2.07,0,0,0,.2-.15l.08-.07,0,.83v.1a.33.33,0,0,1-.19.3c-1.25.85-5.73,1.44-10.88,1.44Zm-11-2.46v.68c0,.11,0,.15.16.26,1.23.85,5.69,1.43,10.83,1.43s9.59-.58,10.83-1.43c.14-.09.14-.14.14-.22s0-.07,0-.11v-.62l-.13.09c-1.28.85-5.74,1.44-10.86,1.44s-9.59-.59-10.86-1.43l-.13-.09Z"/><path class="cls-5" d="M36.56,21.64c.13.16.2.35,0,.5-1.21.82-5.61,1.43-10.86,1.43S16.05,23,14.84,22.14c-.22-.15-.14-.35,0-.51,0,0-.33.2-.33.37s.13.32.36.47c1.24.82,5.62,1.42,10.83,1.42s9.6-.6,10.84-1.42c.23-.15.37-.25.35-.47s-.32-.36-.32-.36Z"/><path class="cls-6" d="M25.69,23.94c-5.11,0-9.58-.59-10.86-1.43-.21-.14-.4-.27-.37-.52s.31-.38.34-.4l.06.06a.48.48,0,0,0-.11.3.23.23,0,0,0,.11.15c1.24.84,5.69,1.43,10.83,1.43s9.6-.59,10.83-1.43a.22.22,0,0,0,.12-.15.43.43,0,0,0-.12-.29l-.1-.13.15.06s.34.15.36.4-.15.37-.38.52c-1.28.84-5.74,1.43-10.86,1.43Zm-11-2.14a.31.31,0,0,0-.13.2c0,.19.1.28.33.43,1.27.83,5.71,1.41,10.81,1.41s9.55-.58,10.81-1.41c.24-.15.35-.24.33-.43a.32.32,0,0,0-.13-.22.32.32,0,0,1,0,.19.35.35,0,0,1-.16.21c-1.24.85-5.72,1.44-10.88,1.44S16.06,23,14.81,22.18a.3.3,0,0,1-.15-.21.33.33,0,0,1,0-.17Z"/><path class="cls-5" d="M36.72,22.71a.48.48,0,0,1-.17.38c-1.21.82-5.61,1.43-10.86,1.43s-9.64-.61-10.85-1.43c-.22-.15-.19-.21-.19-.38a.39.39,0,0,0-.15.23c0,.22.13.33.36.48,1.24.81,5.62,1.42,10.83,1.42s9.6-.61,10.84-1.42c.23-.15.35-.25.35-.48a.28.28,0,0,0-.16-.23Z"/><path class="cls-6" d="M25.69,24.88c-5.11,0-9.58-.58-10.86-1.42-.23-.15-.39-.28-.37-.52a.39.39,0,0,1,.17-.27l.07-.06v.15c0,.13,0,.17.16.29,1.24.84,5.69,1.42,10.83,1.42s9.6-.58,10.83-1.42a.36.36,0,0,0,.15-.31s0-.08,0-.08a.37.37,0,0,1,.21.28c0,.26-.14.37-.38.52-1.28.84-5.74,1.42-10.86,1.42ZM14.6,22.82a.5.5,0,0,0,0,.13c0,.18.09.27.33.43,1.27.83,5.71,1.41,10.81,1.41s9.55-.58,10.81-1.41c.24-.15.33-.24.33-.44a.17.17,0,0,0-.07-.14.41.41,0,0,1-.19.33c-1.25.84-5.72,1.44-10.88,1.44s-9.63-.6-10.88-1.44c-.17-.12-.21-.19-.21-.31Z"/><path class="cls-5" d="M35.52,17.47c-.27.65-4.56,1.16-9.83,1.16s-9.44-.5-9.81-1.14l.53-1c.32.61,4.35,1.09,9.28,1.09s9-.48,9.29-1.09Z"/><path class="cls-6" d="M25.69,18.68c-5.23,0-9.47-.5-9.85-1.16v0l.58-1.06,0,.07c.28.52,3.81,1.06,9.24,1.06s9-.54,9.25-1.06l0-.07.6,1v0c-.28.69-4.52,1.2-9.87,1.2Zm-9.76-1.19c.45.62,4.7,1.1,9.76,1.1s9.44-.5,9.78-1.12l-.5-.86c-.56.6-4.46,1-9.28,1s-8.71-.44-9.28-1l-.48.88Z"/><path class="cls-5" d="M35.05,16.45a.72.72,0,0,1-.28.16c-1.25.48-4.84.83-9.08.83s-7.84-.35-9.08-.83a.88.88,0,0,1-.28-.16,1,1,0,0,0,0,.11c0,.65,4.2,1.17,9.39,1.17s9.39-.52,9.39-1.17a.62.62,0,0,0,0-.11Z"/><path class="cls-6" d="M25.69,17.78c-4.64,0-9.44-.46-9.44-1.22a.4.4,0,0,1,0-.13l0-.05.05,0a1.22,1.22,0,0,0,.27.15c1.27.49,4.92.82,9.06.82s7.78-.33,9.06-.82a.69.69,0,0,0,.27-.16l0,0,0,.05a.48.48,0,0,1,0,.12c0,.77-4.8,1.23-9.44,1.23Zm-9.34-1.25v0c0,.54,3.75,1.12,9.34,1.12S35,17.11,35,16.56h0v0a.84.84,0,0,1-.24.14c-1.29.49-4.95.82-9.1.82s-7.81-.33-9.1-.82a1.36,1.36,0,0,1-.24-.13Z"/><path class="cls-5" d="M15.89,17.33c0,.11,0,.21.16.25,1.26.52,5.1.89,9.64.89s8.59-.46,9.65-.89c.11,0,.19-.1.17-.23a.21.21,0,0,1,.11.18c0,.68-4.44,1.24-9.93,1.24s-9.93-.56-9.93-1.24a.22.22,0,0,1,.13-.2Z"/><path class="cls-6" d="M25.69,18.81c-4.9,0-10-.48-10-1.28a.26.26,0,0,1,.15-.24l.1-.06,0,.11c0,.09.05.17.13.2,1.29.52,5.25.89,9.63.89s8.58-.46,9.63-.89c.12-.05.16-.1.14-.18v-.08l.07,0a.24.24,0,0,1,.14.22c0,.8-5.07,1.28-10,1.28Zm-9.85-1.38a.19.19,0,0,0,0,.09c0,.59,4,1.2,9.88,1.2s9.88-.61,9.88-1.19a.2.2,0,0,0,0-.08c0,.11-.14.15-.19.18-1.06.43-5.2.89-9.67.89s-8.35-.36-9.66-.89a.31.31,0,0,1-.19-.2Z"/><path class="cls-5" d="M25.69,12.88A9.62,9.62,0,1,0,35.3,22.5a9.61,9.61,0,0,0-9.61-9.62ZM36.57,22.5A10.88,10.88,0,1,1,25.69,11.62,10.88,10.88,0,0,1,36.57,22.5Z"/><path class="cls-6" d="M25.69,33.41A10.92,10.92,0,1,1,36.61,22.5,10.93,10.93,0,0,1,25.69,33.41Zm0-21.74A10.83,10.83,0,1,0,36.52,22.5,10.84,10.84,0,0,0,25.69,11.67Zm0,20.48a9.66,9.66,0,1,1,9.66-9.65,9.66,9.66,0,0,1-9.66,9.65Zm0-19.22a9.57,9.57,0,1,0,9.57,9.57,9.58,9.58,0,0,0-9.57-9.57Z"/><path class="cls-6" d="M25.69,33.1A10.61,10.61,0,1,1,36.3,22.5,10.61,10.61,0,0,1,25.69,33.1Zm0-21.12A10.52,10.52,0,1,0,36.2,22.5,10.52,10.52,0,0,0,25.69,12Z"/><path class="cls-6" d="M25.69,32.47a10,10,0,1,1,10-10,10,10,0,0,1-10,10Zm0-19.86a9.89,9.89,0,1,0,9.88,9.89,9.89,9.89,0,0,0-9.88-9.89Z"/><path class="cls-5" d="M14.65,23a1.27,1.27,0,0,1,.21-.15c1.24-.82,5.62-1.43,10.84-1.43s9.59.61,10.83,1.42a2.07,2.07,0,0,1,.2.15v-.72c0-.15,0-.21-.18-.36-1.21-.83-5.61-1.44-10.85-1.44s-9.65.61-10.86,1.44c-.22.15-.14.21-.18.36Z"/><path class="cls-6" d="M14.6,23.07l0-.83a.38.38,0,0,0,0-.1c0-.11,0-.18.18-.3C16.06,21,20.54,20.4,25.7,20.4s9.62.59,10.88,1.44c.19.13.2.21.19.34v.88L36.7,23l-.19-.14C35.24,22,30.8,21.44,25.7,21.44s-9.55.58-10.82,1.42l-.2.14-.08.07Zm11.1-2.58c-5.14,0-9.6.59-10.84,1.43-.14.09-.14.14-.14.22a.45.45,0,0,1,0,.11v.62l.14-.09c1.27-.85,5.74-1.43,10.86-1.43s9.58.58,10.86,1.43l.12.08v-.68c0-.11,0-.15-.15-.26-1.24-.84-5.7-1.43-10.83-1.43Z"/><path class="cls-5" d="M14.83,23.38c-.13-.17-.21-.36,0-.51,1.21-.82,5.61-1.43,10.85-1.43s9.64.61,10.86,1.43c.21.15.13.35,0,.52,0,0,.33-.21.33-.37s-.12-.33-.35-.48c-1.25-.82-5.63-1.42-10.84-1.42s-9.59.6-10.83,1.42c-.23.16-.37.25-.36.48s.33.36.33.36Z"/><path class="cls-6" d="M15,23.48l-.16-.06s-.33-.14-.35-.4.14-.36.37-.52c1.28-.84,5.74-1.42,10.86-1.42s9.58.58,10.86,1.42c.22.15.4.27.38.52s-.32.38-.35.41l-.06-.07a.39.39,0,0,0,.11-.3.2.2,0,0,0-.11-.15c-1.23-.84-5.69-1.43-10.83-1.43s-9.59.59-10.83,1.43a.2.2,0,0,0-.11.15.41.41,0,0,0,.11.29l.11.13Zm10.72-2.31c-5.1,0-9.55.58-10.81,1.41-.23.16-.35.24-.33.43a.31.31,0,0,0,.14.23.34.34,0,0,1,0-.19.3.3,0,0,1,.15-.22c1.25-.85,5.72-1.44,10.88-1.44s9.63.59,10.88,1.44a.33.33,0,0,1,.14.38.32.32,0,0,0,.12-.19c0-.2-.1-.29-.33-.44-1.26-.83-5.71-1.41-10.81-1.41Z"/><path class="cls-5" d="M14.66,22.3a.47.47,0,0,1,.18-.38c1.21-.82,5.61-1.43,10.85-1.43s9.64.61,10.86,1.43c.21.15.19.21.18.39a.44.44,0,0,0,.15-.24c0-.21-.12-.32-.35-.48-1.25-.81-5.63-1.41-10.84-1.41s-9.59.6-10.83,1.41c-.23.16-.35.25-.36.48a.32.32,0,0,0,.16.23Z"/><path class="cls-6" d="M36.68,22.4v-.14c0-.14,0-.18-.17-.3-1.24-.84-5.69-1.42-10.83-1.42S16.1,21.12,14.86,22a.36.36,0,0,0-.15.31s0,.08-.05.08h0l0,0a.31.31,0,0,1-.17-.26c0-.26.14-.36.37-.52,1.28-.83,5.74-1.42,10.86-1.42s9.58.59,10.86,1.42c.23.16.39.28.38.52a.47.47,0,0,1-.17.27l-.08.06Zm-11-2.18c-5.1,0-9.54.58-10.81,1.41-.23.16-.33.24-.33.44a.24.24,0,0,0,.07.15.41.41,0,0,1,.19-.33c1.25-.85,5.72-1.44,10.88-1.44s9.63.59,10.88,1.43c.17.12.21.2.21.31a.29.29,0,0,0,0-.13c0-.17-.08-.27-.33-.43-1.26-.83-5.71-1.41-10.81-1.41Z"/><rect class="cls-5" x="25.22" y="11.46" width="0.95" height="22.06"/><path class="cls-6" d="M26.21,33.57h-1V11.42h1V33.57Zm-.95-.09h.86v-22h-.86v22Z"/><path class="cls-5" d="M25.38,33.53a.16.16,0,0,1-.32,0V11.46a.16.16,0,0,1,.32,0Z"/><path class="cls-6" d="M25.22,33.73a.2.2,0,0,1-.2-.2V11.46a.2.2,0,0,1,.4,0V33.53a.2.2,0,0,1-.2.2Zm0-22.38a.11.11,0,0,0-.11.11V33.53a.11.11,0,0,0,.22,0V11.46a.11.11,0,0,0-.11-.11Z"/><path class="cls-5" d="M26.32,33.53a.16.16,0,0,1-.16.15.15.15,0,0,1-.15-.15V11.46a.15.15,0,0,1,.15-.15.16.16,0,0,1,.16.15Z"/><path class="cls-6" d="M26.16,33.73a.2.2,0,0,1-.2-.2V11.46a.2.2,0,0,1,.2-.2.2.2,0,0,1,.21.2V33.53a.2.2,0,0,1-.21.2Zm0-22.38a.11.11,0,0,0-.11.11V33.53a.11.11,0,0,0,.11.11.11.11,0,0,0,.12-.11V11.46a.11.11,0,0,0-.12-.11Z"/><path class="cls-5" d="M15.87,27.43c.26-.65,4.56-1.17,9.82-1.17s9.44.5,9.81,1.14l-.52,1c-.33-.6-4.36-1.08-9.29-1.08s-9,.47-9.28,1.08Z"/><path class="cls-6" d="M35,28.47l0-.08c-.28-.52-3.82-1.06-9.25-1.06-4.86,0-8.93.47-9.24,1.06l0,.08-.59-1v0c.28-.68,4.52-1.19,9.87-1.19s9.47.49,9.85,1.16l0,0L35,28.47Zm-19-1,.49.86c.56-.6,4.47-1.05,9.28-1.05s8.72.45,9.28,1.05l.48-.89c-.44-.61-4.7-1.09-9.76-1.09s-9.44.5-9.77,1.12Z"/><path class="cls-5" d="M16.71,28.68c-.29-.24-.22-.35-.1-.4,1.25-.48,4.84-.82,9.08-.82s7.84.34,9.08.82c.11,0,.17.17-.08.39.41-.16.39-.34.39-.34,0-.64-4.2-1.17-9.39-1.17s-9.39.53-9.39,1.17c0,0,0,.17.41.35Z"/><path class="cls-6" d="M16.69,28.72c-.47-.19-.44-.38-.43-.4,0-.75,4.79-1.2,9.43-1.2s9.44.45,9.44,1.21c0,0,0,.21-.43.38l0-.08c.16-.13.17-.21.16-.24s0-.05-.06-.07c-1.28-.49-4.92-.82-9.07-.82s-7.78.33-9.06.82c0,0-.07,0-.08.07s0,.11.19.26l0,.07Zm9-1.31c4.16,0,7.81.33,9.1.83a.16.16,0,0,1,.12.13.21.21,0,0,1,0,.15c.15-.1.15-.18.15-.18,0-.55-3.75-1.13-9.34-1.13s-9.34.58-9.34,1.12c0,0,0,.09.15.19a.27.27,0,0,1,0-.14.21.21,0,0,1,.13-.14c1.3-.5,4.95-.83,9.1-.83Z"/><path class="cls-5" d="M35.38,27.65c.14-.16.06-.3,0-.34-1.27-.51-5.11-.89-9.65-.89s-8.59.46-9.64.89a.21.21,0,0,0-.1.33c-.23-.16-.19-.27-.19-.27,0-.69,4.45-1.25,9.93-1.25s9.93.56,9.93,1.25a.35.35,0,0,1-.24.28Z"/><path class="cls-6" d="M35.4,27.69l0-.07a.21.21,0,0,0,.06-.17.22.22,0,0,0-.09-.1c-1.28-.52-5.24-.88-9.63-.88s-8.58.46-9.63.88c0,0-.09,0-.11.11a.17.17,0,0,0,0,.15l-.06.07c-.26-.17-.22-.31-.21-.33,0-.79,5.07-1.27,10-1.27s10,.48,10,1.29a.37.37,0,0,1-.26.32Zm-9.71-1.31c4.47,0,8.36.35,9.66.89a.2.2,0,0,1,.14.16.22.22,0,0,1,0,.09.23.23,0,0,0,.07-.15c0-.58-4-1.2-9.88-1.2s-9.88.62-9.88,1.2a.16.16,0,0,0,0,.13s0-.05,0-.06a.23.23,0,0,1,.16-.17c1-.43,5.19-.89,9.66-.89Z"/><path class="cls-5" d="M34.91,16.42c-1.06-.52-4.78-.9-9.22-.9s-8.14.38-9.2.89l-.57,1c1.08-.55,5-.95,9.77-.95s8.7.4,9.77.95Z"/><path class="cls-6" d="M35.58,17.49l-.14-.07c-1.09-.57-5.1-1-9.75-1s-8.65.39-9.75.95l-.14.07.65-1.09c1.12-.55,4.91-.91,9.24-.91s8.15.37,9.24.9l.65,1.11Zm-9.89-1.12c4.49,0,8.39.37,9.66.9l-.48-.83c-1.06-.51-4.84-.87-9.18-.87s-8.1.36-9.18.88l-.48.82c1.28-.53,5.18-.9,9.66-.9Z"/><path class="cls-5" d="M16.33,16.66a1,1,0,0,1,.28-.16c1.25-.48,4.84-.82,9.08-.82s7.84.34,9.08.82a1.12,1.12,0,0,1,.28.16.27.27,0,0,0,0-.11c0-.65-4.2-1.17-9.39-1.17s-9.39.52-9.39,1.17a.62.62,0,0,0,0,.11Z"/><path class="cls-6" d="M16.31,16.74l0-.06c0-.06,0-.12,0-.12,0-.77,4.8-1.23,9.44-1.23s9.44.46,9.44,1.22a.4.4,0,0,1,0,.13l0,.05,0,0a1.16,1.16,0,0,0-.26-.15c-1.28-.49-4.92-.82-9.07-.82s-7.78.33-9.06.82a1,1,0,0,0-.27.16l-.05,0Zm0-.19a.1.1,0,0,0,0,0,.86.86,0,0,1,.23-.13c1.3-.5,4.95-.83,9.1-.83s7.81.33,9.1.83a.78.78,0,0,1,.24.13v0c0-.54-3.75-1.13-9.34-1.13s-9.34.59-9.34,1.13Z"/><path class="cls-5" d="M35.5,17.7c0-.12-.06-.21-.16-.26-1.27-.51-5.11-.89-9.65-.89S17.1,17,16,17.44c-.1,0-.19.11-.17.23a.21.21,0,0,1-.11-.17c0-.69,4.45-1.24,9.93-1.24s9.93.55,9.93,1.24a.22.22,0,0,1-.12.2Z"/><path class="cls-6" d="M35.41,17.8l0-.12c0-.08,0-.16-.13-.19C34,17,30.08,16.6,25.69,16.6s-8.58.46-9.63.89c-.12.05-.16.09-.14.17l0,.09-.08,0a.24.24,0,0,1-.14-.22c0-.81,5.07-1.29,10-1.29s10,.48,10,1.29a.28.28,0,0,1-.14.24l-.11.06Zm-9.72-1.29c4.47,0,8.35.36,9.66.89a.32.32,0,0,1,.19.19.11.11,0,0,0,0-.09c0-.58-4-1.2-9.88-1.2s-9.88.62-9.88,1.2a.2.2,0,0,0,0,.08.31.31,0,0,1,.2-.18c1-.43,5.19-.89,9.66-.89Z"/><path class="cls-5" d="M15.48,17.79h.23c1.36.17,5.4,2.05,10,4.7s8.21,5.22,9,6.32a1.29,1.29,0,0,1,.13.18l1-1.68c0-.09.11-.11,0-.3-.79-1.09-4.45-3.68-9-6.34s-8.66-4.55-10-4.7c-.24,0-.2.05-.27.12Z"/><path class="cls-6" d="M34.84,29.1l0-.07a1.36,1.36,0,0,0-.12-.17c-.84-1.13-4.55-3.73-9-6.32S17.09,18,15.71,17.85l-.23,0H15.4l1-1.75,0-.06c0-.06.07-.1.27-.08,1.38.15,5.49,2.08,10,4.7S35,25.87,35.81,27c.13.18.11.23.06.32l0,0-1,1.76ZM15.56,17.74l.16,0c1.39.17,5.5,2.1,10,4.7s8.2,5.2,9,6.33l.09.13.95-1.66c0-.05.05-.07-.06-.21-.81-1.12-4.52-3.72-9-6.33s-8.6-4.54-10-4.69c-.14,0-.16,0-.18,0l-.05.07-.94,1.6Z"/><path class="cls-5" d="M34.93,29.15c.09-.11,0-.24-.15-.45-.83-1.1-4.47-3.67-9-6.32s-8.61-4.53-10-4.69c-.25,0-.41-.05-.47.09s.19.47.19.47c-.06-.16-.14-.32.1-.29,1.33.14,5.39,2,10,4.7s8.25,5.24,9,6.33c.15.2,0,.21-.18.23.29,0,.38.05.48-.07Z"/><path class="cls-6" d="M34.73,29.28h-.28v-.09a.41.41,0,0,0,.2-.05s0,0,0-.11c-.81-1.11-4.53-3.71-9-6.33S17,18.15,15.59,18h-.1s0,.12,0,.18l0,0-.08,0c-.05-.06-.27-.36-.2-.52s.17-.14.27-.14l.24,0c1.4.17,5.5,2.1,10,4.7s8.2,5.21,9,6.33c.15.2.27.37.15.51a.25.25,0,0,1-.23.1Zm0-.09c.1,0,.14,0,.18-.07s0-.18-.15-.39c-.84-1.12-4.55-3.71-9-6.31s-8.57-4.52-9.95-4.69l-.23,0c-.12,0-.16,0-.19.09a.38.38,0,0,0,.05.2.05.05,0,0,1,0,0,.19.19,0,0,1,.18-.05c1.38.15,5.49,2.08,10,4.7s8.24,5.24,9.06,6.35c0,.06.09.14.06.2s0,0,0,0Z"/><path class="cls-5" d="M36.06,27.22c.08-.11,0-.26-.16-.47-.82-1.1-4.47-3.67-9-6.32s-8.61-4.53-10-4.69c-.25,0-.39,0-.47.09s0,.07.06.24c0,0,0-.09.23-.07,1.33.15,5.39,2,10,4.71S35,26,35.76,27c.14.2.08.16.07.25s.12,0,.23-.07Z"/><path class="cls-6" d="M35.78,27.34v-.05a.35.35,0,0,1,0-.06s0,0-.08-.16c-.81-1.11-4.53-3.71-9-6.32s-8.6-4.55-10-4.7a.37.37,0,0,0-.18,0l-.09,0,0-.09a.19.19,0,0,1,0-.16l0,0a.3.3,0,0,1,.28-.13l.22,0c1.4.17,5.5,2.1,10,4.7s8.2,5.21,9,6.33c.15.2.27.39.17.53s-.17.07-.26.09ZM16.64,16h.08c1.38.15,5.49,2.09,10,4.71S35,25.9,35.79,27c.1.14.12.18.1.23a.21.21,0,0,0,.15,0c.05-.08,0-.21-.18-.41-.84-1.12-4.55-3.71-9-6.31S18.28,16,16.89,15.78c-.24,0-.36,0-.42.07a.25.25,0,0,0,0,.12h0a.26.26,0,0,1,.14,0Z"/><path class="cls-7" d="M19.11,23.7a6.59,6.59,0,0,0,13.17,0V15.19H19.11Z"/><path class="cls-6" d="M25.71,30.32a6.64,6.64,0,0,1-6.65-6.62V15.15H32.33V23.7a6.63,6.63,0,0,1-6.62,6.62ZM19.15,15.24V23.7a6.54,6.54,0,0,0,13.08,0V15.24Z"/><path class="cls-4" d="M19.26,23.67a6.43,6.43,0,0,0,12.86,0v-8.3H19.26Z"/><polygon class="cls-5" points="29.61 25.61 29.69 25.69 29.59 25.79 29.67 25.87 29.77 25.77 29.84 25.85 29.75 25.94 29.82 26.02 29.92 25.92 30 26 29.9 26.1 29.86 26.06 29.82 26.11 29.5 25.8 29.55 25.75 29.51 25.71 29.61 25.61"/><polygon class="cls-5" points="30.2 25.8 30.1 25.9 30.14 25.94 30.09 25.99 30.4 26.3 30.45 26.25 30.49 26.29 30.59 26.19 30.51 26.11 30.41 26.21 30.33 26.13 30.43 26.03 30.36 25.95 30.25 26.06 30.18 25.98 30.28 25.87 30.2 25.8"/><polygon class="cls-5" points="30.39 26.39 30.29 26.49 30.33 26.52 30.28 26.58 30.59 26.89 30.64 26.83 30.68 26.87 30.77 26.77 30.7 26.7 30.6 26.8 30.52 26.72 30.62 26.62 30.54 26.54 30.45 26.64 30.37 26.56 30.46 26.47 30.39 26.39"/><polygon class="cls-5" points="29.15 26.16 29.1 26.2 30.18 27.29 30.23 27.24 29.15 26.16"/><polygon class="cls-5" points="29.05 26.26 29 26.31 30.08 27.39 30.13 27.34 29.05 26.26"/><path class="cls-5" d="M29.61,27.92a1.11,1.11,0,0,0,.17-.3l.11-.12,0,0,.1-.1L29,26.36l-.1.1,0,0-.12.12a1.1,1.1,0,0,0-.3.16l.19.19a.54.54,0,1,1,.76.76Z"/><path class="cls-5" d="M29.18,27.6a.34.34,0,0,0,.06-.45.33.33,0,0,0-.45.06Zm.44.44a1.74,1.74,0,0,1-.11.18l-1.34-1.34.18-.12.33.33a.45.45,0,1,1,.62.62Z"/><path class="cls-5" d="M29.15,27.46a.18.18,0,0,0,0-.26.17.17,0,0,0-.25,0Z"/><path class="cls-5" d="M29.51,26.05l-.11.11.06.05.11-.11Zm.21.07-.25.25-.23-.23.25-.24Z"/><path class="cls-5" d="M30.29,26.82l-.11.11.05.06.11-.12Zm.2.08-.24.25L30,26.92l.24-.25Z"/><path class="cls-5" d="M30,26.31l-.17.18,0,.05.18-.18Zm.29,0-.45.45-.23-.23.44-.45Z"/><polygon class="cls-5" points="20.63 26.77 20.71 26.7 20.81 26.79 20.89 26.72 20.79 26.62 20.86 26.54 20.96 26.64 21.04 26.56 20.94 26.47 21.02 26.39 21.12 26.49 21.08 26.52 21.13 26.57 20.82 26.88 20.77 26.83 20.73 26.87 20.63 26.77"/><polygon class="cls-5" points="20.82 26.19 20.92 26.29 20.96 26.25 21.01 26.3 21.32 25.99 21.27 25.94 21.31 25.9 21.2 25.8 21.12 25.88 21.23 25.98 21.15 26.06 21.05 25.95 20.97 26.03 21.08 26.13 21 26.21 20.89 26.11 20.82 26.19"/><polygon class="cls-5" points="21.41 26 21.5 26.1 21.54 26.06 21.59 26.11 21.9 25.8 21.85 25.75 21.89 25.71 21.79 25.61 21.72 25.69 21.81 25.79 21.73 25.87 21.64 25.77 21.56 25.85 21.66 25.94 21.58 26.02 21.48 25.92 21.41 26"/><polygon class="cls-5" points="21.18 27.24 21.22 27.28 22.3 26.2 22.26 26.15 21.18 27.24"/><polygon class="cls-5" points="21.28 27.34 21.33 27.39 22.41 26.31 22.36 26.25 21.28 27.34"/><path class="cls-5" d="M22.94,26.78a1.28,1.28,0,0,0-.3-.17l-.12-.12,0,0-.1-.11-1.08,1.09.1.1,0,0,.12.12a1.1,1.1,0,0,0,.16.3l.19-.19A.59.59,0,0,1,22,27a.6.6,0,0,1,.78,0Z"/><path class="cls-5" d="M22.61,27.21a.31.31,0,0,0-.44-.06.33.33,0,0,0,.06.45Zm.44-.45.19.12L21.9,28.22,21.78,28l.33-.33a.45.45,0,1,1,.62-.62Z"/><path class="cls-5" d="M22.48,27.24a.18.18,0,0,0-.26,0,.19.19,0,0,0,0,.26Z"/><path class="cls-5" d="M21.07,26.87l.11.12.05-.06-.11-.11Zm.07-.2.25.25-.23.23-.25-.25Z"/><path class="cls-5" d="M21.84,26.1l.11.11.06-.05-.12-.11Zm.08-.21.25.25-.24.23-.24-.25Z"/><path class="cls-5" d="M21.33,26.36l.18.18,0-.05-.18-.18Zm0-.28.45.45-.24.23-.45-.45Z"/><polygon class="cls-5" points="19.84 20.85 19.95 20.85 19.95 20.98 20.07 20.98 20.07 20.85 20.17 20.85 20.17 20.98 20.28 20.98 20.28 20.85 20.39 20.85 20.39 20.98 20.34 20.98 20.34 21.05 19.9 21.05 19.9 20.98 19.84 20.98 19.84 20.85"/><polygon class="cls-5" points="20.39 20.56 20.39 20.7 20.45 20.7 20.45 20.77 20.89 20.77 20.89 20.7 20.94 20.7 20.94 20.56 20.83 20.56 20.83 20.7 20.72 20.7 20.72 20.56 20.61 20.56 20.61 20.7 20.5 20.7 20.5 20.56 20.39 20.56"/><polygon class="cls-5" points="20.94 20.85 20.94 20.98 21 20.98 21 21.05 21.43 21.05 21.43 20.98 21.49 20.98 21.49 20.85 21.38 20.85 21.38 20.98 21.27 20.98 21.27 20.85 21.16 20.85 21.16 20.98 21.05 20.98 21.05 20.85 20.94 20.85"/><rect class="cls-5" x="19.9" y="21.56" width="1.53" height="0.07"/><rect class="cls-5" x="19.9" y="21.7" width="1.53" height="0.07"/><path class="cls-5" d="M21.47,22.48a.9.9,0,0,0-.09-.33V22h.05v-.14H19.9V22H20v.17a1.15,1.15,0,0,0-.1.33h.27a.54.54,0,1,1,1.07,0Z"/><path class="cls-5" d="M20.94,22.55a.33.33,0,0,0-.28-.36c-.15,0-.27.17-.27.36Zm.63,0c0,.07,0,.14,0,.21H19.72a1.6,1.6,0,0,1,.05-.21h.46a.45.45,0,1,1,.88,0Z"/><path class="cls-5" d="M20.82,22.48c0-.12-.07-.21-.16-.21s-.15.09-.15.21Z"/><path class="cls-5" d="M20.08,21.38h.08v-.16h-.08Zm.2.1H20v-.35h.32Z"/><path class="cls-5" d="M21.18,21.38h.07v-.16h-.07Zm.2.1h-.33v-.35h.33Z"/><path class="cls-5" d="M20.63,21.3h.07V21h-.07Zm.2.18H20.5v-.63h.33Z"/><polygon class="cls-5" points="29.88 20.85 30 20.85 30 20.98 30.1 20.98 30.1 20.85 30.21 20.85 30.21 20.98 30.32 20.98 30.32 20.85 30.43 20.85 30.43 20.98 30.38 20.98 30.38 21.05 29.94 21.05 29.94 20.98 29.88 20.98 29.88 20.85"/><polygon class="cls-5" points="30.43 20.56 30.43 20.7 30.49 20.7 30.49 20.77 30.92 20.77 30.92 20.7 30.98 20.7 30.98 20.56 30.87 20.56 30.87 20.7 30.76 20.7 30.76 20.56 30.65 20.56 30.65 20.7 30.54 20.7 30.54 20.56 30.43 20.56"/><polygon class="cls-5" points="30.98 20.85 30.98 20.98 31.03 20.98 31.03 21.05 31.47 21.05 31.47 20.98 31.53 20.98 31.53 20.85 31.42 20.85 31.42 20.98 31.31 20.98 31.31 20.85 31.2 20.85 31.2 20.98 31.09 20.98 31.09 20.85 30.98 20.85"/><rect class="cls-5" x="29.94" y="21.56" width="1.53" height="0.07"/><rect class="cls-5" x="29.94" y="21.7" width="1.53" height="0.07"/><path class="cls-5" d="M31.51,22.48a1.15,1.15,0,0,0-.09-.33V22h0v-.14H29.94V22H30v.17a1.15,1.15,0,0,0-.1.33h.26a.63.63,0,0,1,.54-.57.61.61,0,0,1,.54.57Z"/><path class="cls-5" d="M31,22.55a.33.33,0,0,0-.28-.36c-.15,0-.27.17-.27.36Zm.62,0a1.6,1.6,0,0,1,0,.21H29.76a1.55,1.55,0,0,1,0-.21h.47a.52.52,0,0,1,.44-.57c.24,0,.43.26.43.57Z"/><path class="cls-5" d="M30.86,22.48c0-.12-.07-.21-.16-.21s-.15.09-.15.21Z"/><path class="cls-5" d="M30.12,21.38h.08v-.16h-.08Zm.2.1H30v-.35h.32Z"/><path class="cls-5" d="M31.22,21.38h.07v-.16h-.07Zm.2.1h-.33v-.35h.33Z"/><path class="cls-5" d="M30.66,21.3h.08V21h-.08Zm.21.18h-.33v-.63h.33Z"/><polygon class="cls-5" points="29.88 16.11 30 16.11 30 16.25 30.1 16.25 30.1 16.11 30.21 16.11 30.21 16.25 30.32 16.25 30.32 16.11 30.43 16.11 30.43 16.25 30.38 16.25 30.38 16.32 29.94 16.32 29.94 16.25 29.88 16.25 29.88 16.11"/><polygon class="cls-5" points="30.43 15.82 30.43 15.96 30.49 15.96 30.49 16.04 30.92 16.04 30.92 15.96 30.98 15.96 30.98 15.82 30.87 15.82 30.87 15.96 30.76 15.96 30.76 15.82 30.65 15.82 30.65 15.96 30.54 15.96 30.54 15.82 30.43 15.82"/><polygon class="cls-5" points="30.98 16.11 30.98 16.25 31.03 16.25 31.03 16.32 31.47 16.32 31.47 16.25 31.53 16.25 31.53 16.11 31.42 16.11 31.42 16.25 31.31 16.25 31.31 16.11 31.2 16.11 31.2 16.25 31.09 16.25 31.09 16.11 30.98 16.11"/><rect class="cls-5" x="29.94" y="16.82" width="1.53" height="0.07"/><rect class="cls-5" x="29.94" y="16.96" width="1.53" height="0.07"/><path class="cls-5" d="M31.51,17.74a1.15,1.15,0,0,0-.09-.33v-.17h0V17.1H29.94v.14H30v.17a1.26,1.26,0,0,0-.1.33h.26a.63.63,0,0,1,.54-.57.61.61,0,0,1,.54.57Z"/><path class="cls-5" d="M31,17.81a.28.28,0,1,0-.55,0Zm.62,0a1.42,1.42,0,0,1,0,.22H29.76a1.43,1.43,0,0,1,0-.22h.47a.52.52,0,0,1,.44-.57c.24,0,.43.26.43.57Z"/><path class="cls-5" d="M30.86,17.74c0-.11-.07-.21-.16-.21s-.15.1-.15.21Z"/><path class="cls-5" d="M30.12,16.64h.08v-.16h-.08Zm.2.1H30v-.35h.32Z"/><path class="cls-5" d="M31.22,16.64h.07v-.16h-.07Zm.2.1h-.33v-.35h.33Z"/><path class="cls-5" d="M30.66,16.56h.08v-.25h-.08Zm.21.18h-.33v-.63h.33Z"/><polygon class="cls-5" points="19.84 16.11 19.95 16.11 19.95 16.25 20.07 16.25 20.07 16.11 20.17 16.11 20.17 16.25 20.28 16.25 20.28 16.11 20.39 16.11 20.39 16.25 20.34 16.25 20.34 16.32 19.9 16.32 19.9 16.25 19.84 16.25 19.84 16.11"/><polygon class="cls-5" points="20.39 15.82 20.39 15.96 20.45 15.96 20.45 16.04 20.88 16.04 20.88 15.96 20.94 15.96 20.94 15.82 20.83 15.82 20.83 15.96 20.72 15.96 20.72 15.82 20.61 15.82 20.61 15.96 20.5 15.96 20.5 15.82 20.39 15.82"/><polygon class="cls-5" points="20.94 16.11 20.94 16.25 21 16.25 21 16.32 21.43 16.32 21.43 16.25 21.49 16.25 21.49 16.11 21.38 16.11 21.38 16.25 21.27 16.25 21.27 16.11 21.16 16.11 21.16 16.25 21.05 16.25 21.05 16.11 20.94 16.11"/><rect class="cls-5" x="19.9" y="16.82" width="1.53" height="0.07"/><rect class="cls-5" x="19.9" y="16.96" width="1.53" height="0.07"/><path class="cls-5" d="M21.47,17.74a.9.9,0,0,0-.09-.33v-.17h.05V17.1H19.9v.14H20v.17a1.26,1.26,0,0,0-.1.33h.27a.54.54,0,1,1,1.07,0Z"/><path class="cls-5" d="M20.94,17.81a.28.28,0,1,0-.55,0Zm.62,0a1.42,1.42,0,0,1,.05.22H19.72a1.42,1.42,0,0,1,.05-.22h.46a.45.45,0,1,1,.88,0Z"/><path class="cls-5" d="M20.82,17.74c0-.11-.07-.21-.16-.21s-.15.1-.15.21Z"/><path class="cls-5" d="M20.08,16.64h.08v-.16h-.08Zm.2.1H20v-.35h.32Z"/><path class="cls-5" d="M21.18,16.64h.07v-.16h-.07Zm.2.1h-.33v-.35h.33Z"/><path class="cls-5" d="M20.63,16.56h.07v-.25h-.07Zm.2.18H20.5v-.63h.33Z"/><polygon class="cls-5" points="24.87 16.1 24.98 16.1 24.98 16.24 25.09 16.24 25.09 16.1 25.2 16.1 25.2 16.24 25.31 16.24 25.31 16.1 25.42 16.1 25.42 16.24 25.36 16.24 25.36 16.31 24.93 16.31 24.93 16.24 24.87 16.24 24.87 16.1"/><polygon class="cls-5" points="25.42 15.81 25.42 15.96 25.47 15.96 25.47 16.03 25.91 16.03 25.91 15.96 25.97 15.96 25.97 15.81 25.85 15.81 25.85 15.96 25.75 15.96 25.75 15.81 25.64 15.81 25.64 15.96 25.53 15.96 25.53 15.81 25.42 15.81"/><polygon class="cls-5" points="25.97 16.1 25.97 16.24 26.02 16.24 26.02 16.31 26.46 16.31 26.46 16.24 26.52 16.24 26.52 16.1 26.4 16.1 26.4 16.24 26.29 16.24 26.29 16.1 26.18 16.1 26.18 16.24 26.08 16.24 26.08 16.1 25.97 16.1"/><rect class="cls-5" x="24.93" y="16.81" width="1.53" height="0.07"/><rect class="cls-5" x="24.93" y="16.95" width="1.53" height="0.07"/><path class="cls-5" d="M26.5,17.73a1.68,1.68,0,0,0-.09-.32v-.17h.06V17.1H24.93v.14H25v.17a1.59,1.59,0,0,0-.09.33h.26a.6.6,0,0,1,.54-.57.61.61,0,0,1,.54.56Z"/><path class="cls-5" d="M26,17.81a.33.33,0,0,0-.28-.36c-.15,0-.27.16-.27.36Zm.62,0a1.29,1.29,0,0,1,.05.21h-1.9c0-.07,0-.15.05-.21h.47c0-.32.19-.57.43-.57a.52.52,0,0,1,.44.57Z"/><path class="cls-5" d="M25.85,17.73a.16.16,0,1,0-.32,0Z"/><path class="cls-5" d="M25.11,16.64h.07v-.16h-.07Zm.2.1H25v-.35h.33Z"/><path class="cls-5" d="M26.2,16.64h.08v-.16H26.2Zm.2.1h-.32v-.35h.32Z"/><path class="cls-5" d="M25.65,16.55h.08V16.3h-.08Zm.2.19h-.32V16.1h.32Z"/><path class="cls-7" d="M21.91,23.49a3.79,3.79,0,1,0,7.57,0V18.35H21.91Z"/><path class="cls-8" d="M24.82,20.2a.88.88,0,1,0,1.75,0V19H24.82Z"/><path class="cls-7" d="M25.69,20.08a.17.17,0,0,0,.16-.17.16.16,0,0,0-.32,0,.17.17,0,0,0,.16.17Z"/><path class="cls-7" d="M25.28,19.53a.16.16,0,0,0,0-.32.16.16,0,1,0,0,.32Z"/><path class="cls-7" d="M26.11,19.53a.16.16,0,1,1,0-.32.16.16,0,0,1,0,.32Z"/><path class="cls-7" d="M25.28,20.29a.16.16,0,0,1,.16.16.17.17,0,0,1-.16.17.17.17,0,0,1-.17-.17.16.16,0,0,1,.17-.16Z"/><path class="cls-7" d="M26.11,20.29a.17.17,0,0,0-.17.16.18.18,0,0,0,.17.17.17.17,0,0,0,.16-.17.16.16,0,0,0-.16-.16Z"/><path class="cls-8" d="M24.82,23a.88.88,0,1,0,1.75,0V21.79H24.82Z"/><path class="cls-7" d="M25.69,22.87a.16.16,0,1,0-.16-.16.16.16,0,0,0,.16.16Z"/><path class="cls-7" d="M25.28,22.33a.16.16,0,0,0,0-.32.16.16,0,1,0,0,.32Z"/><path class="cls-7" d="M26.11,22.33a.16.16,0,1,1,0-.32.16.16,0,0,1,0,.32Z"/><path class="cls-7" d="M25.28,23.09a.16.16,0,0,1,.16.16.17.17,0,0,1-.16.17.17.17,0,0,1-.17-.17.16.16,0,0,1,.17-.16Z"/><path class="cls-7" d="M26.11,23.09a.17.17,0,0,0-.17.16.18.18,0,0,0,.17.17.17.17,0,0,0,.16-.17.16.16,0,0,0-.16-.16Z"/><path class="cls-8" d="M24.82,25.8a.88.88,0,1,0,1.75,0V24.59H24.82Z"/><path class="cls-7" d="M25.69,25.67a.16.16,0,1,0-.16-.16.16.16,0,0,0,.16.16Z"/><path class="cls-7" d="M25.28,25.13a.16.16,0,0,0,0-.32.16.16,0,1,0,0,.32Z"/><path class="cls-7" d="M26.11,25.13a.16.16,0,1,1,0-.32.16.16,0,0,1,0,.32Z"/><path class="cls-7" d="M25.28,25.89a.16.16,0,0,1,.16.16.17.17,0,0,1-.16.17.17.17,0,0,1-.17-.17.16.16,0,0,1,.17-.16Z"/><path class="cls-7" d="M26.11,25.89a.17.17,0,0,0-.17.16.18.18,0,0,0,.17.17.17.17,0,0,0,.16-.17.16.16,0,0,0-.16-.16Z"/><path class="cls-8" d="M22.55,23a.88.88,0,1,0,1.75,0V21.79H22.55Z"/><path class="cls-7" d="M23.43,22.87a.16.16,0,0,0,0-.32.16.16,0,1,0,0,.32Z"/><path class="cls-7" d="M23,22.33A.16.16,0,1,0,23,22a.16.16,0,0,0,0,.32Z"/><path class="cls-7" d="M23.84,22.33a.16.16,0,0,1,0-.32.16.16,0,1,1,0,.32Z"/><path class="cls-7" d="M23,23.09a.17.17,0,0,1,.17.16.18.18,0,0,1-.17.17.17.17,0,0,1-.16-.17.16.16,0,0,1,.16-.16Z"/><path class="cls-7" d="M23.84,23.09a.16.16,0,0,0-.16.16.17.17,0,0,0,.16.17.18.18,0,0,0,.17-.17.17.17,0,0,0-.17-.16Z"/><path class="cls-8" d="M28.83,23a.88.88,0,1,1-1.75,0V21.79h1.75Z"/><path class="cls-7" d="M28,22.87a.16.16,0,1,1,0-.32.16.16,0,0,1,0,.32Z"/><path class="cls-7" d="M28.37,22.33a.16.16,0,1,1,.16-.16.16.16,0,0,1-.16.16Z"/><path class="cls-7" d="M27.54,22.33a.16.16,0,1,0-.16-.16.16.16,0,0,0,.16.16Z"/><path class="cls-7" d="M28.37,23.09a.16.16,0,0,0-.16.16.16.16,0,1,0,.32,0,.16.16,0,0,0-.16-.16Z"/><path class="cls-7" d="M27.54,23.09a.16.16,0,0,1,.16.16.16.16,0,1,1-.32,0,.16.16,0,0,1,.16-.16Z"/></g></g><path class="cls-7" d="M28.92,44.67a7.06,7.06,0,0,1-2.48-.45L12.57,39a7,7,0,0,1-4.5-6.52V12.24a7,7,0,0,1,4.5-6.52L26.44.45a7,7,0,0,1,4.95,0L45.27,5.72a7,7,0,0,1,4.5,6.52V32.43A7,7,0,0,1,45.27,39L31.39,44.22A7,7,0,0,1,28.92,44.67Zm0-43.06A5.25,5.25,0,0,0,27,2L13.14,7.22a5.42,5.42,0,0,0-3.47,5V32.43a5.41,5.41,0,0,0,3.47,5L27,42.71a5.32,5.32,0,0,0,3.81,0L44.7,37.45a5.4,5.4,0,0,0,3.46-5V12.24a5.41,5.41,0,0,0-3.46-5L30.82,2A5.41,5.41,0,0,0,28.92,1.61Z"/></g></g></svg>