<svg xmlns="http://www.w3.org/2000/svg" xmlns:xlink="http://www.w3.org/1999/xlink" viewBox="0 0 65.63 44.67"><defs><style>.cls-1{fill:none;}.cls-2{clip-path:url(#clip-path);}.cls-3{fill:#fff;}.cls-4{fill:#11549d;}.cls-5{fill:#da1c27;}</style><clipPath id="clip-path"><path class="cls-1" d="M48.88,6.47,35,1.21a6.12,6.12,0,0,0-4.38,0L16.75,6.47a6.18,6.18,0,0,0-4,5.77V32.43a6.18,6.18,0,0,0,4,5.77l13.87,5.26a6.12,6.12,0,0,0,4.38,0L48.88,38.2a6.17,6.17,0,0,0,4-5.77V12.24A6.17,6.17,0,0,0,48.88,6.47Z"/></clipPath></defs><title>russia</title><g id="Layer_2" data-name="Layer 2"><g id="OBJECTS"><g class="cls-2"><g id="russia"><rect class="cls-3" x="0.11" y="0.25" width="65.39" height="14.77"/><polygon class="cls-4" points="65.5 15.02 0.11 15.02 0 15.02 0 29.74 65.63 29.74 65.63 15.02 65.5 15.02"/><rect class="cls-5" y="29.74" width="65.63" height="14.69"/></g></g><path class="cls-3" d="M32.81,44.67a7,7,0,0,1-2.47-.45L16.46,39A7,7,0,0,1,12,32.43V12.24a7,7,0,0,1,4.5-6.52L30.34.45a7,7,0,0,1,4.95,0L49.16,5.72a7,7,0,0,1,4.51,6.52V32.43A7,7,0,0,1,49.16,39L35.29,44.22A7.06,7.06,0,0,1,32.81,44.67Zm0-43.06a5.2,5.2,0,0,0-1.9.35L17,7.22a5.41,5.41,0,0,0-3.46,5V32.43a5.4,5.4,0,0,0,3.46,5l13.88,5.26a5.32,5.32,0,0,0,3.81,0l13.87-5.26a5.39,5.39,0,0,0,3.47-5V12.24a5.4,5.4,0,0,0-3.47-5L34.72,2A5.47,5.47,0,0,0,32.81,1.61Z"/></g></g></svg>