<svg xmlns="http://www.w3.org/2000/svg" xmlns:xlink="http://www.w3.org/1999/xlink" viewBox="0 0 65.44 45.03"><defs><style>.cls-1{fill:none;}.cls-2{clip-path:url(#clip-path);}.cls-3{fill:#3d9635;}.cls-4{fill:#fff;}</style><clipPath id="clip-path"><path class="cls-1" d="M48.78,6.65,34.91,1.39a6.12,6.12,0,0,0-4.38,0L16.65,6.65a6.18,6.18,0,0,0-4,5.77V32.61a6.17,6.17,0,0,0,4,5.77l13.88,5.27a6.23,6.23,0,0,0,4.38,0l13.87-5.27a6.17,6.17,0,0,0,4-5.77V12.42A6.18,6.18,0,0,0,48.78,6.65Z"/></clipPath></defs><title>saudi-arabia</title><g id="Layer_2" data-name="Layer 2"><g id="OBJECTS"><g class="cls-2"><g id="Saudi_Arabia" data-name="Saudi Arabia"><rect class="cls-3" width="65.44" height="45.03"/><path class="cls-4" d="M16,12.77c-.08,1.05-.18,2.9.72,3.09,1.08.1.48-1.83.88-2.18.07-.17.21-.18.22,0v1.64a.78.78,0,0,0,.61.8c.28,0,.47,0,.58.27.05.94.09,1.89.14,2.84,0,0,.65.18.69-1.6a16.81,16.81,0,0,1-.07-2.13c0-.2.26-.21.44-.11s.41.44.84.34c.67-.18,1.07-.51,1.08-1a4.48,4.48,0,0,0-.3-1.46c0-.09-.13-.32-.1-.41.12.19.3.17.34,0a1.5,1.5,0,0,0-.57-.89c-.24-.21-.59-.16-.71.27a2.37,2.37,0,0,0,.54,1.58,1.51,1.51,0,0,1,.14.79.43.43,0,0,1-.55-.11s-.53-.4-.53-.49a1.87,1.87,0,0,0-.05-1.25c0-.35-.22-.46-.35-.7a.24.24,0,0,0-.4,0,2.49,2.49,0,0,0,0,1.68c.13.36.31.58.23.58-.08.21-.23.16-.34-.07a6.17,6.17,0,0,1-.18-1.54c0-.41-.1-1.27-.37-1.49s-.4-.11-.49.09a7.53,7.53,0,0,0,0,1.17,13.34,13.34,0,0,1,.33,1.89c0,.89-.52.39-.49-.06a4.07,4.07,0,0,0,0-1.7c-.09-.23-.19-.29-.41-.25s-.6.46-.72,1.25a6.12,6.12,0,0,0-.15.77c-.06.41-.33.7-.52-.06-.16-.54-.26-1.89-.53-1.57"/><path class="cls-4" d="M18.9,17.08c-.95.47-1.87.9-2.81,1.35a2.86,2.86,0,0,1,2.23-1.8c.58,0,.43.22.58.45"/><path class="cls-4" d="M22.5,11.12l-.18.06a.53.53,0,0,0-.38.66c.27,1.65.45,2.91.72,4.56,0,.19-.12.45-.33.42-.35-.24-.44-.73-1-.71a1.19,1.19,0,0,0-1,.95,2.19,2.19,0,0,0,0,1.08.89.89,0,0,0,1,.25c.27-.11.49-.38.58-.32h0c.06.1,0,1-1.25,1.62-.77.35-1.38.43-1.71-.2-.21-.39,0-1.88-.49-1.54-1.48,3.83,3.48,4.36,4,.16,0-.12.15-.24.23-.21a.19.19,0,0,1,.07.15c-.12,3.8-3.84,4.06-4.47,2.87a3.75,3.75,0,0,1-.22-1.29c0-.23-.08-.36-.15-.41s-.35.18-.4.69a4.9,4.9,0,0,0,0,.93c.2,3,5,1.71,5.76-.77a8.31,8.31,0,0,0,.13-2.37h0c.48.51,1.14.06,1.29-.11a.21.21,0,0,1,.33,0,.78.78,0,0,0,1.16-.33,11,11,0,0,0,.15-1.43,1.61,1.61,0,0,0-.51.21.25.25,0,0,0,0,.07l-.06.41s0,0,0,0l-.05.05c-.08,0-.23,0-.24-.11-.11-.52-.59-.59-.87.22-.2.16-.55.18-.58-.05,0-.54-.18-.62-.62-.36-.13-1.08-.28-2.1-.42-3.18.19,0,.35.13.52-.08a5.82,5.82,0,0,0-.78-1.81h0l0,0H22.5M21.16,17a.26.26,0,0,1,.27.16.31.31,0,0,1-.05.29h0c0,.05-.17,0-.26,0a.26.26,0,0,1-.23-.12c0-.1.06-.2.1-.28h0l0,0a.3.3,0,0,1,.15-.07"/><path class="cls-4" d="M25.84,11a.75.75,0,0,0-.34.09.64.64,0,0,0-.11.85c.19.09.38.28.25.38-.53.57-1.92,1.52-2,1.69h0a3.55,3.55,0,0,0,1,0h0a14.58,14.58,0,0,0,1.72-1.73l-.22-.17c-.08-.07-.07-.13,0-.2a.57.57,0,0,0,.06-.86.84.84,0,0,0-.42-.08m-.07.5a.27.27,0,0,1,.24.18c.06.12,0,.23-.06.26s-.2-.06-.26-.18,0-.24.06-.26h0"/><path class="cls-4" d="M16.19,19.79a2.81,2.81,0,0,0-.29,2.48.63.63,0,0,0,.6.2,1.12,1.12,0,0,0,.4-1.07c-.11-.17-.2-.2-.31,0-.23.47-.33.15-.35-.12a5.53,5.53,0,0,1,.07-1.33c.05-.38,0-.26-.12-.11"/><path class="cls-4" d="M38.8,18.44c-.51-1.1-1.22-2.19-1.45-2.61S35.43,13,35.17,12.67c-.55-.66.9.27-.18-1-.41-.36-.43-.38-.78-.67-.17-.12-.59-.34-.66,0a2.22,2.22,0,0,0,0,.78,3.16,3.16,0,0,0,.44.66,48.41,48.41,0,0,1,4.73,7.61c.24-.11.18-1.42,0-1.61"/><path class="cls-4" d="M36.55,22.13c-.1.11.25.59.7.59a2.67,2.67,0,0,0,2-1.64,2.86,2.86,0,0,0,.46-1.25,27.42,27.42,0,0,0-.5-6.36,1,1,0,0,1,0-.45s.21,0,.3-.14-.34-1.23-.61-1.65c-.1-.19-.13-.32-.29,0a2.37,2.37,0,0,0-.27,1.2c.36,2.5.47,4.69.71,7.2a1,1,0,0,1-.18.74,7.07,7.07,0,0,1-2.39,1.74"/><path class="cls-4" d="M46.8,22.11c-.55.32-.55.68-.11.69A2.73,2.73,0,0,0,49,21.72a3.78,3.78,0,0,0,.37-1.41,32.68,32.68,0,0,0-.42-6.87,3.8,3.8,0,0,1-.07-.64c0-.13.29,0,.38-.13s-.64-1.13-.91-1.55c-.09-.19-.12-.31-.28,0a1.89,1.89,0,0,0-.16,1.19,65.91,65.91,0,0,1,.76,7.77,2.24,2.24,0,0,1-.15.64,5.54,5.54,0,0,1-.75.87c-.24.18-.77.35-.94.49"/><path class="cls-4" d="M47.21,19.67c0-.63,0-1.18,0-1.66s-.23-2.25-.31-2.64-.14-1-.25-1.41a6.28,6.28,0,0,1-.1-.81c0-.13.22,0,.3-.14a5.08,5.08,0,0,0-.71-2c-.11-.18-.29-.12-.52.18s-.13.65-.05,1.08a40,40,0,0,1,.86,8.52c0,.23.8-.68.8-1.12"/><path class="cls-4" d="M43.18,16.15c-.34,0-1-.67-1.26-1a.72.72,0,0,1,0-.57.47.47,0,0,1,.47-.08s.15.21.12.23c.18.09.26,0,.28,0s0-.22,0-.36a.4.4,0,0,1,.7-.21,1.47,1.47,0,0,1,.19.71c0,.11-.18,0-.29,0s-.13.15-.14.26c0,.29-.05.75-.06,1.1"/><path class="cls-4" d="M36.87,20.38a30.89,30.89,0,0,0,0-3.14c0-1.21-.23-3.53-.32-3.92-.11-.73.3.08.24-.35a4.63,4.63,0,0,0-1-1.9c-.15-.21-.15-.26-.39.06a2.29,2.29,0,0,0,0,1.47A26.26,26.26,0,0,1,36,16.88a36.08,36.08,0,0,1,0,4.54c.26,0,.67-.42.82-1"/><path class="cls-4" d="M48.37,19c-.6-1-1.51-2.2-1.76-2.6s-2.3-3.43-2.56-3.7c-.75-.79.35-.13-.14-.74a7,7,0,0,0-.89-.87c-.18-.11-.29-.33-.35,0a6.67,6.67,0,0,0,0,1,1.41,1.41,0,0,0,.29.61,55.6,55.6,0,0,1,5.42,7.86c.23-.12.16-1.41,0-1.59"/><path class="cls-4" d="M41.06,31h0a.5.5,0,0,0-.18.93c-5.63,0-14.29-.09-16.14-.09-1,0-4.32-.12-4.39-.12a3.36,3.36,0,0,0,3.06,1.26l17.41,0A1.17,1.17,0,0,0,41,34.11h0c.22.05.32-.11.39-.22a23.66,23.66,0,0,0,2.53,0h0c.12.19.24.36.48.33.41-.09.73-.13.74-1,0,0,0-1.42-1-1.33l-.84.09c-.72-.08-1.25-.09-2.06-.12.08-.1.21-.48,0-.62a.33.33,0,0,0-.19-.05h0l0,0h0a2,2,0,0,1-.09-.25h0m.38,2h0c.82,0,1.59,0,2.41.05a.28.28,0,0,1,0,.41h0l-.69,0s0,0,0,0c-.06-.19-.52-.18-.63,0h0v0a6.14,6.14,0,0,1-1.05,0c-.1-.13-.09-.37,0-.43"/><path class="cls-4" d="M26.79,11.9c-.55,1.57.32,3.29.92,3.12.43.18.71-.64.88-1.54.12-.26.22-.28.28-.15,0,1.19.08,1.46.39,1.82a1,1,0,0,0,1.3,0l.54-.54a.32.32,0,0,1,.44,0c.17.15.14.41.49.58s.93,0,1.07-.22.25-.46.34-.58.38-.11.38-.05-.16.21-.07.4.21,0,.3,0c.35-.16.62-.92.62-.92,0-.28-.15-.26-.25-.2s-.14.11-.28.19-.5.14-.66-.12a10,10,0,0,1-.3-1s-.22-.49,0-.52.32.08.36-.1-.24-.7-.47-1a.51.51,0,0,0-.76,0c-.19.18-.16.38-.2.56a.85.85,0,0,0,.18.76,2.28,2.28,0,0,1,.42,1.54.62.62,0,0,1-.55.28c-.15,0-.39-.1-.52-1A6.75,6.75,0,0,0,31.35,11c-.11-.28-.19-.56-.45-.07A1.11,1.11,0,0,0,30.74,12a3.2,3.2,0,0,1,.18,1.66,3.29,3.29,0,0,1-.33.46.52.52,0,0,1-.67.09.72.72,0,0,1-.41-.57,8.27,8.27,0,0,0-.06-1.84.34.34,0,0,0-.56-.11,4.2,4.2,0,0,0-1,2.07c-.16.5-.32.36-.44.16-.28-.27-.3-2.35-.65-2"/><path class="cls-4" d="M28.65,15.14h0s-.09.09-.18.16a.79.79,0,0,0-.18.67s.3.87.56,1.45A4.69,4.69,0,0,1,29,19.38a4.84,4.84,0,0,1-2,2.06,1,1,0,0,1-.82,0h0A.51.51,0,0,1,26,21h0a4.68,4.68,0,0,0,2-2,2.11,2.11,0,0,0,0-1.47,1.36,1.36,0,0,0-.33-.68h0c.11-.05.4.16.44,0a2.19,2.19,0,0,0-.56-1,.49.49,0,0,0-.7,0c-.24.14-.29.61-.17,1s.47.37.71,1h0s.09.47,0,.64c-.09.32-1.39,1.33-1.48,1.39h0v-.2c0-.19.07-.62.06-.69h0c-.42.27-.56,1.12-.64,1.37a20.38,20.38,0,0,0-3,2.05c-.36.58,2.53-.66,2.87-.81h0a2.18,2.18,0,0,0,.26.54,1.51,1.51,0,0,0,1.56.5,5,5,0,0,0,2.27-1.88c.08-.13.22-.22.35-.13a3.52,3.52,0,0,0,3.2,1.69c.37-.44.19-.66.05-.75s-.78-.32-.9-.61.1-.5.45-.67a16.3,16.3,0,0,0,3-.57,2.51,2.51,0,0,1,.33-1,.53.53,0,0,1,.17-.19h0v0l-.16-.09-3.22,0-.09,0h0a.21.21,0,0,1,.1-.06c.77-.1,2.13-.33,2.22-1.64a1.07,1.07,0,1,0-2.11.05c0,.17.06.52-.12.56-1.19.11-2.48.85-2.52,1.38h-.05a.29.29,0,0,1-.16-.32A6.45,6.45,0,0,0,29,15.39c-.17-.17-.24-.24-.29-.25h0m4.7,1.18a.43.43,0,0,1,.25.07.34.34,0,0,1,.2.26h0s0,0,0,0a.31.31,0,0,1-.34,0c-.13-.07-.21-.18-.2-.26h0a0,0,0,0,0,0,0h0a.11.11,0,0,1,.08,0m-3,2.72h0a12.08,12.08,0,0,0,1.35.15c.37,0,.56.32.21.44s-.68.21-.68.71c.05.25,0,.38,0,.43a0,0,0,0,1,0,0h-.05c-.09,0-.21-.06-.29-.11a1.78,1.78,0,0,1-.9-1.32.33.33,0,0,1,.34-.34"/><path class="cls-4" d="M20,11.92c.37.17,1.07.1,1-.5a2.64,2.64,0,0,0,0-.28c-.07-.18-.28-.13-.33,0s0,.16,0,.19-.15,0-.14-.16a.35.35,0,0,0-.06-.14l-.08,0s0,0-.08.06a.58.58,0,0,0,0,.14c0,.06,0,.08-.07.09a.11.11,0,0,1-.08,0s-.05,0-.05-.08a.33.33,0,0,0,0-.15.13.13,0,0,0-.09,0c-.2,0-.21.23-.2.32a.56.56,0,0,0,.25.55"/><path class="cls-4" d="M30.88,16.51c.37.18,1.25.08,1-.49,0-.06,0-.24,0-.28s-.28-.14-.33,0,0,.15,0,.18-.15,0-.14-.15a.3.3,0,0,0-.06-.14.11.11,0,0,0-.08,0c-.05,0-.05,0-.08.06a.49.49,0,0,0,0,.14c0,.05,0,.08-.07.08s0,0-.08,0-.05,0-.05-.08a.32.32,0,0,0,0-.14.13.13,0,0,0-.09,0c-.2,0-.21.23-.2.32s0,.43.25.54"/><path class="cls-4" d="M37.21,14.61c.37.18,1.07.1,1-.49a2.64,2.64,0,0,0,0-.29c-.07-.17-.28-.13-.33.05s0,.16,0,.19-.15,0-.15-.15a.3.3,0,0,0-.06-.14s0,0-.08,0-.05,0-.08.05a.7.7,0,0,0,0,.14.08.08,0,0,1-.07.09s0,0-.08,0,0,0,0-.08a.77.77,0,0,0,0-.15.25.25,0,0,0-.09,0c-.21,0-.22.23-.21.31s0,.44.25.55"/><path class="cls-4" d="M40.49,19.39a2.25,2.25,0,0,0-.21,2.19,1.71,1.71,0,0,0,.8.91.56.56,0,0,0,.83-.09c.38-.4.39-1.4.56-1.6a.34.34,0,0,1,.6-.14,1.44,1.44,0,0,0,.54.47.91.91,0,0,0,1.19.08,1.38,1.38,0,0,0,.63-.77,28.32,28.32,0,0,0,0-4.55c0-.11-.37-1.87-.37-1.89s0-.89-.08-1.1,0-.11.06-.1a.64.64,0,0,0,.16.11c.1,0,.18-.15.13-.3L44.49,11c-.07-.07-.16-.14-.27,0a.67.67,0,0,0-.22.49c0,.38.09.78.12,1.16.12.66.24,1.33.35,2,.11,1.41.14,2.7.25,4.12a2.63,2.63,0,0,1-.37,1.47s-.27.15-.45,0a5.13,5.13,0,0,1-.64-.86.39.39,0,0,0-.63,0,8.51,8.51,0,0,0-1.11,2.09c-.09.14-.35.26-.64,0a3,3,0,0,1-.39-2"/><path class="cls-4" d="M37.38,11.14a1.22,1.22,0,0,1,.49,1.14c-.07.41-.24.85-.37.79s.09-.4,0-.77-.52-.69-.48-.81c-.09-.28.2-.4.4-.35"/><path class="cls-4" d="M41.56,19.79A10.11,10.11,0,0,0,41.49,18c0-.47-.53-4.32-.64-4.68-.12-.68.5-.09.44-.48-.22-.5-.76-1.23-.93-1.66-.1-.18-.06-.35-.29,0a3.6,3.6,0,0,0-.2,1.69,36.9,36.9,0,0,1,1,8.13c.26,0,.56-.59.68-1.17"/><path class="cls-4" d="M47.23,12.1c.31.16.48,1,.45,1.24-.06.44-.22.91-.34.85s0-.65,0-.84-.48-.73-.44-.88a.29.29,0,0,1,.36-.37"/><path class="cls-4" d="M24.74,18.26c.29.11.47.73.43.91s-.21.67-.32.62,0-.48,0-.61c0-.33-.43-.5-.42-.65s.17-.31.34-.27"/><path class="cls-4" d="M17,10.94c.43.13.45.76.42.94-.06.34-.21.7-.32.65s0-.5-.06-.64-.42-.56-.38-.67.16-.32.34-.28"/><path class="cls-4" d="M25.44,13.9a.77.77,0,0,0-.25,1,.49.49,0,0,0,.53.17c.32,0,.51-.6.51-.6s0-.18-.37.16c-.16,0-.18,0-.22-.12a.87.87,0,0,1,.05-.5c.06-.16-.06-.23-.25-.12"/><path class="cls-4" d="M27.9,10.7a1.2,1.2,0,0,0-.5.84c0,.22,0,.22.09.36s.21.14.42,0a.45.45,0,0,0,.2-.3c.06-.25-.26.12-.3-.16s.13-.37.32-.62c0-.17,0-.29-.23-.15"/><path class="cls-4" d="M29.88,11.05a4.84,4.84,0,0,0-.14,1c-.06.24.25.35.4,0A2.87,2.87,0,0,0,30.36,11c-.06-.37-.31-.36-.48.05"/><path class="cls-4" d="M42.36,17.4l1.76-1.26c.18-.06.14.63.06.62A6.91,6.91,0,0,1,42.36,18c-.08.06-.17-.48,0-.63"/><path class="cls-4" d="M43.93,17.39c.3.15.42,1,.39,1.28,0,.47-.29.84-.41.78s0-.58,0-.77-.32-.75-.28-.89a.3.3,0,0,1,.35-.4"/><path class="cls-4" d="M33.72,21.2a2.58,2.58,0,0,1,.49-.42c.17-.09.34.07.33,0,0,.18-.11.33-.06.56s.06.19.23.16a1.24,1.24,0,0,1,.8-.25c.21,0,.21.37.08.37a6.8,6.8,0,0,0-1.09.38.23.23,0,0,1-.31,0,.31.31,0,0,1,0-.32c0-.18-.06-.28-.21-.26s-.22.1-.27,0,0-.14,0-.2"/><path class="cls-4" d="M45.73,21.68a.21.21,0,0,1,0,.33c-.12.12-.21.18-.33.29s-.09.24.08.29c.32.09,1.07-.39,1.07-.4a.25.25,0,0,0,.07-.27c-.07-.08-.23,0-.34,0s-.21,0-.13-.17a1.58,1.58,0,0,0,.13-.26c0-.11,0-.19-.17-.25a1.85,1.85,0,0,0-.47,0c-.11,0-.14.08-.16.21s.13.19.25.27"/></g></g><path class="cls-4" d="M32.72,44.85a7.06,7.06,0,0,1-2.48-.45L16.37,39.14a7,7,0,0,1-4.5-6.53V12.42a7,7,0,0,1,4.5-6.52L30.24.64a6.92,6.92,0,0,1,4.95,0L49.07,5.9a7,7,0,0,1,4.5,6.52V32.61a7,7,0,0,1-4.5,6.53L35.19,44.4A7,7,0,0,1,32.72,44.85Zm0-43.06a5.47,5.47,0,0,0-1.91.35L16.94,7.4a5.42,5.42,0,0,0-3.47,5V32.61a5.41,5.41,0,0,0,3.47,5l13.87,5.26a5.32,5.32,0,0,0,3.81,0L48.5,37.63a5.4,5.4,0,0,0,3.46-5V12.42a5.41,5.41,0,0,0-3.46-5L34.62,2.14A5.41,5.41,0,0,0,32.72,1.79Z"/></g></g></svg>