<svg xmlns="http://www.w3.org/2000/svg" xmlns:xlink="http://www.w3.org/1999/xlink" viewBox="0 0 67.53 45.61"><defs><style>.cls-1{fill:none;}.cls-2{clip-path:url(#clip-path);}.cls-3{fill:#219257;}.cls-4{fill:#fee93a;}.cls-5{fill:#d91b26;}.cls-6{fill:#fff;}</style><clipPath id="clip-path"><path class="cls-1" d="M49.83,6.94,36,1.68a6.12,6.12,0,0,0-4.38,0L17.7,6.94a6.18,6.18,0,0,0-4,5.77V32.9a6.18,6.18,0,0,0,4,5.77l13.87,5.27a6.23,6.23,0,0,0,4.38,0l13.88-5.27a6.17,6.17,0,0,0,4-5.77V12.71A6.17,6.17,0,0,0,49.83,6.94Z"/></clipPath></defs><title>senegal</title><g id="Layer_2" data-name="Layer 2"><g id="OBJECTS"><g class="cls-2"><g id="senegal"><rect class="cls-3" width="22.51" height="45.61"/><rect class="cls-4" x="22.51" width="22.51" height="45.61"/><rect class="cls-5" x="45.02" width="22.51" height="45.61"/><polygon class="cls-3" points="39.47 20.93 35.11 20.93 33.76 16.73 32.42 20.93 28.05 20.93 31.58 23.52 30.24 27.73 33.76 25.13 37.29 27.73 35.94 23.52 39.47 20.93"/></g></g><path class="cls-6" d="M33.76,45.14a7,7,0,0,1-2.47-.45L17.41,39.42a7,7,0,0,1-4.5-6.52V12.71a7,7,0,0,1,4.5-6.52L31.29.92a7,7,0,0,1,5,0L50.11,6.19a7,7,0,0,1,4.51,6.52V32.9a7,7,0,0,1-4.51,6.52L36.24,44.69A7.06,7.06,0,0,1,33.76,45.14Zm0-43.06a5.41,5.41,0,0,0-1.9.35L18,7.69a5.41,5.41,0,0,0-3.46,5V32.9a5.4,5.4,0,0,0,3.46,5l13.88,5.26a5.32,5.32,0,0,0,3.81,0l13.87-5.26a5.39,5.39,0,0,0,3.47-5V12.71a5.4,5.4,0,0,0-3.47-5L35.67,2.43A5.47,5.47,0,0,0,33.76,2.08Z"/></g></g></svg>