<svg xmlns="http://www.w3.org/2000/svg" xmlns:xlink="http://www.w3.org/1999/xlink" viewBox="0 0 68.1 46.01"><defs><style>.cls-1{fill:none;}.cls-2{clip-path:url(#clip-path);}.cls-3{fill:#2d5a95;}.cls-4{fill:#f3d02f;}.cls-5{fill:#fff;}</style><clipPath id="clip-path"><path class="cls-1" d="M47.58,7.14,33.71,1.88a6.12,6.12,0,0,0-4.38,0L15.45,7.14a6.17,6.17,0,0,0-4,5.77V33.1a6.17,6.17,0,0,0,4,5.77l13.88,5.26a6.12,6.12,0,0,0,4.38,0l13.87-5.26a6.18,6.18,0,0,0,4-5.77V12.91A6.18,6.18,0,0,0,47.58,7.14Z"/></clipPath></defs><title>sweden</title><g id="Layer_2" data-name="Layer 2"><g id="OBJECTS"><g class="cls-2"><g id="sweden"><rect class="cls-3" x="31.59" width="36.5" height="18.4"/><rect class="cls-3" width="22.39" height="18.4"/><rect class="cls-3" y="27.61" width="22.39" height="18.4"/><rect class="cls-3" x="31.59" y="27.61" width="36.5" height="18.4"/><rect class="cls-4" x="22.39" y="27.61" width="9.2" height="18.4"/><rect class="cls-4" x="22.39" width="9.2" height="18.4"/><polygon class="cls-4" points="31.59 27.61 68.1 27.61 68.1 18.41 31.59 18.41 22.39 18.41 0 18.41 0 27.61 22.39 27.61 31.59 27.61"/></g></g><path class="cls-5" d="M31.52,45.34A7.06,7.06,0,0,1,29,44.89L15.17,39.62a7,7,0,0,1-4.51-6.52V12.91a7,7,0,0,1,4.51-6.52L29,1.12a7,7,0,0,1,5,0L47.87,6.39a7,7,0,0,1,4.5,6.52V33.1a7,7,0,0,1-4.5,6.52L34,44.89A7,7,0,0,1,31.52,45.34Zm0-43.06a5.25,5.25,0,0,0-1.91.35L15.74,7.89a5.39,5.39,0,0,0-3.47,5V33.1a5.4,5.4,0,0,0,3.47,5l13.87,5.26a5.32,5.32,0,0,0,3.81,0L47.3,38.12a5.41,5.41,0,0,0,3.46-5V12.91a5.4,5.4,0,0,0-3.46-5L33.42,2.63A5.2,5.2,0,0,0,31.52,2.28Z"/></g></g></svg>