<svg xmlns="http://www.w3.org/2000/svg" xmlns:xlink="http://www.w3.org/1999/xlink" viewBox="0 0 61.89 44.67"><defs><style>.cls-1{fill:none;}.cls-2{clip-path:url(#clip-path);}.cls-3{fill:#fff;}.cls-4{fill:#dc1b29;}</style><clipPath id="clip-path"><path class="cls-1" d="M47,6.47,33.13,1.21a6.12,6.12,0,0,0-4.38,0L14.88,6.47a6.18,6.18,0,0,0-4,5.77V32.43a6.18,6.18,0,0,0,4,5.77l13.87,5.26a6.12,6.12,0,0,0,4.38,0L47,38.2a6.17,6.17,0,0,0,4-5.77V12.24A6.17,6.17,0,0,0,47,6.47Z"/></clipPath></defs><title>switzerland</title><g id="Layer_2" data-name="Layer 2"><g id="OBJECTS"><g class="cls-2"><g id="switzerland"><g id="flag"><rect class="cls-3" y="1.08" width="61.89" height="41.86"/><rect class="cls-4" x="9.99" y="1.06" width="41.9" height="41.9"/><polygon class="cls-3" points="27.08 9.14 27.08 18.14 18.07 18.14 18.07 25.88 27.08 25.88 27.08 34.88 34.82 34.88 34.82 25.88 43.81 25.88 43.81 18.14 34.82 18.14 34.82 9.14 27.08 9.14"/></g></g></g><path class="cls-3" d="M30.94,44.67a7,7,0,0,1-2.47-.45L14.59,39a7,7,0,0,1-4.5-6.52V12.24a7,7,0,0,1,4.5-6.52L28.47.45a7,7,0,0,1,5,0L47.29,5.72a7,7,0,0,1,4.51,6.52V32.43A7,7,0,0,1,47.29,39L33.42,44.22A7.06,7.06,0,0,1,30.94,44.67Zm0-43.06A5.2,5.2,0,0,0,29,2L15.16,7.22a5.41,5.41,0,0,0-3.46,5V32.43a5.4,5.4,0,0,0,3.46,5L29,42.71a5.32,5.32,0,0,0,3.81,0l13.87-5.26a5.39,5.39,0,0,0,3.47-5V12.24a5.4,5.4,0,0,0-3.47-5L32.85,2A5.47,5.47,0,0,0,30.94,1.61Z"/></g></g></svg>