<svg xmlns="http://www.w3.org/2000/svg" xmlns:xlink="http://www.w3.org/1999/xlink" viewBox="0 0 62.16 44.67"><defs><style>.cls-1{fill:none;}.cls-2{clip-path:url(#clip-path);}.cls-3{fill:#d30025;}.cls-4{fill:#fff;}</style><clipPath id="clip-path"><path class="cls-1" d="M47.14,6.47,33.27,1.21a6.12,6.12,0,0,0-4.38,0L15,6.47a6.18,6.18,0,0,0-4,5.77V32.43a6.18,6.18,0,0,0,4,5.77l13.87,5.26a6.12,6.12,0,0,0,4.38,0L47.14,38.2a6.18,6.18,0,0,0,4-5.77V12.24A6.18,6.18,0,0,0,47.14,6.47Z"/></clipPath></defs><title>tunisia</title><g id="Layer_2" data-name="Layer 2"><g id="OBJECTS"><g class="cls-2"><g id="tunisia"><rect class="cls-3" y="1.39" width="62.16" height="41.99"/><path class="cls-4" d="M31.08,11.88a10.5,10.5,0,1,0,10.5,10.5A10.5,10.5,0,0,0,31.08,11.88Zm0,18.37a7.87,7.87,0,1,1,6.36-12.5,6.3,6.3,0,1,0,0,9.27A7.87,7.87,0,0,1,31.08,30.25ZM37,25.16,33.74,24.1l-2,2.77V23.44l-3.26-1.06,3.26-1.06V17.89l2,2.78L37,19.61l-2,2.77Z"/></g></g><path class="cls-4" d="M31.08,44.67a7,7,0,0,1-2.47-.45L14.73,39a7,7,0,0,1-4.5-6.52V12.24a7,7,0,0,1,4.5-6.52L28.61.45a7,7,0,0,1,5,0L47.43,5.72a7,7,0,0,1,4.5,6.52V32.43A7,7,0,0,1,47.43,39L33.56,44.22A7.06,7.06,0,0,1,31.08,44.67Zm0-43.06a5.16,5.16,0,0,0-1.9.35L15.3,7.22a5.41,5.41,0,0,0-3.46,5V32.43a5.4,5.4,0,0,0,3.46,5l13.88,5.26a5.32,5.32,0,0,0,3.81,0l13.87-5.26a5.41,5.41,0,0,0,3.47-5V12.24a5.42,5.42,0,0,0-3.47-5L33,2A5.47,5.47,0,0,0,31.08,1.61Z"/></g></g></svg>