<svg xmlns="http://www.w3.org/2000/svg" xmlns:xlink="http://www.w3.org/1999/xlink" viewBox="0 0 67.95 48.52"><defs><style>.cls-1{fill:none;}.cls-2{clip-path:url(#clip-path);}.cls-3{fill:#fff;}.cls-4{fill:#0038a8;}.cls-5,.cls-6{fill-rule:evenodd;}.cls-6{fill:#fcd116;}</style><clipPath id="clip-path"><path class="cls-1" d="M37.67,6.52,23.79,1.25a6.23,6.23,0,0,0-4.38,0L5.54,6.52a6.16,6.16,0,0,0-4,5.77V32.47a6.17,6.17,0,0,0,4,5.78l13.87,5.26a6.12,6.12,0,0,0,4.38,0l13.88-5.26a6.17,6.17,0,0,0,4-5.78V12.29A6.16,6.16,0,0,0,37.67,6.52Z"/></clipPath></defs><title>uruguay</title><g id="Layer_2" data-name="Layer 2"><g id="OBJECTS"><g class="cls-2"><g id="uruguay"><rect class="cls-3" x="1.56" width="66.4" height="48.52"/><rect class="cls-4" x="26.84" y="6.69" width="41.12" height="5.02"/><rect class="cls-4" x="26.84" y="16.71" width="41.12" height="5.02"/><rect class="cls-4" y="26.78" width="67.95" height="5.02"/><rect class="cls-4" x="2.65" y="36.83" width="65.3" height="5.02"/><path class="cls-5" d="M10.65,12.78,7.83,8.6l3.7,2.81a3.42,3.42,0,0,0-.39-1.77A2.21,2.21,0,0,1,10.94,7l.14-.23,0,.27a1.86,1.86,0,0,0,.66,1.85,4.55,4.55,0,0,1,1.53,2l.84-5,.78,4.79a3.13,3.13,0,0,0,.82-1.48A2.14,2.14,0,0,1,17.33,7L17.59,7l-.2.18a2.57,2.57,0,0,0-.62.77,1.61,1.61,0,0,0-.13,1,4.71,4.71,0,0,1-.19,2.49L20.4,8.57l-2.7,4a2.76,2.76,0,0,0,1.53-.45,2,2,0,0,1,2.57-.3L22,12l-.26,0a1.74,1.74,0,0,0-1.75.76,4.63,4.63,0,0,1-1.68,1.58l4.55.82-4.44.8c.33.33.85.85,1.26.89a2.07,2.07,0,0,1,2,1.73l.06.26-.17-.21a1.72,1.72,0,0,0-1.73-.79,4.71,4.71,0,0,1-2.14-.09l2.68,4-3.69-2.75A3.68,3.68,0,0,0,17,20.71a2.21,2.21,0,0,1,.15,2.67l-.15.23,0-.27a1.88,1.88,0,0,0-.63-1.86,4.79,4.79,0,0,1-1.55-2l-.8,4.77-.74-4.45c-.36.36-.92.91-1,1.39a2.11,2.11,0,0,1-1.74,2l-.26.05.21-.16a1.86,1.86,0,0,0,.83-1.77,6.15,6.15,0,0,1,.16-2.41L7.8,21.61l2.73-4a3.13,3.13,0,0,0-1.74.47,2,2,0,0,1-2.57.28L6,18.24h.27A1.72,1.72,0,0,0,8,17.5a4.49,4.49,0,0,1,1.73-1.59L5.32,15.1l4.37-.75a3.24,3.24,0,0,0-1.4-1,2.08,2.08,0,0,1-1.9-1.81l0-.28.16.22a1.73,1.73,0,0,0,1.7.88A4.18,4.18,0,0,1,10.65,12.78Z"/><path class="cls-6" d="M14.1,12.38a2.83,2.83,0,1,1-2.73,2.83A2.78,2.78,0,0,1,14.1,12.38Z"/><path class="cls-6" d="M14,6.77l-.73,4.33a4.26,4.26,0,0,0-1.57-2.2A1.93,1.93,0,0,1,11,7l0,.06a2.93,2.93,0,0,0,0,.72,2.56,2.56,0,0,0,.64,1.43,5.62,5.62,0,0,1,1.16,1.95,11.81,11.81,0,0,1,.4,1.3A2.71,2.71,0,0,1,14,12.3V6.77Zm-1,5.75a2.75,2.75,0,0,0-.84.56l-4-4.15,3.43,2.62a3.78,3.78,0,0,0-.42-2,2.1,2.1,0,0,1-.38-2.2,2.83,2.83,0,0,0,0,.41,2.69,2.69,0,0,0,.69,1.52,5.51,5.51,0,0,1,1.12,1.89A10.45,10.45,0,0,1,13,12.52Zm3,.53,3.87-4-3.56,2.6A4.5,4.5,0,0,0,16.58,9a1.63,1.63,0,0,1,0-.73,2.53,2.53,0,0,0-.27,1.12,6,6,0,0,1-.46,2.24,9.7,9.7,0,0,1-.48,1,2.53,2.53,0,0,1,.6.43Zm-.73-.5a2.77,2.77,0,0,0-1.11-.25V6.51l.69,4.23a3.47,3.47,0,0,0,.93-1.63,2,2,0,0,1,1.55-2,2.9,2.9,0,0,0-.63.67,2.74,2.74,0,0,0-.51,1.59,5.89,5.89,0,0,1-.45,2.17c-.15.36-.31.71-.47,1Zm1.65,2.5a3.13,3.13,0,0,0-.15-.81,9,9,0,0,0,.9-.33,5.55,5.55,0,0,0,1.86-1.25,2.42,2.42,0,0,1,1.35-.7l.32,0A1.64,1.64,0,0,0,20,12.7a4.31,4.31,0,0,1-1.84,1.64l4,.71Zm-.2-1a3.11,3.11,0,0,0-.61-.94l3.77-3.9-2.29,3.43a3.13,3.13,0,0,0,1.7-.49,1.94,1.94,0,0,1,2.23-.44,3.71,3.71,0,0,0-.66,0,2.6,2.6,0,0,0-1.44.76,5.31,5.31,0,0,1-1.8,1.2,8.53,8.53,0,0,1-.9.34ZM8.55,9.55l3.54,3.64a2.83,2.83,0,0,0-.57.89,10.78,10.78,0,0,0-1-.63,5.47,5.47,0,0,0-2.11-.65A2.44,2.44,0,0,1,7,12.19a2.8,2.8,0,0,1-.51-.58.13.13,0,0,0,0-.06,1.83,1.83,0,0,0,1.76.91,3.9,3.9,0,0,1,2.66.54L8.55,9.55Zm2.91,4.67a3.3,3.3,0,0,0-.16.83H6l3.81-.65a3.31,3.31,0,0,0-1.53-1.08A2,2,0,0,1,6.57,12c.1.11.2.21.31.31A2.62,2.62,0,0,0,8.37,13a5.06,5.06,0,0,1,2.05.63,9.85,9.85,0,0,1,1,.63Zm-5.2,1,3.71.68a4.18,4.18,0,0,0-1.9,1.65,1.76,1.76,0,0,1-1.66.79,3.06,3.06,0,0,0,.68,0,2.37,2.37,0,0,0,1.4-.61,5.52,5.52,0,0,1,1.93-1.11,10.73,10.73,0,0,1,1.09-.31,2.87,2.87,0,0,1-.21-1.1h-5Zm5.31,1.25a2.79,2.79,0,0,0,.44.69L8.31,21l2.34-3.42A3.45,3.45,0,0,0,8.74,18a1.94,1.94,0,0,1-2.13.46,2.69,2.69,0,0,0,.49,0,2.46,2.46,0,0,0,1.49-.65,5.41,5.41,0,0,1,1.87-1.07,7.46,7.46,0,0,1,1.11-.31ZM8.42,21.08l3.7-3.82a2.74,2.74,0,0,0,.77.58c-.15.28-.31.58-.46.9A6.14,6.14,0,0,0,11.89,21a2.63,2.63,0,0,1-.53,1.48,2.79,2.79,0,0,1-.71.67h0a1.93,1.93,0,0,0,.85-1.84,5.82,5.82,0,0,1,.22-2.56L8.42,21.08ZM13,17.9a2.59,2.59,0,0,0,1,.22v5.15l-.59-3.6c-.43.44-1,1-1.09,1.52A2.08,2.08,0,0,1,11.07,23a3.72,3.72,0,0,0,.41-.46A2.74,2.74,0,0,0,12,21a5.81,5.81,0,0,1,.53-2.15A8.58,8.58,0,0,1,13,17.9Zm1.11,5.66.73-4.34a4.54,4.54,0,0,0,1.6,2.21,1.93,1.93,0,0,1,.66,1.92l.05-.07a3.17,3.17,0,0,0,0-.87A2.54,2.54,0,0,0,16.53,21,5.8,5.8,0,0,1,15.38,19c-.13-.37-.24-.74-.33-1.08a2.49,2.49,0,0,1-.91.17v5.44Zm1-5.67a2.81,2.81,0,0,0,.88-.6l3.88,4-3.34-2.49a4,4,0,0,0,.38,2,2.12,2.12,0,0,1,.37,2.16,4.84,4.84,0,0,0,0-.53,2.73,2.73,0,0,0-.69-1.51A5.82,5.82,0,0,1,15.52,19c-.13-.37-.24-.74-.33-1.08Zm4.5,2.9-3.52-3.62a3,3,0,0,0,.45-.67c.24.13.51.27.79.39a5.18,5.18,0,0,0,2.14.51,2.41,2.41,0,0,1,1.44.52,2.59,2.59,0,0,1,.61.63,1.79,1.79,0,0,0-1.78-.81,4.54,4.54,0,0,1-2.3-.14l2.17,3.19Zm-3-4.43a2.91,2.91,0,0,0,.23-1.15h5.17l-3.77.68c.41.41.94.95,1.38,1a2,2,0,0,1,1.8,1.29,3.76,3.76,0,0,0-.41-.38,2.62,2.62,0,0,0-1.53-.55,5.17,5.17,0,0,1-2.09-.49C17.19,16.63,16.92,16.49,16.68,16.36Z"/><path class="cls-5" d="M14.42,14.13c.5-.8,1.09-.62,1.7-.07a1.44,1.44,0,0,0-1.7.07Zm-.76,1.24a1.62,1.62,0,0,1-.6.62.87.87,0,0,1,1,0,.75.75,0,0,1,1,.06,2.14,2.14,0,0,1-.61-.64c.1.24.05.33-.15.29a.35.35,0,0,1-.28.14.28.28,0,0,1-.23-.14c-.23.09-.25-.05-.19-.29Zm.2,1.82a.59.59,0,0,1,.52,0,1.14,1.14,0,0,0-.52,0Zm-1-.72c.39-.08.9-.31,1.25-.14.37-.18.86.06,1.26.11a.87.87,0,0,0-.17-.16c.26.15.27.12.24.42a.35.35,0,0,0-.07-.25,4.52,4.52,0,0,1-1.27.45,4.52,4.52,0,0,1-1.24-.42.34.34,0,0,0-.05.22c0-.3,0-.27.24-.42a.69.69,0,0,0-.19.19Zm.41,0a2.07,2.07,0,0,0,.78.23,2.15,2.15,0,0,0,.89-.22,2.46,2.46,0,0,0-.86,0,2.39,2.39,0,0,0-.81,0Zm.49-2.06c-.41-.52-1-.41-1.39,0,.51.41.9.52,1.39,0Zm-.9-.26a.27.27,0,0,0-.1.24.29.29,0,0,0,.29.27.31.31,0,0,0,.32-.27.3.3,0,0,0-.15-.28.8.8,0,0,1,.48.3c-.45.45-.8.36-1.26,0a1.27,1.27,0,0,1,.42-.26Zm1-.06a1.44,1.44,0,0,0-1.7-.07c.61-.55,1.2-.73,1.7.07Zm.68.32c.49.52.88.41,1.38,0a.86.86,0,0,0-1.38,0Zm.9-.26a1.37,1.37,0,0,1,.42.26c-.46.36-.82.45-1.26,0a.8.8,0,0,1,.48-.3.33.33,0,0,0-.15.28.3.3,0,0,0,.3.31.31.31,0,0,0,.31-.31A.33.33,0,0,0,15.39,14.19Z"/></g></g><path class="cls-3" d="M21.6,44.72a6.84,6.84,0,0,1-2.47-.46L5.26,39A7,7,0,0,1,.75,32.47V12.29A7,7,0,0,1,5.26,5.76L19.13.5a7,7,0,0,1,4.95,0L38,5.76a7,7,0,0,1,4.51,6.53V32.47A7,7,0,0,1,38,39L24.08,44.26A6.85,6.85,0,0,1,21.6,44.72Zm0-43.07A5.41,5.41,0,0,0,19.7,2L5.83,7.27a5.38,5.38,0,0,0-3.47,5V32.47a5.4,5.4,0,0,0,3.47,5L19.7,42.76a5.32,5.32,0,0,0,3.81,0L37.38,37.5a5.4,5.4,0,0,0,3.47-5V12.29a5.38,5.38,0,0,0-3.47-5L23.51,2A5.43,5.43,0,0,0,21.6,1.65Z"/></g></g></svg>