<svg xmlns="http://www.w3.org/2000/svg" viewBox="0 0 44.11 24.98"><defs><style>.cls-1{fill:#239f40;}.cls-2{fill:#fedf00;}.cls-3{fill:#002776;}.cls-4{fill:#fff;}</style></defs><title>brazil</title><g id="Layer_2" data-name="Layer 2"><g id="OBJECTS"><rect class="cls-1" width="44.11" height="24.98"/><polygon class="cls-2" points="22.06 22.4 5.77 12.49 22.06 2.58 38.35 12.49 22.06 22.4"/><path class="cls-3" d="M28.3,12.49a6.24,6.24,0,1,1-6.24-6.24A6.25,6.25,0,0,1,28.3,12.49Z"/><path class="cls-4" d="M16.34,10a5.86,5.86,0,0,0-.47,1.71A15.23,15.23,0,0,1,28,14.54a6.18,6.18,0,0,0,.34-1.73A18.06,18.06,0,0,0,16.34,10Z"/><path class="cls-1" d="M16.24,10.82s0,0,0,0c0-.27,0-.4.26-.43s.33.07.36.34v0c0,.27-.06.4-.26.42S16.28,11.09,16.24,10.82Zm.35.24c.13,0,.17-.11.15-.31,0,0,0,0,0,0,0-.21-.09-.29-.23-.27h0c-.14,0-.18.12-.15.32,0,0,0,0,0,0,0,.2.1.28.23.26Z"/><path class="cls-1" d="M17.25,11.07h-.12c0-.32-.05-.48-.08-.79l.26,0c.13,0,.29,0,.3.21v0a.2.2,0,0,1-.12.22c.06.13.1.19.16.32h-.12l-.15-.3-.16,0C17.23,10.88,17.23,10.94,17.25,11.07Zm.1-.42c.07,0,.16,0,.15-.15h0a.14.14,0,0,0-.18-.13h-.14c0,.12,0,.18,0,.29Z"/><path class="cls-1" d="M18.12,11h-.23l-.05-.79h.25c.23,0,.36.09.36.37v0C18.46,10.89,18.34,11,18.12,11Zm0-.09c.16,0,.23-.09.22-.29v0c0-.2-.08-.28-.24-.28H18c0,.24,0,.36,0,.6Z"/><path class="cls-1" d="M19.2,10.2v.1h-.39v.25h.32v.09h-.32v.26h.37V11h-.49V10.2Z"/><path class="cls-1" d="M19.83,11h-.11l-.18-.62a1,1,0,0,0,0,.17c0,.17,0,.26,0,.44H19.4c0-.31,0-.47,0-.79h.17c.08.24.11.37.18.62.1-.24.16-.36.26-.59h.17c0,.31,0,.47-.07.79H20c0-.18,0-.26,0-.44a1,1,0,0,1,0-.17Z"/><path class="cls-1" d="M21.31,10.4v.09l-.39-.06c0,.1,0,.15,0,.25l.32,0s0,.06,0,.1l-.32-.05,0,.26.37.05s0,.06,0,.1l-.48-.07.1-.78A4.29,4.29,0,0,1,21.31,10.4Z"/><path class="cls-1" d="M21.83,11.29l-.11,0,.15-.78.26.06c.13,0,.26.09.22.28v0c-.05.19-.2.19-.32.17l-.14,0C21.87,11.11,21.86,11.17,21.83,11.29Zm.22-.36c.07,0,.16,0,.18-.11h0a.14.14,0,0,0-.13-.17l-.14,0c0,.11,0,.17-.06.29Z"/><path class="cls-1" d="M22.55,11.45l-.11,0c.07-.31.11-.46.19-.77l.25.06c.13,0,.26.11.21.3v0a.19.19,0,0,1-.19.16l.05.36-.12,0c0-.14,0-.2,0-.34l-.16,0Zm.23-.35A.13.13,0,0,0,23,11h0a.14.14,0,0,0-.11-.18l-.14,0c0,.11,0,.17-.08.29Z"/><path class="cls-1" d="M23.24,11.25v0c.08-.26.21-.34.41-.28s.26.21.18.47c0,0,0,0,0,0-.09.25-.21.33-.4.27S23.16,11.52,23.24,11.25Zm.21.37c.12,0,.2,0,.26-.22v0c.07-.19,0-.3-.09-.34h0c-.13,0-.21,0-.27.23a.08.08,0,0,1,0,0c-.06.19,0,.29.09.33Z"/><path class="cls-1" d="M24,11.51s0,0,0,0c.09-.26.23-.33.43-.26a.25.25,0,0,1,.17.36,0,0,0,0,1,0,0l-.11,0c.06-.14,0-.22-.07-.26h0c-.13-.05-.22,0-.29.21,0,0,0,0,0,0-.07.18-.05.29.09.34h0a.23.23,0,0,0,.16,0l.07-.17-.13,0a.47.47,0,0,0,0-.09l.24.09-.12.3a.39.39,0,0,1-.28,0C24,11.91,23.94,11.76,24,11.51Z"/><path class="cls-1" d="M24.78,12.2l-.1,0,.3-.74.24.1c.12.06.24.15.16.33v0a.21.21,0,0,1-.22.13c0,.15,0,.22,0,.36l-.11,0c0-.13,0-.2,0-.33l-.15-.07C24.85,12,24.83,12.09,24.78,12.2Zm.29-.32a.13.13,0,0,0,.2-.06h0a.14.14,0,0,0-.08-.2l-.14-.06-.11.28Z"/><path class="cls-1" d="M26.16,12l0,.09-.35-.17a1.51,1.51,0,0,0-.11.22l.29.14a.36.36,0,0,1,0,.09l-.29-.15-.11.24.33.17,0,.08-.44-.21c.14-.29.21-.43.34-.72Z"/><path class="cls-1" d="M26.25,12.26h0c.06-.12.2-.15.36-.06s.21.22.12.37v0l-.1-.06a.16.16,0,0,0-.05-.25h0a.13.13,0,0,0-.2,0h0c0,.07,0,.12.1.21s.19.21.13.32h0c-.07.13-.2.15-.36.07s-.21-.22-.13-.37h0l.11.05a.16.16,0,0,0,.06.24h0a.14.14,0,0,0,.21,0h0c0-.08,0-.14-.1-.22S26.19,12.36,26.25,12.26Z"/><path class="cls-1" d="M26.94,12.64h0c.06-.12.21-.14.36-.05s.2.24.11.38l0,0-.1-.06c.08-.12.07-.19,0-.25h0a.14.14,0,0,0-.2,0h0c0,.06,0,.12.09.21s.18.22.11.33h0c-.08.12-.21.13-.37,0a.25.25,0,0,1-.11-.38h0l.1.05a.16.16,0,0,0,.05.25h0a.14.14,0,0,0,.21,0h0c0-.06,0-.13-.09-.22S26.88,12.75,26.94,12.64Z"/><path class="cls-1" d="M27.51,13.23l0,0c.15-.23.3-.27.48-.15s.2.28,0,.5l0,0c-.16.23-.3.26-.47.14S27.36,13.46,27.51,13.23Zm.09.42c.11.07.21,0,.33-.14l0,0c.11-.16.12-.27,0-.35h0c-.12-.08-.21,0-.33.13l0,0c-.11.16-.12.27,0,.34Z"/><polygon class="cls-4" points="21.27 12.93 21.38 13.19 21.66 13.16 21.49 13.39 21.66 13.62 21.38 13.58 21.27 13.85 21.15 13.58 20.87 13.62 21.04 13.39 20.87 13.16 21.15 13.19 21.27 12.93"/><polygon class="cls-4" points="23.68 13.91 23.67 14.03 23.79 14.07 23.68 14.13 23.7 14.25 23.6 14.19 23.51 14.27 23.51 14.14 23.4 14.1 23.5 14.04 23.48 13.93 23.58 13.99 23.68 13.91"/><polygon class="cls-4" points="26.13 14.09 26.13 14.21 26.25 14.25 26.14 14.31 26.16 14.43 26.06 14.36 25.97 14.44 25.97 14.32 25.86 14.28 25.96 14.22 25.94 14.1 26.04 14.17 26.13 14.09"/><polygon class="cls-4" points="25.84 15.77 25.84 15.89 25.95 15.93 25.85 15.99 25.87 16.11 25.77 16.05 25.68 16.13 25.68 16.01 25.57 15.97 25.67 15.91 25.65 15.79 25.75 15.85 25.84 15.77"/><polygon class="cls-4" points="24.14 15.45 24.14 15.67 24.34 15.74 24.15 15.85 24.19 16.07 24 15.95 23.83 16.1 23.84 15.88 23.63 15.8 23.82 15.7 23.78 15.48 23.97 15.6 24.14 15.45"/><polygon class="cls-4" points="22.02 16.33 22.13 16.53 22.35 16.48 22.24 16.67 22.38 16.84 22.16 16.84 22.09 17.04 21.98 16.85 21.77 16.89 21.88 16.7 21.73 16.54 21.95 16.54 22.02 16.33"/><polygon class="cls-4" points="20.66 16.33 20.77 16.53 20.99 16.48 20.88 16.67 21.02 16.84 20.8 16.84 20.73 17.04 20.62 16.85 20.4 16.89 20.52 16.7 20.37 16.54 20.59 16.54 20.66 16.33"/><polygon class="cls-4" points="18.74 15 18.8 15.1 18.91 15.08 18.85 15.19 18.93 15.27 18.81 15.27 18.77 15.39 18.71 15.28 18.6 15.31 18.66 15.2 18.58 15.11 18.7 15.11 18.74 15"/></g></g></svg>