<svg xmlns="http://www.w3.org/2000/svg" viewBox="0 0 44.11 24.98"><defs><style>.cls-1{fill:#ef2525;}.cls-2{fill:#171796;}.cls-3{fill:#fff;}.cls-4{fill:#0093dd;}.cls-5{fill:#ffce00;}.cls-6{fill:#212121;}.cls-7{fill:#111;}.cls-8{fill:none;}</style></defs><title>croatia</title><g id="Layer_2" data-name="Layer 2"><g id="OBJECTS"><rect class="cls-1" width="44.11" height="24.98"/><rect class="cls-2" y="8.99" width="44.11" height="15.99"/><rect class="cls-3" y="7.95" width="44.11" height="9.07"/><rect class="cls-1" x="17.19" y="8.19" width="9.67" height="1.65"/><path class="cls-3" d="M17.19,9.48a11.57,11.57,0,0,1,9.68,0l1.2-2.61-.92-1.39L25.69,6,24.63,4.84l-1.34.78L22,4.64l-1.23,1-1.37-.76L18.39,6,16.93,5.5,16,6.87Z"/><path class="cls-4" d="M17.05,5.54l-.87,1.34,1.13,2.55a8.67,8.67,0,0,1,1.86-.68L18.46,6Z"/><polygon class="cls-5" points="17.31 6.36 17.49 6.51 17.72 6.43 17.68 6.67 17.87 6.82 17.64 6.91 17.6 7.15 17.41 6.99 17.18 7.08 17.23 6.84 17.04 6.68 17.27 6.6 17.31 6.36"/><path class="cls-5" d="M17.89,8.15A.73.73,0,0,1,17,7.79a.5.5,0,0,0,0,.16.74.74,0,0,0,1.43-.4l-.06-.15A.73.73,0,0,1,17.89,8.15Z"/><path class="cls-2" d="M25.6,6.05l-1-1.16-1.3.76h0L23,8.45a11.49,11.49,0,0,1,1.9.33l.7-2.73Z"/><path class="cls-5" d="M23.68,6.32s-.16-.09-.19,0a.54.54,0,0,0,.13.13s-.16.06-.13.15.19,0,.19,0a1.78,1.78,0,0,0-.06.35c0,.12-.08.1,0,.19a.56.56,0,0,1,0,.32l-.18.19.16.06s.12-.37.18-.37a.53.53,0,0,1-.17.47c.14.11.18,0,.18,0a1.26,1.26,0,0,1,.11-.33c.05,0,.3-.08.3,0v.14l-.26.19a.17.17,0,0,0,.18,0c0-.06.21-.2.3-.33.09.1.13.15,0,.24a.83.83,0,0,0-.18.22h.16a.55.55,0,0,1,.14-.23.41.41,0,0,0,.18-.26c0-.11,0-.24.08-.3A.53.53,0,0,0,25,7s.12-.07.11-.1-.18,0-.25,0a.4.4,0,0,1-.2,0c-.09,0-.16,0-.25,0s-.09-.07-.19-.07-.12,0-.18-.1a.81.81,0,0,1-.11-.21s.25,0,.26-.08a1.38,1.38,0,0,0-.31-.07A.41.41,0,0,1,23.68,6.32Z"/><path class="cls-1" d="M23.71,6.37a.39.39,0,0,1,.37-.1.76.76,0,0,1,.4.21.78.78,0,0,0,.41.09.45.45,0,0,1-.46,0A.87.87,0,0,0,24,6.37a.57.57,0,0,0-.21,0S23.72,6.42,23.71,6.37Z"/><path class="cls-1" d="M23.65,6.34a.4.4,0,0,1,.42-.18,2.72,2.72,0,0,0,.65.18.76.76,0,0,1-.48,0c-.14,0-.48,0-.51.1S23.65,6.34,23.65,6.34Z"/><path class="cls-4" d="M22,4.7l-1.19,1,.23,2.78a10.4,10.4,0,0,1,1.93,0l.25-2.8Z"/><path class="cls-5" d="M21.29,6.09l-.21,0,.11.19h-.11l.13.08-.09.15h.15l-.05.11h.07v.09l.12,0v.14l.11-.1,0,.1.07-.1.08.1V6.64l.11,0,0-.09.11,0-.07-.11.14,0-.09-.15L22,6.19h-.15S22,6,21.94,6l-.18.06Z"/><path class="cls-6" d="M21.7,6.79l-.09-.11-.07.11,0-.1-.11.1V6.63l-.12,0V6.59h-.07l0-.12H21.1l.09-.15L21,6.22h.12L21.06,6l.23,0,.47,0L21.93,6h0s0,.08-.08.19H22l-.15.14.1.16-.14,0,.07.11-.11,0,0,.1-.11,0Zm-.27-.19v.13l.09-.09,0,.09.05-.09.08.08v-.1l.1,0,0-.08.11,0-.08-.12.14,0-.08-.14L22,6.2h-.13c0-.07.09-.14.1-.17l-.17,0h0l-.47,0-.18,0,.1.18h-.09l.11.07-.09.14h.15l-.05.11h.06v.08Z"/><polygon class="cls-5" points="21.11 5.8 21.21 5.95 21.29 6.09 21.75 6.09 21.89 5.76 21.66 5.86 21.5 5.69 21.34 5.84 21.11 5.8"/><path class="cls-6" d="M21.76,6.1h-.47l-.21-.32.26,0,.16-.16.16.18.26-.11Zm-.46,0h.45l.12-.28-.22.09-.15-.17-.15.15-.21,0Z"/><line class="cls-5" x1="21.81" y1="5.95" x2="21.21" y2="5.95"/><rect class="cls-6" x="21.21" y="5.93" width="0.61" height="0.03"/><path class="cls-5" d="M21.58,6.27a.14.14,0,0,1,.14-.11C21.65,6.29,21.58,6.27,21.58,6.27Z"/><path class="cls-6" d="M21.59,6.28h0v0a.16.16,0,0,1,.16-.11h0v0C21.67,6.27,21.61,6.28,21.59,6.28Zm.11-.1a.12.12,0,0,0-.11.07S21.65,6.24,21.7,6.18Z"/><path class="cls-5" d="M21.49,6.27a.14.14,0,0,0-.14-.11C21.42,6.29,21.49,6.27,21.49,6.27Z"/><path class="cls-6" d="M21.48,6.28h0a.17.17,0,0,1-.14-.11l0,0h0a.16.16,0,0,1,.16.11v0h0Zm-.11-.1a.14.14,0,0,0,.11.07A.12.12,0,0,0,21.37,6.18Z"/><path class="cls-5" d="M21.45,6.39s0,.06,0,.06.09,0,.1,0,0,0,0-.07"/><path class="cls-6" d="M21.52,6.5a.07.07,0,0,1-.06,0l0,0a.12.12,0,0,1,0-.05h0v0a0,0,0,0,0,0,0h0a.09.09,0,0,0,.06,0l0,0h0s0,0,0,0,0,0,0,0v0a.06.06,0,0,1,0,.06s0,0,0,0l0,0Z"/><path class="cls-5" d="M21.41,6.47s.1.23.22,0"/><path class="cls-6" d="M21.52,6.58h0c-.06,0-.11-.1-.11-.1h0s0,.09.1.09.07,0,.1-.09h0C21.6,6.55,21.56,6.58,21.52,6.58Z"/><line class="cls-5" x1="21.51" y1="6.48" x2="21.51" y2="6.57"/><rect class="cls-6" x="21.5" y="6.48" width="0.03" height="0.09"/><path class="cls-5" d="M22.34,6.09l-.21,0,.11.19h-.11l.13.08-.09.15h.15l-.05.11h.07v.09l.12,0v.14l.11-.1,0,.1.07-.1.08.1V6.64l.11,0,0-.09.11,0-.07-.11.13,0-.08-.15L23,6.19h-.15S23,6,23,6l-.17.06Z"/><path class="cls-6" d="M22.75,6.79l-.09-.11-.07.11,0-.1-.11.1V6.63l-.12,0V6.59h-.08l.05-.12h-.15l.09-.15-.15-.1h.12L22.11,6l.23,0,.46,0L23,6h0s0,.08-.08.19h.15l-.13.14.09.16-.14,0,.07.11-.11,0,0,.1-.11,0Zm-.27-.19v.13l.09-.09,0,.09,0-.09.08.08v-.1l.1,0,0-.08.11,0-.08-.12.14,0-.08-.14L23,6.2h-.13c0-.07.09-.14.1-.17l-.17,0h0l-.47,0-.19,0,.11.18h-.09l.11.07-.08.14h.14l-.05.11h.06v.08Z"/><polygon class="cls-5" points="22.16 5.8 22.26 5.95 22.34 6.09 22.8 6.09 22.94 5.76 22.7 5.86 22.55 5.69 22.39 5.84 22.16 5.8"/><path class="cls-6" d="M22.81,6.1h-.48l-.2-.32.26,0,.16-.16.16.18L23,5.74Zm-.46,0h.44l.13-.28-.22.09-.15-.17-.15.15-.21,0Z"/><line class="cls-5" x1="22.86" y1="5.95" x2="22.26" y2="5.95"/><rect class="cls-6" x="22.26" y="5.93" width="0.61" height="0.03"/><path class="cls-5" d="M22.62,6.27a.15.15,0,0,1,.15-.11C22.7,6.29,22.62,6.27,22.62,6.27Z"/><path class="cls-6" d="M22.64,6.28h0v0s0-.1.16-.11h0v0C22.72,6.27,22.66,6.28,22.64,6.28Zm.11-.1a.12.12,0,0,0-.11.07S22.7,6.24,22.75,6.18Z"/><path class="cls-5" d="M22.54,6.27a.14.14,0,0,0-.14-.11C22.47,6.29,22.54,6.27,22.54,6.27Z"/><path class="cls-6" d="M22.53,6.28h0a.19.19,0,0,1-.15-.11v0h0c.14,0,.15.11.15.11v0h0Zm-.11-.1a.14.14,0,0,0,.11.07A.14.14,0,0,0,22.42,6.18Z"/><path class="cls-5" d="M22.5,6.39s0,.06,0,.06.09,0,.1,0,0,0,0-.07"/><path class="cls-6" d="M22.57,6.5a.07.07,0,0,1-.06,0,.05.05,0,0,1,0,0s0-.05,0-.05h0a0,0,0,0,0,0,0s0,0,0,0h0l.06,0,0,0h0a0,0,0,0,0,0,0s0,0,0,0v0a.06.06,0,0,1,0,.06s0,0,0,0a.08.08,0,0,1,0,0Z"/><path class="cls-5" d="M22.46,6.47s.09.23.22,0"/><path class="cls-6" d="M22.57,6.58h0c-.07,0-.11-.1-.11-.1h0s0,.09.1.09.06,0,.1-.09h0C22.65,6.55,22.61,6.58,22.57,6.58Z"/><line class="cls-5" x1="22.56" y1="6.48" x2="22.56" y2="6.57"/><rect class="cls-6" x="22.55" y="6.48" width="0.03" height="0.09"/><path class="cls-5" d="M21.81,7.3l-.21,0,.11.18H21.6l.13.09-.09.14h.15l-.05.12h.07v.08l.12,0V8L22,7.88l0,.09.06-.1.09.1V7.85l.11,0,0-.09.11,0-.07-.11.13,0-.08-.15.13-.12h-.15s.12-.17.1-.19l-.18,0Z"/><path class="cls-6" d="M22.22,8l-.09-.12L22.06,8l0-.1-.11.1V7.85l-.12,0V7.8h-.08l.05-.11h-.15l.09-.16-.15-.1h.13l-.12-.19.24,0,.47,0,.17-.06h0s0,.08-.08.19h.16l-.14.14.09.16-.14,0,.07.1-.11,0,0,.09-.11,0ZM22,7.81v.13L22,7.85l0,.09.05-.09.08.09V7.83l.1,0,0-.08.09,0-.07-.12.14,0-.08-.13.12-.11h-.15l0,0a1.19,1.19,0,0,0,.1-.17l-.17,0h0l-.47,0-.19,0,.11.18h-.09l.11.06-.08.14h.14l0,.11h.06v.08Z"/><polygon class="cls-5" points="21.63 7.02 21.73 7.17 21.81 7.3 22.27 7.3 22.41 6.98 22.18 7.08 22.02 6.9 21.86 7.06 21.63 7.02"/><path class="cls-6" d="M22.28,7.31H21.8L21.6,7l.26,0L22,6.88l.16.18L22.44,7Zm-.46,0h.45L22.39,7l-.22.09L22,6.92l-.15.15-.21,0Z"/><line class="cls-5" x1="22.33" y1="7.16" x2="21.73" y2="7.16"/><rect class="cls-6" x="21.73" y="7.15" width="0.61" height="0.03"/><path class="cls-5" d="M22.1,7.48s0-.1.14-.1C22.17,7.5,22.1,7.48,22.1,7.48Z"/><path class="cls-6" d="M22.11,7.49h0a.16.16,0,0,1,.16-.12h0v0C22.19,7.48,22.13,7.49,22.11,7.49Zm.11-.1a.13.13,0,0,0-.11.08S22.17,7.45,22.22,7.39Z"/><path class="cls-5" d="M22,7.48s0-.1-.14-.1C21.94,7.5,22,7.48,22,7.48Z"/><path class="cls-6" d="M22,7.49h0a.17.17,0,0,1-.14-.11l0,0h0a.16.16,0,0,1,.16.12h0Zm-.11-.1a.16.16,0,0,0,.11.08A.14.14,0,0,0,21.89,7.39Z"/><path class="cls-5" d="M22,7.61s0,0,0,.06.09,0,.1,0,0-.06,0-.07"/><path class="cls-6" d="M22,7.71a.09.09,0,0,1-.06,0l0,0a.13.13,0,0,1,0-.06l0,0s0,0,0,0h0s0,0,.06,0l0,0h0s0,0,0,0,0,0,0,0v0a0,0,0,0,1,0,0s0,0,0,0,0,0,0,0Z"/><path class="cls-5" d="M21.93,7.69s.1.22.22,0"/><path class="cls-6" d="M22,7.8h0c-.07,0-.11-.11-.11-.11h0s0,.09.1.09.07,0,.1-.09h0C22.12,7.76,22.08,7.8,22,7.8Z"/><line class="cls-5" x1="22.03" y1="7.7" x2="22.03" y2="7.79"/><rect class="cls-6" x="22.02" y="7.7" width="0.03" height="0.09"/><path class="cls-4" d="M27.93,6.87,27,5.51l-1.43.54-.7,2.73a12.42,12.42,0,0,1,1.85.65Z"/><path class="cls-3" d="M25.11,8a15.33,15.33,0,0,1,2,.69l.42-.91c-.69-.28-1.58-.57-2.16-.74Z"/><path class="cls-1" d="M25.13,7.92a9.49,9.49,0,0,1,2,.68c.1-.22.2-.43.28-.62a15.93,15.93,0,0,0-2.11-.75Z"/><polygon class="cls-5" points="26.86 6.04 26.91 6.27 27.14 6.35 26.96 6.51 27.02 6.75 26.79 6.67 26.61 6.84 26.55 6.6 26.32 6.53 26.5 6.36 26.45 6.13 26.68 6.2 26.86 6.04"/><path class="cls-7" d="M25.73,7.57s0-.05,0-.06-.08,0-.12-.06l-.08-.06,0,.08-.14,0s0,.09.18.1a.19.19,0,0,1,.09.12h-.25a.08.08,0,0,0,.08.06.67.67,0,0,1,.2,0,.46.46,0,0,1,.19.1h-.19l0,.08A.62.62,0,0,0,26,8c.13,0,.1-.11.26,0s.09.13,0,.13a.34.34,0,0,0-.16,0l.1,0a.48.48,0,0,0,.27-.06,1.19,1.19,0,0,1,.27.14.08.08,0,0,1,0,.07s-.09,0-.09,0,0,.05.06.05.13-.07.13-.07l-.05-.14a.09.09,0,0,1-.07-.05.38.38,0,0,1,0-.12l.22.1c.08,0,.26,0,.23,0s-.17-.11-.35-.13-.2-.11-.28-.12l-.37,0C26,7.72,25.79,7.55,25.73,7.57Z"/><path class="cls-2" d="M20.84,5.67l-1.33-.75-1,1.13h0l.71,2.71a10.44,10.44,0,0,1,1.91-.31l-.23-2.78Z"/><path class="cls-1" d="M20.86,5.71a16,16,0,0,0-2.38.41h0l.17.65,0,0a9.91,9.91,0,0,1,2.23-.43Z"/><path class="cls-1" d="M19,8.1a9.8,9.8,0,0,1,2-.37L21,7.05a16.21,16.21,0,0,0-2.14.37Z"/><path class="cls-3" d="M17.05,9.5v5.84a5,5,0,0,0,10,0V9.5Z"/><rect class="cls-8" x="22.96" y="11.84" width="1.92" height="2.08"/><rect class="cls-8" x="19.2" y="11.84" width="1.92" height="2.08"/><rect class="cls-8" x="19.2" y="15.92" width="1.92" height="2.08"/><rect class="cls-8" x="22.96" y="15.92" width="1.92" height="2.08"/><rect class="cls-1" x="17.35" y="11.84" width="1.85" height="2.08"/><rect class="cls-1" x="21.12" y="15.92" width="1.85" height="2.08"/><rect class="cls-1" x="21.12" y="11.84" width="1.85" height="2.08"/><rect class="cls-1" x="24.88" y="11.84" width="1.85" height="2.08"/><rect class="cls-1" x="19.2" y="9.84" width="1.92" height="2"/><rect class="cls-1" x="22.96" y="9.84" width="1.92" height="2"/><rect class="cls-1" x="22.96" y="13.92" width="1.92" height="2"/><rect class="cls-1" x="19.2" y="13.92" width="1.92" height="2"/><rect class="cls-3" x="21.12" y="13.92" width="1.85" height="2"/><path class="cls-1" d="M18.2,18h1V15.92H17.39A4.57,4.57,0,0,0,18.2,18Z"/><path class="cls-1" d="M19.2,19a4.67,4.67,0,0,0,1.92.87V18H19.2Z"/><path class="cls-1" d="M23,19.91A4.61,4.61,0,0,0,24.88,19V18H23Z"/><path class="cls-1" d="M26.69,15.92H24.88V18h1A4.68,4.68,0,0,0,26.69,15.92Z"/></g></g></svg>