<svg xmlns="http://www.w3.org/2000/svg" viewBox="0 0 44.11 24.98"><defs><style>.cls-1{fill:#ce1127;}.cls-2{fill:#fff;}.cls-3{fill:#bf9300;}</style></defs><title>egypt</title><g id="Layer_2" data-name="Layer 2"><g id="OBJECTS"><rect class="cls-1" width="44.11" height="24.98"/><rect y="16.43" width="44.11" height="8.55"/><rect class="cls-2" y="7.88" width="44.11" height="8.55"/><path class="cls-3" d="M22.73,10.29l-.1,0a2.2,2.2,0,0,1-.43-.18.52.52,0,0,1-.15.17l0,0-.11-.19a.57.57,0,0,1-.4.18h-.05v0a.54.54,0,0,1,.06-.11,1.18,1.18,0,0,1-.35.05h-.07l.05-.05a1.26,1.26,0,0,0,.51-.83V8.78s0-.06,0-.08a.61.61,0,0,0-.29-.15.06.06,0,0,0-.05,0l0,.08V8.56a.36.36,0,0,1,.06-.27q.13-.15.45,0A.34.34,0,0,1,22,8.2a.63.63,0,0,1,.31.1.49.49,0,0,1,.27.42c0,.08,0,.2,0,.32a2,2,0,0,0,0,.46,4,4,0,0,0,.28.56l0,0h-.29l.05.09Zm-1-.33-.08.1-.08.13a.45.45,0,0,0,.34-.18l0,0,.13.21a.58.58,0,0,0,.13-.16l0,0,0,0a1.1,1.1,0,0,0,.35.15.2.2,0,0,1,0-.08l0-.08.07,0h.23a3.86,3.86,0,0,1-.26-.54,2.18,2.18,0,0,1,0-.47c0-.12,0-.24,0-.32a.44.44,0,0,0-.24-.37A.61.61,0,0,0,22,8.26a.28.28,0,0,0-.18.06h0q-.28-.12-.39,0a.4.4,0,0,0-.06.16h.05a.54.54,0,0,1,.35.21v.08c0,.12,0,.34,0,.49a1.3,1.3,0,0,1-.47.83,1.1,1.1,0,0,0,.33-.08Z"/><path class="cls-3" d="M22.46,8.49s-.31,0-.44.11c-.25-.23-.63-.35-.7-.19.05-.09.1-.28.48-.11C21.92,8.2,22.22,8.13,22.46,8.49Z"/><path class="cls-2" d="M21.93,8.36s.12-.08.16.08A.31.31,0,0,1,21.93,8.36Z"/><path class="cls-3" d="M21.61,10.09l0-.05c.26-.2.29-.89.29-.9h.06S21.89,9.87,21.61,10.09Z"/><path class="cls-3" d="M21.94,10l-.05,0a3.25,3.25,0,0,0,.1-.87h.06A3.11,3.11,0,0,1,21.94,10Z"/><path class="cls-3" d="M22.16,10c0-.14,0-.84,0-.87h.06s0,.72,0,.86Z"/><path class="cls-3" d="M22.53,10.09a2.28,2.28,0,0,1-.24-.94h.07a2.17,2.17,0,0,0,.22.92Z"/><path class="cls-3" d="M22.06,13.2h0a3.09,3.09,0,0,1-1.21-2.48v0h.05A2.09,2.09,0,0,0,22,10.31l0,0,0,0a3.2,3.2,0,0,0,1.2.38h0v0a3,3,0,0,1-1.22,2.47Zm-1.17-2.46a3,3,0,0,0,1.17,2.39,3,3,0,0,0,1.18-2.38,2.93,2.93,0,0,1-1.18-.38A2.19,2.19,0,0,1,20.89,10.74Z"/><path class="cls-3" d="M21.6,10.71a1.66,1.66,0,0,1-.6.11,2.66,2.66,0,0,0,.6,1.74Z"/><path class="cls-3" d="M22.53,12.56a2.56,2.56,0,0,0,.61-1.73,1.67,1.67,0,0,1-.61-.13Z"/><path class="cls-3" d="M22.06,13.05h0A2.79,2.79,0,0,1,21,10.82v0H21a1.88,1.88,0,0,0,1-.33h0a2.81,2.81,0,0,0,1.07.34h0v0A2.66,2.66,0,0,1,22.08,13Zm-1-2.2a2.62,2.62,0,0,0,1,2.12,2.63,2.63,0,0,0,1.05-2.11,2.66,2.66,0,0,1-1.05-.34A2,2,0,0,1,21,10.85Z"/><path class="cls-3" d="M25,14.87l-2.37-2.28.05,0,2.25,2.17c0-.59-.19-4.4-.22-4.64v0c0-.23,0-.36-.31-.45s-.47.05-.78.22l-.12.07a1,1,0,0,1-.64.14V10a.91.91,0,0,0,.6-.13l.12-.07c.32-.18.57-.32.83-.23s.31.26.35.5v0c0,.26.21,4.54.22,4.72Z"/><polygon class="cls-3" points="24.35 9.91 24.57 14.46 24.91 14.79 24.69 10.07 24.35 9.91"/><polygon class="cls-3" points="24.21 10.03 24.42 14.32 24.09 14.01 23.94 10.23 24.21 10.03"/><polygon class="cls-3" points="23.82 10.33 23.58 10.51 23.7 13.63 24 13.91 23.82 10.33"/><polygon class="cls-3" points="23.46 10.57 23.58 13.51 23.3 13.24 23.23 10.75 23.46 10.57"/><polygon class="cls-3" points="22.76 13.31 22.38 12.88 22.43 12.84 22.71 13.16 22.74 12.73 22.8 12.73 22.76 13.31"/><polygon class="cls-3" points="22.72 14 22.14 13.09 22.19 13.06 22.68 13.83 22.75 13.37 23.02 13.66 23.02 13.26 23.4 13.6 23.35 13.32 23.41 13.31 23.5 13.77 23.08 13.39 23.08 13.82 22.79 13.5 22.72 14"/><path class="cls-3" d="M22.93,14.41l0,0a3.1,3.1,0,0,1-.4-.73l.06,0a3.28,3.28,0,0,0,.35.66,2.6,2.6,0,0,0,.08-.37v-.07l.27.32.08-.44.21.2-.17-.42.06,0,.27.68-.33-.32-.09.45L23,14c0,.06,0,.17-.09.37Z"/><rect class="cls-3" x="22.98" y="14.22" width="0.06" height="0.45" transform="translate(-3.32 7.76) rotate(-17.88)"/><polygon class="cls-3" points="23.42 14.61 23.21 14.19 23.26 14.16 23.48 14.58 23.42 14.61"/><rect class="cls-3" x="23.57" y="13.91" width="0.06" height="0.64" transform="matrix(0.96, -0.29, 0.29, 0.96, -3.12, 7.5)"/><path class="cls-3" d="M23.07,15.13a.18.18,0,0,1-.12-.05.69.69,0,0,1-.07-.43v0h0s.09,0,.41-.05a2.79,2.79,0,0,1,.63-.09.43.43,0,0,1,.24,0,.4.4,0,0,1,.05.35V15l0,0a.37.37,0,0,0-.17-.1H24a5.33,5.33,0,0,0-.67.1.4.4,0,0,1-.06.16.24.24,0,0,1-.17.07Zm-.14-.44c0,.1,0,.27.07.34a.08.08,0,0,0,.07,0h0A.15.15,0,0,0,23.2,15a.24.24,0,0,0,.05-.14v0h0a6.41,6.41,0,0,1,.71-.11H24a.59.59,0,0,1,.16.08.3.3,0,0,0,0-.23.38.38,0,0,0-.2,0,2.64,2.64,0,0,0-.61.09,1.34,1.34,0,0,1-.35.06Z"/><path class="cls-3" d="M22.15,15.18s-.06,0-.08-.08a.44.44,0,0,1,.11-.43.79.79,0,0,1,.38-.06,3.4,3.4,0,0,1,.35,0H23l0,0A.54.54,0,0,0,23,15L23,15l0,0a3,3,0,0,1-.59,0c0,.06-.08.2-.18.21Zm.41-.51c-.24,0-.32,0-.34.05a.39.39,0,0,0-.09.37s0,0,0,0v0c.07,0,.13-.14.14-.19v0h0a3.67,3.67,0,0,0,.55,0,1.13,1.13,0,0,1,0-.26Z"/><path class="cls-3" d="M22.06,13.17v1.49s.13,0,.15-.27a9.59,9.59,0,0,0,0-1,10.6,10.6,0,0,0,.28,1.11c.08.1.27,0,.22-.15s-.5-1.32-.5-1.32Z"/><path class="cls-3" d="M22.23,15.92h-.17v-.06h.08c.32,0,.77,0,1.23,0s.82-.14.87-.3a1,1,0,0,1,.17-.32l.05-.08a.7.7,0,0,1-.28-.24l.05,0c0,.06.18.22.28.22h.06l0,0-.08.11a.83.83,0,0,0-.16.31c-.07.19-.36.3-.92.34S22.55,15.92,22.23,15.92Z"/><path class="cls-3" d="M19.17,14.87v-.08c0-.18.19-4.46.23-4.72v0c0-.24.06-.4.35-.5s.52.05.83.23l.12.07a.92.92,0,0,0,.62.12l0,.06a1,1,0,0,1-.67-.13l-.11-.07c-.31-.17-.55-.3-.79-.22s-.27.22-.31.45v0c0,.24-.2,4.05-.22,4.64l2.25-2.17,0,0Z"/><polygon class="cls-3" points="19.77 9.91 19.55 14.46 19.2 14.79 19.43 10.07 19.77 9.91"/><polygon class="cls-3" points="19.9 10.03 19.69 14.32 20.02 14.01 20.18 10.23 19.9 10.03"/><polygon class="cls-3" points="20.29 10.33 20.53 10.51 20.41 13.63 20.12 13.91 20.29 10.33"/><polygon class="cls-3" points="20.66 10.57 20.53 13.51 20.81 13.24 20.88 10.75 20.66 10.57"/><polygon class="cls-3" points="21.36 13.31 21.31 12.73 21.37 12.73 21.41 13.16 21.69 12.84 21.73 12.88 21.36 13.31"/><polygon class="cls-3" points="21.39 14 21.32 13.5 21.03 13.82 21.03 13.39 20.62 13.77 20.71 13.31 20.77 13.32 20.71 13.6 21.09 13.26 21.09 13.66 21.36 13.37 21.43 13.83 21.92 13.06 21.97 13.09 21.39 14"/><path class="cls-3" d="M21.19,14.41l0-.06c-.05-.2-.07-.31-.09-.37l-.26.31-.09-.45-.33.32.27-.68.06,0-.17.42.21-.2.09.44.26-.33v.08l.09.37a3,3,0,0,0,.34-.66l.06,0a3.32,3.32,0,0,1-.39.73Z"/><polygon class="cls-3" points="21.07 14.67 21.01 14.65 21.14 14.22 21.2 14.24 21.07 14.67"/><rect class="cls-3" x="20.54" y="14.36" width="0.47" height="0.06" transform="translate(-1.47 26.38) rotate(-63.05)"/><polygon class="cls-3" points="20.45 14.54 20.39 14.53 20.58 13.91 20.64 13.93 20.45 14.54"/><path class="cls-3" d="M21,15.13h0a.22.22,0,0,1-.17-.07.23.23,0,0,1-.06-.16,5.23,5.23,0,0,0-.68-.1h0a.44.44,0,0,0-.18.1l0,0v-.06s-.05-.24.06-.35a.39.39,0,0,1,.23,0,2.71,2.71,0,0,1,.63.09c.33.09.42.05.42.05h0v0a.72.72,0,0,1-.08.43A.17.17,0,0,1,21,15.13Zm-.91-.39a6.29,6.29,0,0,1,.72.11h0v0a.2.2,0,0,0,0,.14.17.17,0,0,0,.13.05h0a.09.09,0,0,0,.08,0,.55.55,0,0,0,.06-.34h-.06a1.34,1.34,0,0,1-.35-.06,2.64,2.64,0,0,0-.62-.09.3.3,0,0,0-.19,0,.27.27,0,0,0-.05.23.68.68,0,0,1,.17-.08Z"/><path class="cls-3" d="M22,15.18h0c-.1,0-.17-.15-.19-.21a3.37,3.37,0,0,1-.46,0h-.15V15s0-.19,0-.29l0,0h.05a3.33,3.33,0,0,1,.34,0,.76.76,0,0,1,.38.06.47.47,0,0,1,.12.43C22,15.17,22,15.18,22,15.18Zm-.15-.28v0c0,.05.07.19.14.19v0s0,0,0,0a.42.42,0,0,0-.09-.37.7.7,0,0,0-.35-.05h-.31a.57.57,0,0,1,0,.26,4,4,0,0,0,.56,0Z"/><path class="cls-3" d="M22.06,13.17v1.49s-.13,0-.15-.27a7.24,7.24,0,0,1,0-1,8.79,8.79,0,0,1-.29,1.11c-.08.1-.26,0-.21-.15s.5-1.32.5-1.32Z"/><path class="cls-3" d="M21.88,15.92c-.31,0-.72,0-1.14,0s-.86-.15-.92-.34a1.29,1.29,0,0,0-.16-.31l-.09-.11,0,0h.06c.11,0,.24-.16.28-.22l.05,0a.63.63,0,0,1-.28.24l.06.08a1.2,1.2,0,0,1,.17.32c.05.16.33.26.86.3s.91,0,1.24,0h.08v.06h-.18Z"/><path class="cls-3" d="M23,15.68v0a.07.07,0,0,0,.06,0s0,0,0-.05h0c-.06,0-.08,0-.1,0a.11.11,0,0,1,0,0c0-.05,0-.1.09-.11a0,0,0,0,1,0,0,.15.15,0,0,1,0,.12l.08,0a.29.29,0,0,1,0-.21.08.08,0,0,1,.09,0,.15.15,0,0,1,.1.15v0h0l.32,0h0c-.05,0-.06-.11-.06-.18s0-.06,0-.08v0s-.08,0-.11.06l0,0a.24.24,0,0,1,.16-.07.06.06,0,0,1,.05.05.15.15,0,0,1,0,.1c0,.06,0,.12,0,.14h.11l.19-.06-.17.11a1.5,1.5,0,0,1-.46.09.15.15,0,0,1-.08.14.11.11,0,0,1-.13,0l0,0-.1,0a.13.13,0,0,1,0,.06A.12.12,0,0,1,23,15.68Zm.28-.17h0s0,0,.07,0a.14.14,0,0,0,.05-.11v0A.31.31,0,0,1,23.26,15.51Zm-.28,0h.07s0-.07,0-.08a.1.1,0,0,0-.05.07Zm.28-.21h0a.26.26,0,0,0,0,.18c.06,0,.1-.06.1-.09s0-.08-.06-.09Z"/><path class="cls-3" d="M23.58,15.5a.09.09,0,0,1-.1-.09.1.1,0,0,1,.1-.09.09.09,0,0,1,0,.18Zm0-.13a0,0,0,0,0,0,0,0,0,0,0,0,0,0,0,0,0,1,0,0-.08Z"/><path class="cls-3" d="M22.81,15.71l0,0a.17.17,0,0,0,.06-.12.13.13,0,0,0-.06-.1l0,0a.25.25,0,0,1,.08.14A.21.21,0,0,1,22.81,15.71Z"/><path class="cls-3" d="M22.62,15.63h-.05l-.05,0h0a.16.16,0,0,1-.15,0,.06.06,0,0,1,0,0s0-.06.07-.08l0,0a.54.54,0,0,0,0-.19h.05a2.29,2.29,0,0,0,0,.31l0,0h.07a1.06,1.06,0,0,0,0-.15h.05c0,.07,0,.16,0,.19A.08.08,0,0,1,22.62,15.63Zm-.13-.15,0,0-.05.05s.08,0,.09,0Z"/><path class="cls-3" d="M22.21,15.65l-.14,0v-.05h0c0-.07.07-.18.16-.16a.09.09,0,0,1,.07.09c0,.05,0,.12-.08.13Zm0-.05h.07a.09.09,0,0,0,.05-.08s0,0,0,0S22.19,15.56,22.18,15.6Z"/><path class="cls-3" d="M22,15.72h0a.1.1,0,0,1-.08-.1h-.17a.09.09,0,0,1-.06,0h-.08v0h.07l0-.06,0,0v0H22v0c0,.05,0,.06,0,.07h0a.38.38,0,0,0,0-.15h-.27l0,0a.13.13,0,0,1,0-.13l.05,0a.24.24,0,0,0,0,.08H22a.06.06,0,0,1,0,0,.34.34,0,0,1,0,.2A.06.06,0,0,1,22,15.72Z"/><path class="cls-3" d="M21.48,15.76h0l0-.05a0,0,0,0,0,0,0,.16.16,0,0,0,.09-.09.12.12,0,0,0,0-.12l0-.05a.17.17,0,0,1,.06.19.28.28,0,0,1-.12.12Z"/><polygon class="cls-3" points="21.45 15.59 21.39 15.59 21.4 15.18 21.45 15.18 21.45 15.59"/><path class="cls-3" d="M21.27,15.64a.17.17,0,0,1-.13-.09l0,0h-.28v0h.23a.66.66,0,0,0-.12-.09l0,0,0,0s.12-.1.2-.07a.13.13,0,0,1,.05.15.12.12,0,0,1,0,.08l0,0c0,.06.07.07.09.07s0,0,0,0v-.37h.05v.37c0,.07,0,.09-.05.09ZM21,15.35l.11.1a.09.09,0,0,0,0-.06s0-.07,0-.08S21.06,15.33,21,15.35Z"/><path class="cls-3" d="M20.77,15.61l0,0a.14.14,0,0,0,.08-.07s0-.08,0-.1l0,0a.15.15,0,0,1,.06.15S20.83,15.58,20.77,15.61Z"/><path class="cls-3" d="M20.63,15.47l-.07,0h0v0l0,0a.11.11,0,0,1-.08,0h0a.22.22,0,0,1-.16,0l0,0c0-.07.05-.09.08-.1h0a.27.27,0,0,0,.06-.15.28.28,0,0,0,0-.05h.06a.11.11,0,0,0,0,.06.22.22,0,0,0,0,.1.15.15,0,0,0,0,.15s0,0,0,0,0,0,0-.07a.38.38,0,0,1,0-.08l.08-.2,0,.21s0,0,0,.08a.2.2,0,0,0,0,.1h0s.06-.08.06-.11h.06s0,.12-.09.15Zm-.25-.19h0l-.05,0c-.05,0-.05,0,0,0h0s.07,0,.11,0A.13.13,0,0,1,20.38,15.28Z"/><path class="cls-3" d="M23.8,15.53a.07.07,0,0,1-.07-.07.07.07,0,0,1,.07-.06.06.06,0,0,1,.06.06A.07.07,0,0,1,23.8,15.53Zm0-.08a0,0,0,0,0,0,0h0Z"/><path class="cls-3" d="M20.48,15.51a0,0,0,0,1-.06,0s0,0,0,0A0,0,0,0,1,20.48,15.51Z"/><path class="cls-3" d="M20.63,15.54s0,0,0,0,0,0,0,0a0,0,0,0,1,0,0A0,0,0,0,1,20.63,15.54Z"/><path class="cls-3" d="M20.36,15.06a0,0,0,0,1,0,0,0,0,0,1,1,0-.06A0,0,0,0,1,20.36,15.06Z"/><path class="cls-3" d="M22.6,15.68a0,0,0,0,1,0,0s0,0,0,0a0,0,0,0,1,0,0A0,0,0,0,1,22.6,15.68Z"/><path class="cls-3" d="M22.44,15.38a0,0,0,0,1,0,0,0,0,0,0,1,0,0s0,0,0,0A0,0,0,0,1,22.44,15.38Z"/><path class="cls-3" d="M22.44,15.27a0,0,0,0,1,0,0s0,0,0,0a0,0,0,0,1,.06,0Z"/><path class="cls-3" d="M22.68,15.68s0,0,0,0a0,0,0,0,1,0,0,0,0,0,0,1,0,0A0,0,0,0,1,22.68,15.68Z"/></g></g></svg>