<svg xmlns="http://www.w3.org/2000/svg" viewBox="0 0 44.11 24.98"><defs><style>.cls-1{fill:#fff;}.cls-2{fill:#0da948;}.cls-3{fill:#da0000;}</style></defs><title>iran</title><g id="Layer_2" data-name="Layer 2"><g id="OBJECTS"><rect class="cls-1" width="44.11" height="24.98"/><rect class="cls-2" width="44.11" height="8.12"/><rect class="cls-3" y="16.79" width="44.11" height="8.12"/><path class="cls-3" d="M23.27,10.24a2.35,2.35,0,0,1,.62,4.3,3.09,3.09,0,0,0,.53-2.5A2.58,2.58,0,0,0,23.27,10.24Z"/><path class="cls-3" d="M22.94,10.3a2.53,2.53,0,0,1,1,2.52,2.84,2.84,0,0,1-3.59,2.27,3,3,0,0,0,2.95-1.88A3.22,3.22,0,0,0,22.94,10.3Z"/><path class="cls-3" d="M20.66,10.24a2.36,2.36,0,0,0-.63,4.3,3.11,3.11,0,0,1-.52-2.5A2.58,2.58,0,0,1,20.66,10.24Z"/><path class="cls-3" d="M21,10.3a2.53,2.53,0,0,0-1,2.52,2.84,2.84,0,0,0,3.59,2.27,3,3,0,0,1-2.95-1.88A3.19,3.19,0,0,1,21,10.3Z"/><polygon class="cls-3" points="22 10.1 22.34 10.43 22.24 15.24 22 15.61 21.75 15.27 21.6 10.44 22 10.1"/><path class="cls-3" d="M21.22,9.53s.05.36.38.35.4-.22.4-.22a.38.38,0,0,0,.4.22.36.36,0,0,0,.34-.35.44.44,0,0,1-.33.63C22,10.22,22,10,22,10a.33.33,0,0,1-.37.22A.46.46,0,0,1,21.22,9.53Z"/><polygon class="cls-1" points="43.41 7.89 42.49 7.89 42.49 6.93 42.65 6.93 42.65 7.73 43.25 7.73 43.25 6.93 43.41 6.93 43.41 7.89"/><rect class="cls-1" x="42.88" y="6.93" width="0.16" height="0.88"/><polygon class="cls-1" points="42.26 7.89 41.72 7.89 41.72 7.34 42.57 7.34 42.57 7.5 41.87 7.5 41.87 7.73 42.26 7.73 42.26 7.89"/><rect class="cls-1" x="39.74" y="6.94" width="2.54" height="0.16"/><polygon class="cls-1" points="41.47 7.89 40.54 7.89 40.54 7.5 39.91 7.5 39.91 7.88 39.76 7.88 39.76 7.34 40.69 7.34 40.69 7.73 41.31 7.73 41.31 7.5 40.92 7.5 40.92 7.34 41.47 7.34 41.47 7.89"/><rect class="cls-1" x="40.13" y="7.72" width="0.18" height="0.18"/><polygon class="cls-1" points="39.51 7.89 38.59 7.89 38.59 6.93 38.75 6.93 38.75 7.73 39.35 7.73 39.35 6.93 39.51 6.93 39.51 7.89"/><rect class="cls-1" x="38.97" y="6.93" width="0.16" height="0.88"/><polygon class="cls-1" points="38.36 7.89 37.81 7.89 37.81 7.34 38.67 7.34 38.67 7.5 37.97 7.5 37.97 7.73 38.36 7.73 38.36 7.89"/><rect class="cls-1" x="35.84" y="6.94" width="2.53" height="0.16"/><polygon class="cls-1" points="37.57 7.89 36.63 7.89 36.63 7.5 36.01 7.5 36.01 7.88 35.85 7.88 35.85 7.34 36.79 7.34 36.79 7.73 37.41 7.73 37.41 7.5 37.01 7.5 37.01 7.34 37.57 7.34 37.57 7.89"/><rect class="cls-1" x="36.23" y="7.72" width="0.18" height="0.18"/><polygon class="cls-1" points="35.61 7.89 34.69 7.89 34.69 6.93 34.85 6.93 34.85 7.73 35.45 7.73 35.45 6.93 35.61 6.93 35.61 7.89"/><rect class="cls-1" x="35.07" y="6.93" width="0.16" height="0.88"/><polygon class="cls-1" points="34.45 7.89 33.91 7.89 33.91 7.34 34.77 7.34 34.77 7.5 34.06 7.5 34.06 7.73 34.45 7.73 34.45 7.89"/><rect class="cls-1" x="31.93" y="6.94" width="2.53" height="0.16"/><polygon class="cls-1" points="33.67 7.89 32.73 7.89 32.73 7.5 32.11 7.5 32.11 7.88 31.95 7.88 31.95 7.34 32.89 7.34 32.89 7.73 33.51 7.73 33.51 7.5 33.11 7.5 33.11 7.34 33.67 7.34 33.67 7.89"/><rect class="cls-1" x="32.32" y="7.72" width="0.18" height="0.18"/><polygon class="cls-1" points="31.7 7.89 30.78 7.89 30.78 6.93 30.94 6.93 30.94 7.73 31.55 7.73 31.55 6.93 31.7 6.93 31.7 7.89"/><rect class="cls-1" x="31.16" y="6.93" width="0.16" height="0.88"/><polygon class="cls-1" points="30.55 7.89 30 7.89 30 7.34 30.86 7.34 30.86 7.5 30.16 7.5 30.16 7.73 30.55 7.73 30.55 7.89"/><rect class="cls-1" x="28.03" y="6.94" width="2.54" height="0.16"/><polygon class="cls-1" points="29.76 7.89 28.83 7.89 28.83 7.5 28.2 7.5 28.2 7.88 28.05 7.88 28.05 7.34 28.98 7.34 28.98 7.73 29.61 7.73 29.61 7.5 29.21 7.5 29.21 7.34 29.76 7.34 29.76 7.89"/><rect class="cls-1" x="28.42" y="7.72" width="0.18" height="0.18"/><polygon class="cls-1" points="27.8 7.89 26.88 7.89 26.88 6.93 27.04 6.93 27.04 7.73 27.64 7.73 27.64 6.93 27.8 6.93 27.8 7.89"/><rect class="cls-1" x="27.26" y="6.93" width="0.16" height="0.88"/><polygon class="cls-1" points="26.65 7.89 26.1 7.89 26.1 7.34 26.96 7.34 26.96 7.5 26.26 7.5 26.26 7.73 26.65 7.73 26.65 7.89"/><rect class="cls-1" x="24.12" y="6.94" width="2.54" height="0.16"/><polygon class="cls-1" points="25.86 7.89 24.92 7.89 24.92 7.5 24.3 7.5 24.3 7.88 24.14 7.88 24.14 7.34 25.08 7.34 25.08 7.73 25.7 7.73 25.7 7.5 25.3 7.5 25.3 7.34 25.86 7.34 25.86 7.89"/><rect class="cls-1" x="24.52" y="7.72" width="0.18" height="0.18"/><polygon class="cls-1" points="23.89 7.89 22.98 7.89 22.98 6.93 23.14 6.93 23.14 7.73 23.74 7.73 23.74 6.93 23.89 6.93 23.89 7.89"/><rect class="cls-1" x="23.36" y="6.93" width="0.16" height="0.88"/><polygon class="cls-1" points="22.74 7.89 22.2 7.89 22.2 7.34 23.06 7.34 23.06 7.5 22.36 7.5 22.36 7.73 22.74 7.73 22.74 7.89"/><rect class="cls-1" x="20.22" y="6.94" width="2.53" height="0.16"/><polygon class="cls-1" points="21.96 7.89 21.02 7.89 21.02 7.5 20.4 7.5 20.4 7.88 20.24 7.88 20.24 7.34 21.18 7.34 21.18 7.73 21.8 7.73 21.8 7.5 21.4 7.5 21.4 7.34 21.96 7.34 21.96 7.89"/><rect class="cls-1" x="20.61" y="7.72" width="0.18" height="0.18"/><polygon class="cls-1" points="19.99 7.89 19.07 7.89 19.07 6.93 19.23 6.93 19.23 7.73 19.83 7.73 19.83 6.93 19.99 6.93 19.99 7.89"/><rect class="cls-1" x="19.45" y="6.93" width="0.16" height="0.88"/><polygon class="cls-1" points="18.84 7.89 18.3 7.89 18.3 7.34 19.15 7.34 19.15 7.5 18.45 7.5 18.45 7.73 18.84 7.73 18.84 7.89"/><rect class="cls-1" x="16.32" y="6.94" width="2.53" height="0.16"/><polygon class="cls-1" points="18.05 7.89 17.12 7.89 17.12 7.5 16.49 7.5 16.49 7.88 16.34 7.88 16.34 7.34 17.27 7.34 17.27 7.73 17.9 7.73 17.9 7.5 17.5 7.5 17.5 7.34 18.05 7.34 18.05 7.89"/><rect class="cls-1" x="16.71" y="7.72" width="0.18" height="0.18"/><polygon class="cls-1" points="16.09 7.89 15.17 7.89 15.17 6.93 15.33 6.93 15.33 7.73 15.93 7.73 15.93 6.93 16.09 6.93 16.09 7.89"/><rect class="cls-1" x="15.55" y="6.93" width="0.16" height="0.88"/><polygon class="cls-1" points="14.94 7.89 14.39 7.89 14.39 7.34 15.25 7.34 15.25 7.5 14.55 7.5 14.55 7.73 14.94 7.73 14.94 7.89"/><rect class="cls-1" x="12.41" y="6.94" width="2.54" height="0.16"/><polygon class="cls-1" points="14.15 7.89 13.21 7.89 13.21 7.5 12.59 7.5 12.59 7.88 12.43 7.88 12.43 7.34 13.37 7.34 13.37 7.73 13.99 7.73 13.99 7.5 13.59 7.5 13.59 7.34 14.15 7.34 14.15 7.89"/><rect class="cls-1" x="12.81" y="7.72" width="0.18" height="0.18"/><polygon class="cls-1" points="12.18 7.89 11.27 7.89 11.27 6.93 11.43 6.93 11.43 7.73 12.03 7.73 12.03 6.93 12.18 6.93 12.18 7.89"/><rect class="cls-1" x="11.65" y="6.93" width="0.16" height="0.88"/><polygon class="cls-1" points="11.03 7.89 10.49 7.89 10.49 7.34 11.35 7.34 11.35 7.5 10.64 7.5 10.64 7.73 11.03 7.73 11.03 7.89"/><rect class="cls-1" x="8.51" y="6.94" width="2.54" height="0.16"/><polygon class="cls-1" points="10.24 7.89 9.31 7.89 9.31 7.5 8.69 7.5 8.69 7.88 8.53 7.88 8.53 7.34 9.47 7.34 9.47 7.73 10.09 7.73 10.09 7.5 9.69 7.5 9.69 7.34 10.24 7.34 10.24 7.89"/><rect class="cls-1" x="8.9" y="7.72" width="0.18" height="0.18"/><polygon class="cls-1" points="8.28 7.89 7.36 7.89 7.36 6.93 7.52 6.93 7.52 7.73 8.12 7.73 8.12 6.93 8.28 6.93 8.28 7.89"/><rect class="cls-1" x="7.74" y="6.93" width="0.16" height="0.88"/><polygon class="cls-1" points="7.13 7.89 6.58 7.89 6.58 7.34 7.44 7.34 7.44 7.5 6.74 7.5 6.74 7.73 7.13 7.73 7.13 7.89"/><rect class="cls-1" x="4.61" y="6.94" width="2.53" height="0.16"/><polygon class="cls-1" points="6.34 7.89 5.41 7.89 5.41 7.5 4.78 7.5 4.78 7.88 4.63 7.88 4.63 7.34 5.56 7.34 5.56 7.73 6.18 7.73 6.18 7.5 5.78 7.5 5.78 7.34 6.34 7.34 6.34 7.89"/><rect class="cls-1" x="5" y="7.72" width="0.18" height="0.18"/><polygon class="cls-1" points="4.38 7.89 3.46 7.89 3.46 6.93 3.62 6.93 3.62 7.73 4.22 7.73 4.22 6.93 4.38 6.93 4.38 7.89"/><rect class="cls-1" x="3.84" y="6.93" width="0.16" height="0.88"/><polygon class="cls-1" points="3.23 7.89 2.68 7.89 2.68 7.34 3.54 7.34 3.54 7.5 2.84 7.5 2.84 7.73 3.23 7.73 3.23 7.89"/><rect class="cls-1" x="0.7" y="6.94" width="2.54" height="0.16"/><polygon class="cls-1" points="2.44 7.89 1.5 7.89 1.5 7.5 0.88 7.5 0.88 7.88 0.72 7.88 0.72 7.34 1.66 7.34 1.66 7.73 2.28 7.73 2.28 7.5 1.88 7.5 1.88 7.34 2.44 7.34 2.44 7.89"/><rect class="cls-1" x="1.1" y="7.72" width="0.18" height="0.18"/><polygon class="cls-1" points="43.41 18.04 42.49 18.04 42.49 17.08 42.65 17.08 42.65 17.88 43.25 17.88 43.25 17.08 43.41 17.08 43.41 18.04"/><rect class="cls-1" x="42.88" y="17.08" width="0.16" height="0.88"/><polygon class="cls-1" points="42.26 18.04 41.72 18.04 41.72 17.49 42.57 17.49 42.57 17.64 41.87 17.64 41.87 17.88 42.26 17.88 42.26 18.04"/><rect class="cls-1" x="39.74" y="17.09" width="2.54" height="0.16"/><polygon class="cls-1" points="41.47 18.04 40.54 18.04 40.54 17.64 39.91 17.64 39.91 18.02 39.76 18.02 39.76 17.49 40.69 17.49 40.69 17.88 41.31 17.88 41.31 17.64 40.92 17.64 40.92 17.49 41.47 17.49 41.47 18.04"/><rect class="cls-1" x="40.13" y="17.86" width="0.18" height="0.18"/><polygon class="cls-1" points="39.51 18.04 38.59 18.04 38.59 17.08 38.75 17.08 38.75 17.88 39.35 17.88 39.35 17.08 39.51 17.08 39.51 18.04"/><rect class="cls-1" x="38.97" y="17.08" width="0.16" height="0.88"/><polygon class="cls-1" points="38.36 18.04 37.81 18.04 37.81 17.49 38.67 17.49 38.67 17.64 37.97 17.64 37.97 17.88 38.36 17.88 38.36 18.04"/><rect class="cls-1" x="35.84" y="17.09" width="2.53" height="0.16"/><polygon class="cls-1" points="37.57 18.04 36.63 18.04 36.63 17.64 36.01 17.64 36.01 18.02 35.85 18.02 35.85 17.49 36.79 17.49 36.79 17.88 37.41 17.88 37.41 17.64 37.01 17.64 37.01 17.49 37.57 17.49 37.57 18.04"/><rect class="cls-1" x="36.23" y="17.86" width="0.18" height="0.18"/><polygon class="cls-1" points="35.61 18.04 34.69 18.04 34.69 17.08 34.85 17.08 34.85 17.88 35.45 17.88 35.45 17.08 35.61 17.08 35.61 18.04"/><rect class="cls-1" x="35.07" y="17.08" width="0.16" height="0.88"/><polygon class="cls-1" points="34.45 18.04 33.91 18.04 33.91 17.49 34.77 17.49 34.77 17.64 34.06 17.64 34.06 17.88 34.45 17.88 34.45 18.04"/><rect class="cls-1" x="31.93" y="17.09" width="2.53" height="0.16"/><polygon class="cls-1" points="33.67 18.04 32.73 18.04 32.73 17.64 32.11 17.64 32.11 18.02 31.95 18.02 31.95 17.49 32.89 17.49 32.89 17.88 33.51 17.88 33.51 17.64 33.11 17.64 33.11 17.49 33.67 17.49 33.67 18.04"/><rect class="cls-1" x="32.32" y="17.86" width="0.18" height="0.18"/><polygon class="cls-1" points="31.7 18.04 30.78 18.04 30.78 17.08 30.94 17.08 30.94 17.88 31.55 17.88 31.55 17.08 31.7 17.08 31.7 18.04"/><rect class="cls-1" x="31.16" y="17.08" width="0.16" height="0.88"/><polygon class="cls-1" points="30.55 18.04 30 18.04 30 17.49 30.86 17.49 30.86 17.64 30.16 17.64 30.16 17.88 30.55 17.88 30.55 18.04"/><rect class="cls-1" x="28.03" y="17.09" width="2.54" height="0.16"/><polygon class="cls-1" points="29.76 18.04 28.83 18.04 28.83 17.64 28.2 17.64 28.2 18.02 28.05 18.02 28.05 17.49 28.98 17.49 28.98 17.88 29.61 17.88 29.61 17.64 29.21 17.64 29.21 17.49 29.76 17.49 29.76 18.04"/><rect class="cls-1" x="28.42" y="17.86" width="0.18" height="0.18"/><polygon class="cls-1" points="27.8 18.04 26.88 18.04 26.88 17.08 27.04 17.08 27.04 17.88 27.64 17.88 27.64 17.08 27.8 17.08 27.8 18.04"/><rect class="cls-1" x="27.26" y="17.08" width="0.16" height="0.88"/><polygon class="cls-1" points="26.65 18.04 26.1 18.04 26.1 17.49 26.96 17.49 26.96 17.64 26.26 17.64 26.26 17.88 26.65 17.88 26.65 18.04"/><rect class="cls-1" x="24.12" y="17.09" width="2.54" height="0.16"/><polygon class="cls-1" points="25.86 18.04 24.92 18.04 24.92 17.64 24.3 17.64 24.3 18.02 24.14 18.02 24.14 17.49 25.08 17.49 25.08 17.88 25.7 17.88 25.7 17.64 25.3 17.64 25.3 17.49 25.86 17.49 25.86 18.04"/><rect class="cls-1" x="24.52" y="17.86" width="0.18" height="0.18"/><polygon class="cls-1" points="23.89 18.04 22.98 18.04 22.98 17.08 23.14 17.08 23.14 17.88 23.74 17.88 23.74 17.08 23.89 17.08 23.89 18.04"/><rect class="cls-1" x="23.36" y="17.08" width="0.16" height="0.88"/><polygon class="cls-1" points="22.74 18.04 22.2 18.04 22.2 17.49 23.06 17.49 23.06 17.64 22.36 17.64 22.36 17.88 22.74 17.88 22.74 18.04"/><rect class="cls-1" x="20.22" y="17.09" width="2.53" height="0.16"/><polygon class="cls-1" points="21.96 18.04 21.02 18.04 21.02 17.64 20.4 17.64 20.4 18.02 20.24 18.02 20.24 17.49 21.18 17.49 21.18 17.88 21.8 17.88 21.8 17.64 21.4 17.64 21.4 17.49 21.96 17.49 21.96 18.04"/><rect class="cls-1" x="20.61" y="17.86" width="0.18" height="0.18"/><polygon class="cls-1" points="19.99 18.04 19.07 18.04 19.07 17.08 19.23 17.08 19.23 17.88 19.83 17.88 19.83 17.08 19.99 17.08 19.99 18.04"/><rect class="cls-1" x="19.45" y="17.08" width="0.16" height="0.88"/><polygon class="cls-1" points="18.84 18.04 18.3 18.04 18.3 17.49 19.15 17.49 19.15 17.64 18.45 17.64 18.45 17.88 18.84 17.88 18.84 18.04"/><rect class="cls-1" x="16.32" y="17.09" width="2.53" height="0.16"/><polygon class="cls-1" points="18.05 18.04 17.12 18.04 17.12 17.64 16.49 17.64 16.49 18.02 16.34 18.02 16.34 17.49 17.27 17.49 17.27 17.88 17.9 17.88 17.9 17.64 17.5 17.64 17.5 17.49 18.05 17.49 18.05 18.04"/><rect class="cls-1" x="16.71" y="17.86" width="0.18" height="0.18"/><polygon class="cls-1" points="16.09 18.04 15.17 18.04 15.17 17.08 15.33 17.08 15.33 17.88 15.93 17.88 15.93 17.08 16.09 17.08 16.09 18.04"/><rect class="cls-1" x="15.55" y="17.08" width="0.16" height="0.88"/><polygon class="cls-1" points="14.94 18.04 14.39 18.04 14.39 17.49 15.25 17.49 15.25 17.64 14.55 17.64 14.55 17.88 14.94 17.88 14.94 18.04"/><rect class="cls-1" x="12.41" y="17.09" width="2.54" height="0.16"/><polygon class="cls-1" points="14.15 18.04 13.21 18.04 13.21 17.64 12.59 17.64 12.59 18.02 12.43 18.02 12.43 17.49 13.37 17.49 13.37 17.88 13.99 17.88 13.99 17.64 13.59 17.64 13.59 17.49 14.15 17.49 14.15 18.04"/><rect class="cls-1" x="12.81" y="17.86" width="0.18" height="0.18"/><polygon class="cls-1" points="12.18 18.04 11.27 18.04 11.27 17.08 11.43 17.08 11.43 17.88 12.03 17.88 12.03 17.08 12.18 17.08 12.18 18.04"/><rect class="cls-1" x="11.65" y="17.08" width="0.16" height="0.88"/><polygon class="cls-1" points="11.03 18.04 10.49 18.04 10.49 17.49 11.35 17.49 11.35 17.64 10.64 17.64 10.64 17.88 11.03 17.88 11.03 18.04"/><rect class="cls-1" x="8.51" y="17.09" width="2.54" height="0.16"/><polygon class="cls-1" points="10.24 18.04 9.31 18.04 9.31 17.64 8.69 17.64 8.69 18.02 8.53 18.02 8.53 17.49 9.47 17.49 9.47 17.88 10.09 17.88 10.09 17.64 9.69 17.64 9.69 17.49 10.24 17.49 10.24 18.04"/><rect class="cls-1" x="8.9" y="17.86" width="0.18" height="0.18"/><polygon class="cls-1" points="8.28 18.04 7.36 18.04 7.36 17.08 7.52 17.08 7.52 17.88 8.12 17.88 8.12 17.08 8.28 17.08 8.28 18.04"/><rect class="cls-1" x="7.74" y="17.08" width="0.16" height="0.88"/><polygon class="cls-1" points="7.13 18.04 6.58 18.04 6.58 17.49 7.44 17.49 7.44 17.64 6.74 17.64 6.74 17.88 7.13 17.88 7.13 18.04"/><rect class="cls-1" x="4.61" y="17.09" width="2.53" height="0.16"/><polygon class="cls-1" points="6.34 18.04 5.41 18.04 5.41 17.64 4.78 17.64 4.78 18.02 4.63 18.02 4.63 17.49 5.56 17.49 5.56 17.88 6.18 17.88 6.18 17.64 5.78 17.64 5.78 17.49 6.34 17.49 6.34 18.04"/><rect class="cls-1" x="5" y="17.86" width="0.18" height="0.18"/><polygon class="cls-1" points="4.38 18.04 3.46 18.04 3.46 17.08 3.62 17.08 3.62 17.88 4.22 17.88 4.22 17.08 4.38 17.08 4.38 18.04"/><rect class="cls-1" x="3.84" y="17.08" width="0.16" height="0.88"/><polygon class="cls-1" points="3.23 18.04 2.68 18.04 2.68 17.49 3.54 17.49 3.54 17.64 2.84 17.64 2.84 17.88 3.23 17.88 3.23 18.04"/><rect class="cls-1" x="0.7" y="17.09" width="2.54" height="0.16"/><polygon class="cls-1" points="2.44 18.04 1.5 18.04 1.5 17.64 0.88 17.64 0.88 18.02 0.72 18.02 0.72 17.49 1.66 17.49 1.66 17.88 2.28 17.88 2.28 17.64 1.88 17.64 1.88 17.49 2.44 17.49 2.44 18.04"/><rect class="cls-1" x="1.1" y="17.86" width="0.18" height="0.18"/></g></g></svg>