<svg xmlns="http://www.w3.org/2000/svg" viewBox="0 0 44.11 24.98"><defs><style>.cls-1{fill:#fff;}.cls-2{fill:#f90d23;}.cls-3{fill:#171796;}.cls-4{fill:#1e1e1e;}</style></defs><title>south-korea</title><g id="Layer_2" data-name="Layer 2"><g id="OBJECTS"><rect class="cls-1" width="44.11" height="24.98"/><path class="cls-2" d="M18,7.31a2.89,2.89,0,0,0-.71.64A6.13,6.13,0,0,1,18,7.31Z"/><path class="cls-2" d="M28.45,12.42A6.46,6.46,0,0,0,18,7.31a6.13,6.13,0,0,0-.71.64A3.19,3.19,0,0,0,16.57,10a3.24,3.24,0,0,0,5.49,2.34,2.39,2.39,0,0,1,.22-.23,3.21,3.21,0,0,1,2.24-.9A3.23,3.23,0,0,1,27.39,16,6.45,6.45,0,0,0,28.45,12.42Z"/><path class="cls-2" d="M27.39,16a6.71,6.71,0,0,1-.78,1A3.22,3.22,0,0,0,27.39,16Z"/><path class="cls-3" d="M24.52,11.22a3.21,3.21,0,0,0-2.24.9l-.22.23A3.24,3.24,0,0,1,16.57,10,3.19,3.19,0,0,1,17.31,8,6.47,6.47,0,0,0,22,18.9,6.48,6.48,0,0,0,26.61,17a6.71,6.71,0,0,0,.78-1,3.23,3.23,0,0,0-2.87-4.75Z"/><path class="cls-2" d="M22.06,12.35l.22-.23A2.39,2.39,0,0,0,22.06,12.35Z"/><polygon class="cls-4" points="30.74 4.82 28.87 2.94 28.5 3.31 30.38 5.19 30.74 4.82"/><polygon class="cls-4" points="33.14 7.22 31.15 5.22 30.8 5.6 32.77 7.58 33.14 7.22"/><polygon class="cls-4" points="32.05 8.31 27.78 4.04 28.14 3.67 32.41 7.94 32.05 8.31"/><polygon class="cls-4" points="29.31 6.29 27.41 4.4 27.05 4.77 28.95 6.66 29.31 6.29"/><polygon class="cls-4" points="31.68 8.67 29.74 6.72 29.38 7.1 31.32 9.04 31.68 8.67"/><polygon class="cls-4" points="11.19 7.58 15.46 3.31 15.09 2.94 10.82 7.22 11.19 7.58"/><rect class="cls-4" x="10.85" y="5.73" width="6.04" height="0.52" transform="translate(-0.17 11.56) rotate(-45)"/><polygon class="cls-4" points="12.64 9.04 16.91 4.77 16.55 4.4 12.28 8.67 12.64 9.04"/><polygon class="cls-4" points="30.48 19.56 28.5 21.53 28.87 21.9 30.84 19.93 30.48 19.56"/><polygon class="cls-4" points="33.14 17.63 32.77 17.26 30.85 19.19 31.22 19.55 33.14 17.63"/><polygon class="cls-4" points="29.77 18.82 27.78 20.81 28.14 21.17 30.12 19.19 29.77 18.82"/><polygon class="cls-4" points="32.41 16.9 32.05 16.54 30.11 18.48 30.48 18.84 32.41 16.9"/><polygon class="cls-4" points="31.68 16.17 31.32 15.81 29.36 17.76 29.74 18.12 31.68 16.17"/><rect class="cls-4" x="26.82" y="19.01" width="2.82" height="0.52" transform="translate(-5.35 25.6) rotate(-45)"/><rect class="cls-4" x="12.88" y="16.56" width="0.52" height="6.04" transform="translate(-10 15.03) rotate(-45)"/><polygon class="cls-4" points="11.91 16.54 11.55 16.9 13.49 18.84 13.84 18.46 11.91 16.54"/><polygon class="cls-4" points="16.19 20.81 14.21 18.83 13.88 19.23 15.82 21.17 16.19 20.81"/><rect class="cls-4" x="14.34" y="15.11" width="0.52" height="6.04" transform="translate(-8.54 15.63) rotate(-44.99)"/></g></g></svg>