<svg xmlns="http://www.w3.org/2000/svg" viewBox="0 0 44.11 24.98"><defs><style>.cls-1{fill:#fff;}.cls-2{fill:#239f40;}.cls-3{fill:#ef2525;}.cls-4{fill:#008f4c;}.cls-5{fill:#c16807;}.cls-6{fill:#191919;}.cls-7{fill:#3b892e;}.cls-8{fill:#161616;}.cls-9{fill:#513623;}.cls-10{fill:#07878c;}.cls-11{fill:#fcfcfc;}</style></defs><title>mexico</title><g id="Layer_2" data-name="Layer 2"><g id="OBJECTS"><rect class="cls-1" width="44.11" height="24.98"/><rect class="cls-2" width="14.53" height="24.98"/><rect class="cls-3" x="29.6" width="14.51" height="24.98"/><path class="cls-4" d="M18.54,12.52a.64.64,0,0,1-.44-.41c-.1-.32-.27-.21-.42-.48s.05-.55,0-.77-.75-.78-1.07-.58c.51.28.84.44.71.76s-.29.7.09,1,.41.32.44.55.74,1,1,.14A1.69,1.69,0,0,0,18.54,12.52Z"/><path class="cls-5" d="M18.44,10.65s-.18.44,0,.61.6,0,.89.07.91.48.08,1.19c-.27-.13-.36-.34-.32-.46s.17-.2-.05-.18-.66,0-.88-.26S18.36,10.65,18.44,10.65Z"/><path class="cls-5" d="M18.05,8.08a.35.35,0,0,1,.11.33c.08,0,.07-.34,0-.38S18.05,8.08,18.05,8.08Z"/><path class="cls-5" d="M18.08,9s.6-.21.87,0,.61,1,0,1.25C19,9.59,18.46,9,18.08,9Z"/><path class="cls-4" d="M18.11,7.85s.14.17.06.22-.08,0-.12.21-.16.23-.16.3.36,0,.45-.15c0,.17-.29.28-.36.37s0,.14.31.11c.12,0,1.13.54.77,1.18s-.72.58-.81,1a.59.59,0,0,0,.68.75c-.33.06-1,.1-1.09-.66a1.2,1.2,0,0,1,.49-1.14c.1-.11.89-.54.1-.74-.07,0-.5.13-.63.05s-.3-.29-.25-.45c-.16-.17-.26-.42-.11-.57A2.18,2.18,0,0,1,17.85,8C18,8,18,7.82,18.11,7.85Z"/><path class="cls-6" d="M17.89,8.19a.06.06,0,0,1-.12,0,.06.06,0,1,1,.12,0Z"/><path class="cls-5" d="M16.72,10.5c-.09.11-.21.16-.26.12s0-.17,0-.28.21-.17.27-.12S16.8,10.39,16.72,10.5Z"/><path class="cls-5" d="M17,10.64c-.1.13-.25.17-.34.1s-.08-.22,0-.35.25-.17.34-.1A.26.26,0,0,1,17,10.64Z"/><path class="cls-5" d="M17.25,10.67c-.06.15-.19.24-.28.2s-.12-.2,0-.35.2-.24.29-.2S17.32,10.52,17.25,10.67Z"/><path class="cls-1" d="M22.8,16.68s-.54-.29-.85-.08c0,.74,0,1,.23,1.17a3,3,0,0,1,.66.74c.36-.24.7-.28.86-.17a2.91,2.91,0,0,0-.9-1C22.73,17.29,22.8,16.68,22.8,16.68Z"/><path class="cls-3" d="M23.39,18.29a3.94,3.94,0,0,0-.83-.83,3.09,3.09,0,0,1,0-.88,1.37,1.37,0,0,1,.25.1s-.07.61,0,.68a2.91,2.91,0,0,1,.9,1A.43.43,0,0,0,23.39,18.29Z"/><path class="cls-7" d="M22.25,16.52l0,0c0,.74,0,1,.25,1.23a3.19,3.19,0,0,1,.59.62,2.39,2.39,0,0,0-.21.13,3.06,3.06,0,0,0-.66-.75c-.25-.2-.2-.43-.23-1.17A.52.52,0,0,1,22.25,16.52Z"/><path class="cls-8" d="M21.14,17.08A4.8,4.8,0,0,1,18,16a5.8,5.8,0,0,1-1.74-2.91,8,8,0,0,1-.29-1.67h.12a7.49,7.49,0,0,0,.28,1.65A5.74,5.74,0,0,0,18,15.93a5.12,5.12,0,0,0,4.2.95l0,.12A8.53,8.53,0,0,1,21.14,17.08Z"/><path class="cls-8" d="M23.28,17.08A8.66,8.66,0,0,1,22.17,17l0-.12a5.12,5.12,0,0,0,4.2-.95,5.74,5.74,0,0,0,1.7-2.85,7.49,7.49,0,0,0,.28-1.65h.12a8.36,8.36,0,0,1-.28,1.67A5.9,5.9,0,0,1,26.46,16,4.78,4.78,0,0,1,23.28,17.08Z"/><path class="cls-9" d="M19.88,16s.21-.93.76-1,1,0,.74-.46.41-.8.62-.42-.06,1.18.23.94.31-1.31.62-1.1.66-.3.67.2,0,.6.29.82.24.41.46.58a1.25,1.25,0,0,1,.36.7C24.6,16.31,19.88,16,19.88,16Z"/><path class="cls-6" d="M24.5,16.27c-.75,0-4.58-.23-4.62-.24h0s.22-.94.77-1a2.58,2.58,0,0,1,.36-.05c.22,0,.37,0,.42-.13s0-.14-.05-.26a.41.41,0,0,1,0-.4.43.43,0,0,1,.36-.21.31.31,0,0,1,.27.17,1.25,1.25,0,0,1,.09.67c0,.15,0,.27,0,.3s.05,0,.09,0a1.29,1.29,0,0,0,.27-.6c.08-.29.15-.53.29-.53l.08,0A.35.35,0,0,0,23,14a.72.72,0,0,0,.21-.05l.15,0c.09,0,.13.07.13.24v.09c0,.42,0,.52.28.72a.85.85,0,0,1,.27.34.8.8,0,0,0,.18.24,1.21,1.21,0,0,1,.37.71S24.63,16.27,24.5,16.27ZM19.89,16c.26,0,3.89.24,4.61.24h.12a1.25,1.25,0,0,0-.36-.68.72.72,0,0,1-.19-.25A.79.79,0,0,0,23.8,15c-.27-.21-.27-.31-.29-.74v-.09c0-.19-.06-.22-.11-.22l-.14,0A.54.54,0,0,1,23,14a.41.41,0,0,1-.19,0l-.07,0c-.12,0-.19.25-.27.51a1.38,1.38,0,0,1-.27.62c-.06,0-.1.06-.13,0s0-.16,0-.32a1.45,1.45,0,0,0-.09-.66.26.26,0,0,0-.25-.15.39.39,0,0,0-.35.57c.07.13.08.22.05.28s-.21.12-.44.14a2.58,2.58,0,0,0-.36.05C20.14,15.1,19.92,15.9,19.89,16Z"/><path class="cls-7" d="M23.45,14.78a2.86,2.86,0,0,0,1.18-.44c.37-.32,1.13-.21,1.17.15S25.27,16.16,23.45,14.78Z"/><path class="cls-6" d="M24.86,15.41a2.52,2.52,0,0,1-1.42-.62h0a3,3,0,0,0,1.18-.44.87.87,0,0,1,.57-.19c.29,0,.59.12.61.35a.93.93,0,0,1-.26.62A.87.87,0,0,1,24.86,15.41Zm-1.38-.62a2.51,2.51,0,0,0,1.38.6.91.91,0,0,0,.68-.29,1,1,0,0,0,.25-.61c0-.21-.31-.33-.59-.33a.86.86,0,0,0-.56.19A3,3,0,0,1,23.48,14.79Z"/><path class="cls-7" d="M25.12,14.27a2.17,2.17,0,0,0,.61-.89.63.63,0,0,1,1-.38C27.12,13.33,26.87,14.79,25.12,14.27Z"/><path class="cls-6" d="M25.81,14.39a2.24,2.24,0,0,1-.69-.11h0l0,0a2.2,2.2,0,0,0,.6-.88.68.68,0,0,1,.65-.53.54.54,0,0,1,.37.14.72.72,0,0,1,.1.77A1,1,0,0,1,25.81,14.39Zm-.66-.12a2.35,2.35,0,0,0,.66.1,1,1,0,0,0,1-.62.73.73,0,0,0-.1-.75.56.56,0,0,0-.35-.13.67.67,0,0,0-.63.51A2.08,2.08,0,0,1,25.15,14.27Z"/><path class="cls-7" d="M21.76,14.77s-1.12,0-1.3-.51S19,14,19.51,15,21.76,14.77,21.76,14.77Z"/><path class="cls-6" d="M20.2,15.38h0a.73.73,0,0,1-.7-.4.75.75,0,0,1,0-.73A.63.63,0,0,1,20,14a.45.45,0,0,1,.46.28c.17.49,1.17.5,1.28.5h.05l0,0A3.55,3.55,0,0,1,20.2,15.38ZM20,14a.59.59,0,0,0-.52.27.69.69,0,0,0,0,.7.71.71,0,0,0,.68.38h0a3.5,3.5,0,0,0,1.52-.56c-.2,0-1.11,0-1.28-.53A.42.42,0,0,0,20,14Z"/><path class="cls-7" d="M19.76,14.47s-.26-.88-.84-.9-.94.27-.49.67A1.06,1.06,0,0,0,19.76,14.47Z"/><path class="cls-6" d="M19.3,14.63h0a1.31,1.31,0,0,1-.87-.38c-.22-.2-.23-.35-.2-.43s.34-.28.69-.26c.58,0,.84.9.85.91h0A.75.75,0,0,1,19.3,14.63Zm-.44-1.05c-.32,0-.55.09-.6.24s0,.26.18.42a1.34,1.34,0,0,0,.86.37h0a.74.74,0,0,0,.44-.14c0-.09-.28-.87-.82-.89Z"/><path class="cls-7" d="M18.52,13.92c.07,0,0-1.18-.41-1.32s-.81.15-.58.66A1.12,1.12,0,0,0,18.52,13.92Z"/><path class="cls-6" d="M18.49,13.93h0a1.13,1.13,0,0,1-1-.67.55.55,0,0,1,0-.53.43.43,0,0,1,.38-.18.57.57,0,0,1,.22,0c.41.13.47,1.05.44,1.27,0,.05,0,.07,0,.07Zm-.6-1.36a.41.41,0,0,0-.36.17.54.54,0,0,0,0,.51,1.11,1.11,0,0,0,.95.66h0a1.67,1.67,0,0,0,0-.61c0-.23-.14-.61-.38-.69A.6.6,0,0,0,17.89,12.57Z"/><path class="cls-10" d="M18.88,16s.46-.42.88-.25.59.4,1.28,0c.3-.13.26.51,1.22,0,.37-.09.6.56,1.45,0,.38-.07.32.54,1.3-.06.35-.18,1,.46,1,.46l-.42.59a1.06,1.06,0,0,0-.73-.08c-.34.13-.62-.14-1-.14s-.75.26-1.19.1-.57.16-1.06.12-.53-.38-.85-.25a1,1,0,0,1-.89.08,1,1,0,0,0-.72.07A4.36,4.36,0,0,1,18.88,16Z"/><path class="cls-11" d="M25,16.1c.24-.12.64.14.87.32l.05-.08c-.22-.17-.66-.48-.92-.35-1,.6-.92,0-1.3.06-.85.55-1.08-.1-1.45,0-1,.55-.92-.09-1.22,0-.69.35-.87.12-1.28,0a.88.88,0,0,0-.8.18.36.36,0,0,0,0,.09.87.87,0,0,1,.76-.16c.41.17.59.4,1.28.05.3-.13.26.51,1.22,0,.37-.1.6.55,1.45,0C24.09,16.1,24,16.7,25,16.1Z"/><path class="cls-7" d="M28.35,11.25A1.6,1.6,0,0,1,28,9.42,1.51,1.51,0,0,1,28.35,11.25Z"/><path class="cls-6" d="M28.35,11.27h0A1.65,1.65,0,0,1,28,9.42v0c.59.68.72,1.3.38,1.84ZM28,9.44a1.59,1.59,0,0,0,.37,1.79C28.67,10.71,28.54,10.11,28,9.44Z"/><path class="cls-7" d="M28.35,11.6A4,4,0,0,1,28.6,10C28.85,10.56,29.16,11.29,28.35,11.6Z"/><path class="cls-6" d="M28.34,11.62v0A4.17,4.17,0,0,1,28.59,10h0v0a1.59,1.59,0,0,1,.22,1.17.75.75,0,0,1-.47.41Zm.26-1.57a4.05,4.05,0,0,0-.24,1.54.79.79,0,0,0,.45-.4A1.56,1.56,0,0,0,28.6,10.05Z"/><path class="cls-7" d="M28.3,12.14a1.27,1.27,0,0,0,0-1.12,3.32,3.32,0,0,0-.53-.64,2.41,2.41,0,0,0,.2,1.06v0C28.18,11.8,28.26,11.85,28.3,12.14Z"/><path class="cls-6" d="M28.29,12.18v0a.89.89,0,0,0-.23-.49l-.13-.19v0a2.37,2.37,0,0,1-.2-1.06v0h0a4.52,4.52,0,0,1,.53.65,1.3,1.3,0,0,1,0,1.13Zm-.55-1.78a2.36,2.36,0,0,0,.2,1v0l.13.18a.92.92,0,0,1,.22.47A1.19,1.19,0,0,0,28.25,11,4.74,4.74,0,0,0,27.74,10.4Z"/><path class="cls-7" d="M28.14,13.1A1.09,1.09,0,0,0,28,12c-.42-.4-.51-.41-.51-.41a2.22,2.22,0,0,1,.22.83c0,.39,0,.74.37.86A.29.29,0,0,0,28.14,13.1Z"/><path class="cls-6" d="M28.05,13.33h0c-.37-.12-.37-.49-.37-.87a2.21,2.21,0,0,0-.22-.82v0h0s.1,0,.51.42a1.06,1.06,0,0,1,.18,1.07.29.29,0,0,1-.1.22Zm-.57-1.67a2.08,2.08,0,0,1,.21.8c0,.39,0,.73.35.85a.31.31,0,0,0,.09-.21h0a1.1,1.1,0,0,0-.17-1A2.36,2.36,0,0,0,27.48,11.66Z"/><path class="cls-7" d="M27.9,14a2.2,2.2,0,0,1,0-.9c.13-.28.64-.4.7-.78A1.59,1.59,0,0,1,27.9,14Z"/><path class="cls-6" d="M27.89,14h0a2.25,2.25,0,0,1,0-.91,1,1,0,0,1,.31-.31.81.81,0,0,0,.39-.47v0l0,0a1.33,1.33,0,0,1-.07.89,1.66,1.66,0,0,1-.67.8Zm.75-1.65a.9.9,0,0,1-.38.44.89.89,0,0,0-.31.3,2.27,2.27,0,0,0,0,.88A1.61,1.61,0,0,0,28.64,12.34Z"/><path class="cls-7" d="M27.3,14.71s.64-.94.16-1.39-.5-.55-.5-.55a4.35,4.35,0,0,1,.12,1C27.05,14.13,27,14.63,27.3,14.71Z"/><path class="cls-6" d="M27.31,14.72h0c-.27-.07-.26-.53-.23-1a4.23,4.23,0,0,0-.12-1h0s0,.1.5.54-.15,1.4-.16,1.4ZM27,12.84a4.47,4.47,0,0,1,.11.93c0,.41-.05.85.19.93.06-.09.61-.95.16-1.37A4.22,4.22,0,0,1,27,12.84Z"/><path class="cls-7" d="M27.26,12.66a3,3,0,0,1,0,.91,4.45,4.45,0,0,0,.2,1.14,4,4,0,0,0,.34-1.21A3.07,3.07,0,0,0,27.26,12.66Z"/><path class="cls-6" d="M27.52,14.71h0a.65.65,0,0,0-.06-.25,2.27,2.27,0,0,1-.14-.9,2.82,2.82,0,0,0,0-.89v0l0,0a3,3,0,0,1,.58.84,1.86,1.86,0,0,1-.18.77A4.59,4.59,0,0,0,27.52,14.71Zm-.24-2a3,3,0,0,1,0,.87,2.23,2.23,0,0,0,.14.88,1.36,1.36,0,0,1,.06.2c0-.13.09-.26.13-.38a1.71,1.71,0,0,0,.18-.77A2.62,2.62,0,0,0,27.28,12.7Z"/><path class="cls-7" d="M27.58,14.61a1.13,1.13,0,0,1,.44-.38c.33-.18.79-.47.88-.8C28.63,13.52,27.78,13.34,27.58,14.61Z"/><path class="cls-6" d="M27.56,14.67V14.6c.17-1,.77-1.11,1.13-1.15l.2,0h0v0c-.08.33-.53.62-.88.8a1.24,1.24,0,0,0-.44.38Zm1.32-1.23a.74.74,0,0,1-.17,0c-.35,0-.93.11-1.1,1.08a1.19,1.19,0,0,1,.41-.34C28.36,14,28.79,13.75,28.88,13.44Z"/><path class="cls-7" d="M26.65,15.81s.77-1.09,0-1.59c0,.46-.3.54-.25.93A1.35,1.35,0,0,0,26.65,15.81Z"/><path class="cls-6" d="M26.65,15.83h0a1.31,1.31,0,0,1-.29-.67.7.7,0,0,1,.11-.45.86.86,0,0,0,.14-.48v0h0a.8.8,0,0,1,.36.49,1.82,1.82,0,0,1-.32,1.12Zm0-1.59a.93.93,0,0,1-.14.47.69.69,0,0,0-.11.44,1.27,1.27,0,0,0,.28.64,1.61,1.61,0,0,0,.3-1.08A.71.71,0,0,0,26.62,14.24Z"/><path class="cls-7" d="M26.65,16s0-.72.48-.84.75,0,.93-.36C28,15.24,27.39,15.76,26.65,16Z"/><path class="cls-6" d="M26.63,16v0s0-.72.5-.86a2.25,2.25,0,0,1,.4-.07c.24,0,.4-.06.52-.27l0,0v0c0,.46-.66,1-1.42,1.2ZM28,14.82c-.12.19-.28.21-.51.24a2.56,2.56,0,0,0-.4.08c-.43.11-.47.71-.47.82C27.38,15.75,28,15.26,28,14.82Z"/><path class="cls-7" d="M25.51,16.58a2.36,2.36,0,0,1,.29-.85,1.38,1.38,0,0,0,.29-.74A1.45,1.45,0,0,1,26,16.62C25.55,16.92,25.51,16.58,25.51,16.58Z"/><path class="cls-6" d="M25.68,16.75a.18.18,0,0,1-.18-.17h0a2.36,2.36,0,0,1,.29-.85,1.44,1.44,0,0,0,.29-.74v-.05l0,0c.26.37.3,1.35-.12,1.65A.58.58,0,0,1,25.68,16.75Zm-.16-.17s0,.15.16.15a.56.56,0,0,0,.29-.12,1,1,0,0,0,.3-.79,1.66,1.66,0,0,0-.16-.79,1.82,1.82,0,0,1-.3.71A2.47,2.47,0,0,0,25.52,16.58Z"/><path class="cls-7" d="M26,16.5s-.18-.74.51-.79a2.69,2.69,0,0,1,1.07.08A5.7,5.7,0,0,1,26,16.5Z"/><path class="cls-6" d="M26,16.51h0a.78.78,0,0,1,.08-.6.59.59,0,0,1,.44-.22h.32a2.6,2.6,0,0,1,.75.09h0a5.58,5.58,0,0,1-1.59.72Zm.84-.8h-.32a.53.53,0,0,0-.42.2.74.74,0,0,0-.08.57,5.55,5.55,0,0,0,1.54-.7A2.77,2.77,0,0,0,26.8,15.71Z"/><path class="cls-7" d="M25.2,16.91s.43-.63.86-.54a2.36,2.36,0,0,1,.9.54A2.53,2.53,0,0,0,25.9,17,.79.79,0,0,1,25.2,16.91Z"/><path class="cls-6" d="M25.66,17.07a1,1,0,0,1-.47-.15h0s.38-.55.78-.55h.09a2.39,2.39,0,0,1,.91.54l0,0h0a3.63,3.63,0,0,0-.38,0,1.68,1.68,0,0,0-.68.11A.48.48,0,0,1,25.66,17.07Zm-.45-.17a.94.94,0,0,0,.45.14.43.43,0,0,0,.23-.05,1.73,1.73,0,0,1,.69-.11h.35a2.48,2.48,0,0,0-.87-.51H26C25.61,16.37,25.27,16.83,25.21,16.9Z"/><path class="cls-7" d="M24.42,17a.45.45,0,0,1,.39-.49,4.19,4.19,0,0,1,1,0,7.22,7.22,0,0,1-.77.59C24.84,17.16,24.42,17,24.42,17Z"/><path class="cls-6" d="M24.89,17.09a1.3,1.3,0,0,1-.48-.13h0a.46.46,0,0,1,.39-.5,3,3,0,0,1,.46,0,5.09,5.09,0,0,1,.54,0h0a9.11,9.11,0,0,1-.77.59A.33.33,0,0,1,24.89,17.09Zm-.46-.15a1.29,1.29,0,0,0,.46.13A.29.29,0,0,0,25,17a6.8,6.8,0,0,0,.74-.57,4.25,4.25,0,0,0-.51,0,2.9,2.9,0,0,0-.45,0A.43.43,0,0,0,24.43,16.94Z"/><path class="cls-7" d="M23.89,17s.56-.18.82,0a2.1,2.1,0,0,0,1,.34,1.33,1.33,0,0,1-1.29.18A.91.91,0,0,1,23.89,17Z"/><path class="cls-6" d="M24.82,17.59a.92.92,0,0,1-.44-.1,1,1,0,0,1-.5-.53h0a1.86,1.86,0,0,1,.49-.08.55.55,0,0,1,.34.08,2.1,2.1,0,0,0,.91.34h.09l0,0A1.71,1.71,0,0,1,24.82,17.59ZM23.91,17a.9.9,0,0,0,.48.5.88.88,0,0,0,.43.1,1.54,1.54,0,0,0,.81-.26,2.09,2.09,0,0,1-.92-.34.54.54,0,0,0-.33-.08A1.54,1.54,0,0,0,23.91,17Z"/><path class="cls-7" d="M22.6,16.93s.31-.5.74-.43a.84.84,0,0,0,.74-.07C24,16.74,23.44,17.14,22.6,16.93Z"/><path class="cls-6" d="M23.06,17a1.88,1.88,0,0,1-.46-.06h0v0s.28-.44.66-.44h.09a2.45,2.45,0,0,0,.36.05.83.83,0,0,0,.37-.12h0v0A1,1,0,0,1,23.06,17Zm-.44-.08a1.67,1.67,0,0,0,.44.06,1,1,0,0,0,1-.53.73.73,0,0,1-.36.11,1.63,1.63,0,0,1-.37,0h-.08A.9.9,0,0,0,22.62,16.92Z"/><path class="cls-7" d="M22.73,16.9a1.71,1.71,0,0,0,.61.74,1,1,0,0,0,1.18,0,2.83,2.83,0,0,1-1.18-.59C23.18,16.84,22.73,16.9,22.73,16.9Z"/><path class="cls-6" d="M24,17.83a1.17,1.17,0,0,1-.62-.18,1.71,1.71,0,0,1-.61-.74v0h.15a.62.62,0,0,1,.49.17,2.77,2.77,0,0,0,1.17.58h0A.83.83,0,0,1,24,17.83Zm-1.21-.92a1.84,1.84,0,0,0,.61.72,1.06,1.06,0,0,0,.6.18.87.87,0,0,0,.54-.17,2.92,2.92,0,0,1-1.16-.58.63.63,0,0,0-.47-.15Z"/><path class="cls-7" d="M22.64,16.94s.62-.66,1.73.11A1.93,1.93,0,0,1,22.64,16.94Z"/><path class="cls-6" d="M23.65,17.22a1.71,1.71,0,0,1-1-.27h0a1.1,1.1,0,0,1,.72-.26,1.83,1.83,0,0,1,1,.37h0A1.46,1.46,0,0,1,23.65,17.22Zm-1-.28a1.74,1.74,0,0,0,1,.26,1.45,1.45,0,0,0,.7-.15,1.8,1.8,0,0,0-1-.36A1,1,0,0,0,22.66,16.94Z"/><path class="cls-7" d="M21.88,17.05s-.35-.56-.59-.62-.33.16-.46-.13-.17.25-.47.06-.35-.09-.48.14-.68.17-.53.39.37,0,.53.32.24-.31.48-.16.41-.31.62-.11S21.57,16.93,21.88,17.05Z"/><path class="cls-6" d="M20,17.3s-.07,0-.1-.09a.33.33,0,0,0-.28-.18.31.31,0,0,1-.25-.13.13.13,0,0,1,0-.1c0-.06.11-.09.22-.12s.27-.08.33-.18.14-.25.25-.25a.51.51,0,0,1,.25.1.19.19,0,0,0,.11,0c.08,0,.13-.06.18-.12s.06-.07.09-.07.06,0,.09.1.11.14.15.14h.08l.13,0h.09c.25.06.59.61.6.63l0,0,0,0a.88.88,0,0,0-.24,0h-.37A.43.43,0,0,1,21,17a.16.16,0,0,0-.1-.05.46.46,0,0,0-.19.09.39.39,0,0,1-.22.11.14.14,0,0,1-.1,0l-.07,0c-.08,0-.14.08-.19.14S20,17.3,20,17.3Zm.15-1c-.1,0-.15.08-.23.23a.61.61,0,0,1-.34.19c-.1,0-.19.06-.21.11a.09.09,0,0,0,0,.08.28.28,0,0,0,.24.12.34.34,0,0,1,.29.19c0,.05.05.08.08.08s.07-.06.11-.11.12-.15.21-.15l.08,0a.16.16,0,0,0,.09,0,.37.37,0,0,0,.21-.1.45.45,0,0,1,.2-.09.21.21,0,0,1,.12.05.34.34,0,0,0,.28.09h.37a.78.78,0,0,1,.22,0c-.08-.11-.37-.54-.57-.59H21.2l-.13,0-.08,0c-.07,0-.12,0-.17-.16s-.05-.09-.07-.09-.05,0-.08.07a.26.26,0,0,1-.19.12.19.19,0,0,1-.12,0A.55.55,0,0,0,20.12,16.28Z"/><path class="cls-7" d="M22,17a1.1,1.1,0,0,0-.34.37.49.49,0,0,1-.59.33c-.34-.07-.12.36-.48.19s-.23.27-.53,0-.54-.1-.45-.29.43-.07.5-.26.16,0,.4,0,.05-.41.33-.3.33.12.48,0S22,17,22,17Z"/><path class="cls-6" d="M20.17,18a.26.26,0,0,1-.17-.11.69.69,0,0,0-.38-.18s-.07,0-.09,0,0,0,0-.08.16-.12.26-.14.21,0,.24-.12.06-.11.1-.11l.1,0,.21,0c.1,0,.11-.08.13-.17s0-.15.12-.15a.13.13,0,0,1,.08,0,.94.94,0,0,0,.29.09c.06,0,.1,0,.18-.09a.4.4,0,0,1,.25-.06A2.17,2.17,0,0,1,22,17h0l0,0a1.15,1.15,0,0,0-.34.36c-.09.17-.2.36-.46.36l-.14,0H21c-.1,0-.13.05-.16.12s0,.11-.12.11h0a.34.34,0,0,1-.15,0,.27.27,0,0,0-.14,0,.16.16,0,0,0-.13.07.11.11,0,0,1-.09.06Zm0-.74s0,0-.08.08-.15.12-.25.14-.21,0-.25.13a.1.1,0,0,0,0,.06l.07,0a.59.59,0,0,1,.39.19.29.29,0,0,0,.16.09h0s0,0,.08,0a.17.17,0,0,1,.14-.08.34.34,0,0,1,.15,0,.33.33,0,0,0,.14,0h0c.06,0,.08,0,.1-.1s.06-.14.18-.14h.2a.48.48,0,0,0,.44-.34,1.32,1.32,0,0,1,.32-.36,2.5,2.5,0,0,0-.41,0,.33.33,0,0,0-.23.06.32.32,0,0,1-.2.09h0a.94.94,0,0,1-.29-.09l-.08,0c-.07,0-.08.06-.1.14s0,.18-.15.18a.67.67,0,0,1-.22,0Z"/><path class="cls-7" d="M19.29,16.78s.15-.83,0-1.07-.43-.09-.32-.48-.35.12-.47-.28-.25-.36-.56-.23-.76-.33-.81,0,.31.3.22.71.48-.13.57.21.63,0,.66.34S19.11,16.43,19.29,16.78Z"/><path class="cls-6" d="M19.3,16.82l0,0a1.06,1.06,0,0,0-.37-.36c-.18-.12-.35-.23-.36-.44s-.13-.17-.27-.17h-.07c-.13,0-.27,0-.32-.17a.13.13,0,0,0-.14-.11.65.65,0,0,0-.19,0l-.16,0-.07,0a.18.18,0,0,1,0-.15.37.37,0,0,0-.1-.39.36.36,0,0,1-.12-.32c0-.09.06-.14.13-.14a.87.87,0,0,1,.23.06,1,1,0,0,0,.33.09h0a.24.24,0,0,0,.12,0,1.13,1.13,0,0,1,.32-.09c.12,0,.19.09.26.32s.09.16.18.16l.14,0,.1,0,.06,0s0,.07,0,.15c-.07.24,0,.27.1.31a.44.44,0,0,1,.22.16c.17.24,0,1.05,0,1.08Zm-1-1c.15,0,.28,0,.29.19s.18.31.35.42a1.2,1.2,0,0,1,.37.34c0-.16.12-.83,0-1a.41.41,0,0,0-.21-.15c-.11,0-.18-.08-.11-.33,0-.07,0-.12,0-.13l0,0-.09,0-.15,0a.19.19,0,0,1-.2-.17c-.07-.22-.14-.31-.24-.31a1.09,1.09,0,0,0-.31.09.28.28,0,0,1-.13,0h0a.94.94,0,0,1-.34-.08.73.73,0,0,0-.22-.06s-.09,0-.1.11a.34.34,0,0,0,.1.3.4.4,0,0,1,.11.41c0,.07,0,.11,0,.13l0,0,.15,0a.79.79,0,0,1,.2,0,.15.15,0,0,1,.16.12c.05.15.17.16.3.16Z"/><path class="cls-7" d="M19.93,17a1.13,1.13,0,0,0-.47.19.48.48,0,0,1-.67.06c-.28-.2-.26.28-.52,0s-.32.16-.48-.23-.45-.31-.29-.45.43.12.57,0,.16,0,.37.14.22-.35.43-.13.25.25.44.2S19.93,17,19.93,17Z"/><path class="cls-6" d="M19.09,17.4a.47.47,0,0,1-.3-.11.27.27,0,0,0-.13-.05c-.05,0-.08,0-.12.07a.17.17,0,0,1-.11.06c-.05,0-.1,0-.17-.11a.26.26,0,0,0-.17-.11l-.09,0a.09.09,0,0,1-.07,0h0q-.08,0-.15-.18a.64.64,0,0,0-.27-.32s-.06,0-.06-.06,0,0,.05-.07a.19.19,0,0,1,.13-.05l.17,0a.4.4,0,0,0,.15,0,.14.14,0,0,0,.11,0s.07-.06.1-.06.07,0,.12.07a.62.62,0,0,0,.17.12h.05c.06,0,.1-.05.14-.1s.07-.11.13-.11a.2.2,0,0,1,.11.07c.16.16.21.21.3.21h.17a1.39,1.39,0,0,1,.58.29l0,0h0a1.06,1.06,0,0,0-.46.19.63.63,0,0,1-.38.17Zm-.43-.18a.27.27,0,0,1,.14.05.44.44,0,0,0,.29.11h0a.6.6,0,0,0,.37-.17A1.25,1.25,0,0,1,19.9,17a1.35,1.35,0,0,0-.55-.27h0l-.13,0h0c-.1,0-.16-.07-.32-.23a.16.16,0,0,0-.09-.05c-.05,0-.08,0-.11.09s-.09.11-.16.11h-.06a.7.7,0,0,1-.18-.13s-.07-.06-.1-.06a.15.15,0,0,0-.08.05.17.17,0,0,1-.13.05.45.45,0,0,1-.16,0l-.16,0a.21.21,0,0,0-.12,0s0,0,0,.06l.06,0a.68.68,0,0,1,.27.33c.06.15.1.16.13.16h0l.06,0,.1,0a.27.27,0,0,1,.19.12c.06.07.11.1.15.1s.06,0,.09-.06A.23.23,0,0,1,18.66,17.22Z"/><path class="cls-7" d="M17.7,15.58s.54-.66.5-.95-.34-.28,0-.57-.37-.07-.28-.48,0-.43-.39-.46-.5-.66-.7-.39.12.41-.15.73.47.12.4.46.56.28.4.62S17.71,15.18,17.7,15.58Z"/><path class="cls-6" d="M17.69,15.61v0a.94.94,0,0,0-.15-.49.65.65,0,0,1-.11-.56c.08-.16,0-.22-.18-.3s-.26-.14-.22-.32a.14.14,0,0,0,0-.11.42.42,0,0,0-.25-.11c-.09,0-.18,0-.19-.1s0-.08.06-.14a.37.37,0,0,0,.09-.39.37.37,0,0,1,.06-.34.15.15,0,0,1,.11-.07c.08,0,.15.09.23.18s.22.26.37.27.33,0,.39.12.05.18,0,.36.1.25.22.28.12,0,.13.07,0,.07-.08.13-.13.23-.06.32a.42.42,0,0,1,.11.25c0,.29-.47.93-.5,1Zm-.8-2.94s-.06,0-.09.07a.33.33,0,0,0-.05.31.41.41,0,0,1-.11.42s-.06.09-.05.12.09.06.18.08a.38.38,0,0,1,.26.12.19.19,0,0,1,0,.13c0,.16.09.23.21.29s.28.15.19.33,0,.35.11.54a1.13,1.13,0,0,1,.15.47c.1-.13.51-.67.48-.92a.36.36,0,0,0-.11-.23c-.07-.1-.12-.16.07-.35a.19.19,0,0,0,.07-.12.19.19,0,0,0-.12,0c-.12,0-.28-.08-.23-.3a.45.45,0,0,0,0-.34c-.05-.08-.18-.09-.37-.11a.66.66,0,0,1-.38-.28C17,12.75,17,12.67,16.89,12.67Z"/><path class="cls-7" d="M16.9,14.94s.65-.5.68-.76-.27-.29.07-.5-.34-.11-.17-.46.05-.37-.28-.45-.35-.65-.6-.44,0,.38-.3.61.44.17.29.46.49.33.27.59S17,14.59,16.9,14.94Z"/><path class="cls-6" d="M16.88,15v0a.79.79,0,0,0-.06-.45c0-.18-.1-.35,0-.5a.14.14,0,0,0,0-.11c0-.07-.07-.12-.15-.17s-.23-.17-.16-.32a.1.1,0,0,0,0-.09c0-.07-.13-.1-.22-.14s-.17-.06-.17-.11,0-.07.08-.12a.32.32,0,0,0,.18-.32.32.32,0,0,1,.12-.29.21.21,0,0,1,.11-.05c.08,0,.14.09.2.2s.16.25.31.28.31.08.35.17,0,.16-.07.31a.19.19,0,0,0,0,.14c0,.07.11.1.18.13s.11,0,.11.08,0,.06-.1.11-.18.18-.13.27a.34.34,0,0,1,.06.22c0,.27-.66.75-.69.77ZM16.7,12.3a.12.12,0,0,0-.09,0,.28.28,0,0,0-.12.27.35.35,0,0,1-.18.34c-.06,0-.09.07-.08.1s.08.06.16.09.2.08.23.15a.12.12,0,0,1,0,.11c-.06.13,0,.21.15.29s.16.11.17.18a.18.18,0,0,1-.05.13c-.12.15-.07.31,0,.48a.9.9,0,0,1,.05.43c.12-.09.63-.5.66-.73a.33.33,0,0,0-.06-.21c-.05-.11-.08-.17.14-.3s.09-.07.09-.09,0,0-.1-.06a.34.34,0,0,1-.19-.14.19.19,0,0,1,0-.16.42.42,0,0,0,.07-.29c0-.08-.16-.11-.34-.15a.57.57,0,0,1-.31-.3C16.82,12.38,16.77,12.3,16.7,12.3Z"/><path class="cls-7" d="M18.14,16.1a1.17,1.17,0,0,0-.5-.05.48.48,0,0,1-.61-.27c-.15-.32-.37.12-.45-.28s-.35,0-.3-.43-.24-.5,0-.53.32.3.51.24.12.11.26.3.36-.2.44.09.09.34.28.38S18.14,16.1,18.14,16.1Z"/><path class="cls-6" d="M18.16,16.12h0a1.33,1.33,0,0,0-.37-.06h-.13l-.19,0a.45.45,0,0,1-.43-.3c-.05-.1-.11-.11-.15-.11h-.16c-.07,0-.11,0-.14-.19s-.11-.19-.18-.2a.12.12,0,0,1-.1,0s0-.09,0-.2a.67.67,0,0,0-.09-.41s0-.06,0-.09,0,0,.08,0h0a.38.38,0,0,1,.24.14.3.3,0,0,0,.2.12h.1c.08,0,.09.05.12.12a.65.65,0,0,0,.09.19.09.09,0,0,0,.09,0l.12,0a.28.28,0,0,1,.12,0s.09,0,.11.12c.08.28.09.33.28.37s.4.54.41.56ZM17.77,16a1.78,1.78,0,0,1,.35,0c0-.1-.23-.48-.39-.52s-.21-.09-.29-.39c0-.09-.06-.1-.09-.1l-.11,0a.24.24,0,0,1-.13.05.14.14,0,0,1-.11-.06.83.83,0,0,1-.09-.2c0-.07,0-.11-.1-.11h-.1a.34.34,0,0,1-.22-.13c-.07-.06-.14-.13-.22-.13h0l-.06,0s0,0,0,.07a.65.65,0,0,1,.08.43c0,.09,0,.15,0,.18s0,0,.08,0,.17,0,.21.22.07.17.11.17h.08l.08,0c.07,0,.12,0,.17.13a.42.42,0,0,0,.41.29l.19,0Z"/><path class="cls-7" d="M16,12.28s.52-.27.6-.49-.1-.31.16-.41-.19-.18,0-.43.12-.31-.06-.46-.08-.64-.29-.52-.06.33-.32.45.24.25.08.46.23.4,0,.58S16.13,12,16,12.28Z"/><path class="cls-6" d="M16,12.3l0,0a.87.87,0,0,0,.07-.39.6.6,0,0,1,.12-.43c.1-.08,0-.17,0-.27s-.11-.2,0-.3,0-.18-.08-.25-.09-.1-.08-.14a.13.13,0,0,1,.08-.08.31.31,0,0,0,.19-.24.3.3,0,0,1,.14-.21l.06,0c.07,0,.09.1.11.22s0,.26.12.32.27.21.07.48c-.09.12,0,.2,0,.26s.06.07.05.1,0,0-.09.07-.15.11-.13.2a.56.56,0,0,1,0,.21c-.08.22-.58.48-.6.49ZM16.45,10l-.05,0a.27.27,0,0,0-.13.2.32.32,0,0,1-.2.25.14.14,0,0,0-.07.06s0,.08.08.12.16.17.08.28,0,.19,0,.28.11.2,0,.3-.11.24-.12.41a1,1,0,0,1-.06.37c.12-.06.51-.28.57-.46a.35.35,0,0,0,0-.2c0-.09,0-.16.16-.22s.07,0,.07,0,0-.05-.05-.08-.14-.16,0-.3.11-.29-.07-.44a.52.52,0,0,1-.13-.34C16.52,10.06,16.5,10,16.45,10Z"/><path class="cls-7" d="M16.72,14.2a1.2,1.2,0,0,0-.46-.21c-.24,0-.46-.09-.51-.44s-.38,0-.34-.4-.33-.12-.15-.5-.09-.55.12-.52.21.39.41.39.08.14.16.36.4-.08.39.22,0,.35.16.45S16.72,14.2,16.72,14.2Z"/><path class="cls-6" d="M16.73,14.22h0a1,1,0,0,0-.45-.2.5.5,0,0,1-.52-.46c0-.15-.1-.16-.18-.16s-.1,0-.13-.05,0-.09,0-.19-.05-.22-.11-.24-.07,0-.08-.07,0-.1,0-.2a.59.59,0,0,0,0-.42.14.14,0,0,1,0-.09.11.11,0,0,1,.09,0c.11,0,.16.11.21.21s.11.18.2.18.14.07.14.16a.56.56,0,0,0,0,.21.11.11,0,0,0,.12.08h.15s.07,0,.09,0a.23.23,0,0,1,0,.13c0,.3,0,.34.15.44s.23.63.23.66Zm-1.39-2.08h0s0,0,0,.07a.62.62,0,0,1,0,.43c0,.09-.06.15,0,.18s0,0,.07.05.15.07.13.28,0,.14,0,.17.06,0,.11,0,.18,0,.2.19c.05.35.28.4.5.43a1.3,1.3,0,0,1,.45.19c0-.1-.08-.52-.22-.61s-.17-.16-.16-.46a.16.16,0,0,0,0-.11s0,0-.07,0h-.15a.13.13,0,0,1-.14-.1.56.56,0,0,1,0-.21c0-.09,0-.14-.12-.14s-.16-.1-.21-.19-.11-.19-.2-.2Z"/><path class="cls-7" d="M16.06,12.13a1.18,1.18,0,0,0-.33-.41c-.21-.15-.39-.33-.24-.63s-.37-.21-.1-.51-.25-.28.13-.49.22-.49.41-.35,0,.42.18.53,0,.16-.05.38.43.15.25.39-.21.28-.1.45S16.06,12.13,16.06,12.13Z"/><path class="cls-6" d="M16.06,12.16v0a1.23,1.23,0,0,0-.32-.41c-.2-.15-.4-.33-.25-.65.07-.13,0-.18-.08-.23s-.09-.06-.1-.11,0-.1.08-.16.07-.21,0-.27a.14.14,0,0,1-.05-.1s.06-.08.15-.13a.58.58,0,0,0,.28-.32s0-.07.06-.07a.12.12,0,0,1,.08,0A.3.3,0,0,1,16,10c0,.1,0,.2.08.25a.15.15,0,0,1,.09.09s0,.08,0,.12a.67.67,0,0,0-.09.19c0,.09.06.13.15.16s.13.06.14.11a.13.13,0,0,1,0,.12c-.18.23-.2.27-.1.43s-.14.64-.15.66Zm-.21-2.45s0,0,0,.06a.58.58,0,0,1-.29.33c-.08,0-.13.08-.13.12s0,0,0,.08.12.14,0,.29a.22.22,0,0,0-.08.15s0,.06.09.09.17.11.09.26c-.15.31,0,.47.24.62a1.18,1.18,0,0,1,.32.4c.05-.09.23-.47.14-.61s-.08-.23.1-.46c0,0,.05-.08,0-.11s-.07-.06-.13-.09-.19-.08-.16-.19a.48.48,0,0,1,.09-.19.26.26,0,0,0,0-.1s0,0-.08-.08S16,10.12,16,10s0-.2-.08-.26S15.87,9.71,15.85,9.71Z"/><path class="cls-1" d="M21.88,16.68s.53-.29.85-.08c0,.74,0,1-.23,1.17a3,3,0,0,0-.66.74c-.37-.24-.71-.28-.86-.17a2.91,2.91,0,0,1,.9-1C22,17.29,21.88,16.68,21.88,16.68Z"/><path class="cls-7" d="M21.29,18.29a3.71,3.71,0,0,1,.83-.83,3.51,3.51,0,0,0,0-.88,1.37,1.37,0,0,0-.25.1s.07.61,0,.68a2.91,2.91,0,0,0-.9,1A.43.43,0,0,1,21.29,18.29Z"/><path class="cls-3" d="M22.43,16.52l0,0c0,.74,0,1-.25,1.23a3.19,3.19,0,0,0-.59.62l.21.12a3,3,0,0,1,.66-.74c.25-.2.2-.43.23-1.17A.52.52,0,0,0,22.43,16.52Z"/><path class="cls-6" d="M21.13,8.35s.32-.84-.4-.82-.74-.71.11-.85c.14-.33,1.37-.27,1.84,0s1.08.47,1.35.25a.41.41,0,0,1-.17.47,3.46,3.46,0,0,1,1.37,1.27c.54.9.94,1.07.94,1.07a1.79,1.79,0,0,1-.32.14,3.26,3.26,0,0,1,.07,1.5,8.71,8.71,0,0,1-.26,1.78c-.1-.85-.12-1.11-.15-1.47a5.3,5.3,0,0,0-.3-1.06,6,6,0,0,1,.15,1c0,.41-.05,1.19-.05,1.19a2.93,2.93,0,0,0-.14-.79,2.3,2.3,0,0,1-.24-.74c0,.3.09,1.24.09,1.24a1.28,1.28,0,0,1-.33-.74,2.49,2.49,0,0,0-.15-.74,2.06,2.06,0,0,0,.07.82c-.19-.09-.51-1-.51-1a2.32,2.32,0,0,0,.2.84c-.22-.17-.34-.67-.49-.8a2.49,2.49,0,0,0-.37-.23,4.32,4.32,0,0,1,.41.84c-.29-.21-.41-.54-.57-.62l-.56-.28a.2.2,0,0,0-.28.07Z"/><path class="cls-5" d="M20.79,6.82s-.42,0-.45.26.19.33.45.39a.61.61,0,0,1,.48.68,6.75,6.75,0,0,1,.44.86.53.53,0,0,0-.16-.72,2.11,2.11,0,0,1,.31.19.72.72,0,0,0-.4-.56.82.82,0,0,1,.35.17.67.67,0,0,0-.52-.43c.11-.06.32,0,.32,0s-.14-.38-.66-.25c0-.1.2-.09.2-.09a.79.79,0,0,0-.62-.09c.08-.1.34-.09.37-.08A.36.36,0,0,0,20.54,7,.7.7,0,0,0,20.79,6.82Z"/><path class="cls-5" d="M21.13,6.61s-.3,0-.25.21.24.21.55.22.52.06.57.18c0-.12-.2-.32-.36-.36a.83.83,0,0,1,.73.36c.07-.1-.17-.43-.17-.43a1.33,1.33,0,0,1,.36.37.85.85,0,0,0,.54.36c0-.11,0-.41-.26-.48.23,0,.37.33.37.48a.75.75,0,0,0,.69-.43c-.24.15-.59,0-.84-.14A4.68,4.68,0,0,0,21.13,6.61Z"/><path class="cls-5" d="M21.18,7.23a1.52,1.52,0,0,1,.76,1.23,1.49,1.49,0,0,1-.24.67.67.67,0,0,0,.38-.62C22.13,8,21.54,7.21,21.18,7.23Z"/><path class="cls-5" d="M21.59,7.31s.17.39.37.43l.38.09s.07-.42-.16-.49a4,4,0,0,0-.57-.11l.52.31Z"/><path class="cls-5" d="M22.05,7.83l.08.4s.29,0,.29-.08A.33.33,0,0,0,22.05,7.83Z"/><path class="cls-5" d="M22.16,8.34l0,.34s.22.13.3,0S22.33,8.32,22.16,8.34Z"/><path class="cls-5" d="M22.12,8.75,22,9a.46.46,0,0,0,.27.15c.14,0,.28-.22.14-.3A1,1,0,0,0,22.12,8.75Z"/><path class="cls-5" d="M21.94,9.1s.33.13.3.24-.16.25-.25.13a.7.7,0,0,0-.18-.16l.18.3-.06.07-.22-.38Z"/><path class="cls-5" d="M22.79,7.52a1,1,0,0,0-.26-.16c-.08,0-.18.2-.05.25A.28.28,0,0,0,22.79,7.52Z"/><path class="cls-5" d="M22.69,7.67s.17-.07.21-.13a1,1,0,0,0,.35.06c.08,0,.14.2,0,.26s-.21,0-.29-.11S22.69,7.67,22.69,7.67Z"/><path class="cls-5" d="M22.42,7.8s.08-.12.35-.06a.51.51,0,0,1,.45.68,1.12,1.12,0,0,0-.1-.29A1.83,1.83,0,0,1,22.66,8C22.45,7.92,22.42,7.8,22.42,7.8Z"/><path class="cls-5" d="M22.49,8.18a.65.65,0,0,1,.49,0c.18.13.34.59,0,.67a.71.71,0,0,0,0-.3s-.05.14-.2,0A1.73,1.73,0,0,1,22.49,8.18Z"/><path class="cls-5" d="M22.45,8.82a.26.26,0,0,1,.36,0c.21.16.27.55-.09.52a.45.45,0,0,0,.14-.19s-.13.13-.22,0A2.26,2.26,0,0,1,22.45,8.82Z"/><path class="cls-5" d="M22.45,9.13s.37.25.26.5a.18.18,0,0,1-.2.07l.08-.1a.8.8,0,0,1-.26-.1l-.09-.08S22.45,9.3,22.45,9.13Z"/><path class="cls-5" d="M22.24,9.52s.25.21.23.36a.51.51,0,0,1-.23.32c0-.14.09-.24.07-.34S22,9.62,22.24,9.52Z"/><path class="cls-5" d="M23.8,7.43a4.16,4.16,0,0,1,1.43,1.38c.39.78.56.87.56.87A1,1,0,0,1,25,9.59a2.56,2.56,0,0,0,.44,0,7.74,7.74,0,0,1-.6-.74,1.33,1.33,0,0,0,.32,0,1.62,1.62,0,0,1-.55-.4c.27.06.26,0,.26,0s-.56-.15-.58-.34c.21.09.29,0,.29,0s-.45-.13-.53-.26a.37.37,0,0,0,.19-.09,1.16,1.16,0,0,1-.64-.21A.29.29,0,0,0,23.8,7.43Z"/><path class="cls-5" d="M23.39,7.75a2.62,2.62,0,0,1,.79.61,4.58,4.58,0,0,1,.57.8c.09.26.24.61.06.65s-.25-.29-.25-.29h.16A2.7,2.7,0,0,1,24.39,9c-.14-.26-.06-.32-.33-.55S23.22,8.06,23.39,7.75Z"/><path class="cls-5" d="M23.41,8.23a7.82,7.82,0,0,1,.65.68,1.91,1.91,0,0,1,.4.56c.06.19,0,.51-.21.39A.52.52,0,0,1,24,9.52s.21.18.32.11,0-.15-.17-.21a1.24,1.24,0,0,1-.56-.54,1.68,1.68,0,0,0-.29-.37Z"/><path class="cls-5" d="M23.09,9a.31.31,0,0,1,.34,0c.16.13.52.64.47.82s-.27,0-.27,0,.22,0,.13-.15-.31-.15-.48-.38A3.26,3.26,0,0,1,23.09,9Z"/><path class="cls-5" d="M23.06,9.21a.94.94,0,0,1,.38.4c.09.23.1.5,0,.52a.74.74,0,0,1-.31-.08l.23-.07a.92.92,0,0,1-.35-.2,1.14,1.14,0,0,1-.22-.36A.22.22,0,0,0,23.06,9.21Z"/><path class="cls-5" d="M22.53,9.81s.23,0,.26-.1a.53.53,0,0,1,.26.56c-.06.1-.29.09-.34.05.24,0,.11-.19.08-.22.15,0,.08-.15.08-.15S22.53,10.09,22.53,9.81Z"/><path class="cls-5" d="M22.47,10.13s.39.33.06.49C22.49,10.33,22.47,10.13,22.47,10.13Z"/><path class="cls-5" d="M25.46,9.85l.25.08a3,3,0,0,1,.08,1.3A5.53,5.53,0,0,1,25.46,9.85Z"/><path class="cls-5" d="M25.13,9.81l.15.07s.12.45.14.5A1,1,0,0,1,25.13,9.81Z"/><path class="cls-5" d="M24.89,9.85l.19,0s.12.7.38.84A1.25,1.25,0,0,1,24.89,9.85Z"/><path class="cls-5" d="M24.49,10l.19-.08a.89.89,0,0,0,0,.5,2.79,2.79,0,0,1,.28.77,2.78,2.78,0,0,1-.51-.86C24.41,10,24.49,10,24.49,10Z"/><path class="cls-5" d="M23.88,10l.17-.05s.28.73.39.93C24.29,10.83,23.91,10.23,23.88,10Z"/><path class="cls-5" d="M23.36,10.2l.27-.07a3,3,0,0,0,.39.67C23.75,10.73,23.36,10.2,23.36,10.2Z"/><path class="cls-5" d="M23.07,10.42l.09-.17a2.37,2.37,0,0,0,.46.47A1.47,1.47,0,0,1,23.07,10.42Z"/><path class="cls-5" d="M22.73,10.52H23a.84.84,0,0,1,.44.48c-.2-.15-.38-.17-.52-.28A.6.6,0,0,1,22.73,10.52Z"/><path class="cls-6" d="M22.57,11.43,25.13,13a.81.81,0,0,1-.67.21c-.1.17-.32.14-.41.14s-.42.08-.53,0-.58-.1-1.07-.63S22.57,11.43,22.57,11.43Z"/><polygon class="cls-5" points="22.76 11.7 24.92 13.07 25.04 12.97 22.66 11.57 22.76 11.7"/><path class="cls-5" d="M22.66,11.76l2.05,1.38s0,.12-.41-.07a13.37,13.37,0,0,1-1.64-1.15Z"/><path class="cls-5" d="M22.66,12.17l1.6,1.16s0,.17-.65-.3l-1-.76Z"/><path class="cls-5" d="M22.66,12.55l1,.85a2.69,2.69,0,0,1-1-.73C22.51,12.5,22.66,12.55,22.66,12.55Z"/><path class="cls-6" d="M18.46,8.61s0-.16.06-.23.54-.64.33-.79a1.11,1.11,0,0,1,.25.2.69.69,0,0,0,0-.46,1.31,1.31,0,0,1,.23.46l.1-.54.11.31a.44.44,0,0,0,.09-.31c.29.09.28.25.28.25a1,1,0,0,1,.35.07.86.86,0,0,0,.51,0,.19.19,0,0,1-.07.13,2.91,2.91,0,0,1,1.05,2,2.89,2.89,0,0,1,1,2.88c0,.49.07.79.07.79l-.21-.21v.25l-.19-.11-.1.27-.25-.22-.13.22-.4-.58,0,.14s-.85-1-.87-1.05-.9-.91-.9-.91l-.14.13s-.67-1.12-.09-1.41c-.28-.19-.21-.08.23-.62h-.15l.23-.36s-.12,0-.11-.12a1.2,1.2,0,0,1-.58.35c-.19-.16-.25-.21-.36-.2a.29.29,0,0,0,0,.55.52.52,0,0,1-.64-.39C18.17,8.86,18.46,8.61,18.46,8.61Z"/><path class="cls-5" d="M18.5,8.57s.17,0,.24,0a1.52,1.52,0,0,0,.18-.73,1.48,1.48,0,0,1-.34.55C18.47,8.44,18.44,8.54,18.5,8.57Z"/><path class="cls-5" d="M19,8.15a.53.53,0,0,1,.08.16c0,.09-.09.13-.17.18s0,.1,0,.1L19,8.5c.06,0,.16-.16.11-.23S19,8.14,19,8.15Z"/><path class="cls-5" d="M18.93,8.31s.11,0,.1,0-.08,0-.07,0,0,.06,0,.06-.05-.09,0-.12"/><path class="cls-5" d="M19.15,8.23,19,8.1l0-.24a.29.29,0,0,0,.13-.31A.63.63,0,0,1,19.15,8.23Z"/><path class="cls-5" d="M19.31,8s.18-.13.19-.25a4,4,0,0,0-.06-.43Z"/><path class="cls-5" d="M19.54,7.59V7.8s.22,0,.26-.07,0-.4-.13-.43A.42.42,0,0,1,19.54,7.59Z"/><path class="cls-5" d="M19.92,7.55v.17a2.61,2.61,0,0,0,.78-.07,1.1,1.1,0,0,1-.44,0C20.14,7.57,20,7.51,19.92,7.55Z"/><path class="cls-5" d="M19.19,8.23A1,1,0,0,0,19.5,8a.44.44,0,0,1,.4-.19C19.7,8.07,19.43,8.33,19.19,8.23Z"/><path class="cls-5" d="M19.83,8a.83.83,0,0,0,.77.11.63.63,0,0,0-.66-.29C19.87,8,19.83,8,19.83,8Z"/><path class="cls-5" d="M19.5,8.27a1.24,1.24,0,0,0,.26-.19,1.07,1.07,0,0,1,.41.15c.08.07.18.27.09.35s-.16.07-.24-.05A.42.42,0,0,0,19.5,8.27Z"/><path class="cls-5" d="M19.22,8.3a.42.42,0,0,0,.36.22c.23,0,.35,0,.41,0,0-.09-.23-.28-.37-.26A1.09,1.09,0,0,1,19.22,8.3Z"/><path class="cls-5" d="M19.21,8.4s-.17.23-.24.23a.86.86,0,0,0,.39,0c.18,0,.31,0,.34.05a.49.49,0,0,1,0,.17c.09-.07.17-.19.09-.23a1,1,0,0,0-.3,0C19.4,8.54,19.21,8.44,19.21,8.4Z"/><path class="cls-5" d="M18.53,8.63a.16.16,0,0,0-.12.11c0,.09-.09.09-.15.22a.32.32,0,0,0,.14.42.52.52,0,0,0,.28.06.35.35,0,0,1-.14-.2c0-.12,0-.24.11-.28S19,8.9,19,8.84s.3-.06.37,0-.11.12-.18.17-.09.09-.09.09A.91.91,0,0,0,19.41,9c.1-.07.27-.15.24-.24s0-.13-.25-.09a1,1,0,0,1-.51,0A.89.89,0,0,0,18.53,8.63Z"/><path class="cls-5" d="M19.9,8.59a.52.52,0,0,1-.17.58c.18.14.36,0,.4-.18S20.14,8.61,19.9,8.59Z"/><path class="cls-5" d="M20.36,8.55s-.1.13-.18.14c0,.21-.07.33,0,.38s.13.23.18.21a.6.6,0,0,0,.16-.41A.6.6,0,0,0,20.36,8.55Z"/><path class="cls-5" d="M20.2,8.2a.53.53,0,0,1,.32,0c.14.05.2.23.25.38a3.78,3.78,0,0,1,.07.54.42.42,0,0,1-.28-.33,1.14,1.14,0,0,0-.18-.33Z"/><path class="cls-5" d="M20.47,7.84a.73.73,0,0,1,.24.35,1.22,1.22,0,0,0,.42.7.67.67,0,0,0,0-.64A1,1,0,0,0,20.47,7.84Z"/><path class="cls-5" d="M20.9,8.81a4.22,4.22,0,0,0,.14.63.92.92,0,0,0,.41.34.47.47,0,0,0,.18-.34c0-.14-.28-.81-.28-.81L21.16,9Z"/><path class="cls-5" d="M20.56,9l.28.2a.62.62,0,0,1,.06.63.65.65,0,0,1-.3.27s-.26-.17-.26-.36A1.8,1.8,0,0,1,20.56,9Z"/><path class="cls-5" d="M20.15,9.12a.62.62,0,0,1,.12.53,1,1,0,0,1-.47.4,3.58,3.58,0,0,1,.06-.67A1.8,1.8,0,0,1,20.15,9.12Z"/><path class="cls-5" d="M19.83,9.28a6,6,0,0,0-.43.45.63.63,0,0,0,.35,0Z"/><path class="cls-5" d="M19.6,9.84a.57.57,0,0,0-.21.54,7,7,0,0,1,.21.79c.12-.1.11-.42.1-.66a4.32,4.32,0,0,1,.06-.67Z"/><path class="cls-5" d="M19.76,10.14s0,.93.53,1.1a6.78,6.78,0,0,0,0-1.33S19.87,10.24,19.76,10.14Z"/><path class="cls-5" d="M20.34,10.05s.06.87.56,1.06a4.68,4.68,0,0,0,0-1.1l-.27.23Z"/><path class="cls-5" d="M21.13,9.76,21,10s.05.59.17.68a.63.63,0,0,0,.3.1,2,2,0,0,0,0-.51A1.9,1.9,0,0,0,21.13,9.76Z"/><path class="cls-5" d="M21.37,9.84s.11.61.34.72a1.61,1.61,0,0,0-.08-.8S21.48,10,21.37,9.84Z"/><path class="cls-5" d="M21.7,9.84a3.16,3.16,0,0,1,.15.57c0,.21.15.32.17.48a.72.72,0,0,0,.33.42,1.32,1.32,0,0,0-.06-1A4.1,4.1,0,0,0,21.7,9.84Z"/><path class="cls-5" d="M21.52,10.51a1,1,0,0,0,0,.41,1.58,1.58,0,0,0,.53.58,4.75,4.75,0,0,0-.27-.92S21.64,10.81,21.52,10.51Z"/><path class="cls-5" d="M21.07,10.74a1.15,1.15,0,0,0,.35.2c.15.25.27.39.28.52s0,.34,0,.34-.3,0-.36-.15-.17-.42-.29-.48A.66.66,0,0,0,21.07,10.74Z"/><path class="cls-5" d="M20.47,10.82a.57.57,0,0,0,.27.29.68.68,0,0,1,.39.39l.17.45a1.8,1.8,0,0,1-.56-.32A1,1,0,0,1,20.47,10.82Z"/><path class="cls-5" d="M19.76,10.88a1.71,1.71,0,0,0,.49.43,1.05,1.05,0,0,1,.45.41.77.77,0,0,1,.18.38,1.24,1.24,0,0,1-.54-.33,3.13,3.13,0,0,0-.37-.46A.9.9,0,0,1,19.76,10.88Z"/><path class="cls-5" d="M21,12a.41.41,0,0,0,.12.38,1.85,1.85,0,0,0,.82.6C21.73,12.51,21.5,12,21,12Z"/><path class="cls-5" d="M21.3,11.73s-.05.11.15.31.39.62.52.71a2.07,2.07,0,0,1,.24.18s-.07-.29-.08-.32a1,1,0,0,1-.17-.28c-.09-.23-.12-.39-.26-.45Z"/><path class="cls-5" d="M21.74,11.39s0,.32,0,.43.13.23.24.46a2.36,2.36,0,0,0,.39.49,1.75,1.75,0,0,0-.1-.48C22.21,12,21.92,11.41,21.74,11.39Z"/><path class="cls-5" d="M22.05,11.21a1.91,1.91,0,0,0,.13.59l.45.79s-.07-.42-.09-.69S22.16,11.19,22.05,11.21Z"/><path class="cls-5" d="M22.49,10.74a2.52,2.52,0,0,1,0,.5.47.47,0,0,0,0,.44,4,4,0,0,1,.22.76s0-.63,0-.95A3.66,3.66,0,0,0,22.49,10.74Z"/><path class="cls-5" d="M21.58,12.87a1.85,1.85,0,0,0,.24.38.44.44,0,0,1,.12.23A.42.42,0,0,0,22,13.2.79.79,0,0,0,21.58,12.87Z"/><path class="cls-5" d="M21.92,12.79s.13.56.41.72a.4.4,0,0,0,0-.43A2.12,2.12,0,0,0,21.92,12.79Z"/><path class="cls-5" d="M22.21,12.7a.82.82,0,0,0,.13.37,1.59,1.59,0,0,0,.26.27.75.75,0,0,0-.08-.38A1.27,1.27,0,0,0,22.21,12.7Z"/><path class="cls-5" d="M22.45,12.51s.15.61.31.73c0-.34-.09-.8-.09-.8l0,.33Z"/><path class="cls-6" d="M22,13.31s.17.16.08.23-.41,0-.45.14c-.2.1-.36.39-.19.52.21-.19.25-.18.25-.18a.15.15,0,0,0,.16,0c.07-.06.06,0,.06,0l0,.08s-.23.2-.18.34.14.19.22.18a.24.24,0,0,1,.08-.21c.06-.07.06-.05.07-.05s.16-.05.18-.14.1,0,.14-.1.11-.08.23-.11.25-.09.32,0a.31.31,0,0,0,.29.13.18.18,0,0,1,.19.27c.17,0,.32-.25.25-.39a.36.36,0,0,0-.23-.18s.06-.22-.15-.2a.54.54,0,0,1-.36-.06,2.49,2.49,0,0,1-.33-.34s-.32-.12-.32-.12Z"/><path class="cls-1" d="M21.65,13.77a.1.1,0,0,0-.14,0,.43.43,0,0,0-.09.37.5.5,0,0,1,.22-.17C21.69,14,21.76,13.8,21.65,13.77Z"/><path class="cls-5" d="M21.68,13.66a.59.59,0,0,1,.06.37c.17-.07.24-.17.25-.23S21.79,13.57,21.68,13.66Z"/><path class="cls-5" d="M21.93,13.64s.13.1.11.17.2-.07.17-.11a.79.79,0,0,0-.14-.11Z"/><path class="cls-5" d="M22.11,13.57a.49.49,0,0,1,.13.11c.1,0,.19-.09.15-.14a1.83,1.83,0,0,0-.2-.17Z"/><path class="cls-5" d="M22.11,13.88s-.17,0-.18.15,0,.2.09.21.24-.15.24-.15S22.09,14,22.11,13.88Z"/><path class="cls-1" d="M21.89,14.12s0,.22.1.21c-.1.12-.12.19-.1.22S21.62,14.4,21.89,14.12Z"/><path class="cls-5" d="M22.16,13.85h0s0,.15.12.17.17,0,.12-.1-.11-.09-.11-.12A.07.07,0,0,0,22.16,13.85Z"/><path class="cls-5" d="M22.32,13.74s0,.14.09.14a.31.31,0,0,0,.17-.1s-.15-.14-.15-.14Z"/><path class="cls-5" d="M22.58,13.37l-.13.25a.6.6,0,0,1,.16.1.2.2,0,0,0,.24,0c.06,0,0-.1-.06-.17A1.16,1.16,0,0,1,22.58,13.37Z"/><path class="cls-5" d="M22.53,13.93a2.09,2.09,0,0,0,.38,0c0-.07-.18-.14-.27-.07A.27.27,0,0,0,22.53,13.93Z"/><path class="cls-5" d="M23,13.64l-.07.11a.83.83,0,0,0,.07.13,1.28,1.28,0,0,0,.11-.2Z"/><path class="cls-5" d="M23.39,13.67a.3.3,0,0,0-.27.07c-.1.11-.11.2,0,.26s.12.11.15.06,0-.13.1-.18S23.49,13.71,23.39,13.67Z"/><path class="cls-1" d="M23.45,13.85l-.15.21s.31.1.19.28c.12-.08.23-.29.14-.38A.58.58,0,0,0,23.45,13.85Z"/><path class="cls-6" d="M19.88,11.05s0,.57.23.77c-.16,0-.18,0-.18,0a2.75,2.75,0,0,0,.28.37c-.2.07-.24,0-.24,0l-.14-.31a.61.61,0,0,1-.36.49c-.06-.15-.17-.16-.22-.13s-.05-.27.06-.33c-.17.1-.3.25-.23.43s.1.27.23.31a.25.25,0,0,0,.32-.05c0-.07.09,0,.09,0s-.16.07,0,.14a3.19,3.19,0,0,0,.56.15l0,.18s.69,0,.75-.24c.1.21.22.24.22.24a1.93,1.93,0,0,0,0-.8C21.07,11.91,19.88,11.05,19.88,11.05Z"/><path class="cls-5" d="M19.93,11.24a.67.67,0,0,0,.34.62.42.42,0,0,0,0-.2Z"/><path class="cls-5" d="M20.38,11.8s-.05.54.2.71a1.7,1.7,0,0,0,.13-.45S20.39,11.86,20.38,11.8Z"/><path class="cls-5" d="M20.78,12.23a4.48,4.48,0,0,0,.33.74,2.53,2.53,0,0,0,0-.46Z"/><path class="cls-5" d="M20.75,12.34l.14.44-.63.24a.94.94,0,0,1,.26-.42A.74.74,0,0,0,20.75,12.34Z"/><path class="cls-5" d="M20.51,12.52a1.9,1.9,0,0,0-.14-.24c0-.06-.27-.06-.37,0a.34.34,0,0,0-.12.13,2.54,2.54,0,0,0,.36.19.47.47,0,0,0,.19,0Z"/><path class="cls-5" d="M20.39,12.68l-.13.14a5.49,5.49,0,0,1-.54-.14c-.09,0,0-.06.19-.08A1.56,1.56,0,0,1,20.39,12.68Z"/><polygon class="cls-5" points="20.03 12.53 19.86 12.46 19.76 12.58 20.03 12.53"/><path class="cls-5" d="M19.85,12s-.09.08,0,.12a.17.17,0,0,1,0,.2.12.12,0,0,0,.08-.14A.78.78,0,0,0,19.85,12Z"/><path class="cls-5" d="M19.8,12.17s-.12.08-.08.11.1.05.11,0S19.83,12.15,19.8,12.17Z"/><path class="cls-5" d="M19.66,12.3a.52.52,0,0,1-.15.11s0,0,.07.07.06.1.13,0a.63.63,0,0,0,.12-.15Z"/><path class="cls-5" d="M19.41,12.52s-.08,0-.06.08.09.09.15.06.07-.15.07-.15Z"/><path class="cls-5" d="M19.35,12.29s-.1-.06-.1,0,0,.09-.08.08-.09,0-.08,0,.06.22.15.19.22-.13.21-.17S19.38,12.3,19.35,12.29Z"/><path class="cls-1" d="M19.21,12s-.05.18,0,.24,0,.1-.09.07S19.06,12.14,19.21,12Z"/><path class="cls-6" d="M19.09,11.91s-.15-.14-.26-.05-.1.17-.1.17-.18-.06-.15.18a.17.17,0,0,0-.07.28,1.87,1.87,0,0,0,.15.27.24.24,0,0,0,.24.06,1.45,1.45,0,0,0,.37-.22S19,12.17,19.09,11.91Z"/><path class="cls-5" d="M19,11.9a.23.23,0,0,0-.19,0c-.07.06-.09.1-.06.18a.21.21,0,0,0,.1.13s-.05,0,0,.1.06.06.06.12,0,.15.08.11,0-.06,0-.14a.6.6,0,0,0,0-.21s0-.09,0-.13S19,11.9,19,11.9Z"/><path class="cls-5" d="M18.72,12.08s-.14,0-.11.09.11.11.13.17,0,.1,0,.13,0,.08,0,.11.18-.05.09-.11,0-.12-.08-.16S18.8,12.08,18.72,12.08Z"/><path class="cls-5" d="M18.6,12.27s-.1,0-.1.07.05.17.09.17-.06.07,0,.12.1.19.18.11,0-.15,0-.14,0-.13-.11-.15A.21.21,0,0,0,18.6,12.27Z"/><path class="cls-1" d="M18.87,12.72l.12,0-.18,0Z"/><polygon class="cls-1" points="18.9 12.63 18.97 12.58 19.07 12.71 18.9 12.63"/><path class="cls-1" d="M19,12.57l.06,0s0,.11.09.1S19.06,12.63,19,12.57Z"/></g></g></svg>