<svg xmlns="http://www.w3.org/2000/svg" viewBox="0 0 44.11 24.98"><defs><style>.cls-1{fill:#ef2525;}.cls-2{fill:none;}.cls-3{fill:#0da948;}.cls-4{fill:#191919;}</style></defs><title>morocco</title><g id="Layer_2" data-name="Layer 2"><g id="OBJECTS"><rect class="cls-1" width="44.11" height="24.98"/><polygon class="cls-2" points="24.56 16.65 23.93 14.7 22.91 15.44 24.56 16.65"/><polygon class="cls-2" points="19.55 16.65 21.21 15.44 20.19 14.7 19.55 16.65"/><polygon class="cls-2" points="22.06 8.95 21.43 10.89 22.69 10.89 22.06 8.95"/><polygon class="cls-2" points="23.01 11.89 21.1 11.89 20.51 13.71 22.06 14.83 23.61 13.71 23.01 11.89"/><polygon class="cls-2" points="18.01 11.89 19.66 13.09 20.05 11.89 18.01 11.89"/><polygon class="cls-2" points="26.11 11.89 24.06 11.89 24.45 13.09 26.11 11.89"/><polygon class="cls-3" points="23.61 13.71 22.06 14.83 21.21 15.44 19.55 16.65 20.19 14.7 19.34 14.09 17.66 19.25 22.06 16.06 22.91 15.44 23.93 14.7 23.61 13.71"/><path class="cls-4" d="M17.41,19.59l1.86-5.71,1.07.77-.54,1.66,3.87-2.81.41,1.25-1.95,1.41Zm2-5.3-1.5,4.62,5.87-4.26-.24-.74L19.31,17,20,14.75Z"/><polygon class="cls-3" points="20.51 13.71 19.66 13.09 18.01 11.89 20.05 11.89 20.38 10.89 14.94 10.89 19.34 14.09 20.19 14.7 21.21 15.44 22.06 14.83 20.51 13.71"/><path class="cls-4" d="M21.21,15.6l-6.67-4.84h6L20.15,12H18.41l3.87,2.81ZM15.34,11l5.87,4.26.63-.45-4.23-3.07H20L20.2,11Z"/><polygon class="cls-3" points="22.06 5.72 20.38 10.89 20.05 11.89 19.66 13.09 20.51 13.71 21.1 11.89 21.43 10.89 22.06 8.95 22.69 10.89 23.74 10.89 22.06 5.72"/><path class="cls-4" d="M20.58,13.91l-1.07-.77L22.06,5.3,23.92,11H22.6l-.54-1.66ZM19.82,13l.62.46,1.62-5,.72,2.23h.78l-1.5-4.62Z"/><polygon class="cls-3" points="29.17 10.89 23.74 10.89 22.69 10.89 21.43 10.89 21.1 11.89 23.01 11.89 24.06 11.89 26.11 11.89 24.45 13.09 24.77 14.08 24.77 14.08 29.17 10.89"/><path class="cls-4" d="M24.8,14.23l-.13,0L24.3,13l1.41-1H20.92l.41-1.26h8.24Zm-.2-1.09.24.74L28.77,11H21.52l-.24.74H26.5Z"/><polygon class="cls-3" points="24.77 14.09 24.77 14.08 24.77 14.08 24.77 14.09 24.45 13.09 24.06 11.89 23.01 11.89 23.61 13.71 23.93 14.7 24.56 16.65 22.91 15.44 22.06 16.06 26.45 19.25 24.77 14.09"/><path class="cls-4" d="M26.7,19.59l-4.86-3.53,1.07-.78,1.4,1-1.47-4.55h1.31L24.88,14,25,14l-.09.09Zm-4.42-3.53,3.93,2.85-1.49-4.58-.07.07v-.29L24,12h-.78l1.62,5-1.9-1.39Z"/></g></g></svg>