<svg xmlns="http://www.w3.org/2000/svg" viewBox="0 0 44.11 24.98"><defs><style>.cls-1{fill:#ef2525;}.cls-2{fill:#fff;}.cls-3{fill:#e1c210;}.cls-4{fill:#1ac636;}.cls-5{fill:#d91023;}.cls-6{fill:#007ea8;}.cls-7{fill:#00a52b;}.cls-8{fill:#9e692b;}.cls-9{fill:#fff3b6;}.cls-10{fill:#c6792c;}.cls-11{fill:#212121;}.cls-12{fill:#ffe6ea;}</style></defs><title>peru</title><g id="Layer_2" data-name="Layer 2"><g id="OBJECTS"><rect class="cls-1" width="44.11" height="24.98"/><rect class="cls-2" x="14.62" width="14.88" height="24.98"/><path class="cls-3" d="M22.45,9.74v0a2.27,2.27,0,0,0,1.34-1.22,1,1,0,0,0-.08-.82,1.91,1.91,0,0,0-1.31-.72V6.89a2,2,0,0,1,1.34.75,1,1,0,0,1,.08.85A2.28,2.28,0,0,1,22.45,9.74Z"/><path class="cls-4" d="M23.57,9.5s-.14-.1-.22-.09-.08.13-.16.09a.16.16,0,0,0-.19,0c-.06,0-.09,0-.13,0a1.72,1.72,0,0,0-.21.12,1,1,0,0,0,.23.05c.13,0,.16-.06.23,0s.1,0,.16,0S23.57,9.56,23.57,9.5Z"/><path class="cls-3" d="M22.93,9.69h0a.86.86,0,0,1-.23,0h0l0,0a2.18,2.18,0,0,1,.22-.12H23a.19.19,0,0,1,.11,0l.1,0h0s0,0,.05,0,0-.06.08-.06a.38.38,0,0,1,.22.09h0s0,0,0,0a.59.59,0,0,1-.28.1h-.16a.11.11,0,0,0-.08,0A.29.29,0,0,1,22.93,9.69Zm-.25-.07.21,0h0l.1,0,.06,0h.19a.56.56,0,0,0,.27-.1v0s-.14-.09-.21-.08-.05,0-.07.05,0,0-.06,0l0,0-.09,0-.09,0a.07.07,0,0,1-.06,0h-.08A1.21,1.21,0,0,0,22.68,9.62Z"/><path class="cls-4" d="M22.84,9.08a.38.38,0,0,1,0,.15s-.11,0-.09.09a.09.09,0,0,1,0,.12s0,.05,0,.08a1.13,1.13,0,0,1-.11.11.7.7,0,0,1,0-.16c0-.08.06-.08.06-.14s0-.05,0-.09S22.79,9.06,22.84,9.08Z"/><path class="cls-3" d="M22.6,9.65v0a.36.36,0,0,1,0-.16.19.19,0,0,1,0-.09s0,0,0-.05a.08.08,0,0,1,0-.06,0,0,0,0,0,0,0s.09-.17.15-.17h0a.4.4,0,0,1,0,.16s0,0-.06,0,0,0,0,0h0a.11.11,0,0,1,0,.13.06.06,0,0,0,0,.05,0,0,0,0,1,0,0s-.1.1-.12.12Zm.23-.56s-.12.12-.12.15l0,0a0,0,0,0,0,0,.05.09.09,0,0,1,0,.07.09.09,0,0,0,0,.07.82.82,0,0,0,0,.14c.05,0,.1-.08.1-.1v0a.06.06,0,0,1,0-.06.09.09,0,0,0,0-.11,0,0,0,0,1,0,0s0,0,0,0,0,0,.05,0a.35.35,0,0,0,0-.14Z"/><path class="cls-4" d="M23,8.92s.06.09,0,.14-.1,0-.07.1a.09.09,0,0,1,0,.12s0,.06,0,.09l-.1.13a1.12,1.12,0,0,1,0-.15c0-.09.05-.1,0-.15s0-.06,0-.1S23,8.91,23,8.92Z"/><path class="cls-3" d="M22.89,9.52v0a1.12,1.12,0,0,1,0-.15.22.22,0,0,1,0-.1s0,0,0-.05a.16.16,0,0,1,0-.07l0,0A.34.34,0,0,1,23,8.93s0,0,.05,0h0a.45.45,0,0,1,.06.15.1.1,0,0,1-.05.06s0,0,0,0v0a.09.09,0,0,1,0,.13s0,0,0,0a.06.06,0,0,1,0,0,1.7,1.7,0,0,1-.1.14ZM23,8.93h0a.31.31,0,0,0-.07.16s0,0,0,0a0,0,0,0,0,0,0,.06.06,0,0,1,0,.07.19.19,0,0,0,0,.08,1.06,1.06,0,0,0,0,.14A.57.57,0,0,0,23,9.36s0,0,0,0a0,0,0,0,1,0-.06s0-.07,0-.11,0,0,0,0,0,0,0,0,0,0,0,0S23,9,23,8.93Z"/><path class="cls-4" d="M23.16,8.85s.07.06.07.1-.07.06,0,.09a.07.07,0,0,1,0,.1s0,0,0,.06a.73.73,0,0,1-.05.12.62.62,0,0,1-.05-.11c0-.06,0-.08,0-.12s0-.05,0-.08S23.12,8.86,23.16,8.85Z"/><path class="cls-3" d="M23.16,9.34h0a.55.55,0,0,1,0-.12.08.08,0,0,1,0-.08s0,0,0,0a.05.05,0,0,1,0-.05V9a.24.24,0,0,1,0-.15l0,0h0s.07.07.07.11a0,0,0,0,1,0,.05l0,0h0c0,.05,0,.09,0,.11s0,0,0,0,0,0,0,0a1.12,1.12,0,0,1,0,.13Zm0-.48,0,0a.35.35,0,0,0,0,.13s0,0,0,0a.06.06,0,0,0,0,0,.06.06,0,0,1,0,.06s0,0,0,.06a.34.34,0,0,0,0,.1.49.49,0,0,0,0-.1h0a.11.11,0,0,1,0-.06.05.05,0,0,0,0-.08s0,0,0,0l0,0a.05.05,0,0,0,0,0A.24.24,0,0,0,23.16,8.86Z"/><path class="cls-4" d="M23.29,8.59s.1.07.11.11-.1.09,0,.12a.09.09,0,0,1,0,.12s0,.05,0,.08a1.16,1.16,0,0,1-.06.15A.4.4,0,0,1,23.26,9c0-.07,0-.11,0-.15s0-.06,0-.09S23.24,8.6,23.29,8.59Z"/><path class="cls-3" d="M23.34,9.19h0a.6.6,0,0,1-.08-.13.19.19,0,0,1,0-.1,0,0,0,0,0,0,0,.07.07,0,0,1,0-.07v0a.31.31,0,0,1,0-.18s0,0,0,0h0s.1.07.11.12a.1.1,0,0,1,0,.07s0,0,0,0h0a.09.09,0,0,1,0,.13,0,0,0,0,0,0,.05s0,0,0,0a1.66,1.66,0,0,1-.06.16Zm-.05-.59s0,0,0,0a.26.26,0,0,0,0,.16v0a.08.08,0,0,0,0,.06s0,0,0,.06a.1.1,0,0,0,0,.09.35.35,0,0,0,.07.11L23.39,9V9a.05.05,0,0,1,0-.07.07.07,0,0,0,0-.1l0,0s0,0,0-.05l0,0A.27.27,0,0,0,23.29,8.6Z"/><path class="cls-4" d="M23.22,8.33s.13,0,.16.05,0,.12,0,.13.09,0,.09.09.05,0,.07.06a.68.68,0,0,1,0,.17.51.51,0,0,1-.15-.08c-.07-.05,0-.1-.1-.12s0-.05-.07-.08S23.18,8.37,23.22,8.33Z"/><path class="cls-3" d="M23.62,8.85h0a.51.51,0,0,1-.15-.08.14.14,0,0,1-.06-.08s0,0,0,0a.16.16,0,0,1-.06-.05v0a.31.31,0,0,1-.09-.19s0,0,0,0h0a.34.34,0,0,1,.16,0,.08.08,0,0,1,0,.08s0,0,0,0h0c.08,0,.1.05.1.1s0,0,0,0l0,0a.65.65,0,0,1,0,.18Zm-.39-.51a0,0,0,0,0,0,0,.45.45,0,0,0,.08.17l0,0s0,0,0,0a.08.08,0,0,1,.05.05.12.12,0,0,0,0,.08l.12.07a.61.61,0,0,0,0-.15h0a.08.08,0,0,1-.05-.06s0-.07-.08-.08l0,0a0,0,0,0,1,0-.05s0,0,0-.06S23.27,8.35,23.23,8.34Z"/><path class="cls-4" d="M23.26,8.08s.14,0,.19,0,0,.15.06.14.1,0,.12.07.06,0,.09.05a1.32,1.32,0,0,1,.08.19.5.5,0,0,1-.18,0c-.1,0-.07-.11-.14-.11s-.06,0-.1-.06S23.22,8.15,23.26,8.08Z"/><path class="cls-3" d="M23.81,8.54h0a.5.5,0,0,1-.19,0,.11.11,0,0,1-.08-.07s0,0-.05,0h0a.09.09,0,0,1-.08,0,0,0,0,0,0,0,0,.4.4,0,0,1-.13-.17.11.11,0,0,1,0-.08h0l.13,0,.07,0s0,0,0,.09,0,0,0,0,0,0,0,0h0c.06,0,.08.05.09.09s0,0,.05,0h0a.82.82,0,0,1,.09.19Zm-.33-.17s.05,0,.07.05a.09.09,0,0,0,.07.06.9.9,0,0,0,.16,0,.6.6,0,0,0-.07-.17h0s-.06,0-.07,0-.05-.09-.11-.07h0s0,0,0-.07a.17.17,0,0,0,0-.07h-.06l-.12,0a.06.06,0,0,0,0,.06.3.3,0,0,0,.12.16l0,0a.07.07,0,0,0,.06,0Z"/><path class="cls-4" d="M23.24,7.9s.13-.06.19,0,0,.16.09.13.1,0,.13,0,.06,0,.09,0a1,1,0,0,1,.11.18.62.62,0,0,1-.18,0c-.1,0-.09-.1-.16-.08s-.06,0-.1-.05S23.22,8,23.24,7.9Z"/><path class="cls-3" d="M23.76,8.26h-.09a.16.16,0,0,1-.1-.06s0,0-.05,0h0a0,0,0,0,1,0,0l0,0S23.28,8,23.25,8a.13.13,0,0,1,0-.08h0a.33.33,0,0,1,.16-.05h0s0,.05,0,.08,0,.05,0,.05h.07c.05,0,.07,0,.09.07s0,0,0,0h0a.71.71,0,0,1,.12.18h-.1Zm-.23-.12s0,0,.06,0a.08.08,0,0,0,.08.05h.16a.55.55,0,0,0-.1-.16h0a.05.05,0,0,1-.05,0A.08.08,0,0,0,23.52,8h0s0,0-.05-.07,0-.06,0-.07h0a.46.46,0,0,0-.15,0,.14.14,0,0,0,0,.06c0,.06.11.13.14.13l0,0,0,0h0Z"/><path class="cls-4" d="M23.16,7.68s.11-.1.17-.08.05.15.11.1.1,0,.14,0,.07,0,.09,0a1.06,1.06,0,0,1,.15.14.45.45,0,0,1-.18,0c-.1,0-.11-.08-.17,0s-.07,0-.11,0S23.15,7.75,23.16,7.68Z"/><path class="cls-3" d="M23.63,7.93a.11.11,0,0,1-.09,0s0,0-.07,0h0l-.05,0h0a.42.42,0,0,1-.19-.11.08.08,0,0,1,0-.08h0a.29.29,0,0,1,.17-.09h0s.05,0,.06.08,0,0,0,0h0l.07,0a.13.13,0,0,1,.09,0s0,0,0,0h0s0,0,0,0a.71.71,0,0,1,.15.15h0a.4.4,0,0,1-.19,0Zm-.14-.08a.09.09,0,0,1,.06,0,.16.16,0,0,0,.09,0,.5.5,0,0,0,.16,0c-.05-.06-.11-.13-.13-.13h-.05l-.05,0c0-.06-.08-.06-.12,0h0s0,0-.05-.06,0,0,0,0h0a.41.41,0,0,0-.15.07.08.08,0,0,0,0,.05.31.31,0,0,0,.17.1l0,0h.09Z"/><path class="cls-4" d="M23,7.6s.09-.12.15-.13.09.14.13.08a.09.09,0,0,1,.14,0s.07,0,.1,0a1,1,0,0,1,.18.1,1,1,0,0,1-.16.09c-.09,0-.13,0-.18,0s-.07,0-.12,0S23,7.68,23,7.6Z"/><path class="cls-3" d="M23.31,7.73h-.08c-.07,0-.23,0-.24-.12h0s.09-.12.16-.13.05,0,.07.06l0,0h0a.15.15,0,0,1,.08,0l.08,0s0,0,.05,0l0,0h0a1.74,1.74,0,0,1,.19.1h0a1,1,0,0,1-.17.09h-.05l-.06,0h-.06Zm0,0h.09l0,0h.05l0,0h0l.15-.08a.7.7,0,0,0-.16-.09l0,0h-.08a.11.11,0,0,0-.07,0,.09.09,0,0,0-.06,0s0,0,0,0,0,0-.06,0a.07.07,0,0,0-.05,0S23,7.57,23,7.6s.14.1.21.1h0Z"/><path class="cls-4" d="M22.88,7.43s.09-.12.15-.12.09.13.13.07a.09.09,0,0,1,.14,0c.05,0,.07,0,.1,0a1,1,0,0,1,.18.1.54.54,0,0,1-.16.09c-.09,0-.13,0-.18,0s-.07,0-.12,0S22.89,7.51,22.88,7.43Z"/><path class="cls-3" d="M23.19,7.56h-.08c-.07,0-.23,0-.24-.12h0S23,7.3,23,7.3s0,0,.07,0l0,0h0s.05,0,.08,0a.13.13,0,0,1,.08,0,0,0,0,0,0,.05,0l0,0h0a1.74,1.74,0,0,1,.19.1h0a1,1,0,0,1-.17.09h-.11s0,0-.06,0Zm-.05,0h.09l0,0h0l.06,0h0a.4.4,0,0,0,.15-.08.57.57,0,0,0-.16-.08h0l0,0,0,0-.07,0a.07.07,0,0,0-.06,0l0,0s0,0-.06,0a.07.07,0,0,0,0,0s-.11.08-.14.12.15.09.22.09h0Z"/><path class="cls-4" d="M22.63,7.24s.08-.12.14-.12.09.13.14.07.09-.05.14,0,.07,0,.09,0a.85.85,0,0,1,.19.09.54.54,0,0,1-.16.09c-.1,0-.13,0-.18,0s-.07,0-.12,0S22.64,7.32,22.63,7.24Z"/><path class="cls-3" d="M22.94,7.37h-.09c-.06,0-.22,0-.23-.11h0s.09-.13.15-.13.06,0,.08,0,0,0,0,0h0s.05,0,.08,0l.08,0s0,0,.05,0l0,0h0a.85.85,0,0,1,.19.1h0a.54.54,0,0,1-.16.09h-.12s0,0-.06,0Zm-.05,0h.05l0,0,0,0,0,0h.1a.5.5,0,0,0,.15-.08l-.17-.08h0a.05.05,0,0,1,0,0l0,0-.06,0a.07.07,0,0,0-.06,0l0,0-.05,0,0,0c-.05,0-.11.08-.14.12s.15.09.21.09h0Z"/><path class="cls-4" d="M22.34,7.26s.05-.12.11-.14.11.08.14,0a.11.11,0,0,1,.13-.06c.06,0,.06,0,.09,0a.84.84,0,0,1,.19,0l-.13.12c-.09,0-.14,0-.17,0s-.07,0-.11,0S22.36,7.32,22.34,7.26Z"/><path class="cls-3" d="M22.45,7.31c-.05,0-.11,0-.12,0h0s.06-.13.12-.15h0a.15.15,0,0,1,.07,0l0,0s0,0,0,0a.12.12,0,0,1,.1-.06h.06s0,0,0,0l0,0h0l.18,0h0v0l-.14.12a.18.18,0,0,1-.11,0h0a.06.06,0,0,0-.05,0,.07.07,0,0,1-.07,0h0Zm-.1,0s0,0,.1,0l.13,0h.05s0,0,.06,0a.09.09,0,0,1,.06,0h0a.13.13,0,0,0,.1,0l.12-.1-.16,0h0l0,0a.06.06,0,0,1-.05,0h-.06a.1.1,0,0,0-.08,0s0,0,0,0l0,0s-.05,0-.07,0S22.37,7.23,22.35,7.26Z"/><path class="cls-4" d="M22.09,7.2s.05-.13.11-.15.11.09.14,0A.09.09,0,0,1,22.47,7c.06,0,.06,0,.09,0l.19,0a.46.46,0,0,1-.14.12c-.08.06-.13,0-.16,0s-.08,0-.11,0S22.11,7.26,22.09,7.2Z"/><path class="cls-3" d="M22.2,7.25s-.11,0-.12,0h0s.05-.13.11-.15h0l.07,0,0,0h0c0-.05.06-.07.1-.07h.06a.05.05,0,0,0,0,0l0,0h0l.18,0h0a.69.69,0,0,1-.14.12.18.18,0,0,1-.11,0h0s0,0-.05,0-.05,0-.07,0h0A.24.24,0,0,1,22.2,7.25Zm-.1,0s0,0,.1,0l.13,0,.05,0s0,0,.06,0,0,0,.06,0h0a.14.14,0,0,0,.1,0,.69.69,0,0,0,.12-.1l-.16,0h0a0,0,0,0,1-.05,0h-.06s-.06,0-.08.06l0,0,0,0s0,0-.06,0A.36.36,0,0,0,22.1,7.2Z"/><path class="cls-4" d="M24,9.12h-.17c-.08,0-.08.12-.15.08a.17.17,0,0,0-.18,0c-.06,0-.09,0-.12,0a1.9,1.9,0,0,0-.21.11,1.45,1.45,0,0,0,.23,0c.12,0,.14,0,.22,0s.09,0,.14,0S24,9.18,24,9.12Z"/><path class="cls-3" d="M23.39,9.37h0l-.23,0h0a1.34,1.34,0,0,1,.21-.11h0a.06.06,0,0,0,.07,0l.1,0,.09,0h0s0,0,0,0,0-.05.08-.05H24s0,0,0,.08-.16.13-.21.13h-.15a.11.11,0,0,0-.08,0A.2.2,0,0,1,23.39,9.37Zm-.23-.06.2,0h0l.09,0h.24a.37.37,0,0,0,.19-.12l0,0h-.16s0,0-.06,0,0,0-.06,0h0l-.08,0-.09,0-.05,0h-.07Z"/><path class="cls-4" d="M24.16,8.79l-.17,0c-.07,0-.06.13-.13.11a.15.15,0,0,0-.18,0c-.05,0-.08,0-.12,0a1,1,0,0,0-.18.14h.23c.12,0,.13-.08.21-.07S23.9,9,24,9,24.17,8.85,24.16,8.79Z"/><path class="cls-3" d="M23.52,9.15h-.17l0,0A1.56,1.56,0,0,1,23.56,9h.06a.06.06,0,0,0,.05,0,.17.17,0,0,1,.12-.06l.07,0s0,0,.06,0A.1.1,0,0,1,24,8.81l.17,0h0s0,.05,0,.09S24,9,24,9l-.05,0-.06,0h0a.06.06,0,0,0-.07,0,.22.22,0,0,1-.13,0Zm-.12,0h.21a.14.14,0,0,0,.11,0,.17.17,0,0,1,.1,0h0l0,0L24,9s.11-.08.16-.15a.15.15,0,0,0,0-.06l-.16,0s0,0,0,.06,0,0-.06,0h0a.12.12,0,0,0-.16,0l-.07,0h-.06A.79.79,0,0,0,23.4,9.12Z"/><path class="cls-4" d="M24.18,8.41,24,8.49c-.07,0,0,.14-.1.13a.17.17,0,0,0-.16.09s-.08,0-.11,0-.14.19-.14.19l.23-.06c.11,0,.1-.11.18-.12s.08,0,.12-.07S24.21,8.46,24.18,8.41Z"/><path class="cls-3" d="M23.5,9l0,0s.1-.16.13-.19h.05s0,0,.06,0a.19.19,0,0,1,.17-.09h0s0,0,0,0A.14.14,0,0,1,24,8.48l.16-.08h0a.17.17,0,0,1,0,.1c0,.08-.09.19-.13.2l0,0a.15.15,0,0,1-.09,0,.1.1,0,0,0-.07,0,.2.2,0,0,1-.11.08L23.53,9Zm.41-.33a.13.13,0,0,0-.13.09.08.08,0,0,1-.08,0h0l-.12.16a.67.67,0,0,0,.19,0,.35.35,0,0,0,.11-.07.1.1,0,0,1,.08-.06s.06,0,.07,0l.05,0a.37.37,0,0,0,.11-.18s0-.06,0-.08L24,8.5a.07.07,0,0,0,0,.06s0,.07-.07.07h0Z"/><path class="cls-4" d="M24.25,8.1l-.12.06c-.05,0,0,.13-.07.12a.11.11,0,0,0-.12.06c0,.05-.05,0-.08,0a1.46,1.46,0,0,0-.09.16.6.6,0,0,0,.17,0c.09,0,.08-.1.14-.1s.05,0,.09-.06A.31.31,0,0,0,24.25,8.1Z"/><path class="cls-3" d="M23.75,8.56v0s.07-.15.1-.16h0s0,0,0,0A.12.12,0,0,1,24,8.26h0s0,0,0,0,0-.06,0-.07l.11-.06h0s0,.12,0,.15a.35.35,0,0,1-.07.11l0,0s0,0-.07,0a0,0,0,0,0,0,0,.23.23,0,0,1-.09.07.81.81,0,0,1-.17,0ZM24,8.29a.08.08,0,0,0-.09.06.05.05,0,0,1-.06,0h0l-.08.14.15,0A.14.14,0,0,0,24,8.44s0,0,.07,0a.06.06,0,0,0,.05,0l0,0s0,0,0-.1a.2.2,0,0,0,0-.12l-.1.05s0,0,0,.06,0,.06-.05.06h0Z"/><path class="cls-4" d="M24.18,7.67l-.1.1s0,.12,0,.13A.11.11,0,0,0,24,8c0,.05-.05,0-.07.06s0,.18,0,.18L24,8.16c.07-.06,0-.12.1-.14s0,0,.07-.08A.36.36,0,0,0,24.18,7.67Z"/><path class="cls-3" d="M23.84,8.26v0a1.13,1.13,0,0,1,0-.18l0,0s0,0,0,0a.1.1,0,0,1,.1-.11h0v0s0-.06,0-.08l.1-.09h0a.27.27,0,0,1,0,.14.26.26,0,0,1,0,.14s0,0,0,0a.08.08,0,0,1-.06,0,.07.07,0,0,0,0,.05.14.14,0,0,1-.06.09.74.74,0,0,1-.15.08Zm.33-.57-.08.08a.06.06,0,0,0,0,.06s0,0,0,.06l0,0C24,7.92,24,8,24,8s0,.05,0,.06h0a.74.74,0,0,0,0,.16L24,8.15a.15.15,0,0,0,.05-.08s0-.05.05-.06a.11.11,0,0,0,0,0l0,0a.25.25,0,0,0,0-.12A.15.15,0,0,0,24.17,7.69Z"/><path class="cls-4" d="M24.05,7.34,24,7.45s.06.11,0,.13a.12.12,0,0,0-.07.12s0,0,0,.07a.65.65,0,0,0,0,.19L24,7.85c.07-.07,0-.12.08-.16s0-.06.06-.09A.36.36,0,0,0,24.05,7.34Z"/><path class="cls-3" d="M23.83,8V8a.61.61,0,0,1,0-.19l0,0a.06.06,0,0,0,0,0A.11.11,0,0,1,24,7.57s0,0,0,0,0,0,0,0,0,0,0-.08L24,7.33h0a.22.22,0,0,1,.06.14.32.32,0,0,1,0,.14l0,0a.09.09,0,0,1-.05.06s0,0,0,.06a.16.16,0,0,1-.05.09.83.83,0,0,1-.13.12Zm.22-.62L24,7.45a.07.07,0,0,0,0,.06.15.15,0,0,1,0,.06l0,0a.09.09,0,0,0-.07.1s0,0,0,.06,0,0,0,0a.62.62,0,0,0,0,.16l.12-.1a.18.18,0,0,0,0-.09.07.07,0,0,1,0-.07s0,0,0,0l0,0s0,0,0-.12A.23.23,0,0,0,24.05,7.36Z"/><path class="cls-4" d="M23.9,7.08l-.07.11s.07.11,0,.14a.1.1,0,0,0-.06.12s0,0-.05.08a.92.92,0,0,0,0,.18.83.83,0,0,0,.13-.12c.05-.08,0-.12.06-.16s0-.06,0-.1S24,7.11,23.9,7.08Z"/><path class="cls-3" d="M23.73,7.73h0a1.28,1.28,0,0,1,0-.19s0,0,0,0a.06.06,0,0,0,0,0,.1.1,0,0,1,.07-.13h0a.06.06,0,0,0,0,0s0-.06,0-.08l.07-.12h0s.07.11.08.13a.22.22,0,0,1,0,.14,0,0,0,0,0,0,0s0,0,0,.07,0,0,0,0a.15.15,0,0,1,0,.11.59.59,0,0,1-.12.12Zm.17-.64-.06.11s0,0,0,.06,0,0,0,0,0,0,0,0a.08.08,0,0,0-.06.11s0,0,0,.07h0s0,.1,0,.16a.56.56,0,0,0,.11-.11.16.16,0,0,0,0-.09.07.07,0,0,1,0-.07s0,0,0,0a.06.06,0,0,1,0,0,.17.17,0,0,0,0-.12A.27.27,0,0,0,23.9,7.09Z"/><path class="cls-4" d="M23.74,6.91a.52.52,0,0,0,0,.12s.08.1,0,.14-.06.07-.05.12,0,.06,0,.09a.74.74,0,0,0,0,.18.88.88,0,0,0,.11-.14c0-.08,0-.12,0-.16s0-.07,0-.1A.35.35,0,0,0,23.74,6.91Z"/><path class="cls-3" d="M23.65,7.58v0a.58.58,0,0,1,0-.19l0,0s0,0,0,0a.1.1,0,0,1,.05-.14s0,0,0,0,0,0,0,0,0-.05,0-.08a.59.59,0,0,1,.06-.12h0a.28.28,0,0,1,.09.13.21.21,0,0,1,0,.13s0,0,0,0a.08.08,0,0,1,0,.07s0,0,0,.05a.16.16,0,0,1,0,.11.88.88,0,0,1-.11.14Zm.09-.65,0,.1s0,0,0,.06a.14.14,0,0,1,0,.06s0,0,0,0-.05.06,0,.11a.07.07,0,0,1,0,.07l0,0s0,.1,0,.16l.09-.12a.13.13,0,0,0,0-.1.1.1,0,0,1,0-.07.06.06,0,0,0,0-.06.08.08,0,0,1,0,0s0-.06,0-.12A.21.21,0,0,0,23.74,6.93Z"/><path class="cls-4" d="M23.59,6.76a.38.38,0,0,0-.05.11c0,.06.08.1,0,.14a.1.1,0,0,0,0,.13c0,.05,0,.05,0,.08a.74.74,0,0,0,0,.18.6.6,0,0,0,.11-.13c.05-.08,0-.13,0-.17s0-.06,0-.1A.33.33,0,0,0,23.59,6.76Z"/><path class="cls-3" d="M23.5,7.42h0a1.25,1.25,0,0,1,0-.19s0,0,0,0,0,0,0-.05,0-.1.05-.14h0s0,0,0,0a.08.08,0,0,1,0-.08l.06-.12h0s.08.09.09.12a.22.22,0,0,1,0,.13.08.08,0,0,0,0,0,.08.08,0,0,1,0,.07s0,0,0,.06a.1.1,0,0,1,0,.1.88.88,0,0,1-.11.14Zm.09-.65a.66.66,0,0,0,0,.11.07.07,0,0,0,0,.06.05.05,0,0,1,0,0l0,0a.09.09,0,0,0,0,.11.07.07,0,0,1,0,.07l0,0a.69.69,0,0,0,0,.16l.09-.12a.18.18,0,0,0,0-.09.12.12,0,0,1,0-.08s0,0,0,0a.11.11,0,0,1,0,0s0-.06,0-.11A.72.72,0,0,0,23.59,6.77Z"/><path class="cls-4" d="M23.38,6.59a1.06,1.06,0,0,0-.05.12s.08.1,0,.13a.09.09,0,0,0,0,.13s0,.06,0,.08a.84.84,0,0,0,0,.19.88.88,0,0,0,.11-.14c0-.08,0-.12,0-.16s0-.07,0-.11S23.44,6.61,23.38,6.59Z"/><path class="cls-3" d="M23.29,7.26v0a.63.63,0,0,1,0-.19l0,0a0,0,0,0,0,0,0,.12.12,0,0,1,.06-.14h0s0,0,0,0a.11.11,0,0,1,0-.08l.05-.12h0s.07.1.08.12a.27.27,0,0,1,0,.14,0,0,0,0,0,0,0s0,0,0,.07a.13.13,0,0,0,0,.06.2.2,0,0,1,0,.1.88.88,0,0,1-.11.14Zm.1-.66-.05.11a.14.14,0,0,0,0,.06s0,0,0,.05,0,0,0,0a.09.09,0,0,0,0,.12s0,0,0,.07v0s0,.09,0,.15a.44.44,0,0,0,.1-.12.16.16,0,0,0,0-.09s0,0,0-.07a.07.07,0,0,0,0-.06.06.06,0,0,0,0,0s0-.06,0-.12A.36.36,0,0,0,23.39,6.6Z"/><path class="cls-4" d="M23,6.5a1.09,1.09,0,0,0,0,.13c0,.06.11.07.07.12a.11.11,0,0,0,0,.14s0,.06,0,.09a.76.76,0,0,0,.09.16A1,1,0,0,0,23.2,7c0-.09,0-.11,0-.16s0-.07,0-.11S23.07,6.5,23,6.5Z"/><path class="cls-3" d="M23.15,7.16h0A.7.7,0,0,1,23.05,7s0,0,0,0a0,0,0,0,0,0-.05.11.11,0,0,1,0-.15h0s0,0,0,0-.05,0-.05-.07a1.09,1.09,0,0,1,0-.13h0s.1.07.12.09a.27.27,0,0,1,.06.12,0,0,0,0,0,0,0,.12.12,0,0,1,0,.08.06.06,0,0,0,0,.06.13.13,0,0,1,0,.11.46.46,0,0,1-.05.16ZM23,6.51v.12s0,0,0,0,0,0,0,0a.06.06,0,0,1,0,0,.08.08,0,0,0,0,.12.06.06,0,0,1,0,.07,0,0,0,0,0,0,0l.08.14a1,1,0,0,0,0-.15.13.13,0,0,0,0-.09s0,0,0-.08a.15.15,0,0,0,0-.06.07.07,0,0,1,0,0,.29.29,0,0,0-.06-.1A.31.31,0,0,0,23,6.51Z"/><path class="cls-4" d="M22.79,6.42a1.09,1.09,0,0,0,0,.13c0,.06.11.07.07.12a.1.1,0,0,0,0,.14s0,.06,0,.09a.79.79,0,0,0,.08.16A.64.64,0,0,0,23,6.9c0-.1,0-.12,0-.17s0-.07,0-.11S22.85,6.42,22.79,6.42Z"/><path class="cls-3" d="M22.93,7.08h0s-.08-.14-.09-.17,0,0,0,0,0,0,0-.05a.12.12,0,0,1,0-.15h0s0,0,0,0-.05,0-.05-.07a1.09,1.09,0,0,1,0-.13h0c.05,0,.1.07.12.09a.22.22,0,0,1,.07.12v0a.08.08,0,0,1,0,.08.07.07,0,0,0,0,.06.19.19,0,0,1,0,.11.57.57,0,0,1-.06.17Zm-.13-.65s0,.08,0,.12,0,0,0,0,0,0,0,0,0,0,0,0,0,.08,0,.12a.1.1,0,0,1,0,.07,0,0,0,0,0,0,0l.07.14,0-.15a.13.13,0,0,0,0-.09.11.11,0,0,1,0-.08s0,0,0-.06v0s0-.06-.06-.11A.3.3,0,0,0,22.8,6.43Z"/><path class="cls-4" d="M22.38,6.48s0,.07,0,.12.13,0,.11.08a.1.1,0,0,0,0,.13c.05,0,0,.06,0,.09a1.12,1.12,0,0,0,.15.11s0-.08,0-.17-.09-.09-.09-.15,0-.06,0-.11S22.44,6.45,22.38,6.48Z"/><path class="cls-3" d="M22.77,7h0a1.58,1.58,0,0,1-.15-.12v0s0,0,0,0a.12.12,0,0,1-.06-.14v0l0,0a.09.09,0,0,1-.07,0l0-.12h0a.36.36,0,0,1,.23.12l0,0a.15.15,0,0,1,0,.08s0,0,0,0a.16.16,0,0,1,.06.09c0,.1,0,.18,0,.18Zm-.37-.55a.37.37,0,0,0,0,.11s0,0,0,0,0,0,.05,0,0,0,0,0a.09.09,0,0,0,.05.11.07.07,0,0,1,0,.07v0a1,1,0,0,0,.13.1.47.47,0,0,0,0-.15.14.14,0,0,0,0-.08.1.1,0,0,1,0-.07s0-.05,0-.06l0,0s-.14-.11-.21-.11Z"/><path class="cls-4" d="M22.13,6.6l.06.1s.12,0,.11,0a.08.08,0,0,0,.07.09c.05,0,0,0,0,.07a.82.82,0,0,0,.16.06.8.8,0,0,0,0-.15c0-.07-.09,0-.1-.1s0,0-.05-.08A.35.35,0,0,0,22.13,6.6Z"/><path class="cls-3" d="M22.59,7h0s-.15,0-.16-.06a0,0,0,0,1,0,0s0,0,0,0a.09.09,0,0,1-.08-.1s0,0,0,0,0,0,0,0h0s0,0-.05,0a.43.43,0,0,1-.06-.09h0s0,0,.08,0a.3.3,0,0,1,.18,0l0,0a.1.1,0,0,1,0,.06s0,0,0,0a.1.1,0,0,1,.07.07.54.54,0,0,1,0,.15Zm-.31-.27h0a0,0,0,0,1,0,0c0,.06,0,.07.05.08a.06.06,0,0,1,.05,0v0l.14.05s0-.07,0-.12a.07.07,0,0,0-.06-.06s0,0,0,0,0,0,0,0,0,0,0,0a.26.26,0,0,0-.16,0h-.06l.05.08h.08Z"/><path class="cls-4" d="M21.91,6.79l.09.06s.11-.07.12,0a.08.08,0,0,0,.1.06c.05,0,.05,0,.07,0a.7.7,0,0,0,.16,0,.38.38,0,0,0-.09-.11c-.06-.06-.11,0-.13-.06s-.05,0-.08,0A.33.33,0,0,0,21.91,6.79Z"/><path class="cls-3" d="M22.31,7h0s0,0,0,0,0,0,0,0h0a.09.09,0,0,1-.09-.06s0,0,0,0l0,0-.05,0h0l-.1-.06h0a.36.36,0,0,1,.22-.08h.06s0,0,.06,0l0,0a.12.12,0,0,1,.09,0,.36.36,0,0,1,.09.12h-.15Zm-.07-.07s0,0,0,0h0s0,0,0,0h.13a.41.41,0,0,0-.09-.1.07.07,0,0,0-.07,0,.07.07,0,0,1-.06,0s0,0,0,0l0,0h0a.29.29,0,0,0-.19.07l.08,0s0,0,0,0l0,0a0,0,0,0,1,0,0s0,0,.07,0h0Z"/><path class="cls-3" d="M21.72,9.74a2.31,2.31,0,0,1-1.37-1.25,1,1,0,0,1,.08-.85,2,2,0,0,1,1.35-.75v.05a1.91,1.91,0,0,0-1.31.72,1,1,0,0,0-.07.82A2.24,2.24,0,0,0,21.74,9.7Z"/><path class="cls-4" d="M20.61,9.5s.14-.1.22-.09.08.13.15.09a.16.16,0,0,1,.19,0c.06,0,.09,0,.13,0a1.72,1.72,0,0,1,.21.12.86.86,0,0,1-.23.05c-.13,0-.15-.06-.23,0s-.1,0-.16,0S20.6,9.56,20.61,9.5Z"/><path class="cls-3" d="M21.25,9.69a.24.24,0,0,1-.11,0,.14.14,0,0,0-.09,0h-.16a.59.59,0,0,1-.28-.1s0,0,0,0h0a.42.42,0,0,1,.23-.09s.06,0,.08.06a.05.05,0,0,0,0,0h0l.09,0a.17.17,0,0,1,.11,0h.12a2.18,2.18,0,0,1,.22.12l0,0h0a1,1,0,0,1-.24,0Zm-.17-.07.07,0,.1,0h0l.21,0a1.21,1.21,0,0,0-.19-.1h-.08a.06.06,0,0,1,0,0l-.1,0L21,9.5l0,0s0,0-.06,0,0-.05-.07-.05-.18.07-.2.08v0a.56.56,0,0,0,.26.1h.19Z"/><path class="cls-4" d="M21.34,9.08s-.05.1,0,.15.1,0,.08.09a.09.09,0,0,0,0,.12s0,.05,0,.08a1.1,1.1,0,0,0,.12.11.7.7,0,0,0,0-.16c0-.08-.07-.08-.06-.14s0-.05,0-.09S21.38,9.06,21.34,9.08Z"/><path class="cls-3" d="M21.58,9.65h0s-.11-.09-.12-.12v0a.06.06,0,0,0,0-.05.11.11,0,0,1,0-.13h0l0,0s-.05,0-.06,0a.4.4,0,0,1,0-.16h0c.06,0,.14.13.15.17v0a.06.06,0,0,1,0,.06.06.06,0,0,0,0,.05.39.39,0,0,1,0,.09.7.7,0,0,1,0,.16Zm-.24-.56a.34.34,0,0,0,0,.14s0,0,0,0,0,0,0,0a0,0,0,0,1,0,0,.09.09,0,0,0,0,.11.07.07,0,0,1,0,.06v0s.06.06.1.1V9.47s0-.06,0-.07,0,0,0-.07a.2.2,0,0,0,0-.05.05.05,0,0,1,0,0s-.08-.15-.13-.15Z"/><path class="cls-4" d="M21.15,8.92s-.07.09-.06.14.1,0,.07.1a.09.09,0,0,0,0,.12s0,.06,0,.09a.73.73,0,0,0,.09.13.43.43,0,0,0,0-.15c0-.09-.05-.1,0-.15s0-.06,0-.1S21.2,8.91,21.15,8.92Z"/><path class="cls-3" d="M21.28,9.52h0s-.09-.11-.09-.14,0,0,0,0,0,0,0,0a.12.12,0,0,1,0-.13s0,0,0,0a0,0,0,0,0,0,0s-.05,0-.05-.06.06-.15.06-.15h0s0,0,0,0a.37.37,0,0,1,.08.17,0,0,0,0,0,0,0,.08.08,0,0,1,0,.07s0,0,0,.05a.14.14,0,0,1,0,.1.61.61,0,0,1,0,.15Zm-.13-.59a.29.29,0,0,0,0,.13s0,0,0,0l0,0a.06.06,0,0,1,0,0s0,.07,0,.11a0,0,0,0,1,0,.06v0a.4.4,0,0,0,.08.12.46.46,0,0,0,0-.14.19.19,0,0,0,0-.08.08.08,0,0,1,0-.07s0,0,0,0,0,0,0,0a.43.43,0,0,0-.07-.16Z"/><path class="cls-4" d="M21,8.85s-.07.06-.07.1S21,9,21,9a.08.08,0,0,0,0,.1s0,0,0,.06a.67.67,0,0,0,.06.12.62.62,0,0,0,.05-.11c0-.06,0-.08,0-.12s0-.05,0-.08S21.06,8.86,21,8.85Z"/><path class="cls-3" d="M21,9.34h0A.49.49,0,0,1,21,9.2v0s0,0,0,0A.09.09,0,0,1,21,9h0l0,0a.06.06,0,0,1,0-.05s.07-.1.08-.11h0l0,0a.22.22,0,0,1,0,.15V9s0,0,0,.05v0a.11.11,0,0,1,0,.08.55.55,0,0,1,0,.12Zm0-.48S21,8.93,21,9s0,0,0,0l0,0a0,0,0,0,1,0,0s0,0,0,.08a0,0,0,0,1,0,.06h0a.29.29,0,0,0,.05.1l0-.1a.13.13,0,0,0,0-.06s0,0,0-.06,0,0,0,0V9a.35.35,0,0,0,0-.13S21,8.87,21,8.86Z"/><path class="cls-4" d="M20.88,8.59s-.1.07-.1.11.09.09,0,.12a.08.08,0,0,0,0,.12s0,.05,0,.08.06.15.06.15A.8.8,0,0,0,20.92,9c0-.07,0-.11,0-.15s0-.06,0-.09S20.94,8.6,20.88,8.59Z"/><path class="cls-3" d="M20.83,9.19h0A.71.71,0,0,1,20.76,9s0,0,0,0,0,0,0-.05a.09.09,0,0,1,0-.13h0s0,0,0,0a.1.1,0,0,1,0-.07s.11-.11.12-.12h0a.07.07,0,0,1,.05,0,.3.3,0,0,1,0,.18v0a.06.06,0,0,1,0,.07s0,0,0,0a.16.16,0,0,1,0,.1.48.48,0,0,1-.09.13Zm.05-.59s-.09.07-.09.11,0,0,0,0,0,0,0,.05a0,0,0,0,1,0,0s0,.06,0,.1,0,.06,0,.07V9s0,.07.05.13A.91.91,0,0,0,20.9,9a.15.15,0,0,0,0-.09s0,0,0-.06,0,0,0-.06v0a.24.24,0,0,0,0-.16Z"/><path class="cls-4" d="M21,8.33a.34.34,0,0,0-.16.05s0,.12,0,.13a.1.1,0,0,0-.09.09c0,.05-.05,0-.06.06a.68.68,0,0,0,0,.17.42.42,0,0,0,.14-.08c.08-.05,0-.1.1-.12s0-.05.07-.08S21,8.37,21,8.33Z"/><path class="cls-3" d="M20.55,8.85v0a1.67,1.67,0,0,1,.05-.18l0,0a0,0,0,0,0,0,0s0-.09.1-.1h0s0,0,0,0,0-.06,0-.08a.35.35,0,0,1,.17,0h0a.07.07,0,0,1,0,0,.31.31,0,0,1-.08.19l0,0a.16.16,0,0,1-.06.05s0,0,0,0a.14.14,0,0,1-.06.08.51.51,0,0,1-.15.08Zm.39-.51s-.12,0-.14.05,0,0,0,.06a0,0,0,0,1,0,.05s0,0,0,0-.07,0-.08.08,0,.05-.05.06h0a.48.48,0,0,0,0,.15l.13-.07a.18.18,0,0,0,.05-.08s0,0,0-.05l0,0s0,0,0,0A.27.27,0,0,0,21,8.37,0,0,0,0,0,20.94,8.34Z"/><path class="cls-4" d="M20.91,8.08s-.14,0-.19,0,0,.15-.06.14-.1,0-.12.07-.06,0-.08.05a.71.71,0,0,0-.08.19.54.54,0,0,0,.18,0c.09,0,.07-.11.14-.11s.05,0,.09-.06S21,8.15,20.91,8.08Z"/><path class="cls-3" d="M20.36,8.54v0a.52.52,0,0,1,.08-.19h0s0,0,0,0a.11.11,0,0,1,.1-.09h0s0,0,0,0,0,0,0,0,0-.08,0-.09l.06,0,.14,0h0s0,0,0,.08a.5.5,0,0,1-.13.17s0,0,0,0a.07.07,0,0,1-.07,0h0s0,0-.05,0,0,.06-.09.07a.5.5,0,0,1-.18,0Zm.27-.32s-.06,0-.08.08a.05.05,0,0,1-.06,0h0a1.26,1.26,0,0,0-.07.17.73.73,0,0,0,.16,0,.11.11,0,0,0,.08-.06.07.07,0,0,1,.07-.05h0a0,0,0,0,0,.05,0l0,0a.36.36,0,0,0,.11-.16.06.06,0,0,0,0-.06l-.12,0h-.05a.1.1,0,0,0,0,.07s0,.06,0,.07h-.07Z"/><path class="cls-4" d="M20.93,7.9s-.13-.06-.19,0,0,.16-.08.13a.09.09,0,0,0-.13,0c0,.06-.07,0-.09,0a1.11,1.11,0,0,0-.12.18.69.69,0,0,0,.19,0c.09,0,.09-.1.15-.08s.06,0,.11-.05S21,8,20.93,7.9Z"/><path class="cls-3" d="M20.41,8.26h-.1a.71.71,0,0,1,.12-.18h.05s0,0,0,0A.09.09,0,0,1,20.61,8h.07s0,0,0-.05,0-.07,0-.08h0a.29.29,0,0,1,.16.05h0a.12.12,0,0,1,0,.08c0,.06-.13.14-.16.14l0,0a.07.07,0,0,1-.06,0h0s0,0-.05,0a.19.19,0,0,1-.1.06Zm-.07,0h.16a.11.11,0,0,0,.09-.05s0,0,.07,0h0l0,0,0,0s.11-.07.15-.13a.13.13,0,0,0,0-.06.46.46,0,0,0-.15,0h0a.08.08,0,0,0,0,.07s0,.07,0,.07h0s-.08,0-.11.05a.07.07,0,0,1-.06,0h0A.93.93,0,0,0,20.34,8.24Z"/><path class="cls-4" d="M21,7.68s-.12-.1-.18-.08,0,.15-.11.1-.1,0-.14,0-.06,0-.09,0a1.06,1.06,0,0,0-.15.14.51.51,0,0,0,.18,0c.1,0,.11-.08.17,0s.07,0,.12,0S21,7.75,21,7.68Z"/><path class="cls-3" d="M20.54,7.93h0a.31.31,0,0,1-.18,0h0a.57.57,0,0,1,.16-.15s0,0,0,0h0l0,0s0,0,.08,0l.07,0h0s0,0,0,0,0-.07.06-.08h0a.29.29,0,0,1,.16.09h0a.13.13,0,0,1,0,.08.46.46,0,0,1-.18.11h0a.05.05,0,0,1,0,0h0a.07.07,0,0,0-.06,0A.13.13,0,0,1,20.54,7.93Zm-.17,0a.5.5,0,0,0,.16,0,.2.2,0,0,0,.1,0,.05.05,0,0,1,.05,0h.09l.05,0a.29.29,0,0,0,.16-.1.09.09,0,0,0,0-.05.52.52,0,0,0-.15-.07h0s0,0-.05,0,0,.06,0,.06h0a.08.08,0,0,0-.13,0l0,0H20.5A1.43,1.43,0,0,0,20.37,7.88Z"/><path class="cls-4" d="M21.17,7.6s-.08-.12-.14-.13-.09.14-.14.08a.09.09,0,0,0-.14,0c-.05,0-.06,0-.09,0a.82.82,0,0,0-.19.1.89.89,0,0,0,.17.09c.09,0,.12,0,.17,0s.08,0,.12,0S21.16,7.68,21.17,7.6Z"/><path class="cls-3" d="M20.86,7.73s0,0-.05,0h-.06l-.07,0h-.05a.54.54,0,0,1-.16-.09h0a.85.85,0,0,1,.19-.1l0,0s0,0,0,0l.08,0s.05,0,.08,0h0l0,0s.05-.06.08-.06.14.12.15.13h0c0,.08-.17.12-.23.12h-.09Zm-.08-.06,0,0H21c.06,0,.19,0,.21-.1s-.09-.11-.13-.11h0s0,0-.06,0,0,0,0,0,0,0,0,0l-.06,0a.07.07,0,0,0-.06,0h-.08l0,0a.71.71,0,0,0-.17.09l.15.08h0l.06,0Z"/><path class="cls-4" d="M21.29,7.43s-.09-.12-.14-.12-.09.13-.14.07a.09.09,0,0,0-.14,0c-.05,0-.06,0-.09,0a1.09,1.09,0,0,0-.19.1.52.52,0,0,0,.17.09c.09,0,.12,0,.17,0s.08,0,.12,0S21.28,7.51,21.29,7.43Z"/><path class="cls-3" d="M21,7.56l-.05,0s0,0-.06,0h-.12a.54.54,0,0,1-.16-.09h0a.85.85,0,0,1,.19-.1l0,0s0,0,.05,0l.08,0s0,0,.08,0h0l0,0s.05-.06.08,0,.14.11.15.13h0c0,.08-.17.12-.23.12H21ZM20.9,7.5a.05.05,0,0,1,0,0H21s0,0,.05,0h0c.06,0,.19,0,.21-.09s-.09-.12-.13-.12h0s0,0-.06,0,0,0-.05,0l0,0a.07.07,0,0,0-.06,0l-.06,0,0,0,0,0h0a.59.59,0,0,0-.17.08.68.68,0,0,0,.15.08h0l.06,0Z"/><path class="cls-4" d="M21.54,7.24s-.08-.12-.14-.12-.09.13-.14.07-.09-.05-.14,0-.06,0-.09,0a1,1,0,0,0-.18.09.54.54,0,0,0,.16.09c.09,0,.13,0,.18,0s.07,0,.11,0S21.54,7.32,21.54,7.24Z"/><path class="cls-3" d="M21.23,7.37l-.05,0s0,0-.06,0H21a.52.52,0,0,1-.17-.09h0s.15-.1.19-.1l0,0s0,0,.06,0l.07,0a.1.1,0,0,1,.08,0h0s0,0,0,0,.05-.06.08,0,.14.11.15.13h0c0,.07-.17.11-.23.11h-.09Zm-.08-.06a.05.05,0,0,1,0,0l0,0h.09c.06,0,.2,0,.21-.09s-.09-.12-.13-.12h0s0,0-.06,0,0,0-.05,0l0,0a.09.09,0,0,0-.07,0l-.06,0,0,0a.05.05,0,0,1,0,0h0l-.16.08a.43.43,0,0,0,.14.08h.1Z"/><path class="cls-4" d="M21.84,7.26s-.06-.12-.12-.14-.1.08-.14,0a.11.11,0,0,0-.13-.06c-.05,0-.06,0-.08,0a.94.94,0,0,0-.2,0l.14.12c.08,0,.13,0,.17,0s.07,0,.11,0S21.81,7.32,21.84,7.26Z"/><path class="cls-3" d="M21.72,7.31h0l-.14,0h0a.08.08,0,0,1-.07,0s0,0,0,0h0a.18.18,0,0,1-.11,0l-.14-.12v0h0l.18,0h0l0,0,0,0h.06a.1.1,0,0,1,.1.06l0,0h0l0,0,.06,0h0c.06,0,.11.14.12.15h0S21.77,7.31,21.72,7.31Zm-.29-.11a.09.09,0,0,1,.06,0,.05.05,0,0,0,.05,0h.05l.13,0c.05,0,.09,0,.1,0s-.06-.12-.1-.13,0,0-.06,0l-.05,0h0s0,0,0,0a.09.09,0,0,0-.08,0h-.06a.09.09,0,0,1-.05,0s0,0,0,0h0l-.16,0,.13.1a.11.11,0,0,0,.09,0Z"/><path class="cls-4" d="M22.09,7.2S22,7.07,22,7.05s-.11.09-.15,0A.09.09,0,0,0,21.7,7c-.05,0-.06,0-.08,0l-.2,0a.69.69,0,0,0,.14.12c.08.06.13,0,.17,0s.07,0,.1,0S22.06,7.26,22.09,7.2Z"/><path class="cls-3" d="M22,7.25h0a.24.24,0,0,1-.14,0h0a.17.17,0,0,1-.07,0s0,0,0,0h0a.18.18,0,0,1-.11,0A1.31,1.31,0,0,1,21.41,7h0l.18,0h0l0,0,0,0h.06a.1.1,0,0,1,.1.07h0l0,0L22,7h0c.06,0,.11.15.12.15h0S22,7.25,22,7.25Zm-.29-.11a.07.07,0,0,1,.06,0,.05.05,0,0,0,.05,0l.05,0,.13,0c.05,0,.09,0,.1,0a.28.28,0,0,0-.1-.14s0,0-.06,0l-.05,0h0l0,0s0-.06-.08-.06h-.06a.05.05,0,0,1-.05,0h0l-.15,0a.32.32,0,0,0,.12.1.12.12,0,0,0,.09,0Z"/><path class="cls-4" d="M20.21,9.12h.17c.08,0,.08.12.16.08a.15.15,0,0,1,.17,0c.06,0,.09,0,.13,0l.2.11a1.2,1.2,0,0,1-.22,0c-.12,0-.15,0-.22,0s-.09,0-.15,0S20.21,9.18,20.21,9.12Z"/><path class="cls-3" d="M20.79,9.37a.29.29,0,0,1-.11,0,.11.11,0,0,0-.08,0h-.15c-.05,0-.15-.08-.21-.13s0-.06,0-.08h.19a.09.09,0,0,1,.07.05s0,0,.05,0h0l.09,0,.1,0a.06.06,0,0,0,.07,0h.05a2,2,0,0,1,.21.11h0l-.22,0Zm-.16-.06h.06l.1,0h0l.19,0-.17-.1h-.08l-.05,0-.09,0-.08,0h0a.07.07,0,0,1-.06,0,.1.1,0,0,0-.07,0h-.16l0,0a.4.4,0,0,0,.19.13h.18Z"/><path class="cls-4" d="M20,8.79l.16,0c.08,0,.06.13.14.11a.13.13,0,0,1,.17,0c.05,0,.09,0,.12,0a1,1,0,0,1,.18.14h-.22c-.12,0-.14-.08-.21-.07s-.09,0-.15,0S20,8.85,20,8.79Z"/><path class="cls-3" d="M20.65,9.15h-.08a.18.18,0,0,1-.13,0,.08.08,0,0,0-.08,0h0l-.07,0-.05,0S20.08,9,20,8.88a.16.16,0,0,1,0-.09h0l.17,0a.11.11,0,0,1,.06.07s0,0,.06,0l.07,0A.16.16,0,0,1,20.5,9a.06.06,0,0,0,.05,0h.07a.94.94,0,0,1,.18.14l0,0h-.17Zm-.28-.1a.19.19,0,0,1,.08,0,.19.19,0,0,0,.12,0h.2A.79.79,0,0,0,20.61,9h-.06l-.06,0a.13.13,0,0,0-.17,0h0s-.05,0-.07,0,0-.05-.05-.06l-.15,0a.1.1,0,0,0,0,.06c.05.07.13.15.16.15l.06,0,.06,0h0Z"/><path class="cls-4" d="M20,8.41l.16.08c.06,0,0,.14.1.13a.16.16,0,0,1,.15.09s.08,0,.11,0a1.26,1.26,0,0,1,.14.19l-.22-.06c-.12,0-.11-.11-.18-.12s-.08,0-.13-.07S20,8.46,20,8.41Z"/><path class="cls-3" d="M20.67,9h0l-.23-.06a.24.24,0,0,1-.11-.08s0,0-.07,0a.15.15,0,0,1-.09,0l0,0S20,8.58,20,8.5a.12.12,0,0,1,0-.1h0l.15.08s0,0,.05.08,0,0,0,0h0a.17.17,0,0,1,.16.09.06.06,0,0,0,.07,0h0s.13.18.14.19ZM20,8.42a.28.28,0,0,0,0,.08c0,.07.08.17.11.18l.05,0a.09.09,0,0,0,.08,0,.12.12,0,0,1,.08.06.21.21,0,0,0,.1.07l.19,0-.11-.16h0a.09.09,0,0,1-.08,0,.14.14,0,0,0-.14-.09c-.06,0-.06,0-.07-.07s0-.05,0-.06Z"/><path class="cls-4" d="M19.93,8.1l.11.06c.05,0,0,.13.07.12a.1.1,0,0,1,.12.06c0,.05.06,0,.08,0a.68.68,0,0,1,.09.16.6.6,0,0,1-.17,0c-.09,0-.07-.1-.13-.1s-.06,0-.1-.06A.3.3,0,0,1,19.93,8.1Z"/><path class="cls-3" d="M20.42,8.56h0l-.17,0a.23.23,0,0,1-.09-.07s0,0,0,0a.08.08,0,0,1-.07,0l0,0s-.06-.07-.07-.11,0-.12,0-.15h0l.12.06s0,0,0,.07,0,0,0,0h0a.11.11,0,0,1,.11.08s0,0,0,0h0a.83.83,0,0,1,.09.16Zm-.49-.44a.32.32,0,0,0,0,.12c0,.06,0,.1.06.1l0,0a.07.07,0,0,0,.06,0,.07.07,0,0,1,.06,0,.28.28,0,0,0,.08.06l.15,0a.48.48,0,0,0-.09-.14h0s0,0-.06,0a.09.09,0,0,0-.11-.06h0s0,0,0-.06,0-.05,0-.06Z"/><path class="cls-4" d="M20,7.67l.09.1s0,.12,0,.13a.09.09,0,0,1,.09.1c0,.05.05,0,.07.06a.86.86,0,0,1,0,.18.74.74,0,0,1-.15-.08c-.08-.06,0-.12-.1-.14s0,0-.08-.08S20,7.71,20,7.67Z"/><path class="cls-3" d="M20.33,8.26h0l-.15-.08a.2.2,0,0,1-.06-.09s0,0,0-.05a.08.08,0,0,1,0,0l0,0s0-.09,0-.14,0-.11,0-.14h0l.09.09s0,0,0,.08,0,0,0,0h0a.1.1,0,0,1,.1.11.08.08,0,0,0,0,0l0,0a1.16,1.16,0,0,1,0,.18ZM20,7.69a.33.33,0,0,0,0,.12.25.25,0,0,0,0,.12s0,0,0,0,0,0,0,0,0,0,.05.06a.18.18,0,0,0,.06.08,1.23,1.23,0,0,0,.12.08.4.4,0,0,0,0-.16h0A.08.08,0,0,1,20.2,8a.08.08,0,0,0-.08-.09s0,0,0,0,0,0,0-.06,0,0,0-.06Z"/><path class="cls-4" d="M20.12,7.34l.08.11s-.06.11,0,.13a.1.1,0,0,1,.07.12s0,0,.05.07a.65.65,0,0,1,0,.19l-.13-.11c-.07-.07,0-.12-.07-.16s0-.06-.06-.09A.31.31,0,0,1,20.12,7.34Z"/><path class="cls-3" d="M20.34,8h0a.83.83,0,0,1-.13-.12.1.1,0,0,1,0-.09.11.11,0,0,0,0-.06.09.09,0,0,1-.05-.06,0,0,0,0,0,0,0,.21.21,0,0,1,0-.14.42.42,0,0,1,.06-.14h0a1.15,1.15,0,0,1,.07.11.08.08,0,0,1,0,.08s0,0,0,0a0,0,0,0,0,0,0,.1.1,0,0,1,.08.13,0,0,0,0,0,0,0l0,0a1.21,1.21,0,0,1,0,.19Zm-.22-.62a.23.23,0,0,0,0,.11c0,.07,0,.11,0,.12s0,0,0,0,0,0,0,0,0,.05,0,.07a.12.12,0,0,0,0,.09.82.82,0,0,0,.11.1.62.62,0,0,0,0-.16s0,0,0,0a.06.06,0,0,1,0-.06.09.09,0,0,0-.06-.1s0,0,0,0,0,0,0-.06a.07.07,0,0,0,0-.06Z"/><path class="cls-4" d="M20.28,7.08a.74.74,0,0,1,.06.11s-.07.11,0,.14a.1.1,0,0,1,.06.12s0,0,.05.08a.92.92,0,0,1,0,.18.59.59,0,0,1-.12-.12c-.06-.08,0-.12-.06-.16s0-.06-.05-.1A.31.31,0,0,1,20.28,7.08Z"/><path class="cls-3" d="M20.44,7.73h0a1.14,1.14,0,0,1-.12-.12.37.37,0,0,1,0-.11s0,0,0,0,0-.05,0-.07a0,0,0,0,0,0,0,.35.35,0,0,1,0-.14.21.21,0,0,1,.07-.13h0a1.22,1.22,0,0,1,.06.12.12.12,0,0,1,0,.08.08.08,0,0,0,0,0h0a.1.1,0,0,1,.06.13,0,0,0,0,0,0,0s0,0,0,0a.62.62,0,0,1,0,.19Zm-.17-.64a.27.27,0,0,0-.05.12.17.17,0,0,0,0,.12.06.06,0,0,1,0,0,.09.09,0,0,0,0,0,.11.11,0,0,1,0,.07.11.11,0,0,0,0,.09l.1.11a.48.48,0,0,0,0-.16h0s0,0,0-.07a.09.09,0,0,0-.05-.11s0,0,0,0a.06.06,0,0,1,0,0s0,0,0-.06A.54.54,0,0,0,20.27,7.09Z"/><path class="cls-4" d="M20.44,6.91l0,.12s-.08.1,0,.14a.09.09,0,0,1,0,.12s0,.06,0,.09a.74.74,0,0,1,0,.18.88.88,0,0,1-.11-.14c-.05-.08,0-.12,0-.16s0-.07,0-.1A.32.32,0,0,1,20.44,6.91Z"/><path class="cls-3" d="M20.53,7.58h0a.88.88,0,0,1-.11-.14.16.16,0,0,1,0-.11s0,0,0-.05a.08.08,0,0,1,0-.07s0,0,0,0a.22.22,0,0,1,0-.13s0-.11.08-.13h0A1.06,1.06,0,0,1,20.5,7s0,0,0,.08l0,0s0,0,0,0a.1.1,0,0,1,.05.14.05.05,0,0,0,0,0l0,0a.58.58,0,0,1,0,.19Zm-.1-.65a.21.21,0,0,0-.06.1.27.27,0,0,0,0,.12.08.08,0,0,1,0,0s0,0,0,.06a.1.1,0,0,1,0,.07.2.2,0,0,0,0,.1l.09.12a.39.39,0,0,0,0-.16l0,0a.07.07,0,0,1,0-.07.08.08,0,0,0,0-.11l0,0s0,0,0-.06a.14.14,0,0,0,0-.06Z"/><path class="cls-4" d="M20.59,6.76l.05.11c0,.06-.08.1,0,.14a.1.1,0,0,1,0,.13c0,.05,0,.05,0,.08a.74.74,0,0,1,0,.18.6.6,0,0,1-.11-.13c0-.08,0-.13,0-.17s0-.06,0-.1A.3.3,0,0,1,20.59,6.76Z"/><path class="cls-3" d="M20.68,7.42h0a.88.88,0,0,1-.11-.14.22.22,0,0,1,0-.1s0,0,0-.06a.08.08,0,0,1,0-.07.08.08,0,0,0,0,0,.24.24,0,0,1,0-.13s0-.11.08-.12h0l0,.12a.11.11,0,0,1,0,.08l0,0h0a.11.11,0,0,1,.06.14,0,0,0,0,0,0,.05s0,0,0,0a.63.63,0,0,1,0,.19Zm-.1-.65a.36.36,0,0,0-.06.11.22.22,0,0,0,0,.11.11.11,0,0,1,0,0,.13.13,0,0,0,0,0s0,0,0,.08a.18.18,0,0,0,0,.09.69.69,0,0,0,.1.12.56.56,0,0,0,0-.16v0a.06.06,0,0,1,0-.07.08.08,0,0,0,0-.11l0,0s0,0,0,0a.14.14,0,0,0,0-.06A.58.58,0,0,0,20.58,6.77Z"/><path class="cls-4" d="M20.79,6.59a1.06,1.06,0,0,1,.05.12s-.08.1,0,.13a.11.11,0,0,1,.05.13s0,.06,0,.08a.84.84,0,0,1,0,.19l-.1-.14c-.05-.08,0-.12,0-.16s0-.07,0-.11A.33.33,0,0,1,20.79,6.59Z"/><path class="cls-3" d="M20.88,7.26v0a.88.88,0,0,1-.11-.14.14.14,0,0,1,0-.1,0,0,0,0,0,0-.06.08.08,0,0,1,0-.07v0a.25.25,0,0,1,0-.14s0-.11.09-.12h0l.05.12a.08.08,0,0,1,0,.08s0,0,0,0h0a.12.12,0,0,1,.05.14,0,0,0,0,0,0,0l0,0a1.25,1.25,0,0,1,0,.19Zm-.09-.66a.35.35,0,0,0-.07.11c0,.06,0,.1,0,.12a.06.06,0,0,1,0,0,.07.07,0,0,0,0,.06s0,0,0,.07a.11.11,0,0,0,0,.09.46.46,0,0,0,.09.12.54.54,0,0,0,0-.15s0,0,0,0,0,0,0-.07,0-.09-.05-.12,0,0,0,0a.17.17,0,0,1,0-.05s0,0,0-.06S20.79,6.63,20.79,6.6Z"/><path class="cls-4" d="M21.16,6.5a1.09,1.09,0,0,1,0,.13c0,.06-.11.07-.07.12a.1.1,0,0,1,0,.14s0,.06,0,.09a.76.76,0,0,1-.09.16A.62.62,0,0,1,21,7c0-.09,0-.11,0-.16s0-.07,0-.11S21.1,6.5,21.16,6.5Z"/><path class="cls-3" d="M21,7.16v0A.64.64,0,0,1,21,7a.18.18,0,0,1,0-.11s0,0,0-.06a.07.07,0,0,1,0-.08v0A.22.22,0,0,1,21,6.58s.08-.09.12-.09h0a1.09,1.09,0,0,1,0,.13s0,0-.05.07,0,0,0,0,0,0,0,0a.12.12,0,0,1,0,.15,0,0,0,0,0,0,.05s0,0,0,0-.08.14-.09.17Zm.12-.65-.1.08a.79.79,0,0,0-.06.1s0,0,0,0a.06.06,0,0,0,0,.06s0,0,0,.08A.13.13,0,0,0,21,7a.86.86,0,0,0,.05.15L21.1,7V7a.06.06,0,0,1,0-.07.08.08,0,0,0,0-.12.08.08,0,0,1,0,0l0,0s0,0,0,0S21.15,6.54,21.15,6.51Z"/><path class="cls-4" d="M21.38,6.42a1.09,1.09,0,0,1,0,.13c0,.06-.1.07-.06.12a.11.11,0,0,1,0,.14s0,.06,0,.09a.76.76,0,0,1-.09.16.64.64,0,0,1-.06-.16c0-.1,0-.12,0-.17s0-.07,0-.11S21.32,6.42,21.38,6.42Z"/><path class="cls-3" d="M21.25,7.08h0a1.23,1.23,0,0,1-.06-.17.34.34,0,0,1,0-.11.07.07,0,0,0,0-.06.12.12,0,0,1,0-.08s0,0,0,0,0-.08.06-.12.08-.09.12-.09h0a1.09,1.09,0,0,1,0,.13.1.1,0,0,1,0,.07s0,0,0,0h0a.11.11,0,0,1,0,.15s0,0,0,.05,0,0,0,0a.7.7,0,0,1-.09.17Zm.12-.65a.3.3,0,0,0-.09.08s-.07.09-.06.11v0s0,0,0,.06a.08.08,0,0,1,0,.08.13.13,0,0,0,0,.09c0,.07,0,.12.05.15l.08-.14s0,0,0,0a.06.06,0,0,1,0-.07.08.08,0,0,0,0-.12s0,0,0,0l0,0s0,0,0,0S21.37,6.46,21.37,6.43Z"/><path class="cls-4" d="M21.79,6.48l0,.12c0,.05-.13,0-.11.08a.1.1,0,0,1-.05.13s0,.06,0,.09a1.1,1.1,0,0,1-.14.11.56.56,0,0,1,0-.17c0-.1.08-.09.08-.15s0-.06,0-.11S21.73,6.45,21.79,6.48Z"/><path class="cls-3" d="M21.41,7V7a1,1,0,0,1,0-.18.15.15,0,0,1,0-.09s0,0,0,0a.1.1,0,0,1,0-.08s0,0,0,0a.36.36,0,0,1,.23-.12h0l0,.12a.09.09,0,0,1-.07,0l0,0v0a.1.1,0,0,1,0,.14s0,0,0,0a0,0,0,0,1,0,0s-.12.1-.15.12Zm.36-.55a.35.35,0,0,0-.21.11.05.05,0,0,1,0,0s0,0,0,.06a.09.09,0,0,1,0,.07.1.1,0,0,0,0,.08.92.92,0,0,0,0,.15.76.76,0,0,0,.12-.1v0a.07.07,0,0,1,0-.07s.07,0,.05-.11,0,0,0,0,0,0,.05,0a.06.06,0,0,0,.06,0s0-.09,0-.11Z"/><path class="cls-4" d="M22,6.6a.79.79,0,0,1-.06.1s-.12,0-.11,0,0,.08-.07.09,0,0,0,.07A.82.82,0,0,1,21.6,7a.8.8,0,0,1,0-.15c0-.07.1,0,.1-.1s0,0,.05-.08A.35.35,0,0,1,22,6.6Z"/><path class="cls-3" d="M21.59,7h0a.54.54,0,0,1,0-.15.15.15,0,0,1,.07-.07s0,0,0,0a.06.06,0,0,1,0-.06s0,0,0,0,.11,0,.18,0a.11.11,0,0,1,.08,0h0A.43.43,0,0,1,22,6.7s0,0,0,0h0s0,0,0,0h0c0,.07,0,.09-.08.1s0,0,0,0a0,0,0,0,1,0,0,.76.76,0,0,1-.16.06ZM22,6.6c-.08,0-.16,0-.16,0l0,0s0,0,0,0,0,0,0,0a.11.11,0,0,0-.06.06.41.41,0,0,0,0,.12l.13-.05v0a0,0,0,0,1,0,0s.07,0,.06-.08v0H22L22,6.61Z"/><path class="cls-4" d="M22.26,6.79l-.09.06s-.1-.07-.12,0-.05.07-.1.06,0,0-.07,0a.7.7,0,0,1-.16,0,.83.83,0,0,1,.09-.11c.06-.06.11,0,.14-.06s.05,0,.08,0A.32.32,0,0,1,22.26,6.79Z"/><path class="cls-3" d="M21.86,7h-.15a.5.5,0,0,1,.1-.12.1.1,0,0,1,.08,0l.05,0a0,0,0,0,1,0,0h.06c.07,0,.2,0,.22.08h0l-.09.06h0l-.06,0,0,0s0,0,0,0a.08.08,0,0,1-.08.06h0s0,0,0,0a0,0,0,0,1,0,0Zm-.12,0h.12s0,0,0,0h0s0,0,.06,0h0s.05,0,.06,0a0,0,0,0,1,0,0l.05,0a0,0,0,0,0,.05,0l.08,0a.35.35,0,0,0-.2-.07h0l0,0s0,0-.05,0a.06.06,0,0,1-.06,0,.08.08,0,0,0-.07,0A.24.24,0,0,0,21.74,6.93Z"/><path class="cls-5" d="M20.05,9.35a1.6,1.6,0,0,0,2,.06c1.33.7,1.91.05,2.05-.06.57.76,1,1.26,1,1.26a1.91,1.91,0,0,0-.5,1.49,12.92,12.92,0,0,1,.58,2.75,1.89,1.89,0,0,1-1.88,1.63c-.73,0-1.07,0-1.21.41-.19-.4-.65-.47-1.25-.43A1.82,1.82,0,0,1,19,14.67c0-1.32,1.32-2.68.09-4.05Z"/><path class="cls-6" d="M22.09,9.41a1.6,1.6,0,0,1-2-.06l-1,1.27a2.26,2.26,0,0,1,.31,2.48h2.72V9.41Z"/><path class="cls-2" d="M24.6,12.1a1.91,1.91,0,0,1,.5-1.49s-.39-.5-1-1.26c-.14.11-.72.76-2.05.06V13.1h2.76A9.72,9.72,0,0,1,24.6,12.1Z"/><path class="cls-7" d="M22.3,17.65A5.32,5.32,0,0,0,24,17.29a1.93,1.93,0,0,0,.6-.59c.12-.19.45-1.33,1.14-1.5,0,.52-.13.6.09.51a7.67,7.67,0,0,1,.88-.21l-.31.82.67,0a4.36,4.36,0,0,0-.52.73c-.14.22-1.19.24-1.59.27s-.71.22-1.22.3a6.27,6.27,0,0,1-.78.07s1.58.14,1.71.7a1.31,1.31,0,0,1-1.07-.14A9,9,0,0,0,22.3,18Z"/><path class="cls-7" d="M26,15.78a1.07,1.07,0,0,0-.22-1.3,3.66,3.66,0,0,1-.51-2.19l.25.2.17-.52.29.41.14-.19a3.77,3.77,0,0,1,.34.72.61.61,0,0,0,.12-.19l.26.57s.73-.83,1.16-.8a4.35,4.35,0,0,0-.1.78l.44-.21a1.93,1.93,0,0,1-.51,1.43c-.56.44-1.62.68-1.5,1.29C26,16.13,26,15.78,26,15.78Z"/><path class="cls-7" d="M26.74,13.33s.27-1-.43-1.27-.84-1.63-.84-1.63l.22.11v-.46l.29.28.06-.18a3,3,0,0,1,.4.5.54.54,0,0,0,.05-.18l.3.41s.34-.81.65-.86a4.09,4.09,0,0,0,.1.63l.27-.26s.35.89-.05,1.24-1,1.14-.8,1.61C26.85,13.6,26.74,13.33,26.74,13.33Z"/><path class="cls-7" d="M26.59,10.87s-.13-.92-.82-1-1.3-1.15-1.3-1.15l.23,0-.16-.39.34.14V8.35a1.69,1.69,0,0,1,.31.23c0-.11-.07-.62-.07-.62l.68.31s0-.56.08-.62a1.33,1.33,0,0,1,.42.66L26.43,8s.61.66.41,1.09c-.28.58-.43,1.32-.08,1.65C26.78,11.07,26.59,10.87,26.59,10.87Z"/><path class="cls-5" d="M26,15.05a.2.2,0,0,1-.2.19.2.2,0,0,1-.19-.19.2.2,0,1,1,.39,0Z"/><path class="cls-5" d="M27.27,15.52a.2.2,0,0,1-.19.19.2.2,0,0,1-.2-.19.19.19,0,0,1,.2-.19A.19.19,0,0,1,27.27,15.52Z"/><path class="cls-5" d="M27.59,15.11a.2.2,0,0,1-.19.19.2.2,0,1,1,.19-.19Z"/><path class="cls-5" d="M26.77,12.57a.19.19,0,0,1-.2.19.18.18,0,0,1-.19-.19.19.19,0,0,1,.19-.19A.2.2,0,0,1,26.77,12.57Z"/><path class="cls-5" d="M27.54,12.52a.2.2,0,0,1-.4,0,.2.2,0,0,1,.4,0Z"/><path class="cls-5" d="M26.22,10.17a.19.19,0,0,1-.19.19.19.19,0,0,1-.2-.19A.2.2,0,0,1,26,10,.2.2,0,0,1,26.22,10.17Z"/><path class="cls-5" d="M27.08,9.41a.2.2,0,0,1-.2.19.19.19,0,0,1-.19-.19.18.18,0,0,1,.19-.19A.19.19,0,0,1,27.08,9.41Z"/><path class="cls-5" d="M27.4,9.72a.19.19,0,0,1-.2.19A.18.18,0,0,1,27,9.72a.19.19,0,0,1,.19-.19A.2.2,0,0,1,27.4,9.72Z"/><path class="cls-7" d="M21.78,17.57A7,7,0,0,1,20,17.06a3.23,3.23,0,0,1-1.38-3.4,4.28,4.28,0,0,0-.43.94s0-1.63.79-2c-.09-.14-.79.43-.79.43s.6-.9.93-1c-.1-.17-1,.34-1.14.75a2.55,2.55,0,0,1,.92-1.36,1.25,1.25,0,0,0-1,.62,1.7,1.7,0,0,1,.74-1c-.26,0-1.08.64-1.08,1a3.41,3.41,0,0,1,1.33-2,1.26,1.26,0,0,0-1.07.54C18.27,9.92,19.12,9,19.56,9a1.72,1.72,0,0,0-1.41.63c.14-.42,1-.85,1-.85a1.66,1.66,0,0,0-1.27.66,5.26,5.26,0,0,1,1.47-1.47A2.33,2.33,0,0,0,17.7,9.06a1.69,1.69,0,0,1,.18-.92,2.36,2.36,0,0,0-.78,2,1.47,1.47,0,0,0-.44-.95,5.13,5.13,0,0,0,.1.95l-.34-.45.11.73s-.41-.39-.44-.4a3.9,3.9,0,0,0,.18.62s-.51,0-.35.37.33.73.36-.11a7.46,7.46,0,0,1,.87,1.92,4.4,4.4,0,0,0-1.35-1.57c.2.41.74,1.21.74,1.21l-.68-.37.36.59s-.44-.14-.42,0,.14.74.14.74a1.86,1.86,0,0,0,.19-.42,11.19,11.19,0,0,1,1.35,1.67A11.19,11.19,0,0,0,16,14l1,1-.83-.17,1.21.86-.8-.08s1.58.81,1.89,1.05c-.67-.23-1.29-.41-1.29-.41a6.48,6.48,0,0,0,4.09,1.63c-.38,0-1.41.15-1.55.48s.31.4.81.12A3.37,3.37,0,0,1,21.78,18C21.92,17.83,21.78,17.57,21.78,17.57Z"/><rect class="cls-3" x="19.36" y="13.11" width="5.46" height="0.02"/><rect class="cls-3" x="22.08" y="9.41" width="0.02" height="3.71"/><path class="cls-3" d="M24,14s.06.35-.15.23-.12-.42.11-.48a.53.53,0,0,1,.58.76,1.43,1.43,0,0,1-1.65.74,2.89,2.89,0,0,0-.89,0s0,.26-.07.33c.35-.13.37-.14.46-.05a.29.29,0,0,1,.41.09c.09-.1.28,0,.28,0s.08-.07.15,0a.27.27,0,0,1,.43,0c.11.15,0,.31-.27.34a.25.25,0,0,1-.44.17.22.22,0,0,1-.33.16.3.3,0,0,1-.53,0c-.18.11-.43,0-.41-.12-.13.24-.4.11-.38,0-.1.2-.41.09-.41,0a.29.29,0,0,1-.46-.16c-.23.12-.63,0-.55-.37-.24-.15-.19-.28-.19-.28a.26.26,0,0,1,0-.44.47.47,0,0,1,.38-.64l.18-.13s.1-.31.38-.31a.4.4,0,0,1,.5-.2.32.32,0,0,1,.38-.11.68.68,0,0,1,.57.06.44.44,0,0,1,.44.1.27.27,0,0,1,.25.17.31.31,0,0,1,.26.21.43.43,0,0,1,.12.19s.13,0,.17.07.18.09.21.13.24,0,.36,0a.39.39,0,0,0,.3-.24C24.2,14,24.08,13.88,24,14Z"/><path class="cls-8" d="M21,11.64s0,.7,0,.87a.44.44,0,0,0,.19.28H21s0-.1-.09-.11,0-.12,0-.21-.11-.41-.12-.52S20.91,11.58,21,11.64Z"/><path class="cls-3" d="M21.2,12.8H21s0-.09-.08-.1h0s0-.06,0-.11a.17.17,0,0,0,0-.1,1.46,1.46,0,0,0-.06-.26c0-.1-.05-.2-.06-.26a.45.45,0,0,1,.09-.29.1.1,0,0,1,.12,0h0v.87a.41.41,0,0,0,.18.27l0,0Zm-.16,0h.12a.42.42,0,0,1-.16-.27c0-.15,0-.79,0-.86a.09.09,0,0,0-.08,0,.51.51,0,0,0-.09.28c0,.05,0,.16.06.26a.9.9,0,0,1,.06.26.22.22,0,0,1,0,.11.11.11,0,0,0,0,.08h0C21,12.68,21,12.75,21,12.78Z"/><path class="cls-8" d="M20.2,11.21a2.37,2.37,0,0,1,0,.72.86.86,0,0,0,0,.44,2.65,2.65,0,0,0,.07.31l.09.11h-.14s0-.09-.07-.09a2.43,2.43,0,0,0-.11-.49,2.62,2.62,0,0,0-.05-.82C19.92,11.21,20,11,20.2,11.21Z"/><path class="cls-3" d="M20.39,12.8h-.18s0-.08-.06-.08h0a2.67,2.67,0,0,0-.11-.48h0a2.26,2.26,0,0,0,0-.81.3.3,0,0,1,0-.23.09.09,0,0,1,.08,0,.25.25,0,0,1,.15.07h0a2.44,2.44,0,0,1,0,.72.86.86,0,0,0,0,.44,2.27,2.27,0,0,0,.07.3Zm-.16,0h.11l-.08-.1h0a2.65,2.65,0,0,1-.07-.31.72.72,0,0,1,0-.45,2.49,2.49,0,0,0,0-.71c-.08-.07-.16-.08-.19,0a.25.25,0,0,0,0,.21,2.63,2.63,0,0,1,.05.82,2,2,0,0,1,.11.48A.16.16,0,0,1,20.23,12.78Z"/><path class="cls-9" d="M21.29,10a.24.24,0,0,1,.15.09c.14,0,.27,0,.33.09s.15.13.07.24-.21,0-.24.14a1.44,1.44,0,0,1-.23.86,1.47,1.47,0,0,1-.45.31c0,.05-.17.86-.18,1s.08.11.08.11h-.17a.49.49,0,0,1,0-.25,6.89,6.89,0,0,0,.1-.89s-.45.25-.65-.38a1.66,1.66,0,0,1-.16.93c-.07.14.17.59.17.59H20s0-.09-.08-.09a4,4,0,0,0-.14-.48,1.66,1.66,0,0,0,.13-.45.81.81,0,0,0-.18-.55c-.06-.06.15-.44.44-.42a2.55,2.55,0,0,1,.72.08.39.39,0,0,0,.42,0c.06-.07,0-.56.12-.69A.21.21,0,0,1,21.29,10Z"/><path class="cls-3" d="M20.86,12.84h-.22a.53.53,0,0,1,0-.26,7.26,7.26,0,0,0,.1-.86.46.46,0,0,1-.2,0h0c-.13,0-.31-.06-.42-.35a1.66,1.66,0,0,1-.17.84c-.07.14.17.58.17.59H20s0-.08-.07-.08h0a4,4,0,0,0-.14-.48h0a1.53,1.53,0,0,0,.13-.44.79.79,0,0,0-.18-.54s0-.07,0-.13a.52.52,0,0,1,.44-.31h.25a1.41,1.41,0,0,1,.47.07.44.44,0,0,0,.22.05h0a.25.25,0,0,0,.19-.06.73.73,0,0,0,.05-.28,1.44,1.44,0,0,1,.07-.39.23.23,0,0,1-.11-.21h0a.22.22,0,0,1,.15.09l.15,0a.19.19,0,0,1,.19.13s0,.07.06.09.07.08,0,.16h-.07c-.06,0-.15,0-.17.12s0,.08,0,.13a1.15,1.15,0,0,1-.22.73,1.22,1.22,0,0,1-.39.29l-.06,0s-.17.84-.18,1,.08.1.08.1Zm-.2,0h.13a.13.13,0,0,1-.06-.1c0-.12.16-.93.18-1s0,0,.07,0a1.19,1.19,0,0,0,.38-.28,1.14,1.14,0,0,0,.22-.72.49.49,0,0,1,0-.13c0-.12.13-.13.19-.14h0c.05-.06,0-.08,0-.12a.52.52,0,0,1-.07-.11.18.18,0,0,0-.17-.11l-.15,0h0A.19.19,0,0,0,21.3,10a.22.22,0,0,0,.11.18h0a1.36,1.36,0,0,0-.07.39.81.81,0,0,1-.05.3.31.31,0,0,1-.21.07h0a.53.53,0,0,1-.23-.06,1.14,1.14,0,0,0-.46-.06h-.26a.46.46,0,0,0-.41.29c0,.06,0,.1,0,.11a.86.86,0,0,1,.18.56,1.56,1.56,0,0,1-.13.44,4.13,4.13,0,0,1,.14.47c.05,0,.07.06.08.09h.12c-.05-.08-.24-.45-.17-.59a1.62,1.62,0,0,0,.16-.92V11.2l0,.11c.11.35.3.42.43.42h0a.41.41,0,0,0,.2-.05h0v0a6.06,6.06,0,0,1-.1.89A.38.38,0,0,0,20.66,12.82Z"/><path class="cls-10" d="M21.84,10.44c.08-.11,0-.11-.07-.24s-.19-.14-.33-.09a.24.24,0,0,0-.15-.09.21.21,0,0,0,.11.2c-.07.13-.06.62-.12.69a.39.39,0,0,1-.42,0,2.55,2.55,0,0,0-.72-.08c-.29,0-.5.36-.44.42a.81.81,0,0,1,.18.55,1.08,1.08,0,0,1-.08.3h0a.44.44,0,0,0,.17-.18,3.87,3.87,0,0,0,.09-.72.88.88,0,0,0,.35.36c.21.09.39-.14.39-.14l0,.88a1.52,1.52,0,0,0,0-.23c0-.21.15-.67.16-.82s.2-.1.38,0a1.66,1.66,0,0,0,.2-.22c0-.18,0-.35,0-.44S21.81,10.47,21.84,10.44Z"/><path class="cls-3" d="M20.77,12.34l0-.88a.49.49,0,0,1-.29.14.2.2,0,0,1-.1,0,.74.74,0,0,1-.33-.33,3.71,3.71,0,0,1-.09.69.38.38,0,0,1-.17.18h0v0a1.11,1.11,0,0,0,.08-.3.79.79,0,0,0-.18-.54s0-.07,0-.13a.52.52,0,0,1,.44-.31h.25a1.41,1.41,0,0,1,.47.07.44.44,0,0,0,.22.05.25.25,0,0,0,.19-.06.73.73,0,0,0,.05-.28,1.44,1.44,0,0,1,.07-.39.23.23,0,0,1-.11-.21h0a.22.22,0,0,1,.15.09l.15,0a.19.19,0,0,1,.19.13s0,.07.06.09.07.08,0,.16h-.07c-.06,0-.15,0-.17.12s0,.08,0,.13a2,2,0,0,1,0,.32h0a1.79,1.79,0,0,1-.2.22h0a.53.53,0,0,0-.25-.07c-.07,0-.11,0-.11.09s0,.23-.08.4-.06.32-.08.41a1.21,1.21,0,0,1,0,.23Zm0-.95,0,.79s0-.06,0-.1.05-.26.08-.41.07-.33.08-.41.05-.1.13-.1a.73.73,0,0,1,.26.06l.19-.2c0-.11,0-.22,0-.31a.49.49,0,0,1,0-.13c0-.12.13-.13.19-.14h0c.05-.06,0-.08,0-.12a.52.52,0,0,1-.07-.11.18.18,0,0,0-.17-.11l-.15,0h0A.19.19,0,0,0,21.3,10a.22.22,0,0,0,.11.18h0a1.36,1.36,0,0,0-.07.39.81.81,0,0,1-.05.3.31.31,0,0,1-.21.07.53.53,0,0,1-.23-.06,1.14,1.14,0,0,0-.46-.06h-.26a.46.46,0,0,0-.41.29c0,.06,0,.1,0,.11a.86.86,0,0,1,.18.56,1.68,1.68,0,0,1-.06.27.58.58,0,0,0,.13-.16,3.87,3.87,0,0,0,.09-.72v0l0,0a.9.9,0,0,0,.34.35l.09,0a.44.44,0,0,0,.29-.16Z"/><path class="cls-9" d="M21.82,10.39a1.82,1.82,0,0,0-.28-.14s-.12.17,0,.18A.62.62,0,0,0,21.82,10.39Z"/><path class="cls-11" d="M21.67,10.21s0,0,0,0a0,0,0,0,1,0,0,0,0,0,0,1,0,0S21.67,10.19,21.67,10.21Z"/><path class="cls-4" d="M24.26,10.17a.31.31,0,0,0-.21.35C24.26,10.46,24.26,10.17,24.26,10.17Z"/><path class="cls-3" d="M24,10.53h0a.31.31,0,0,1,.22-.36h0s0,.3-.22.36Zm.21-.34a.28.28,0,0,0-.19.31C24.22,10.45,24.25,10.25,24.25,10.19Z"/><path class="cls-4" d="M24,10.27a.28.28,0,0,0-.07.37A.33.33,0,0,0,24,10.27Z"/><path class="cls-3" d="M23.88,10.65h0a.3.3,0,0,1,.07-.38h0v0a.35.35,0,0,1-.07.38Zm.06-.36a.27.27,0,0,0-.05.33A.3.3,0,0,0,23.94,10.29Z"/><path class="cls-4" d="M24.38,10.64a.27.27,0,0,0-.36-.07A.31.31,0,0,0,24.38,10.64Z"/><path class="cls-3" d="M24.23,10.68h0a.27.27,0,0,1-.22-.11h0a.3.3,0,0,1,.15-.05.32.32,0,0,1,.23.12h0A.52.52,0,0,1,24.23,10.68Zm-.2-.11a.25.25,0,0,0,.2.09.31.31,0,0,0,.13,0,.31.31,0,0,0-.2-.1A.38.38,0,0,0,24,10.57Z"/><path class="cls-4" d="M24.23,10.79a.28.28,0,0,0-.37-.07C24,10.89,24.23,10.79,24.23,10.79Z"/><path class="cls-3" d="M24.08,10.83h0a.28.28,0,0,1-.23-.1h0a.26.26,0,0,1,.15,0,.33.33,0,0,1,.23.12h0A.27.27,0,0,1,24.08,10.83Zm-.2-.11a.24.24,0,0,0,.2.09l.13,0a.29.29,0,0,0-.2-.1A.28.28,0,0,0,23.88,10.72Z"/><path class="cls-4" d="M24.06,11a.3.3,0,0,0-.34-.17C23.8,11.05,24.06,11,24.06,11Z"/><path class="cls-3" d="M24,11h0a.32.32,0,0,1-.31-.17h.1a.3.3,0,0,1,.26.19H24Zm-.28-.17A.28.28,0,0,0,24,11h0a.27.27,0,0,0-.23-.16Z"/><path class="cls-4" d="M23.87,11.16a.27.27,0,0,0-.33-.17A.32.32,0,0,0,23.87,11.16Z"/><path class="cls-3" d="M23.84,11.17h0a.34.34,0,0,1-.31-.17h.09a.29.29,0,0,1,.26.18v0h-.05ZM23.56,11a.3.3,0,0,0,.28.15h0a.27.27,0,0,0-.24-.16Z"/><path class="cls-4" d="M23.76,10.41a.28.28,0,0,0-.06.37C23.87,10.65,23.76,10.41,23.76,10.41Z"/><path class="cls-3" d="M23.7,10.8h0a.3.3,0,0,1,.07-.39h0v0a.32.32,0,0,1-.06.38Zm.06-.37a.25.25,0,0,0-.06.33A.31.31,0,0,0,23.76,10.43Z"/><path class="cls-4" d="M23.59,10a.27.27,0,0,0-.21.31A.33.33,0,0,0,23.59,10Z"/><path class="cls-3" d="M23.37,10.28h0a.28.28,0,0,1,.22-.32h0v0s0,.26-.21.32Zm.21-.31a.27.27,0,0,0-.19.28A.31.31,0,0,0,23.58,10Z"/><path class="cls-4" d="M23.79,10.27a.29.29,0,0,0-.39.1A.35.35,0,0,0,23.79,10.27Z"/><path class="cls-3" d="M23.53,10.41h0a.31.31,0,0,1-.13,0h0a.28.28,0,0,1,.24-.14.5.5,0,0,1,.17,0h0A.39.39,0,0,1,23.53,10.41Zm-.11-.05a.2.2,0,0,0,.11,0,.39.39,0,0,0,.25-.12.43.43,0,0,0-.15,0A.24.24,0,0,0,23.42,10.36Z"/><path class="cls-4" d="M23.58,10.49a.28.28,0,0,0-.06.37C23.68,10.73,23.58,10.49,23.58,10.49Z"/><path class="cls-3" d="M23.51,10.88h0a.31.31,0,0,1,.06-.39h0a.33.33,0,0,1-.07.38Zm.07-.37a.26.26,0,0,0-.06.33C23.64,10.74,23.59,10.56,23.58,10.51Z"/><path class="cls-4" d="M24.29,11.07a.31.31,0,0,0-.21.35C24.29,11.36,24.29,11.07,24.29,11.07Z"/><path class="cls-3" d="M24.07,11.43h0a.31.31,0,0,1,.22-.36h0s0,.3-.23.36Zm.21-.34a.27.27,0,0,0-.19.31C24.25,11.35,24.28,11.14,24.28,11.09Z"/><path class="cls-4" d="M24,11.2a.27.27,0,0,0-.06.37A.34.34,0,0,0,24,11.2Z"/><path class="cls-3" d="M23.91,11.58h0a.29.29,0,0,1,.06-.38h0s.11.25-.07.38Zm.07-.36a.25.25,0,0,0-.06.33A.33.33,0,0,0,24,11.22Z"/><path class="cls-4" d="M24.44,11.58a.27.27,0,0,0-.36-.08A.32.32,0,0,0,24.44,11.58Z"/><path class="cls-3" d="M24.29,11.62h0a.27.27,0,0,1-.22-.11h0a.28.28,0,0,1,.15,0,.29.29,0,0,1,.23.12h0A.45.45,0,0,1,24.29,11.62Zm-.2-.11a.28.28,0,0,0,.2.08l.14,0a.32.32,0,0,0-.21-.1A.24.24,0,0,0,24.09,11.51Z"/><path class="cls-4" d="M24.5,11.28a.27.27,0,0,0-.34.15C24.36,11.5,24.5,11.28,24.5,11.28Z"/><path class="cls-3" d="M24.24,11.45h-.09a.27.27,0,0,1,.26-.17h.1A.38.38,0,0,1,24.24,11.45Zm-.06,0h.06a.35.35,0,0,0,.25-.14h-.08A.23.23,0,0,0,24.18,11.42Z"/><path class="cls-4" d="M24.26,11.71a.28.28,0,0,0-.37-.07C24,11.81,24.26,11.71,24.26,11.71Z"/><path class="cls-3" d="M24.11,11.75h0a.33.33,0,0,1-.23-.1h0a.3.3,0,0,1,.15-.05.28.28,0,0,1,.23.13h0A.52.52,0,0,1,24.11,11.75Zm-.2-.11a.25.25,0,0,0,.2.09l.13,0a.27.27,0,0,0-.2-.1A.31.31,0,0,0,23.91,11.64Z"/><path class="cls-4" d="M24.09,11.92a.27.27,0,0,0-.33-.17A.32.32,0,0,0,24.09,11.92Z"/><path class="cls-3" d="M24.05,11.93h0a.31.31,0,0,1-.3-.17h.09a.29.29,0,0,1,.26.18v0h-.06Zm-.28-.17a.31.31,0,0,0,.28.15h0a.27.27,0,0,0-.23-.16Z"/><path class="cls-4" d="M23.91,12.06a.29.29,0,0,0-.34-.17C23.65,12.09,23.91,12.06,23.91,12.06Z"/><path class="cls-3" d="M23.87,12.07h0a.33.33,0,0,1-.31-.18h.1a.31.31,0,0,1,.26.18v0h-.05Zm-.28-.17a.31.31,0,0,0,.28.15h0a.27.27,0,0,0-.23-.16Z"/><path class="cls-4" d="M23.8,11.3a.29.29,0,0,0-.07.37A.33.33,0,0,0,23.8,11.3Z"/><path class="cls-3" d="M23.73,11.68h0a.3.3,0,0,1,.07-.38h0v0a.35.35,0,0,1-.07.38Zm.06-.36a.26.26,0,0,0-.06.33A.29.29,0,0,0,23.79,11.32Z"/><path class="cls-4" d="M23.63,11.37a.28.28,0,0,0-.06.37C23.73,11.61,23.63,11.37,23.63,11.37Z"/><path class="cls-3" d="M23.56,11.76h0a.3.3,0,0,1,.06-.39h0v0a.35.35,0,0,1-.07.38Zm.06-.37a.27.27,0,0,0-.05.33A.3.3,0,0,0,23.62,11.39Z"/><path class="cls-8" d="M23.54,11.94a7,7,0,0,1,.64-.51s-.66.38-.68.31a2.22,2.22,0,0,1,0-.68,4.37,4.37,0,0,0,.56-.54c-.28.21-.6.43-.59.32s-.05-.39-.07-.53v0a4,4,0,0,0-.06.54c0,.1-.31-.12-.59-.33a4.37,4.37,0,0,0,.56.54,2.59,2.59,0,0,1,0,.68c0,.07-.68-.31-.68-.31s.53.39.64.51a2.25,2.25,0,0,1,0,1h.4A2.25,2.25,0,0,1,23.54,11.94Z"/><path class="cls-3" d="M23.62,12.92h-.46l0,0a2.32,2.32,0,0,0,.05-1c-.11-.12-.63-.51-.63-.51v0a3.42,3.42,0,0,0,.65.32h0a3,3,0,0,0,0-.67.71.71,0,0,0-.12-.11,2,2,0,0,1-.44-.43l0,0,0,0a1.88,1.88,0,0,0,.55.35h0a4,4,0,0,1,.06-.54v-.05h0v.07c0,.14.06.46.06.54h0a1.87,1.87,0,0,0,.56-.35l0,0,0,0a2,2,0,0,1-.44.42l-.12.11a2.6,2.6,0,0,0,0,.68h0a3.42,3.42,0,0,0,.65-.32h0s-.53.4-.63.52a2.51,2.51,0,0,0,0,1Zm-.29,0h.23a2.66,2.66,0,0,1,0-1h0a5.55,5.55,0,0,1,.5-.41,2.15,2.15,0,0,1-.51.24h0s0,0,0,0a2.29,2.29,0,0,1,0-.69l.13-.11a3.46,3.46,0,0,0,.39-.37,1.74,1.74,0,0,1-.52.31h0v0c0-.07,0-.35-.06-.49,0,.15-.06.42-.06.49s0,0,0,0h0a1.86,1.86,0,0,1-.51-.31,2.75,2.75,0,0,0,.39.37l.13.11a2.66,2.66,0,0,1,0,.69s0,0,0,0a2.15,2.15,0,0,1-.51-.24,5.55,5.55,0,0,1,.5.41h0a2.42,2.42,0,0,1,0,1h.12Z"/><path class="cls-4" d="M22.52,10.16a.31.31,0,0,1,.21.35C22.52,10.45,22.52,10.16,22.52,10.16Z"/><path class="cls-3" d="M22.74,10.53h0c-.22-.06-.22-.35-.22-.36h0a.32.32,0,0,1,.22.36Zm-.21-.35a.35.35,0,0,0,.19.32A.3.3,0,0,0,22.53,10.18Z"/><path class="cls-4" d="M22.83,10.26a.28.28,0,0,1,.06.37C22.73,10.5,22.83,10.26,22.83,10.26Z"/><path class="cls-3" d="M22.9,10.65h0a.33.33,0,0,1-.07-.38v0h0a.3.3,0,0,1,.06.39Zm-.07-.37a.33.33,0,0,0,.06.33A.25.25,0,0,0,22.83,10.28Z"/><path class="cls-4" d="M22.4,10.63a.27.27,0,0,1,.36-.07A.31.31,0,0,1,22.4,10.63Z"/><path class="cls-3" d="M22.55,10.67a.45.45,0,0,1-.16,0h0a.28.28,0,0,1,.23-.13.3.3,0,0,1,.15.05h0A.29.29,0,0,1,22.55,10.67Zm-.14,0,.14,0a.25.25,0,0,0,.2-.09l-.13,0A.32.32,0,0,0,22.41,10.63Z"/><path class="cls-4" d="M22.55,10.79a.28.28,0,0,1,.37-.08A.34.34,0,0,1,22.55,10.79Z"/><path class="cls-3" d="M22.7,10.82a.61.61,0,0,1-.15,0h0a.31.31,0,0,1,.23-.12.28.28,0,0,1,.15,0h0A.29.29,0,0,1,22.7,10.82Zm-.13,0,.13,0a.26.26,0,0,0,.2-.08.2.2,0,0,0-.13,0A.29.29,0,0,0,22.57,10.78Z"/><path class="cls-4" d="M22.72,11a.27.27,0,0,1,.33-.16C23,11,22.72,11,22.72,11Z"/><path class="cls-3" d="M22.76,11h-.05a.31.31,0,0,1,.26-.19h.1A.33.33,0,0,1,22.76,11Zm0,0h0a.29.29,0,0,0,.28-.15H23A.27.27,0,0,0,22.74,11Z"/><path class="cls-4" d="M22.9,11.15a.3.3,0,0,1,.34-.17C23.16,11.18,22.9,11.15,22.9,11.15Z"/><path class="cls-3" d="M22.94,11.16h-.05a.3.3,0,0,1,.26-.19h.1A.32.32,0,0,1,22.94,11.16Zm0,0h0a.28.28,0,0,0,.28-.15h-.07A.27.27,0,0,0,22.92,11.14Z"/><path class="cls-4" d="M23,10.4a.29.29,0,0,1,.06.37C22.91,10.64,23,10.4,23,10.4Z"/><path class="cls-3" d="M23.08,10.79h0A.32.32,0,0,1,23,10.4h0a.3.3,0,0,1,.07.39ZM23,10.42a.29.29,0,0,0,.06.33A.27.27,0,0,0,23,10.42Z"/><path class="cls-4" d="M23.19,10a.27.27,0,0,1,.21.31A.33.33,0,0,1,23.19,10Z"/><path class="cls-3" d="M23.4,10.28h0c-.21-.06-.21-.32-.21-.32h0a.28.28,0,0,1,.22.32ZM23.2,10a.31.31,0,0,0,.19.29A.27.27,0,0,0,23.2,10Z"/><path class="cls-4" d="M23,10.26a.29.29,0,0,1,.39.1A.33.33,0,0,1,23,10.26Z"/><path class="cls-3" d="M23.24,10.4a.46.46,0,0,1-.27-.13h0a.43.43,0,0,1,.17,0,.28.28,0,0,1,.24.14h0A.32.32,0,0,1,23.24,10.4ZM23,10.27a.36.36,0,0,0,.24.11.27.27,0,0,0,.12,0,.25.25,0,0,0-.21-.11A.28.28,0,0,0,23,10.27Z"/><path class="cls-4" d="M23.2,10.49a.26.26,0,0,1,.06.36A.32.32,0,0,1,23.2,10.49Z"/><path class="cls-3" d="M23.27,10.87h0a.34.34,0,0,1-.06-.38h0a.27.27,0,0,1,.07.38Zm-.07-.37a.35.35,0,0,0,.06.34A.27.27,0,0,0,23.2,10.5Z"/><path class="cls-4" d="M22.48,11.06a.32.32,0,0,1,.22.35C22.49,11.35,22.48,11.06,22.48,11.06Z"/><path class="cls-3" d="M22.71,11.42h0c-.22-.06-.23-.36-.23-.36h0a.31.31,0,0,1,.22.36Zm-.21-.34c0,.06,0,.26.19.31A.29.29,0,0,0,22.5,11.08Z"/><path class="cls-4" d="M22.79,11.19a.27.27,0,0,1,.07.37A.35.35,0,0,1,22.79,11.19Z"/><path class="cls-3" d="M22.86,11.57h0a.34.34,0,0,1-.06-.38v0h0a.29.29,0,0,1,.07.38Zm-.06-.36a.29.29,0,0,0,.06.33A.26.26,0,0,0,22.8,11.21Z"/><path class="cls-4" d="M22.34,11.57a.27.27,0,0,1,.36-.07A.33.33,0,0,1,22.34,11.57Z"/><path class="cls-3" d="M22.48,11.61a.43.43,0,0,1-.15,0h0a.32.32,0,0,1,.23-.12.3.3,0,0,1,.15.05h0A.27.27,0,0,1,22.48,11.61Zm-.13,0,.13,0a.23.23,0,0,0,.2-.08.19.19,0,0,0-.12,0A.29.29,0,0,0,22.35,11.56Z"/><path class="cls-4" d="M22.28,11.27a.27.27,0,0,1,.34.15A.31.31,0,0,1,22.28,11.27Z"/><path class="cls-3" d="M22.54,11.45a.33.33,0,0,1-.27-.17h.1a.28.28,0,0,1,.26.17h0Zm-.25-.17a.33.33,0,0,0,.25.14h.06a.25.25,0,0,0-.23-.15Z"/><path class="cls-4" d="M22.52,11.7a.27.27,0,0,1,.36-.07A.31.31,0,0,1,22.52,11.7Z"/><path class="cls-3" d="M22.67,11.74a.32.32,0,0,1-.16,0h0a.29.29,0,0,1,.23-.12.28.28,0,0,1,.15,0h0A.26.26,0,0,1,22.67,11.74Zm-.13,0,.13,0a.25.25,0,0,0,.2-.09l-.13,0A.27.27,0,0,0,22.54,11.7Z"/><path class="cls-4" d="M22.69,11.91a.28.28,0,0,1,.33-.17A.32.32,0,0,1,22.69,11.91Z"/><path class="cls-3" d="M22.73,11.92h-.05a.28.28,0,0,1,.26-.19H23A.3.3,0,0,1,22.73,11.92Zm0,0h0a.3.3,0,0,0,.28-.15h-.07A.29.29,0,0,0,22.7,11.9Z"/><path class="cls-4" d="M22.87,12.05a.27.27,0,0,1,.33-.17A.32.32,0,0,1,22.87,12.05Z"/><path class="cls-3" d="M22.91,12.06h-.05v0a.31.31,0,0,1,.26-.18h.09A.31.31,0,0,1,22.91,12.06Zm0,0h0a.31.31,0,0,0,.28-.15h-.07A.27.27,0,0,0,22.89,12Z"/><path class="cls-4" d="M23,11.29a.28.28,0,0,1,.06.37C22.88,11.53,23,11.29,23,11.29Z"/><path class="cls-3" d="M23.05,11.68h0a.35.35,0,0,1-.07-.38v0h0a.31.31,0,0,1,.06.39ZM23,11.31a.3.3,0,0,0,.05.33A.25.25,0,0,0,23,11.31Z"/><path class="cls-4" d="M23.15,11.36a.28.28,0,0,1,.06.37C23,11.6,23.15,11.36,23.15,11.36Z"/><path class="cls-3" d="M23.21,11.75h0a.34.34,0,0,1-.06-.38h0a.29.29,0,0,1,.07.39Zm-.06-.37a.31.31,0,0,0,.06.33A.26.26,0,0,0,23.15,11.38Z"/><path class="cls-5" d="M22.33,17.59a2.85,2.85,0,0,0,1.3-.4,2.17,2.17,0,0,1-.24-.35S21.79,17.65,22.33,17.59Z"/><path class="cls-12" d="M22.07,17.58s.29-.8.79-.91.55,0,.55,0l.22.52a.93.93,0,0,0-.63,0,2.37,2.37,0,0,0-.72.38Z"/><path class="cls-5" d="M22.09,17.65s.31-.71.8-.81.59,0,.59,0l.15.35a.93.93,0,0,0-.63,0,2.37,2.37,0,0,0-.72.38Z"/><path class="cls-12" d="M22.08,17.54a.1.1,0,0,0,0,0h.05Z"/><path class="cls-12" d="M23,17.09a2.6,2.6,0,0,0-.81.49h.13A2.37,2.37,0,0,1,23,17.2a.93.93,0,0,1,.63,0L23.56,17A1.67,1.67,0,0,0,23,17.09Z"/><path class="cls-12" d="M22.09,18s.32.67,1.21.28,1.61.19,2.11-.49a.94.94,0,0,1-.32,0l.1-.33a1,1,0,0,1-.82.25,1.77,1.77,0,0,0-1.2.3.82.82,0,0,1-.87-.13A1,1,0,0,0,22.09,18Z"/><path class="cls-5" d="M22.15,18s.24.59,1.13.21,1.37.16,2-.37h-.19l.1-.33a.89.89,0,0,1-.83.36,2,2,0,0,0-1.18.27c-.59.21-.8,0-.93-.18Z"/><path class="cls-5" d="M21.73,17.59a2.85,2.85,0,0,1-1.3-.4,2.17,2.17,0,0,0,.24-.35S22.27,17.65,21.73,17.59Z"/><path class="cls-12" d="M22,17.58s-.3-.8-.79-.91-.56,0-.56,0l-.21.52a.93.93,0,0,1,.63,0,2.37,2.37,0,0,1,.72.38Z"/><path class="cls-5" d="M22,17.65s-.31-.71-.8-.81-.6,0-.6,0l-.14.35a.93.93,0,0,1,.63,0,2.37,2.37,0,0,1,.72.38Z"/><path class="cls-12" d="M22,17.54v0h0Z"/><path class="cls-12" d="M21.09,17.09a2.55,2.55,0,0,1,.82.49h-.13a2.37,2.37,0,0,0-.72-.38.93.93,0,0,0-.63,0L20.5,17A1.62,1.62,0,0,1,21.09,17.09Z"/><path class="cls-12" d="M22,18s-.32.67-1.22.28-1.6.19-2.11-.49a1,1,0,0,0,.33,0l-.1-.33a.93.93,0,0,0,.82.25,1.79,1.79,0,0,1,1.2.3.82.82,0,0,0,.87-.13A1.51,1.51,0,0,1,22,18Z"/><path class="cls-5" d="M21.91,18s-.24.59-1.14.21-1.36.16-2-.37H19l-.1-.33a.88.88,0,0,0,.82.36,2.06,2.06,0,0,1,1.19.27c.59.21.79,0,.93-.18Z"/><path class="cls-12" d="M21.62,17.51h.9a.84.84,0,0,0-.12.56c-.51,0-.69,0-.69,0S21.78,17.65,21.62,17.51Z"/><path class="cls-5" d="M21.82,17.51h.47a1.19,1.19,0,0,0-.08.57h-.3S22,17.65,21.82,17.51Z"/><path class="cls-3" d="M22.09,17l0-.05c-.14-.3-.44-.43-1-.43h-.31a2.07,2.07,0,0,1-1.38-.61,1.56,1.56,0,0,1-.45-1.2,4.46,4.46,0,0,1,.31-1.31c.3-.89.61-1.81-.22-2.73h0c.49-.61,1-1.27,1-1.27v0h0a1.43,1.43,0,0,0,1,.38,2.06,2.06,0,0,0,1-.32h0a2.42,2.42,0,0,0,1.1.32,1.24,1.24,0,0,0,.89-.35l0,0h0v0c.57.75,1,1.25,1,1.25v0h0a1.9,1.9,0,0,0-.5,1.48c.05.32.17.7.27,1.07a4.54,4.54,0,0,1,.3,1.69A1.89,1.89,0,0,1,23.3,16.5h-.23c-.58,0-.84,0-1,.39Zm-1-.52c.53,0,.84.13,1,.41.13-.32.42-.34,1-.37h.24a1.84,1.84,0,0,0,1.85-1.61,4.65,4.65,0,0,0-.29-1.67,8.63,8.63,0,0,1-.28-1.08,2,2,0,0,1,.49-1.5l-.94-1.22h0a1.28,1.28,0,0,1-.92.36,2.46,2.46,0,0,1-1.11-.32A2.09,2.09,0,0,1,21,9.75a1.53,1.53,0,0,1-1-.37c-.08.11-.52.69-1,1.24.82.93.51,1.85.21,2.75a4.4,4.4,0,0,0-.31,1.3,1.52,1.52,0,0,0,.44,1.17,2,2,0,0,0,1.35.6h.31Z"/></g></g></svg>