<svg xmlns="http://www.w3.org/2000/svg" viewBox="0 0 44.11 24.98"><defs><style>.cls-1{fill:#006c35;}.cls-2{fill:#fff;}</style></defs><title>saudi-arabia</title><g id="Layer_2" data-name="Layer 2"><g id="OBJECTS"><rect class="cls-1" width="44.11" height="24.98"/><path class="cls-2" d="M12.16,18H31.28a1.09,1.09,0,0,1,1.16,1.31.8.8,0,0,1-1.13.45c-.51-.33.05-.66.05-.66H14.45A2.54,2.54,0,0,1,12.16,18Z"/><path class="cls-2" d="M29.3,19.84a.31.31,0,0,1-.31.31h0a.31.31,0,0,1-.32-.31V17.53a.32.32,0,0,1,.32-.32h0a.32.32,0,0,1,.31.32Z"/><path class="cls-2" d="M31.62,19.71a.09.09,0,0,1-.1.09H29.08a.09.09,0,0,1-.09-.09h0a.1.1,0,0,1,.09-.1h2.44a.1.1,0,0,1,.1.1Z"/><path class="cls-2" d="M35.69,6.65,34.63,5.18s.43,5.12.53,6.54A20.42,20.42,0,0,1,33.83,10S33.67,5.62,33,5.18a4.66,4.66,0,0,0-.43.7L33,8.74l-.66-1V6.81l.23,0-.9-1.66V6.61L30.25,5.18V6.51l1.39,1.56v3.65c0,.9-.3,1.2-.58.62s-.84-.53-1,0-.38,1.45-.91,1.36a1.21,1.21,0,0,1-.88-1.38c-.13.87,0,2.28.8,2.23s.94-1,1.18-1.49.48.39,1.08.51,1.12-.17,1.16-1.05,0-3.3,0-3.3l.66.88s.2,2.38.15,3.05A2.83,2.83,0,0,0,34,11.36s.75,1.13.93,1.46-.45,1.16-1.06,1.39-1.38.62-.37.65a2,2,0,0,0,2.24-2.21c0-1.9-.28-6-.28-6Z"/><path class="cls-2" d="M28.19,5.28a5.71,5.71,0,0,1,1,1.53.31.31,0,0,1-.28,0s1,5,.05,6.47c-.23-2.37-.61-5.32-.75-6.3S28,5.28,28.19,5.28Z"/><path class="cls-2" d="M27.15,5.28a3.49,3.49,0,0,1,.63,1.61.39.39,0,0,1-.24,0s.34,2.61.35,4,.17,2.55-.74,3.27-1.88.66-1.9.28,1.61-.73,1.95-1.79c-.67-1.18-1.8-3.09-1.8-3.09s.52,3.45-.48,4.23c0-2.37-.25-5.44-.25-5.44S23.08,6.1,23,6a4,4,0,0,1,0-.85L24.14,6l-.1.29.37.53s-.1-1.29-.12-1.56c.42.1,1.16,1.61,1.16,1.61L25.14,7l.23,1.3A14.44,14.44,0,0,1,27.29,12a54,54,0,0,0-.36-5.94C26.83,5.25,27.15,5.28,27.15,5.28Z"/><path class="cls-2" d="M21.9,5.18a1.51,1.51,0,0,1,.93,1.07l-.26,0a5,5,0,0,1,.26,1.37c0,.48-.73,1.89-1.81.66a1.29,1.29,0,0,1-1.34.49c-.5-.13-.7-.72-.63-1.64-.19,0-.37.44-.39.9s-1.14.9-1.32-.38.28-1.68.28-1.68-.25,1.23.21,1.56.55-.71.88-1.24.77-.58.9-.4-.17,1-.08,1.54,1,1.08,1.21,0a2.5,2.5,0,0,0-.12-1.65s.09-.66.3-.78a1.82,1.82,0,0,1,.42,1.1,4.88,4.88,0,0,0,0,1.41c.13.26.6.6.9.1s-.19-1.36-.4-1.68S21.9,5.18,21.9,5.18Z"/><path class="cls-2" d="M12.73,5.93a1.31,1.31,0,0,1,.72,1c-.15,0-.2,0-.2,0a2.72,2.72,0,0,1,.2,1.37.86.86,0,0,1-1.59.45L11.59,9s.17,2.51-.36,3.07c0-1.14-.07-2.64-.07-2.64s-.87.2-1.05-.37a3.9,3.9,0,0,1,0-1.73c-.22,0-.48.25-.51,1s-.37.82-.63.83-.79-.93-.29-2.53c.05.75.14,1.61.43,1.68s.33-2.12,1.46-1.83a8.65,8.65,0,0,0-.1,1.95c.07.25.5,0,.5-.24s-.26-2.42-.26-2.42l.4-.56s.28,2.41.38,2.93c0,.11.31.24.31-.16a16.18,16.18,0,0,0-.34-1.86.83.83,0,0,1,.7.75,1.91,1.91,0,0,0,0,1.1.53.53,0,0,0,.77.39,2.18,2.18,0,0,0-.4-2A.75.75,0,0,1,12.73,5.93Z"/><path class="cls-2" d="M9,12.34a3.78,3.78,0,0,0-.08,1.33c.14.26.49-.07.49-.07s0,1.17-.58,1.07S8.29,12.83,9,12.34Z"/><path class="cls-2" d="M10.9,10.16S10,9.23,8.67,11.29Z"/><path class="cls-2" d="M15.77,12.58s.56-1,.27-1.42-.83-.1-.65.13A1.16,1.16,0,0,1,15.77,12.58Z"/><path class="cls-2" d="M9.52,6.42s.34-1.14,0-1.32-.52.19-.22.56A.93.93,0,0,1,9.52,6.42Z"/><path class="cls-2" d="M11.84,5.28s-.29.68.1.69.3-.09.3-.09.62.45.5-.49a.32.32,0,0,1-.17-.11s.08.33,0,.42-.21-.2-.2-.37a.33.33,0,0,0-.16,0,.77.77,0,0,1,0,.4c-.07.11-.31.12-.23-.15S11.84,5.28,11.84,5.28Z"/><path class="cls-2" d="M20.59,9.07s-.29.67.09.68.31-.09.31-.09.62.45.5-.49a.31.31,0,0,1-.18-.1s.09.33,0,.41-.2-.2-.19-.37a.27.27,0,0,0-.16,0s.06.28,0,.39-.31.12-.23-.14S20.59,9.07,20.59,9.07Z"/><path class="cls-2" d="M25.75,7.47s-.29.67.09.69.31-.09.31-.09.62.45.5-.49a.36.36,0,0,1-.18-.11s.09.33,0,.41-.2-.19-.19-.37a.27.27,0,0,0-.16,0s.06.28,0,.39-.31.13-.23-.14S25.75,7.47,25.75,7.47Z"/><path class="cls-2" d="M16.52,6.33s-.53-.14-.34-.61a.51.51,0,0,1,1,0c.1.54-.53,1.41-1.18,1.76a2.1,2.1,0,0,1-1.18.29,7,7,0,0,0,1.44-1c.38-.44.65-.83.55-1S16.28,5.89,16.52,6.33Z"/><path class="cls-2" d="M16.59,7.43a.88.88,0,0,0-.52.84c.07.53,1,.49.89-.08-.25.14-.54.17-.54-.11A2,2,0,0,1,16.59,7.43Z"/><path class="cls-2" d="M18.42,4.84a.93.93,0,0,0-.52.85c.08.53,1,.49.9-.08-.25.14-.55.17-.55-.11A2,2,0,0,1,18.42,4.84Z"/><path class="cls-2" d="M20.12,6.5S19.66,5.26,20,4.93s.48.22.3.63A2.29,2.29,0,0,0,20.12,6.5Z"/><path class="cls-2" d="M26.15,6.89s.41-1.17,0-1.52-.76,0-.5.29A2.13,2.13,0,0,1,26.15,6.89Z"/><path class="cls-2" d="M22.92,13.76s.65-.82.79-.62-.25.61,0,.72.92-.22.92-.22-.65.84-1.25.74S23.86,13.51,22.92,13.76Z"/><path class="cls-2" d="M29.47,8.37l1.19,1.17s0-2,.22-1.78c-.3-.32-.71.88-.71.88S29.74,7.89,29.47,8.37Z"/><polygon class="cls-2" points="31.42 9.48 29.94 10.59 29.82 11.5 31.23 10.28 31.42 9.48"/><path class="cls-2" d="M33.73,6.05s.55-.23.64.51A3.15,3.15,0,0,1,34.15,8a4.58,4.58,0,0,0,0-1.19C34,6.53,33.42,6.46,33.73,6.05Z"/><path class="cls-2" d="M22,11.08c.44-.27,1.18-.22,1.62-.67s.14-1.72-.73-1.64S22,10.33,22,10.33a2.76,2.76,0,0,0-2,1.39L22.3,12A1.58,1.58,0,0,0,21,13.17a2,2,0,0,1-1.1-1.88A6.91,6.91,0,0,0,19,8.64a6.52,6.52,0,0,0-.35.76,7.87,7.87,0,0,1,.59,2.86,5,5,0,0,1-1.55,1.55.51.51,0,0,1-.81-.55c1.36-1.08,1.61-1.83,1.64-2.66S18.08,9.05,17.71,9s-.36.85-.28,1,.83.57.48,1.21a5,5,0,0,1-1.25,1.28,1.77,1.77,0,0,1-.05-.73A6.4,6.4,0,0,0,16,13s-1.28.8-2.59,1.67a9.79,9.79,0,0,0,2.66-.88c.49,1.48,1.63.87,2.33.39a5.24,5.24,0,0,0,1.22-1.24,5.67,5.67,0,0,0,1.44,1.44c.94.65,1.56,0,1.45-.36s-.4-.22-.73-.54-.1-.69,1-.89a2.62,2.62,0,0,0,1.68-1.28A19.53,19.53,0,0,1,22,11.08Zm.81-1.58c.22-.13.31.27.25.43s-.56.23-.56.23S22.61,9.63,22.83,9.5Z"/><path class="cls-2" d="M16.72,9.18l-.23.09s.15.78-.13.78-.27-.76-.27-.76a1,1,0,0,1-.4.11c0,.85-.53.83-.58.45s-.26-.38-.56-.17c-.08-.74-.2-2.57-.2-2.57s.35-.16.3-.22S14,5.1,14,5.1s-.28.14-.43.78c.14.63.45,4.21.45,4.21l-.13.05s-.43-.72-.93-.76S12,10,12,10.66s.88.66,1.36.44c0,.67-.29,1-1.41,1.4s-1.06-.83-1-1.49a2.19,2.19,0,0,0-.25,1.81c.17.49,1.26.75,2.25.12A2.14,2.14,0,0,0,13.74,11l.33-.09a3.59,3.59,0,0,1-.21,1.59,3,3,0,0,1-3,1.21c-1.07-.34-.6-1.82-.6-1.82a1.72,1.72,0,0,0-.26,2c.6,1.14,2.26.76,3.57,0s1.1-2,1.1-3.14a1.15,1.15,0,0,0,1.28-.14c.11.18,1,.26,1.11-.23A1.88,1.88,0,0,0,16.72,9.18Zm-4.09,1.23a.44.44,0,0,1,.22-.56c.15,0,.39.5.39.5C13,10.45,12.75,10.61,12.63,10.41Z"/></g></g></svg>