<svg xmlns="http://www.w3.org/2000/svg" viewBox="0 0 44.11 24.98"><defs><style>.cls-1{fill:#ef2525;}.cls-2{fill:#fff;}.cls-3{fill:#171796;}.cls-4{fill:#282828;}.cls-5{fill:#ffce00;}.cls-6{fill:#232323;}.cls-7{fill:#00ad3a;}.cls-8{fill:#114ea8;}.cls-9{fill:#595959;}.cls-10{fill:#2b2b2b;}</style></defs><title>serbia</title><g id="Layer_2" data-name="Layer 2"><g id="OBJECTS"><rect class="cls-1" width="44.11" height="24.98"/><rect class="cls-2" y="16.43" width="44.11" height="8.55"/><rect class="cls-3" y="7.88" width="44.11" height="8.55"/><path class="cls-1" d="M8.63,7.78S8.36,6.65,9.87,6.9a1.09,1.09,0,0,1,1.42-.25.64.64,0,0,0,.56-.08c.4-.21.75,0,1.16.37.54-.2,1.48-.22,1.3.93a1.7,1.7,0,0,1-.72,1,1.48,1.48,0,0,0-.36.2L9.6,9s0-.1-.28-.2A2.09,2.09,0,0,1,8.63,7.78Z"/><path class="cls-4" d="M13.23,9h0L9.59,9h0s0-.09-.27-.19a2.16,2.16,0,0,1-.7-1,.82.82,0,0,1,.13-.65.86.86,0,0,1,.72-.27l.4,0a1,1,0,0,1,.8-.4,1.61,1.61,0,0,1,.62.15.6.6,0,0,0,.55-.07.75.75,0,0,1,.34-.09,1.43,1.43,0,0,1,.84.45,1.52,1.52,0,0,1,.55-.1.77.77,0,0,1,.6.23,1,1,0,0,1,.14.82,1.63,1.63,0,0,1-.72,1,2,2,0,0,0-.36.2ZM9.6,9l3.62,0a2.36,2.36,0,0,1,.36-.2,1.68,1.68,0,0,0,.72-1,1,1,0,0,0-.14-.8.76.76,0,0,0-.59-.23,1.78,1.78,0,0,0-.55.1h0a1.36,1.36,0,0,0-.83-.44.67.67,0,0,0-.33.08.64.64,0,0,1-.57.08,1.37,1.37,0,0,0-.61-.15,1,1,0,0,0-.79.4h0a2,2,0,0,0-.4,0,.85.85,0,0,0-.71.27.85.85,0,0,0-.13.64h0a2.12,2.12,0,0,0,.7,1C9.54,8.88,9.59,9,9.6,9Z"/><path class="cls-5" d="M13.49,9c0-.17-.91-.31-2-.31s-2,.14-2,.31c0,0,0,0,0,0l.18.43h3.66L13.47,9h0S13.49,9,13.49,9Z"/><path class="cls-4" d="M13.29,9.41H9.62L9.43,9s0,0,0,0c0-.18.9-.31,2-.31s2,.13,2,.31a0,0,0,0,1,0,0Zm-3.66,0h3.65L13.46,9h0V9c0-.16-.93-.3-2-.3s-2,.14-2,.3a0,0,0,0,0,0,0h0Z"/><path class="cls-5" d="M13.49,9.05c0-.17-.91-.3-2-.3s-2,.13-2,.3l0,0,.18.42h3.66l.19-.43h0Z"/><path class="cls-4" d="M13.29,9.52H9.62l-.19-.43,0,0c0-.17.9-.31,2-.31s2,.14,2,.31a0,0,0,0,1,0,0Zm-3.66,0h3.65l.18-.41h0v0c0-.16-.93-.3-2-.3s-2,.14-2,.3a0,0,0,0,0,0,0h0Z"/><path class="cls-6" d="M13.23,9.85H9.67L9.5,9.41s0,0,0,0,.86-.31,2-.31,2,.14,2,.31,0,0,0,0Zm-3.54,0h3.53l.18-.43h0a0,0,0,0,0,0,0c0-.16-.9-.29-2-.29s-2,.13-2,.29,0,0,0,0h0Z"/><path class="cls-4" d="M11.44,7.7l-.3-.28h0a2.06,2.06,0,0,0,.08-.48V6.81c0-.13,0-.27.07-.35a.24.24,0,0,1,.18-.06.24.24,0,0,1,.17.06.54.54,0,0,1,.06.38v.09a3.68,3.68,0,0,0,.06.49h0c-.09.09-.31.27-.31.27Zm-.28-.29.29.28.3-.27a3.8,3.8,0,0,1-.07-.49.34.34,0,0,1,0-.09c0-.12,0-.29-.06-.37a.21.21,0,0,0-.16-.06.24.24,0,0,0-.17.06.52.52,0,0,0-.07.34v.12A3,3,0,0,1,11.16,7.41Z"/><path class="cls-5" d="M8.75,7.07a.63.63,0,0,0-.29.5.53.53,0,0,0,.33.5l.07-.15a.61.61,0,0,1-.22-.16A.64.64,0,0,1,8.75,7.07Z"/><path class="cls-5" d="M8.83,8.2l-.07,0,.06-.25a.42.42,0,0,1-.27-.44.73.73,0,0,1,.67-.68,1,1,0,0,1,.65.09l0,.07a1.08,1.08,0,0,0-.61-.09.66.66,0,0,0-.6.61c0,.33.23.37.24.37h0Z"/><path class="cls-4" d="M8.83,8.2l-.08,0,.06-.25a.41.41,0,0,1-.26-.44.73.73,0,0,1,.67-.69H9.4a1.21,1.21,0,0,1,.47.1h0l0,.08h0a.87.87,0,0,0-.43-.1H9.23a.66.66,0,0,0-.6.6c0,.32.23.36.24.36h0Zm-.07,0h.06l.08-.31h0a.33.33,0,0,1-.25-.38.66.66,0,0,1,.61-.61l.17,0a1,1,0,0,1,.43.1l0,0A1,1,0,0,0,9.4,6.8a.55.55,0,0,0-.18,0,.72.72,0,0,0-.66.67.41.41,0,0,0,.26.43h0Z"/><path class="cls-2" d="M9.88,6.73s0,.08-.06.08a.06.06,0,0,1-.08-.06.07.07,0,0,1,.06-.09A.08.08,0,0,1,9.88,6.73Z"/><path class="cls-4" d="M9.81,6.82a.08.08,0,0,1-.08-.07.07.07,0,0,1,.07-.09.08.08,0,0,1,.09.07.1.1,0,0,1-.07.09Zm0-.15h0s-.06,0-.06.08a.07.07,0,0,0,.08,0,.05.05,0,0,0,0-.07A.06.06,0,0,0,9.81,6.67Z"/><path class="cls-2" d="M9.67,6.67a.06.06,0,0,1-.06.08.08.08,0,0,1-.08-.07s0-.08.06-.08A.07.07,0,0,1,9.67,6.67Z"/><path class="cls-4" d="M9.6,6.76s-.07,0-.08-.08a.1.1,0,0,1,.07-.09.08.08,0,0,1,.09.08.08.08,0,0,1-.07.09Zm0-.15h0a.06.06,0,0,0-.06.07.06.06,0,0,0,.07.06.07.07,0,1,0,0-.13Z"/><path class="cls-2" d="M9.47,6.66s0,.08-.06.08a.06.06,0,0,1-.08-.06.07.07,0,0,1,.06-.09A.08.08,0,0,1,9.47,6.66Z"/><path class="cls-4" d="M9.4,6.75a.08.08,0,0,1-.08-.07.07.07,0,0,1,.07-.09.08.08,0,0,1,.09.07.1.1,0,0,1-.07.09Zm0-.15h0a.07.07,0,0,0-.06.07s0,.07.07.06.06,0,.06-.07A.06.06,0,0,0,9.4,6.6Z"/><path class="cls-2" d="M9.28,6.68a.07.07,0,1,1-.14,0s0-.08.06-.08A.06.06,0,0,1,9.28,6.68Z"/><path class="cls-4" d="M9.21,6.77a.08.08,0,0,1-.08-.07.08.08,0,0,1,.07-.09.07.07,0,0,1,.09.07s0,.08-.07.09Zm0-.15h0a.07.07,0,0,0,0,.08.07.07,0,0,0,.07.06.09.09,0,0,0,.06-.08A.09.09,0,0,0,9.21,6.62Z"/><path class="cls-2" d="M9.08,6.74A.06.06,0,0,1,9,6.82a.08.08,0,0,1-.08-.07s0-.07.06-.08A.08.08,0,0,1,9.08,6.74Z"/><path class="cls-4" d="M9,6.83s-.07,0-.08-.08A.1.1,0,0,1,9,6.66a.09.09,0,0,1,.09.08A.1.1,0,0,1,9,6.83Zm0-.15H9A.06.06,0,0,0,9,6.75.06.06,0,0,0,9,6.81a.06.06,0,0,0,.05-.07A.06.06,0,0,0,9,6.68Z"/><path class="cls-2" d="M8.9,6.82s0,.08-.06.08a.06.06,0,0,1-.08-.06.07.07,0,1,1,.14,0Z"/><path class="cls-4" d="M8.83,6.91a.08.08,0,0,1-.08-.07.07.07,0,0,1,.07-.09.08.08,0,0,1,.09.07s0,.09-.07.09Zm0-.15h0s-.06,0-.06.08a.09.09,0,0,0,.08.06.07.07,0,0,0,.05-.08A.06.06,0,0,0,8.83,6.76Z"/><path class="cls-2" d="M8.74,7s0,.08-.06.08A.06.06,0,0,1,8.6,7a.07.07,0,0,1,.06-.09A.08.08,0,0,1,8.74,7Z"/><path class="cls-4" d="M8.67,7A.08.08,0,0,1,8.59,7a.07.07,0,0,1,.07-.09s.08,0,.09.07,0,.09-.07.09Zm0-.15h0s-.06,0-.06.08A.09.09,0,0,0,8.67,7S8.74,7,8.73,7A.06.06,0,0,0,8.67,6.89Z"/><path class="cls-2" d="M8.61,7.08a.09.09,0,0,1-.06.09.09.09,0,0,1-.09-.07A.08.08,0,0,1,8.53,7S8.6,7,8.61,7.08Z"/><path class="cls-4" d="M8.54,7.17a.08.08,0,0,1-.08-.07A.07.07,0,0,1,8.53,7s.08,0,.09.07a.08.08,0,0,1-.07.09Zm0-.15h0a.08.08,0,0,0-.06.08.07.07,0,0,0,.07.06s.07,0,.06-.08A.06.06,0,0,0,8.54,7Z"/><path class="cls-2" d="M8.52,7.27a.06.06,0,0,1-.06.08.07.07,0,0,1-.08-.07s0-.07.06-.08A.08.08,0,0,1,8.52,7.27Z"/><path class="cls-4" d="M8.45,7.36a.08.08,0,0,1-.08-.07.08.08,0,0,1,.07-.09c.05,0,.08,0,.09.07a.1.1,0,0,1-.07.09Zm0-.15h0a.06.06,0,0,0,0,.07.06.06,0,0,0,.07.06.07.07,0,0,0,.06-.07A.09.09,0,0,0,8.45,7.21Z"/><path class="cls-2" d="M8.5,7.46a.06.06,0,0,1-.06.08s-.07,0-.08-.06,0-.08.06-.08A.06.06,0,0,1,8.5,7.46Z"/><path class="cls-4" d="M8.43,7.55a.08.08,0,0,1-.08-.07.08.08,0,0,1,.07-.09.07.07,0,0,1,.09.07.08.08,0,0,1-.07.09Zm0-.15h0s-.07,0-.06.08a.07.07,0,0,0,.07.06.08.08,0,0,0,.06-.08A.07.07,0,0,0,8.43,7.4Z"/><path class="cls-2" d="M8.52,7.66s0,.08-.06.08a.06.06,0,0,1-.08-.06.07.07,0,0,1,.06-.09A.08.08,0,0,1,8.52,7.66Z"/><path class="cls-4" d="M8.45,7.75a.08.08,0,0,1-.08-.07.07.07,0,0,1,.07-.09.08.08,0,0,1,.09.07.1.1,0,0,1-.07.09Zm0-.15h0s-.06,0-.06.07,0,.07.08.06a.05.05,0,0,0,0-.07A.06.06,0,0,0,8.45,7.6Z"/><path class="cls-2" d="M8.6,7.83a.1.1,0,0,1-.07.09.08.08,0,0,1-.08-.07.08.08,0,0,1,.07-.08S8.59,7.79,8.6,7.83Z"/><path class="cls-4" d="M8.53,7.92a.08.08,0,0,1-.08-.07.07.07,0,0,1,.07-.09.07.07,0,0,1,.08.07.07.07,0,0,1-.06.09Zm0-.15h0a.08.08,0,0,0-.06.08.07.07,0,0,0,.07.06s.06,0,.06-.08A.06.06,0,0,0,8.53,7.77Z"/><path class="cls-2" d="M8.74,8a.06.06,0,0,1-.06.08A.08.08,0,0,1,8.6,8a.08.08,0,0,1,.06-.08A.07.07,0,0,1,8.74,8Z"/><path class="cls-4" d="M8.67,8.06S8.6,8,8.59,8a.1.1,0,0,1,.07-.09A.08.08,0,0,1,8.75,8s0,.08-.07.09Zm0-.15h0A.06.06,0,0,0,8.61,8,.06.06,0,0,0,8.68,8a.07.07,0,1,0,0-.13Z"/><path class="cls-5" d="M10.16,6.65a.61.61,0,0,0-.34.46.53.53,0,0,0,.27.54l.09-.14A.55.55,0,0,1,10,7.33.66.66,0,0,1,10.16,6.65Z"/><path class="cls-5" d="M10.11,7.78l-.07,0,.09-.24A.42.42,0,0,1,9.91,7a.72.72,0,0,1,.74-.59,1,1,0,0,1,.64.17l0,.06a1,1,0,0,0-.59-.15c-.38,0-.63.22-.67.52s.19.4.19.4h0Z"/><path class="cls-4" d="M10.11,7.79l-.08,0,.09-.24A.44.44,0,0,1,9.91,7a.72.72,0,0,1,.74-.6h.07a1.06,1.06,0,0,1,.57.17h0l-.05.07h0a1,1,0,0,0-.52-.16h-.06a.64.64,0,0,0-.66.53c-.05.31.18.38.19.38l0,0Zm-.06,0,.06,0,.1-.3h0s-.24-.08-.2-.41a.66.66,0,0,1,.68-.53h.06a1.09,1.09,0,0,1,.52.15l0,0a1.08,1.08,0,0,0-.56-.16h-.07A.71.71,0,0,0,9.92,7a.39.39,0,0,0,.21.46h0Z"/><path class="cls-2" d="M11.32,6.45a.08.08,0,0,1-.08.07.07.07,0,0,1-.07-.07.08.08,0,0,1,.07-.08A.09.09,0,0,1,11.32,6.45Z"/><path class="cls-4" d="M11.24,6.53a.09.09,0,0,1-.08-.08.08.08,0,0,1,.08-.08.07.07,0,0,1,.08.08A.08.08,0,0,1,11.24,6.53Zm0-.15a.07.07,0,0,0,0,.14.07.07,0,1,0,0-.14Z"/><path class="cls-2" d="M11.12,6.36a.08.08,0,0,1-.07.08A.09.09,0,0,1,11,6.36a.08.08,0,0,1,.08-.07A.07.07,0,0,1,11.12,6.36Z"/><path class="cls-4" d="M11.05,6.44A.07.07,0,0,1,11,6.36a.08.08,0,0,1,.08-.08.09.09,0,0,1,.08.08A.08.08,0,0,1,11.05,6.44Zm0-.15a.08.08,0,0,0-.07.07.07.07,0,0,0,.07.07.07.07,0,0,0,.06-.07S11.08,6.29,11.05,6.29Z"/><path class="cls-2" d="M10.91,6.33a.07.07,0,1,1-.14,0,.07.07,0,1,1,.14,0Z"/><path class="cls-4" d="M10.84,6.41a.09.09,0,0,1-.08-.08.08.08,0,0,1,.08-.08.07.07,0,0,1,.08.08A.08.08,0,0,1,10.84,6.41Zm0-.15a.07.07,0,0,0,0,.14.07.07,0,0,0,0-.14Z"/><path class="cls-2" d="M10.73,6.33a.07.07,0,0,1-.07.07.08.08,0,0,1-.08-.07.09.09,0,0,1,.08-.08A.08.08,0,0,1,10.73,6.33Z"/><path class="cls-4" d="M10.66,6.41a.08.08,0,0,1-.08-.08.07.07,0,0,1,.08-.08.08.08,0,0,1,.08.08A.09.09,0,0,1,10.66,6.41Zm0-.15a.07.07,0,0,0,0,.14.07.07,0,0,0,0-.14Z"/><path class="cls-2" d="M10.52,6.36a.07.07,0,1,1-.14,0,.07.07,0,0,1,.14,0Z"/><path class="cls-4" d="M10.45,6.44a.08.08,0,0,1-.08-.08.08.08,0,1,1,.16,0A.08.08,0,0,1,10.45,6.44Zm0-.15a.08.08,0,0,0-.07.07.07.07,0,0,0,.07.07s.06,0,.06-.07A.07.07,0,0,0,10.45,6.29Z"/><path class="cls-2" d="M10.33,6.42a.07.07,0,1,1-.14,0,.07.07,0,0,1,.14,0Z"/><path class="cls-4" d="M10.26,6.5a.08.08,0,0,1-.08-.08.08.08,0,0,1,.16,0A.08.08,0,0,1,10.26,6.5Zm0-.14a.07.07,0,0,0-.07.06.07.07,0,0,0,.14,0A.07.07,0,0,0,10.26,6.36Z"/><path class="cls-2" d="M10.16,6.53a.08.08,0,0,1-.07.08A.09.09,0,0,1,10,6.53a.08.08,0,0,1,.08-.07A.07.07,0,0,1,10.16,6.53Z"/><path class="cls-4" d="M10.09,6.62A.08.08,0,0,1,10,6.53a.08.08,0,0,1,.08-.08.09.09,0,0,1,.08.08A.09.09,0,0,1,10.09,6.62Zm0-.16a.08.08,0,0,0-.07.07.07.07,0,0,0,.07.07.07.07,0,0,0,.06-.07S10.12,6.46,10.09,6.46Z"/><path class="cls-2" d="M10,6.65a.07.07,0,0,1-.14,0,.07.07,0,1,1,.14,0Z"/><path class="cls-4" d="M9.94,6.73a.08.08,0,0,1,0-.16.08.08,0,0,1,0,.16Zm0-.15a.07.07,0,0,0,0,.14.07.07,0,0,0,0-.14Z"/><path class="cls-2" d="M9.91,6.82a.08.08,0,0,1-.07.08.09.09,0,0,1-.08-.08.08.08,0,0,1,.08-.07A.07.07,0,0,1,9.91,6.82Z"/><path class="cls-4" d="M9.84,6.91a.08.08,0,0,1-.08-.09.08.08,0,0,1,.08-.08.09.09,0,0,1,.08.08A.09.09,0,0,1,9.84,6.91Zm0-.16a.08.08,0,0,0-.07.07.07.07,0,0,0,.07.07.07.07,0,0,0,.06-.07S9.87,6.75,9.84,6.75Z"/><path class="cls-2" d="M9.87,7a.08.08,0,0,1-.07.08A.09.09,0,0,1,9.72,7a.08.08,0,0,1,.08-.07A.07.07,0,0,1,9.87,7Z"/><path class="cls-4" d="M9.8,7.09A.07.07,0,0,1,9.72,7a.08.08,0,0,1,.08-.08A.09.09,0,0,1,9.88,7,.08.08,0,0,1,9.8,7.09Zm0-.15a.07.07,0,0,0,0,.14.07.07,0,0,0,0-.14Z"/><path class="cls-2" d="M9.86,7.21a.07.07,0,1,1-.14,0,.07.07,0,0,1,.14,0Z"/><path class="cls-4" d="M9.79,7.29a.08.08,0,0,1-.08-.08.09.09,0,0,1,.08-.08.08.08,0,0,1,.08.08A.07.07,0,0,1,9.79,7.29Zm0-.15s-.06,0-.06.07,0,.07.06.07a.07.07,0,0,0,0-.14Z"/><path class="cls-2" d="M9.92,7.39a.07.07,0,1,1-.14,0,.07.07,0,1,1,.14,0Z"/><path class="cls-4" d="M9.85,7.47a.08.08,0,0,1-.08-.08.08.08,0,0,1,.16,0A.08.08,0,0,1,9.85,7.47Zm0-.14a.07.07,0,0,0-.07.06.07.07,0,0,0,.07.07s.06,0,.06-.07A.06.06,0,0,0,9.85,7.33Z"/><path class="cls-2" d="M10.05,7.54a.07.07,0,1,1-.14,0,.07.07,0,1,1,.14,0Z"/><path class="cls-4" d="M10,7.63a.09.09,0,0,1-.08-.09.08.08,0,1,1,.16,0A.09.09,0,0,1,10,7.63Zm0-.16s-.06,0-.06.07,0,.07.06.07a.07.07,0,0,0,0-.14Z"/><path class="cls-5" d="M14.17,7.07a.61.61,0,0,1,.29.5.52.52,0,0,1-.33.5l-.07-.15a.61.61,0,0,0,.22-.16A.64.64,0,0,0,14.17,7.07Z"/><path class="cls-5" d="M14.09,8.2l.08,0-.06-.25a.41.41,0,0,0,.26-.44.73.73,0,0,0-.67-.68,1,1,0,0,0-.65.09l0,.07a1,1,0,0,1,.6-.09c.37.08.6.3.61.61s-.23.37-.24.37h0Z"/><path class="cls-4" d="M14.09,8.2,14,7.86h.05s.24,0,.23-.36a.65.65,0,0,0-.6-.6h-.16a.89.89,0,0,0-.44.1h0l0-.08h0a1.28,1.28,0,0,1,.47-.1h.18a.74.74,0,0,1,.68.69.43.43,0,0,1-.26.44l.06.25ZM14,7.87l.07.31h.06l-.06-.25h0a.4.4,0,0,0,.25-.43.71.71,0,0,0-.66-.67.55.55,0,0,0-.18,0,1,1,0,0,0-.46.11l0,0a1,1,0,0,1,.44-.1l.16,0a.65.65,0,0,1,.61.61c0,.33-.23.38-.24.38Z"/><path class="cls-2" d="M13,6.73a.08.08,0,0,0,.07.08s.07,0,.08-.06a.09.09,0,0,0-.07-.09A.08.08,0,0,0,13,6.73Z"/><path class="cls-4" d="M13.11,6.82h0A.08.08,0,0,1,13,6.73a.07.07,0,0,1,.08-.07.07.07,0,0,1,.07.09A.07.07,0,0,1,13.11,6.82Zm0-.15a.06.06,0,0,0-.06.06s0,.07.06.07a.06.06,0,0,0,.07,0s0-.08-.06-.08Z"/><path class="cls-2" d="M13.25,6.67a.06.06,0,0,0,.06.08.08.08,0,0,0,.08-.07.06.06,0,0,0-.06-.08A.07.07,0,0,0,13.25,6.67Z"/><path class="cls-4" d="M13.32,6.76h0a.1.1,0,0,1-.07-.09.09.09,0,0,1,.09-.08.1.1,0,0,1,.07.09S13.36,6.76,13.32,6.76Zm0-.15a.06.06,0,0,0-.06.06.06.06,0,0,0,.05.07.06.06,0,0,0,.07-.06.06.06,0,0,0-.05-.07Z"/><path class="cls-2" d="M13.45,6.66a.08.08,0,0,0,.07.08s.07,0,.08-.06a.09.09,0,0,0-.07-.09A.08.08,0,0,0,13.45,6.66Z"/><path class="cls-4" d="M13.53,6.75h0a.08.08,0,0,1-.07-.09.07.07,0,0,1,.09-.07.08.08,0,0,1,0,.16Zm0-.15a.07.07,0,0,0-.07.06s0,.07.06.07a.06.06,0,0,0,.07-.06.07.07,0,0,0-.06-.07Z"/><path class="cls-2" d="M13.64,6.68s0,.08.06.08a.07.07,0,1,0-.06-.08Z"/><path class="cls-4" d="M13.71,6.77h0a.1.1,0,0,1-.07-.09.08.08,0,0,1,.09-.07.07.07,0,0,1,.07.09A.08.08,0,0,1,13.71,6.77Zm0-.15a.06.06,0,0,0-.06.06.07.07,0,0,0,0,.08.07.07,0,1,0,0-.14Z"/><path class="cls-2" d="M13.84,6.74a.08.08,0,0,0,.07.08A.09.09,0,0,0,14,6.75a.08.08,0,1,0-.15,0Z"/><path class="cls-4" d="M13.91,6.83h0a.1.1,0,0,1-.07-.09.09.09,0,0,1,.09-.08.08.08,0,0,1,.07.09A.08.08,0,0,1,13.91,6.83Zm0-.15a.06.06,0,0,0-.06.06.06.06,0,0,0,.06.07s.06,0,.07-.06a.07.07,0,0,0-.06-.07Z"/><path class="cls-2" d="M14,6.82a.08.08,0,0,0,.07.08s.07,0,.08-.06a.1.1,0,0,0-.07-.09A.08.08,0,0,0,14,6.82Z"/><path class="cls-4" d="M14.09,6.91h0A.07.07,0,0,1,14,6.82a.07.07,0,0,1,.08-.07.07.07,0,0,1,.07.09A.08.08,0,0,1,14.09,6.91Zm0-.15a.06.06,0,0,0-.06.06.08.08,0,0,0,.06.08s.07,0,.07-.06,0-.08-.06-.08Z"/><path class="cls-2" d="M14.18,7a.08.08,0,0,0,.07.08s.07,0,.08-.06a.09.09,0,0,0-.07-.09A.08.08,0,0,0,14.18,7Z"/><path class="cls-4" d="M14.26,7h0A.07.07,0,0,1,14.18,7a.07.07,0,0,1,.08-.07.08.08,0,0,1,.08.09A.08.08,0,0,1,14.26,7Zm0-.15a.06.06,0,0,0-.06.06.08.08,0,0,0,.06.08s.07,0,.07-.06,0-.08-.06-.08Z"/><path class="cls-2" d="M14.31,7.08a.09.09,0,0,0,.07.09.08.08,0,0,0,.08-.07A.08.08,0,0,0,14.39,7S14.32,7,14.31,7.08Z"/><path class="cls-4" d="M14.39,7.17h0a.07.07,0,0,1-.07-.09A.07.07,0,0,1,14.39,7a.07.07,0,0,1,.07.09A.07.07,0,0,1,14.39,7.17Zm0-.15a.07.07,0,0,0-.07.06.08.08,0,0,0,.06.08s.07,0,.07-.06,0-.07-.06-.08Z"/><path class="cls-2" d="M14.4,7.27s0,.08.06.08a.07.07,0,0,0,.08-.07s0-.07-.06-.08A.08.08,0,0,0,14.4,7.27Z"/><path class="cls-4" d="M14.47,7.36h0a.1.1,0,0,1-.07-.09.08.08,0,0,1,.09-.07.07.07,0,0,1,.07.09A.08.08,0,0,1,14.47,7.36Zm0-.15a.06.06,0,0,0-.06.06.05.05,0,0,0,.05.07s.07,0,.08-.06a.07.07,0,0,0-.06-.07Z"/><path class="cls-2" d="M14.42,7.46a.07.07,0,1,0,.08-.06A.06.06,0,0,0,14.42,7.46Z"/><path class="cls-4" d="M14.49,7.55h0s-.07,0-.07-.09.05-.08.09-.07a.08.08,0,0,1,.07.09A.08.08,0,0,1,14.49,7.55Zm0-.15a.06.06,0,0,0-.06.06.07.07,0,0,0,.05.08.07.07,0,0,0,.07-.06.07.07,0,0,0-.05-.08Z"/><path class="cls-2" d="M14.4,7.66a.08.08,0,0,0,.07.08s.07,0,.08-.06a.09.09,0,0,0-.07-.09A.08.08,0,0,0,14.4,7.66Z"/><path class="cls-4" d="M14.47,7.75h0a.08.08,0,0,1-.06-.09.07.07,0,0,1,.08-.07.07.07,0,0,1,.07.09A.07.07,0,0,1,14.47,7.75Zm0-.15a.06.06,0,0,0-.06.06s0,.07.06.07a.06.06,0,0,0,.07-.06.07.07,0,0,0-.06-.07Z"/><path class="cls-2" d="M14.33,7.83a.08.08,0,0,0,.06.09.08.08,0,0,0,.08-.07s0-.08-.06-.08A.06.06,0,0,0,14.33,7.83Z"/><path class="cls-4" d="M14.4,7.92h0a.07.07,0,0,1-.07-.09.07.07,0,0,1,.09-.07.08.08,0,0,1,.07.09A.08.08,0,0,1,14.4,7.92Zm0-.15a.07.07,0,0,0-.07.06s0,.08.06.08a.07.07,0,0,0,.07-.06.08.08,0,0,0-.06-.08Z"/><path class="cls-2" d="M14.18,8a.06.06,0,0,0,.06.08A.08.08,0,0,0,14.32,8s0-.07-.06-.08A.07.07,0,0,0,14.18,8Z"/><path class="cls-4" d="M14.25,8.06h0A.1.1,0,0,1,14.17,8a.09.09,0,0,1,.09-.08.1.1,0,0,1,.07.09S14.29,8.06,14.25,8.06Zm0-.15a.06.06,0,0,0-.06.06.06.06,0,0,0,.05.07A.06.06,0,0,0,14.31,8a.06.06,0,0,0-.05-.07Z"/><path class="cls-5" d="M12.77,6.65a.63.63,0,0,1,.34.46.54.54,0,0,1-.27.54l-.09-.14a.55.55,0,0,0,.2-.18A.67.67,0,0,0,12.77,6.65Z"/><path class="cls-5" d="M12.81,7.78l.07,0-.08-.24A.42.42,0,0,0,13,7a.72.72,0,0,0-.74-.59,1,1,0,0,0-.63.17l0,.06a1,1,0,0,1,.59-.15.64.64,0,0,1,.66.52c.05.33-.18.4-.19.4h0Z"/><path class="cls-4" d="M12.81,7.79l-.12-.33.05,0s.23-.07.19-.38a.65.65,0,0,0-.66-.53H12.2a1,1,0,0,0-.52.16h0l0-.07h0a1.06,1.06,0,0,1,.57-.17h.07A.74.74,0,0,1,13,7a.43.43,0,0,1-.22.48l.09.24Zm-.1-.32.11.3,0,0-.08-.24h0A.39.39,0,0,0,13,7a.71.71,0,0,0-.73-.58H12.2a1.08,1.08,0,0,0-.56.16l0,0a1.09,1.09,0,0,1,.52-.15h.07a.65.65,0,0,1,.67.53.33.33,0,0,1-.2.41Z"/><path class="cls-2" d="M11.61,6.45a.07.07,0,0,0,.14,0,.07.07,0,1,0-.14,0Z"/><path class="cls-4" d="M11.68,6.53a.09.09,0,0,1-.08-.08.08.08,0,1,1,.16,0A.09.09,0,0,1,11.68,6.53Zm0-.15a.07.07,0,1,0,.07.07A.07.07,0,0,0,11.68,6.38Z"/><path class="cls-2" d="M11.8,6.36a.09.09,0,0,0,.08.08A.08.08,0,0,0,12,6.36a.07.07,0,0,0-.07-.07A.08.08,0,0,0,11.8,6.36Z"/><path class="cls-4" d="M11.88,6.44a.07.07,0,0,1-.08-.08.08.08,0,0,1,.08-.08.09.09,0,0,1,.08.08A.08.08,0,0,1,11.88,6.44Zm0-.15a.08.08,0,0,0-.07.07.07.07,0,0,0,.07.07.07.07,0,0,0,.06-.07S11.91,6.29,11.88,6.29Z"/><path class="cls-2" d="M12,6.33a.07.07,0,0,0,.14,0,.07.07,0,1,0-.14,0Z"/><path class="cls-4" d="M12.08,6.41A.09.09,0,0,1,12,6.33a.08.08,0,0,1,.16,0A.09.09,0,0,1,12.08,6.41Zm0-.15a.07.07,0,1,0,.07.07A.07.07,0,0,0,12.08,6.26Z"/><path class="cls-2" d="M12.19,6.33a.08.08,0,0,0,.08.07.07.07,0,0,0,.07-.07.08.08,0,0,0-.07-.08A.09.09,0,0,0,12.19,6.33Z"/><path class="cls-4" d="M12.27,6.41a.08.08,0,0,1-.08-.08.07.07,0,0,1,.08-.08.08.08,0,0,1,.08.08A.09.09,0,0,1,12.27,6.41Zm0-.15a.07.07,0,0,0,0,.14.07.07,0,0,0,0-.14Z"/><path class="cls-2" d="M12.4,6.36a.08.08,0,0,0,.07.08.09.09,0,0,0,.08-.08.08.08,0,0,0-.08-.07A.07.07,0,0,0,12.4,6.36Z"/><path class="cls-4" d="M12.47,6.44a.08.08,0,0,1-.08-.08.09.09,0,0,1,.08-.08.08.08,0,0,1,.08.08A.07.07,0,0,1,12.47,6.44Zm0-.15s-.06,0-.06.07a.07.07,0,0,0,.06.07.07.07,0,0,0,.07-.07A.08.08,0,0,0,12.47,6.29Z"/><path class="cls-2" d="M12.59,6.42a.08.08,0,0,0,.07.08.09.09,0,0,0,.08-.08.08.08,0,0,0-.08-.07A.07.07,0,0,0,12.59,6.42Z"/><path class="cls-4" d="M12.66,6.5a.08.08,0,0,1-.08-.08.09.09,0,0,1,.08-.08.08.08,0,0,1,.08.08A.07.07,0,0,1,12.66,6.5Zm0-.14a.06.06,0,0,0-.06.06.07.07,0,0,0,.06.07.07.07,0,0,0,.07-.07A.07.07,0,0,0,12.66,6.36Z"/><path class="cls-2" d="M12.76,6.53a.09.09,0,0,0,.08.08.08.08,0,0,0,.07-.08.07.07,0,0,0-.07-.07A.08.08,0,0,0,12.76,6.53Z"/><path class="cls-4" d="M12.84,6.62a.08.08,0,0,1-.08-.09.08.08,0,0,1,.08-.08.09.09,0,0,1,.08.08A.09.09,0,0,1,12.84,6.62Zm0-.16a.08.08,0,0,0-.07.07.07.07,0,0,0,.07.07.07.07,0,0,0,.06-.07S12.87,6.46,12.84,6.46Z"/><path class="cls-2" d="M12.91,6.65a.07.07,0,0,0,.14,0,.07.07,0,1,0-.14,0Z"/><path class="cls-4" d="M13,6.73a.08.08,0,0,1,0-.16.08.08,0,0,1,0,.16Zm0-.15a.07.07,0,0,0,0,.14.07.07,0,1,0,0-.14Z"/><path class="cls-2" d="M13,6.82a.09.09,0,0,0,.08.08.08.08,0,0,0,.07-.08.07.07,0,0,0-.07-.07A.08.08,0,0,0,13,6.82Z"/><path class="cls-4" d="M13.09,6.91A.08.08,0,0,1,13,6.82a.08.08,0,0,1,.08-.08.09.09,0,0,1,.08.08A.09.09,0,0,1,13.09,6.91Zm0-.16a.08.08,0,0,0-.07.07.07.07,0,0,0,.07.07.07.07,0,0,0,.06-.07S13.12,6.75,13.09,6.75Z"/><path class="cls-2" d="M13.05,7a.09.09,0,0,0,.08.08A.08.08,0,0,0,13.2,7a.07.07,0,0,0-.07-.07A.08.08,0,0,0,13.05,7Z"/><path class="cls-4" d="M13.13,7.09A.07.07,0,0,1,13.05,7a.08.08,0,0,1,.08-.08.09.09,0,0,1,.08.08A.08.08,0,0,1,13.13,7.09Zm0-.15a.07.07,0,0,0,0,.14.07.07,0,0,0,0-.14Z"/><path class="cls-2" d="M13.06,7.21a.07.07,0,1,0,.14,0,.07.07,0,1,0-.14,0Z"/><path class="cls-4" d="M13.13,7.29a.08.08,0,0,1-.08-.08.09.09,0,0,1,.08-.08.08.08,0,0,1,.08.08A.07.07,0,0,1,13.13,7.29Zm0-.15a.07.07,0,0,0,0,.14.07.07,0,0,0,0-.14Z"/><path class="cls-2" d="M13,7.39a.08.08,0,0,0,.07.08.09.09,0,0,0,.08-.08.08.08,0,0,0-.08-.07A.07.07,0,0,0,13,7.39Z"/><path class="cls-4" d="M13.07,7.47A.08.08,0,0,1,13,7.39a.09.09,0,0,1,.08-.08.08.08,0,0,1,.08.08A.07.07,0,0,1,13.07,7.47Zm0-.14a.06.06,0,0,0-.06.06.07.07,0,0,0,.06.07.07.07,0,0,0,.07-.07A.07.07,0,0,0,13.07,7.33Z"/><path class="cls-2" d="M12.87,7.54a.07.07,0,1,0,.14,0,.07.07,0,0,0-.14,0Z"/><path class="cls-4" d="M12.94,7.63a.09.09,0,0,1-.08-.09.09.09,0,0,1,.08-.08.08.08,0,0,1,.08.08A.08.08,0,0,1,12.94,7.63Zm0-.16a.07.07,0,0,0,0,.14.07.07,0,0,0,0-.14Z"/><path class="cls-1" d="M11.76,8.91a.09.09,0,0,1-.08.08h-.41a.09.09,0,0,1-.08-.08h0a.08.08,0,0,1,.08-.08h.41a.08.08,0,0,1,.08.08Z"/><path class="cls-4" d="M11.68,9h-.41a.08.08,0,0,1-.08-.08.08.08,0,0,1,.08-.09h.41a.09.09,0,0,1,.09.09A.09.09,0,0,1,11.68,9Zm-.41-.16a.07.07,0,0,0-.07.08.07.07,0,0,0,.07.07h.41a.07.07,0,0,0,.07-.07.07.07,0,0,0-.07-.08Z"/><path class="cls-1" d="M9.75,9.07a.09.09,0,0,1-.05.11l-.15.05a.07.07,0,0,1-.1,0h0a.08.08,0,0,1,0-.11L9.65,9a.08.08,0,0,1,.1.05Z"/><path class="cls-4" d="M9.52,9.25a.09.09,0,0,1-.08-.06.08.08,0,0,1,.05-.11L9.65,9h0s.06,0,.08.06a.09.09,0,0,1,0,.11l-.16.06ZM9.68,9h0l-.15.06a.07.07,0,0,0-.05.09.08.08,0,0,0,.07.05h0l.16-.06a.07.07,0,0,0,0-.14Z"/><path class="cls-7" d="M10.75,8.92a.1.1,0,0,1-.07.09l-.41,0A.08.08,0,0,1,10.19,9h0a.07.07,0,0,1,.07-.09l.41,0a.07.07,0,0,1,.08.07Z"/><path class="cls-4" d="M10.26,9.05A.08.08,0,0,1,10.18,9a.1.1,0,0,1,.08-.1l.41,0s.08,0,.09.08a.09.09,0,0,1-.08.09l-.41,0Zm.41-.2h0l-.41.05a.08.08,0,0,0-.07.08s0,.07.08.06l.41,0s.07,0,.06-.08A.07.07,0,0,0,10.67,8.85Z"/><path class="cls-2" d="M11,8.92A.09.09,0,0,1,11,9a.09.09,0,0,1,0-.18A.09.09,0,0,1,11,8.92Z"/><path class="cls-4" d="M11,9A.09.09,0,1,1,11,8.92.09.09,0,0,1,11,9Zm0-.17A.08.08,0,0,0,11,9a.08.08,0,0,0,0-.16Z"/><path class="cls-2" d="M10,9a.08.08,0,0,1-.08.08A.09.09,0,0,1,9.87,9,.09.09,0,0,1,10,8.94.08.08,0,0,1,10,9Z"/><path class="cls-4" d="M10,9.12A.09.09,0,0,1,9.86,9,.09.09,0,1,1,10,9,.09.09,0,0,1,10,9.12ZM10,9A.07.07,0,0,0,9.88,9a.08.08,0,0,0,.07.08A.09.09,0,0,0,10,9,.08.08,0,0,0,10,9Z"/><path class="cls-1" d="M13.18,9.07a.09.09,0,0,0,.05.11l.16.05a.07.07,0,0,0,.1,0h0a.09.09,0,0,0-.05-.11L13.28,9a.09.09,0,0,0-.1.05Z"/><path class="cls-4" d="M13.41,9.25h0l-.15-.06a.09.09,0,0,1-.06-.11s.05-.06.08-.06h0l.16.06a.08.08,0,0,1,.05.11A.09.09,0,0,1,13.41,9.25ZM13.25,9a.06.06,0,0,0-.06.05.07.07,0,0,0,0,.09l.16.06h0a.08.08,0,0,0,.07-.05.07.07,0,0,0-.05-.09L13.28,9Z"/><path class="cls-7" d="M12.18,8.92a.1.1,0,0,0,.07.09l.41,0A.08.08,0,0,0,12.74,9h0a.07.07,0,0,0-.06-.09l-.41,0a.07.07,0,0,0-.09.07Z"/><path class="cls-4" d="M12.67,9.05h0l-.41,0a.09.09,0,0,1-.08-.09.09.09,0,0,1,.1-.08l.41,0a.09.09,0,0,1,.07.1A.08.08,0,0,1,12.67,9.05Zm-.41-.2a.07.07,0,0,0-.07.07s0,.07.06.08l.41,0s.07,0,.08-.06a.08.08,0,0,0-.07-.08l-.41-.05Z"/><path class="cls-2" d="M11.9,8.92A.08.08,0,0,0,12,9a.09.09,0,0,0,0-.18A.08.08,0,0,0,11.9,8.92Z"/><path class="cls-4" d="M12,9a.09.09,0,1,1,.09-.09A.09.09,0,0,1,12,9Zm0-.17A.08.08,0,0,0,12,9a.08.08,0,0,0,0-.16Z"/><path class="cls-2" d="M12.9,9a.08.08,0,0,0,.08.08A.09.09,0,0,0,13.06,9,.09.09,0,0,0,13,8.94.08.08,0,0,0,12.9,9Z"/><path class="cls-4" d="M13,9.12A.09.09,0,0,1,12.89,9a.09.09,0,1,1,.18,0A.09.09,0,0,1,13,9.12ZM13,9A.08.08,0,0,0,12.9,9a.09.09,0,0,0,.08.08A.08.08,0,0,0,13.05,9,.07.07,0,0,0,13,9Z"/><path class="cls-2" d="M12.05,8.92A.09.09,0,0,1,12,9a.09.09,0,0,1,0-.18A.09.09,0,0,1,12.05,8.92Z"/><path class="cls-4" d="M12,9a.09.09,0,1,1,.09-.09A.09.09,0,0,1,12,9Zm0-.17a.08.08,0,1,0,.08.08A.09.09,0,0,0,12,8.84Z"/><path class="cls-8" d="M11.72,6.16a.27.27,0,1,1-.27-.28A.28.28,0,0,1,11.72,6.16Z"/><path class="cls-4" d="M11.45,6.44a.28.28,0,0,1,0-.56.28.28,0,0,1,0,.56Zm0-.55a.27.27,0,1,0,.26.27A.26.26,0,0,0,11.45,5.89Z"/><path class="cls-5" d="M11.15,7.41a3.18,3.18,0,0,0,.07-.48c0-.22-.05-.53.25-.53s.21.41.22.53a2.74,2.74,0,0,0,.07.5l-.32.26Z"/><path class="cls-4" d="M11.44,7.7l-.3-.28h0a2.88,2.88,0,0,0,.08-.48V6.81a.45.45,0,0,1,.07-.35.24.24,0,0,1,.18-.06.2.2,0,0,1,.16.06.49.49,0,0,1,.07.38v.09a3.68,3.68,0,0,0,.06.49h0c-.09.09-.31.27-.31.27Zm-.28-.29.28.28.31-.27a3.8,3.8,0,0,1-.07-.49.34.34,0,0,1,0-.09c0-.12,0-.29-.07-.37a.18.18,0,0,0-.15-.06.24.24,0,0,0-.17.06.51.51,0,0,0-.07.34v.12A3,3,0,0,1,11.16,7.41Z"/><path class="cls-5" d="M11.25,7.37a2.55,2.55,0,0,0,.05-.43c0-.19,0-.45.17-.45s.13.35.14.46,0,.33,0,.43l-.2.23Z"/><path class="cls-4" d="M11.45,7.62l-.2-.25h0s0-.24.05-.43v-.1a.42.42,0,0,1,.06-.32.16.16,0,0,1,.11,0,.13.13,0,0,1,.09,0,.49.49,0,0,1,.06.34V7a4,4,0,0,0,0,.43h0c-.06.08-.21.24-.21.24Zm-.19-.26.19.24.2-.22A3.67,3.67,0,0,1,11.6,7a.34.34,0,0,1,0-.09c0-.1,0-.26-.06-.33a.11.11,0,0,0-.08,0,.13.13,0,0,0-.1,0,.48.48,0,0,0-.06.31v.1A2.91,2.91,0,0,1,11.26,7.36Z"/><path class="cls-2" d="M11.58,7.4a.12.12,0,1,1-.12-.11A.11.11,0,0,1,11.58,7.4Z"/><path class="cls-4" d="M11.46,7.52a.12.12,0,0,1-.13-.12.13.13,0,0,1,.26,0A.12.12,0,0,1,11.46,7.52Zm0-.22a.11.11,0,0,0-.11.1.11.11,0,0,0,.22,0A.11.11,0,0,0,11.46,7.3Z"/><path class="cls-2" d="M11.57,7.16a.11.11,0,1,1-.11-.11A.11.11,0,0,1,11.57,7.16Z"/><path class="cls-4" d="M11.46,7.28a.12.12,0,0,1-.12-.12A.13.13,0,0,1,11.46,7a.12.12,0,0,1,.11.12A.11.11,0,0,1,11.46,7.28Zm0-.22a.1.1,0,0,0,0,.2.1.1,0,0,0,0-.2Z"/><path class="cls-2" d="M11.54,6.92a.08.08,0,1,1-.16,0,.08.08,0,1,1,.16,0Z"/><path class="cls-4" d="M11.46,7a.09.09,0,1,1,.09-.09A.09.09,0,0,1,11.46,7Zm0-.16a.07.07,0,0,0-.07.07.07.07,0,1,0,.14,0A.07.07,0,0,0,11.46,6.85Z"/><path class="cls-2" d="M11.52,6.72a.06.06,0,0,1-.06.06.07.07,0,0,1-.07-.06.07.07,0,0,1,.07-.07A.07.07,0,0,1,11.52,6.72Z"/><path class="cls-4" d="M11.46,6.79a.07.07,0,0,1-.07-.07.07.07,0,1,1,.14,0A.07.07,0,0,1,11.46,6.79Zm0-.13a.06.06,0,0,0-.06.06.06.06,0,0,0,.06.06.06.06,0,0,0,0-.06S11.49,6.66,11.46,6.66Z"/><rect class="cls-5" x="11.39" y="5.44" width="0.13" height="0.71"/><path class="cls-4" d="M11.53,6.16h-.15V5.43h.15Zm-.13,0h.11V5.45H11.4Z"/><rect class="cls-5" x="11.25" y="5.58" width="0.42" height="0.14"/><path class="cls-4" d="M11.67,5.73h-.43V5.58h.43Zm-.42,0h.41V5.59h-.41Z"/><path class="cls-5" d="M13.93,8.47c-.1.13-.31.32-.43.29s-.09-.07-.11-.17l0-.08-.07.05a.29.29,0,0,1-.31.06.35.35,0,0,1-.15-.34V8l-.11.28c-.05.13-.17.28-.3.29s-.18-.06-.26-.2l0-.06-.06.05a.39.39,0,0,1-.36.12.4.4,0,0,1-.18-.35h-.12c0,.14-.06.3-.18.35a.41.41,0,0,1-.37-.12l0-.05,0,.06c-.08.14-.17.21-.26.2s-.25-.16-.31-.29L10.12,8v.3a.39.39,0,0,1-.15.34.29.29,0,0,1-.31-.06l-.07-.05,0,.08c0,.1-.06.16-.11.17S9.13,8.6,9,8.47l-.09.08s.28.33.49.33h.05a.24.24,0,0,0,.17-.17.39.39,0,0,0,.36,0,.38.38,0,0,0,.2-.27.43.43,0,0,0,.31.2.35.35,0,0,0,.33-.19.48.48,0,0,0,.43.1.4.4,0,0,0,.2-.22.37.37,0,0,0,.2.22.49.49,0,0,0,.43-.1.35.35,0,0,0,.33.19.45.45,0,0,0,.31-.2.4.4,0,0,0,.19.27.39.39,0,0,0,.36,0,.25.25,0,0,0,.18.17h0c.21,0,.46-.29.48-.33Z"/><path class="cls-4" d="M13.53,8.88h-.06a.28.28,0,0,1-.17-.17.42.42,0,0,1-.21.06.24.24,0,0,1-.15,0,.35.35,0,0,1-.19-.25.49.49,0,0,1-.31.19h0a.36.36,0,0,1-.3-.19.59.59,0,0,1-.32.11h-.11a.38.38,0,0,1-.2-.21.41.41,0,0,1-.2.21h-.11a.56.56,0,0,1-.32-.11.37.37,0,0,1-.31.19h0a.46.46,0,0,1-.31-.19.37.37,0,0,1-.19.25.28.28,0,0,1-.15,0,.39.39,0,0,1-.21-.06.27.27,0,0,1-.18.17H9.43c-.22,0-.47-.29-.49-.33h0L9,8.46H9c.09.11.28.28.4.28h0c.05,0,.09-.06.11-.16l0-.1.08.07a.37.37,0,0,0,.21.08.16.16,0,0,0,.09,0,.34.34,0,0,0,.15-.33V7.94l.12.31a.42.42,0,0,0,.3.29c.09,0,.17-.06.25-.19l0-.08.06.06a.46.46,0,0,0,.28.13h.08c.11,0,.16-.21.17-.34h.13c0,.13.06.3.18.34h.07a.49.49,0,0,0,.29-.13l.06-.06,0,.08c.07.13.16.2.25.19s.24-.15.29-.29l.12-.31v.34c0,.17.05.29.14.33a.17.17,0,0,0,.1,0,.37.37,0,0,0,.21-.08l.07-.07,0,.1c0,.1.06.15.11.16h0c.12,0,.3-.17.39-.28h0l.09.09h0S13.74,8.88,13.53,8.88Zm-.22-.19h0c0,.1.09.16.17.17h0c.2,0,.43-.27.47-.32l-.07-.07c-.1.12-.28.29-.4.29h0q-.08,0-.12-.18l0-.07-.06.05a.34.34,0,0,1-.21.08l-.1,0a.37.37,0,0,1-.16-.35V8l-.09.24a.45.45,0,0,1-.31.29c-.1,0-.19-.06-.27-.2l0,0,0,0a.53.53,0,0,1-.3.14h-.07c-.13-.05-.17-.21-.19-.35h-.11a.4.4,0,0,1-.18.35h-.08a.47.47,0,0,1-.29-.14l0,0,0,0c-.08.14-.17.21-.26.2a.45.45,0,0,1-.31-.29L10.13,8v.26a.37.37,0,0,1-.15.35l-.1,0a.4.4,0,0,1-.22-.08l-.06-.05,0,.07c0,.1-.06.16-.11.18h0c-.13,0-.31-.17-.4-.29L9,8.55s.28.32.48.32h.05c.07,0,.13-.07.17-.17h0a.39.39,0,0,0,.21.06.32.32,0,0,0,.14,0,.35.35,0,0,0,.19-.26v0h0a.46.46,0,0,0,.31.21h0a.38.38,0,0,0,.3-.2h0a.51.51,0,0,0,.32.12l.1,0a.32.32,0,0,0,.2-.21v0a.35.35,0,0,0,.2.21l.11,0a.51.51,0,0,0,.31-.12h0a.39.39,0,0,0,.3.2h0a.46.46,0,0,0,.3-.21h0v0a.37.37,0,0,0,.18.26l.15,0a.42.42,0,0,0,.21-.06Z"/><path class="cls-5" d="M12.92,8.09A.56.56,0,0,1,13.19,8a.72.72,0,0,0,0,.11.47.47,0,0,1,.17.12.36.36,0,0,1-.21,0v.11a.6.6,0,0,1-.25-.19C12.83,8.1,12.92,8.09,12.92,8.09Z"/><path class="cls-4" d="M13.14,8.4h0a.76.76,0,0,1-.25-.19s0-.07,0-.09a.07.07,0,0,1,.06,0A.54.54,0,0,1,13.16,8h0a.39.39,0,0,0,0,.11.36.36,0,0,1,.16.12h0a.26.26,0,0,1-.15,0h0Zm0-.37a.69.69,0,0,0-.24.07h0a0,0,0,0,0,0,0s0,0,0,.07a.58.58,0,0,0,.23.18V8.27h.07a.35.35,0,0,0,.14,0,.55.55,0,0,0-.16-.11h0a.56.56,0,0,1,0-.1Z"/><path class="cls-5" d="M12.72,8.08s-.13-.16-.23-.18a.42.42,0,0,1,0,.11.42.42,0,0,0-.2.05.43.43,0,0,0,.19.11l0,.1a.54.54,0,0,0,.29-.08C12.8,8.12,12.72,8.08,12.72,8.08Z"/><path class="cls-4" d="M12.41,8.27l0-.1a.28.28,0,0,1-.18-.11h0a.43.43,0,0,1,.2,0,.63.63,0,0,0,0-.11h0a.58.58,0,0,1,.23.17s0,0,0,0a.1.1,0,0,1,0,.08.63.63,0,0,1-.3.07Zm-.12-.21a.35.35,0,0,0,.17.1h0l0,.1a.57.57,0,0,0,.28-.07.09.09,0,0,0,0-.07l0,0h0a.58.58,0,0,0-.21-.17.66.66,0,0,1,0,.11h0A.41.41,0,0,0,12.29,8.06Z"/><path class="cls-5" d="M12.89,8.09A.51.51,0,0,0,13,7.85h-.1a.64.64,0,0,0,0-.21.33.33,0,0,0-.1.19l-.1,0a.61.61,0,0,0,.09.3C12.85,8.18,12.89,8.09,12.89,8.09Z"/><path class="cls-4" d="M12.84,8.14h0a.1.1,0,0,1-.07-.05.71.71,0,0,1-.09-.3h0l.1,0a.44.44,0,0,1,.1-.19h0a.71.71,0,0,1,.06.2h.1a.57.57,0,0,1-.16.25S12.87,8.14,12.84,8.14ZM12.7,7.8a.64.64,0,0,0,.08.29l.06,0a0,0,0,0,0,0,0h0A.59.59,0,0,0,13,7.85h-.11a.74.74,0,0,0,0-.2.35.35,0,0,0-.09.18h0Z"/><path class="cls-1" d="M12.66,8.13a.14.14,0,0,0,.14.15A.15.15,0,0,0,13,8.13.15.15,0,0,0,12.8,8,.15.15,0,0,0,12.66,8.13Z"/><path class="cls-4" d="M12.8,8.29a.16.16,0,0,1-.15-.16.15.15,0,1,1,.3,0A.16.16,0,0,1,12.8,8.29Zm0-.3a.14.14,0,1,0,.14.14A.14.14,0,0,0,12.8,8Z"/><path class="cls-5" d="M13.94,8.38s-.09-.18-.19-.22a.31.31,0,0,1,0,.1.68.68,0,0,0-.21,0,.39.39,0,0,0,.16.15l-.06.09a.61.61,0,0,0,.3,0C14,8.44,13.94,8.38,13.94,8.38Z"/><path class="cls-4" d="M13.77,8.52H13.6l.06-.09a.32.32,0,0,1-.15-.14h0l.09,0h.11s0,0,0-.09h0c.09,0,.18.21.19.22a.09.09,0,0,1,0,.06.13.13,0,0,1-.06.07Zm-.15,0,.15,0a.26.26,0,0,0,.14,0s.05,0,.05-.05a.08.08,0,0,0,0,0h0s-.09-.17-.18-.21l0,.1h-.2a.35.35,0,0,0,.15.13h0Z"/><path class="cls-5" d="M14.11,8.43a.66.66,0,0,0,.2-.21l-.1,0a.57.57,0,0,0,0-.22.34.34,0,0,0-.14.17L14,8.09a.61.61,0,0,0,0,.31C14.05,8.51,14.11,8.43,14.11,8.43Z"/><path class="cls-4" d="M14.06,8.46h0S14,8.44,14,8.4a.7.7,0,0,1,0-.31h0l.09.05A.31.31,0,0,1,14.19,8h0a.39.39,0,0,1,0,.21l.1,0h0a.5.5,0,0,1-.2.21S14.09,8.46,14.06,8.46ZM14,8.1a.64.64,0,0,0,0,.3s0,0,.06,0,0,0,0,0h0a.64.64,0,0,0,.2-.19l-.1,0h0a.47.47,0,0,0,0-.2.35.35,0,0,0-.12.17h0Z"/><path class="cls-1" d="M13.87,8.42a.14.14,0,0,0,.11.17.13.13,0,0,0,.17-.11A.15.15,0,0,0,14,8.3.15.15,0,0,0,13.87,8.42Z"/><path class="cls-4" d="M14,8.6h0a.16.16,0,0,1,0-.31h0a.14.14,0,0,1,.12.18A.15.15,0,0,1,14,8.6Zm0-.3a.15.15,0,0,0,0,.29h0a.15.15,0,0,0,.14-.11A.14.14,0,0,0,14,8.31Z"/><path class="cls-2" d="M13.3,8.42a.13.13,0,0,0,0,.14.12.12,0,0,0,.12-.08.12.12,0,0,0-.05-.14A.11.11,0,0,0,13.3,8.42Z"/><path class="cls-4" d="M13.37,8.57h0s-.07-.08,0-.14a.11.11,0,0,1,.1-.09h0c.05,0,.07.07.05.14A.11.11,0,0,1,13.37,8.57Zm0-.22a.09.09,0,0,0-.09.08.09.09,0,0,0,0,.12h0a.09.09,0,0,0,.09-.08.09.09,0,0,0-.05-.12Z"/><path class="cls-2" d="M12.05,8.22c0,.06,0,.11.08.11a.1.1,0,0,0,.09-.11c0-.06,0-.11-.08-.11S12.05,8.15,12.05,8.22Z"/><path class="cls-4" d="M12.13,8.34h0c-.05,0-.09-.06-.09-.12s0-.12.09-.12h0s.09.06.09.12S12.18,8.34,12.13,8.34Zm0-.23s-.07.05-.08.11a.1.1,0,0,0,.08.1h0a.09.09,0,0,0,.08-.1.11.11,0,0,0-.07-.11Z"/><path class="cls-5" d="M11.35,8s-.15-.13-.26-.12,0,.11,0,.11a.48.48,0,0,0-.19.09.34.34,0,0,0,.2.06l0,.11a.69.69,0,0,0,.28-.14C11.44,8,11.35,8,11.35,8Z"/><path class="cls-4" d="M11.08,8.23l0-.11a.28.28,0,0,1-.19-.07h0A.5.5,0,0,1,11.09,8a.58.58,0,0,0,0-.1h0a.57.57,0,0,1,.26.12.06.06,0,0,1,.05,0s0,.05,0,.09a.59.59,0,0,1-.28.14Zm-.16-.18a.42.42,0,0,0,.19.06h0l0,.1a.63.63,0,0,0,.26-.13.17.17,0,0,0,0-.07.07.07,0,0,0,0,0h0a.63.63,0,0,0-.24-.12.26.26,0,0,1,0,.11h0A.39.39,0,0,0,10.92,8.05Z"/><path class="cls-5" d="M11.55,8a.55.55,0,0,1,.25-.13V8a.41.41,0,0,1,.19.08.38.38,0,0,1-.2.07l0,.11a.56.56,0,0,1-.27-.13C11.46,8,11.55,8,11.55,8Z"/><path class="cls-4" d="M11.82,8.24h0a.54.54,0,0,1-.28-.12.09.09,0,0,1,0-.09.06.06,0,0,1,.05,0,.51.51,0,0,1,.25-.13h0c0,.06,0,.09,0,.1A.52.52,0,0,1,12,8h0a.35.35,0,0,1-.2.08Zm0-.38c-.1,0-.23.13-.24.13h0a.07.07,0,0,0,0,0,.13.13,0,0,0,0,.07.65.65,0,0,0,.26.12l0-.1h0A.36.36,0,0,0,12,8.05.56.56,0,0,0,11.8,8h0Z"/><path class="cls-5" d="M11.38,8a.53.53,0,0,1-.11-.27h.1a.57.57,0,0,1,.09-.2.39.39,0,0,1,.06.21h.1a.63.63,0,0,1-.13.28C11.4,8.07,11.38,8,11.38,8Z"/><path class="cls-4" d="M11.43,8s0,0-.06,0a.49.49,0,0,1-.11-.27h.11a.45.45,0,0,1,.08-.19h0a.32.32,0,0,1,.07.2h.1A.71.71,0,0,1,11.5,8Zm-.16-.31a.7.7,0,0,0,.12.26h0s0,0,0,0l.06,0a.58.58,0,0,0,.12-.27l-.1,0h0a.37.37,0,0,0,0-.19.56.56,0,0,0-.08.18h-.11Z"/><path class="cls-1" d="M11.6,8.05a.14.14,0,1,1-.11-.17A.14.14,0,0,1,11.6,8.05Z"/><path class="cls-4" d="M11.46,8.18h0A.16.16,0,0,1,11.31,8a.15.15,0,0,1,.15-.13h0a.16.16,0,0,1,.12.18A.15.15,0,0,1,11.46,8.18Zm0-.3a.15.15,0,0,0-.14.12.15.15,0,0,0,.12.17h0a.13.13,0,0,0,.13-.12.14.14,0,0,0-.11-.17Z"/><path class="cls-5" d="M10,8.09A.61.61,0,0,0,9.76,8a.51.51,0,0,1,0,.11.47.47,0,0,0-.17.12.36.36,0,0,0,.21,0v.11a.6.6,0,0,0,.24-.19C10.13,8.1,10,8.09,10,8.09Z"/><path class="cls-4" d="M9.82,8.4V8.29H9.76a.31.31,0,0,1-.15,0h0a.44.44,0,0,1,.17-.12,1,1,0,0,0,0-.11H9.8a.59.59,0,0,1,.24.08,0,0,0,0,1,.05,0,.1.1,0,0,1,0,.09.76.76,0,0,1-.25.19Zm0-.13v.11a.6.6,0,0,0,.24-.18s0-.06,0-.07a0,0,0,0,0,0,0h0A.61.61,0,0,0,9.8,8h0a.56.56,0,0,1,0,.1h0a.55.55,0,0,0-.16.11.31.31,0,0,0,.13,0Z"/><path class="cls-5" d="M10.24,8.08s.12-.16.22-.18a.42.42,0,0,0,0,.11.42.42,0,0,1,.2.05.41.41,0,0,1-.18.11l0,.1a.58.58,0,0,1-.3-.08C10.15,8.12,10.24,8.08,10.24,8.08Z"/><path class="cls-4" d="M10.55,8.27h0a.61.61,0,0,1-.3-.07s-.05,0-.05-.08,0,0,0,0,.13-.15.23-.17h0c0,.07,0,.1,0,.11a.4.4,0,0,1,.19,0h0a.3.3,0,0,1-.18.11Zm-.09-.36a.65.65,0,0,0-.22.17h0s0,0,0,0a.09.09,0,0,0,0,.07.55.55,0,0,0,.28.07l0-.1h0a.35.35,0,0,0,.17-.1.47.47,0,0,0-.19,0h0S10.47,8,10.46,7.91Z"/><path class="cls-5" d="M10.07,8.09a.59.59,0,0,1-.16-.24H10a.45.45,0,0,1,.05-.21.42.42,0,0,1,.1.19l.09,0a.69.69,0,0,1-.08.3C10.11,8.18,10.07,8.09,10.07,8.09Z"/><path class="cls-4" d="M10.12,8.14s0,0-.06,0a.82.82,0,0,1-.16-.25H10a.45.45,0,0,1,.05-.2h0a.29.29,0,0,1,.1.19l.1,0h0a.59.59,0,0,1-.09.3S10.14,8.14,10.12,8.14Zm-.2-.29a.61.61,0,0,0,.15.24h0a0,0,0,0,0,0,0l.05,0a.67.67,0,0,0,.09-.29l-.1,0h0a.35.35,0,0,0-.09-.18.55.55,0,0,0-.05.2h-.1Z"/><path class="cls-1" d="M10.3,8.13a.14.14,0,0,1-.14.15A.15.15,0,0,1,10,8.13.15.15,0,0,1,10.16,8,.15.15,0,0,1,10.3,8.13Z"/><path class="cls-4" d="M10.16,8.29A.16.16,0,0,1,10,8.13a.16.16,0,1,1,.31,0A.16.16,0,0,1,10.16,8.29Zm0-.3a.14.14,0,1,0,0,.28.14.14,0,0,0,0-.28Z"/><path class="cls-5" d="M9,8.38s.09-.18.19-.22a.39.39,0,0,0,0,.1.63.63,0,0,1,.2,0,.33.33,0,0,1-.15.15l.05.09a.61.61,0,0,1-.3,0C8.94,8.44,9,8.38,9,8.38Z"/><path class="cls-4" d="M9.18,8.52,9,8.5S9,8.46,9,8.43a.09.09,0,0,1,0-.06s.09-.18.19-.22h0l0,.09h.12l.09,0h0a.37.37,0,0,1-.15.14l.06.09H9.18Zm0-.35c-.1,0-.18.21-.18.21H9a.07.07,0,0,0,0,0,.08.08,0,0,0,.06.05.25.25,0,0,0,.13,0l.15,0-.05-.08h0s.12-.05.15-.13h-.2A.62.62,0,0,1,9.2,8.17Z"/><path class="cls-5" d="M8.85,8.43s-.17-.11-.2-.21l.1,0a.57.57,0,0,1,0-.22.37.37,0,0,1,.13.17L9,8.09A.7.7,0,0,1,9,8.4C8.9,8.51,8.85,8.43,8.85,8.43Z"/><path class="cls-4" d="M8.9,8.46a.09.09,0,0,1-.06,0,.67.67,0,0,1-.2-.21h0l.09,0a.52.52,0,0,1,0-.21h0c.08,0,.12.13.14.16L9,8.08H9A.61.61,0,0,1,9,8.4S8.92,8.46,8.9,8.46Zm-.24-.23a.64.64,0,0,0,.19.19h0a0,0,0,0,0,0,0s0,0,0,0a.67.67,0,0,0,0-.3l-.09.05h0A.32.32,0,0,0,8.76,8a.61.61,0,0,0,0,.2h0Z"/><path class="cls-1" d="M9.09,8.42A.15.15,0,0,1,9,8.59a.14.14,0,0,1-.17-.11.16.16,0,0,1,.11-.18A.16.16,0,0,1,9.09,8.42Z"/><path class="cls-4" d="M8.94,8.6a.16.16,0,0,1-.15-.12.15.15,0,0,1,.12-.18h0a.15.15,0,0,1,.15.13A.14.14,0,0,1,9,8.6Zm0-.3h0a.14.14,0,0,0-.1.17.14.14,0,0,0,.13.11H9a.15.15,0,0,0,.11-.17A.15.15,0,0,0,8.94,8.3Z"/><path class="cls-2" d="M9.65,8.42a.11.11,0,0,1-.05.14s-.09,0-.11-.08a.11.11,0,0,1,0-.14A.1.1,0,0,1,9.65,8.42Z"/><path class="cls-4" d="M9.58,8.57s-.08,0-.1-.09,0-.13.06-.14h0s.08,0,.1.09a.11.11,0,0,1-.06.14Zm0-.22h0s-.06.07,0,.12,0,.08.08.08h0s.06-.07.05-.12S9.6,8.35,9.56,8.35Z"/><path class="cls-2" d="M10.91,8.22c0,.06,0,.11-.08.11a.1.1,0,0,1-.09-.11.09.09,0,0,1,.08-.11S10.91,8.15,10.91,8.22Z"/><path class="cls-4" d="M10.82,8.34c-.05,0-.09-.05-.09-.12s0-.12.09-.12h0s.09.05.1.12,0,.12-.09.12Zm0-.23h0a.11.11,0,0,0-.08.11c0,.06,0,.1.08.1h0s.07-.05.07-.1S10.86,8.11,10.82,8.11Z"/><path class="cls-1" d="M13.34,9.41a4.66,4.66,0,0,1-1.89.2,4.59,4.59,0,0,1-1.88-.2,4.59,4.59,0,0,1,1.88-.2A4.66,4.66,0,0,1,13.34,9.41Z"/><path class="cls-4" d="M11.45,9.61a4.67,4.67,0,0,1-1.89-.2,4.58,4.58,0,0,1,1.89-.21,4.65,4.65,0,0,1,1.9.21A4.74,4.74,0,0,1,11.45,9.61Zm0-.39a4.81,4.81,0,0,0-1.88.19,4.81,4.81,0,0,0,1.88.19,4.77,4.77,0,0,0,1.88-.19A4.77,4.77,0,0,0,11.45,9.22Z"/><path class="cls-2" d="M7.85,9.31v6a3.56,3.56,0,0,0,7.12,0v-6Z"/><path class="cls-1" d="M8,9.51v5.77a3.42,3.42,0,0,0,6.83,0V9.51Z"/><path class="cls-2" d="M11.93,15.8s.1.26.16.37.2.31.15.44-.16.17-.23.1a4.31,4.31,0,0,1-.24-.72Z"/><path class="cls-9" d="M12.09,16.75a.16.16,0,0,1-.09,0,4.66,4.66,0,0,1-.24-.72h0l.17-.21v0s.1.26.15.37l.05.08c.06.11.15.26.11.37A.19.19,0,0,1,12.09,16.75ZM11.78,16a4.49,4.49,0,0,0,.23.71.13.13,0,0,0,.08,0,.16.16,0,0,0,.14-.13c0-.1,0-.25-.11-.35a.59.59,0,0,0,0-.08c-.05-.1-.13-.32-.15-.37Z"/><path class="cls-2" d="M11.82,15.86a1.17,1.17,0,0,0,.08.41c.08.19.18.45,0,.5s-.18,0-.18,0L11.67,16Z"/><path class="cls-9" d="M11.84,16.8a.1.1,0,0,1-.1-.06l-.08-.7.16-.2v0a1.32,1.32,0,0,0,.09.41.75.75,0,0,1,.09.45.11.11,0,0,1-.07.06ZM11.67,16l.08.69a.09.09,0,0,0,.09.05h.08a.2.2,0,0,0,.07-.06.66.66,0,0,0-.1-.43,1.36,1.36,0,0,1-.08-.4Z"/><path class="cls-2" d="M11.72,16s0,.17,0,.35.08.41-.07.43-.15-.1-.15-.1V16Z"/><path class="cls-9" d="M11.64,16.83a.13.13,0,0,1-.1,0,.1.1,0,0,1,0-.08V16l.21,0h0a1.77,1.77,0,0,0,0,.35.22.22,0,0,0,0,.08.47.47,0,0,1,0,.32s0,0-.07,0ZM11.53,16v.72a.1.1,0,0,0,0,.06.1.1,0,0,0,.11,0s.06,0,.07,0,0-.19,0-.31,0,0,0-.08a2.92,2.92,0,0,1,0-.35Z"/><path class="cls-2" d="M12.08,16.46s.14.29.22.41.27.33.21.47a.22.22,0,0,1-.32.11,3.9,3.9,0,0,1-.33-.78Z"/><path class="cls-9" d="M12.3,17.49a.2.2,0,0,1-.11,0,3.91,3.91,0,0,1-.34-.79h0l.24-.22h0s.14.29.21.41l.06.08c.09.12.21.28.16.4A.25.25,0,0,1,12.3,17.49Zm-.43-.82a3.63,3.63,0,0,0,.33.78.17.17,0,0,0,.1,0,.22.22,0,0,0,.2-.14c.05-.11-.06-.27-.15-.38l-.06-.09a4.09,4.09,0,0,1-.21-.4Z"/><path class="cls-2" d="M11.93,16.53A1,1,0,0,0,12,17c.11.2.25.49,0,.54s-.25,0-.25,0l-.11-.75Z"/><path class="cls-9" d="M12,17.54c-.11,0-.14-.06-.14-.06h0l-.11-.75.22-.21v0a1.14,1.14,0,0,0,.12.44c.09.18.18.36.13.47a.14.14,0,0,1-.1.08A.25.25,0,0,1,12,17.54Zm-.12-.07s0,.06.12.06l.12,0a.18.18,0,0,0,.09-.08c0-.1,0-.28-.13-.45a1,1,0,0,1-.12-.44l-.2.18Z"/><path class="cls-2" d="M11.79,16.72a2.88,2.88,0,0,0,0,.38c0,.21.11.45-.1.47s-.2-.11-.2-.11v-.79Z"/><path class="cls-9" d="M11.68,17.58a.18.18,0,0,1-.14,0,.08.08,0,0,1,0-.07v-.8l.28.06h0a1.69,1.69,0,0,0,0,.38s0,.06,0,.09.05.26,0,.33a.13.13,0,0,1-.11.05Zm-.15-.9v.78a.12.12,0,0,0,0,.06.21.21,0,0,0,.17,0,.11.11,0,0,0,.1,0,.49.49,0,0,0,0-.32l0-.08a2,2,0,0,1,0-.38Z"/><path class="cls-2" d="M12.23,17.17s.17.35.27.5.35.4.27.57a.27.27,0,0,1-.4.13,4.82,4.82,0,0,1-.42-.94Z"/><path class="cls-9" d="M12.51,18.42a.23.23,0,0,1-.14,0,5.06,5.06,0,0,1-.43-.95h0l.29-.27h0a4.94,4.94,0,0,0,.27.49.61.61,0,0,0,.07.1c.12.15.27.34.2.48A.32.32,0,0,1,12.51,18.42Zm-.55-1a4.64,4.64,0,0,0,.41.93.24.24,0,0,0,.14.05.3.3,0,0,0,.25-.17c.07-.14-.08-.33-.19-.47l-.07-.1a5.48,5.48,0,0,1-.27-.49Z"/><path class="cls-2" d="M12,17.25a1.31,1.31,0,0,0,.15.54c.14.25.31.59,0,.66s-.31-.05-.31-.05l-.14-.91Z"/><path class="cls-9" d="M12.08,18.48a.19.19,0,0,1-.18-.08h0l-.14-.91.28-.26v0a1.31,1.31,0,0,0,.15.54c.12.21.22.43.16.56a.15.15,0,0,1-.12.1Zm-.16-.08s0,.06.16.06a.36.36,0,0,0,.14,0,.19.19,0,0,0,.12-.09c.05-.13-.05-.34-.17-.55a1.26,1.26,0,0,1-.14-.53l-.25.22Z"/><path class="cls-2" d="M11.86,17.49a3.15,3.15,0,0,0,0,.46c0,.25.14.54-.13.56s-.24-.13-.24-.13v-.95Z"/><path class="cls-9" d="M11.72,18.52a.24.24,0,0,1-.18-.06.1.1,0,0,1,0-.08v-1l.35.06h0a2.47,2.47,0,0,0,0,.46l0,.1a.6.6,0,0,1,0,.4.21.21,0,0,1-.15.07Zm-.19-1.08v.94a.14.14,0,0,0,0,.07c0,.05.11.06.22.05a.17.17,0,0,0,.14-.06c.06-.08,0-.24,0-.39s0-.06,0-.1a2.3,2.3,0,0,1,0-.46Z"/><path class="cls-2" d="M11.58,15.93s.06.26.14.3a2.54,2.54,0,0,1,.24-.42l-.08-.23Z"/><path class="cls-9" d="M11.72,16.24h0c-.08,0-.14-.29-.15-.3h0l.31-.35.09.24h0s-.11.17-.23.42Zm-.13-.31s.06.25.13.29a2.64,2.64,0,0,1,.23-.41l-.08-.22Z"/><path class="cls-2" d="M11.41,15.71s0,.31.15.36a3.2,3.2,0,0,1,.26-.45C11.88,15.5,11.41,15.71,11.41,15.71Z"/><path class="cls-9" d="M11.57,16.08h0c-.12-.06-.15-.36-.15-.37h0a1.8,1.8,0,0,1,.38-.13l0,0a0,0,0,0,1,0,0,1.19,1.19,0,0,1-.09.15,1.39,1.39,0,0,0-.17.3Zm-.15-.37s0,.29.14.35a1.39,1.39,0,0,1,.17-.3l.09-.14v0h0A2,2,0,0,0,11.42,15.71Z"/><path class="cls-2" d="M11.85,15.58s0,.32.16.41c.07-.22.26-.53.26-.62Z"/><path class="cls-9" d="M12,16h0c-.15-.1-.16-.41-.16-.42h0l.43-.21h0a.9.9,0,0,1-.11.26A3,3,0,0,0,12,16Zm-.16-.42s0,.31.15.4a2.72,2.72,0,0,1,.16-.35,1.57,1.57,0,0,0,.1-.25Z"/><path class="cls-2" d="M12.23,17.17s.17.35.27.5.35.4.27.57a.27.27,0,0,1-.4.13,4.82,4.82,0,0,1-.42-.94Z"/><path class="cls-9" d="M12.51,18.42a.23.23,0,0,1-.14,0,5.06,5.06,0,0,1-.43-.95h0l.29-.27h0a4.94,4.94,0,0,0,.27.49.61.61,0,0,0,.07.1c.12.15.27.34.2.48A.32.32,0,0,1,12.51,18.42Zm-.55-1a4.64,4.64,0,0,0,.41.93.24.24,0,0,0,.14.05.3.3,0,0,0,.25-.17c.07-.14-.08-.33-.19-.47l-.07-.1a5.48,5.48,0,0,1-.27-.49Z"/><path class="cls-2" d="M12,17.25a1.31,1.31,0,0,0,.15.54c.14.25.31.59,0,.66s-.31-.05-.31-.05l-.14-.91Z"/><path class="cls-9" d="M12.08,18.48a.19.19,0,0,1-.18-.08h0l-.14-.91.28-.26v0a1.31,1.31,0,0,0,.15.54c.12.21.22.43.16.56a.15.15,0,0,1-.12.1Zm-.16-.08s0,.06.16.06a.36.36,0,0,0,.14,0,.19.19,0,0,0,.12-.09c.05-.13-.05-.34-.17-.55a1.26,1.26,0,0,1-.14-.53l-.25.22Z"/><path class="cls-2" d="M11.86,17.49a3.15,3.15,0,0,0,0,.46c0,.25.14.54-.13.56s-.24-.13-.24-.13v-.95Z"/><path class="cls-9" d="M11.72,18.52a.24.24,0,0,1-.18-.06.1.1,0,0,1,0-.08v-1l.35.06h0a2.47,2.47,0,0,0,0,.46l0,.1a.6.6,0,0,1,0,.4.21.21,0,0,1-.15.07Zm-.19-1.08v.94a.14.14,0,0,0,0,.07c0,.05.11.06.22.05a.17.17,0,0,0,.14-.06c.06-.08,0-.24,0-.39s0-.06,0-.1a2.3,2.3,0,0,1,0-.46Z"/><path class="cls-2" d="M12.08,16.46s.14.29.22.41.27.33.21.47a.22.22,0,0,1-.32.11,3.9,3.9,0,0,1-.33-.78Z"/><path class="cls-9" d="M12.3,17.49a.2.2,0,0,1-.11,0,3.91,3.91,0,0,1-.34-.79h0l.24-.22h0s.14.29.21.41l.06.08c.09.12.21.28.16.4A.25.25,0,0,1,12.3,17.49Zm-.43-.82a3.63,3.63,0,0,0,.33.78.17.17,0,0,0,.1,0,.22.22,0,0,0,.2-.14c.05-.11-.06-.27-.15-.38l-.06-.09a4.09,4.09,0,0,1-.21-.4Z"/><path class="cls-2" d="M11.93,16.53A1,1,0,0,0,12,17c.11.2.25.49,0,.54s-.25,0-.25,0l-.11-.75Z"/><path class="cls-9" d="M12,17.54c-.11,0-.14-.06-.14-.06h0l-.11-.75.22-.21v0a1.14,1.14,0,0,0,.12.44c.09.18.18.36.13.47a.14.14,0,0,1-.1.08A.25.25,0,0,1,12,17.54Zm-.12-.07s0,.06.12.06l.12,0a.18.18,0,0,0,.09-.08c0-.1,0-.28-.13-.45a1,1,0,0,1-.12-.44l-.2.18Z"/><path class="cls-2" d="M11.79,16.72a2.88,2.88,0,0,0,0,.38c0,.21.11.45-.1.47s-.2-.11-.2-.11v-.79Z"/><path class="cls-9" d="M11.68,17.58a.18.18,0,0,1-.14,0,.08.08,0,0,1,0-.07v-.8l.28.06h0a1.69,1.69,0,0,0,0,.38s0,.06,0,.09.05.26,0,.33a.13.13,0,0,1-.11.05Zm-.15-.9v.78a.12.12,0,0,0,0,.06.21.21,0,0,0,.17,0,.11.11,0,0,0,.1,0,.49.49,0,0,0,0-.32l0-.08a2,2,0,0,1,0-.38Z"/><path class="cls-2" d="M11.93,15.8s.1.26.16.37.2.31.15.44-.16.17-.23.1a4.31,4.31,0,0,1-.24-.72Z"/><path class="cls-9" d="M12.09,16.75a.16.16,0,0,1-.09,0,4.66,4.66,0,0,1-.24-.72h0l.17-.21v0s.1.26.15.37l.05.08c.06.11.15.26.11.37A.19.19,0,0,1,12.09,16.75ZM11.78,16a4.49,4.49,0,0,0,.23.71.13.13,0,0,0,.08,0,.16.16,0,0,0,.14-.13c0-.1,0-.25-.11-.35a.59.59,0,0,0,0-.08c-.05-.1-.13-.32-.15-.37Z"/><path class="cls-2" d="M11.82,15.86a1.17,1.17,0,0,0,.08.41c.08.19.18.45,0,.5s-.18,0-.18,0L11.67,16Z"/><path class="cls-9" d="M11.84,16.8a.1.1,0,0,1-.1-.06l-.08-.7.16-.2v0a1.32,1.32,0,0,0,.09.41.75.75,0,0,1,.09.45.11.11,0,0,1-.07.06ZM11.67,16l.08.69a.09.09,0,0,0,.09.05h.08a.2.2,0,0,0,.07-.06.66.66,0,0,0-.1-.43,1.36,1.36,0,0,1-.08-.4Z"/><path class="cls-2" d="M11.72,16s0,.17,0,.35.08.41-.07.43-.15-.1-.15-.1V16Z"/><path class="cls-9" d="M11.64,16.83a.13.13,0,0,1-.1,0,.1.1,0,0,1,0-.08V16l.21,0h0a1.77,1.77,0,0,0,0,.35.22.22,0,0,0,0,.08.47.47,0,0,1,0,.32s0,0-.07,0ZM11.53,16v.72a.1.1,0,0,0,0,.06.1.1,0,0,0,.11,0s.06,0,.07,0,0-.19,0-.31,0,0,0-.08a2.92,2.92,0,0,1,0-.35Z"/><path class="cls-2" d="M11.58,15.93s.06.26.14.3a2.54,2.54,0,0,1,.24-.42l-.08-.23Z"/><path class="cls-9" d="M11.72,16.24h0c-.08,0-.14-.29-.15-.3h0l.31-.35.09.24h0s-.11.17-.23.42Zm-.13-.31s.06.25.13.29a2.64,2.64,0,0,1,.23-.41l-.08-.22Z"/><path class="cls-2" d="M11.41,15.71s0,.31.15.36a3.2,3.2,0,0,1,.26-.45C11.88,15.5,11.41,15.71,11.41,15.71Z"/><path class="cls-9" d="M11.57,16.08h0c-.12-.06-.15-.36-.15-.37h0a1.8,1.8,0,0,1,.38-.13l0,0a0,0,0,0,1,0,0,1.19,1.19,0,0,1-.09.15,1.39,1.39,0,0,0-.17.3Zm-.15-.37s0,.29.14.35a1.39,1.39,0,0,1,.17-.3l.09-.14v0h0A2,2,0,0,0,11.42,15.71Z"/><path class="cls-2" d="M11.85,15.58s0,.32.16.41c.07-.22.26-.53.26-.62Z"/><path class="cls-9" d="M12,16h0c-.15-.1-.16-.41-.16-.42h0l.43-.21h0a.9.9,0,0,1-.11.26A3,3,0,0,0,12,16Zm-.16-.42s0,.31.15.4a2.72,2.72,0,0,1,.16-.35,1.57,1.57,0,0,0,.1-.25Z"/><path class="cls-2" d="M10.59,17.17s-.17.35-.26.5-.36.4-.27.57a.27.27,0,0,0,.4.13,4.82,4.82,0,0,0,.42-.94Z"/><path class="cls-9" d="M10.32,18.42h0a.3.3,0,0,1-.27-.18c-.07-.14.08-.33.2-.48l.07-.1a4.94,4.94,0,0,0,.27-.49h0l.3.27h0a4.4,4.4,0,0,1-.42.95A.23.23,0,0,1,10.32,18.42Zm.28-1.24a5.48,5.48,0,0,1-.27.49.86.86,0,0,0-.07.1c-.11.14-.26.33-.2.47a.3.3,0,0,0,.26.17h0a.19.19,0,0,0,.13-.05,4.19,4.19,0,0,0,.42-.93Z"/><path class="cls-2" d="M10.79,17.25a1.22,1.22,0,0,1-.14.54c-.14.25-.31.59-.05.66s.32-.05.32-.05l.14-.91Z"/><path class="cls-9" d="M10.75,18.48h0l-.15,0a.17.17,0,0,1-.13-.1c-.05-.13,0-.35.17-.56a1.31,1.31,0,0,0,.15-.54v0l.28.26h0l-.15.91S10.89,18.48,10.75,18.48Zm.05-1.21a1.45,1.45,0,0,1-.14.53c-.12.21-.23.42-.17.55s.06.07.12.09a.36.36,0,0,0,.14,0c.13,0,.16-.06.16-.06l.14-.91Z"/><path class="cls-2" d="M11,17.49a2.47,2.47,0,0,1,0,.46c0,.25-.14.54.13.56s.24-.13.24-.13v-.95Z"/><path class="cls-9" d="M11.11,18.52h0a.21.21,0,0,1-.15-.07c-.07-.09,0-.25,0-.4a.36.36,0,0,0,0-.1,3.15,3.15,0,0,0,0-.46h0l.35-.06v1a.09.09,0,0,1,0,.08A.21.21,0,0,1,11.11,18.52Zm-.14-1a3.55,3.55,0,0,1,0,.46.44.44,0,0,0,0,.1c0,.15-.06.31,0,.39a.16.16,0,0,0,.14.06c.11,0,.18,0,.21-.05a.11.11,0,0,0,0-.07v-.94Z"/><path class="cls-2" d="M10.74,16.46a4.06,4.06,0,0,1-.21.41c-.08.12-.28.33-.21.47a.21.21,0,0,0,.32.11,4.59,4.59,0,0,0,.33-.78Z"/><path class="cls-9" d="M10.53,17.49h0a.24.24,0,0,1-.22-.14c-.05-.12.06-.28.16-.4l.06-.08c.07-.12.21-.41.21-.41h0l.24.22h0a3.82,3.82,0,0,1-.33.79A.2.2,0,0,1,10.53,17.49Zm.22-1c0,.05-.14.29-.21.4l-.06.09c-.09.11-.21.27-.15.38a.21.21,0,0,0,.2.14h0a.19.19,0,0,0,.1,0,4.22,4.22,0,0,0,.33-.78Z"/><path class="cls-2" d="M10.9,16.53a1.24,1.24,0,0,1-.11.44c-.11.2-.25.49,0,.54s.25,0,.25,0l.11-.75Z"/><path class="cls-9" d="M10.87,17.54h0a.25.25,0,0,1-.12,0,.12.12,0,0,1-.1-.08c-.05-.11,0-.29.13-.47a1,1,0,0,0,.11-.44v0l.23.21-.12.76S11,17.54,10.87,17.54Zm0-1a1.45,1.45,0,0,1-.12.44c-.09.17-.17.35-.13.45a.18.18,0,0,0,.09.08l.12,0h0c.09,0,.12-.05.12-.06l.11-.75Z"/><path class="cls-2" d="M11,16.72a2.88,2.88,0,0,1,0,.38c0,.21-.11.45.1.47s.19-.11.19-.11v-.79Z"/><path class="cls-9" d="M11.15,17.58h0a.17.17,0,0,1-.12-.05.46.46,0,0,1,0-.33s0-.06,0-.09a2.88,2.88,0,0,0,0-.38h0l.28-.06v.8a.08.08,0,0,1,0,.07A.2.2,0,0,1,11.15,17.58ZM11,16.73a2,2,0,0,1,0,.38s0,.05,0,.08-.05.25,0,.32a.14.14,0,0,0,.11,0h0a.17.17,0,0,0,.13,0,.12.12,0,0,0,0-.06v-.78Z"/><path class="cls-2" d="M10.9,15.8s-.1.26-.16.37-.2.31-.15.44.16.17.23.1a4.31,4.31,0,0,0,.24-.72Z"/><path class="cls-9" d="M10.74,16.75h0a.18.18,0,0,1-.16-.13c0-.11,0-.26.11-.37l0-.08c.06-.11.16-.37.16-.37v0l.18.21h0a4.79,4.79,0,0,1-.25.72A.11.11,0,0,1,10.74,16.75Zm.16-.94s-.1.27-.15.37l-.05.08a.54.54,0,0,0-.11.35.18.18,0,0,0,.15.13h0a.09.09,0,0,0,.07,0,3.72,3.72,0,0,0,.24-.71Z"/><path class="cls-2" d="M11,15.86a1.51,1.51,0,0,1-.08.41c-.08.19-.18.45,0,.5s.18,0,.18,0l.08-.69Z"/><path class="cls-9" d="M11,16.8h0l-.09,0a.11.11,0,0,1-.07-.06.75.75,0,0,1,.09-.45,1.17,1.17,0,0,0,.08-.41v0l.17.2h0l-.08.7A.1.1,0,0,1,11,16.8Zm0-.92a1.48,1.48,0,0,1-.09.4.7.7,0,0,0-.09.43s0,0,.06.06H11c.07,0,.08-.05.09-.05l.08-.69Z"/><path class="cls-2" d="M11.11,16s0,.17,0,.35-.08.41.07.43.14-.1.14-.1V16Z"/><path class="cls-9" d="M11.19,16.83h0a.2.2,0,0,1-.08,0,.48.48,0,0,1,0-.32s0,0,0-.08,0-.35,0-.35h0l.21,0v.73a.2.2,0,0,1,0,.08A.15.15,0,0,1,11.19,16.83ZM11.12,16a2.92,2.92,0,0,1,0,.35.25.25,0,0,0,0,.08.53.53,0,0,0,0,.31.09.09,0,0,0,.07,0,.12.12,0,0,0,.12,0,.1.1,0,0,0,0-.06V16Z"/><path class="cls-2" d="M11.25,15.93s-.07.26-.14.3a3.86,3.86,0,0,0-.24-.42l.08-.23Z"/><path class="cls-9" d="M11.1,16.24h0a2.77,2.77,0,0,0-.24-.42h0l.09-.24.31.35h0s-.06.27-.14.3Zm-.22-.43a4.1,4.1,0,0,1,.23.41c.07,0,.12-.26.13-.29L11,15.59Z"/><path class="cls-2" d="M11.41,15.71s0,.31-.14.36a4.39,4.39,0,0,0-.27-.45C11,15.5,11.41,15.71,11.41,15.71Z"/><path class="cls-9" d="M11.26,16.08h0a1.39,1.39,0,0,0-.17-.3.6.6,0,0,1-.09-.15,0,0,0,0,1,0,0l0,0a1.94,1.94,0,0,1,.39.13h0s0,.31-.15.37ZM11,15.59h0v0l.09.14a1.39,1.39,0,0,1,.17.3c.1-.06.13-.31.14-.35A2.14,2.14,0,0,0,11,15.59Z"/><path class="cls-2" d="M11,15.58s0,.32-.16.41c-.07-.22-.26-.53-.26-.62Z"/><path class="cls-9" d="M10.82,16h0a2.87,2.87,0,0,0-.15-.37.9.9,0,0,1-.11-.26h0l.42.21h0s0,.32-.17.42Zm-.26-.62a1.92,1.92,0,0,0,.11.25,1.76,1.76,0,0,1,.15.35c.14-.09.15-.36.15-.4Z"/><path class="cls-2" d="M11.58,18.39a.18.18,0,0,1-.18.19h0a.18.18,0,0,1-.19-.19v-.85a.18.18,0,0,1,.19-.18h0a.18.18,0,0,1,.18.18Z"/><path class="cls-9" d="M11.4,18.59a.2.2,0,0,1-.2-.2v-.85a.2.2,0,0,1,.2-.19.2.2,0,0,1,.19.19v.85A.2.2,0,0,1,11.4,18.59Zm0-1.22a.18.18,0,0,0-.18.17v.85a.18.18,0,0,0,.18.18.18.18,0,0,0,.17-.18v-.85A.18.18,0,0,0,11.4,17.37Z"/><path class="cls-2" d="M11.55,17.43a.15.15,0,0,1-.15.15h0a.16.16,0,0,1-.16-.15v-.7a.16.16,0,0,1,.16-.16h0a.16.16,0,0,1,.15.16Z"/><path class="cls-9" d="M11.4,17.58a.16.16,0,0,1-.16-.15v-.7a.16.16,0,0,1,.16-.16.16.16,0,0,1,.16.16v.7A.16.16,0,0,1,11.4,17.58Zm0-1a.15.15,0,0,0-.15.15v.7a.15.15,0,0,0,.15.14.14.14,0,0,0,.14-.14v-.7A.14.14,0,0,0,11.4,16.58Z"/><path class="cls-2" d="M11.52,16.73a.12.12,0,0,1-.12.13h0a.12.12,0,0,1-.12-.13v-.57A.12.12,0,0,1,11.4,16h0a.12.12,0,0,1,.12.12Z"/><path class="cls-9" d="M11.4,16.86a.13.13,0,0,1-.13-.13v-.57a.13.13,0,0,1,.26,0v.57A.13.13,0,0,1,11.4,16.86Zm0-.81a.12.12,0,0,0-.12.11v.57a.12.12,0,0,0,.24,0v-.57A.12.12,0,0,0,11.4,16.05Z"/><path class="cls-2" d="M11.21,15.78s0,.51.19.59c.16-.11.19-.52.18-.61S11.23,15.64,11.21,15.78Z"/><path class="cls-9" d="M11.4,16.38h0c-.17-.08-.2-.57-.2-.59h0c0-.06.07-.1.16-.1a.38.38,0,0,1,.22.07h0c0,.09,0,.5-.18.61Zm-.19-.6s0,.5.19.58a.92.92,0,0,0,.17-.6.35.35,0,0,0-.21-.06S11.23,15.71,11.21,15.78Z"/><path class="cls-2" d="M13,13.43a5,5,0,0,0,0,.88.85.85,0,0,0,.18.57.74.74,0,0,0,.12-.25"/><path class="cls-9" d="M13.17,14.89h0c-.1-.07-.16-.26-.19-.57a6.46,6.46,0,0,1,0-.88h0a6.29,6.29,0,0,0,0,.87.87.87,0,0,0,.18.56.66.66,0,0,0,.12-.25h0a.66.66,0,0,1-.12.25Z"/><path class="cls-2" d="M12.62,12.31a5.37,5.37,0,0,0,.2.68,2.7,2.7,0,0,1,.09.58c0,.13.24,1,.43,1.09.08.56.22.75.31.79.06.19,0,.06.16.13s.36-.13.36-.13l.11-2,.39-1.5a.82.82,0,0,0,0-.27,5.11,5.11,0,0,0-.58-.57l-.53.14Z"/><path class="cls-2" d="M14.05,11.56a1.21,1.21,0,0,1-.09.69.79.79,0,0,1-.19-.39"/><path class="cls-9" d="M14,12.27h0a1,1,0,0,1-.19-.4h0a.89.89,0,0,0,.19.38,1.19,1.19,0,0,0,.08-.67h0a1.19,1.19,0,0,1-.1.7Z"/><path class="cls-2" d="M13.72,11.38a2.14,2.14,0,0,1,0,1c-.19-.09-.23-.66-.23-.66"/><path class="cls-9" d="M13.7,12.42h0c-.19-.1-.23-.64-.24-.67h0s0,.55.22.65a2.25,2.25,0,0,0,0-1h0a2.3,2.3,0,0,1,0,1Z"/><path class="cls-2" d="M13.21,12.07a.64.64,0,0,0,.21.53,1.45,1.45,0,0,0,.09-.59"/><path class="cls-9" d="M13.42,12.61h0a.63.63,0,0,1-.2-.54h0a.61.61,0,0,0,.2.51A1.51,1.51,0,0,0,13.5,12h0a1.55,1.55,0,0,1-.1.6Z"/><path class="cls-2" d="M12.59,12.48s.07.35.18.42a1,1,0,0,0,.16-.54s0,.29.17.4a1.29,1.29,0,0,0,.12-.52"/><path class="cls-9" d="M12.77,12.92h0c-.11-.07-.18-.41-.19-.43h0a1.13,1.13,0,0,0,.17.42,1,1,0,0,0,.15-.53h0a.48.48,0,0,0,.16.38,1.36,1.36,0,0,0,.11-.51h0a1.6,1.6,0,0,1-.12.53h0a.46.46,0,0,1-.17-.31.92.92,0,0,1-.15.45Z"/><path class="cls-2" d="M13.7,12.41a4.18,4.18,0,0,1,0,.72,1.28,1.28,0,0,1-.12.32.47.47,0,0,1-.17-.36c0-.22,0-.49,0-.49"/><path class="cls-9" d="M13.58,13.46h0a.48.48,0,0,1-.16-.36c0-.22,0-.48,0-.49h0s0,.27,0,.49a.47.47,0,0,0,.16.35,1.57,1.57,0,0,0,.11-.31,4.19,4.19,0,0,0,0-.72h0a4.21,4.21,0,0,1,0,.72,1.28,1.28,0,0,1-.12.32Z"/><path class="cls-2" d="M13.91,13.46s-.18,0-.2-.4"/><path class="cls-9" d="M13.91,13.47s-.19,0-.21-.41h0c0,.35.19.4.19.4Z"/><path class="cls-2" d="M13.1,12.76a1.46,1.46,0,0,0,0,.43.8.8,0,0,0,.16.24,1,1,0,0,0,.13-.3"/><path class="cls-9" d="M13.29,13.45h0a.72.72,0,0,1-.17-.25,1.34,1.34,0,0,1,0-.43h0a1.37,1.37,0,0,0,0,.42.83.83,0,0,0,.15.24,1.15,1.15,0,0,0,.12-.29h0a1,1,0,0,1-.12.31Z"/><path class="cls-2" d="M12.79,12.89s0,.43.21.56a.72.72,0,0,0,.1-.4"/><path class="cls-9" d="M13,13.46h0c-.24-.12-.22-.55-.22-.56h0s0,.42.21.55a.08.08,0,0,1,0,0,.57.57,0,0,0,.07-.34h0a.53.53,0,0,1-.08.34l0,.06Z"/><path class="cls-2" d="M13.29,13.43s0,.81,0,1.23.1.82.3.89"/><path class="cls-9" d="M13.59,15.56c-.22-.08-.31-.51-.31-.9s0-1.22,0-1.23h0v1.23c0,.46.11.82.29.89Z"/><path class="cls-2" d="M12.79,13a10.23,10.23,0,0,0-.06,1.16.55.55,0,0,0,.15.35l.11-.24v-.86Z"/><path class="cls-9" d="M12.88,14.56h0a.65.65,0,0,1-.15-.36A10.37,10.37,0,0,1,12.78,13v0l.22.43,0,.87Zm-.08-1.49a7.87,7.87,0,0,0-.06,1.13.53.53,0,0,0,.14.34l.1-.23v-.86Z"/><path class="cls-2" d="M13.91,13.43s0,.43-.1.82a5,5,0,0,0,0,1.37.8.8,0,0,0,.27.58.45.45,0,0,0,.12-.29"/><path class="cls-9" d="M14.05,16.21h0a.79.79,0,0,1-.26-.59,5,5,0,0,1,0-1.37c.07-.39.1-.81.1-.82h0a7.25,7.25,0,0,1-.09.81,4.56,4.56,0,0,0,0,1.37c.05.3.13.49.26.57a.44.44,0,0,0,.11-.28h0a.51.51,0,0,1-.13.3Z"/><path class="cls-2" d="M13.58,13.45a7.6,7.6,0,0,1,0,1,2.09,2.09,0,0,0,.18,1.34c.09-.06.06-.21.06-.21"/><path class="cls-9" d="M13.72,15.84h0a2.07,2.07,0,0,1-.18-1.34,7.58,7.58,0,0,0,0-1h0a6.7,6.7,0,0,1-.05,1,2.18,2.18,0,0,0,.18,1.33c.08-.06.06-.19.06-.2h0s0,.16-.07.21Z"/><path class="cls-2" d="M14.7,13.1a5.49,5.49,0,0,1-.12,1.41,4.55,4.55,0,0,0,0,1.72c-.22-.11-.54-.21-.51-.87s.23-1.52.18-1.72"/><path class="cls-9" d="M14.59,16.24h0l0,0c-.22-.1-.49-.22-.46-.85a8.49,8.49,0,0,1,.11-1,2.71,2.71,0,0,0,.06-.72h0a3,3,0,0,1-.07.73c0,.32-.1.68-.11,1,0,.62.24.74.46.84h0a4.76,4.76,0,0,1,0-1.7,5.44,5.44,0,0,0,.12-1.41h0a5.44,5.44,0,0,1-.12,1.41,4.69,4.69,0,0,0,0,1.71Z"/><path class="cls-2" d="M14.47,13.53a4,4,0,0,1-.08,1,2.87,2.87,0,0,0-.1,1"/><path class="cls-9" d="M14.28,15.45a2.89,2.89,0,0,1,.1-1,4,4,0,0,0,.08-1h0a4.1,4.1,0,0,1-.08,1,2.84,2.84,0,0,0-.1.95Z"/><path class="cls-2" d="M14.73,11.8s.18,1.76-.4,1.77a.4.4,0,0,1-.3.13s-.17-.06-.11-.43a9.07,9.07,0,0,0,0-1"/><path class="cls-9" d="M14,13.71h0s-.18-.07-.12-.44a9,9,0,0,0,0-1h0a7,7,0,0,1,0,1c-.05.34.1.42.11.42a.38.38,0,0,0,.3-.13h0a.25.25,0,0,0,.2-.09c.33-.37.2-1.66.2-1.67h0s.13,1.31-.2,1.68a.32.32,0,0,1-.2.1A.45.45,0,0,1,14,13.71Z"/><path class="cls-2" d="M14.18,11.76s.12,1.63-.15,1.94"/><path class="cls-9" d="M14,13.71h0c.27-.3.16-1.93.16-1.94h0C14.2,11.82,14.3,13.4,14,13.71Z"/><path class="cls-2" d="M14.45,11.88a5.2,5.2,0,0,1-.12,1.69"/><path class="cls-9" d="M14.34,13.57h0a5.4,5.4,0,0,0,.12-1.68h0A5.45,5.45,0,0,1,14.34,13.57Z"/><path class="cls-2" d="M12.28,11.61s.31.27.48.27a6.37,6.37,0,0,0,1-1.41c.06-.27-.26-.53-.22-.65s.49-.2.82.37a5.45,5.45,0,0,1,.45,1.69l-.38-.25,0,.25s-.33,0-.47-.51h-.26s-.58.95-1,1.13a6.21,6.21,0,0,0-1.44-.1l.08-.84Z"/><path class="cls-9" d="M12.68,12.52h0a4.31,4.31,0,0,0-1.15-.1h-.3l.09-.86,1,0h0a1.26,1.26,0,0,0,.47.26,6.17,6.17,0,0,0,1-1.4A.64.64,0,0,0,13.6,10a.35.35,0,0,1-.09-.22.21.21,0,0,1,.2-.09.78.78,0,0,1,.63.46,5.57,5.57,0,0,1,.46,1.69v0l-.38-.24,0,.23h0s-.34,0-.47-.5h-.24c0,.07-.6,1-1.05,1.14Zm-1.15-.12a4.77,4.77,0,0,1,1.15.1c.46-.17,1-1.12,1-1.13H14c.13.47.41.5.46.5l0-.25.39.24a5.43,5.43,0,0,0-.46-1.67.74.74,0,0,0-.62-.45c-.1,0-.17,0-.18.08s0,.12.08.2a.62.62,0,0,1,.14.45,5.89,5.89,0,0,1-1,1.41h0c-.17,0-.45-.24-.48-.26l-.95,0-.08.83Z"/><path class="cls-2" d="M14,10.71a2.57,2.57,0,0,1,.45.92"/><path class="cls-9" d="M14.4,11.63a2.41,2.41,0,0,0-.45-.91h0a2.35,2.35,0,0,1,.46.92Z"/><path class="cls-5" d="M12.32,10.42a.35.35,0,0,1,.26,0,.46.46,0,0,0,.59-.12.44.44,0,0,1-.52.27h-.29a.42.42,0,0,1-.14,0S12.26,10.45,12.32,10.42Z"/><path class="cls-4" d="M12.74,10.62h-.53s0-.15.1-.17a.17.17,0,0,1,.09,0,.74.74,0,0,1,.18,0,.5.5,0,0,0,.24.06.41.41,0,0,0,.34-.17l0,0v0a.42.42,0,0,1-.43.29Zm-.31,0h.31a.44.44,0,0,0,.41-.23.42.42,0,0,1-.33.14.74.74,0,0,1-.25,0,.38.38,0,0,0-.17,0h-.08c-.05,0-.08.13-.09.16h.2Z"/><path class="cls-2" d="M11.38,12a3.62,3.62,0,0,1,.29-1.84c-.08,0-.19-.15-.2-.3.07.09.39,0,.61-.08s.66-.21.71,0-.17.33-.21.38a7.05,7.05,0,0,0-.41.66.85.85,0,0,0,.44,1c-.16.11-.57-.11-.57-.11l.07.21s-.27,0-.31-.2a2.12,2.12,0,0,0-.12.22s-.16-.2-.15-.3A.73.73,0,0,1,11.38,12Z"/><path class="cls-9" d="M11.37,12h0a3.67,3.67,0,0,1,.29-1.83.35.35,0,0,1-.2-.31v0a.27.27,0,0,0,.15,0,1,1,0,0,0,.46-.13,1.09,1.09,0,0,1,.49-.13c.13,0,.21,0,.22.1s-.09.27-.16.35l-.05,0a6.59,6.59,0,0,0-.4.67.83.83,0,0,0,.43,1h0a.21.21,0,0,1-.12,0h0a1.13,1.13,0,0,1-.44-.14l.07.21h0s-.26,0-.31-.19l-.11.2h0a.7.7,0,0,1-.15-.24.74.74,0,0,1-.15.32Zm.11-2.13c0,.15.12.27.19.27h0v0a3.48,3.48,0,0,0-.3,1.81.68.68,0,0,0,.14-.35h0a.64.64,0,0,0,.15.27s.05-.08.11-.2h0c0,.13.25.18.3.19L12,11.63h0a1.29,1.29,0,0,0,.45.14h0l.1,0a.87.87,0,0,1-.43-1c.05-.12.37-.61.41-.67l0,0c.07-.07.19-.19.16-.33s-.12-.1-.21-.1a1.23,1.23,0,0,0-.49.13,1.06,1.06,0,0,1-.46.14A.23.23,0,0,1,11.48,9.84Z"/><path class="cls-9" d="M12.14,10h0v0s.05,0,.13,0l.18-.06a.42.42,0,0,1,.3,0v0a.36.36,0,0,0-.29,0l-.17.06A.32.32,0,0,1,12.14,10Z"/><path class="cls-9" d="M12.4,10.07h0a.16.16,0,0,1-.11-.13h0c0,.07.05.11.11.12a.13.13,0,0,0,.14,0,.73.73,0,0,0,.12-.19h0a.5.5,0,0,1-.12.2A.17.17,0,0,1,12.4,10.07Z"/><path class="cls-9" d="M12.53,10a.06.06,0,1,1-.06-.07A.07.07,0,0,1,12.53,10Z"/><path class="cls-2" d="M12.47,10A.08.08,0,0,1,12.4,10a.07.07,0,0,1,.14,0A.08.08,0,0,1,12.47,10Zm0-.14a.06.06,0,1,0,0,.06A.06.06,0,0,0,12.47,9.89Z"/><path class="cls-5" d="M12.68,9.88s0-.25.22-.21.07.08.07.08.19,0,.24.09a.55.55,0,0,1-.3.54c0-.13-.13-.23-.18-.19s0,.11-.09.12-.11,0-.21.06-.13.21-.08.23.07-.07.16,0a.26.26,0,0,0,.21.05c0,.06-.07.1-.25.08a.77.77,0,0,0-.3,0c-.06,0,0-.11.08-.26A6.12,6.12,0,0,0,12.68,9.88Z"/><path class="cls-4" d="M12.56,10.72h-.39l0,0s0-.14.1-.25l.17-.22a1.89,1.89,0,0,0,.26-.34s0-.22.19-.22h0s.06,0,.07,0,0,0,0,0h0a.22.22,0,0,1,.21.1c.06.12-.06.42-.3.55h0c0-.11-.1-.19-.15-.19h0l0,.06s0,.06,0,.07h-.08a.17.17,0,0,0-.12.06c-.08.08-.12.16-.11.2l0,0s0,0,.05,0l.06,0h0c.09,0,.17.07.2,0h0l0,0A.15.15,0,0,1,12.56,10.72Zm-.28,0,.19,0h.09a.14.14,0,0,0,.14-.07h0a.51.51,0,0,1-.17-.05l0,0-.05,0-.05,0h0l0,0a.27.27,0,0,1,.11-.22.18.18,0,0,1,.13-.06h.07s0,0,0-.05,0-.05,0-.07h0c.06,0,.14.09.16.2a.55.55,0,0,0,.29-.53c0-.08-.15-.09-.2-.09h0v0a.09.09,0,0,0-.06,0h0c-.14,0-.18.21-.18.21a1.86,1.86,0,0,1-.26.35l-.17.21a.42.42,0,0,0-.1.24h.13Z"/><path class="cls-9" d="M13.06,9.91s0,0,0,0,0,0,0,0a0,0,0,0,1,.08,0Z"/><path class="cls-2" d="M13.2,17.56s.05-.18.16-.2a.12.12,0,0,1,.16.14c.1-.14.14-.32,0-.38a.28.28,0,0,0-.39.17.57.57,0,0,0,0,.27Z"/><path class="cls-9" d="M13.2,17.57h-.09a.57.57,0,0,1,0-.27.27.27,0,0,1,.28-.2.19.19,0,0,1,.13,0,.1.1,0,0,1,.06.08.45.45,0,0,1-.09.31l0,0v0s0-.08,0-.1-.07,0-.13,0-.15.2-.15.2h0Zm-.08,0h.08s.06-.18.16-.2a.16.16,0,0,1,.15,0,.19.19,0,0,1,0,.08.44.44,0,0,0,.08-.27.11.11,0,0,0-.06-.07.24.24,0,0,0-.12,0,.25.25,0,0,0-.26.19A.91.91,0,0,0,13.12,17.55Z"/><path class="cls-2" d="M13.21,17.63s.15.17.22.09c0,.12-.08.2-.22.13a.15.15,0,0,1-.09-.19Z"/><path class="cls-9" d="M13.3,17.89l-.09,0a.17.17,0,0,1-.1-.2h0l.1,0h0s.09.11.16.11l0,0,0,0v0C13.42,17.83,13.37,17.89,13.3,17.89Zm-.18-.23a.17.17,0,0,0,.1.19c.1,0,.17,0,.2-.11h0c-.07,0-.15-.09-.17-.11Z"/><path class="cls-2" d="M13,17.56s-.05-.18-.15-.2-.19,0-.17.14c-.1-.14-.14-.32,0-.38a.29.29,0,0,1,.4.17.57.57,0,0,1,0,.27Z"/><path class="cls-9" d="M13.07,17.57H13s-.05-.17-.15-.2a.14.14,0,0,0-.14,0,.11.11,0,0,0,0,.1v0l0,0a.41.41,0,0,1-.09-.31.1.1,0,0,1,.06-.08.18.18,0,0,1,.13,0,.28.28,0,0,1,.28.2.85.85,0,0,1,0,.27Zm-.08,0h.07s0-.09,0-.26a.26.26,0,0,0-.26-.19.21.21,0,0,0-.12,0,.11.11,0,0,0-.06.07.37.37,0,0,0,.07.27.11.11,0,0,1,0-.08.15.15,0,0,1,.15,0C12.93,17.37,13,17.52,13,17.55Z"/><path class="cls-2" d="M13,17.63s-.14.17-.22.09c0,.12.09.2.22.13a.16.16,0,0,0,.1-.19Z"/><path class="cls-9" d="M12.88,17.89h0c-.07,0-.11-.06-.13-.17v0l0,0a.05.05,0,0,0,0,0h0c.07,0,.17-.11.17-.11h0l.11,0h0a.17.17,0,0,1-.1.2Zm-.12-.15c0,.09.07.13.12.13h0l.09,0a.17.17,0,0,0,.1-.19l-.09,0s-.11.11-.18.11h0Z"/><path class="cls-2" d="M13,17.56a.69.69,0,0,0-.08-.38c-.09-.15-.16-.29,0-.44a.71.71,0,0,0,.17-.26.44.44,0,0,0,.12.21c.09.09.19.17.1.35a1,1,0,0,0-.15.52C13.11,17.61,13,17.56,13,17.56Z"/><path class="cls-9" d="M13.1,17.59s-.08,0-.08,0h0a.8.8,0,0,0-.08-.38c-.1-.16-.17-.29,0-.44a1.38,1.38,0,0,0,.17-.26v0a.42.42,0,0,0,.11.2l0,0a.24.24,0,0,1,.09.33h0a1.09,1.09,0,0,0-.15.51h0A.05.05,0,0,1,13.1,17.59Zm-.07,0h.11a1.12,1.12,0,0,1,.15-.52h0c.07-.15,0-.23-.09-.31l0,0a.47.47,0,0,1-.11-.18.93.93,0,0,1-.16.24c-.13.14-.07.27,0,.43A.72.72,0,0,1,13,17.56Z"/><path class="cls-2" d="M13,17.61s0,.18-.08.23S13,18,13,18l.05.09s0-.09.05-.1.15-.1.07-.17a.26.26,0,0,1-.07-.2Z"/><path class="cls-9" d="M13.09,18.12v0A.45.45,0,0,0,13,18l0,0s-.08-.06-.08-.09l0,0c.08-.05.08-.23.08-.23h.12a.26.26,0,0,0,.07.2.09.09,0,0,1,0,.06.19.19,0,0,1-.11.12s0,.07-.05.09Zm-.05-.5s0,.18-.08.23,0,0,0,0,0,.05.07.08l0,0,.05.08a.11.11,0,0,1,.05-.09.15.15,0,0,0,.09-.1s0,0,0-.05a.31.31,0,0,1-.08-.21Z"/><path class="cls-2" d="M13.29,17.59a.08.08,0,0,1-.07.08h-.28a.08.08,0,0,1-.08-.08h0a.07.07,0,0,1,.08-.07h.28a.07.07,0,0,1,.07.07Z"/><path class="cls-9" d="M13.22,17.67h-.28a.08.08,0,0,1-.09-.08.09.09,0,0,1,.09-.08h.28a.09.09,0,0,1,.08.08A.08.08,0,0,1,13.22,17.67Zm-.28-.14a.07.07,0,0,0-.07.06.07.07,0,0,0,.07.07h.28a.07.07,0,0,0,.07-.07.07.07,0,0,0-.07-.06Z"/><path class="cls-2" d="M12.39,15.55s.13.44.35.55a1.29,1.29,0,0,0,0-.79l-.26-.11Z"/><path class="cls-9" d="M12.75,16.12h0c-.23-.11-.35-.54-.36-.56h0l0-.36.28.12h0a1.32,1.32,0,0,1,0,.8Zm-.36-.57a1.15,1.15,0,0,0,.35.55,1.39,1.39,0,0,0,0-.78l-.26-.11Z"/><path class="cls-2" d="M13.18,15.68a2.93,2.93,0,0,0,.36.55.71.71,0,0,0,.43.08c.07,0,.14-.13.22,0s.2,0,.22.14-.18,0-.22,0-.12,0-.18,0h-.27a.42.42,0,0,0,.24.08.23.23,0,0,1,.24.19.69.69,0,0,1-.07.23s0-.08,0-.11-.13,0-.14,0-.28-.22-.33-.23.16.22.24.32a.17.17,0,0,1,0,.2s0,.24-.17.26c0-.17,0-.2,0-.2s-.14,0-.13-.13a1.09,1.09,0,0,0-.11-.43.35.35,0,0,0-.27-.2c-.1,0-.23.1-.29-.1a.23.23,0,0,0-.22,0,.26.26,0,0,1,.28-.16s.15,0,.3.12,0,0-.09-.12a1,1,0,0,1-.26-.39,1,1,0,0,1,0-.19Z"/><path class="cls-9" d="M13.71,17.34h0a.51.51,0,0,0,0-.2.14.14,0,0,1-.11,0,.08.08,0,0,1,0-.09.89.89,0,0,0-.11-.43.35.35,0,0,0-.26-.19H13q-.09,0-.12-.12a.15.15,0,0,0-.09,0,.25.25,0,0,0-.12,0h0a.28.28,0,0,1,.24-.17H13a.78.78,0,0,1,.27.13h0a.28.28,0,0,0-.1-.11,1.09,1.09,0,0,1-.27-.4,1.52,1.52,0,0,1,0-.19h0l.3.13h0a3.3,3.3,0,0,0,.37.56.63.63,0,0,0,.34.08H14l.07,0a.18.18,0,0,1,.09,0l.07,0h0a.19.19,0,0,1,.17.16h0l-.12,0s-.07,0-.08,0a.07.07,0,0,1-.06,0l-.06,0h-.32a.36.36,0,0,0,.22.08c.17,0,.24.1.24.19a.67.67,0,0,1-.06.24v0a.14.14,0,0,0,0-.1.09.09,0,0,1-.06,0c-.05,0-.08-.05-.09-.09s-.27-.21-.32-.23.1.13.15.21l.1.11a.18.18,0,0,1,0,.2s0,.25-.18.27Zm-.53-1h0a.33.33,0,0,1,.27.19.84.84,0,0,1,.11.44.11.11,0,0,0,0,.08.14.14,0,0,0,.1,0h0s0,0,0,.2c.14,0,.16-.25.16-.25h0a.15.15,0,0,0,0-.18l-.09-.12c-.12-.15-.16-.2-.15-.22h0a1,1,0,0,1,.34.24.08.08,0,0,0,.07.07l0,0h0a.16.16,0,0,1,.05.09.65.65,0,0,0,.05-.21c0-.08-.07-.17-.23-.18a.33.33,0,0,1-.24-.09H14a.09.09,0,0,1,.07,0h.06s0,0,0,0a.14.14,0,0,1,.1-.05l.12,0a.18.18,0,0,0-.16-.13h-.05a.07.07,0,0,0-.06,0s-.05,0-.08,0l-.08,0h-.08a.73.73,0,0,1-.35-.08,2.82,2.82,0,0,1-.37-.56l-.28-.11s0,.08,0,.16a1.13,1.13,0,0,0,.27.4c.05,0,.11.1.11.12a0,0,0,0,1,0,0h0a.76.76,0,0,0-.26-.13h-.07a.28.28,0,0,0-.22.14l.11,0a.18.18,0,0,1,.1,0h0c0,.1.07.11.11.11h.14Z"/><path class="cls-2" d="M12.7,15.2s.19.69.78.57A2.61,2.61,0,0,1,13,15.1a.32.32,0,0,0-.25-.13Z"/><path class="cls-9" d="M13.35,15.8h0c-.48,0-.64-.59-.65-.6h0l0-.24h0a.33.33,0,0,1,.26.14l0,.08a2.49,2.49,0,0,0,.45.59h0Zm-.64-.6s.17.58.63.58h.12a3.17,3.17,0,0,1-.45-.58l0-.08a.3.3,0,0,0-.24-.13Z"/><path class="cls-2" d="M12.66,14.38a.56.56,0,0,1,.23.34,1.1,1.1,0,0,0,.29.56.44.44,0,0,1-.43-.16c-.09-.15-.09-.28-.2-.35S12.66,14.38,12.66,14.38Z"/><path class="cls-9" d="M13.1,15.3a.42.42,0,0,1-.36-.18,1.11,1.11,0,0,1-.07-.16.41.41,0,0,0-.12-.19c-.11-.08.1-.38.11-.39h0a.52.52,0,0,1,.24.34,1.1,1.1,0,0,0,.28.56H13.1Zm-.44-.91s-.19.31-.1.37a.45.45,0,0,1,.12.2,1.18,1.18,0,0,0,.08.16.41.41,0,0,0,.34.17h.06a1.27,1.27,0,0,1-.28-.56A.54.54,0,0,0,12.66,14.39Z"/><path class="cls-2" d="M12.3,15s.52.77.06,1.05a2.28,2.28,0,0,0-.29-.71Z"/><path class="cls-9" d="M12.36,16h0a2.13,2.13,0,0,0-.28-.7h0l.23-.35h0a1.39,1.39,0,0,1,.23.82.37.37,0,0,1-.17.24Zm-.28-.72a2.16,2.16,0,0,1,.29.69.35.35,0,0,0,.16-.23A1.32,1.32,0,0,0,12.3,15Z"/><path class="cls-2" d="M12.66,15.05A1.89,1.89,0,0,1,13,16a1,1,0,0,1-.41-.6Z"/><path class="cls-9" d="M13,16h0a1,1,0,0,1-.42-.6h0l.08-.39v0A1.89,1.89,0,0,1,13,16Zm-.41-.61A.91.91,0,0,0,13,16a1.89,1.89,0,0,0-.34-.93Z"/><path class="cls-2" d="M12.36,14.85a.74.74,0,0,0,.44.72c0-.36-.12-.83-.31-.93C12.35,14.75,12.36,14.85,12.36,14.85Z"/><path class="cls-9" d="M12.8,15.58h0a.74.74,0,0,1-.45-.72.32.32,0,0,1,.13-.22h0c.19.1.32.57.31.94Zm-.31-.93a.25.25,0,0,0-.12.2.73.73,0,0,0,.42.71C12.79,15.19,12.67,14.75,12.49,14.65Z"/><path class="cls-2" d="M9.85,13.43a6.42,6.42,0,0,1,0,.88.91.91,0,0,1-.18.57.65.65,0,0,1-.13-.25"/><path class="cls-9" d="M9.66,14.89h0a.66.66,0,0,1-.12-.25h0a.66.66,0,0,0,.12.25.94.94,0,0,0,.18-.56,6.29,6.29,0,0,0,0-.87h0a6.46,6.46,0,0,1,0,.88.87.87,0,0,1-.19.57Z"/><path class="cls-2" d="M10.21,12.31s-.14.55-.2.68a2.7,2.7,0,0,0-.09.58c0,.13-.25,1-.44,1.09-.08.56-.22.75-.3.79-.07.19,0,.06-.16.13s-.36-.13-.36-.13l-.11-2L8.16,12a.62.62,0,0,1,0-.27,5.11,5.11,0,0,1,.58-.57l.53.14Z"/><path class="cls-2" d="M8.78,11.56a1.12,1.12,0,0,0,.09.69.91.91,0,0,0,.19-.39"/><path class="cls-9" d="M8.87,12.27h0a1.24,1.24,0,0,1-.09-.7h0a1.1,1.1,0,0,0,.08.67,1,1,0,0,0,.18-.38h0a1,1,0,0,1-.19.4Z"/><path class="cls-2" d="M9.1,11.38a2.2,2.2,0,0,0,0,1c.18-.09.23-.66.23-.66"/><path class="cls-9" d="M9.12,12.42h0a2,2,0,0,1,0-1h0a2.25,2.25,0,0,0,0,1c.17-.1.22-.64.22-.65h0s0,.57-.23.67Z"/><path class="cls-2" d="M9.61,12.07a.62.62,0,0,1-.2.53A1.45,1.45,0,0,1,9.32,12"/><path class="cls-9" d="M9.41,12.61h0a1.69,1.69,0,0,1-.09-.6h0a1.6,1.6,0,0,0,.09.58.61.61,0,0,0,.2-.51h0a.62.62,0,0,1-.21.54Z"/><path class="cls-2" d="M10.24,12.48s-.08.35-.19.42a1,1,0,0,1-.15-.54.48.48,0,0,1-.18.4,1.39,1.39,0,0,1-.11-.52"/><path class="cls-9" d="M10.05,12.92h0a.92.92,0,0,1-.15-.45.46.46,0,0,1-.17.31h0a1.35,1.35,0,0,1-.12-.53h0a1.36,1.36,0,0,0,.11.51.48.48,0,0,0,.16-.38h0a1,1,0,0,0,.15.53,1.13,1.13,0,0,0,.17-.42h0s-.07.36-.18.43Z"/><path class="cls-2" d="M9.13,12.41a4.18,4.18,0,0,0,0,.72,1.28,1.28,0,0,0,.12.32.48.48,0,0,0,.16-.36c0-.22,0-.49,0-.49"/><path class="cls-9" d="M9.25,13.46h0a1.28,1.28,0,0,1-.12-.32,4.21,4.21,0,0,1,0-.72h0a4.19,4.19,0,0,0,0,.72,1.39,1.39,0,0,0,.12.31.47.47,0,0,0,.16-.35,4.57,4.57,0,0,1,0-.49h0s0,.27,0,.49a.47.47,0,0,1-.17.36Z"/><path class="cls-2" d="M8.92,13.46s.18,0,.2-.4"/><path class="cls-9" d="M8.92,13.47h0s.17-.05.19-.4h0C9.11,13.43,8.93,13.47,8.92,13.47Z"/><path class="cls-2" d="M9.72,12.76a1.34,1.34,0,0,1,0,.43.8.8,0,0,1-.16.24,1,1,0,0,1-.13-.3"/><path class="cls-9" d="M9.54,13.45h0a1,1,0,0,1-.12-.31h0a.87.87,0,0,0,.12.29.83.83,0,0,0,.15-.24,1.37,1.37,0,0,0,0-.42h0a1.34,1.34,0,0,1,0,.43.91.91,0,0,1-.17.25Z"/><path class="cls-2" d="M10,12.89s0,.43-.21.56a.65.65,0,0,1-.1-.4"/><path class="cls-9" d="M9.83,13.46h0a.14.14,0,0,1,0-.06.53.53,0,0,1-.08-.34h0a.57.57,0,0,0,.08.34s0,0,0,0c.23-.13.2-.55.2-.55h0s0,.44-.22.56Z"/><path class="cls-2" d="M9.54,13.43s0,.81,0,1.23-.11.82-.3.89"/><path class="cls-9" d="M9.24,15.56h0c.17-.07.29-.43.29-.89s0-1.22,0-1.23h0v1.23C9.55,15.05,9.46,15.48,9.24,15.56Z"/><path class="cls-2" d="M10,13a10.23,10.23,0,0,1,.06,1.16.55.55,0,0,1-.15.35l-.11-.24v-.86Z"/><path class="cls-9" d="M10,14.56l-.11-.25,0-.86L10,13v0s.09.91.07,1.16a.65.65,0,0,1-.15.36Zm-.1-.25.1.23a.53.53,0,0,0,.14-.34A7.87,7.87,0,0,0,10,13.07l-.19.38Z"/><path class="cls-2" d="M8.92,13.43s0,.43.1.82a5.4,5.4,0,0,1,0,1.37.88.88,0,0,1-.27.58.45.45,0,0,1-.12-.29"/><path class="cls-9" d="M8.78,16.21h0a.54.54,0,0,1-.12-.3h0a.44.44,0,0,0,.11.28c.13-.08.21-.27.26-.57a5.34,5.34,0,0,0,0-1.37,7.25,7.25,0,0,1-.09-.81h0s0,.43.1.82a5,5,0,0,1,0,1.37.8.8,0,0,1-.27.59Z"/><path class="cls-2" d="M9.25,13.45a7.6,7.6,0,0,0,0,1,2.09,2.09,0,0,1-.18,1.34c-.09-.06-.06-.21-.06-.21"/><path class="cls-9" d="M9.11,15.84h0c-.1-.05-.07-.2-.07-.21h0s0,.14.06.2a2.12,2.12,0,0,0,.17-1.33,7.58,7.58,0,0,1,0-1h0a6.14,6.14,0,0,0,0,1,2.2,2.2,0,0,1-.18,1.34Z"/><path class="cls-2" d="M8.13,13.1a5.49,5.49,0,0,0,.12,1.41,4.55,4.55,0,0,1,0,1.72c.22-.11.53-.21.51-.87s-.23-1.52-.18-1.72"/><path class="cls-9" d="M8.24,16.24v0a4.53,4.53,0,0,0,0-1.71,5.44,5.44,0,0,1-.12-1.41h0a5.44,5.44,0,0,0,.12,1.41,4.49,4.49,0,0,1,0,1.7h0c.22-.1.48-.22.46-.84,0-.32-.07-.68-.12-1a2.8,2.8,0,0,1-.06-.73h0a3.47,3.47,0,0,0,.07.72,8.49,8.49,0,0,1,.11,1c0,.63-.24.75-.46.85l-.05,0Z"/><path class="cls-2" d="M8.36,13.53a4,4,0,0,0,.08,1,2.87,2.87,0,0,1,.1,1"/><path class="cls-9" d="M8.55,15.45h0a2.6,2.6,0,0,0-.1-.95,4.76,4.76,0,0,1-.08-1h0a4,4,0,0,0,.08,1A2.89,2.89,0,0,1,8.55,15.45Z"/><path class="cls-2" d="M8.09,11.8s-.18,1.76.4,1.77a.43.43,0,0,0,.31.13s.17-.06.11-.43a9.07,9.07,0,0,1,0-1"/><path class="cls-9" d="M8.79,13.71a.45.45,0,0,1-.3-.13.3.3,0,0,1-.2-.1c-.33-.37-.21-1.63-.2-1.68h0s-.13,1.3.2,1.67a.25.25,0,0,0,.19.09h0a.38.38,0,0,0,.3.13s.16-.08.1-.42a9,9,0,0,1,0-1h0a7,7,0,0,0,0,1c.05.37-.11.44-.12.44h0Z"/><path class="cls-2" d="M8.64,11.76s-.11,1.63.16,1.94"/><path class="cls-9" d="M8.79,13.71a5.09,5.09,0,0,1-.15-2h0s-.11,1.64.15,1.94Z"/><path class="cls-2" d="M8.38,11.88a5.44,5.44,0,0,0,.11,1.69"/><path class="cls-9" d="M8.49,13.57a5.16,5.16,0,0,1-.12-1.7h0a5.4,5.4,0,0,0,.12,1.68Z"/><path class="cls-2" d="M10.54,11.61s-.3.27-.47.27a6.37,6.37,0,0,1-1-1.41c-.07-.27.26-.53.22-.65s-.49-.2-.82.37A5.57,5.57,0,0,0,8,11.88l.39-.25,0,.25s.33,0,.47-.51H9.1s.58.95,1.05,1.13a6.21,6.21,0,0,1,1.44-.1l-.26-.87Z"/><path class="cls-9" d="M11.55,12.08l0,.33h-.29a4.73,4.73,0,0,0-1.14.1c-.46-.17-1-1.12-1-1.13H8.84c-.12.47-.4.5-.46.5l0-.25L8,11.86a5.43,5.43,0,0,1,.46-1.67.74.74,0,0,1,.62-.45c.1,0,.17,0,.18.08s0,.12-.08.2a.62.62,0,0,0-.14.45,6.15,6.15,0,0,0,1,1.41h0c.16,0,.45-.24.48-.26l.84,0h0l-.85,0h0a1.26,1.26,0,0,1-.47.26,5.87,5.87,0,0,1-1-1.4A.59.59,0,0,1,9.23,10c.06-.09.1-.16.08-.22s-.09-.09-.19-.09a.79.79,0,0,0-.64.46A5.45,5.45,0,0,0,8,11.87v0l.38-.24,0,.23h0c.06,0,.34,0,.48-.5H9.1c0,.07.6,1,1.05,1.14h0a4.27,4.27,0,0,1,1.14-.1h.31l0-.34Z"/><path class="cls-2" d="M8.87,10.71a2.57,2.57,0,0,0-.45.92"/><path class="cls-9" d="M8.43,11.63h0a2.57,2.57,0,0,1,.45-.92h0A2.26,2.26,0,0,0,8.43,11.63Z"/><path class="cls-5" d="M10.51,10.42a.35.35,0,0,0-.26,0,.46.46,0,0,1-.59-.12.43.43,0,0,0,.52.27h.29a.45.45,0,0,0,.14,0S10.57,10.45,10.51,10.42Z"/><path class="cls-4" d="M10.09,10.62a.42.42,0,0,1-.43-.29v0l0,0a.41.41,0,0,0,.34.17.53.53,0,0,0,.24-.06.65.65,0,0,1,.18,0,.15.15,0,0,1,.08,0c.06,0,.11.16.11.17h-.53Zm-.41-.25a.44.44,0,0,0,.41.23h.51s0-.14-.09-.16h-.08a.45.45,0,0,0-.18,0,.64.64,0,0,1-.24,0A.41.41,0,0,1,9.68,10.37Z"/><path class="cls-2" d="M11.45,12s.1-1.36-.3-1.84c.09,0,.2-.15.21-.3-.07.09-.39,0-.61-.08s-.66-.21-.71,0,.17.33.21.38a7.05,7.05,0,0,1,.41.66.85.85,0,0,1-.44,1c.16.11.57-.11.57-.11l-.07.21s.27,0,.31-.2a1.08,1.08,0,0,1,.11.22s.17-.2.16-.3A.73.73,0,0,0,11.45,12Z"/><path class="cls-9" d="M11.45,11.82v.12a.68.68,0,0,1-.14-.35h0c0,.08-.11.24-.14.27a1.16,1.16,0,0,1-.11-.2h0c0,.13-.24.18-.29.19l.07-.22h0a1.21,1.21,0,0,1-.44.14l-.1,0a.88.88,0,0,0,.43-1c-.05-.12-.37-.61-.41-.67l0,0c-.07-.07-.2-.19-.16-.33s.12-.1.21-.1a1.19,1.19,0,0,1,.48.13,1.1,1.1,0,0,0,.47.14.26.26,0,0,0,.14,0c0,.15-.12.27-.2.27h0v0a1,1,0,0,1,.19.41h0a1.11,1.11,0,0,0-.18-.41c.09,0,.18-.16.2-.31v0l0,0a.21.21,0,0,1-.14,0,1,1,0,0,1-.46-.13,1.09,1.09,0,0,0-.49-.13c-.13,0-.21,0-.23.1s.1.27.17.35l.05,0c0,.06.35.55.4.67a.83.83,0,0,1-.43,1h0a.28.28,0,0,0,.13,0,1.13,1.13,0,0,0,.43-.14l-.06.21h0s.26,0,.31-.19l.11.2h0a.7.7,0,0,0,.15-.24.63.63,0,0,0,.15.32h0v-.14Z"/><path class="cls-9" d="M10.69,10a.3.3,0,0,1-.12,0l-.18-.06a.36.36,0,0,0-.29,0v0a.42.42,0,0,1,.3,0l.17.06c.09,0,.14,0,.14,0v0Z"/><path class="cls-9" d="M10.43,10.07A.21.21,0,0,1,10.3,10a.7.7,0,0,1-.12-.2h0a.49.49,0,0,0,.11.2.14.14,0,0,0,.15,0,.15.15,0,0,0,.11-.12h0a.21.21,0,0,1-.11.13Z"/><path class="cls-9" d="M10.3,10s0,.07.06.07a.07.07,0,0,0,0-.14S10.3,9.91,10.3,10Z"/><path class="cls-2" d="M10.36,10a.08.08,0,0,1-.07-.08.07.07,0,0,1,.14,0A.08.08,0,0,1,10.36,10Zm0-.14a.06.06,0,1,0,0,.12.06.06,0,0,0,0-.12Z"/><path class="cls-5" d="M10.15,9.88s0-.25-.22-.21-.07.08-.07.08-.19,0-.24.09a.55.55,0,0,0,.3.54c0-.13.13-.23.18-.19s0,.11.09.12.11,0,.21.06.13.21.08.23-.08-.07-.16,0a.27.27,0,0,1-.21.05c0,.06.06.1.25.08a.77.77,0,0,1,.3,0c.06,0,0-.11-.08-.26A6.12,6.12,0,0,1,10.15,9.88Z"/><path class="cls-4" d="M10.27,10.72a.15.15,0,0,1-.16-.09l0,0h0a.27.27,0,0,0,.21,0h0l.05,0a.07.07,0,0,0,.06,0s0,0,0,0a.26.26,0,0,0-.1-.2.17.17,0,0,0-.12-.06h-.08s0,0-.06-.07a.09.09,0,0,0,0-.06h0c-.06,0-.13.08-.15.19h0a.57.57,0,0,1-.31-.55c0-.09.16-.1.22-.1h0a.08.08,0,0,1,0,0s0,0,.07,0h0c.16,0,.2.21.2.22a2.27,2.27,0,0,0,.25.34,2.53,2.53,0,0,1,.18.22c.08.11.12.21.1.25l0,0h-.39Zm-.14-.08s0,.07.14.07h.09l.19,0h.13a.42.42,0,0,0-.1-.24l-.18-.21a2.48,2.48,0,0,1-.26-.35s0-.21-.18-.21h0a.09.09,0,0,0-.06,0s0,0,0,0h0c-.05,0-.17,0-.2.09a.55.55,0,0,0,.29.53c0-.11.1-.2.16-.2h0a.25.25,0,0,1,0,.07s0,.05,0,.05h.08a.2.2,0,0,1,.13.06.31.31,0,0,1,.11.22l0,0h0l0,0-.05,0,0,0a.49.49,0,0,1-.18.05Z"/><path class="cls-9" d="M9.77,9.91s0,0,0,0a0,0,0,0,0,0,0s0,0,0,0A0,0,0,0,0,9.77,9.91Z"/><path class="cls-2" d="M9.62,17.56s0-.18-.15-.2-.19,0-.16.14c-.1-.14-.14-.32,0-.38a.29.29,0,0,1,.4.17.57.57,0,0,1,0,.27Z"/><path class="cls-9" d="M9.72,17.57h-.1s0-.17-.15-.2a.14.14,0,0,0-.14,0,.11.11,0,0,0,0,.1v0l0,0a.41.41,0,0,1-.09-.31.1.1,0,0,1,.06-.08.19.19,0,0,1,.13,0,.28.28,0,0,1,.28.2.85.85,0,0,1,0,.27Zm-.09,0H9.7s0-.09,0-.26a.26.26,0,0,0-.26-.19.21.21,0,0,0-.12,0,.11.11,0,0,0-.06.07.38.38,0,0,0,.08.27.08.08,0,0,1,0-.08.15.15,0,0,1,.15,0C9.57,17.37,9.62,17.52,9.63,17.55Z"/><path class="cls-2" d="M9.62,17.63s-.15.17-.23.09c0,.12.09.2.23.13a.16.16,0,0,0,.09-.19Z"/><path class="cls-9" d="M9.52,17.89h0c-.06,0-.11-.06-.13-.17v0l0,0,0,0h0c.07,0,.17-.11.17-.11h0l.11,0h0a.17.17,0,0,1-.1.2Zm-.11-.15c0,.09.06.13.11.13h0l.09,0a.17.17,0,0,0,.1-.19l-.09,0s-.11.11-.18.11h0Z"/><path class="cls-2" d="M9.84,17.56s.05-.18.16-.2a.12.12,0,0,1,.16.14c.1-.14.14-.32,0-.38a.28.28,0,0,0-.39.17.57.57,0,0,0,0,.27Z"/><path class="cls-9" d="M9.84,17.57H9.75a.85.85,0,0,1,0-.27.27.27,0,0,1,.28-.2.19.19,0,0,1,.13,0,.1.1,0,0,1,.06.08.41.41,0,0,1-.09.31l0,0v0a.11.11,0,0,0,0-.1.14.14,0,0,0-.14,0c-.1,0-.15.2-.15.2h0Zm-.08,0h.08s.06-.18.16-.2a.15.15,0,0,1,.15,0,.11.11,0,0,1,0,.08.38.38,0,0,0,.08-.27.11.11,0,0,0-.06-.07.24.24,0,0,0-.12,0,.26.26,0,0,0-.26.19A.91.91,0,0,0,9.76,17.55Z"/><path class="cls-2" d="M9.85,17.63s.15.17.23.09c0,.12-.09.2-.23.13a.16.16,0,0,1-.09-.19Z"/><path class="cls-9" d="M9.94,17.89l-.09,0a.17.17,0,0,1-.1-.2h0l.11,0h0s.09.11.17.11l0,0,0,0v0C10.06,17.83,10,17.89,9.94,17.89Zm-.18-.23a.17.17,0,0,0,.1.19c.1,0,.17,0,.2-.11h0c-.08,0-.16-.09-.18-.11Z"/><path class="cls-2" d="M9.8,17.56a.8.8,0,0,1,.08-.38c.1-.15.17-.29,0-.44a.71.71,0,0,1-.17-.26.58.58,0,0,1-.12.21c-.09.09-.19.17-.11.35a.94.94,0,0,1,.16.52C9.72,17.61,9.8,17.56,9.8,17.56Z"/><path class="cls-9" d="M9.73,17.59h0a.05.05,0,0,1-.05,0h0a1,1,0,0,0-.15-.51h0a.25.25,0,0,1,.08-.33l0,0a.42.42,0,0,0,.11-.2v0a.94.94,0,0,0,.17.26c.13.15.07.28,0,.44a.8.8,0,0,0-.08.38h0S9.77,17.59,9.73,17.59Zm0,0H9.8a.63.63,0,0,1,.08-.38c.09-.16.16-.29,0-.43a.72.72,0,0,1-.16-.24.47.47,0,0,1-.11.18l0,0a.24.24,0,0,0-.08.31h0A1.12,1.12,0,0,1,9.69,17.56Z"/><path class="cls-2" d="M9.79,17.61s0,.18.09.23-.06.12-.09.17a.45.45,0,0,0,0,.09s0-.09-.05-.1-.15-.1-.07-.17a.31.31,0,0,0,.07-.2Z"/><path class="cls-9" d="M9.74,18.12v0s0-.09-.05-.09a.21.21,0,0,1-.1-.12.09.09,0,0,1,0-.06.26.26,0,0,0,.07-.2H9.8s0,.18.08.23,0,0,0,0,0,.06-.07.09l0,0a.45.45,0,0,0-.05.09Zm0-.49a.31.31,0,0,1-.08.21,0,0,0,0,0,0,.05c0,.05.07.1.09.1s0,.06.05.09l0-.08s0,0,0,0,.07-.06.07-.08,0,0,0,0-.08-.19-.08-.23Z"/><path class="cls-2" d="M9.53,17.59a.09.09,0,0,0,.08.08h.28a.09.09,0,0,0,.08-.08h0a.08.08,0,0,0-.08-.07H9.61a.08.08,0,0,0-.08.07Z"/><path class="cls-9" d="M9.89,17.67H9.61a.07.07,0,0,1-.08-.08.08.08,0,0,1,.08-.08h.28a.08.08,0,0,1,.08.08A.07.07,0,0,1,9.89,17.67Zm-.28-.14a.07.07,0,0,0-.07.06.07.07,0,0,0,.07.07h.28a.07.07,0,0,0,.07-.07.07.07,0,0,0-.07-.06Z"/><path class="cls-2" d="M10.44,15.55s-.13.44-.35.55a1.29,1.29,0,0,1,0-.79l.26-.11Z"/><path class="cls-9" d="M10.08,16.12h0a1.32,1.32,0,0,1,0-.8h0l.28-.12,0,.36h0s-.13.45-.36.56Zm.05-.8a1.3,1.3,0,0,0,0,.78c.21-.12.33-.52.34-.55l0-.34Z"/><path class="cls-2" d="M9.65,15.68a3.09,3.09,0,0,1-.37.55.68.68,0,0,1-.42.08c-.08,0-.14-.13-.23,0s-.19,0-.21.14.18,0,.22,0,.12,0,.18,0h.27a.42.42,0,0,1-.24.08.23.23,0,0,0-.24.19.77.77,0,0,0,.06.23.14.14,0,0,1,.05-.11.08.08,0,0,0,.14,0c0-.06.28-.22.33-.23s-.16.22-.24.32a.18.18,0,0,0,0,.2s0,.24.17.26c0-.17,0-.2,0-.2s.15,0,.14-.13a.84.84,0,0,1,.11-.43.35.35,0,0,1,.27-.2c.1,0,.23.1.28-.1a.26.26,0,0,1,.23,0,.26.26,0,0,0-.28-.16s-.15,0-.3.12,0,0,.09-.12a1.16,1.16,0,0,0,.26-.39,1.52,1.52,0,0,0,0-.19Z"/><path class="cls-9" d="M9.11,17.34h0c-.15,0-.17-.25-.17-.27a.18.18,0,0,1,0-.2L9,16.76a2.36,2.36,0,0,0,.16-.21s-.31.18-.32.23,0,.09-.09.09a.09.09,0,0,1-.06,0,.14.14,0,0,0,0,.1v0a.63.63,0,0,1-.07-.24c0-.09.07-.18.25-.19a.39.39,0,0,0,.22-.08H8.75l-.06,0a.06.06,0,0,1-.06,0s0,0-.09,0l-.12,0h0a.19.19,0,0,1,.17-.16h0a.09.09,0,0,1,.07,0,.18.18,0,0,1,.09,0l.07,0h.08a.63.63,0,0,0,.34-.08,2.66,2.66,0,0,0,.36-.56h0l.31-.13h0a1.52,1.52,0,0,1,0,.19,1.09,1.09,0,0,1-.27.4c-.07.05-.1.09-.1.11h0a.78.78,0,0,1,.27-.13h.07a.28.28,0,0,1,.24.17h0a.39.39,0,0,0-.12,0,.15.15,0,0,0-.09,0q0,.12-.12.12H9.62a.33.33,0,0,0-.26.19.89.89,0,0,0-.11.43.14.14,0,0,1,0,.09.16.16,0,0,1-.11,0s0,.06,0,.2Zm.08-.8h0s0,.07-.15.22l-.1.12a.15.15,0,0,0,0,.18h0s0,.22.15.25a.35.35,0,0,1,0-.2h0a.18.18,0,0,0,.11,0,.11.11,0,0,0,0-.08.93.93,0,0,1,.1-.44.35.35,0,0,1,.27-.19h.18s.08,0,.11-.11h0a.16.16,0,0,1,.1,0l.11,0a.28.28,0,0,0-.22-.14H9.82a.68.68,0,0,0-.26.13h0a0,0,0,0,1,0,0s.05-.08.11-.12a1,1,0,0,0,.26-.4.57.57,0,0,0,0-.16l-.27.11a3.34,3.34,0,0,1-.37.56.75.75,0,0,1-.35.08H8.86l-.08,0a.2.2,0,0,0-.08,0,.07.07,0,0,0-.06,0H8.59a.18.18,0,0,0-.16.13l.11,0a.11.11,0,0,1,.1.05s0,0,0,0h.06a.09.09,0,0,1,.07,0h.27a.33.33,0,0,1-.24.09c-.17,0-.23.1-.23.18a.65.65,0,0,0,.05.21.1.1,0,0,1,.05-.09h0l.06,0a.08.08,0,0,0,.07-.07c0-.06.29-.23.34-.24Z"/><path class="cls-2" d="M10.13,15.2s-.19.69-.78.57a2.32,2.32,0,0,0,.5-.67A.33.33,0,0,1,10.1,15Z"/><path class="cls-9" d="M9.48,15.8l-.13,0h0a2.49,2.49,0,0,0,.45-.59.56.56,0,0,1,0-.08A.33.33,0,0,1,10.1,15h0l0,.23h0S10,15.8,9.48,15.8Zm-.11,0h.11c.47,0,.63-.55.64-.58l0-.22a.28.28,0,0,0-.24.13l0,.08A2.68,2.68,0,0,1,9.37,15.77Z"/><path class="cls-2" d="M10.17,14.38a.56.56,0,0,0-.23.34,1.1,1.1,0,0,1-.29.56.44.44,0,0,0,.43-.16c.09-.15.09-.28.2-.35S10.17,14.38,10.17,14.38Z"/><path class="cls-9" d="M9.72,15.3H9.65a1.19,1.19,0,0,0,.28-.56.56.56,0,0,1,.23-.34h0s.22.31.11.39a.41.41,0,0,0-.12.19.6.6,0,0,1-.08.16A.4.4,0,0,1,9.72,15.3Zm-.05,0h.05a.41.41,0,0,0,.35-.17,1.18,1.18,0,0,0,.08-.16.45.45,0,0,1,.12-.2c.09-.06-.08-.32-.1-.37a.5.5,0,0,0-.22.33A1.27,1.27,0,0,1,9.67,15.28Z"/><path class="cls-2" d="M10.53,15s-.52.77-.06,1.05a2.38,2.38,0,0,1,.28-.71Z"/><path class="cls-9" d="M10.47,16h0a.43.43,0,0,1-.18-.24,1.45,1.45,0,0,1,.24-.82h0l.23.35h0a2.29,2.29,0,0,0-.29.7ZM10.53,15a1.26,1.26,0,0,0-.23.79.35.35,0,0,0,.16.23,2.16,2.16,0,0,1,.29-.69Z"/><path class="cls-2" d="M10.17,15.05a2,2,0,0,0-.35,1,1,1,0,0,0,.42-.6Z"/><path class="cls-9" d="M9.82,16h0a1.89,1.89,0,0,1,.34-1v0l.08.39h0a1,1,0,0,1-.42.6Zm.34-1a1.89,1.89,0,0,0-.33.93.91.91,0,0,0,.4-.58Z"/><path class="cls-2" d="M10.47,14.85a.74.74,0,0,1-.44.72c0-.36.12-.83.31-.93C10.48,14.75,10.47,14.85,10.47,14.85Z"/><path class="cls-9" d="M10,15.58h0c0-.37.13-.84.32-.94h0a.28.28,0,0,1,.13.22.73.73,0,0,1-.44.72Zm.32-.93c-.18.1-.3.54-.3.91a.75.75,0,0,0,.42-.71A.25.25,0,0,0,10.34,14.65Z"/><path class="cls-1" d="M10,12v2.4a1.42,1.42,0,1,0,2.83,0V12Z"/><path class="cls-2" d="M11.69,14h1.14v-.61H11.7V12h-.6v1.46H10V14h1.1v1.73a1.65,1.65,0,0,0,.31,0,1.27,1.27,0,0,0,.28,0Z"/><path class="cls-2" d="M11.89,14.27v.83s.38.15.55.06a.22.22,0,0,0,.05-.36c-.09-.09-.27-.06-.27,0s.19.12.18,0c.07.11,0,.21-.18.2s-.22-.12-.17-.2.13-.12,0-.24a.18.18,0,0,1,.12-.29c.17,0,.27.12.16.2,0-.09-.05-.14-.1-.11a.16.16,0,0,0,0,.24c.11.05.32-.11.24-.32S12.08,14.13,11.89,14.27Z"/><path class="cls-2" d="M10.91,14.27v.83s-.38.15-.55.06a.22.22,0,0,1,0-.36c.09-.09.27-.06.27,0s-.18.12-.18,0c-.07.11,0,.21.18.2s.22-.12.18-.2-.14-.12-.06-.24a.18.18,0,0,0-.12-.29c-.17,0-.27.12-.16.2,0-.09.05-.14.1-.11a.16.16,0,0,1,0,.24c-.11.05-.32-.11-.23-.32S10.72,14.13,10.91,14.27Z"/><path class="cls-2" d="M11.89,12.35v.83s.38.15.55.06a.22.22,0,0,0,.05-.36c-.09-.09-.27-.06-.27,0s.19.12.18,0c.07.11,0,.21-.18.2s-.22-.12-.17-.2.13-.12,0-.24a.18.18,0,0,1,.12-.29c.17,0,.27.12.16.2,0-.09-.05-.14-.1-.11a.16.16,0,0,0,0,.24c.11,0,.32-.11.24-.32S12.08,12.21,11.89,12.35Z"/><path class="cls-2" d="M10.91,12.35v.83s-.38.15-.55.06a.22.22,0,0,1,0-.36c.09-.09.27-.06.27,0s-.18.12-.18,0c-.07.11,0,.21.18.2s.22-.12.18-.2-.14-.12-.06-.24a.18.18,0,0,0-.12-.29c-.17,0-.27.12-.16.2,0-.09.05-.14.1-.11a.16.16,0,0,1,0,.24c-.11,0-.32-.11-.23-.32S10.72,12.21,10.91,12.35Z"/><path class="cls-10" d="M11.41,15.79A1.43,1.43,0,0,1,10,14.36V12h2.87v2.41A1.44,1.44,0,0,1,11.41,15.79ZM10,12v2.38a1.41,1.41,0,0,0,2.81,0V12Z"/></g></g></svg>