<svg xmlns="http://www.w3.org/2000/svg" viewBox="0 0 44.11 24.98"><defs><style>.cls-1{fill:#ef2525;}.cls-2{fill:#fff;}</style></defs><title>tunisia</title><g id="Layer_2" data-name="Layer 2"><g id="OBJECTS"><rect class="cls-1" width="44.11" height="24.98"/><path class="cls-2" d="M29,12.49a6.94,6.94,0,1,1-6.93-6.94A6.94,6.94,0,0,1,29,12.49Z"/><path class="cls-1" d="M23.55,17a4.55,4.55,0,0,1,0-9.09,4.47,4.47,0,0,1,2.26.61,5.44,5.44,0,1,0,0,7.88A4.57,4.57,0,0,1,23.55,17Z"/><polygon class="cls-1" points="25.11 9.84 25.77 11.86 27.9 11.86 26.18 13.11 26.83 15.14 25.11 13.89 23.39 15.14 24.05 13.11 22.33 11.86 24.45 11.86 25.11 9.84"/></g></g></svg>