<svg xmlns="http://www.w3.org/2000/svg" viewBox="0 0 44.11 24.98"><defs><style>.cls-1{fill:#f7f7f7;}.cls-2{fill:#0363c7;}.cls-3{fill:#ffc41f;}</style></defs><title>uruguay</title><g id="Layer_2" data-name="Layer 2"><g id="OBJECTS"><rect class="cls-1" width="44.11" height="24.98"/><rect class="cls-2" x="16.49" width="27.62" height="3.67"/><rect class="cls-2" x="16.49" y="7.1" width="27.62" height="3.67"/><rect class="cls-2" x="0.1" y="14.21" width="44.01" height="3.67"/><rect class="cls-2" x="0.1" y="21.31" width="44.01" height="3.67"/><path class="cls-3" d="M10.46,2.13a1.27,1.27,0,0,0-.83.45c-.24.38-.37,1.81-1.36,2.2A1.65,1.65,0,0,0,8.75,6a3.07,3.07,0,0,0,.83-1,3.93,3.93,0,0,0,.3-1.81A1.15,1.15,0,0,1,10.46,2.13Z"/><path d="M8.75,6.05h0a1.69,1.69,0,0,1-.49-1.26h0a2.44,2.44,0,0,0,1.16-1.7,3.58,3.58,0,0,1,.19-.5,1.32,1.32,0,0,1,.85-.46h.11l-.1,0a1.13,1.13,0,0,0-.57,1.1,4.07,4.07,0,0,1-.3,1.82,3.13,3.13,0,0,1-.84,1ZM8.29,4.8A1.68,1.68,0,0,0,8.75,6a3.27,3.27,0,0,0,.81-1,4,4,0,0,0,.3-1.8,1.22,1.22,0,0,1,.49-1.08,1.08,1.08,0,0,0-.7.42,2.27,2.27,0,0,0-.19.49A2.52,2.52,0,0,1,8.29,4.8Z"/><path d="M8.47,6l0,0a5.69,5.69,0,0,0,.9-1.56,4.08,4.08,0,0,0,.17-.77c.1-.66.2-1.29.94-1.52v0c-.72.22-.81.84-.91,1.48a4.18,4.18,0,0,1-.17.78A5.65,5.65,0,0,1,8.47,6Z"/><path class="cls-3" d="M6.12,11.94a1.23,1.23,0,0,0,.81-.49c.22-.39.28-1.82,1.25-2.26A1.7,1.7,0,0,0,7.65,8a3.06,3.06,0,0,0-.79,1,3.92,3.92,0,0,0-.21,1.83A1.15,1.15,0,0,1,6.12,11.94Z"/><path d="M6,12l.1-.06a1.14,1.14,0,0,0,.52-1.12A3.91,3.91,0,0,1,6.84,9a3.06,3.06,0,0,1,.79-1h0A1.73,1.73,0,0,1,8.2,9.19h0A2.46,2.46,0,0,0,7.11,11a2.1,2.1,0,0,1-.16.5,1.25,1.25,0,0,1-.82.5ZM7.65,8a3,3,0,0,0-.77,1,4,4,0,0,0-.21,1.82,1.23,1.23,0,0,1-.44,1.1,1.11,1.11,0,0,0,.68-.46A2,2,0,0,0,7.07,11,2.51,2.51,0,0,1,8.16,9.18,1.74,1.74,0,0,0,7.65,8Z"/><path d="M6.13,12v0c.71-.25.77-.87.84-1.52a5.08,5.08,0,0,1,.13-.78A5.64,5.64,0,0,1,7.93,8L8,8a5.78,5.78,0,0,0-.83,1.61A3.87,3.87,0,0,0,7,10.4C6.93,11.07,6.86,11.7,6.13,12Z"/><path class="cls-3" d="M6.36,2a1.2,1.2,0,0,0-.27.9c.1.44,1,1.54.59,2.52A1.73,1.73,0,0,0,7.9,6a3,3,0,0,0-.09-1.27,3.92,3.92,0,0,0-1.08-1.5A1.12,1.12,0,0,1,6.36,2Z"/><path d="M7.86,6h0a1.72,1.72,0,0,1-1.19-.55h0a2.4,2.4,0,0,0-.38-2,2.21,2.21,0,0,1-.21-.49A1.21,1.21,0,0,1,6.34,2l.07-.09,0,.11a1.14,1.14,0,0,0,.38,1.18,3.91,3.91,0,0,1,1.07,1.5A3.17,3.17,0,0,1,7.92,6H7.86ZM6.71,5.45A1.67,1.67,0,0,0,7.86,6h0a3.06,3.06,0,0,0-.09-1.24A4,4,0,0,0,6.72,3.25,1.25,1.25,0,0,1,6.3,2.14a1.21,1.21,0,0,0-.2.8,3,3,0,0,0,.22.47A2.52,2.52,0,0,1,6.71,5.45Z"/><path d="M7.63,6.17a5.69,5.69,0,0,0-.46-1.75,3.93,3.93,0,0,0-.43-.66c-.39-.54-.77-1-.4-1.73l0,0c-.35.66,0,1.16.4,1.69a3.64,3.64,0,0,1,.43.67,5.56,5.56,0,0,1,.47,1.76Z"/><path class="cls-3" d="M10.22,12a1.26,1.26,0,0,0,.23-.92c-.12-.43-1.09-1.49-.71-2.48A1.71,1.71,0,0,0,8.5,8.15a3,3,0,0,0,.15,1.27,4,4,0,0,0,1.14,1.44A1.14,1.14,0,0,1,10.22,12Z"/><path d="M10.17,12.14l0-.11a1.13,1.13,0,0,0-.43-1.15A4,4,0,0,1,8.63,9.42a3,3,0,0,1-.15-1.27h.1a1.78,1.78,0,0,1,1.17.49h0a2.49,2.49,0,0,0,.48,2,2.35,2.35,0,0,1,.24.48,1.3,1.3,0,0,1-.23.93Zm-1.65-4a2.91,2.91,0,0,0,.15,1.24A4,4,0,0,0,9.8,10.85a1.19,1.19,0,0,1,.47,1.08,1.12,1.12,0,0,0,.16-.8,2.32,2.32,0,0,0-.24-.47,2.55,2.55,0,0,1-.48-2A1.67,1.67,0,0,0,8.52,8.17Z"/><path d="M10.24,12.05l0,0c.32-.68-.07-1.17-.48-1.68a3.57,3.57,0,0,1-.46-.64A5.5,5.5,0,0,1,8.72,8h0A5.52,5.52,0,0,0,9.3,9.69a3.57,3.57,0,0,0,.46.64C10.18,10.85,10.57,11.34,10.24,12.05Z"/><path class="cls-3" d="M3.39,4.87a1.24,1.24,0,0,0,.44.83c.39.24,1.81.37,2.21,1.36a1.67,1.67,0,0,0,1.24-.48,2.93,2.93,0,0,0-1-.83,3.84,3.84,0,0,0-1.82-.3A1.14,1.14,0,0,1,3.39,4.87Z"/><path d="M6,7.08v0c-.29-.71-1.14-1-1.7-1.16a2.1,2.1,0,0,1-.5-.19,1.21,1.21,0,0,1-.45-.84l0-.12,0,.11a1.13,1.13,0,0,0,1.1.57h.2a3.63,3.63,0,0,1,1.62.3,2.88,2.88,0,0,1,1,.84h0A1.65,1.65,0,0,1,6,7.08ZM3.43,5a1.15,1.15,0,0,0,.41.7,3.91,3.91,0,0,0,.49.19A2.46,2.46,0,0,1,6.05,7a1.73,1.73,0,0,0,1.2-.46,2.9,2.9,0,0,0-.94-.82,3.61,3.61,0,0,0-1.61-.3H4.5A1.18,1.18,0,0,1,3.43,5Z"/><path d="M7.21,6.89A5.6,5.6,0,0,0,5.65,6a4.78,4.78,0,0,0-.77-.16c-.66-.1-1.28-.2-1.51-.94l0,0c.22.72.83.82,1.48.92a5,5,0,0,1,.77.16,5.6,5.6,0,0,1,1.58.92Z"/><path class="cls-3" d="M13.19,9.2a1.23,1.23,0,0,0-.48-.8c-.4-.22-1.82-.29-2.27-1.26a1.65,1.65,0,0,0-1.21.54,2.84,2.84,0,0,0,1,.78,3.89,3.89,0,0,0,1.82.22A1.15,1.15,0,0,1,13.19,9.2Z"/><path d="M13.23,9.32l-.05-.11a1.11,1.11,0,0,0-1-.52h-.12l-.51,0h0a3.2,3.2,0,0,1-1.33-.24,3.15,3.15,0,0,1-1-.79h0a1.67,1.67,0,0,1,1.23-.55h0v0c.32.7,1.18.92,1.75,1.07a3,3,0,0,1,.51.17,1.25,1.25,0,0,1,.49.82Zm-1.05-.66a1.17,1.17,0,0,1,1,.44,1.19,1.19,0,0,0-.45-.69,4.3,4.3,0,0,0-.5-.16,2.5,2.5,0,0,1-1.77-1.09,1.69,1.69,0,0,0-1.18.52,3.18,3.18,0,0,0,1,.77,3.32,3.32,0,0,0,1.32.23l.5,0Z"/><path d="M13.17,9.21c-.25-.71-.87-.77-1.52-.84a5.08,5.08,0,0,1-.78-.13A5.93,5.93,0,0,1,9.25,7.4l0,0a6,6,0,0,0,1.6.83,5.08,5.08,0,0,0,.78.13c.66.07,1.29.13,1.55.87Z"/><path class="cls-3" d="M3.29,9a1.24,1.24,0,0,0,.9.27c.44-.1,1.54-1,2.52-.6a1.65,1.65,0,0,0,.54-1.21A3,3,0,0,0,6,7.52,4,4,0,0,0,4.49,8.59,1.15,1.15,0,0,1,3.29,9Z"/><path d="M4,9.28A1.39,1.39,0,0,1,3.28,9l-.09-.08L3.3,9A.71.71,0,0,0,3.59,9a1.24,1.24,0,0,0,.88-.42A4.07,4.07,0,0,1,6,7.5a2.64,2.64,0,0,1,.83-.12,3,3,0,0,1,.44,0h0v0a1.73,1.73,0,0,1-.55,1.23h0a1.37,1.37,0,0,0-.54-.11A3.5,3.5,0,0,0,4.68,9a2.66,2.66,0,0,1-.48.22ZM3.4,9A1.21,1.21,0,0,0,4,9.24l.16,0A2.77,2.77,0,0,0,4.66,9a3.41,3.41,0,0,1,1.5-.49,1.45,1.45,0,0,1,.55.1,1.7,1.7,0,0,0,.52-1.17,2.55,2.55,0,0,0-.42,0A2.62,2.62,0,0,0,6,7.54,3.87,3.87,0,0,0,4.5,8.61,1.28,1.28,0,0,1,3.59,9,.58.58,0,0,1,3.4,9Z"/><path d="M3.83,9.14A1.23,1.23,0,0,1,3.28,9l0,0c.66.36,1.16,0,1.69-.4a5.87,5.87,0,0,1,.67-.43,5.47,5.47,0,0,1,1.76-.46v0a5.38,5.38,0,0,0-1.75.46A5.12,5.12,0,0,0,5,8.58,2.11,2.11,0,0,1,3.83,9.14Z"/><path class="cls-3" d="M13.29,5.1a1.23,1.23,0,0,0-.92-.22C11.94,5,10.89,6,9.89,5.59a1.66,1.66,0,0,0-.48,1.24,3,3,0,0,0,1.26-.15,4,4,0,0,0,1.44-1.14A1.15,1.15,0,0,1,13.29,5.1Z"/><path d="M9.68,6.86H9.39v0a1.68,1.68,0,0,1,.48-1.25h0a1.28,1.28,0,0,0,.48.09h0a3.27,3.27,0,0,0,1.52-.56,2.63,2.63,0,0,1,.48-.24.64.64,0,0,1,.2,0,1.41,1.41,0,0,1,.73.26l.1.06-.12,0a1,1,0,0,0-.25,0,1.22,1.22,0,0,0-.9.47A4.07,4.07,0,0,1,10.68,6.7,3,3,0,0,1,9.68,6.86Zm-.26-.05h.26a2.89,2.89,0,0,0,1-.16A3.9,3.9,0,0,0,12.1,5.52,1.26,1.26,0,0,1,13,5l.15,0a1.22,1.22,0,0,0-.61-.19.58.58,0,0,0-.19,0,2.44,2.44,0,0,0-.47.23,3.18,3.18,0,0,1-1.54.57h0a1.28,1.28,0,0,1-.48-.09A1.74,1.74,0,0,0,9.42,6.81Z"/><path d="M9.23,6.61v0A5.52,5.52,0,0,0,10.94,6a5,5,0,0,0,.64-.46c.52-.42,1-.82,1.72-.49l0,0c-.68-.32-1.16.07-1.67.48a4,4,0,0,1-.65.46A5.4,5.4,0,0,1,9.23,6.61Z"/><polygon class="cls-3" points="7.62 5.41 8.27 1.62 8.88 5.41 8.25 6.02 7.62 5.41"/><path d="M8.25,6.05,7.6,5.41,8.27,1.5,8.9,5.41ZM7.64,5.4l.61.6.61-.6L8.27,1.74Z"/><rect x="8.25" y="1.62" width="0.04" height="4.7"/><polygon class="cls-3" points="8.88 8.83 8.22 12.62 7.62 8.83 8.25 8.21 8.88 8.83"/><path d="M8.22,12.74,7.6,8.82l.65-.63.65.63Zm-.58-3.9.58,3.66.64-3.66-.61-.6Z"/><rect x="8.2" y="7.92" width="0.04" height="4.7"/><polygon class="cls-3" points="6.59 6.35 4.37 3.21 7.48 5.46 7.47 6.34 6.59 6.35"/><path d="M6.58,6.37h0L4.29,3.13,7.5,5.45v.91ZM4.46,3.3l2.14,3h.85V5.47Z"/><rect x="6.02" y="2.52" width="0.04" height="4.7" transform="translate(-1.68 5.7) rotate(-45)"/><polygon class="cls-3" points="9.9 7.88 12.12 11.02 9.01 8.77 9.02 7.89 9.9 7.88"/><path d="M12.21,11.11,9,8.78V7.87h.92ZM9,8.76l3,2.18-2.15-3H9Z"/><rect x="10.44" y="7.01" width="0.04" height="4.7" transform="translate(-3.56 10.14) rotate(-45)"/><polygon class="cls-3" points="6.54 7.75 2.75 7.1 6.54 6.49 7.15 7.12 6.54 7.75"/><path d="M6.54,7.77,2.63,7.09l3.91-.62.64.65ZM2.87,7.1l3.66.63.59-.61-.59-.61Z"/><rect x="2.75" y="7.08" width="4.7" height="0.04"/><polygon class="cls-3" points="9.96 6.49 13.75 7.14 9.96 7.75 9.34 7.12 9.96 6.49"/><path d="M10,7.77l-.64-.65L10,6.47l3.92.67Zm-.58-.65.6.61,3.66-.59L10,6.51Z"/><rect x="9.04" y="7.12" width="4.7" height="0.04"/><polygon class="cls-3" points="7.48 8.77 4.34 10.99 6.59 7.88 7.47 7.89 7.48 8.77"/><path d="M4.26,11.08,6.58,7.86h.91v.91h0ZM6.6,7.9l-2.17,3,3-2.15V7.91Z"/><rect x="3.65" y="9.31" width="4.7" height="0.04" transform="translate(-4.79 6.78) rotate(-43.97)"/><polygon class="cls-3" points="9.01 5.46 12.15 3.25 9.9 6.35 9.02 6.34 9.01 5.46"/><path d="M9.91,6.37H9V5.45H9l3.24-2.29ZM9,6.33h.85l2.18-3L9,5.47Z"/><rect x="8.14" y="4.89" width="4.7" height="0.04" transform="translate(-0.33 9.04) rotate(-45.99)"/><path class="cls-3" d="M10.05,7.09a1.81,1.81,0,1,1-1.8-1.8A1.8,1.8,0,0,1,10.05,7.09Z"/><path d="M8.25,8.92a1.83,1.83,0,1,1,1.82-1.83A1.83,1.83,0,0,1,8.25,8.92Zm0-3.62A1.79,1.79,0,1,0,10,7.09,1.79,1.79,0,0,0,8.25,5.3Z"/><path d="M8.94,6.87a.4.4,0,0,1-.37-.19h0a.38.38,0,0,1,.33-.19.72.72,0,0,1,.46.23l0,0h0A.81.81,0,0,1,8.94,6.87Zm-.32-.2a.33.33,0,0,0,.32.16.74.74,0,0,0,.39-.12.67.67,0,0,0-.42-.2A.37.37,0,0,0,8.62,6.67Z"/><path d="M9.08,6.66a.17.17,0,0,1-.17.17.18.18,0,0,1-.17-.17.17.17,0,0,1,.17-.17A.16.16,0,0,1,9.08,6.66Z"/><path d="M9,6.13c-.18,0-.54.22-.47.36l0,0s.25-.23.43-.17a1.59,1.59,0,0,1,.55.24A1,1,0,0,0,9,6.13Z"/><path d="M7.56,6.87h0a.76.76,0,0,1-.43-.14h0l0,0a.74.74,0,0,1,.46-.23.43.43,0,0,1,.34.19h0A.39.39,0,0,1,7.56,6.87Zm-.39-.16a.71.71,0,0,0,.39.12.34.34,0,0,0,.32-.16.39.39,0,0,0-.3-.16A.68.68,0,0,0,7.17,6.71Z"/><path d="M7.41,6.66a.17.17,0,0,0,.34,0,.17.17,0,0,0-.34,0Z"/><path d="M7.52,6.13c.19,0,.55.22.48.36l0,0s-.24-.23-.43-.17A1.59,1.59,0,0,0,7,6.52,1,1,0,0,1,7.52,6.13Z"/><path d="M8.25,7.58a.17.17,0,0,1-.16-.1.15.15,0,0,1-.18,0C7.83,7.37,8,7.21,8,7.2l0,0s-.12.15-.07.2.14,0,.15,0l0,0v0a.12.12,0,0,0,.13.09.16.16,0,0,0,.16-.1h0s.09,0,.12,0,0,0,0,0-.06-.15-.09-.17l0,0s.14.13.11.23a.1.1,0,0,1,0,.05s-.1,0-.13,0a.21.21,0,0,1-.18.1Z"/><path d="M8.6,7.39a.66.66,0,0,1,.25.31c-.07-.08-.23-.24-.3-.24S8.6,7.39,8.6,7.39Z"/><path d="M7.89,7.39a.66.66,0,0,0-.25.31c.07-.08.23-.24.3-.24S7.89,7.39,7.89,7.39Z"/><path d="M7.46,7.87a.49.49,0,0,0,.36,0,.34.34,0,0,1,.28,0l.15.06s.13-.08.17-.07a.66.66,0,0,1,.23.08A.86.86,0,0,0,9,7.9a1.61,1.61,0,0,1-.49.27,1.16,1.16,0,0,1-.46,0A.68.68,0,0,1,7.67,8Z"/><path class="cls-3" d="M7.72,8a2.28,2.28,0,0,1,.54,0l.55,0a.89.89,0,0,1-.56.14A1,1,0,0,1,7.72,8Z"/><path d="M7.43,8a.3.3,0,0,1,.1-.24l0,0a.27.27,0,0,0-.08.2Z"/><path d="M9.07,8H9a.25.25,0,0,0-.09-.2l0,0A.32.32,0,0,1,9.07,8Z"/></g></g></svg>